M48
; DRILL file {KiCad (5.1.5-0-10_14)} date Thursday, February 27, 2020 at 02:11:37 PM
; FORMAT={-:-/ absolute / metric / decimal}
; #@! TF.CreationDate,2020-02-27T14:11:37-08:00
; #@! TF.GenerationSoftware,Kicad,Pcbnew,(5.1.5-0-10_14)
; #@! TF.FileFunction,Plated,1,2,PTH
FMAT,2
METRIC
T1C0.200
T2C0.300
T3C0.400
T4C0.650
T5C0.900
T6C1.200
%
G90
G05
T1
X151.473Y-51.364
X151.473Y-52.164
X151.473Y-52.964
X152.273Y-51.364
X152.273Y-52.164
X152.273Y-52.964
X153.073Y-51.364
X153.073Y-52.164
X153.073Y-52.964
X151.473Y-41.364
X151.473Y-42.164
X151.473Y-42.964
X152.273Y-41.364
X152.273Y-42.164
X152.273Y-42.964
X153.073Y-41.364
X153.073Y-42.164
X153.073Y-42.964
X151.473Y-61.364
X151.473Y-62.164
X151.473Y-62.964
X152.273Y-61.364
X152.273Y-62.164
X152.273Y-62.964
X153.073Y-61.364
X153.073Y-62.164
X153.073Y-62.964
X151.473Y-71.364
X151.473Y-72.164
X151.473Y-72.964
X152.273Y-71.364
X152.273Y-72.164
X152.273Y-72.964
X153.073Y-71.364
X153.073Y-72.164
X153.073Y-72.964
T2
X115.138Y-57.696
X115.432Y-58.219
X115.569Y-56.677
X115.824Y-56.134
X115.824Y-58.801
X115.918Y-57.184
T3
X72.909Y-31.841
X76.213Y-41.786
X76.275Y-44.0
X77.5Y-41.0
X78.0Y-43.5
X79.075Y-41.0
X79.096Y-54.788
X79.756Y-61.214
X80.0Y-35.5
X80.5Y-39.5
X80.518Y-43.18
X80.518Y-44.45
X81.0Y-33.5
X81.5Y-54.788
X82.026Y-41.026
X82.5Y-34.5
X84.25Y-55.0
X84.582Y-75.438
X85.75Y-43.75
X87.0Y-55.0
X87.829Y-49.3
X89.25Y-48.5
X89.408Y-75.438
X89.5Y-37.0
X89.517Y-32.941
X89.916Y-59.182
X89.916Y-60.452
X90.0Y-49.75
X90.0Y-53.5
X90.17Y-67.564
X90.17Y-68.58
X90.51Y-33.054
X90.75Y-50.5
X90.75Y-54.25
X91.302Y-41.861
X91.398Y-33.791
X91.5Y-51.25
X91.5Y-55.0
X91.649Y-40.923
X91.974Y-39.977
X92.202Y-34.544
X92.25Y-52.0
X92.25Y-55.75
X92.603Y-38.97
X92.71Y-75.438
X93.277Y-33.46
X93.599Y-39.243
X94.742Y-42.355
X95.0Y-65.0
X95.0Y-67.25
X96.266Y-75.438
X97.25Y-46.0
X97.5Y-65.0
X97.5Y-67.25
X98.742Y-42.355
X100.838Y-53.594
X100.838Y-54.61
X101.25Y-46.0
X101.6Y-40.576
X102.743Y-42.355
X105.25Y-46.0
X105.456Y-49.794
X106.743Y-42.418
X107.634Y-36.142
X107.75Y-49.75
X108.344Y-60.57
X108.458Y-57.404
X108.889Y-36.142
X109.0Y-46.0
X109.029Y-50.165
X109.664Y-41.212
X109.918Y-49.085
X110.744Y-42.418
X110.744Y-51.689
X111.175Y-59.816
X111.504Y-60.76
X112.19Y-53.097
X112.522Y-65.278
X112.649Y-57.424
X113.0Y-46.0
X113.03Y-75.438
X113.665Y-54.356
X113.87Y-50.936
X114.3Y-61.468
X114.704Y-65.726
X114.744Y-42.418
X114.808Y-48.895
X115.824Y-66.04
X115.84Y-48.895
X116.459Y-53.34
X116.656Y-66.595
X116.713Y-61.543
X116.84Y-48.895
X117.0Y-46.0
X117.015Y-54.603
X117.602Y-75.438
X117.983Y-57.404
X118.237Y-67.183
X118.25Y-61.75
X118.745Y-42.355
X119.313Y-54.891
X120.142Y-60.579
X120.269Y-48.932
X120.315Y-54.691
X120.523Y-66.802
X120.904Y-50.89
X120.904Y-75.438
X121.158Y-64.643
X121.25Y-46.0
X121.598Y-55.304
X122.174Y-50.8
X122.211Y-57.569
X122.745Y-42.355
X123.063Y-67.31
X123.317Y-58.928
X124.46Y-75.438
X125.0Y-46.0
X125.552Y-53.67
X126.475Y-37.592
X126.746Y-51.308
X127.254Y-63.119
X127.313Y-38.138
X127.5Y-45.25
X127.508Y-56.134
X127.635Y-50.673
X127.757Y-67.315
X128.198Y-38.604
X128.25Y-44.5
X128.36Y-49.662
X128.423Y-64.276
X128.878Y-69.051
X129.0Y-43.75
X129.032Y-48.895
X129.307Y-65.585
X129.413Y-64.135
X129.667Y-62.484
X129.75Y-43.0
X129.794Y-48.133
X130.048Y-50.673
X130.683Y-53.086
X130.937Y-45.212
X132.461Y-49.657
X132.999Y-46.741
X133.223Y-62.738
X133.858Y-51.816
X133.898Y-45.383
X134.239Y-49.276
X134.239Y-69.85
X134.366Y-42.926
X137.35Y-60.833
X138.176Y-55.499
X138.43Y-67.056
X138.684Y-42.926
X138.684Y-48.514
X138.811Y-62.738
X139.446Y-55.499
X139.527Y-40.346
X141.732Y-78.74
X143.256Y-78.486
X143.764Y-82.296
X144.018Y-61.087
X145.923Y-39.624
X147.066Y-69.977
X147.193Y-51.689
X147.193Y-61.595
X147.955Y-36.83
X149.606Y-59.309
X149.606Y-75.438
X149.606Y-80.772
X149.777Y-37.167
X150.097Y-44.606
X150.109Y-64.582
X150.368Y-50.006
X150.407Y-54.503
X150.495Y-39.37
X150.495Y-55.499
X150.495Y-65.504
X150.537Y-45.504
X150.749Y-69.281
X150.757Y-75.592
X151.765Y-39.281
X151.892Y-49.281
X152.019Y-59.281
X152.019Y-69.281
X153.416Y-84.074
X156.21Y-78.232
X159.258Y-78.486
X160.782Y-40.894
X160.782Y-43.688
X160.909Y-50.8
X160.909Y-53.467
X161.036Y-60.452
X161.036Y-69.596
X161.163Y-73.533
X161.188Y-68.631
X161.29Y-63.627
X161.544Y-40.894
X161.671Y-43.942
X161.671Y-53.34
X161.798Y-50.8
X161.925Y-60.198
X162.052Y-73.533
X162.179Y-63.627
X164.592Y-74.676
X164.592Y-75.946
X164.846Y-80.772
X164.846Y-82.55
X175.75Y-68.5
X175.75Y-71.5
X177.0Y-69.95
X178.5Y-68.5
X178.5Y-71.5
T4
X95.25Y-33.782
X95.25Y-35.052
X96.52Y-33.782
X96.52Y-35.052
X97.79Y-33.782
X97.79Y-35.052
X99.06Y-33.782
X99.06Y-35.052
X100.33Y-33.782
X100.33Y-35.052
X101.6Y-33.782
X101.6Y-35.052
X102.87Y-33.782
X102.87Y-35.052
X104.14Y-33.782
X104.14Y-35.052
X105.41Y-33.782
X105.41Y-35.052
X106.68Y-33.782
X106.68Y-35.052
X107.95Y-33.782
X107.95Y-35.052
X109.22Y-33.782
X109.22Y-35.052
X110.49Y-33.782
X110.49Y-35.052
X111.76Y-33.782
X111.76Y-35.052
X113.03Y-33.782
X113.03Y-35.052
X114.3Y-33.782
X114.3Y-35.052
X115.57Y-33.782
X115.57Y-35.052
X116.84Y-33.782
X116.84Y-35.052
X118.11Y-33.782
X118.11Y-35.052
X119.38Y-33.782
X119.38Y-35.052
T5
X161.875Y-55.004
X161.875Y-58.204
X163.875Y-56.604
X163.875Y-59.804
X165.875Y-55.004
X165.875Y-58.204
X167.875Y-56.604
X167.875Y-59.804
X169.875Y-55.004
X169.875Y-58.204
X169.875Y-61.404
X171.875Y-53.404
X171.875Y-56.604
X171.875Y-59.804
X173.875Y-55.004
X173.875Y-58.204
X173.875Y-61.404
X175.875Y-53.404
X175.875Y-56.604
X175.875Y-59.804
T6
X83.812Y-36.005
X87.312Y-36.005
X74.041Y-49.911
X74.041Y-53.411
X74.041Y-56.911
X74.041Y-60.411
X73.914Y-74.168
X73.914Y-77.668
X73.914Y-65.405
X73.914Y-68.905
X108.712Y-79.629
X112.212Y-79.629
X115.712Y-79.629
X119.212Y-79.629
X122.712Y-79.629
X126.212Y-79.629
X129.712Y-79.629
X133.212Y-79.629
X74.041Y-35.687
X74.041Y-39.187
X74.041Y-42.687
X74.041Y-46.187
X80.518Y-79.629
X84.018Y-79.629
X87.518Y-79.629
X91.018Y-79.629
X94.518Y-79.629
X98.018Y-79.629
X101.518Y-79.629
X105.018Y-79.629
T0
M30
