G04 #@! TF.GenerationSoftware,KiCad,Pcbnew,(5.1.5-0-10_14)*
G04 #@! TF.CreationDate,2020-02-27T14:11:35-08:00*
G04 #@! TF.ProjectId,MotorDriverBoard_v2,4d6f746f-7244-4726-9976-6572426f6172,rev?*
G04 #@! TF.SameCoordinates,Original*
G04 #@! TF.FileFunction,Soldermask,Bot*
G04 #@! TF.FilePolarity,Negative*
%FSLAX46Y46*%
G04 Gerber Fmt 4.6, Leading zero omitted, Abs format (unit mm)*
G04 Created by KiCad (PCBNEW (5.1.5-0-10_14)) date 2020-02-27 14:11:35*
%MOMM*%
%LPD*%
G04 APERTURE LIST*
%ADD10C,0.100000*%
G04 APERTURE END LIST*
D10*
G36*
X134463000Y-80880000D02*
G01*
X131961000Y-80880000D01*
X131961000Y-78378000D01*
X134463000Y-78378000D01*
X134463000Y-80880000D01*
G37*
G36*
X130963000Y-80880000D02*
G01*
X128461000Y-80880000D01*
X128461000Y-78378000D01*
X130963000Y-78378000D01*
X130963000Y-80880000D01*
G37*
G36*
X126576903Y-78426075D02*
G01*
X126672002Y-78465466D01*
X126804571Y-78520378D01*
X127009466Y-78657285D01*
X127183715Y-78831534D01*
X127320622Y-79036429D01*
X127414925Y-79264097D01*
X127463000Y-79505787D01*
X127463000Y-79752213D01*
X127414925Y-79993903D01*
X127320622Y-80221571D01*
X127183715Y-80426466D01*
X127009466Y-80600715D01*
X126804571Y-80737622D01*
X126804570Y-80737623D01*
X126804569Y-80737623D01*
X126576903Y-80831925D01*
X126335214Y-80880000D01*
X126088786Y-80880000D01*
X125847097Y-80831925D01*
X125619431Y-80737623D01*
X125619430Y-80737623D01*
X125619429Y-80737622D01*
X125414534Y-80600715D01*
X125240285Y-80426466D01*
X125103378Y-80221571D01*
X125009075Y-79993903D01*
X124961000Y-79752213D01*
X124961000Y-79505787D01*
X125009075Y-79264097D01*
X125103378Y-79036429D01*
X125240285Y-78831534D01*
X125414534Y-78657285D01*
X125619429Y-78520378D01*
X125751999Y-78465466D01*
X125847097Y-78426075D01*
X126088786Y-78378000D01*
X126335214Y-78378000D01*
X126576903Y-78426075D01*
G37*
G36*
X123076903Y-78426075D02*
G01*
X123172002Y-78465466D01*
X123304571Y-78520378D01*
X123509466Y-78657285D01*
X123683715Y-78831534D01*
X123820622Y-79036429D01*
X123914925Y-79264097D01*
X123963000Y-79505787D01*
X123963000Y-79752213D01*
X123914925Y-79993903D01*
X123820622Y-80221571D01*
X123683715Y-80426466D01*
X123509466Y-80600715D01*
X123304571Y-80737622D01*
X123304570Y-80737623D01*
X123304569Y-80737623D01*
X123076903Y-80831925D01*
X122835214Y-80880000D01*
X122588786Y-80880000D01*
X122347097Y-80831925D01*
X122119431Y-80737623D01*
X122119430Y-80737623D01*
X122119429Y-80737622D01*
X121914534Y-80600715D01*
X121740285Y-80426466D01*
X121603378Y-80221571D01*
X121509075Y-79993903D01*
X121461000Y-79752213D01*
X121461000Y-79505787D01*
X121509075Y-79264097D01*
X121603378Y-79036429D01*
X121740285Y-78831534D01*
X121914534Y-78657285D01*
X122119429Y-78520378D01*
X122251999Y-78465466D01*
X122347097Y-78426075D01*
X122588786Y-78378000D01*
X122835214Y-78378000D01*
X123076903Y-78426075D01*
G37*
G36*
X119576903Y-78426075D02*
G01*
X119672002Y-78465466D01*
X119804571Y-78520378D01*
X120009466Y-78657285D01*
X120183715Y-78831534D01*
X120320622Y-79036429D01*
X120414925Y-79264097D01*
X120463000Y-79505787D01*
X120463000Y-79752213D01*
X120414925Y-79993903D01*
X120320622Y-80221571D01*
X120183715Y-80426466D01*
X120009466Y-80600715D01*
X119804571Y-80737622D01*
X119804570Y-80737623D01*
X119804569Y-80737623D01*
X119576903Y-80831925D01*
X119335214Y-80880000D01*
X119088786Y-80880000D01*
X118847097Y-80831925D01*
X118619431Y-80737623D01*
X118619430Y-80737623D01*
X118619429Y-80737622D01*
X118414534Y-80600715D01*
X118240285Y-80426466D01*
X118103378Y-80221571D01*
X118009075Y-79993903D01*
X117961000Y-79752213D01*
X117961000Y-79505787D01*
X118009075Y-79264097D01*
X118103378Y-79036429D01*
X118240285Y-78831534D01*
X118414534Y-78657285D01*
X118619429Y-78520378D01*
X118751999Y-78465466D01*
X118847097Y-78426075D01*
X119088786Y-78378000D01*
X119335214Y-78378000D01*
X119576903Y-78426075D01*
G37*
G36*
X116076903Y-78426075D02*
G01*
X116172002Y-78465466D01*
X116304571Y-78520378D01*
X116509466Y-78657285D01*
X116683715Y-78831534D01*
X116820622Y-79036429D01*
X116914925Y-79264097D01*
X116963000Y-79505787D01*
X116963000Y-79752213D01*
X116914925Y-79993903D01*
X116820622Y-80221571D01*
X116683715Y-80426466D01*
X116509466Y-80600715D01*
X116304571Y-80737622D01*
X116304570Y-80737623D01*
X116304569Y-80737623D01*
X116076903Y-80831925D01*
X115835214Y-80880000D01*
X115588786Y-80880000D01*
X115347097Y-80831925D01*
X115119431Y-80737623D01*
X115119430Y-80737623D01*
X115119429Y-80737622D01*
X114914534Y-80600715D01*
X114740285Y-80426466D01*
X114603378Y-80221571D01*
X114509075Y-79993903D01*
X114461000Y-79752213D01*
X114461000Y-79505787D01*
X114509075Y-79264097D01*
X114603378Y-79036429D01*
X114740285Y-78831534D01*
X114914534Y-78657285D01*
X115119429Y-78520378D01*
X115251999Y-78465466D01*
X115347097Y-78426075D01*
X115588786Y-78378000D01*
X115835214Y-78378000D01*
X116076903Y-78426075D01*
G37*
G36*
X112576903Y-78426075D02*
G01*
X112672002Y-78465466D01*
X112804571Y-78520378D01*
X113009466Y-78657285D01*
X113183715Y-78831534D01*
X113320622Y-79036429D01*
X113414925Y-79264097D01*
X113463000Y-79505787D01*
X113463000Y-79752213D01*
X113414925Y-79993903D01*
X113320622Y-80221571D01*
X113183715Y-80426466D01*
X113009466Y-80600715D01*
X112804571Y-80737622D01*
X112804570Y-80737623D01*
X112804569Y-80737623D01*
X112576903Y-80831925D01*
X112335214Y-80880000D01*
X112088786Y-80880000D01*
X111847097Y-80831925D01*
X111619431Y-80737623D01*
X111619430Y-80737623D01*
X111619429Y-80737622D01*
X111414534Y-80600715D01*
X111240285Y-80426466D01*
X111103378Y-80221571D01*
X111009075Y-79993903D01*
X110961000Y-79752213D01*
X110961000Y-79505787D01*
X111009075Y-79264097D01*
X111103378Y-79036429D01*
X111240285Y-78831534D01*
X111414534Y-78657285D01*
X111619429Y-78520378D01*
X111751999Y-78465466D01*
X111847097Y-78426075D01*
X112088786Y-78378000D01*
X112335214Y-78378000D01*
X112576903Y-78426075D01*
G37*
G36*
X109076903Y-78426075D02*
G01*
X109172002Y-78465466D01*
X109304571Y-78520378D01*
X109509466Y-78657285D01*
X109683715Y-78831534D01*
X109820622Y-79036429D01*
X109914925Y-79264097D01*
X109963000Y-79505787D01*
X109963000Y-79752213D01*
X109914925Y-79993903D01*
X109820622Y-80221571D01*
X109683715Y-80426466D01*
X109509466Y-80600715D01*
X109304571Y-80737622D01*
X109304570Y-80737623D01*
X109304569Y-80737623D01*
X109076903Y-80831925D01*
X108835214Y-80880000D01*
X108588786Y-80880000D01*
X108347097Y-80831925D01*
X108119431Y-80737623D01*
X108119430Y-80737623D01*
X108119429Y-80737622D01*
X107914534Y-80600715D01*
X107740285Y-80426466D01*
X107603378Y-80221571D01*
X107509075Y-79993903D01*
X107461000Y-79752213D01*
X107461000Y-79505787D01*
X107509075Y-79264097D01*
X107603378Y-79036429D01*
X107740285Y-78831534D01*
X107914534Y-78657285D01*
X108119429Y-78520378D01*
X108251999Y-78465466D01*
X108347097Y-78426075D01*
X108588786Y-78378000D01*
X108835214Y-78378000D01*
X109076903Y-78426075D01*
G37*
G36*
X106269000Y-80880000D02*
G01*
X103767000Y-80880000D01*
X103767000Y-78378000D01*
X106269000Y-78378000D01*
X106269000Y-80880000D01*
G37*
G36*
X102769000Y-80880000D02*
G01*
X100267000Y-80880000D01*
X100267000Y-78378000D01*
X102769000Y-78378000D01*
X102769000Y-80880000D01*
G37*
G36*
X98382903Y-78426075D02*
G01*
X98478002Y-78465466D01*
X98610571Y-78520378D01*
X98815466Y-78657285D01*
X98989715Y-78831534D01*
X99126622Y-79036429D01*
X99220925Y-79264097D01*
X99269000Y-79505787D01*
X99269000Y-79752213D01*
X99220925Y-79993903D01*
X99126622Y-80221571D01*
X98989715Y-80426466D01*
X98815466Y-80600715D01*
X98610571Y-80737622D01*
X98610570Y-80737623D01*
X98610569Y-80737623D01*
X98382903Y-80831925D01*
X98141214Y-80880000D01*
X97894786Y-80880000D01*
X97653097Y-80831925D01*
X97425431Y-80737623D01*
X97425430Y-80737623D01*
X97425429Y-80737622D01*
X97220534Y-80600715D01*
X97046285Y-80426466D01*
X96909378Y-80221571D01*
X96815075Y-79993903D01*
X96767000Y-79752213D01*
X96767000Y-79505787D01*
X96815075Y-79264097D01*
X96909378Y-79036429D01*
X97046285Y-78831534D01*
X97220534Y-78657285D01*
X97425429Y-78520378D01*
X97557999Y-78465466D01*
X97653097Y-78426075D01*
X97894786Y-78378000D01*
X98141214Y-78378000D01*
X98382903Y-78426075D01*
G37*
G36*
X94882903Y-78426075D02*
G01*
X94978002Y-78465466D01*
X95110571Y-78520378D01*
X95315466Y-78657285D01*
X95489715Y-78831534D01*
X95626622Y-79036429D01*
X95720925Y-79264097D01*
X95769000Y-79505787D01*
X95769000Y-79752213D01*
X95720925Y-79993903D01*
X95626622Y-80221571D01*
X95489715Y-80426466D01*
X95315466Y-80600715D01*
X95110571Y-80737622D01*
X95110570Y-80737623D01*
X95110569Y-80737623D01*
X94882903Y-80831925D01*
X94641214Y-80880000D01*
X94394786Y-80880000D01*
X94153097Y-80831925D01*
X93925431Y-80737623D01*
X93925430Y-80737623D01*
X93925429Y-80737622D01*
X93720534Y-80600715D01*
X93546285Y-80426466D01*
X93409378Y-80221571D01*
X93315075Y-79993903D01*
X93267000Y-79752213D01*
X93267000Y-79505787D01*
X93315075Y-79264097D01*
X93409378Y-79036429D01*
X93546285Y-78831534D01*
X93720534Y-78657285D01*
X93925429Y-78520378D01*
X94057999Y-78465466D01*
X94153097Y-78426075D01*
X94394786Y-78378000D01*
X94641214Y-78378000D01*
X94882903Y-78426075D01*
G37*
G36*
X91382903Y-78426075D02*
G01*
X91478002Y-78465466D01*
X91610571Y-78520378D01*
X91815466Y-78657285D01*
X91989715Y-78831534D01*
X92126622Y-79036429D01*
X92220925Y-79264097D01*
X92269000Y-79505787D01*
X92269000Y-79752213D01*
X92220925Y-79993903D01*
X92126622Y-80221571D01*
X91989715Y-80426466D01*
X91815466Y-80600715D01*
X91610571Y-80737622D01*
X91610570Y-80737623D01*
X91610569Y-80737623D01*
X91382903Y-80831925D01*
X91141214Y-80880000D01*
X90894786Y-80880000D01*
X90653097Y-80831925D01*
X90425431Y-80737623D01*
X90425430Y-80737623D01*
X90425429Y-80737622D01*
X90220534Y-80600715D01*
X90046285Y-80426466D01*
X89909378Y-80221571D01*
X89815075Y-79993903D01*
X89767000Y-79752213D01*
X89767000Y-79505787D01*
X89815075Y-79264097D01*
X89909378Y-79036429D01*
X90046285Y-78831534D01*
X90220534Y-78657285D01*
X90425429Y-78520378D01*
X90557999Y-78465466D01*
X90653097Y-78426075D01*
X90894786Y-78378000D01*
X91141214Y-78378000D01*
X91382903Y-78426075D01*
G37*
G36*
X87882903Y-78426075D02*
G01*
X87978002Y-78465466D01*
X88110571Y-78520378D01*
X88315466Y-78657285D01*
X88489715Y-78831534D01*
X88626622Y-79036429D01*
X88720925Y-79264097D01*
X88769000Y-79505787D01*
X88769000Y-79752213D01*
X88720925Y-79993903D01*
X88626622Y-80221571D01*
X88489715Y-80426466D01*
X88315466Y-80600715D01*
X88110571Y-80737622D01*
X88110570Y-80737623D01*
X88110569Y-80737623D01*
X87882903Y-80831925D01*
X87641214Y-80880000D01*
X87394786Y-80880000D01*
X87153097Y-80831925D01*
X86925431Y-80737623D01*
X86925430Y-80737623D01*
X86925429Y-80737622D01*
X86720534Y-80600715D01*
X86546285Y-80426466D01*
X86409378Y-80221571D01*
X86315075Y-79993903D01*
X86267000Y-79752213D01*
X86267000Y-79505787D01*
X86315075Y-79264097D01*
X86409378Y-79036429D01*
X86546285Y-78831534D01*
X86720534Y-78657285D01*
X86925429Y-78520378D01*
X87057999Y-78465466D01*
X87153097Y-78426075D01*
X87394786Y-78378000D01*
X87641214Y-78378000D01*
X87882903Y-78426075D01*
G37*
G36*
X84382903Y-78426075D02*
G01*
X84478002Y-78465466D01*
X84610571Y-78520378D01*
X84815466Y-78657285D01*
X84989715Y-78831534D01*
X85126622Y-79036429D01*
X85220925Y-79264097D01*
X85269000Y-79505787D01*
X85269000Y-79752213D01*
X85220925Y-79993903D01*
X85126622Y-80221571D01*
X84989715Y-80426466D01*
X84815466Y-80600715D01*
X84610571Y-80737622D01*
X84610570Y-80737623D01*
X84610569Y-80737623D01*
X84382903Y-80831925D01*
X84141214Y-80880000D01*
X83894786Y-80880000D01*
X83653097Y-80831925D01*
X83425431Y-80737623D01*
X83425430Y-80737623D01*
X83425429Y-80737622D01*
X83220534Y-80600715D01*
X83046285Y-80426466D01*
X82909378Y-80221571D01*
X82815075Y-79993903D01*
X82767000Y-79752213D01*
X82767000Y-79505787D01*
X82815075Y-79264097D01*
X82909378Y-79036429D01*
X83046285Y-78831534D01*
X83220534Y-78657285D01*
X83425429Y-78520378D01*
X83557999Y-78465466D01*
X83653097Y-78426075D01*
X83894786Y-78378000D01*
X84141214Y-78378000D01*
X84382903Y-78426075D01*
G37*
G36*
X80882903Y-78426075D02*
G01*
X80978002Y-78465466D01*
X81110571Y-78520378D01*
X81315466Y-78657285D01*
X81489715Y-78831534D01*
X81626622Y-79036429D01*
X81720925Y-79264097D01*
X81769000Y-79505787D01*
X81769000Y-79752213D01*
X81720925Y-79993903D01*
X81626622Y-80221571D01*
X81489715Y-80426466D01*
X81315466Y-80600715D01*
X81110571Y-80737622D01*
X81110570Y-80737623D01*
X81110569Y-80737623D01*
X80882903Y-80831925D01*
X80641214Y-80880000D01*
X80394786Y-80880000D01*
X80153097Y-80831925D01*
X79925431Y-80737623D01*
X79925430Y-80737623D01*
X79925429Y-80737622D01*
X79720534Y-80600715D01*
X79546285Y-80426466D01*
X79409378Y-80221571D01*
X79315075Y-79993903D01*
X79267000Y-79752213D01*
X79267000Y-79505787D01*
X79315075Y-79264097D01*
X79409378Y-79036429D01*
X79546285Y-78831534D01*
X79720534Y-78657285D01*
X79925429Y-78520378D01*
X80057999Y-78465466D01*
X80153097Y-78426075D01*
X80394786Y-78378000D01*
X80641214Y-78378000D01*
X80882903Y-78426075D01*
G37*
G36*
X74278903Y-76465075D02*
G01*
X74506571Y-76559378D01*
X74711466Y-76696285D01*
X74885715Y-76870534D01*
X75022622Y-77075429D01*
X75116925Y-77303097D01*
X75165000Y-77544787D01*
X75165000Y-77791213D01*
X75116925Y-78032903D01*
X75022622Y-78260571D01*
X74885715Y-78465466D01*
X74711466Y-78639715D01*
X74506571Y-78776622D01*
X74506570Y-78776623D01*
X74506569Y-78776623D01*
X74278903Y-78870925D01*
X74037214Y-78919000D01*
X73790786Y-78919000D01*
X73549097Y-78870925D01*
X73321431Y-78776623D01*
X73321430Y-78776623D01*
X73321429Y-78776622D01*
X73116534Y-78639715D01*
X72942285Y-78465466D01*
X72805378Y-78260571D01*
X72711075Y-78032903D01*
X72663000Y-77791213D01*
X72663000Y-77544787D01*
X72711075Y-77303097D01*
X72805378Y-77075429D01*
X72942285Y-76870534D01*
X73116534Y-76696285D01*
X73321429Y-76559378D01*
X73549097Y-76465075D01*
X73790786Y-76417000D01*
X74037214Y-76417000D01*
X74278903Y-76465075D01*
G37*
G36*
X75165000Y-75419000D02*
G01*
X72663000Y-75419000D01*
X72663000Y-72917000D01*
X75165000Y-72917000D01*
X75165000Y-75419000D01*
G37*
G36*
X106224549Y-71871116D02*
G01*
X106335734Y-71893232D01*
X106545203Y-71979997D01*
X106733720Y-72105960D01*
X106894040Y-72266280D01*
X107020003Y-72454797D01*
X107106768Y-72664266D01*
X107151000Y-72886636D01*
X107151000Y-73113364D01*
X107106768Y-73335734D01*
X107020003Y-73545203D01*
X106894040Y-73733720D01*
X106733720Y-73894040D01*
X106545203Y-74020003D01*
X106335734Y-74106768D01*
X106224549Y-74128884D01*
X106113365Y-74151000D01*
X105886635Y-74151000D01*
X105775451Y-74128884D01*
X105664266Y-74106768D01*
X105454797Y-74020003D01*
X105266280Y-73894040D01*
X105105960Y-73733720D01*
X104979997Y-73545203D01*
X104893232Y-73335734D01*
X104849000Y-73113364D01*
X104849000Y-72886636D01*
X104893232Y-72664266D01*
X104979997Y-72454797D01*
X105105960Y-72266280D01*
X105266280Y-72105960D01*
X105454797Y-71979997D01*
X105664266Y-71893232D01*
X105775451Y-71871116D01*
X105886635Y-71849000D01*
X106113365Y-71849000D01*
X106224549Y-71871116D01*
G37*
G36*
X75165000Y-70156000D02*
G01*
X72663000Y-70156000D01*
X72663000Y-67654000D01*
X75165000Y-67654000D01*
X75165000Y-70156000D01*
G37*
G36*
X74278903Y-64202075D02*
G01*
X74506571Y-64296378D01*
X74711466Y-64433285D01*
X74885715Y-64607534D01*
X75022622Y-64812429D01*
X75116925Y-65040097D01*
X75165000Y-65281787D01*
X75165000Y-65528213D01*
X75116925Y-65769903D01*
X75022622Y-65997571D01*
X74885715Y-66202466D01*
X74711466Y-66376715D01*
X74506571Y-66513622D01*
X74506570Y-66513623D01*
X74506569Y-66513623D01*
X74278903Y-66607925D01*
X74037214Y-66656000D01*
X73790786Y-66656000D01*
X73549097Y-66607925D01*
X73321431Y-66513623D01*
X73321430Y-66513623D01*
X73321429Y-66513622D01*
X73116534Y-66376715D01*
X72942285Y-66202466D01*
X72805378Y-65997571D01*
X72711075Y-65769903D01*
X72663000Y-65528213D01*
X72663000Y-65281787D01*
X72711075Y-65040097D01*
X72805378Y-64812429D01*
X72942285Y-64607534D01*
X73116534Y-64433285D01*
X73321429Y-64296378D01*
X73549097Y-64202075D01*
X73790786Y-64154000D01*
X74037214Y-64154000D01*
X74278903Y-64202075D01*
G37*
G36*
X181227585Y-61382802D02*
G01*
X181377410Y-61412604D01*
X181659674Y-61529521D01*
X181913705Y-61699259D01*
X182129741Y-61915295D01*
X182299479Y-62169326D01*
X182416396Y-62451590D01*
X182476000Y-62751240D01*
X182476000Y-63056760D01*
X182416396Y-63356410D01*
X182299479Y-63638674D01*
X182129741Y-63892705D01*
X181913705Y-64108741D01*
X181659674Y-64278479D01*
X181377410Y-64395396D01*
X181227585Y-64425198D01*
X181077761Y-64455000D01*
X180772239Y-64455000D01*
X180622415Y-64425198D01*
X180472590Y-64395396D01*
X180190326Y-64278479D01*
X179936295Y-64108741D01*
X179720259Y-63892705D01*
X179550521Y-63638674D01*
X179433604Y-63356410D01*
X179374000Y-63056760D01*
X179374000Y-62751240D01*
X179433604Y-62451590D01*
X179550521Y-62169326D01*
X179720259Y-61915295D01*
X179936295Y-61699259D01*
X180190326Y-61529521D01*
X180472590Y-61412604D01*
X180622415Y-61382802D01*
X180772239Y-61353000D01*
X181077761Y-61353000D01*
X181227585Y-61382802D01*
G37*
G36*
X174152395Y-60489546D02*
G01*
X174325466Y-60561234D01*
X174325467Y-60561235D01*
X174481227Y-60665310D01*
X174613690Y-60797773D01*
X174613691Y-60797775D01*
X174717766Y-60953534D01*
X174789454Y-61126605D01*
X174826000Y-61310333D01*
X174826000Y-61497667D01*
X174789454Y-61681395D01*
X174717766Y-61854466D01*
X174717765Y-61854467D01*
X174613690Y-62010227D01*
X174481227Y-62142690D01*
X174441363Y-62169326D01*
X174325466Y-62246766D01*
X174152395Y-62318454D01*
X173968667Y-62355000D01*
X173781333Y-62355000D01*
X173597605Y-62318454D01*
X173424534Y-62246766D01*
X173308637Y-62169326D01*
X173268773Y-62142690D01*
X173136310Y-62010227D01*
X173032235Y-61854467D01*
X173032234Y-61854466D01*
X172960546Y-61681395D01*
X172924000Y-61497667D01*
X172924000Y-61310333D01*
X172960546Y-61126605D01*
X173032234Y-60953534D01*
X173136309Y-60797775D01*
X173136310Y-60797773D01*
X173268773Y-60665310D01*
X173424533Y-60561235D01*
X173424534Y-60561234D01*
X173597605Y-60489546D01*
X173781333Y-60453000D01*
X173968667Y-60453000D01*
X174152395Y-60489546D01*
G37*
G36*
X170152395Y-60489546D02*
G01*
X170325466Y-60561234D01*
X170325467Y-60561235D01*
X170481227Y-60665310D01*
X170613690Y-60797773D01*
X170613691Y-60797775D01*
X170717766Y-60953534D01*
X170789454Y-61126605D01*
X170826000Y-61310333D01*
X170826000Y-61497667D01*
X170789454Y-61681395D01*
X170717766Y-61854466D01*
X170717765Y-61854467D01*
X170613690Y-62010227D01*
X170481227Y-62142690D01*
X170441363Y-62169326D01*
X170325466Y-62246766D01*
X170152395Y-62318454D01*
X169968667Y-62355000D01*
X169781333Y-62355000D01*
X169597605Y-62318454D01*
X169424534Y-62246766D01*
X169308637Y-62169326D01*
X169268773Y-62142690D01*
X169136310Y-62010227D01*
X169032235Y-61854467D01*
X169032234Y-61854466D01*
X168960546Y-61681395D01*
X168924000Y-61497667D01*
X168924000Y-61310333D01*
X168960546Y-61126605D01*
X169032234Y-60953534D01*
X169136309Y-60797775D01*
X169136310Y-60797773D01*
X169268773Y-60665310D01*
X169424533Y-60561235D01*
X169424534Y-60561234D01*
X169597605Y-60489546D01*
X169781333Y-60453000D01*
X169968667Y-60453000D01*
X170152395Y-60489546D01*
G37*
G36*
X75292000Y-61662000D02*
G01*
X72790000Y-61662000D01*
X72790000Y-59160000D01*
X75292000Y-59160000D01*
X75292000Y-61662000D01*
G37*
G36*
X176152395Y-58889546D02*
G01*
X176325466Y-58961234D01*
X176325467Y-58961235D01*
X176481227Y-59065310D01*
X176613690Y-59197773D01*
X176613691Y-59197775D01*
X176717766Y-59353534D01*
X176789454Y-59526605D01*
X176826000Y-59710333D01*
X176826000Y-59897667D01*
X176789454Y-60081395D01*
X176717766Y-60254466D01*
X176717765Y-60254467D01*
X176613690Y-60410227D01*
X176481227Y-60542690D01*
X176453472Y-60561235D01*
X176325466Y-60646766D01*
X176152395Y-60718454D01*
X175968667Y-60755000D01*
X175781333Y-60755000D01*
X175597605Y-60718454D01*
X175424534Y-60646766D01*
X175296528Y-60561235D01*
X175268773Y-60542690D01*
X175136310Y-60410227D01*
X175032235Y-60254467D01*
X175032234Y-60254466D01*
X174960546Y-60081395D01*
X174924000Y-59897667D01*
X174924000Y-59710333D01*
X174960546Y-59526605D01*
X175032234Y-59353534D01*
X175136309Y-59197775D01*
X175136310Y-59197773D01*
X175268773Y-59065310D01*
X175424533Y-58961235D01*
X175424534Y-58961234D01*
X175597605Y-58889546D01*
X175781333Y-58853000D01*
X175968667Y-58853000D01*
X176152395Y-58889546D01*
G37*
G36*
X172152395Y-58889546D02*
G01*
X172325466Y-58961234D01*
X172325467Y-58961235D01*
X172481227Y-59065310D01*
X172613690Y-59197773D01*
X172613691Y-59197775D01*
X172717766Y-59353534D01*
X172789454Y-59526605D01*
X172826000Y-59710333D01*
X172826000Y-59897667D01*
X172789454Y-60081395D01*
X172717766Y-60254466D01*
X172717765Y-60254467D01*
X172613690Y-60410227D01*
X172481227Y-60542690D01*
X172453472Y-60561235D01*
X172325466Y-60646766D01*
X172152395Y-60718454D01*
X171968667Y-60755000D01*
X171781333Y-60755000D01*
X171597605Y-60718454D01*
X171424534Y-60646766D01*
X171296528Y-60561235D01*
X171268773Y-60542690D01*
X171136310Y-60410227D01*
X171032235Y-60254467D01*
X171032234Y-60254466D01*
X170960546Y-60081395D01*
X170924000Y-59897667D01*
X170924000Y-59710333D01*
X170960546Y-59526605D01*
X171032234Y-59353534D01*
X171136309Y-59197775D01*
X171136310Y-59197773D01*
X171268773Y-59065310D01*
X171424533Y-58961235D01*
X171424534Y-58961234D01*
X171597605Y-58889546D01*
X171781333Y-58853000D01*
X171968667Y-58853000D01*
X172152395Y-58889546D01*
G37*
G36*
X168152395Y-58889546D02*
G01*
X168325466Y-58961234D01*
X168325467Y-58961235D01*
X168481227Y-59065310D01*
X168613690Y-59197773D01*
X168613691Y-59197775D01*
X168717766Y-59353534D01*
X168789454Y-59526605D01*
X168826000Y-59710333D01*
X168826000Y-59897667D01*
X168789454Y-60081395D01*
X168717766Y-60254466D01*
X168717765Y-60254467D01*
X168613690Y-60410227D01*
X168481227Y-60542690D01*
X168453472Y-60561235D01*
X168325466Y-60646766D01*
X168152395Y-60718454D01*
X167968667Y-60755000D01*
X167781333Y-60755000D01*
X167597605Y-60718454D01*
X167424534Y-60646766D01*
X167296528Y-60561235D01*
X167268773Y-60542690D01*
X167136310Y-60410227D01*
X167032235Y-60254467D01*
X167032234Y-60254466D01*
X166960546Y-60081395D01*
X166924000Y-59897667D01*
X166924000Y-59710333D01*
X166960546Y-59526605D01*
X167032234Y-59353534D01*
X167136309Y-59197775D01*
X167136310Y-59197773D01*
X167268773Y-59065310D01*
X167424533Y-58961235D01*
X167424534Y-58961234D01*
X167597605Y-58889546D01*
X167781333Y-58853000D01*
X167968667Y-58853000D01*
X168152395Y-58889546D01*
G37*
G36*
X164152395Y-58889546D02*
G01*
X164325466Y-58961234D01*
X164325467Y-58961235D01*
X164481227Y-59065310D01*
X164613690Y-59197773D01*
X164613691Y-59197775D01*
X164717766Y-59353534D01*
X164789454Y-59526605D01*
X164826000Y-59710333D01*
X164826000Y-59897667D01*
X164789454Y-60081395D01*
X164717766Y-60254466D01*
X164717765Y-60254467D01*
X164613690Y-60410227D01*
X164481227Y-60542690D01*
X164453472Y-60561235D01*
X164325466Y-60646766D01*
X164152395Y-60718454D01*
X163968667Y-60755000D01*
X163781333Y-60755000D01*
X163597605Y-60718454D01*
X163424534Y-60646766D01*
X163296528Y-60561235D01*
X163268773Y-60542690D01*
X163136310Y-60410227D01*
X163032235Y-60254467D01*
X163032234Y-60254466D01*
X162960546Y-60081395D01*
X162924000Y-59897667D01*
X162924000Y-59710333D01*
X162960546Y-59526605D01*
X163032234Y-59353534D01*
X163136309Y-59197775D01*
X163136310Y-59197773D01*
X163268773Y-59065310D01*
X163424533Y-58961235D01*
X163424534Y-58961234D01*
X163597605Y-58889546D01*
X163781333Y-58853000D01*
X163968667Y-58853000D01*
X164152395Y-58889546D01*
G37*
G36*
X174152395Y-57289546D02*
G01*
X174325466Y-57361234D01*
X174325467Y-57361235D01*
X174481227Y-57465310D01*
X174613690Y-57597773D01*
X174613691Y-57597775D01*
X174717766Y-57753534D01*
X174789454Y-57926605D01*
X174826000Y-58110333D01*
X174826000Y-58297667D01*
X174789454Y-58481395D01*
X174717766Y-58654466D01*
X174717765Y-58654467D01*
X174613690Y-58810227D01*
X174481227Y-58942690D01*
X174453472Y-58961235D01*
X174325466Y-59046766D01*
X174152395Y-59118454D01*
X173968667Y-59155000D01*
X173781333Y-59155000D01*
X173597605Y-59118454D01*
X173424534Y-59046766D01*
X173296528Y-58961235D01*
X173268773Y-58942690D01*
X173136310Y-58810227D01*
X173032235Y-58654467D01*
X173032234Y-58654466D01*
X172960546Y-58481395D01*
X172924000Y-58297667D01*
X172924000Y-58110333D01*
X172960546Y-57926605D01*
X173032234Y-57753534D01*
X173136309Y-57597775D01*
X173136310Y-57597773D01*
X173268773Y-57465310D01*
X173424533Y-57361235D01*
X173424534Y-57361234D01*
X173597605Y-57289546D01*
X173781333Y-57253000D01*
X173968667Y-57253000D01*
X174152395Y-57289546D01*
G37*
G36*
X162152395Y-57289546D02*
G01*
X162325466Y-57361234D01*
X162325467Y-57361235D01*
X162481227Y-57465310D01*
X162613690Y-57597773D01*
X162613691Y-57597775D01*
X162717766Y-57753534D01*
X162789454Y-57926605D01*
X162826000Y-58110333D01*
X162826000Y-58297667D01*
X162789454Y-58481395D01*
X162717766Y-58654466D01*
X162717765Y-58654467D01*
X162613690Y-58810227D01*
X162481227Y-58942690D01*
X162453472Y-58961235D01*
X162325466Y-59046766D01*
X162152395Y-59118454D01*
X161968667Y-59155000D01*
X161781333Y-59155000D01*
X161597605Y-59118454D01*
X161424534Y-59046766D01*
X161296528Y-58961235D01*
X161268773Y-58942690D01*
X161136310Y-58810227D01*
X161032235Y-58654467D01*
X161032234Y-58654466D01*
X160960546Y-58481395D01*
X160924000Y-58297667D01*
X160924000Y-58110333D01*
X160960546Y-57926605D01*
X161032234Y-57753534D01*
X161136309Y-57597775D01*
X161136310Y-57597773D01*
X161268773Y-57465310D01*
X161424533Y-57361235D01*
X161424534Y-57361234D01*
X161597605Y-57289546D01*
X161781333Y-57253000D01*
X161968667Y-57253000D01*
X162152395Y-57289546D01*
G37*
G36*
X170152395Y-57289546D02*
G01*
X170325466Y-57361234D01*
X170325467Y-57361235D01*
X170481227Y-57465310D01*
X170613690Y-57597773D01*
X170613691Y-57597775D01*
X170717766Y-57753534D01*
X170789454Y-57926605D01*
X170826000Y-58110333D01*
X170826000Y-58297667D01*
X170789454Y-58481395D01*
X170717766Y-58654466D01*
X170717765Y-58654467D01*
X170613690Y-58810227D01*
X170481227Y-58942690D01*
X170453472Y-58961235D01*
X170325466Y-59046766D01*
X170152395Y-59118454D01*
X169968667Y-59155000D01*
X169781333Y-59155000D01*
X169597605Y-59118454D01*
X169424534Y-59046766D01*
X169296528Y-58961235D01*
X169268773Y-58942690D01*
X169136310Y-58810227D01*
X169032235Y-58654467D01*
X169032234Y-58654466D01*
X168960546Y-58481395D01*
X168924000Y-58297667D01*
X168924000Y-58110333D01*
X168960546Y-57926605D01*
X169032234Y-57753534D01*
X169136309Y-57597775D01*
X169136310Y-57597773D01*
X169268773Y-57465310D01*
X169424533Y-57361235D01*
X169424534Y-57361234D01*
X169597605Y-57289546D01*
X169781333Y-57253000D01*
X169968667Y-57253000D01*
X170152395Y-57289546D01*
G37*
G36*
X166152395Y-57289546D02*
G01*
X166325466Y-57361234D01*
X166325467Y-57361235D01*
X166481227Y-57465310D01*
X166613690Y-57597773D01*
X166613691Y-57597775D01*
X166717766Y-57753534D01*
X166789454Y-57926605D01*
X166826000Y-58110333D01*
X166826000Y-58297667D01*
X166789454Y-58481395D01*
X166717766Y-58654466D01*
X166717765Y-58654467D01*
X166613690Y-58810227D01*
X166481227Y-58942690D01*
X166453472Y-58961235D01*
X166325466Y-59046766D01*
X166152395Y-59118454D01*
X165968667Y-59155000D01*
X165781333Y-59155000D01*
X165597605Y-59118454D01*
X165424534Y-59046766D01*
X165296528Y-58961235D01*
X165268773Y-58942690D01*
X165136310Y-58810227D01*
X165032235Y-58654467D01*
X165032234Y-58654466D01*
X164960546Y-58481395D01*
X164924000Y-58297667D01*
X164924000Y-58110333D01*
X164960546Y-57926605D01*
X165032234Y-57753534D01*
X165136309Y-57597775D01*
X165136310Y-57597773D01*
X165268773Y-57465310D01*
X165424533Y-57361235D01*
X165424534Y-57361234D01*
X165597605Y-57289546D01*
X165781333Y-57253000D01*
X165968667Y-57253000D01*
X166152395Y-57289546D01*
G37*
G36*
X74405903Y-55708075D02*
G01*
X74534241Y-55761234D01*
X74633571Y-55802378D01*
X74838466Y-55939285D01*
X75012715Y-56113534D01*
X75039442Y-56153534D01*
X75149623Y-56318431D01*
X75243925Y-56546097D01*
X75292000Y-56787786D01*
X75292000Y-57034214D01*
X75287971Y-57054467D01*
X75243925Y-57275903D01*
X75149622Y-57503571D01*
X75012715Y-57708466D01*
X74838466Y-57882715D01*
X74633571Y-58019622D01*
X74633570Y-58019623D01*
X74633569Y-58019623D01*
X74405903Y-58113925D01*
X74164214Y-58162000D01*
X73917786Y-58162000D01*
X73676097Y-58113925D01*
X73448431Y-58019623D01*
X73448430Y-58019623D01*
X73448429Y-58019622D01*
X73243534Y-57882715D01*
X73069285Y-57708466D01*
X72932378Y-57503571D01*
X72838075Y-57275903D01*
X72794029Y-57054467D01*
X72790000Y-57034214D01*
X72790000Y-56787786D01*
X72838075Y-56546097D01*
X72932377Y-56318431D01*
X73042558Y-56153534D01*
X73069285Y-56113534D01*
X73243534Y-55939285D01*
X73448429Y-55802378D01*
X73547760Y-55761234D01*
X73676097Y-55708075D01*
X73917786Y-55660000D01*
X74164214Y-55660000D01*
X74405903Y-55708075D01*
G37*
G36*
X164152395Y-55689546D02*
G01*
X164325466Y-55761234D01*
X164325467Y-55761235D01*
X164481227Y-55865310D01*
X164613690Y-55997773D01*
X164613691Y-55997775D01*
X164717766Y-56153534D01*
X164789454Y-56326605D01*
X164826000Y-56510333D01*
X164826000Y-56697667D01*
X164789454Y-56881395D01*
X164717766Y-57054466D01*
X164717765Y-57054467D01*
X164613690Y-57210227D01*
X164481227Y-57342690D01*
X164453472Y-57361235D01*
X164325466Y-57446766D01*
X164152395Y-57518454D01*
X163968667Y-57555000D01*
X163781333Y-57555000D01*
X163597605Y-57518454D01*
X163424534Y-57446766D01*
X163296528Y-57361235D01*
X163268773Y-57342690D01*
X163136310Y-57210227D01*
X163032235Y-57054467D01*
X163032234Y-57054466D01*
X162960546Y-56881395D01*
X162924000Y-56697667D01*
X162924000Y-56510333D01*
X162960546Y-56326605D01*
X163032234Y-56153534D01*
X163136309Y-55997775D01*
X163136310Y-55997773D01*
X163268773Y-55865310D01*
X163424533Y-55761235D01*
X163424534Y-55761234D01*
X163597605Y-55689546D01*
X163781333Y-55653000D01*
X163968667Y-55653000D01*
X164152395Y-55689546D01*
G37*
G36*
X176152395Y-55689546D02*
G01*
X176325466Y-55761234D01*
X176325467Y-55761235D01*
X176481227Y-55865310D01*
X176613690Y-55997773D01*
X176613691Y-55997775D01*
X176717766Y-56153534D01*
X176789454Y-56326605D01*
X176826000Y-56510333D01*
X176826000Y-56697667D01*
X176789454Y-56881395D01*
X176717766Y-57054466D01*
X176717765Y-57054467D01*
X176613690Y-57210227D01*
X176481227Y-57342690D01*
X176453472Y-57361235D01*
X176325466Y-57446766D01*
X176152395Y-57518454D01*
X175968667Y-57555000D01*
X175781333Y-57555000D01*
X175597605Y-57518454D01*
X175424534Y-57446766D01*
X175296528Y-57361235D01*
X175268773Y-57342690D01*
X175136310Y-57210227D01*
X175032235Y-57054467D01*
X175032234Y-57054466D01*
X174960546Y-56881395D01*
X174924000Y-56697667D01*
X174924000Y-56510333D01*
X174960546Y-56326605D01*
X175032234Y-56153534D01*
X175136309Y-55997775D01*
X175136310Y-55997773D01*
X175268773Y-55865310D01*
X175424533Y-55761235D01*
X175424534Y-55761234D01*
X175597605Y-55689546D01*
X175781333Y-55653000D01*
X175968667Y-55653000D01*
X176152395Y-55689546D01*
G37*
G36*
X172152395Y-55689546D02*
G01*
X172325466Y-55761234D01*
X172325467Y-55761235D01*
X172481227Y-55865310D01*
X172613690Y-55997773D01*
X172613691Y-55997775D01*
X172717766Y-56153534D01*
X172789454Y-56326605D01*
X172826000Y-56510333D01*
X172826000Y-56697667D01*
X172789454Y-56881395D01*
X172717766Y-57054466D01*
X172717765Y-57054467D01*
X172613690Y-57210227D01*
X172481227Y-57342690D01*
X172453472Y-57361235D01*
X172325466Y-57446766D01*
X172152395Y-57518454D01*
X171968667Y-57555000D01*
X171781333Y-57555000D01*
X171597605Y-57518454D01*
X171424534Y-57446766D01*
X171296528Y-57361235D01*
X171268773Y-57342690D01*
X171136310Y-57210227D01*
X171032235Y-57054467D01*
X171032234Y-57054466D01*
X170960546Y-56881395D01*
X170924000Y-56697667D01*
X170924000Y-56510333D01*
X170960546Y-56326605D01*
X171032234Y-56153534D01*
X171136309Y-55997775D01*
X171136310Y-55997773D01*
X171268773Y-55865310D01*
X171424533Y-55761235D01*
X171424534Y-55761234D01*
X171597605Y-55689546D01*
X171781333Y-55653000D01*
X171968667Y-55653000D01*
X172152395Y-55689546D01*
G37*
G36*
X168152395Y-55689546D02*
G01*
X168325466Y-55761234D01*
X168325467Y-55761235D01*
X168481227Y-55865310D01*
X168613690Y-55997773D01*
X168613691Y-55997775D01*
X168717766Y-56153534D01*
X168789454Y-56326605D01*
X168826000Y-56510333D01*
X168826000Y-56697667D01*
X168789454Y-56881395D01*
X168717766Y-57054466D01*
X168717765Y-57054467D01*
X168613690Y-57210227D01*
X168481227Y-57342690D01*
X168453472Y-57361235D01*
X168325466Y-57446766D01*
X168152395Y-57518454D01*
X167968667Y-57555000D01*
X167781333Y-57555000D01*
X167597605Y-57518454D01*
X167424534Y-57446766D01*
X167296528Y-57361235D01*
X167268773Y-57342690D01*
X167136310Y-57210227D01*
X167032235Y-57054467D01*
X167032234Y-57054466D01*
X166960546Y-56881395D01*
X166924000Y-56697667D01*
X166924000Y-56510333D01*
X166960546Y-56326605D01*
X167032234Y-56153534D01*
X167136309Y-55997775D01*
X167136310Y-55997773D01*
X167268773Y-55865310D01*
X167424533Y-55761235D01*
X167424534Y-55761234D01*
X167597605Y-55689546D01*
X167781333Y-55653000D01*
X167968667Y-55653000D01*
X168152395Y-55689546D01*
G37*
G36*
X166152395Y-54089546D02*
G01*
X166325466Y-54161234D01*
X166325467Y-54161235D01*
X166481227Y-54265310D01*
X166613690Y-54397773D01*
X166613691Y-54397775D01*
X166717766Y-54553534D01*
X166789454Y-54726605D01*
X166826000Y-54910333D01*
X166826000Y-55097667D01*
X166789454Y-55281395D01*
X166717766Y-55454466D01*
X166717765Y-55454467D01*
X166613690Y-55610227D01*
X166481227Y-55742690D01*
X166453472Y-55761235D01*
X166325466Y-55846766D01*
X166152395Y-55918454D01*
X165968667Y-55955000D01*
X165781333Y-55955000D01*
X165597605Y-55918454D01*
X165424534Y-55846766D01*
X165296528Y-55761235D01*
X165268773Y-55742690D01*
X165136310Y-55610227D01*
X165032235Y-55454467D01*
X165032234Y-55454466D01*
X164960546Y-55281395D01*
X164924000Y-55097667D01*
X164924000Y-54910333D01*
X164960546Y-54726605D01*
X165032234Y-54553534D01*
X165136309Y-54397775D01*
X165136310Y-54397773D01*
X165268773Y-54265310D01*
X165424533Y-54161235D01*
X165424534Y-54161234D01*
X165597605Y-54089546D01*
X165781333Y-54053000D01*
X165968667Y-54053000D01*
X166152395Y-54089546D01*
G37*
G36*
X170152395Y-54089546D02*
G01*
X170325466Y-54161234D01*
X170325467Y-54161235D01*
X170481227Y-54265310D01*
X170613690Y-54397773D01*
X170613691Y-54397775D01*
X170717766Y-54553534D01*
X170789454Y-54726605D01*
X170826000Y-54910333D01*
X170826000Y-55097667D01*
X170789454Y-55281395D01*
X170717766Y-55454466D01*
X170717765Y-55454467D01*
X170613690Y-55610227D01*
X170481227Y-55742690D01*
X170453472Y-55761235D01*
X170325466Y-55846766D01*
X170152395Y-55918454D01*
X169968667Y-55955000D01*
X169781333Y-55955000D01*
X169597605Y-55918454D01*
X169424534Y-55846766D01*
X169296528Y-55761235D01*
X169268773Y-55742690D01*
X169136310Y-55610227D01*
X169032235Y-55454467D01*
X169032234Y-55454466D01*
X168960546Y-55281395D01*
X168924000Y-55097667D01*
X168924000Y-54910333D01*
X168960546Y-54726605D01*
X169032234Y-54553534D01*
X169136309Y-54397775D01*
X169136310Y-54397773D01*
X169268773Y-54265310D01*
X169424533Y-54161235D01*
X169424534Y-54161234D01*
X169597605Y-54089546D01*
X169781333Y-54053000D01*
X169968667Y-54053000D01*
X170152395Y-54089546D01*
G37*
G36*
X174152395Y-54089546D02*
G01*
X174325466Y-54161234D01*
X174325467Y-54161235D01*
X174481227Y-54265310D01*
X174613690Y-54397773D01*
X174613691Y-54397775D01*
X174717766Y-54553534D01*
X174789454Y-54726605D01*
X174826000Y-54910333D01*
X174826000Y-55097667D01*
X174789454Y-55281395D01*
X174717766Y-55454466D01*
X174717765Y-55454467D01*
X174613690Y-55610227D01*
X174481227Y-55742690D01*
X174453472Y-55761235D01*
X174325466Y-55846766D01*
X174152395Y-55918454D01*
X173968667Y-55955000D01*
X173781333Y-55955000D01*
X173597605Y-55918454D01*
X173424534Y-55846766D01*
X173296528Y-55761235D01*
X173268773Y-55742690D01*
X173136310Y-55610227D01*
X173032235Y-55454467D01*
X173032234Y-55454466D01*
X172960546Y-55281395D01*
X172924000Y-55097667D01*
X172924000Y-54910333D01*
X172960546Y-54726605D01*
X173032234Y-54553534D01*
X173136309Y-54397775D01*
X173136310Y-54397773D01*
X173268773Y-54265310D01*
X173424533Y-54161235D01*
X173424534Y-54161234D01*
X173597605Y-54089546D01*
X173781333Y-54053000D01*
X173968667Y-54053000D01*
X174152395Y-54089546D01*
G37*
G36*
X162152395Y-54089546D02*
G01*
X162325466Y-54161234D01*
X162325467Y-54161235D01*
X162481227Y-54265310D01*
X162613690Y-54397773D01*
X162613691Y-54397775D01*
X162717766Y-54553534D01*
X162789454Y-54726605D01*
X162826000Y-54910333D01*
X162826000Y-55097667D01*
X162789454Y-55281395D01*
X162717766Y-55454466D01*
X162717765Y-55454467D01*
X162613690Y-55610227D01*
X162481227Y-55742690D01*
X162453472Y-55761235D01*
X162325466Y-55846766D01*
X162152395Y-55918454D01*
X161968667Y-55955000D01*
X161781333Y-55955000D01*
X161597605Y-55918454D01*
X161424534Y-55846766D01*
X161296528Y-55761235D01*
X161268773Y-55742690D01*
X161136310Y-55610227D01*
X161032235Y-55454467D01*
X161032234Y-55454466D01*
X160960546Y-55281395D01*
X160924000Y-55097667D01*
X160924000Y-54910333D01*
X160960546Y-54726605D01*
X161032234Y-54553534D01*
X161136309Y-54397775D01*
X161136310Y-54397773D01*
X161268773Y-54265310D01*
X161424533Y-54161235D01*
X161424534Y-54161234D01*
X161597605Y-54089546D01*
X161781333Y-54053000D01*
X161968667Y-54053000D01*
X162152395Y-54089546D01*
G37*
G36*
X74405903Y-52208075D02*
G01*
X74633571Y-52302378D01*
X74838466Y-52439285D01*
X75012715Y-52613534D01*
X75093020Y-52733719D01*
X75149623Y-52818431D01*
X75243925Y-53046097D01*
X75264792Y-53151000D01*
X75292000Y-53287787D01*
X75292000Y-53534213D01*
X75243925Y-53775903D01*
X75149622Y-54003571D01*
X75012715Y-54208466D01*
X74838466Y-54382715D01*
X74633571Y-54519622D01*
X74633570Y-54519623D01*
X74633569Y-54519623D01*
X74405903Y-54613925D01*
X74164214Y-54662000D01*
X73917786Y-54662000D01*
X73676097Y-54613925D01*
X73448431Y-54519623D01*
X73448430Y-54519623D01*
X73448429Y-54519622D01*
X73243534Y-54382715D01*
X73069285Y-54208466D01*
X72932378Y-54003571D01*
X72838075Y-53775903D01*
X72790000Y-53534213D01*
X72790000Y-53287787D01*
X72817209Y-53151000D01*
X72838075Y-53046097D01*
X72932377Y-52818431D01*
X72988980Y-52733719D01*
X73069285Y-52613534D01*
X73243534Y-52439285D01*
X73448429Y-52302378D01*
X73676097Y-52208075D01*
X73917786Y-52160000D01*
X74164214Y-52160000D01*
X74405903Y-52208075D01*
G37*
G36*
X176152395Y-52489546D02*
G01*
X176325466Y-52561234D01*
X176325467Y-52561235D01*
X176481227Y-52665310D01*
X176613690Y-52797773D01*
X176613691Y-52797775D01*
X176717766Y-52953534D01*
X176789454Y-53126605D01*
X176826000Y-53310333D01*
X176826000Y-53497667D01*
X176789454Y-53681395D01*
X176717766Y-53854466D01*
X176717765Y-53854467D01*
X176613690Y-54010227D01*
X176481227Y-54142690D01*
X176453472Y-54161235D01*
X176325466Y-54246766D01*
X176152395Y-54318454D01*
X175968667Y-54355000D01*
X175781333Y-54355000D01*
X175597605Y-54318454D01*
X175424534Y-54246766D01*
X175296528Y-54161235D01*
X175268773Y-54142690D01*
X175136310Y-54010227D01*
X175032235Y-53854467D01*
X175032234Y-53854466D01*
X174960546Y-53681395D01*
X174924000Y-53497667D01*
X174924000Y-53310333D01*
X174960546Y-53126605D01*
X175032234Y-52953534D01*
X175136309Y-52797775D01*
X175136310Y-52797773D01*
X175268773Y-52665310D01*
X175424533Y-52561235D01*
X175424534Y-52561234D01*
X175597605Y-52489546D01*
X175781333Y-52453000D01*
X175968667Y-52453000D01*
X176152395Y-52489546D01*
G37*
G36*
X172152395Y-52489546D02*
G01*
X172325466Y-52561234D01*
X172325467Y-52561235D01*
X172481227Y-52665310D01*
X172613690Y-52797773D01*
X172613691Y-52797775D01*
X172717766Y-52953534D01*
X172789454Y-53126605D01*
X172826000Y-53310333D01*
X172826000Y-53497667D01*
X172789454Y-53681395D01*
X172717766Y-53854466D01*
X172717765Y-53854467D01*
X172613690Y-54010227D01*
X172481227Y-54142690D01*
X172453472Y-54161235D01*
X172325466Y-54246766D01*
X172152395Y-54318454D01*
X171968667Y-54355000D01*
X171781333Y-54355000D01*
X171597605Y-54318454D01*
X171424534Y-54246766D01*
X171296528Y-54161235D01*
X171268773Y-54142690D01*
X171136310Y-54010227D01*
X171032235Y-53854467D01*
X171032234Y-53854466D01*
X170960546Y-53681395D01*
X170924000Y-53497667D01*
X170924000Y-53310333D01*
X170960546Y-53126605D01*
X171032234Y-52953534D01*
X171136309Y-52797775D01*
X171136310Y-52797773D01*
X171268773Y-52665310D01*
X171424533Y-52561235D01*
X171424534Y-52561234D01*
X171597605Y-52489546D01*
X171781333Y-52453000D01*
X171968667Y-52453000D01*
X172152395Y-52489546D01*
G37*
G36*
X181227585Y-50382802D02*
G01*
X181377410Y-50412604D01*
X181659674Y-50529521D01*
X181913705Y-50699259D01*
X182129741Y-50915295D01*
X182299479Y-51169326D01*
X182416396Y-51451590D01*
X182476000Y-51751240D01*
X182476000Y-52056760D01*
X182416396Y-52356410D01*
X182299479Y-52638674D01*
X182129741Y-52892705D01*
X181913705Y-53108741D01*
X181659674Y-53278479D01*
X181377410Y-53395396D01*
X181227585Y-53425198D01*
X181077761Y-53455000D01*
X180772239Y-53455000D01*
X180622415Y-53425198D01*
X180472590Y-53395396D01*
X180190326Y-53278479D01*
X179936295Y-53108741D01*
X179720259Y-52892705D01*
X179550521Y-52638674D01*
X179433604Y-52356410D01*
X179374000Y-52056760D01*
X179374000Y-51751240D01*
X179433604Y-51451590D01*
X179550521Y-51169326D01*
X179720259Y-50915295D01*
X179936295Y-50699259D01*
X180190326Y-50529521D01*
X180472590Y-50412604D01*
X180622415Y-50382802D01*
X180772239Y-50353000D01*
X181077761Y-50353000D01*
X181227585Y-50382802D01*
G37*
G36*
X80724549Y-50871116D02*
G01*
X80835734Y-50893232D01*
X81045203Y-50979997D01*
X81233720Y-51105960D01*
X81394040Y-51266280D01*
X81520003Y-51454797D01*
X81606768Y-51664266D01*
X81651000Y-51886636D01*
X81651000Y-52113364D01*
X81606768Y-52335734D01*
X81563876Y-52439284D01*
X81543057Y-52489547D01*
X81520003Y-52545203D01*
X81394040Y-52733720D01*
X81233720Y-52894040D01*
X81045203Y-53020003D01*
X80835734Y-53106768D01*
X80736011Y-53126604D01*
X80613365Y-53151000D01*
X80386635Y-53151000D01*
X80263989Y-53126604D01*
X80164266Y-53106768D01*
X79954797Y-53020003D01*
X79766280Y-52894040D01*
X79605960Y-52733720D01*
X79479997Y-52545203D01*
X79456944Y-52489547D01*
X79436124Y-52439284D01*
X79393232Y-52335734D01*
X79349000Y-52113364D01*
X79349000Y-51886636D01*
X79393232Y-51664266D01*
X79479997Y-51454797D01*
X79605960Y-51266280D01*
X79766280Y-51105960D01*
X79954797Y-50979997D01*
X80164266Y-50893232D01*
X80275451Y-50871116D01*
X80386635Y-50849000D01*
X80613365Y-50849000D01*
X80724549Y-50871116D01*
G37*
G36*
X74405903Y-48708075D02*
G01*
X74633571Y-48802378D01*
X74838466Y-48939285D01*
X75012715Y-49113534D01*
X75149622Y-49318429D01*
X75243925Y-49546097D01*
X75292000Y-49787787D01*
X75292000Y-50034213D01*
X75243925Y-50275903D01*
X75149622Y-50503571D01*
X75012715Y-50708466D01*
X74838466Y-50882715D01*
X74633571Y-51019622D01*
X74633570Y-51019623D01*
X74633569Y-51019623D01*
X74405903Y-51113925D01*
X74164214Y-51162000D01*
X73917786Y-51162000D01*
X73676097Y-51113925D01*
X73448431Y-51019623D01*
X73448430Y-51019623D01*
X73448429Y-51019622D01*
X73243534Y-50882715D01*
X73069285Y-50708466D01*
X72932378Y-50503571D01*
X72838075Y-50275903D01*
X72790000Y-50034213D01*
X72790000Y-49787787D01*
X72838075Y-49546097D01*
X72932378Y-49318429D01*
X73069285Y-49113534D01*
X73243534Y-48939285D01*
X73448429Y-48802378D01*
X73676097Y-48708075D01*
X73917786Y-48660000D01*
X74164214Y-48660000D01*
X74405903Y-48708075D01*
G37*
G36*
X75292000Y-47438000D02*
G01*
X72790000Y-47438000D01*
X72790000Y-44936000D01*
X75292000Y-44936000D01*
X75292000Y-47438000D01*
G37*
G36*
X74405903Y-41484075D02*
G01*
X74633571Y-41578378D01*
X74838466Y-41715285D01*
X75012715Y-41889534D01*
X75149622Y-42094429D01*
X75243925Y-42322097D01*
X75292000Y-42563787D01*
X75292000Y-42810213D01*
X75243925Y-43051903D01*
X75149622Y-43279571D01*
X75012715Y-43484466D01*
X74838466Y-43658715D01*
X74633571Y-43795622D01*
X74633570Y-43795623D01*
X74633569Y-43795623D01*
X74405903Y-43889925D01*
X74164214Y-43938000D01*
X73917786Y-43938000D01*
X73676097Y-43889925D01*
X73448431Y-43795623D01*
X73448430Y-43795623D01*
X73448429Y-43795622D01*
X73243534Y-43658715D01*
X73069285Y-43484466D01*
X72932378Y-43279571D01*
X72838075Y-43051903D01*
X72790000Y-42810213D01*
X72790000Y-42563787D01*
X72838075Y-42322097D01*
X72932378Y-42094429D01*
X73069285Y-41889534D01*
X73243534Y-41715285D01*
X73448429Y-41578378D01*
X73676097Y-41484075D01*
X73917786Y-41436000D01*
X74164214Y-41436000D01*
X74405903Y-41484075D01*
G37*
G36*
X74405903Y-37984075D02*
G01*
X74633571Y-38078378D01*
X74838466Y-38215285D01*
X75012715Y-38389534D01*
X75149622Y-38594429D01*
X75243925Y-38822097D01*
X75292000Y-39063787D01*
X75292000Y-39310213D01*
X75243925Y-39551903D01*
X75149622Y-39779571D01*
X75012715Y-39984466D01*
X74838466Y-40158715D01*
X74633571Y-40295622D01*
X74633570Y-40295623D01*
X74633569Y-40295623D01*
X74405903Y-40389925D01*
X74164214Y-40438000D01*
X73917786Y-40438000D01*
X73676097Y-40389925D01*
X73448431Y-40295623D01*
X73448430Y-40295623D01*
X73448429Y-40295622D01*
X73243534Y-40158715D01*
X73069285Y-39984466D01*
X72932378Y-39779571D01*
X72838075Y-39551903D01*
X72790000Y-39310213D01*
X72790000Y-39063787D01*
X72838075Y-38822097D01*
X72932378Y-38594429D01*
X73069285Y-38389534D01*
X73243534Y-38215285D01*
X73448429Y-38078378D01*
X73676097Y-37984075D01*
X73917786Y-37936000D01*
X74164214Y-37936000D01*
X74405903Y-37984075D01*
G37*
G36*
X84177403Y-34801575D02*
G01*
X84389756Y-34889534D01*
X84405071Y-34895878D01*
X84609966Y-35032785D01*
X84784215Y-35207034D01*
X84921122Y-35411929D01*
X84921123Y-35411931D01*
X85015425Y-35639597D01*
X85063500Y-35881286D01*
X85063500Y-36127714D01*
X85015425Y-36369403D01*
X84967765Y-36484466D01*
X84921122Y-36597071D01*
X84784215Y-36801966D01*
X84609966Y-36976215D01*
X84405071Y-37113122D01*
X84405070Y-37113123D01*
X84405069Y-37113123D01*
X84177403Y-37207425D01*
X83935714Y-37255500D01*
X83689286Y-37255500D01*
X83447597Y-37207425D01*
X83219931Y-37113123D01*
X83219930Y-37113123D01*
X83219929Y-37113122D01*
X83015034Y-36976215D01*
X82840785Y-36801966D01*
X82703878Y-36597071D01*
X82657236Y-36484466D01*
X82609575Y-36369403D01*
X82561500Y-36127714D01*
X82561500Y-35881286D01*
X82609575Y-35639597D01*
X82703877Y-35411931D01*
X82703878Y-35411929D01*
X82840785Y-35207034D01*
X83015034Y-35032785D01*
X83219929Y-34895878D01*
X83235245Y-34889534D01*
X83447597Y-34801575D01*
X83689286Y-34753500D01*
X83935714Y-34753500D01*
X84177403Y-34801575D01*
G37*
G36*
X87677403Y-34801575D02*
G01*
X87889756Y-34889534D01*
X87905071Y-34895878D01*
X88109966Y-35032785D01*
X88284215Y-35207034D01*
X88421122Y-35411929D01*
X88421123Y-35411931D01*
X88515425Y-35639597D01*
X88563500Y-35881286D01*
X88563500Y-36127714D01*
X88515425Y-36369403D01*
X88467765Y-36484466D01*
X88421122Y-36597071D01*
X88284215Y-36801966D01*
X88109966Y-36976215D01*
X87905071Y-37113122D01*
X87905070Y-37113123D01*
X87905069Y-37113123D01*
X87677403Y-37207425D01*
X87435714Y-37255500D01*
X87189286Y-37255500D01*
X86947597Y-37207425D01*
X86719931Y-37113123D01*
X86719930Y-37113123D01*
X86719929Y-37113122D01*
X86515034Y-36976215D01*
X86340785Y-36801966D01*
X86203878Y-36597071D01*
X86157236Y-36484466D01*
X86109575Y-36369403D01*
X86061500Y-36127714D01*
X86061500Y-35881286D01*
X86109575Y-35639597D01*
X86203877Y-35411931D01*
X86203878Y-35411929D01*
X86340785Y-35207034D01*
X86515034Y-35032785D01*
X86719929Y-34895878D01*
X86735245Y-34889534D01*
X86947597Y-34801575D01*
X87189286Y-34753500D01*
X87435714Y-34753500D01*
X87677403Y-34801575D01*
G37*
G36*
X74405903Y-34484075D02*
G01*
X74598160Y-34563710D01*
X74633571Y-34578378D01*
X74838466Y-34715285D01*
X75012715Y-34889534D01*
X75149622Y-35094429D01*
X75149623Y-35094431D01*
X75243925Y-35322097D01*
X75287327Y-35540291D01*
X75292000Y-35563787D01*
X75292000Y-35810213D01*
X75243925Y-36051903D01*
X75149622Y-36279571D01*
X75012715Y-36484466D01*
X74838466Y-36658715D01*
X74633571Y-36795622D01*
X74633570Y-36795623D01*
X74633569Y-36795623D01*
X74405903Y-36889925D01*
X74164214Y-36938000D01*
X73917786Y-36938000D01*
X73676097Y-36889925D01*
X73448431Y-36795623D01*
X73448430Y-36795623D01*
X73448429Y-36795622D01*
X73243534Y-36658715D01*
X73069285Y-36484466D01*
X72932378Y-36279571D01*
X72838075Y-36051903D01*
X72790000Y-35810213D01*
X72790000Y-35563787D01*
X72794674Y-35540291D01*
X72838075Y-35322097D01*
X72932377Y-35094431D01*
X72932378Y-35094429D01*
X73069285Y-34889534D01*
X73243534Y-34715285D01*
X73448429Y-34578378D01*
X73483841Y-34563710D01*
X73676097Y-34484075D01*
X73917786Y-34436000D01*
X74164214Y-34436000D01*
X74405903Y-34484075D01*
G37*
G36*
X95410721Y-33252174D02*
G01*
X95510995Y-33293709D01*
X95510996Y-33293710D01*
X95601242Y-33354010D01*
X95677990Y-33430758D01*
X95677991Y-33430760D01*
X95738291Y-33521005D01*
X95769516Y-33596389D01*
X95781067Y-33618000D01*
X95796612Y-33636941D01*
X95815554Y-33652487D01*
X95837165Y-33664038D01*
X95860614Y-33671151D01*
X95885000Y-33673553D01*
X95909386Y-33671151D01*
X95932835Y-33664038D01*
X95954446Y-33652487D01*
X95973387Y-33636942D01*
X95988933Y-33618000D01*
X96000484Y-33596389D01*
X96031709Y-33521005D01*
X96092009Y-33430760D01*
X96092010Y-33430758D01*
X96168758Y-33354010D01*
X96259004Y-33293710D01*
X96259005Y-33293709D01*
X96359279Y-33252174D01*
X96465730Y-33231000D01*
X96574270Y-33231000D01*
X96680721Y-33252174D01*
X96780995Y-33293709D01*
X96780996Y-33293710D01*
X96871242Y-33354010D01*
X96947990Y-33430758D01*
X96947991Y-33430760D01*
X97010068Y-33523664D01*
X97025614Y-33542606D01*
X97044556Y-33558151D01*
X97066167Y-33569702D01*
X97089615Y-33576815D01*
X97114002Y-33579217D01*
X97138388Y-33576815D01*
X97161837Y-33569702D01*
X97183447Y-33558151D01*
X97202389Y-33542605D01*
X97217934Y-33523663D01*
X97229485Y-33502052D01*
X97236598Y-33478604D01*
X97239000Y-33454218D01*
X97239000Y-33231000D01*
X98341000Y-33231000D01*
X98341000Y-33454218D01*
X98343402Y-33478604D01*
X98350515Y-33502053D01*
X98362066Y-33523664D01*
X98377611Y-33542606D01*
X98396553Y-33558151D01*
X98418164Y-33569702D01*
X98441613Y-33576815D01*
X98465999Y-33579217D01*
X98490385Y-33576815D01*
X98513834Y-33569702D01*
X98535445Y-33558151D01*
X98554387Y-33542606D01*
X98569932Y-33523664D01*
X98632009Y-33430760D01*
X98632010Y-33430758D01*
X98708758Y-33354010D01*
X98799004Y-33293710D01*
X98799005Y-33293709D01*
X98899279Y-33252174D01*
X99005730Y-33231000D01*
X99114270Y-33231000D01*
X99220721Y-33252174D01*
X99320995Y-33293709D01*
X99320996Y-33293710D01*
X99411242Y-33354010D01*
X99487990Y-33430758D01*
X99487991Y-33430760D01*
X99548291Y-33521005D01*
X99579516Y-33596389D01*
X99591067Y-33618000D01*
X99606612Y-33636941D01*
X99625554Y-33652487D01*
X99647165Y-33664038D01*
X99670614Y-33671151D01*
X99695000Y-33673553D01*
X99719386Y-33671151D01*
X99742835Y-33664038D01*
X99764446Y-33652487D01*
X99783387Y-33636942D01*
X99798933Y-33618000D01*
X99810484Y-33596389D01*
X99841709Y-33521005D01*
X99902009Y-33430760D01*
X99902010Y-33430758D01*
X99978758Y-33354010D01*
X100069004Y-33293710D01*
X100069005Y-33293709D01*
X100169279Y-33252174D01*
X100275730Y-33231000D01*
X100384270Y-33231000D01*
X100490721Y-33252174D01*
X100590995Y-33293709D01*
X100590996Y-33293710D01*
X100681242Y-33354010D01*
X100757990Y-33430758D01*
X100757991Y-33430760D01*
X100818291Y-33521005D01*
X100849516Y-33596389D01*
X100861067Y-33618000D01*
X100876612Y-33636941D01*
X100895554Y-33652487D01*
X100917165Y-33664038D01*
X100940614Y-33671151D01*
X100965000Y-33673553D01*
X100989386Y-33671151D01*
X101012835Y-33664038D01*
X101034446Y-33652487D01*
X101053387Y-33636942D01*
X101068933Y-33618000D01*
X101080484Y-33596389D01*
X101111709Y-33521005D01*
X101172009Y-33430760D01*
X101172010Y-33430758D01*
X101248758Y-33354010D01*
X101339004Y-33293710D01*
X101339005Y-33293709D01*
X101439279Y-33252174D01*
X101545730Y-33231000D01*
X101654270Y-33231000D01*
X101760721Y-33252174D01*
X101860995Y-33293709D01*
X101860996Y-33293710D01*
X101951242Y-33354010D01*
X102027990Y-33430758D01*
X102027991Y-33430760D01*
X102090068Y-33523664D01*
X102105614Y-33542606D01*
X102124556Y-33558151D01*
X102146167Y-33569702D01*
X102169615Y-33576815D01*
X102194002Y-33579217D01*
X102218388Y-33576815D01*
X102241837Y-33569702D01*
X102263447Y-33558151D01*
X102282389Y-33542605D01*
X102297934Y-33523663D01*
X102309485Y-33502052D01*
X102316598Y-33478604D01*
X102319000Y-33454218D01*
X102319000Y-33231000D01*
X103421000Y-33231000D01*
X103421000Y-33454218D01*
X103423402Y-33478604D01*
X103430515Y-33502053D01*
X103442066Y-33523664D01*
X103457611Y-33542606D01*
X103476553Y-33558151D01*
X103498164Y-33569702D01*
X103521613Y-33576815D01*
X103545999Y-33579217D01*
X103570385Y-33576815D01*
X103593834Y-33569702D01*
X103615445Y-33558151D01*
X103634387Y-33542606D01*
X103649932Y-33523664D01*
X103712009Y-33430760D01*
X103712010Y-33430758D01*
X103788758Y-33354010D01*
X103879004Y-33293710D01*
X103879005Y-33293709D01*
X103979279Y-33252174D01*
X104085730Y-33231000D01*
X104194270Y-33231000D01*
X104300721Y-33252174D01*
X104400995Y-33293709D01*
X104400996Y-33293710D01*
X104491242Y-33354010D01*
X104567990Y-33430758D01*
X104567991Y-33430760D01*
X104628291Y-33521005D01*
X104659516Y-33596389D01*
X104671067Y-33618000D01*
X104686612Y-33636941D01*
X104705554Y-33652487D01*
X104727165Y-33664038D01*
X104750614Y-33671151D01*
X104775000Y-33673553D01*
X104799386Y-33671151D01*
X104822835Y-33664038D01*
X104844446Y-33652487D01*
X104863387Y-33636942D01*
X104878933Y-33618000D01*
X104890484Y-33596389D01*
X104921709Y-33521005D01*
X104982009Y-33430760D01*
X104982010Y-33430758D01*
X105058758Y-33354010D01*
X105149004Y-33293710D01*
X105149005Y-33293709D01*
X105249279Y-33252174D01*
X105355730Y-33231000D01*
X105464270Y-33231000D01*
X105570721Y-33252174D01*
X105670995Y-33293709D01*
X105670996Y-33293710D01*
X105761242Y-33354010D01*
X105837990Y-33430758D01*
X105837991Y-33430760D01*
X105900068Y-33523664D01*
X105915614Y-33542606D01*
X105934556Y-33558151D01*
X105956167Y-33569702D01*
X105979615Y-33576815D01*
X106004002Y-33579217D01*
X106028388Y-33576815D01*
X106051837Y-33569702D01*
X106073447Y-33558151D01*
X106092389Y-33542605D01*
X106107934Y-33523663D01*
X106119485Y-33502052D01*
X106126598Y-33478604D01*
X106129000Y-33454218D01*
X106129000Y-33231000D01*
X107231000Y-33231000D01*
X107231000Y-33454218D01*
X107233402Y-33478604D01*
X107240515Y-33502053D01*
X107252066Y-33523664D01*
X107267611Y-33542606D01*
X107286553Y-33558151D01*
X107308164Y-33569702D01*
X107331613Y-33576815D01*
X107355999Y-33579217D01*
X107380385Y-33576815D01*
X107403834Y-33569702D01*
X107425445Y-33558151D01*
X107444387Y-33542606D01*
X107459932Y-33523664D01*
X107522009Y-33430760D01*
X107522010Y-33430758D01*
X107598758Y-33354010D01*
X107689004Y-33293710D01*
X107689005Y-33293709D01*
X107789279Y-33252174D01*
X107895730Y-33231000D01*
X108004270Y-33231000D01*
X108110721Y-33252174D01*
X108210995Y-33293709D01*
X108210996Y-33293710D01*
X108301242Y-33354010D01*
X108377990Y-33430758D01*
X108377991Y-33430760D01*
X108438291Y-33521005D01*
X108469516Y-33596389D01*
X108481067Y-33618000D01*
X108496612Y-33636941D01*
X108515554Y-33652487D01*
X108537165Y-33664038D01*
X108560614Y-33671151D01*
X108585000Y-33673553D01*
X108609386Y-33671151D01*
X108632835Y-33664038D01*
X108654446Y-33652487D01*
X108673387Y-33636942D01*
X108688933Y-33618000D01*
X108700484Y-33596389D01*
X108731709Y-33521005D01*
X108792009Y-33430760D01*
X108792010Y-33430758D01*
X108868758Y-33354010D01*
X108959004Y-33293710D01*
X108959005Y-33293709D01*
X109059279Y-33252174D01*
X109165730Y-33231000D01*
X109274270Y-33231000D01*
X109380721Y-33252174D01*
X109480995Y-33293709D01*
X109480996Y-33293710D01*
X109571242Y-33354010D01*
X109647990Y-33430758D01*
X109647991Y-33430760D01*
X109708291Y-33521005D01*
X109739516Y-33596389D01*
X109751067Y-33618000D01*
X109766612Y-33636941D01*
X109785554Y-33652487D01*
X109807165Y-33664038D01*
X109830614Y-33671151D01*
X109855000Y-33673553D01*
X109879386Y-33671151D01*
X109902835Y-33664038D01*
X109924446Y-33652487D01*
X109943387Y-33636942D01*
X109958933Y-33618000D01*
X109970484Y-33596389D01*
X110001709Y-33521005D01*
X110062009Y-33430760D01*
X110062010Y-33430758D01*
X110138758Y-33354010D01*
X110229004Y-33293710D01*
X110229005Y-33293709D01*
X110329279Y-33252174D01*
X110435730Y-33231000D01*
X110544270Y-33231000D01*
X110650721Y-33252174D01*
X110750995Y-33293709D01*
X110750996Y-33293710D01*
X110841242Y-33354010D01*
X110917990Y-33430758D01*
X110917991Y-33430760D01*
X110978291Y-33521005D01*
X111009516Y-33596389D01*
X111021067Y-33618000D01*
X111036612Y-33636941D01*
X111055554Y-33652487D01*
X111077165Y-33664038D01*
X111100614Y-33671151D01*
X111125000Y-33673553D01*
X111149386Y-33671151D01*
X111172835Y-33664038D01*
X111194446Y-33652487D01*
X111213387Y-33636942D01*
X111228933Y-33618000D01*
X111240484Y-33596389D01*
X111271709Y-33521005D01*
X111332009Y-33430760D01*
X111332010Y-33430758D01*
X111408758Y-33354010D01*
X111499004Y-33293710D01*
X111499005Y-33293709D01*
X111599279Y-33252174D01*
X111705730Y-33231000D01*
X111814270Y-33231000D01*
X111920721Y-33252174D01*
X112020995Y-33293709D01*
X112020996Y-33293710D01*
X112111242Y-33354010D01*
X112187990Y-33430758D01*
X112187991Y-33430760D01*
X112250068Y-33523664D01*
X112265614Y-33542606D01*
X112284556Y-33558151D01*
X112306167Y-33569702D01*
X112329615Y-33576815D01*
X112354002Y-33579217D01*
X112378388Y-33576815D01*
X112401837Y-33569702D01*
X112423447Y-33558151D01*
X112442389Y-33542605D01*
X112457934Y-33523663D01*
X112469485Y-33502052D01*
X112476598Y-33478604D01*
X112479000Y-33454218D01*
X112479000Y-33231000D01*
X113581000Y-33231000D01*
X113581000Y-33454218D01*
X113583402Y-33478604D01*
X113590515Y-33502053D01*
X113602066Y-33523664D01*
X113617611Y-33542606D01*
X113636553Y-33558151D01*
X113658164Y-33569702D01*
X113681613Y-33576815D01*
X113705999Y-33579217D01*
X113730385Y-33576815D01*
X113753834Y-33569702D01*
X113775445Y-33558151D01*
X113794387Y-33542606D01*
X113809932Y-33523664D01*
X113872009Y-33430760D01*
X113872010Y-33430758D01*
X113948758Y-33354010D01*
X114039004Y-33293710D01*
X114039005Y-33293709D01*
X114139279Y-33252174D01*
X114245730Y-33231000D01*
X114354270Y-33231000D01*
X114460721Y-33252174D01*
X114560995Y-33293709D01*
X114560996Y-33293710D01*
X114651242Y-33354010D01*
X114727990Y-33430758D01*
X114727991Y-33430760D01*
X114790068Y-33523664D01*
X114805614Y-33542606D01*
X114824556Y-33558151D01*
X114846167Y-33569702D01*
X114869615Y-33576815D01*
X114894002Y-33579217D01*
X114918388Y-33576815D01*
X114941837Y-33569702D01*
X114963447Y-33558151D01*
X114982389Y-33542605D01*
X114997934Y-33523663D01*
X115009485Y-33502052D01*
X115016598Y-33478604D01*
X115019000Y-33454218D01*
X115019000Y-33231000D01*
X116121000Y-33231000D01*
X116121000Y-33454218D01*
X116123402Y-33478604D01*
X116130515Y-33502053D01*
X116142066Y-33523664D01*
X116157611Y-33542606D01*
X116176553Y-33558151D01*
X116198164Y-33569702D01*
X116221613Y-33576815D01*
X116245999Y-33579217D01*
X116270385Y-33576815D01*
X116293834Y-33569702D01*
X116315445Y-33558151D01*
X116334387Y-33542606D01*
X116349932Y-33523664D01*
X116412009Y-33430760D01*
X116412010Y-33430758D01*
X116488758Y-33354010D01*
X116579004Y-33293710D01*
X116579005Y-33293709D01*
X116679279Y-33252174D01*
X116785730Y-33231000D01*
X116894270Y-33231000D01*
X117000721Y-33252174D01*
X117100995Y-33293709D01*
X117100996Y-33293710D01*
X117191242Y-33354010D01*
X117267990Y-33430758D01*
X117267991Y-33430760D01*
X117328291Y-33521005D01*
X117359516Y-33596389D01*
X117371067Y-33618000D01*
X117386612Y-33636941D01*
X117405554Y-33652487D01*
X117427165Y-33664038D01*
X117450614Y-33671151D01*
X117475000Y-33673553D01*
X117499386Y-33671151D01*
X117522835Y-33664038D01*
X117544446Y-33652487D01*
X117563387Y-33636942D01*
X117578933Y-33618000D01*
X117590484Y-33596389D01*
X117621709Y-33521005D01*
X117682009Y-33430760D01*
X117682010Y-33430758D01*
X117758758Y-33354010D01*
X117849004Y-33293710D01*
X117849005Y-33293709D01*
X117949279Y-33252174D01*
X118055730Y-33231000D01*
X118164270Y-33231000D01*
X118270721Y-33252174D01*
X118370995Y-33293709D01*
X118370996Y-33293710D01*
X118461242Y-33354010D01*
X118537990Y-33430758D01*
X118537991Y-33430760D01*
X118598291Y-33521005D01*
X118629516Y-33596389D01*
X118641067Y-33618000D01*
X118656612Y-33636941D01*
X118675554Y-33652487D01*
X118697165Y-33664038D01*
X118720614Y-33671151D01*
X118745000Y-33673553D01*
X118769386Y-33671151D01*
X118792835Y-33664038D01*
X118814446Y-33652487D01*
X118833387Y-33636942D01*
X118848933Y-33618000D01*
X118860484Y-33596389D01*
X118891709Y-33521005D01*
X118952009Y-33430760D01*
X118952010Y-33430758D01*
X119028758Y-33354010D01*
X119119004Y-33293710D01*
X119119005Y-33293709D01*
X119219279Y-33252174D01*
X119325730Y-33231000D01*
X119434270Y-33231000D01*
X119540721Y-33252174D01*
X119640995Y-33293709D01*
X119640996Y-33293710D01*
X119731242Y-33354010D01*
X119807990Y-33430758D01*
X119807991Y-33430760D01*
X119868291Y-33521005D01*
X119909826Y-33621279D01*
X119931000Y-33727730D01*
X119931000Y-33836270D01*
X119909826Y-33942721D01*
X119868291Y-34042995D01*
X119855627Y-34061948D01*
X119807990Y-34133242D01*
X119731242Y-34209990D01*
X119699816Y-34230988D01*
X119638336Y-34272068D01*
X119619394Y-34287614D01*
X119603849Y-34306556D01*
X119592298Y-34328167D01*
X119585185Y-34351615D01*
X119582783Y-34376002D01*
X119585185Y-34400388D01*
X119592298Y-34423837D01*
X119603849Y-34445447D01*
X119619395Y-34464389D01*
X119638337Y-34479934D01*
X119659948Y-34491485D01*
X119683396Y-34498598D01*
X119707782Y-34501000D01*
X119931000Y-34501000D01*
X119931000Y-35603000D01*
X118829000Y-35603000D01*
X118829000Y-35379782D01*
X118826598Y-35355396D01*
X118819485Y-35331947D01*
X118807934Y-35310336D01*
X118792389Y-35291394D01*
X118773447Y-35275849D01*
X118751836Y-35264298D01*
X118728387Y-35257185D01*
X118704001Y-35254783D01*
X118679615Y-35257185D01*
X118656166Y-35264298D01*
X118634555Y-35275849D01*
X118615613Y-35291394D01*
X118600068Y-35310336D01*
X118558988Y-35371816D01*
X118537990Y-35403242D01*
X118461242Y-35479990D01*
X118415812Y-35510345D01*
X118370995Y-35540291D01*
X118270721Y-35581826D01*
X118164270Y-35603000D01*
X118055730Y-35603000D01*
X117949279Y-35581826D01*
X117849005Y-35540291D01*
X117804188Y-35510345D01*
X117758758Y-35479990D01*
X117682010Y-35403242D01*
X117634373Y-35331948D01*
X117621709Y-35312995D01*
X117590484Y-35237611D01*
X117578933Y-35216000D01*
X117563388Y-35197059D01*
X117544446Y-35181513D01*
X117522835Y-35169962D01*
X117499386Y-35162849D01*
X117475000Y-35160447D01*
X117450614Y-35162849D01*
X117427165Y-35169962D01*
X117405554Y-35181513D01*
X117386613Y-35197058D01*
X117371067Y-35216000D01*
X117359516Y-35237611D01*
X117328291Y-35312995D01*
X117315627Y-35331948D01*
X117267990Y-35403242D01*
X117191242Y-35479990D01*
X117145812Y-35510345D01*
X117100995Y-35540291D01*
X117000721Y-35581826D01*
X116894270Y-35603000D01*
X116785730Y-35603000D01*
X116679279Y-35581826D01*
X116579005Y-35540291D01*
X116534188Y-35510345D01*
X116488758Y-35479990D01*
X116412010Y-35403242D01*
X116364373Y-35331948D01*
X116351709Y-35312995D01*
X116320484Y-35237611D01*
X116308933Y-35216000D01*
X116293388Y-35197059D01*
X116274446Y-35181513D01*
X116252835Y-35169962D01*
X116229386Y-35162849D01*
X116205000Y-35160447D01*
X116180614Y-35162849D01*
X116157165Y-35169962D01*
X116135554Y-35181513D01*
X116116613Y-35197058D01*
X116101067Y-35216000D01*
X116089516Y-35237611D01*
X116058291Y-35312995D01*
X116045627Y-35331948D01*
X115997990Y-35403242D01*
X115921242Y-35479990D01*
X115875812Y-35510345D01*
X115830995Y-35540291D01*
X115730721Y-35581826D01*
X115624270Y-35603000D01*
X115515730Y-35603000D01*
X115409279Y-35581826D01*
X115309005Y-35540291D01*
X115264188Y-35510345D01*
X115218758Y-35479990D01*
X115142010Y-35403242D01*
X115094373Y-35331948D01*
X115081709Y-35312995D01*
X115050484Y-35237611D01*
X115038933Y-35216000D01*
X115023388Y-35197059D01*
X115004446Y-35181513D01*
X114982835Y-35169962D01*
X114959386Y-35162849D01*
X114935000Y-35160447D01*
X114910614Y-35162849D01*
X114887165Y-35169962D01*
X114865554Y-35181513D01*
X114846613Y-35197058D01*
X114831067Y-35216000D01*
X114819516Y-35237611D01*
X114788291Y-35312995D01*
X114775627Y-35331948D01*
X114727990Y-35403242D01*
X114651242Y-35479990D01*
X114605812Y-35510345D01*
X114560995Y-35540291D01*
X114460721Y-35581826D01*
X114354270Y-35603000D01*
X114245730Y-35603000D01*
X114139279Y-35581826D01*
X114039005Y-35540291D01*
X113994188Y-35510345D01*
X113948758Y-35479990D01*
X113872010Y-35403242D01*
X113824373Y-35331948D01*
X113811709Y-35312995D01*
X113780484Y-35237611D01*
X113768933Y-35216000D01*
X113753388Y-35197059D01*
X113734446Y-35181513D01*
X113712835Y-35169962D01*
X113689386Y-35162849D01*
X113665000Y-35160447D01*
X113640614Y-35162849D01*
X113617165Y-35169962D01*
X113595554Y-35181513D01*
X113576613Y-35197058D01*
X113561067Y-35216000D01*
X113549516Y-35237611D01*
X113518291Y-35312995D01*
X113505627Y-35331948D01*
X113457990Y-35403242D01*
X113381242Y-35479990D01*
X113335812Y-35510345D01*
X113290995Y-35540291D01*
X113190721Y-35581826D01*
X113084270Y-35603000D01*
X112975730Y-35603000D01*
X112869279Y-35581826D01*
X112769005Y-35540291D01*
X112724188Y-35510345D01*
X112678758Y-35479990D01*
X112602010Y-35403242D01*
X112554373Y-35331948D01*
X112541709Y-35312995D01*
X112510484Y-35237611D01*
X112498933Y-35216000D01*
X112483388Y-35197059D01*
X112464446Y-35181513D01*
X112442835Y-35169962D01*
X112419386Y-35162849D01*
X112395000Y-35160447D01*
X112370614Y-35162849D01*
X112347165Y-35169962D01*
X112325554Y-35181513D01*
X112306613Y-35197058D01*
X112291067Y-35216000D01*
X112279516Y-35237611D01*
X112248291Y-35312995D01*
X112235627Y-35331948D01*
X112187990Y-35403242D01*
X112111242Y-35479990D01*
X112065812Y-35510345D01*
X112020995Y-35540291D01*
X111920721Y-35581826D01*
X111814270Y-35603000D01*
X111705730Y-35603000D01*
X111599279Y-35581826D01*
X111499005Y-35540291D01*
X111454188Y-35510345D01*
X111408758Y-35479990D01*
X111332010Y-35403242D01*
X111311012Y-35371816D01*
X111269932Y-35310336D01*
X111254386Y-35291394D01*
X111235444Y-35275849D01*
X111213833Y-35264298D01*
X111190385Y-35257185D01*
X111165998Y-35254783D01*
X111141612Y-35257185D01*
X111118163Y-35264298D01*
X111096553Y-35275849D01*
X111077611Y-35291395D01*
X111062066Y-35310337D01*
X111050515Y-35331948D01*
X111043402Y-35355396D01*
X111041000Y-35379782D01*
X111041000Y-35603000D01*
X109939000Y-35603000D01*
X109939000Y-35379782D01*
X109936598Y-35355396D01*
X109929485Y-35331947D01*
X109917934Y-35310336D01*
X109902389Y-35291394D01*
X109883447Y-35275849D01*
X109861836Y-35264298D01*
X109838387Y-35257185D01*
X109814001Y-35254783D01*
X109789615Y-35257185D01*
X109766166Y-35264298D01*
X109744555Y-35275849D01*
X109725613Y-35291394D01*
X109710068Y-35310336D01*
X109668988Y-35371816D01*
X109647990Y-35403242D01*
X109571242Y-35479990D01*
X109525812Y-35510345D01*
X109480995Y-35540291D01*
X109380721Y-35581826D01*
X109274270Y-35603000D01*
X109165730Y-35603000D01*
X109059279Y-35581826D01*
X108959005Y-35540291D01*
X108914188Y-35510345D01*
X108868758Y-35479990D01*
X108792010Y-35403242D01*
X108744373Y-35331948D01*
X108731709Y-35312995D01*
X108700484Y-35237611D01*
X108688933Y-35216000D01*
X108673388Y-35197059D01*
X108654446Y-35181513D01*
X108632835Y-35169962D01*
X108609386Y-35162849D01*
X108585000Y-35160447D01*
X108560614Y-35162849D01*
X108537165Y-35169962D01*
X108515554Y-35181513D01*
X108496613Y-35197058D01*
X108481067Y-35216000D01*
X108469516Y-35237611D01*
X108438291Y-35312995D01*
X108425627Y-35331948D01*
X108377990Y-35403242D01*
X108301242Y-35479990D01*
X108255812Y-35510345D01*
X108210995Y-35540291D01*
X108110721Y-35581826D01*
X108004270Y-35603000D01*
X107895730Y-35603000D01*
X107789279Y-35581826D01*
X107689005Y-35540291D01*
X107644188Y-35510345D01*
X107598758Y-35479990D01*
X107522010Y-35403242D01*
X107474373Y-35331948D01*
X107461709Y-35312995D01*
X107430484Y-35237611D01*
X107418933Y-35216000D01*
X107403388Y-35197059D01*
X107384446Y-35181513D01*
X107362835Y-35169962D01*
X107339386Y-35162849D01*
X107315000Y-35160447D01*
X107290614Y-35162849D01*
X107267165Y-35169962D01*
X107245554Y-35181513D01*
X107226613Y-35197058D01*
X107211067Y-35216000D01*
X107199516Y-35237611D01*
X107168291Y-35312995D01*
X107155627Y-35331948D01*
X107107990Y-35403242D01*
X107031242Y-35479990D01*
X106985812Y-35510345D01*
X106940995Y-35540291D01*
X106840721Y-35581826D01*
X106734270Y-35603000D01*
X106625730Y-35603000D01*
X106519279Y-35581826D01*
X106419005Y-35540291D01*
X106374188Y-35510345D01*
X106328758Y-35479990D01*
X106252010Y-35403242D01*
X106204373Y-35331948D01*
X106191709Y-35312995D01*
X106160484Y-35237611D01*
X106148933Y-35216000D01*
X106133388Y-35197059D01*
X106114446Y-35181513D01*
X106092835Y-35169962D01*
X106069386Y-35162849D01*
X106045000Y-35160447D01*
X106020614Y-35162849D01*
X105997165Y-35169962D01*
X105975554Y-35181513D01*
X105956613Y-35197058D01*
X105941067Y-35216000D01*
X105929516Y-35237611D01*
X105898291Y-35312995D01*
X105885627Y-35331948D01*
X105837990Y-35403242D01*
X105761242Y-35479990D01*
X105715812Y-35510345D01*
X105670995Y-35540291D01*
X105570721Y-35581826D01*
X105464270Y-35603000D01*
X105355730Y-35603000D01*
X105249279Y-35581826D01*
X105149005Y-35540291D01*
X105104188Y-35510345D01*
X105058758Y-35479990D01*
X104982010Y-35403242D01*
X104934373Y-35331948D01*
X104921709Y-35312995D01*
X104890484Y-35237611D01*
X104878933Y-35216000D01*
X104863388Y-35197059D01*
X104844446Y-35181513D01*
X104822835Y-35169962D01*
X104799386Y-35162849D01*
X104775000Y-35160447D01*
X104750614Y-35162849D01*
X104727165Y-35169962D01*
X104705554Y-35181513D01*
X104686613Y-35197058D01*
X104671067Y-35216000D01*
X104659516Y-35237611D01*
X104628291Y-35312995D01*
X104615627Y-35331948D01*
X104567990Y-35403242D01*
X104491242Y-35479990D01*
X104445812Y-35510345D01*
X104400995Y-35540291D01*
X104300721Y-35581826D01*
X104194270Y-35603000D01*
X104085730Y-35603000D01*
X103979279Y-35581826D01*
X103879005Y-35540291D01*
X103834188Y-35510345D01*
X103788758Y-35479990D01*
X103712010Y-35403242D01*
X103664373Y-35331948D01*
X103651709Y-35312995D01*
X103620484Y-35237611D01*
X103608933Y-35216000D01*
X103593388Y-35197059D01*
X103574446Y-35181513D01*
X103552835Y-35169962D01*
X103529386Y-35162849D01*
X103505000Y-35160447D01*
X103480614Y-35162849D01*
X103457165Y-35169962D01*
X103435554Y-35181513D01*
X103416613Y-35197058D01*
X103401067Y-35216000D01*
X103389516Y-35237611D01*
X103358291Y-35312995D01*
X103345627Y-35331948D01*
X103297990Y-35403242D01*
X103221242Y-35479990D01*
X103175812Y-35510345D01*
X103130995Y-35540291D01*
X103030721Y-35581826D01*
X102924270Y-35603000D01*
X102815730Y-35603000D01*
X102709279Y-35581826D01*
X102609005Y-35540291D01*
X102564188Y-35510345D01*
X102518758Y-35479990D01*
X102442010Y-35403242D01*
X102394373Y-35331948D01*
X102381709Y-35312995D01*
X102350484Y-35237611D01*
X102338933Y-35216000D01*
X102323388Y-35197059D01*
X102304446Y-35181513D01*
X102282835Y-35169962D01*
X102259386Y-35162849D01*
X102235000Y-35160447D01*
X102210614Y-35162849D01*
X102187165Y-35169962D01*
X102165554Y-35181513D01*
X102146613Y-35197058D01*
X102131067Y-35216000D01*
X102119516Y-35237611D01*
X102088291Y-35312995D01*
X102075627Y-35331948D01*
X102027990Y-35403242D01*
X101951242Y-35479990D01*
X101905812Y-35510345D01*
X101860995Y-35540291D01*
X101760721Y-35581826D01*
X101654270Y-35603000D01*
X101545730Y-35603000D01*
X101439279Y-35581826D01*
X101339005Y-35540291D01*
X101294188Y-35510345D01*
X101248758Y-35479990D01*
X101172010Y-35403242D01*
X101151012Y-35371816D01*
X101109932Y-35310336D01*
X101094386Y-35291394D01*
X101075444Y-35275849D01*
X101053833Y-35264298D01*
X101030385Y-35257185D01*
X101005998Y-35254783D01*
X100981612Y-35257185D01*
X100958163Y-35264298D01*
X100936553Y-35275849D01*
X100917611Y-35291395D01*
X100902066Y-35310337D01*
X100890515Y-35331948D01*
X100883402Y-35355396D01*
X100881000Y-35379782D01*
X100881000Y-35603000D01*
X99779000Y-35603000D01*
X99779000Y-35379782D01*
X99776598Y-35355396D01*
X99769485Y-35331947D01*
X99757934Y-35310336D01*
X99742389Y-35291394D01*
X99723447Y-35275849D01*
X99701836Y-35264298D01*
X99678387Y-35257185D01*
X99654001Y-35254783D01*
X99629615Y-35257185D01*
X99606166Y-35264298D01*
X99584555Y-35275849D01*
X99565613Y-35291394D01*
X99550068Y-35310336D01*
X99508988Y-35371816D01*
X99487990Y-35403242D01*
X99411242Y-35479990D01*
X99365812Y-35510345D01*
X99320995Y-35540291D01*
X99220721Y-35581826D01*
X99114270Y-35603000D01*
X99005730Y-35603000D01*
X98899279Y-35581826D01*
X98799005Y-35540291D01*
X98754188Y-35510345D01*
X98708758Y-35479990D01*
X98632010Y-35403242D01*
X98584373Y-35331948D01*
X98571709Y-35312995D01*
X98540484Y-35237611D01*
X98528933Y-35216000D01*
X98513388Y-35197059D01*
X98494446Y-35181513D01*
X98472835Y-35169962D01*
X98449386Y-35162849D01*
X98425000Y-35160447D01*
X98400614Y-35162849D01*
X98377165Y-35169962D01*
X98355554Y-35181513D01*
X98336613Y-35197058D01*
X98321067Y-35216000D01*
X98309516Y-35237611D01*
X98278291Y-35312995D01*
X98265627Y-35331948D01*
X98217990Y-35403242D01*
X98141242Y-35479990D01*
X98095812Y-35510345D01*
X98050995Y-35540291D01*
X97950721Y-35581826D01*
X97844270Y-35603000D01*
X97735730Y-35603000D01*
X97629279Y-35581826D01*
X97529005Y-35540291D01*
X97484188Y-35510345D01*
X97438758Y-35479990D01*
X97362010Y-35403242D01*
X97314373Y-35331948D01*
X97301709Y-35312995D01*
X97270484Y-35237611D01*
X97258933Y-35216000D01*
X97243388Y-35197059D01*
X97224446Y-35181513D01*
X97202835Y-35169962D01*
X97179386Y-35162849D01*
X97155000Y-35160447D01*
X97130614Y-35162849D01*
X97107165Y-35169962D01*
X97085554Y-35181513D01*
X97066613Y-35197058D01*
X97051067Y-35216000D01*
X97039516Y-35237611D01*
X97008291Y-35312995D01*
X96995627Y-35331948D01*
X96947990Y-35403242D01*
X96871242Y-35479990D01*
X96825812Y-35510345D01*
X96780995Y-35540291D01*
X96680721Y-35581826D01*
X96574270Y-35603000D01*
X96465730Y-35603000D01*
X96359279Y-35581826D01*
X96259005Y-35540291D01*
X96214188Y-35510345D01*
X96168758Y-35479990D01*
X96092010Y-35403242D01*
X96044373Y-35331948D01*
X96031709Y-35312995D01*
X96000484Y-35237611D01*
X95988933Y-35216000D01*
X95973388Y-35197059D01*
X95954446Y-35181513D01*
X95932835Y-35169962D01*
X95909386Y-35162849D01*
X95885000Y-35160447D01*
X95860614Y-35162849D01*
X95837165Y-35169962D01*
X95815554Y-35181513D01*
X95796613Y-35197058D01*
X95781067Y-35216000D01*
X95769516Y-35237611D01*
X95738291Y-35312995D01*
X95725627Y-35331948D01*
X95677990Y-35403242D01*
X95601242Y-35479990D01*
X95555812Y-35510345D01*
X95510995Y-35540291D01*
X95410721Y-35581826D01*
X95304270Y-35603000D01*
X95195730Y-35603000D01*
X95089279Y-35581826D01*
X94989005Y-35540291D01*
X94944188Y-35510345D01*
X94898758Y-35479990D01*
X94822010Y-35403242D01*
X94774373Y-35331948D01*
X94761709Y-35312995D01*
X94720174Y-35212721D01*
X94699000Y-35106270D01*
X94699000Y-34997730D01*
X94720174Y-34891279D01*
X94761709Y-34791005D01*
X94806335Y-34724218D01*
X94822010Y-34700758D01*
X94898758Y-34624010D01*
X94944188Y-34593655D01*
X94989005Y-34563709D01*
X95064389Y-34532484D01*
X95086000Y-34520933D01*
X95104941Y-34505388D01*
X95120487Y-34486446D01*
X95132038Y-34464835D01*
X95139151Y-34441386D01*
X95141553Y-34417000D01*
X95358447Y-34417000D01*
X95360849Y-34441386D01*
X95367962Y-34464835D01*
X95379513Y-34486446D01*
X95395058Y-34505387D01*
X95414000Y-34520933D01*
X95435611Y-34532484D01*
X95510995Y-34563709D01*
X95555812Y-34593655D01*
X95601242Y-34624010D01*
X95677990Y-34700758D01*
X95693665Y-34724218D01*
X95738291Y-34791005D01*
X95769516Y-34866389D01*
X95781067Y-34888000D01*
X95796612Y-34906941D01*
X95815554Y-34922487D01*
X95837165Y-34934038D01*
X95860614Y-34941151D01*
X95885000Y-34943553D01*
X95909386Y-34941151D01*
X95932835Y-34934038D01*
X95954446Y-34922487D01*
X95973387Y-34906942D01*
X95988933Y-34888000D01*
X96000484Y-34866389D01*
X96031709Y-34791005D01*
X96076335Y-34724218D01*
X96092010Y-34700758D01*
X96168758Y-34624010D01*
X96214188Y-34593655D01*
X96259005Y-34563709D01*
X96334389Y-34532484D01*
X96356000Y-34520933D01*
X96374941Y-34505388D01*
X96390487Y-34486446D01*
X96402038Y-34464835D01*
X96409151Y-34441386D01*
X96411553Y-34417000D01*
X96628447Y-34417000D01*
X96630849Y-34441386D01*
X96637962Y-34464835D01*
X96649513Y-34486446D01*
X96665058Y-34505387D01*
X96684000Y-34520933D01*
X96705611Y-34532484D01*
X96780995Y-34563709D01*
X96825812Y-34593655D01*
X96871242Y-34624010D01*
X96947990Y-34700758D01*
X96963665Y-34724218D01*
X97008291Y-34791005D01*
X97039516Y-34866389D01*
X97051067Y-34888000D01*
X97066612Y-34906941D01*
X97085554Y-34922487D01*
X97107165Y-34934038D01*
X97130614Y-34941151D01*
X97155000Y-34943553D01*
X97179386Y-34941151D01*
X97202835Y-34934038D01*
X97224446Y-34922487D01*
X97243387Y-34906942D01*
X97258933Y-34888000D01*
X97270484Y-34866389D01*
X97301709Y-34791005D01*
X97346335Y-34724218D01*
X97362010Y-34700758D01*
X97438758Y-34624010D01*
X97470184Y-34603012D01*
X97531664Y-34561932D01*
X97550606Y-34546386D01*
X97566151Y-34527444D01*
X97577702Y-34505833D01*
X97584815Y-34482385D01*
X97587216Y-34457999D01*
X97992783Y-34457999D01*
X97995185Y-34482385D01*
X98002298Y-34505834D01*
X98013849Y-34527445D01*
X98029394Y-34546387D01*
X98048336Y-34561932D01*
X98109816Y-34603012D01*
X98141242Y-34624010D01*
X98217990Y-34700758D01*
X98233665Y-34724218D01*
X98278291Y-34791005D01*
X98309516Y-34866389D01*
X98321067Y-34888000D01*
X98336612Y-34906941D01*
X98355554Y-34922487D01*
X98377165Y-34934038D01*
X98400614Y-34941151D01*
X98425000Y-34943553D01*
X98449386Y-34941151D01*
X98472835Y-34934038D01*
X98494446Y-34922487D01*
X98513387Y-34906942D01*
X98528933Y-34888000D01*
X98540484Y-34866389D01*
X98571709Y-34791005D01*
X98616335Y-34724218D01*
X98632010Y-34700758D01*
X98708758Y-34624010D01*
X98754188Y-34593655D01*
X98799005Y-34563709D01*
X98874389Y-34532484D01*
X98896000Y-34520933D01*
X98914941Y-34505388D01*
X98930487Y-34486446D01*
X98942038Y-34464835D01*
X98949151Y-34441386D01*
X98951553Y-34417000D01*
X99168447Y-34417000D01*
X99170849Y-34441386D01*
X99177962Y-34464835D01*
X99189513Y-34486446D01*
X99205058Y-34505387D01*
X99224000Y-34520933D01*
X99245611Y-34532484D01*
X99320995Y-34563709D01*
X99365812Y-34593655D01*
X99411242Y-34624010D01*
X99487990Y-34700758D01*
X99503665Y-34724218D01*
X99550068Y-34793664D01*
X99565614Y-34812606D01*
X99584556Y-34828151D01*
X99606167Y-34839702D01*
X99629615Y-34846815D01*
X99654002Y-34849217D01*
X99678388Y-34846815D01*
X99701837Y-34839702D01*
X99723447Y-34828151D01*
X99742389Y-34812605D01*
X99757934Y-34793663D01*
X99769485Y-34772052D01*
X99776598Y-34748604D01*
X99779000Y-34724218D01*
X99779000Y-34501000D01*
X100002218Y-34501000D01*
X100026604Y-34498598D01*
X100050053Y-34491485D01*
X100071664Y-34479934D01*
X100090606Y-34464389D01*
X100106151Y-34445447D01*
X100117702Y-34423836D01*
X100124815Y-34400387D01*
X100127216Y-34376002D01*
X100532783Y-34376002D01*
X100535185Y-34400388D01*
X100542298Y-34423837D01*
X100553849Y-34445447D01*
X100569395Y-34464389D01*
X100588337Y-34479934D01*
X100609948Y-34491485D01*
X100633396Y-34498598D01*
X100657782Y-34501000D01*
X100881000Y-34501000D01*
X100881000Y-34724218D01*
X100883402Y-34748604D01*
X100890515Y-34772053D01*
X100902066Y-34793664D01*
X100917611Y-34812606D01*
X100936553Y-34828151D01*
X100958164Y-34839702D01*
X100981613Y-34846815D01*
X101005999Y-34849217D01*
X101030385Y-34846815D01*
X101053834Y-34839702D01*
X101075445Y-34828151D01*
X101094387Y-34812606D01*
X101109932Y-34793664D01*
X101156335Y-34724218D01*
X101172010Y-34700758D01*
X101248758Y-34624010D01*
X101294188Y-34593655D01*
X101339005Y-34563709D01*
X101414389Y-34532484D01*
X101436000Y-34520933D01*
X101454941Y-34505388D01*
X101470487Y-34486446D01*
X101482038Y-34464835D01*
X101489151Y-34441386D01*
X101491553Y-34417000D01*
X101708447Y-34417000D01*
X101710849Y-34441386D01*
X101717962Y-34464835D01*
X101729513Y-34486446D01*
X101745058Y-34505387D01*
X101764000Y-34520933D01*
X101785611Y-34532484D01*
X101860995Y-34563709D01*
X101905812Y-34593655D01*
X101951242Y-34624010D01*
X102027990Y-34700758D01*
X102043665Y-34724218D01*
X102088291Y-34791005D01*
X102119516Y-34866389D01*
X102131067Y-34888000D01*
X102146612Y-34906941D01*
X102165554Y-34922487D01*
X102187165Y-34934038D01*
X102210614Y-34941151D01*
X102235000Y-34943553D01*
X102259386Y-34941151D01*
X102282835Y-34934038D01*
X102304446Y-34922487D01*
X102323387Y-34906942D01*
X102338933Y-34888000D01*
X102350484Y-34866389D01*
X102381709Y-34791005D01*
X102426335Y-34724218D01*
X102442010Y-34700758D01*
X102518758Y-34624010D01*
X102550184Y-34603012D01*
X102611664Y-34561932D01*
X102630606Y-34546386D01*
X102646151Y-34527444D01*
X102657702Y-34505833D01*
X102664815Y-34482385D01*
X102667216Y-34457999D01*
X103072783Y-34457999D01*
X103075185Y-34482385D01*
X103082298Y-34505834D01*
X103093849Y-34527445D01*
X103109394Y-34546387D01*
X103128336Y-34561932D01*
X103189816Y-34603012D01*
X103221242Y-34624010D01*
X103297990Y-34700758D01*
X103313665Y-34724218D01*
X103358291Y-34791005D01*
X103389516Y-34866389D01*
X103401067Y-34888000D01*
X103416612Y-34906941D01*
X103435554Y-34922487D01*
X103457165Y-34934038D01*
X103480614Y-34941151D01*
X103505000Y-34943553D01*
X103529386Y-34941151D01*
X103552835Y-34934038D01*
X103574446Y-34922487D01*
X103593387Y-34906942D01*
X103608933Y-34888000D01*
X103620484Y-34866389D01*
X103651709Y-34791005D01*
X103696335Y-34724218D01*
X103712010Y-34700758D01*
X103788758Y-34624010D01*
X103834188Y-34593655D01*
X103879005Y-34563709D01*
X103954389Y-34532484D01*
X103976000Y-34520933D01*
X103994941Y-34505388D01*
X104010487Y-34486446D01*
X104022038Y-34464835D01*
X104029151Y-34441386D01*
X104031553Y-34417000D01*
X104248447Y-34417000D01*
X104250849Y-34441386D01*
X104257962Y-34464835D01*
X104269513Y-34486446D01*
X104285058Y-34505387D01*
X104304000Y-34520933D01*
X104325611Y-34532484D01*
X104400995Y-34563709D01*
X104445812Y-34593655D01*
X104491242Y-34624010D01*
X104567990Y-34700758D01*
X104583665Y-34724218D01*
X104628291Y-34791005D01*
X104659516Y-34866389D01*
X104671067Y-34888000D01*
X104686612Y-34906941D01*
X104705554Y-34922487D01*
X104727165Y-34934038D01*
X104750614Y-34941151D01*
X104775000Y-34943553D01*
X104799386Y-34941151D01*
X104822835Y-34934038D01*
X104844446Y-34922487D01*
X104863387Y-34906942D01*
X104878933Y-34888000D01*
X104890484Y-34866389D01*
X104921709Y-34791005D01*
X104966335Y-34724218D01*
X104982010Y-34700758D01*
X105058758Y-34624010D01*
X105104188Y-34593655D01*
X105149005Y-34563709D01*
X105224389Y-34532484D01*
X105246000Y-34520933D01*
X105264941Y-34505388D01*
X105280487Y-34486446D01*
X105292038Y-34464835D01*
X105299151Y-34441386D01*
X105301553Y-34417000D01*
X105518447Y-34417000D01*
X105520849Y-34441386D01*
X105527962Y-34464835D01*
X105539513Y-34486446D01*
X105555058Y-34505387D01*
X105574000Y-34520933D01*
X105595611Y-34532484D01*
X105670995Y-34563709D01*
X105715812Y-34593655D01*
X105761242Y-34624010D01*
X105837990Y-34700758D01*
X105853665Y-34724218D01*
X105898291Y-34791005D01*
X105929516Y-34866389D01*
X105941067Y-34888000D01*
X105956612Y-34906941D01*
X105975554Y-34922487D01*
X105997165Y-34934038D01*
X106020614Y-34941151D01*
X106045000Y-34943553D01*
X106069386Y-34941151D01*
X106092835Y-34934038D01*
X106114446Y-34922487D01*
X106133387Y-34906942D01*
X106148933Y-34888000D01*
X106160484Y-34866389D01*
X106191709Y-34791005D01*
X106236335Y-34724218D01*
X106252010Y-34700758D01*
X106328758Y-34624010D01*
X106360184Y-34603012D01*
X106421664Y-34561932D01*
X106440606Y-34546386D01*
X106456151Y-34527444D01*
X106467702Y-34505833D01*
X106474815Y-34482385D01*
X106477216Y-34457999D01*
X106882783Y-34457999D01*
X106885185Y-34482385D01*
X106892298Y-34505834D01*
X106903849Y-34527445D01*
X106919394Y-34546387D01*
X106938336Y-34561932D01*
X106999816Y-34603012D01*
X107031242Y-34624010D01*
X107107990Y-34700758D01*
X107123665Y-34724218D01*
X107168291Y-34791005D01*
X107199516Y-34866389D01*
X107211067Y-34888000D01*
X107226612Y-34906941D01*
X107245554Y-34922487D01*
X107267165Y-34934038D01*
X107290614Y-34941151D01*
X107315000Y-34943553D01*
X107339386Y-34941151D01*
X107362835Y-34934038D01*
X107384446Y-34922487D01*
X107403387Y-34906942D01*
X107418933Y-34888000D01*
X107430484Y-34866389D01*
X107461709Y-34791005D01*
X107506335Y-34724218D01*
X107522010Y-34700758D01*
X107598758Y-34624010D01*
X107644188Y-34593655D01*
X107689005Y-34563709D01*
X107764389Y-34532484D01*
X107786000Y-34520933D01*
X107804941Y-34505388D01*
X107820487Y-34486446D01*
X107832038Y-34464835D01*
X107839151Y-34441386D01*
X107841553Y-34417000D01*
X108058447Y-34417000D01*
X108060849Y-34441386D01*
X108067962Y-34464835D01*
X108079513Y-34486446D01*
X108095058Y-34505387D01*
X108114000Y-34520933D01*
X108135611Y-34532484D01*
X108210995Y-34563709D01*
X108255812Y-34593655D01*
X108301242Y-34624010D01*
X108377990Y-34700758D01*
X108393665Y-34724218D01*
X108438291Y-34791005D01*
X108469516Y-34866389D01*
X108481067Y-34888000D01*
X108496612Y-34906941D01*
X108515554Y-34922487D01*
X108537165Y-34934038D01*
X108560614Y-34941151D01*
X108585000Y-34943553D01*
X108609386Y-34941151D01*
X108632835Y-34934038D01*
X108654446Y-34922487D01*
X108673387Y-34906942D01*
X108688933Y-34888000D01*
X108700484Y-34866389D01*
X108731709Y-34791005D01*
X108776335Y-34724218D01*
X108792010Y-34700758D01*
X108868758Y-34624010D01*
X108914188Y-34593655D01*
X108959005Y-34563709D01*
X109034389Y-34532484D01*
X109056000Y-34520933D01*
X109074941Y-34505388D01*
X109090487Y-34486446D01*
X109102038Y-34464835D01*
X109109151Y-34441386D01*
X109111553Y-34417000D01*
X109328447Y-34417000D01*
X109330849Y-34441386D01*
X109337962Y-34464835D01*
X109349513Y-34486446D01*
X109365058Y-34505387D01*
X109384000Y-34520933D01*
X109405611Y-34532484D01*
X109480995Y-34563709D01*
X109525812Y-34593655D01*
X109571242Y-34624010D01*
X109647990Y-34700758D01*
X109663665Y-34724218D01*
X109710068Y-34793664D01*
X109725614Y-34812606D01*
X109744556Y-34828151D01*
X109766167Y-34839702D01*
X109789615Y-34846815D01*
X109814002Y-34849217D01*
X109838388Y-34846815D01*
X109861837Y-34839702D01*
X109883447Y-34828151D01*
X109902389Y-34812605D01*
X109917934Y-34793663D01*
X109929485Y-34772052D01*
X109936598Y-34748604D01*
X109939000Y-34724218D01*
X109939000Y-34501000D01*
X110162218Y-34501000D01*
X110186604Y-34498598D01*
X110210053Y-34491485D01*
X110231664Y-34479934D01*
X110250606Y-34464389D01*
X110266151Y-34445447D01*
X110277702Y-34423836D01*
X110284815Y-34400387D01*
X110287216Y-34376002D01*
X110692783Y-34376002D01*
X110695185Y-34400388D01*
X110702298Y-34423837D01*
X110713849Y-34445447D01*
X110729395Y-34464389D01*
X110748337Y-34479934D01*
X110769948Y-34491485D01*
X110793396Y-34498598D01*
X110817782Y-34501000D01*
X111041000Y-34501000D01*
X111041000Y-34724218D01*
X111043402Y-34748604D01*
X111050515Y-34772053D01*
X111062066Y-34793664D01*
X111077611Y-34812606D01*
X111096553Y-34828151D01*
X111118164Y-34839702D01*
X111141613Y-34846815D01*
X111165999Y-34849217D01*
X111190385Y-34846815D01*
X111213834Y-34839702D01*
X111235445Y-34828151D01*
X111254387Y-34812606D01*
X111269932Y-34793664D01*
X111316335Y-34724218D01*
X111332010Y-34700758D01*
X111408758Y-34624010D01*
X111454188Y-34593655D01*
X111499005Y-34563709D01*
X111574389Y-34532484D01*
X111596000Y-34520933D01*
X111614941Y-34505388D01*
X111630487Y-34486446D01*
X111642038Y-34464835D01*
X111649151Y-34441386D01*
X111651553Y-34417000D01*
X111868447Y-34417000D01*
X111870849Y-34441386D01*
X111877962Y-34464835D01*
X111889513Y-34486446D01*
X111905058Y-34505387D01*
X111924000Y-34520933D01*
X111945611Y-34532484D01*
X112020995Y-34563709D01*
X112065812Y-34593655D01*
X112111242Y-34624010D01*
X112187990Y-34700758D01*
X112203665Y-34724218D01*
X112248291Y-34791005D01*
X112279516Y-34866389D01*
X112291067Y-34888000D01*
X112306612Y-34906941D01*
X112325554Y-34922487D01*
X112347165Y-34934038D01*
X112370614Y-34941151D01*
X112395000Y-34943553D01*
X112419386Y-34941151D01*
X112442835Y-34934038D01*
X112464446Y-34922487D01*
X112483387Y-34906942D01*
X112498933Y-34888000D01*
X112510484Y-34866389D01*
X112541709Y-34791005D01*
X112586335Y-34724218D01*
X112602010Y-34700758D01*
X112678758Y-34624010D01*
X112710184Y-34603012D01*
X112771664Y-34561932D01*
X112790606Y-34546386D01*
X112806151Y-34527444D01*
X112817702Y-34505833D01*
X112824815Y-34482385D01*
X112827216Y-34457999D01*
X113232783Y-34457999D01*
X113235185Y-34482385D01*
X113242298Y-34505834D01*
X113253849Y-34527445D01*
X113269394Y-34546387D01*
X113288336Y-34561932D01*
X113349816Y-34603012D01*
X113381242Y-34624010D01*
X113457990Y-34700758D01*
X113473665Y-34724218D01*
X113518291Y-34791005D01*
X113549516Y-34866389D01*
X113561067Y-34888000D01*
X113576612Y-34906941D01*
X113595554Y-34922487D01*
X113617165Y-34934038D01*
X113640614Y-34941151D01*
X113665000Y-34943553D01*
X113689386Y-34941151D01*
X113712835Y-34934038D01*
X113734446Y-34922487D01*
X113753387Y-34906942D01*
X113768933Y-34888000D01*
X113780484Y-34866389D01*
X113811709Y-34791005D01*
X113856335Y-34724218D01*
X113872010Y-34700758D01*
X113948758Y-34624010D01*
X113994188Y-34593655D01*
X114039005Y-34563709D01*
X114114389Y-34532484D01*
X114136000Y-34520933D01*
X114154941Y-34505388D01*
X114170487Y-34486446D01*
X114182038Y-34464835D01*
X114189151Y-34441386D01*
X114191553Y-34417000D01*
X114408447Y-34417000D01*
X114410849Y-34441386D01*
X114417962Y-34464835D01*
X114429513Y-34486446D01*
X114445058Y-34505387D01*
X114464000Y-34520933D01*
X114485611Y-34532484D01*
X114560995Y-34563709D01*
X114605812Y-34593655D01*
X114651242Y-34624010D01*
X114727990Y-34700758D01*
X114743665Y-34724218D01*
X114788291Y-34791005D01*
X114819516Y-34866389D01*
X114831067Y-34888000D01*
X114846612Y-34906941D01*
X114865554Y-34922487D01*
X114887165Y-34934038D01*
X114910614Y-34941151D01*
X114935000Y-34943553D01*
X114959386Y-34941151D01*
X114982835Y-34934038D01*
X115004446Y-34922487D01*
X115023387Y-34906942D01*
X115038933Y-34888000D01*
X115050484Y-34866389D01*
X115081709Y-34791005D01*
X115126335Y-34724218D01*
X115142010Y-34700758D01*
X115218758Y-34624010D01*
X115250184Y-34603012D01*
X115311664Y-34561932D01*
X115330606Y-34546386D01*
X115346151Y-34527444D01*
X115357702Y-34505833D01*
X115364815Y-34482385D01*
X115367216Y-34457999D01*
X115772783Y-34457999D01*
X115775185Y-34482385D01*
X115782298Y-34505834D01*
X115793849Y-34527445D01*
X115809394Y-34546387D01*
X115828336Y-34561932D01*
X115889816Y-34603012D01*
X115921242Y-34624010D01*
X115997990Y-34700758D01*
X116013665Y-34724218D01*
X116058291Y-34791005D01*
X116089516Y-34866389D01*
X116101067Y-34888000D01*
X116116612Y-34906941D01*
X116135554Y-34922487D01*
X116157165Y-34934038D01*
X116180614Y-34941151D01*
X116205000Y-34943553D01*
X116229386Y-34941151D01*
X116252835Y-34934038D01*
X116274446Y-34922487D01*
X116293387Y-34906942D01*
X116308933Y-34888000D01*
X116320484Y-34866389D01*
X116351709Y-34791005D01*
X116396335Y-34724218D01*
X116412010Y-34700758D01*
X116488758Y-34624010D01*
X116534188Y-34593655D01*
X116579005Y-34563709D01*
X116654389Y-34532484D01*
X116676000Y-34520933D01*
X116694941Y-34505388D01*
X116710487Y-34486446D01*
X116722038Y-34464835D01*
X116729151Y-34441386D01*
X116731553Y-34417000D01*
X116948447Y-34417000D01*
X116950849Y-34441386D01*
X116957962Y-34464835D01*
X116969513Y-34486446D01*
X116985058Y-34505387D01*
X117004000Y-34520933D01*
X117025611Y-34532484D01*
X117100995Y-34563709D01*
X117145812Y-34593655D01*
X117191242Y-34624010D01*
X117267990Y-34700758D01*
X117283665Y-34724218D01*
X117328291Y-34791005D01*
X117359516Y-34866389D01*
X117371067Y-34888000D01*
X117386612Y-34906941D01*
X117405554Y-34922487D01*
X117427165Y-34934038D01*
X117450614Y-34941151D01*
X117475000Y-34943553D01*
X117499386Y-34941151D01*
X117522835Y-34934038D01*
X117544446Y-34922487D01*
X117563387Y-34906942D01*
X117578933Y-34888000D01*
X117590484Y-34866389D01*
X117621709Y-34791005D01*
X117666335Y-34724218D01*
X117682010Y-34700758D01*
X117758758Y-34624010D01*
X117804188Y-34593655D01*
X117849005Y-34563709D01*
X117924389Y-34532484D01*
X117946000Y-34520933D01*
X117964941Y-34505388D01*
X117980487Y-34486446D01*
X117992038Y-34464835D01*
X117999151Y-34441386D01*
X118001553Y-34417000D01*
X118218447Y-34417000D01*
X118220849Y-34441386D01*
X118227962Y-34464835D01*
X118239513Y-34486446D01*
X118255058Y-34505387D01*
X118274000Y-34520933D01*
X118295611Y-34532484D01*
X118370995Y-34563709D01*
X118415812Y-34593655D01*
X118461242Y-34624010D01*
X118537990Y-34700758D01*
X118553665Y-34724218D01*
X118600068Y-34793664D01*
X118615614Y-34812606D01*
X118634556Y-34828151D01*
X118656167Y-34839702D01*
X118679615Y-34846815D01*
X118704002Y-34849217D01*
X118728388Y-34846815D01*
X118751837Y-34839702D01*
X118773447Y-34828151D01*
X118792389Y-34812605D01*
X118807934Y-34793663D01*
X118819485Y-34772052D01*
X118826598Y-34748604D01*
X118829000Y-34724218D01*
X118829000Y-34501000D01*
X119052218Y-34501000D01*
X119076604Y-34498598D01*
X119100053Y-34491485D01*
X119121664Y-34479934D01*
X119140606Y-34464389D01*
X119156151Y-34445447D01*
X119167702Y-34423836D01*
X119174815Y-34400387D01*
X119177217Y-34376001D01*
X119174815Y-34351615D01*
X119167702Y-34328166D01*
X119156151Y-34306555D01*
X119140606Y-34287613D01*
X119121664Y-34272068D01*
X119060184Y-34230988D01*
X119028758Y-34209990D01*
X118952010Y-34133242D01*
X118904373Y-34061948D01*
X118891709Y-34042995D01*
X118860484Y-33967611D01*
X118848933Y-33946000D01*
X118833388Y-33927059D01*
X118814446Y-33911513D01*
X118792835Y-33899962D01*
X118769386Y-33892849D01*
X118745000Y-33890447D01*
X118720614Y-33892849D01*
X118697165Y-33899962D01*
X118675554Y-33911513D01*
X118656613Y-33927058D01*
X118641067Y-33946000D01*
X118629516Y-33967611D01*
X118598291Y-34042995D01*
X118585627Y-34061948D01*
X118537990Y-34133242D01*
X118461242Y-34209990D01*
X118425729Y-34233719D01*
X118370995Y-34270291D01*
X118295611Y-34301516D01*
X118274000Y-34313067D01*
X118255059Y-34328612D01*
X118239513Y-34347554D01*
X118227962Y-34369165D01*
X118220849Y-34392614D01*
X118218447Y-34417000D01*
X118001553Y-34417000D01*
X117999151Y-34392614D01*
X117992038Y-34369165D01*
X117980487Y-34347554D01*
X117964942Y-34328613D01*
X117946000Y-34313067D01*
X117924389Y-34301516D01*
X117849005Y-34270291D01*
X117794271Y-34233719D01*
X117758758Y-34209990D01*
X117682010Y-34133242D01*
X117634373Y-34061948D01*
X117621709Y-34042995D01*
X117590484Y-33967611D01*
X117578933Y-33946000D01*
X117563388Y-33927059D01*
X117544446Y-33911513D01*
X117522835Y-33899962D01*
X117499386Y-33892849D01*
X117475000Y-33890447D01*
X117450614Y-33892849D01*
X117427165Y-33899962D01*
X117405554Y-33911513D01*
X117386613Y-33927058D01*
X117371067Y-33946000D01*
X117359516Y-33967611D01*
X117328291Y-34042995D01*
X117315627Y-34061948D01*
X117267990Y-34133242D01*
X117191242Y-34209990D01*
X117155729Y-34233719D01*
X117100995Y-34270291D01*
X117025611Y-34301516D01*
X117004000Y-34313067D01*
X116985059Y-34328612D01*
X116969513Y-34347554D01*
X116957962Y-34369165D01*
X116950849Y-34392614D01*
X116948447Y-34417000D01*
X116731553Y-34417000D01*
X116729151Y-34392614D01*
X116722038Y-34369165D01*
X116710487Y-34347554D01*
X116694942Y-34328613D01*
X116676000Y-34313067D01*
X116654389Y-34301516D01*
X116579005Y-34270291D01*
X116524271Y-34233719D01*
X116488758Y-34209990D01*
X116412010Y-34133242D01*
X116391012Y-34101816D01*
X116349932Y-34040336D01*
X116334386Y-34021394D01*
X116315444Y-34005849D01*
X116293833Y-33994298D01*
X116270385Y-33987185D01*
X116245998Y-33984783D01*
X116221612Y-33987185D01*
X116198163Y-33994298D01*
X116176553Y-34005849D01*
X116157611Y-34021395D01*
X116142066Y-34040337D01*
X116130515Y-34061948D01*
X116123402Y-34085396D01*
X116121000Y-34109782D01*
X116121000Y-34333000D01*
X115897782Y-34333000D01*
X115873396Y-34335402D01*
X115849947Y-34342515D01*
X115828336Y-34354066D01*
X115809394Y-34369611D01*
X115793849Y-34388553D01*
X115782298Y-34410164D01*
X115775185Y-34433613D01*
X115772783Y-34457999D01*
X115367216Y-34457999D01*
X115367217Y-34457998D01*
X115364815Y-34433612D01*
X115357702Y-34410163D01*
X115346151Y-34388553D01*
X115330605Y-34369611D01*
X115311663Y-34354066D01*
X115290052Y-34342515D01*
X115266604Y-34335402D01*
X115242218Y-34333000D01*
X115019000Y-34333000D01*
X115019000Y-34109782D01*
X115016598Y-34085396D01*
X115009485Y-34061947D01*
X114997934Y-34040336D01*
X114982389Y-34021394D01*
X114963447Y-34005849D01*
X114941836Y-33994298D01*
X114918387Y-33987185D01*
X114894001Y-33984783D01*
X114869615Y-33987185D01*
X114846166Y-33994298D01*
X114824555Y-34005849D01*
X114805613Y-34021394D01*
X114790068Y-34040336D01*
X114748988Y-34101816D01*
X114727990Y-34133242D01*
X114651242Y-34209990D01*
X114615729Y-34233719D01*
X114560995Y-34270291D01*
X114485611Y-34301516D01*
X114464000Y-34313067D01*
X114445059Y-34328612D01*
X114429513Y-34347554D01*
X114417962Y-34369165D01*
X114410849Y-34392614D01*
X114408447Y-34417000D01*
X114191553Y-34417000D01*
X114189151Y-34392614D01*
X114182038Y-34369165D01*
X114170487Y-34347554D01*
X114154942Y-34328613D01*
X114136000Y-34313067D01*
X114114389Y-34301516D01*
X114039005Y-34270291D01*
X113984271Y-34233719D01*
X113948758Y-34209990D01*
X113872010Y-34133242D01*
X113851012Y-34101816D01*
X113809932Y-34040336D01*
X113794386Y-34021394D01*
X113775444Y-34005849D01*
X113753833Y-33994298D01*
X113730385Y-33987185D01*
X113705998Y-33984783D01*
X113681612Y-33987185D01*
X113658163Y-33994298D01*
X113636553Y-34005849D01*
X113617611Y-34021395D01*
X113602066Y-34040337D01*
X113590515Y-34061948D01*
X113583402Y-34085396D01*
X113581000Y-34109782D01*
X113581000Y-34333000D01*
X113357782Y-34333000D01*
X113333396Y-34335402D01*
X113309947Y-34342515D01*
X113288336Y-34354066D01*
X113269394Y-34369611D01*
X113253849Y-34388553D01*
X113242298Y-34410164D01*
X113235185Y-34433613D01*
X113232783Y-34457999D01*
X112827216Y-34457999D01*
X112827217Y-34457998D01*
X112824815Y-34433612D01*
X112817702Y-34410163D01*
X112806151Y-34388553D01*
X112790605Y-34369611D01*
X112771663Y-34354066D01*
X112750052Y-34342515D01*
X112726604Y-34335402D01*
X112702218Y-34333000D01*
X112479000Y-34333000D01*
X112479000Y-34109782D01*
X112476598Y-34085396D01*
X112469485Y-34061947D01*
X112457934Y-34040336D01*
X112442389Y-34021394D01*
X112423447Y-34005849D01*
X112401836Y-33994298D01*
X112378387Y-33987185D01*
X112354001Y-33984783D01*
X112329615Y-33987185D01*
X112306166Y-33994298D01*
X112284555Y-34005849D01*
X112265613Y-34021394D01*
X112250068Y-34040336D01*
X112208988Y-34101816D01*
X112187990Y-34133242D01*
X112111242Y-34209990D01*
X112075729Y-34233719D01*
X112020995Y-34270291D01*
X111945611Y-34301516D01*
X111924000Y-34313067D01*
X111905059Y-34328612D01*
X111889513Y-34347554D01*
X111877962Y-34369165D01*
X111870849Y-34392614D01*
X111868447Y-34417000D01*
X111651553Y-34417000D01*
X111649151Y-34392614D01*
X111642038Y-34369165D01*
X111630487Y-34347554D01*
X111614942Y-34328613D01*
X111596000Y-34313067D01*
X111574389Y-34301516D01*
X111499005Y-34270291D01*
X111444271Y-34233719D01*
X111408758Y-34209990D01*
X111332010Y-34133242D01*
X111284373Y-34061948D01*
X111271709Y-34042995D01*
X111240484Y-33967611D01*
X111228933Y-33946000D01*
X111213388Y-33927059D01*
X111194446Y-33911513D01*
X111172835Y-33899962D01*
X111149386Y-33892849D01*
X111125000Y-33890447D01*
X111100614Y-33892849D01*
X111077165Y-33899962D01*
X111055554Y-33911513D01*
X111036613Y-33927058D01*
X111021067Y-33946000D01*
X111009516Y-33967611D01*
X110978291Y-34042995D01*
X110965627Y-34061948D01*
X110917990Y-34133242D01*
X110841242Y-34209990D01*
X110809816Y-34230988D01*
X110748336Y-34272068D01*
X110729394Y-34287614D01*
X110713849Y-34306556D01*
X110702298Y-34328167D01*
X110695185Y-34351615D01*
X110692783Y-34376002D01*
X110287216Y-34376002D01*
X110287217Y-34376001D01*
X110284815Y-34351615D01*
X110277702Y-34328166D01*
X110266151Y-34306555D01*
X110250606Y-34287613D01*
X110231664Y-34272068D01*
X110170184Y-34230988D01*
X110138758Y-34209990D01*
X110062010Y-34133242D01*
X110014373Y-34061948D01*
X110001709Y-34042995D01*
X109970484Y-33967611D01*
X109958933Y-33946000D01*
X109943388Y-33927059D01*
X109924446Y-33911513D01*
X109902835Y-33899962D01*
X109879386Y-33892849D01*
X109855000Y-33890447D01*
X109830614Y-33892849D01*
X109807165Y-33899962D01*
X109785554Y-33911513D01*
X109766613Y-33927058D01*
X109751067Y-33946000D01*
X109739516Y-33967611D01*
X109708291Y-34042995D01*
X109695627Y-34061948D01*
X109647990Y-34133242D01*
X109571242Y-34209990D01*
X109535729Y-34233719D01*
X109480995Y-34270291D01*
X109405611Y-34301516D01*
X109384000Y-34313067D01*
X109365059Y-34328612D01*
X109349513Y-34347554D01*
X109337962Y-34369165D01*
X109330849Y-34392614D01*
X109328447Y-34417000D01*
X109111553Y-34417000D01*
X109109151Y-34392614D01*
X109102038Y-34369165D01*
X109090487Y-34347554D01*
X109074942Y-34328613D01*
X109056000Y-34313067D01*
X109034389Y-34301516D01*
X108959005Y-34270291D01*
X108904271Y-34233719D01*
X108868758Y-34209990D01*
X108792010Y-34133242D01*
X108744373Y-34061948D01*
X108731709Y-34042995D01*
X108700484Y-33967611D01*
X108688933Y-33946000D01*
X108673388Y-33927059D01*
X108654446Y-33911513D01*
X108632835Y-33899962D01*
X108609386Y-33892849D01*
X108585000Y-33890447D01*
X108560614Y-33892849D01*
X108537165Y-33899962D01*
X108515554Y-33911513D01*
X108496613Y-33927058D01*
X108481067Y-33946000D01*
X108469516Y-33967611D01*
X108438291Y-34042995D01*
X108425627Y-34061948D01*
X108377990Y-34133242D01*
X108301242Y-34209990D01*
X108265729Y-34233719D01*
X108210995Y-34270291D01*
X108135611Y-34301516D01*
X108114000Y-34313067D01*
X108095059Y-34328612D01*
X108079513Y-34347554D01*
X108067962Y-34369165D01*
X108060849Y-34392614D01*
X108058447Y-34417000D01*
X107841553Y-34417000D01*
X107839151Y-34392614D01*
X107832038Y-34369165D01*
X107820487Y-34347554D01*
X107804942Y-34328613D01*
X107786000Y-34313067D01*
X107764389Y-34301516D01*
X107689005Y-34270291D01*
X107634271Y-34233719D01*
X107598758Y-34209990D01*
X107522010Y-34133242D01*
X107501012Y-34101816D01*
X107459932Y-34040336D01*
X107444386Y-34021394D01*
X107425444Y-34005849D01*
X107403833Y-33994298D01*
X107380385Y-33987185D01*
X107355998Y-33984783D01*
X107331612Y-33987185D01*
X107308163Y-33994298D01*
X107286553Y-34005849D01*
X107267611Y-34021395D01*
X107252066Y-34040337D01*
X107240515Y-34061948D01*
X107233402Y-34085396D01*
X107231000Y-34109782D01*
X107231000Y-34333000D01*
X107007782Y-34333000D01*
X106983396Y-34335402D01*
X106959947Y-34342515D01*
X106938336Y-34354066D01*
X106919394Y-34369611D01*
X106903849Y-34388553D01*
X106892298Y-34410164D01*
X106885185Y-34433613D01*
X106882783Y-34457999D01*
X106477216Y-34457999D01*
X106477217Y-34457998D01*
X106474815Y-34433612D01*
X106467702Y-34410163D01*
X106456151Y-34388553D01*
X106440605Y-34369611D01*
X106421663Y-34354066D01*
X106400052Y-34342515D01*
X106376604Y-34335402D01*
X106352218Y-34333000D01*
X106129000Y-34333000D01*
X106129000Y-34109782D01*
X106126598Y-34085396D01*
X106119485Y-34061947D01*
X106107934Y-34040336D01*
X106092389Y-34021394D01*
X106073447Y-34005849D01*
X106051836Y-33994298D01*
X106028387Y-33987185D01*
X106004001Y-33984783D01*
X105979615Y-33987185D01*
X105956166Y-33994298D01*
X105934555Y-34005849D01*
X105915613Y-34021394D01*
X105900068Y-34040336D01*
X105858988Y-34101816D01*
X105837990Y-34133242D01*
X105761242Y-34209990D01*
X105725729Y-34233719D01*
X105670995Y-34270291D01*
X105595611Y-34301516D01*
X105574000Y-34313067D01*
X105555059Y-34328612D01*
X105539513Y-34347554D01*
X105527962Y-34369165D01*
X105520849Y-34392614D01*
X105518447Y-34417000D01*
X105301553Y-34417000D01*
X105299151Y-34392614D01*
X105292038Y-34369165D01*
X105280487Y-34347554D01*
X105264942Y-34328613D01*
X105246000Y-34313067D01*
X105224389Y-34301516D01*
X105149005Y-34270291D01*
X105094271Y-34233719D01*
X105058758Y-34209990D01*
X104982010Y-34133242D01*
X104934373Y-34061948D01*
X104921709Y-34042995D01*
X104890484Y-33967611D01*
X104878933Y-33946000D01*
X104863388Y-33927059D01*
X104844446Y-33911513D01*
X104822835Y-33899962D01*
X104799386Y-33892849D01*
X104775000Y-33890447D01*
X104750614Y-33892849D01*
X104727165Y-33899962D01*
X104705554Y-33911513D01*
X104686613Y-33927058D01*
X104671067Y-33946000D01*
X104659516Y-33967611D01*
X104628291Y-34042995D01*
X104615627Y-34061948D01*
X104567990Y-34133242D01*
X104491242Y-34209990D01*
X104455729Y-34233719D01*
X104400995Y-34270291D01*
X104325611Y-34301516D01*
X104304000Y-34313067D01*
X104285059Y-34328612D01*
X104269513Y-34347554D01*
X104257962Y-34369165D01*
X104250849Y-34392614D01*
X104248447Y-34417000D01*
X104031553Y-34417000D01*
X104029151Y-34392614D01*
X104022038Y-34369165D01*
X104010487Y-34347554D01*
X103994942Y-34328613D01*
X103976000Y-34313067D01*
X103954389Y-34301516D01*
X103879005Y-34270291D01*
X103824271Y-34233719D01*
X103788758Y-34209990D01*
X103712010Y-34133242D01*
X103691012Y-34101816D01*
X103649932Y-34040336D01*
X103634386Y-34021394D01*
X103615444Y-34005849D01*
X103593833Y-33994298D01*
X103570385Y-33987185D01*
X103545998Y-33984783D01*
X103521612Y-33987185D01*
X103498163Y-33994298D01*
X103476553Y-34005849D01*
X103457611Y-34021395D01*
X103442066Y-34040337D01*
X103430515Y-34061948D01*
X103423402Y-34085396D01*
X103421000Y-34109782D01*
X103421000Y-34333000D01*
X103197782Y-34333000D01*
X103173396Y-34335402D01*
X103149947Y-34342515D01*
X103128336Y-34354066D01*
X103109394Y-34369611D01*
X103093849Y-34388553D01*
X103082298Y-34410164D01*
X103075185Y-34433613D01*
X103072783Y-34457999D01*
X102667216Y-34457999D01*
X102667217Y-34457998D01*
X102664815Y-34433612D01*
X102657702Y-34410163D01*
X102646151Y-34388553D01*
X102630605Y-34369611D01*
X102611663Y-34354066D01*
X102590052Y-34342515D01*
X102566604Y-34335402D01*
X102542218Y-34333000D01*
X102319000Y-34333000D01*
X102319000Y-34109782D01*
X102316598Y-34085396D01*
X102309485Y-34061947D01*
X102297934Y-34040336D01*
X102282389Y-34021394D01*
X102263447Y-34005849D01*
X102241836Y-33994298D01*
X102218387Y-33987185D01*
X102194001Y-33984783D01*
X102169615Y-33987185D01*
X102146166Y-33994298D01*
X102124555Y-34005849D01*
X102105613Y-34021394D01*
X102090068Y-34040336D01*
X102048988Y-34101816D01*
X102027990Y-34133242D01*
X101951242Y-34209990D01*
X101915729Y-34233719D01*
X101860995Y-34270291D01*
X101785611Y-34301516D01*
X101764000Y-34313067D01*
X101745059Y-34328612D01*
X101729513Y-34347554D01*
X101717962Y-34369165D01*
X101710849Y-34392614D01*
X101708447Y-34417000D01*
X101491553Y-34417000D01*
X101489151Y-34392614D01*
X101482038Y-34369165D01*
X101470487Y-34347554D01*
X101454942Y-34328613D01*
X101436000Y-34313067D01*
X101414389Y-34301516D01*
X101339005Y-34270291D01*
X101284271Y-34233719D01*
X101248758Y-34209990D01*
X101172010Y-34133242D01*
X101124373Y-34061948D01*
X101111709Y-34042995D01*
X101080484Y-33967611D01*
X101068933Y-33946000D01*
X101053388Y-33927059D01*
X101034446Y-33911513D01*
X101012835Y-33899962D01*
X100989386Y-33892849D01*
X100965000Y-33890447D01*
X100940614Y-33892849D01*
X100917165Y-33899962D01*
X100895554Y-33911513D01*
X100876613Y-33927058D01*
X100861067Y-33946000D01*
X100849516Y-33967611D01*
X100818291Y-34042995D01*
X100805627Y-34061948D01*
X100757990Y-34133242D01*
X100681242Y-34209990D01*
X100649816Y-34230988D01*
X100588336Y-34272068D01*
X100569394Y-34287614D01*
X100553849Y-34306556D01*
X100542298Y-34328167D01*
X100535185Y-34351615D01*
X100532783Y-34376002D01*
X100127216Y-34376002D01*
X100127217Y-34376001D01*
X100124815Y-34351615D01*
X100117702Y-34328166D01*
X100106151Y-34306555D01*
X100090606Y-34287613D01*
X100071664Y-34272068D01*
X100010184Y-34230988D01*
X99978758Y-34209990D01*
X99902010Y-34133242D01*
X99854373Y-34061948D01*
X99841709Y-34042995D01*
X99810484Y-33967611D01*
X99798933Y-33946000D01*
X99783388Y-33927059D01*
X99764446Y-33911513D01*
X99742835Y-33899962D01*
X99719386Y-33892849D01*
X99695000Y-33890447D01*
X99670614Y-33892849D01*
X99647165Y-33899962D01*
X99625554Y-33911513D01*
X99606613Y-33927058D01*
X99591067Y-33946000D01*
X99579516Y-33967611D01*
X99548291Y-34042995D01*
X99535627Y-34061948D01*
X99487990Y-34133242D01*
X99411242Y-34209990D01*
X99375729Y-34233719D01*
X99320995Y-34270291D01*
X99245611Y-34301516D01*
X99224000Y-34313067D01*
X99205059Y-34328612D01*
X99189513Y-34347554D01*
X99177962Y-34369165D01*
X99170849Y-34392614D01*
X99168447Y-34417000D01*
X98951553Y-34417000D01*
X98949151Y-34392614D01*
X98942038Y-34369165D01*
X98930487Y-34347554D01*
X98914942Y-34328613D01*
X98896000Y-34313067D01*
X98874389Y-34301516D01*
X98799005Y-34270291D01*
X98744271Y-34233719D01*
X98708758Y-34209990D01*
X98632010Y-34133242D01*
X98611012Y-34101816D01*
X98569932Y-34040336D01*
X98554386Y-34021394D01*
X98535444Y-34005849D01*
X98513833Y-33994298D01*
X98490385Y-33987185D01*
X98465998Y-33984783D01*
X98441612Y-33987185D01*
X98418163Y-33994298D01*
X98396553Y-34005849D01*
X98377611Y-34021395D01*
X98362066Y-34040337D01*
X98350515Y-34061948D01*
X98343402Y-34085396D01*
X98341000Y-34109782D01*
X98341000Y-34333000D01*
X98117782Y-34333000D01*
X98093396Y-34335402D01*
X98069947Y-34342515D01*
X98048336Y-34354066D01*
X98029394Y-34369611D01*
X98013849Y-34388553D01*
X98002298Y-34410164D01*
X97995185Y-34433613D01*
X97992783Y-34457999D01*
X97587216Y-34457999D01*
X97587217Y-34457998D01*
X97584815Y-34433612D01*
X97577702Y-34410163D01*
X97566151Y-34388553D01*
X97550605Y-34369611D01*
X97531663Y-34354066D01*
X97510052Y-34342515D01*
X97486604Y-34335402D01*
X97462218Y-34333000D01*
X97239000Y-34333000D01*
X97239000Y-34109782D01*
X97236598Y-34085396D01*
X97229485Y-34061947D01*
X97217934Y-34040336D01*
X97202389Y-34021394D01*
X97183447Y-34005849D01*
X97161836Y-33994298D01*
X97138387Y-33987185D01*
X97114001Y-33984783D01*
X97089615Y-33987185D01*
X97066166Y-33994298D01*
X97044555Y-34005849D01*
X97025613Y-34021394D01*
X97010068Y-34040336D01*
X96968988Y-34101816D01*
X96947990Y-34133242D01*
X96871242Y-34209990D01*
X96835729Y-34233719D01*
X96780995Y-34270291D01*
X96705611Y-34301516D01*
X96684000Y-34313067D01*
X96665059Y-34328612D01*
X96649513Y-34347554D01*
X96637962Y-34369165D01*
X96630849Y-34392614D01*
X96628447Y-34417000D01*
X96411553Y-34417000D01*
X96409151Y-34392614D01*
X96402038Y-34369165D01*
X96390487Y-34347554D01*
X96374942Y-34328613D01*
X96356000Y-34313067D01*
X96334389Y-34301516D01*
X96259005Y-34270291D01*
X96204271Y-34233719D01*
X96168758Y-34209990D01*
X96092010Y-34133242D01*
X96044373Y-34061948D01*
X96031709Y-34042995D01*
X96000484Y-33967611D01*
X95988933Y-33946000D01*
X95973388Y-33927059D01*
X95954446Y-33911513D01*
X95932835Y-33899962D01*
X95909386Y-33892849D01*
X95885000Y-33890447D01*
X95860614Y-33892849D01*
X95837165Y-33899962D01*
X95815554Y-33911513D01*
X95796613Y-33927058D01*
X95781067Y-33946000D01*
X95769516Y-33967611D01*
X95738291Y-34042995D01*
X95725627Y-34061948D01*
X95677990Y-34133242D01*
X95601242Y-34209990D01*
X95565729Y-34233719D01*
X95510995Y-34270291D01*
X95435611Y-34301516D01*
X95414000Y-34313067D01*
X95395059Y-34328612D01*
X95379513Y-34347554D01*
X95367962Y-34369165D01*
X95360849Y-34392614D01*
X95358447Y-34417000D01*
X95141553Y-34417000D01*
X95139151Y-34392614D01*
X95132038Y-34369165D01*
X95120487Y-34347554D01*
X95104942Y-34328613D01*
X95086000Y-34313067D01*
X95064389Y-34301516D01*
X94989005Y-34270291D01*
X94934271Y-34233719D01*
X94898758Y-34209990D01*
X94822010Y-34133242D01*
X94774373Y-34061948D01*
X94761709Y-34042995D01*
X94720174Y-33942721D01*
X94699000Y-33836270D01*
X94699000Y-33727730D01*
X94720174Y-33621279D01*
X94761709Y-33521005D01*
X94822009Y-33430760D01*
X94822010Y-33430758D01*
X94898758Y-33354010D01*
X94989004Y-33293710D01*
X94989005Y-33293709D01*
X95089279Y-33252174D01*
X95195730Y-33231000D01*
X95304270Y-33231000D01*
X95410721Y-33252174D01*
G37*
G36*
X138224549Y-32371116D02*
G01*
X138335734Y-32393232D01*
X138545203Y-32479997D01*
X138733720Y-32605960D01*
X138894040Y-32766280D01*
X139020003Y-32954797D01*
X139020004Y-32954799D01*
X139106768Y-33164267D01*
X139151000Y-33386635D01*
X139151000Y-33613365D01*
X139139028Y-33673553D01*
X139106768Y-33835734D01*
X139020003Y-34045203D01*
X138894040Y-34233720D01*
X138733720Y-34394040D01*
X138545203Y-34520003D01*
X138545202Y-34520004D01*
X138545201Y-34520004D01*
X138515071Y-34532484D01*
X138335734Y-34606768D01*
X138249057Y-34624009D01*
X138113365Y-34651000D01*
X137886635Y-34651000D01*
X137750943Y-34624009D01*
X137664266Y-34606768D01*
X137484929Y-34532484D01*
X137454799Y-34520004D01*
X137454798Y-34520004D01*
X137454797Y-34520003D01*
X137266280Y-34394040D01*
X137105960Y-34233720D01*
X136979997Y-34045203D01*
X136893232Y-33835734D01*
X136860972Y-33673553D01*
X136849000Y-33613365D01*
X136849000Y-33386635D01*
X136893232Y-33164267D01*
X136979996Y-32954799D01*
X136979997Y-32954797D01*
X137105960Y-32766280D01*
X137266280Y-32605960D01*
X137454797Y-32479997D01*
X137664266Y-32393232D01*
X137775451Y-32371116D01*
X137886635Y-32349000D01*
X138113365Y-32349000D01*
X138224549Y-32371116D01*
G37*
M02*
