M48
; DRILL file {KiCad (5.1.5-0-10_14)} date Sunday, January 26, 2020 at 10:49:49 AM
; FORMAT={-:-/ absolute / inch / decimal}
; #@! TF.CreationDate,2020-01-26T10:49:49-08:00
; #@! TF.GenerationSoftware,Kicad,Pcbnew,(5.1.5-0-10_14)
; #@! TF.FileFunction,Plated,1,2,PTH
FMAT,2
INCH
T1C0.0157
T2C0.0335
T3C0.0374
T4C0.0394
T5C0.0472
%
G90
G05
T1
X3.9862Y-3.2185
X4.0256Y-3.2185
X4.065Y-3.2185
X4.4193Y-4.9409
X4.4488Y-3.5728
X4.4783Y-3.5925
X4.5079Y-3.6122
X4.6063Y-4.8819
X4.7146Y-3.8681
X4.7146Y-3.9075
X4.7146Y-4.1535
X4.7146Y-4.1929
X4.7146Y-4.4193
X4.7146Y-4.4587
X4.7441Y-3.8878
X4.7441Y-4.1732
X4.7441Y-4.439
X5.128Y-4.4193
X5.1476Y-3.8287
X5.2461Y-4.5472
X5.4429Y-3.878
X5.4429Y-3.9173
X5.4429Y-3.9567
X5.4724Y-4.4193
X5.5807Y-4.4193
X5.6496Y-4.9537
X5.6861Y-4.9686
X5.7087Y-4.5472
X5.7185Y-3.878
X5.7185Y-3.9173
X5.7185Y-3.9567
X5.7218Y-4.985
X5.7561Y-5.0045
X5.9449Y-4.4193
X5.9941Y-3.878
X5.9941Y-3.9173
X5.9941Y-3.9567
X6.0531Y-4.4193
X6.1713Y-4.5472
X6.2697Y-3.878
X6.2697Y-3.9173
X6.2697Y-3.9567
X6.378Y-5.0098
X6.4065Y-4.9827
X6.4075Y-4.4193
X6.4334Y-4.954
X6.4615Y-4.9264
X6.5157Y-4.7146
X6.5157Y-4.9311
T2
X5.6465Y-3.184
X5.7465Y-3.184
X5.8465Y-3.184
X5.9465Y-3.184
X6.0465Y-3.184
X6.1465Y-3.184
X6.2465Y-3.184
X6.3465Y-3.184
X5.8465Y-5.084
X5.9465Y-5.084
X6.0465Y-5.084
X6.1465Y-5.084
X6.2465Y-5.084
X6.3465Y-5.084
X6.4465Y-5.084
X6.5465Y-5.084
X4.5865Y-3.184
X4.6865Y-3.184
X4.7865Y-3.184
X4.8865Y-3.184
X4.9865Y-3.184
X5.0865Y-3.184
X5.1865Y-3.184
X5.2865Y-3.184
X5.3865Y-3.184
X5.4865Y-3.184
X6.7465Y-5.084
X6.8465Y-5.084
X6.9465Y-5.084
X7.0465Y-5.084
X7.1465Y-5.084
X7.2465Y-5.084
X7.3465Y-5.084
X7.4465Y-5.084
X6.5465Y-3.184
X6.6465Y-3.184
X6.7465Y-3.184
X6.8465Y-3.184
X6.9465Y-3.184
X7.0465Y-3.184
X7.1465Y-3.184
X7.2465Y-3.184
X4.9465Y-5.084
X5.0465Y-5.084
X5.1465Y-5.084
X5.2465Y-5.084
X5.3465Y-5.084
X5.4465Y-5.084
X5.5465Y-5.084
X5.6465Y-5.084
T3
X7.5465Y-3.184
X7.5465Y-3.284
X7.5465Y-3.384
X7.5465Y-3.484
X7.5465Y-3.584
X7.5465Y-3.684
X7.5465Y-3.784
X7.5465Y-3.884
X7.5465Y-3.984
X7.5465Y-4.084
X7.5465Y-4.184
X7.5465Y-4.284
X7.5465Y-4.384
X7.5465Y-4.484
X7.5465Y-4.584
X7.5465Y-4.684
X7.5465Y-4.784
X7.5465Y-4.884
X7.6465Y-3.184
X7.6465Y-3.284
X7.6465Y-3.384
X7.6465Y-3.484
X7.6465Y-3.584
X7.6465Y-3.684
X7.6465Y-3.784
X7.6465Y-3.884
X7.6465Y-3.984
X7.6465Y-4.084
X7.6465Y-4.184
X7.6465Y-4.284
X7.6465Y-4.384
X7.6465Y-4.484
X7.6465Y-4.584
X7.6465Y-4.684
X7.6465Y-4.784
X7.6465Y-4.884
T4
X6.7421Y-3.598
X6.7421Y-3.698
X6.7421Y-3.798
X6.7421Y-3.898
X6.7421Y-3.998
X6.7421Y-4.098
X6.7421Y-4.198
X6.7421Y-4.298
X6.7421Y-4.398
X6.7421Y-4.498
T5
X5.9862Y-4.8307
X6.124Y-4.8307
X6.2618Y-4.8307
X6.3996Y-4.8307
X7.2362Y-3.3543
X7.2362Y-3.4921
X7.2362Y-3.6299
X7.2362Y-3.7677
X7.2362Y-3.9055
X7.2362Y-4.0433
X7.2362Y-4.1811
X7.2362Y-4.3189
X5.2756Y-3.4567
X5.4134Y-3.4567
X5.5512Y-3.4567
X5.689Y-3.4567
X5.8268Y-3.4567
X5.9646Y-3.4567
X6.1024Y-3.4567
X6.2402Y-3.4567
X4.7205Y-3.4567
X4.8583Y-3.4567
X4.9961Y-3.4567
X5.1339Y-3.4567
X5.1535Y-4.8307
X5.2913Y-4.8307
X5.4291Y-4.8307
X5.5669Y-4.8307
X5.7047Y-4.8307
X5.8425Y-4.8307
X4.052Y-4.7677
X4.052Y-4.9055
X4.052Y-5.0433
X4.052Y-3.6614
X4.052Y-3.7992
X4.052Y-3.937
X4.052Y-4.0748
X4.052Y-4.2126
X4.052Y-4.3504
X4.052Y-4.4882
X4.052Y-4.626
T0
M30
