G04 #@! TF.GenerationSoftware,KiCad,Pcbnew,(5.1.5-0-10_14)*
G04 #@! TF.CreationDate,2020-01-26T10:48:52-08:00*
G04 #@! TF.ProjectId,Printer Peripheral Interface,5072696e-7465-4722-9050-657269706865,rev?*
G04 #@! TF.SameCoordinates,Original*
G04 #@! TF.FileFunction,Soldermask,Bot*
G04 #@! TF.FilePolarity,Negative*
%FSLAX46Y46*%
G04 Gerber Fmt 4.6, Leading zero omitted, Abs format (unit mm)*
G04 Created by KiCad (PCBNEW (5.1.5-0-10_14)) date 2020-01-26 10:48:52*
%MOMM*%
%LPD*%
G04 APERTURE LIST*
%ADD10C,0.100000*%
G04 APERTURE END LIST*
D10*
G36*
X125790477Y-128204826D02*
G01*
X125896741Y-128237061D01*
X125934118Y-128248399D01*
X126066490Y-128319154D01*
X126066492Y-128319155D01*
X126066491Y-128319155D01*
X126182522Y-128414378D01*
X126260670Y-128509602D01*
X126277746Y-128530409D01*
X126348501Y-128662781D01*
X126359839Y-128700158D01*
X126392074Y-128806422D01*
X126403100Y-128918374D01*
X126403100Y-129348825D01*
X126392074Y-129460777D01*
X126366494Y-129545102D01*
X126348501Y-129604419D01*
X126277746Y-129736791D01*
X126182522Y-129852822D01*
X126066491Y-129948046D01*
X125934119Y-130018801D01*
X125896742Y-130030139D01*
X125790478Y-130062374D01*
X125641100Y-130077086D01*
X125491723Y-130062374D01*
X125385459Y-130030139D01*
X125348082Y-130018801D01*
X125215710Y-129948046D01*
X125194902Y-129930969D01*
X125099678Y-129852822D01*
X125004455Y-129736792D01*
X125004454Y-129736791D01*
X124933699Y-129604419D01*
X124922361Y-129567042D01*
X124890126Y-129460778D01*
X124879100Y-129348826D01*
X124879100Y-128918375D01*
X124890126Y-128806423D01*
X124933698Y-128662786D01*
X124933699Y-128662782D01*
X125004454Y-128530410D01*
X125018934Y-128512766D01*
X125099678Y-128414378D01*
X125215708Y-128319155D01*
X125215707Y-128319155D01*
X125215709Y-128319154D01*
X125348081Y-128248399D01*
X125385458Y-128237061D01*
X125491722Y-128204826D01*
X125641100Y-128190114D01*
X125790477Y-128204826D01*
G37*
G36*
X128330477Y-128204826D02*
G01*
X128436741Y-128237061D01*
X128474118Y-128248399D01*
X128606490Y-128319154D01*
X128606492Y-128319155D01*
X128606491Y-128319155D01*
X128722522Y-128414378D01*
X128800670Y-128509602D01*
X128817746Y-128530409D01*
X128888501Y-128662781D01*
X128899839Y-128700158D01*
X128932074Y-128806422D01*
X128943100Y-128918374D01*
X128943100Y-129348825D01*
X128932074Y-129460777D01*
X128906494Y-129545102D01*
X128888501Y-129604419D01*
X128817746Y-129736791D01*
X128722522Y-129852822D01*
X128606491Y-129948046D01*
X128474119Y-130018801D01*
X128436742Y-130030139D01*
X128330478Y-130062374D01*
X128181100Y-130077086D01*
X128031723Y-130062374D01*
X127925459Y-130030139D01*
X127888082Y-130018801D01*
X127755710Y-129948046D01*
X127734902Y-129930969D01*
X127639678Y-129852822D01*
X127544455Y-129736792D01*
X127544454Y-129736791D01*
X127473699Y-129604419D01*
X127462361Y-129567042D01*
X127430126Y-129460778D01*
X127419100Y-129348826D01*
X127419100Y-128918375D01*
X127430126Y-128806423D01*
X127473698Y-128662786D01*
X127473699Y-128662782D01*
X127544454Y-128530410D01*
X127558934Y-128512766D01*
X127639678Y-128414378D01*
X127755708Y-128319155D01*
X127755707Y-128319155D01*
X127755709Y-128319154D01*
X127888081Y-128248399D01*
X127925458Y-128237061D01*
X128031722Y-128204826D01*
X128181100Y-128190114D01*
X128330477Y-128204826D01*
G37*
G36*
X130870477Y-128204826D02*
G01*
X130976741Y-128237061D01*
X131014118Y-128248399D01*
X131146490Y-128319154D01*
X131146492Y-128319155D01*
X131146491Y-128319155D01*
X131262522Y-128414378D01*
X131340670Y-128509602D01*
X131357746Y-128530409D01*
X131428501Y-128662781D01*
X131439839Y-128700158D01*
X131472074Y-128806422D01*
X131483100Y-128918374D01*
X131483100Y-129348825D01*
X131472074Y-129460777D01*
X131446494Y-129545102D01*
X131428501Y-129604419D01*
X131357746Y-129736791D01*
X131262522Y-129852822D01*
X131146491Y-129948046D01*
X131014119Y-130018801D01*
X130976742Y-130030139D01*
X130870478Y-130062374D01*
X130721100Y-130077086D01*
X130571723Y-130062374D01*
X130465459Y-130030139D01*
X130428082Y-130018801D01*
X130295710Y-129948046D01*
X130274902Y-129930969D01*
X130179678Y-129852822D01*
X130084455Y-129736792D01*
X130084454Y-129736791D01*
X130013699Y-129604419D01*
X130002361Y-129567042D01*
X129970126Y-129460778D01*
X129959100Y-129348826D01*
X129959100Y-128918375D01*
X129970126Y-128806423D01*
X130013698Y-128662786D01*
X130013699Y-128662782D01*
X130084454Y-128530410D01*
X130098934Y-128512766D01*
X130179678Y-128414378D01*
X130295708Y-128319155D01*
X130295707Y-128319155D01*
X130295709Y-128319154D01*
X130428081Y-128248399D01*
X130465458Y-128237061D01*
X130571722Y-128204826D01*
X130721100Y-128190114D01*
X130870477Y-128204826D01*
G37*
G36*
X133410477Y-128204826D02*
G01*
X133516741Y-128237061D01*
X133554118Y-128248399D01*
X133686490Y-128319154D01*
X133686492Y-128319155D01*
X133686491Y-128319155D01*
X133802522Y-128414378D01*
X133880670Y-128509602D01*
X133897746Y-128530409D01*
X133968501Y-128662781D01*
X133979839Y-128700158D01*
X134012074Y-128806422D01*
X134023100Y-128918374D01*
X134023100Y-129348825D01*
X134012074Y-129460777D01*
X133986494Y-129545102D01*
X133968501Y-129604419D01*
X133897746Y-129736791D01*
X133802522Y-129852822D01*
X133686491Y-129948046D01*
X133554119Y-130018801D01*
X133516742Y-130030139D01*
X133410478Y-130062374D01*
X133261100Y-130077086D01*
X133111723Y-130062374D01*
X133005459Y-130030139D01*
X132968082Y-130018801D01*
X132835710Y-129948046D01*
X132814902Y-129930969D01*
X132719678Y-129852822D01*
X132624455Y-129736792D01*
X132624454Y-129736791D01*
X132553699Y-129604419D01*
X132542361Y-129567042D01*
X132510126Y-129460778D01*
X132499100Y-129348826D01*
X132499100Y-128918375D01*
X132510126Y-128806423D01*
X132553698Y-128662786D01*
X132553699Y-128662782D01*
X132624454Y-128530410D01*
X132638934Y-128512766D01*
X132719678Y-128414378D01*
X132835708Y-128319155D01*
X132835707Y-128319155D01*
X132835709Y-128319154D01*
X132968081Y-128248399D01*
X133005458Y-128237061D01*
X133111722Y-128204826D01*
X133261100Y-128190114D01*
X133410477Y-128204826D01*
G37*
G36*
X135950477Y-128204826D02*
G01*
X136056741Y-128237061D01*
X136094118Y-128248399D01*
X136226490Y-128319154D01*
X136226492Y-128319155D01*
X136226491Y-128319155D01*
X136342522Y-128414378D01*
X136420670Y-128509602D01*
X136437746Y-128530409D01*
X136508501Y-128662781D01*
X136519839Y-128700158D01*
X136552074Y-128806422D01*
X136563100Y-128918374D01*
X136563100Y-129348825D01*
X136552074Y-129460777D01*
X136526494Y-129545102D01*
X136508501Y-129604419D01*
X136437746Y-129736791D01*
X136342522Y-129852822D01*
X136226491Y-129948046D01*
X136094119Y-130018801D01*
X136056742Y-130030139D01*
X135950478Y-130062374D01*
X135801100Y-130077086D01*
X135651723Y-130062374D01*
X135545459Y-130030139D01*
X135508082Y-130018801D01*
X135375710Y-129948046D01*
X135354902Y-129930969D01*
X135259678Y-129852822D01*
X135164455Y-129736792D01*
X135164454Y-129736791D01*
X135093699Y-129604419D01*
X135082361Y-129567042D01*
X135050126Y-129460778D01*
X135039100Y-129348826D01*
X135039100Y-128918375D01*
X135050126Y-128806423D01*
X135093698Y-128662786D01*
X135093699Y-128662782D01*
X135164454Y-128530410D01*
X135178934Y-128512766D01*
X135259678Y-128414378D01*
X135375708Y-128319155D01*
X135375707Y-128319155D01*
X135375709Y-128319154D01*
X135508081Y-128248399D01*
X135545458Y-128237061D01*
X135651722Y-128204826D01*
X135801100Y-128190114D01*
X135950477Y-128204826D01*
G37*
G36*
X138490477Y-128204826D02*
G01*
X138596741Y-128237061D01*
X138634118Y-128248399D01*
X138766490Y-128319154D01*
X138766492Y-128319155D01*
X138766491Y-128319155D01*
X138882522Y-128414378D01*
X138960670Y-128509602D01*
X138977746Y-128530409D01*
X139048501Y-128662781D01*
X139059839Y-128700158D01*
X139092074Y-128806422D01*
X139103100Y-128918374D01*
X139103100Y-129348825D01*
X139092074Y-129460777D01*
X139066494Y-129545102D01*
X139048501Y-129604419D01*
X138977746Y-129736791D01*
X138882522Y-129852822D01*
X138766491Y-129948046D01*
X138634119Y-130018801D01*
X138596742Y-130030139D01*
X138490478Y-130062374D01*
X138341100Y-130077086D01*
X138191723Y-130062374D01*
X138085459Y-130030139D01*
X138048082Y-130018801D01*
X137915710Y-129948046D01*
X137894902Y-129930969D01*
X137799678Y-129852822D01*
X137704455Y-129736792D01*
X137704454Y-129736791D01*
X137633699Y-129604419D01*
X137622361Y-129567042D01*
X137590126Y-129460778D01*
X137579100Y-129348826D01*
X137579100Y-128918375D01*
X137590126Y-128806423D01*
X137633698Y-128662786D01*
X137633699Y-128662782D01*
X137704454Y-128530410D01*
X137718934Y-128512766D01*
X137799678Y-128414378D01*
X137915708Y-128319155D01*
X137915707Y-128319155D01*
X137915709Y-128319154D01*
X138048081Y-128248399D01*
X138085458Y-128237061D01*
X138191722Y-128204826D01*
X138341100Y-128190114D01*
X138490477Y-128204826D01*
G37*
G36*
X141030477Y-128204826D02*
G01*
X141136741Y-128237061D01*
X141174118Y-128248399D01*
X141306490Y-128319154D01*
X141306492Y-128319155D01*
X141306491Y-128319155D01*
X141422522Y-128414378D01*
X141500670Y-128509602D01*
X141517746Y-128530409D01*
X141588501Y-128662781D01*
X141599839Y-128700158D01*
X141632074Y-128806422D01*
X141643100Y-128918374D01*
X141643100Y-129348825D01*
X141632074Y-129460777D01*
X141606494Y-129545102D01*
X141588501Y-129604419D01*
X141517746Y-129736791D01*
X141422522Y-129852822D01*
X141306491Y-129948046D01*
X141174119Y-130018801D01*
X141136742Y-130030139D01*
X141030478Y-130062374D01*
X140881100Y-130077086D01*
X140731723Y-130062374D01*
X140625459Y-130030139D01*
X140588082Y-130018801D01*
X140455710Y-129948046D01*
X140434902Y-129930969D01*
X140339678Y-129852822D01*
X140244455Y-129736792D01*
X140244454Y-129736791D01*
X140173699Y-129604419D01*
X140162361Y-129567042D01*
X140130126Y-129460778D01*
X140119100Y-129348826D01*
X140119100Y-128918375D01*
X140130126Y-128806423D01*
X140173698Y-128662786D01*
X140173699Y-128662782D01*
X140244454Y-128530410D01*
X140258934Y-128512766D01*
X140339678Y-128414378D01*
X140455708Y-128319155D01*
X140455707Y-128319155D01*
X140455709Y-128319154D01*
X140588081Y-128248399D01*
X140625458Y-128237061D01*
X140731722Y-128204826D01*
X140881100Y-128190114D01*
X141030477Y-128204826D01*
G37*
G36*
X143570477Y-128204826D02*
G01*
X143676741Y-128237061D01*
X143714118Y-128248399D01*
X143846490Y-128319154D01*
X143846492Y-128319155D01*
X143846491Y-128319155D01*
X143962522Y-128414378D01*
X144040670Y-128509602D01*
X144057746Y-128530409D01*
X144128501Y-128662781D01*
X144139839Y-128700158D01*
X144172074Y-128806422D01*
X144183100Y-128918374D01*
X144183100Y-129348825D01*
X144172074Y-129460777D01*
X144146494Y-129545102D01*
X144128501Y-129604419D01*
X144057746Y-129736791D01*
X143962522Y-129852822D01*
X143846491Y-129948046D01*
X143714119Y-130018801D01*
X143676742Y-130030139D01*
X143570478Y-130062374D01*
X143421100Y-130077086D01*
X143271723Y-130062374D01*
X143165459Y-130030139D01*
X143128082Y-130018801D01*
X142995710Y-129948046D01*
X142974902Y-129930969D01*
X142879678Y-129852822D01*
X142784455Y-129736792D01*
X142784454Y-129736791D01*
X142713699Y-129604419D01*
X142702361Y-129567042D01*
X142670126Y-129460778D01*
X142659100Y-129348826D01*
X142659100Y-128918375D01*
X142670126Y-128806423D01*
X142713698Y-128662786D01*
X142713699Y-128662782D01*
X142784454Y-128530410D01*
X142798934Y-128512766D01*
X142879678Y-128414378D01*
X142995708Y-128319155D01*
X142995707Y-128319155D01*
X142995709Y-128319154D01*
X143128081Y-128248399D01*
X143165458Y-128237061D01*
X143271722Y-128204826D01*
X143421100Y-128190114D01*
X143570477Y-128204826D01*
G37*
G36*
X148650477Y-128204826D02*
G01*
X148756741Y-128237061D01*
X148794118Y-128248399D01*
X148926490Y-128319154D01*
X148926492Y-128319155D01*
X148926491Y-128319155D01*
X149042522Y-128414378D01*
X149120670Y-128509602D01*
X149137746Y-128530409D01*
X149208501Y-128662781D01*
X149219839Y-128700158D01*
X149252074Y-128806422D01*
X149263100Y-128918374D01*
X149263100Y-129348825D01*
X149252074Y-129460777D01*
X149226494Y-129545102D01*
X149208501Y-129604419D01*
X149137746Y-129736791D01*
X149042522Y-129852822D01*
X148926491Y-129948046D01*
X148794119Y-130018801D01*
X148756742Y-130030139D01*
X148650478Y-130062374D01*
X148501100Y-130077086D01*
X148351723Y-130062374D01*
X148245459Y-130030139D01*
X148208082Y-130018801D01*
X148075710Y-129948046D01*
X148054902Y-129930969D01*
X147959678Y-129852822D01*
X147864455Y-129736792D01*
X147864454Y-129736791D01*
X147793699Y-129604419D01*
X147782361Y-129567042D01*
X147750126Y-129460778D01*
X147739100Y-129348826D01*
X147739100Y-128918375D01*
X147750126Y-128806423D01*
X147793698Y-128662786D01*
X147793699Y-128662782D01*
X147864454Y-128530410D01*
X147878934Y-128512766D01*
X147959678Y-128414378D01*
X148075708Y-128319155D01*
X148075707Y-128319155D01*
X148075709Y-128319154D01*
X148208081Y-128248399D01*
X148245458Y-128237061D01*
X148351722Y-128204826D01*
X148501100Y-128190114D01*
X148650477Y-128204826D01*
G37*
G36*
X151190477Y-128204826D02*
G01*
X151296741Y-128237061D01*
X151334118Y-128248399D01*
X151466490Y-128319154D01*
X151466492Y-128319155D01*
X151466491Y-128319155D01*
X151582522Y-128414378D01*
X151660670Y-128509602D01*
X151677746Y-128530409D01*
X151748501Y-128662781D01*
X151759839Y-128700158D01*
X151792074Y-128806422D01*
X151803100Y-128918374D01*
X151803100Y-129348825D01*
X151792074Y-129460777D01*
X151766494Y-129545102D01*
X151748501Y-129604419D01*
X151677746Y-129736791D01*
X151582522Y-129852822D01*
X151466491Y-129948046D01*
X151334119Y-130018801D01*
X151296742Y-130030139D01*
X151190478Y-130062374D01*
X151041100Y-130077086D01*
X150891723Y-130062374D01*
X150785459Y-130030139D01*
X150748082Y-130018801D01*
X150615710Y-129948046D01*
X150594902Y-129930969D01*
X150499678Y-129852822D01*
X150404455Y-129736792D01*
X150404454Y-129736791D01*
X150333699Y-129604419D01*
X150322361Y-129567042D01*
X150290126Y-129460778D01*
X150279100Y-129348826D01*
X150279100Y-128918375D01*
X150290126Y-128806423D01*
X150333698Y-128662786D01*
X150333699Y-128662782D01*
X150404454Y-128530410D01*
X150418934Y-128512766D01*
X150499678Y-128414378D01*
X150615708Y-128319155D01*
X150615707Y-128319155D01*
X150615709Y-128319154D01*
X150748081Y-128248399D01*
X150785458Y-128237061D01*
X150891722Y-128204826D01*
X151041100Y-128190114D01*
X151190477Y-128204826D01*
G37*
G36*
X153730477Y-128204826D02*
G01*
X153836741Y-128237061D01*
X153874118Y-128248399D01*
X154006490Y-128319154D01*
X154006492Y-128319155D01*
X154006491Y-128319155D01*
X154122522Y-128414378D01*
X154200670Y-128509602D01*
X154217746Y-128530409D01*
X154288501Y-128662781D01*
X154299839Y-128700158D01*
X154332074Y-128806422D01*
X154343100Y-128918374D01*
X154343100Y-129348825D01*
X154332074Y-129460777D01*
X154306494Y-129545102D01*
X154288501Y-129604419D01*
X154217746Y-129736791D01*
X154122522Y-129852822D01*
X154006491Y-129948046D01*
X153874119Y-130018801D01*
X153836742Y-130030139D01*
X153730478Y-130062374D01*
X153581100Y-130077086D01*
X153431723Y-130062374D01*
X153325459Y-130030139D01*
X153288082Y-130018801D01*
X153155710Y-129948046D01*
X153134902Y-129930969D01*
X153039678Y-129852822D01*
X152944455Y-129736792D01*
X152944454Y-129736791D01*
X152873699Y-129604419D01*
X152862361Y-129567042D01*
X152830126Y-129460778D01*
X152819100Y-129348826D01*
X152819100Y-128918375D01*
X152830126Y-128806423D01*
X152873698Y-128662786D01*
X152873699Y-128662782D01*
X152944454Y-128530410D01*
X152958934Y-128512766D01*
X153039678Y-128414378D01*
X153155708Y-128319155D01*
X153155707Y-128319155D01*
X153155709Y-128319154D01*
X153288081Y-128248399D01*
X153325458Y-128237061D01*
X153431722Y-128204826D01*
X153581100Y-128190114D01*
X153730477Y-128204826D01*
G37*
G36*
X156270477Y-128204826D02*
G01*
X156376741Y-128237061D01*
X156414118Y-128248399D01*
X156546490Y-128319154D01*
X156546492Y-128319155D01*
X156546491Y-128319155D01*
X156662522Y-128414378D01*
X156740670Y-128509602D01*
X156757746Y-128530409D01*
X156828501Y-128662781D01*
X156839839Y-128700158D01*
X156872074Y-128806422D01*
X156883100Y-128918374D01*
X156883100Y-129348825D01*
X156872074Y-129460777D01*
X156846494Y-129545102D01*
X156828501Y-129604419D01*
X156757746Y-129736791D01*
X156662522Y-129852822D01*
X156546491Y-129948046D01*
X156414119Y-130018801D01*
X156376742Y-130030139D01*
X156270478Y-130062374D01*
X156121100Y-130077086D01*
X155971723Y-130062374D01*
X155865459Y-130030139D01*
X155828082Y-130018801D01*
X155695710Y-129948046D01*
X155674902Y-129930969D01*
X155579678Y-129852822D01*
X155484455Y-129736792D01*
X155484454Y-129736791D01*
X155413699Y-129604419D01*
X155402361Y-129567042D01*
X155370126Y-129460778D01*
X155359100Y-129348826D01*
X155359100Y-128918375D01*
X155370126Y-128806423D01*
X155413698Y-128662786D01*
X155413699Y-128662782D01*
X155484454Y-128530410D01*
X155498934Y-128512766D01*
X155579678Y-128414378D01*
X155695708Y-128319155D01*
X155695707Y-128319155D01*
X155695709Y-128319154D01*
X155828081Y-128248399D01*
X155865458Y-128237061D01*
X155971722Y-128204826D01*
X156121100Y-128190114D01*
X156270477Y-128204826D01*
G37*
G36*
X158810477Y-128204826D02*
G01*
X158916741Y-128237061D01*
X158954118Y-128248399D01*
X159086490Y-128319154D01*
X159086492Y-128319155D01*
X159086491Y-128319155D01*
X159202522Y-128414378D01*
X159280670Y-128509602D01*
X159297746Y-128530409D01*
X159368501Y-128662781D01*
X159379839Y-128700158D01*
X159412074Y-128806422D01*
X159423100Y-128918374D01*
X159423100Y-129348825D01*
X159412074Y-129460777D01*
X159386494Y-129545102D01*
X159368501Y-129604419D01*
X159297746Y-129736791D01*
X159202522Y-129852822D01*
X159086491Y-129948046D01*
X158954119Y-130018801D01*
X158916742Y-130030139D01*
X158810478Y-130062374D01*
X158661100Y-130077086D01*
X158511723Y-130062374D01*
X158405459Y-130030139D01*
X158368082Y-130018801D01*
X158235710Y-129948046D01*
X158214902Y-129930969D01*
X158119678Y-129852822D01*
X158024455Y-129736792D01*
X158024454Y-129736791D01*
X157953699Y-129604419D01*
X157942361Y-129567042D01*
X157910126Y-129460778D01*
X157899100Y-129348826D01*
X157899100Y-128918375D01*
X157910126Y-128806423D01*
X157953698Y-128662786D01*
X157953699Y-128662782D01*
X158024454Y-128530410D01*
X158038934Y-128512766D01*
X158119678Y-128414378D01*
X158235708Y-128319155D01*
X158235707Y-128319155D01*
X158235709Y-128319154D01*
X158368081Y-128248399D01*
X158405458Y-128237061D01*
X158511722Y-128204826D01*
X158661100Y-128190114D01*
X158810477Y-128204826D01*
G37*
G36*
X161350477Y-128204826D02*
G01*
X161456741Y-128237061D01*
X161494118Y-128248399D01*
X161626490Y-128319154D01*
X161626492Y-128319155D01*
X161626491Y-128319155D01*
X161742522Y-128414378D01*
X161820670Y-128509602D01*
X161837746Y-128530409D01*
X161908501Y-128662781D01*
X161919839Y-128700158D01*
X161952074Y-128806422D01*
X161963100Y-128918374D01*
X161963100Y-129348825D01*
X161952074Y-129460777D01*
X161926494Y-129545102D01*
X161908501Y-129604419D01*
X161837746Y-129736791D01*
X161742522Y-129852822D01*
X161626491Y-129948046D01*
X161494119Y-130018801D01*
X161456742Y-130030139D01*
X161350478Y-130062374D01*
X161201100Y-130077086D01*
X161051723Y-130062374D01*
X160945459Y-130030139D01*
X160908082Y-130018801D01*
X160775710Y-129948046D01*
X160754902Y-129930969D01*
X160659678Y-129852822D01*
X160564455Y-129736792D01*
X160564454Y-129736791D01*
X160493699Y-129604419D01*
X160482361Y-129567042D01*
X160450126Y-129460778D01*
X160439100Y-129348826D01*
X160439100Y-128918375D01*
X160450126Y-128806423D01*
X160493698Y-128662786D01*
X160493699Y-128662782D01*
X160564454Y-128530410D01*
X160578934Y-128512766D01*
X160659678Y-128414378D01*
X160775708Y-128319155D01*
X160775707Y-128319155D01*
X160775709Y-128319154D01*
X160908081Y-128248399D01*
X160945458Y-128237061D01*
X161051722Y-128204826D01*
X161201100Y-128190114D01*
X161350477Y-128204826D01*
G37*
G36*
X163890477Y-128204826D02*
G01*
X163996741Y-128237061D01*
X164034118Y-128248399D01*
X164166490Y-128319154D01*
X164166492Y-128319155D01*
X164166491Y-128319155D01*
X164282522Y-128414378D01*
X164360670Y-128509602D01*
X164377746Y-128530409D01*
X164448501Y-128662781D01*
X164459839Y-128700158D01*
X164492074Y-128806422D01*
X164503100Y-128918374D01*
X164503100Y-129348825D01*
X164492074Y-129460777D01*
X164466494Y-129545102D01*
X164448501Y-129604419D01*
X164377746Y-129736791D01*
X164282522Y-129852822D01*
X164166491Y-129948046D01*
X164034119Y-130018801D01*
X163996742Y-130030139D01*
X163890478Y-130062374D01*
X163741100Y-130077086D01*
X163591723Y-130062374D01*
X163485459Y-130030139D01*
X163448082Y-130018801D01*
X163315710Y-129948046D01*
X163294902Y-129930969D01*
X163199678Y-129852822D01*
X163104455Y-129736792D01*
X163104454Y-129736791D01*
X163033699Y-129604419D01*
X163022361Y-129567042D01*
X162990126Y-129460778D01*
X162979100Y-129348826D01*
X162979100Y-128918375D01*
X162990126Y-128806423D01*
X163033698Y-128662786D01*
X163033699Y-128662782D01*
X163104454Y-128530410D01*
X163118934Y-128512766D01*
X163199678Y-128414378D01*
X163315708Y-128319155D01*
X163315707Y-128319155D01*
X163315709Y-128319154D01*
X163448081Y-128248399D01*
X163485458Y-128237061D01*
X163591722Y-128204826D01*
X163741100Y-128190114D01*
X163890477Y-128204826D01*
G37*
G36*
X166430477Y-128204826D02*
G01*
X166536741Y-128237061D01*
X166574118Y-128248399D01*
X166706490Y-128319154D01*
X166706492Y-128319155D01*
X166706491Y-128319155D01*
X166822522Y-128414378D01*
X166900670Y-128509602D01*
X166917746Y-128530409D01*
X166988501Y-128662781D01*
X166999839Y-128700158D01*
X167032074Y-128806422D01*
X167043100Y-128918374D01*
X167043100Y-129348825D01*
X167032074Y-129460777D01*
X167006494Y-129545102D01*
X166988501Y-129604419D01*
X166917746Y-129736791D01*
X166822522Y-129852822D01*
X166706491Y-129948046D01*
X166574119Y-130018801D01*
X166536742Y-130030139D01*
X166430478Y-130062374D01*
X166281100Y-130077086D01*
X166131723Y-130062374D01*
X166025459Y-130030139D01*
X165988082Y-130018801D01*
X165855710Y-129948046D01*
X165834902Y-129930969D01*
X165739678Y-129852822D01*
X165644455Y-129736792D01*
X165644454Y-129736791D01*
X165573699Y-129604419D01*
X165562361Y-129567042D01*
X165530126Y-129460778D01*
X165519100Y-129348826D01*
X165519100Y-128918375D01*
X165530126Y-128806423D01*
X165573698Y-128662786D01*
X165573699Y-128662782D01*
X165644454Y-128530410D01*
X165658934Y-128512766D01*
X165739678Y-128414378D01*
X165855708Y-128319155D01*
X165855707Y-128319155D01*
X165855709Y-128319154D01*
X165988081Y-128248399D01*
X166025458Y-128237061D01*
X166131722Y-128204826D01*
X166281100Y-128190114D01*
X166430477Y-128204826D01*
G37*
G36*
X171510477Y-128204826D02*
G01*
X171616741Y-128237061D01*
X171654118Y-128248399D01*
X171786490Y-128319154D01*
X171786492Y-128319155D01*
X171786491Y-128319155D01*
X171902522Y-128414378D01*
X171980670Y-128509602D01*
X171997746Y-128530409D01*
X172068501Y-128662781D01*
X172079839Y-128700158D01*
X172112074Y-128806422D01*
X172123100Y-128918374D01*
X172123100Y-129348825D01*
X172112074Y-129460777D01*
X172086494Y-129545102D01*
X172068501Y-129604419D01*
X171997746Y-129736791D01*
X171902522Y-129852822D01*
X171786491Y-129948046D01*
X171654119Y-130018801D01*
X171616742Y-130030139D01*
X171510478Y-130062374D01*
X171361100Y-130077086D01*
X171211723Y-130062374D01*
X171105459Y-130030139D01*
X171068082Y-130018801D01*
X170935710Y-129948046D01*
X170914902Y-129930969D01*
X170819678Y-129852822D01*
X170724455Y-129736792D01*
X170724454Y-129736791D01*
X170653699Y-129604419D01*
X170642361Y-129567042D01*
X170610126Y-129460778D01*
X170599100Y-129348826D01*
X170599100Y-128918375D01*
X170610126Y-128806423D01*
X170653698Y-128662786D01*
X170653699Y-128662782D01*
X170724454Y-128530410D01*
X170738934Y-128512766D01*
X170819678Y-128414378D01*
X170935708Y-128319155D01*
X170935707Y-128319155D01*
X170935709Y-128319154D01*
X171068081Y-128248399D01*
X171105458Y-128237061D01*
X171211722Y-128204826D01*
X171361100Y-128190114D01*
X171510477Y-128204826D01*
G37*
G36*
X174050477Y-128204826D02*
G01*
X174156741Y-128237061D01*
X174194118Y-128248399D01*
X174326490Y-128319154D01*
X174326492Y-128319155D01*
X174326491Y-128319155D01*
X174442522Y-128414378D01*
X174520670Y-128509602D01*
X174537746Y-128530409D01*
X174608501Y-128662781D01*
X174619839Y-128700158D01*
X174652074Y-128806422D01*
X174663100Y-128918374D01*
X174663100Y-129348825D01*
X174652074Y-129460777D01*
X174626494Y-129545102D01*
X174608501Y-129604419D01*
X174537746Y-129736791D01*
X174442522Y-129852822D01*
X174326491Y-129948046D01*
X174194119Y-130018801D01*
X174156742Y-130030139D01*
X174050478Y-130062374D01*
X173901100Y-130077086D01*
X173751723Y-130062374D01*
X173645459Y-130030139D01*
X173608082Y-130018801D01*
X173475710Y-129948046D01*
X173454902Y-129930969D01*
X173359678Y-129852822D01*
X173264455Y-129736792D01*
X173264454Y-129736791D01*
X173193699Y-129604419D01*
X173182361Y-129567042D01*
X173150126Y-129460778D01*
X173139100Y-129348826D01*
X173139100Y-128918375D01*
X173150126Y-128806423D01*
X173193698Y-128662786D01*
X173193699Y-128662782D01*
X173264454Y-128530410D01*
X173278934Y-128512766D01*
X173359678Y-128414378D01*
X173475708Y-128319155D01*
X173475707Y-128319155D01*
X173475709Y-128319154D01*
X173608081Y-128248399D01*
X173645458Y-128237061D01*
X173751722Y-128204826D01*
X173901100Y-128190114D01*
X174050477Y-128204826D01*
G37*
G36*
X176590477Y-128204826D02*
G01*
X176696741Y-128237061D01*
X176734118Y-128248399D01*
X176866490Y-128319154D01*
X176866492Y-128319155D01*
X176866491Y-128319155D01*
X176982522Y-128414378D01*
X177060670Y-128509602D01*
X177077746Y-128530409D01*
X177148501Y-128662781D01*
X177159839Y-128700158D01*
X177192074Y-128806422D01*
X177203100Y-128918374D01*
X177203100Y-129348825D01*
X177192074Y-129460777D01*
X177166494Y-129545102D01*
X177148501Y-129604419D01*
X177077746Y-129736791D01*
X176982522Y-129852822D01*
X176866491Y-129948046D01*
X176734119Y-130018801D01*
X176696742Y-130030139D01*
X176590478Y-130062374D01*
X176441100Y-130077086D01*
X176291723Y-130062374D01*
X176185459Y-130030139D01*
X176148082Y-130018801D01*
X176015710Y-129948046D01*
X175994902Y-129930969D01*
X175899678Y-129852822D01*
X175804455Y-129736792D01*
X175804454Y-129736791D01*
X175733699Y-129604419D01*
X175722361Y-129567042D01*
X175690126Y-129460778D01*
X175679100Y-129348826D01*
X175679100Y-128918375D01*
X175690126Y-128806423D01*
X175733698Y-128662786D01*
X175733699Y-128662782D01*
X175804454Y-128530410D01*
X175818934Y-128512766D01*
X175899678Y-128414378D01*
X176015708Y-128319155D01*
X176015707Y-128319155D01*
X176015709Y-128319154D01*
X176148081Y-128248399D01*
X176185458Y-128237061D01*
X176291722Y-128204826D01*
X176441100Y-128190114D01*
X176590477Y-128204826D01*
G37*
G36*
X179130477Y-128204826D02*
G01*
X179236741Y-128237061D01*
X179274118Y-128248399D01*
X179406490Y-128319154D01*
X179406492Y-128319155D01*
X179406491Y-128319155D01*
X179522522Y-128414378D01*
X179600670Y-128509602D01*
X179617746Y-128530409D01*
X179688501Y-128662781D01*
X179699839Y-128700158D01*
X179732074Y-128806422D01*
X179743100Y-128918374D01*
X179743100Y-129348825D01*
X179732074Y-129460777D01*
X179706494Y-129545102D01*
X179688501Y-129604419D01*
X179617746Y-129736791D01*
X179522522Y-129852822D01*
X179406491Y-129948046D01*
X179274119Y-130018801D01*
X179236742Y-130030139D01*
X179130478Y-130062374D01*
X178981100Y-130077086D01*
X178831723Y-130062374D01*
X178725459Y-130030139D01*
X178688082Y-130018801D01*
X178555710Y-129948046D01*
X178534902Y-129930969D01*
X178439678Y-129852822D01*
X178344455Y-129736792D01*
X178344454Y-129736791D01*
X178273699Y-129604419D01*
X178262361Y-129567042D01*
X178230126Y-129460778D01*
X178219100Y-129348826D01*
X178219100Y-128918375D01*
X178230126Y-128806423D01*
X178273698Y-128662786D01*
X178273699Y-128662782D01*
X178344454Y-128530410D01*
X178358934Y-128512766D01*
X178439678Y-128414378D01*
X178555708Y-128319155D01*
X178555707Y-128319155D01*
X178555709Y-128319154D01*
X178688081Y-128248399D01*
X178725458Y-128237061D01*
X178831722Y-128204826D01*
X178981100Y-128190114D01*
X179130477Y-128204826D01*
G37*
G36*
X181670477Y-128204826D02*
G01*
X181776741Y-128237061D01*
X181814118Y-128248399D01*
X181946490Y-128319154D01*
X181946492Y-128319155D01*
X181946491Y-128319155D01*
X182062522Y-128414378D01*
X182140670Y-128509602D01*
X182157746Y-128530409D01*
X182228501Y-128662781D01*
X182239839Y-128700158D01*
X182272074Y-128806422D01*
X182283100Y-128918374D01*
X182283100Y-129348825D01*
X182272074Y-129460777D01*
X182246494Y-129545102D01*
X182228501Y-129604419D01*
X182157746Y-129736791D01*
X182062522Y-129852822D01*
X181946491Y-129948046D01*
X181814119Y-130018801D01*
X181776742Y-130030139D01*
X181670478Y-130062374D01*
X181521100Y-130077086D01*
X181371723Y-130062374D01*
X181265459Y-130030139D01*
X181228082Y-130018801D01*
X181095710Y-129948046D01*
X181074902Y-129930969D01*
X180979678Y-129852822D01*
X180884455Y-129736792D01*
X180884454Y-129736791D01*
X180813699Y-129604419D01*
X180802361Y-129567042D01*
X180770126Y-129460778D01*
X180759100Y-129348826D01*
X180759100Y-128918375D01*
X180770126Y-128806423D01*
X180813698Y-128662786D01*
X180813699Y-128662782D01*
X180884454Y-128530410D01*
X180898934Y-128512766D01*
X180979678Y-128414378D01*
X181095708Y-128319155D01*
X181095707Y-128319155D01*
X181095709Y-128319154D01*
X181228081Y-128248399D01*
X181265458Y-128237061D01*
X181371722Y-128204826D01*
X181521100Y-128190114D01*
X181670477Y-128204826D01*
G37*
G36*
X184210477Y-128204826D02*
G01*
X184316741Y-128237061D01*
X184354118Y-128248399D01*
X184486490Y-128319154D01*
X184486492Y-128319155D01*
X184486491Y-128319155D01*
X184602522Y-128414378D01*
X184680670Y-128509602D01*
X184697746Y-128530409D01*
X184768501Y-128662781D01*
X184779839Y-128700158D01*
X184812074Y-128806422D01*
X184823100Y-128918374D01*
X184823100Y-129348825D01*
X184812074Y-129460777D01*
X184786494Y-129545102D01*
X184768501Y-129604419D01*
X184697746Y-129736791D01*
X184602522Y-129852822D01*
X184486491Y-129948046D01*
X184354119Y-130018801D01*
X184316742Y-130030139D01*
X184210478Y-130062374D01*
X184061100Y-130077086D01*
X183911723Y-130062374D01*
X183805459Y-130030139D01*
X183768082Y-130018801D01*
X183635710Y-129948046D01*
X183614902Y-129930969D01*
X183519678Y-129852822D01*
X183424455Y-129736792D01*
X183424454Y-129736791D01*
X183353699Y-129604419D01*
X183342361Y-129567042D01*
X183310126Y-129460778D01*
X183299100Y-129348826D01*
X183299100Y-128918375D01*
X183310126Y-128806423D01*
X183353698Y-128662786D01*
X183353699Y-128662782D01*
X183424454Y-128530410D01*
X183438934Y-128512766D01*
X183519678Y-128414378D01*
X183635708Y-128319155D01*
X183635707Y-128319155D01*
X183635709Y-128319154D01*
X183768081Y-128248399D01*
X183805458Y-128237061D01*
X183911722Y-128204826D01*
X184061100Y-128190114D01*
X184210477Y-128204826D01*
G37*
G36*
X186750477Y-128204826D02*
G01*
X186856741Y-128237061D01*
X186894118Y-128248399D01*
X187026490Y-128319154D01*
X187026492Y-128319155D01*
X187026491Y-128319155D01*
X187142522Y-128414378D01*
X187220670Y-128509602D01*
X187237746Y-128530409D01*
X187308501Y-128662781D01*
X187319839Y-128700158D01*
X187352074Y-128806422D01*
X187363100Y-128918374D01*
X187363100Y-129348825D01*
X187352074Y-129460777D01*
X187326494Y-129545102D01*
X187308501Y-129604419D01*
X187237746Y-129736791D01*
X187142522Y-129852822D01*
X187026491Y-129948046D01*
X186894119Y-130018801D01*
X186856742Y-130030139D01*
X186750478Y-130062374D01*
X186601100Y-130077086D01*
X186451723Y-130062374D01*
X186345459Y-130030139D01*
X186308082Y-130018801D01*
X186175710Y-129948046D01*
X186154902Y-129930969D01*
X186059678Y-129852822D01*
X185964455Y-129736792D01*
X185964454Y-129736791D01*
X185893699Y-129604419D01*
X185882361Y-129567042D01*
X185850126Y-129460778D01*
X185839100Y-129348826D01*
X185839100Y-128918375D01*
X185850126Y-128806423D01*
X185893698Y-128662786D01*
X185893699Y-128662782D01*
X185964454Y-128530410D01*
X185978934Y-128512766D01*
X186059678Y-128414378D01*
X186175708Y-128319155D01*
X186175707Y-128319155D01*
X186175709Y-128319154D01*
X186308081Y-128248399D01*
X186345458Y-128237061D01*
X186451722Y-128204826D01*
X186601100Y-128190114D01*
X186750477Y-128204826D01*
G37*
G36*
X189290477Y-128204826D02*
G01*
X189396741Y-128237061D01*
X189434118Y-128248399D01*
X189566490Y-128319154D01*
X189566492Y-128319155D01*
X189566491Y-128319155D01*
X189682522Y-128414378D01*
X189760670Y-128509602D01*
X189777746Y-128530409D01*
X189848501Y-128662781D01*
X189859839Y-128700158D01*
X189892074Y-128806422D01*
X189903100Y-128918374D01*
X189903100Y-129348825D01*
X189892074Y-129460777D01*
X189866494Y-129545102D01*
X189848501Y-129604419D01*
X189777746Y-129736791D01*
X189682522Y-129852822D01*
X189566491Y-129948046D01*
X189434119Y-130018801D01*
X189396742Y-130030139D01*
X189290478Y-130062374D01*
X189141100Y-130077086D01*
X188991723Y-130062374D01*
X188885459Y-130030139D01*
X188848082Y-130018801D01*
X188715710Y-129948046D01*
X188694902Y-129930969D01*
X188599678Y-129852822D01*
X188504455Y-129736792D01*
X188504454Y-129736791D01*
X188433699Y-129604419D01*
X188422361Y-129567042D01*
X188390126Y-129460778D01*
X188379100Y-129348826D01*
X188379100Y-128918375D01*
X188390126Y-128806423D01*
X188433698Y-128662786D01*
X188433699Y-128662782D01*
X188504454Y-128530410D01*
X188518934Y-128512766D01*
X188599678Y-128414378D01*
X188715708Y-128319155D01*
X188715707Y-128319155D01*
X188715709Y-128319154D01*
X188848081Y-128248399D01*
X188885458Y-128237061D01*
X188991722Y-128204826D01*
X189141100Y-128190114D01*
X189290477Y-128204826D01*
G37*
G36*
X104171000Y-129351000D02*
G01*
X101669000Y-129351000D01*
X101669000Y-126849000D01*
X104171000Y-126849000D01*
X104171000Y-129351000D01*
G37*
G36*
X103284903Y-123397075D02*
G01*
X103501751Y-123486896D01*
X103512571Y-123491378D01*
X103717466Y-123628285D01*
X103891715Y-123802534D01*
X104028622Y-124007429D01*
X104122925Y-124235097D01*
X104171000Y-124476787D01*
X104171000Y-124723213D01*
X104122925Y-124964903D01*
X104028622Y-125192571D01*
X103891715Y-125397466D01*
X103717466Y-125571715D01*
X103512571Y-125708622D01*
X103512570Y-125708623D01*
X103512569Y-125708623D01*
X103284903Y-125802925D01*
X103043214Y-125851000D01*
X102796786Y-125851000D01*
X102555097Y-125802925D01*
X102327431Y-125708623D01*
X102327430Y-125708623D01*
X102327429Y-125708622D01*
X102122534Y-125571715D01*
X101948285Y-125397466D01*
X101811378Y-125192571D01*
X101717075Y-124964903D01*
X101669000Y-124723213D01*
X101669000Y-124476787D01*
X101717075Y-124235097D01*
X101811378Y-124007429D01*
X101948285Y-123802534D01*
X102122534Y-123628285D01*
X102327429Y-123491378D01*
X102338250Y-123486896D01*
X102555097Y-123397075D01*
X102796786Y-123349000D01*
X103043214Y-123349000D01*
X103284903Y-123397075D01*
G37*
G36*
X194394535Y-123181682D02*
G01*
X194480412Y-123198764D01*
X194642199Y-123265779D01*
X194787804Y-123363069D01*
X194911631Y-123486896D01*
X195008921Y-123632501D01*
X195075936Y-123794288D01*
X195110100Y-123966041D01*
X195110100Y-124141159D01*
X195075936Y-124312912D01*
X195008921Y-124474699D01*
X194911631Y-124620304D01*
X194787804Y-124744131D01*
X194642199Y-124841421D01*
X194480412Y-124908436D01*
X194308660Y-124942600D01*
X194133540Y-124942600D01*
X193961788Y-124908436D01*
X193800001Y-124841421D01*
X193654396Y-124744131D01*
X193530569Y-124620304D01*
X193433279Y-124474699D01*
X193366264Y-124312912D01*
X193332100Y-124141159D01*
X193332100Y-123966041D01*
X193366264Y-123794288D01*
X193433279Y-123632501D01*
X193530569Y-123486896D01*
X193654396Y-123363069D01*
X193800001Y-123265779D01*
X193961788Y-123198764D01*
X194047665Y-123181682D01*
X194133540Y-123164600D01*
X194308660Y-123164600D01*
X194394535Y-123181682D01*
G37*
G36*
X191854535Y-123181682D02*
G01*
X191940412Y-123198764D01*
X192102199Y-123265779D01*
X192247804Y-123363069D01*
X192371631Y-123486896D01*
X192468921Y-123632501D01*
X192535936Y-123794288D01*
X192570100Y-123966041D01*
X192570100Y-124141159D01*
X192535936Y-124312912D01*
X192468921Y-124474699D01*
X192371631Y-124620304D01*
X192247804Y-124744131D01*
X192102199Y-124841421D01*
X191940412Y-124908436D01*
X191768660Y-124942600D01*
X191593540Y-124942600D01*
X191421788Y-124908436D01*
X191260001Y-124841421D01*
X191114396Y-124744131D01*
X190990569Y-124620304D01*
X190893279Y-124474699D01*
X190826264Y-124312912D01*
X190792100Y-124141159D01*
X190792100Y-123966041D01*
X190826264Y-123794288D01*
X190893279Y-123632501D01*
X190990569Y-123486896D01*
X191114396Y-123363069D01*
X191260001Y-123265779D01*
X191421788Y-123198764D01*
X191507665Y-123181682D01*
X191593540Y-123164600D01*
X191768660Y-123164600D01*
X191854535Y-123181682D01*
G37*
G36*
X148764903Y-121497075D02*
G01*
X148992571Y-121591378D01*
X149197466Y-121728285D01*
X149371715Y-121902534D01*
X149508622Y-122107429D01*
X149508623Y-122107431D01*
X149550538Y-122208623D01*
X149602925Y-122335097D01*
X149651000Y-122576787D01*
X149651000Y-122823213D01*
X149602925Y-123064903D01*
X149508622Y-123292571D01*
X149371715Y-123497466D01*
X149197466Y-123671715D01*
X148992571Y-123808622D01*
X148992570Y-123808623D01*
X148992569Y-123808623D01*
X148764903Y-123902925D01*
X148523214Y-123951000D01*
X148276786Y-123951000D01*
X148035097Y-123902925D01*
X147807431Y-123808623D01*
X147807430Y-123808623D01*
X147807429Y-123808622D01*
X147602534Y-123671715D01*
X147428285Y-123497466D01*
X147291378Y-123292571D01*
X147197075Y-123064903D01*
X147149000Y-122823213D01*
X147149000Y-122576787D01*
X147197075Y-122335097D01*
X147249462Y-122208623D01*
X147291377Y-122107431D01*
X147291378Y-122107429D01*
X147428285Y-121902534D01*
X147602534Y-121728285D01*
X147807429Y-121591378D01*
X148035097Y-121497075D01*
X148276786Y-121449000D01*
X148523214Y-121449000D01*
X148764903Y-121497075D01*
G37*
G36*
X162914903Y-121497075D02*
G01*
X163142571Y-121591378D01*
X163347466Y-121728285D01*
X163521715Y-121902534D01*
X163658622Y-122107429D01*
X163658623Y-122107431D01*
X163700538Y-122208623D01*
X163752925Y-122335097D01*
X163801000Y-122576787D01*
X163801000Y-122823213D01*
X163752925Y-123064903D01*
X163658622Y-123292571D01*
X163521715Y-123497466D01*
X163347466Y-123671715D01*
X163142571Y-123808622D01*
X163142570Y-123808623D01*
X163142569Y-123808623D01*
X162914903Y-123902925D01*
X162673214Y-123951000D01*
X162426786Y-123951000D01*
X162185097Y-123902925D01*
X161957431Y-123808623D01*
X161957430Y-123808623D01*
X161957429Y-123808622D01*
X161752534Y-123671715D01*
X161578285Y-123497466D01*
X161441378Y-123292571D01*
X161347075Y-123064903D01*
X161299000Y-122823213D01*
X161299000Y-122576787D01*
X161347075Y-122335097D01*
X161399462Y-122208623D01*
X161441377Y-122107431D01*
X161441378Y-122107429D01*
X161578285Y-121902534D01*
X161752534Y-121728285D01*
X161957429Y-121591378D01*
X162185097Y-121497075D01*
X162426786Y-121449000D01*
X162673214Y-121449000D01*
X162914903Y-121497075D01*
G37*
G36*
X159414903Y-121497075D02*
G01*
X159642571Y-121591378D01*
X159847466Y-121728285D01*
X160021715Y-121902534D01*
X160158622Y-122107429D01*
X160158623Y-122107431D01*
X160200538Y-122208623D01*
X160252925Y-122335097D01*
X160301000Y-122576787D01*
X160301000Y-122823213D01*
X160252925Y-123064903D01*
X160158622Y-123292571D01*
X160021715Y-123497466D01*
X159847466Y-123671715D01*
X159642571Y-123808622D01*
X159642570Y-123808623D01*
X159642569Y-123808623D01*
X159414903Y-123902925D01*
X159173214Y-123951000D01*
X158926786Y-123951000D01*
X158685097Y-123902925D01*
X158457431Y-123808623D01*
X158457430Y-123808623D01*
X158457429Y-123808622D01*
X158252534Y-123671715D01*
X158078285Y-123497466D01*
X157941378Y-123292571D01*
X157847075Y-123064903D01*
X157799000Y-122823213D01*
X157799000Y-122576787D01*
X157847075Y-122335097D01*
X157899462Y-122208623D01*
X157941377Y-122107431D01*
X157941378Y-122107429D01*
X158078285Y-121902534D01*
X158252534Y-121728285D01*
X158457429Y-121591378D01*
X158685097Y-121497075D01*
X158926786Y-121449000D01*
X159173214Y-121449000D01*
X159414903Y-121497075D01*
G37*
G36*
X155914903Y-121497075D02*
G01*
X156142571Y-121591378D01*
X156347466Y-121728285D01*
X156521715Y-121902534D01*
X156658622Y-122107429D01*
X156658623Y-122107431D01*
X156700538Y-122208623D01*
X156752925Y-122335097D01*
X156801000Y-122576787D01*
X156801000Y-122823213D01*
X156752925Y-123064903D01*
X156658622Y-123292571D01*
X156521715Y-123497466D01*
X156347466Y-123671715D01*
X156142571Y-123808622D01*
X156142570Y-123808623D01*
X156142569Y-123808623D01*
X155914903Y-123902925D01*
X155673214Y-123951000D01*
X155426786Y-123951000D01*
X155185097Y-123902925D01*
X154957431Y-123808623D01*
X154957430Y-123808623D01*
X154957429Y-123808622D01*
X154752534Y-123671715D01*
X154578285Y-123497466D01*
X154441378Y-123292571D01*
X154347075Y-123064903D01*
X154299000Y-122823213D01*
X154299000Y-122576787D01*
X154347075Y-122335097D01*
X154399462Y-122208623D01*
X154441377Y-122107431D01*
X154441378Y-122107429D01*
X154578285Y-121902534D01*
X154752534Y-121728285D01*
X154957429Y-121591378D01*
X155185097Y-121497075D01*
X155426786Y-121449000D01*
X155673214Y-121449000D01*
X155914903Y-121497075D01*
G37*
G36*
X152414903Y-121497075D02*
G01*
X152642571Y-121591378D01*
X152847466Y-121728285D01*
X153021715Y-121902534D01*
X153158622Y-122107429D01*
X153158623Y-122107431D01*
X153200538Y-122208623D01*
X153252925Y-122335097D01*
X153301000Y-122576787D01*
X153301000Y-122823213D01*
X153252925Y-123064903D01*
X153158622Y-123292571D01*
X153021715Y-123497466D01*
X152847466Y-123671715D01*
X152642571Y-123808622D01*
X152642570Y-123808623D01*
X152642569Y-123808623D01*
X152414903Y-123902925D01*
X152173214Y-123951000D01*
X151926786Y-123951000D01*
X151685097Y-123902925D01*
X151457431Y-123808623D01*
X151457430Y-123808623D01*
X151457429Y-123808622D01*
X151252534Y-123671715D01*
X151078285Y-123497466D01*
X150941378Y-123292571D01*
X150847075Y-123064903D01*
X150799000Y-122823213D01*
X150799000Y-122576787D01*
X150847075Y-122335097D01*
X150899462Y-122208623D01*
X150941377Y-122107431D01*
X150941378Y-122107429D01*
X151078285Y-121902534D01*
X151252534Y-121728285D01*
X151457429Y-121591378D01*
X151685097Y-121497075D01*
X151926786Y-121449000D01*
X152173214Y-121449000D01*
X152414903Y-121497075D01*
G37*
G36*
X145264903Y-121497075D02*
G01*
X145492571Y-121591378D01*
X145697466Y-121728285D01*
X145871715Y-121902534D01*
X146008622Y-122107429D01*
X146008623Y-122107431D01*
X146050538Y-122208623D01*
X146102925Y-122335097D01*
X146151000Y-122576787D01*
X146151000Y-122823213D01*
X146102925Y-123064903D01*
X146008622Y-123292571D01*
X145871715Y-123497466D01*
X145697466Y-123671715D01*
X145492571Y-123808622D01*
X145492570Y-123808623D01*
X145492569Y-123808623D01*
X145264903Y-123902925D01*
X145023214Y-123951000D01*
X144776786Y-123951000D01*
X144535097Y-123902925D01*
X144307431Y-123808623D01*
X144307430Y-123808623D01*
X144307429Y-123808622D01*
X144102534Y-123671715D01*
X143928285Y-123497466D01*
X143791378Y-123292571D01*
X143697075Y-123064903D01*
X143649000Y-122823213D01*
X143649000Y-122576787D01*
X143697075Y-122335097D01*
X143749462Y-122208623D01*
X143791377Y-122107431D01*
X143791378Y-122107429D01*
X143928285Y-121902534D01*
X144102534Y-121728285D01*
X144307429Y-121591378D01*
X144535097Y-121497075D01*
X144776786Y-121449000D01*
X145023214Y-121449000D01*
X145264903Y-121497075D01*
G37*
G36*
X141764903Y-121497075D02*
G01*
X141992571Y-121591378D01*
X142197466Y-121728285D01*
X142371715Y-121902534D01*
X142508622Y-122107429D01*
X142508623Y-122107431D01*
X142550538Y-122208623D01*
X142602925Y-122335097D01*
X142651000Y-122576787D01*
X142651000Y-122823213D01*
X142602925Y-123064903D01*
X142508622Y-123292571D01*
X142371715Y-123497466D01*
X142197466Y-123671715D01*
X141992571Y-123808622D01*
X141992570Y-123808623D01*
X141992569Y-123808623D01*
X141764903Y-123902925D01*
X141523214Y-123951000D01*
X141276786Y-123951000D01*
X141035097Y-123902925D01*
X140807431Y-123808623D01*
X140807430Y-123808623D01*
X140807429Y-123808622D01*
X140602534Y-123671715D01*
X140428285Y-123497466D01*
X140291378Y-123292571D01*
X140197075Y-123064903D01*
X140149000Y-122823213D01*
X140149000Y-122576787D01*
X140197075Y-122335097D01*
X140249462Y-122208623D01*
X140291377Y-122107431D01*
X140291378Y-122107429D01*
X140428285Y-121902534D01*
X140602534Y-121728285D01*
X140807429Y-121591378D01*
X141035097Y-121497075D01*
X141276786Y-121449000D01*
X141523214Y-121449000D01*
X141764903Y-121497075D01*
G37*
G36*
X138264903Y-121497075D02*
G01*
X138492571Y-121591378D01*
X138697466Y-121728285D01*
X138871715Y-121902534D01*
X139008622Y-122107429D01*
X139008623Y-122107431D01*
X139050538Y-122208623D01*
X139102925Y-122335097D01*
X139151000Y-122576787D01*
X139151000Y-122823213D01*
X139102925Y-123064903D01*
X139008622Y-123292571D01*
X138871715Y-123497466D01*
X138697466Y-123671715D01*
X138492571Y-123808622D01*
X138492570Y-123808623D01*
X138492569Y-123808623D01*
X138264903Y-123902925D01*
X138023214Y-123951000D01*
X137776786Y-123951000D01*
X137535097Y-123902925D01*
X137307431Y-123808623D01*
X137307430Y-123808623D01*
X137307429Y-123808622D01*
X137102534Y-123671715D01*
X136928285Y-123497466D01*
X136791378Y-123292571D01*
X136697075Y-123064903D01*
X136649000Y-122823213D01*
X136649000Y-122576787D01*
X136697075Y-122335097D01*
X136749462Y-122208623D01*
X136791377Y-122107431D01*
X136791378Y-122107429D01*
X136928285Y-121902534D01*
X137102534Y-121728285D01*
X137307429Y-121591378D01*
X137535097Y-121497075D01*
X137776786Y-121449000D01*
X138023214Y-121449000D01*
X138264903Y-121497075D01*
G37*
G36*
X134764903Y-121497075D02*
G01*
X134992571Y-121591378D01*
X135197466Y-121728285D01*
X135371715Y-121902534D01*
X135508622Y-122107429D01*
X135508623Y-122107431D01*
X135550538Y-122208623D01*
X135602925Y-122335097D01*
X135651000Y-122576787D01*
X135651000Y-122823213D01*
X135602925Y-123064903D01*
X135508622Y-123292571D01*
X135371715Y-123497466D01*
X135197466Y-123671715D01*
X134992571Y-123808622D01*
X134992570Y-123808623D01*
X134992569Y-123808623D01*
X134764903Y-123902925D01*
X134523214Y-123951000D01*
X134276786Y-123951000D01*
X134035097Y-123902925D01*
X133807431Y-123808623D01*
X133807430Y-123808623D01*
X133807429Y-123808622D01*
X133602534Y-123671715D01*
X133428285Y-123497466D01*
X133291378Y-123292571D01*
X133197075Y-123064903D01*
X133149000Y-122823213D01*
X133149000Y-122576787D01*
X133197075Y-122335097D01*
X133249462Y-122208623D01*
X133291377Y-122107431D01*
X133291378Y-122107429D01*
X133428285Y-121902534D01*
X133602534Y-121728285D01*
X133807429Y-121591378D01*
X134035097Y-121497075D01*
X134276786Y-121449000D01*
X134523214Y-121449000D01*
X134764903Y-121497075D01*
G37*
G36*
X131264903Y-121497075D02*
G01*
X131492571Y-121591378D01*
X131697466Y-121728285D01*
X131871715Y-121902534D01*
X132008622Y-122107429D01*
X132008623Y-122107431D01*
X132050538Y-122208623D01*
X132102925Y-122335097D01*
X132151000Y-122576787D01*
X132151000Y-122823213D01*
X132102925Y-123064903D01*
X132008622Y-123292571D01*
X131871715Y-123497466D01*
X131697466Y-123671715D01*
X131492571Y-123808622D01*
X131492570Y-123808623D01*
X131492569Y-123808623D01*
X131264903Y-123902925D01*
X131023214Y-123951000D01*
X130776786Y-123951000D01*
X130535097Y-123902925D01*
X130307431Y-123808623D01*
X130307430Y-123808623D01*
X130307429Y-123808622D01*
X130102534Y-123671715D01*
X129928285Y-123497466D01*
X129791378Y-123292571D01*
X129697075Y-123064903D01*
X129649000Y-122823213D01*
X129649000Y-122576787D01*
X129697075Y-122335097D01*
X129749462Y-122208623D01*
X129791377Y-122107431D01*
X129791378Y-122107429D01*
X129928285Y-121902534D01*
X130102534Y-121728285D01*
X130307429Y-121591378D01*
X130535097Y-121497075D01*
X130776786Y-121449000D01*
X131023214Y-121449000D01*
X131264903Y-121497075D01*
G37*
G36*
X191854535Y-120641682D02*
G01*
X191940412Y-120658764D01*
X192102199Y-120725779D01*
X192247804Y-120823069D01*
X192371631Y-120946896D01*
X192468921Y-121092501D01*
X192523065Y-121223214D01*
X192535936Y-121254289D01*
X192570100Y-121426040D01*
X192570100Y-121601160D01*
X192535936Y-121772911D01*
X192482244Y-121902536D01*
X192468921Y-121934699D01*
X192371631Y-122080304D01*
X192247804Y-122204131D01*
X192102199Y-122301421D01*
X191940412Y-122368436D01*
X191854535Y-122385518D01*
X191768660Y-122402600D01*
X191593540Y-122402600D01*
X191507665Y-122385518D01*
X191421788Y-122368436D01*
X191260001Y-122301421D01*
X191114396Y-122204131D01*
X190990569Y-122080304D01*
X190893279Y-121934699D01*
X190879957Y-121902536D01*
X190826264Y-121772911D01*
X190792100Y-121601160D01*
X190792100Y-121426040D01*
X190826264Y-121254289D01*
X190839136Y-121223214D01*
X190893279Y-121092501D01*
X190990569Y-120946896D01*
X191114396Y-120823069D01*
X191260001Y-120725779D01*
X191421788Y-120658764D01*
X191507665Y-120641682D01*
X191593540Y-120624600D01*
X191768660Y-120624600D01*
X191854535Y-120641682D01*
G37*
G36*
X194394535Y-120641682D02*
G01*
X194480412Y-120658764D01*
X194642199Y-120725779D01*
X194787804Y-120823069D01*
X194911631Y-120946896D01*
X195008921Y-121092501D01*
X195063065Y-121223214D01*
X195075936Y-121254289D01*
X195110100Y-121426040D01*
X195110100Y-121601160D01*
X195075936Y-121772911D01*
X195022244Y-121902536D01*
X195008921Y-121934699D01*
X194911631Y-122080304D01*
X194787804Y-122204131D01*
X194642199Y-122301421D01*
X194480412Y-122368436D01*
X194394535Y-122385518D01*
X194308660Y-122402600D01*
X194133540Y-122402600D01*
X194047665Y-122385518D01*
X193961788Y-122368436D01*
X193800001Y-122301421D01*
X193654396Y-122204131D01*
X193530569Y-122080304D01*
X193433279Y-121934699D01*
X193419957Y-121902536D01*
X193366264Y-121772911D01*
X193332100Y-121601160D01*
X193332100Y-121426040D01*
X193366264Y-121254289D01*
X193379136Y-121223214D01*
X193433279Y-121092501D01*
X193530569Y-120946896D01*
X193654396Y-120823069D01*
X193800001Y-120725779D01*
X193961788Y-120658764D01*
X194047665Y-120641682D01*
X194133540Y-120624600D01*
X194308660Y-120624600D01*
X194394535Y-120641682D01*
G37*
G36*
X103284903Y-119897075D02*
G01*
X103512571Y-119991378D01*
X103717466Y-120128285D01*
X103891715Y-120302534D01*
X103891716Y-120302536D01*
X104028623Y-120507431D01*
X104122925Y-120735097D01*
X104171000Y-120976786D01*
X104171000Y-121223214D01*
X104122925Y-121464903D01*
X104070538Y-121591378D01*
X104028622Y-121692571D01*
X103891715Y-121897466D01*
X103717466Y-122071715D01*
X103512571Y-122208622D01*
X103512570Y-122208623D01*
X103512569Y-122208623D01*
X103284903Y-122302925D01*
X103043214Y-122351000D01*
X102796786Y-122351000D01*
X102555097Y-122302925D01*
X102327431Y-122208623D01*
X102327430Y-122208623D01*
X102327429Y-122208622D01*
X102122534Y-122071715D01*
X101948285Y-121897466D01*
X101811378Y-121692571D01*
X101769463Y-121591378D01*
X101717075Y-121464903D01*
X101669000Y-121223214D01*
X101669000Y-120976786D01*
X101717075Y-120735097D01*
X101811377Y-120507431D01*
X101948284Y-120302536D01*
X101948285Y-120302534D01*
X102122534Y-120128285D01*
X102327429Y-119991378D01*
X102555097Y-119897075D01*
X102796786Y-119849000D01*
X103043214Y-119849000D01*
X103284903Y-119897075D01*
G37*
G36*
X191808722Y-118092569D02*
G01*
X191940412Y-118118764D01*
X192102199Y-118185779D01*
X192247804Y-118283069D01*
X192371631Y-118406896D01*
X192468921Y-118552501D01*
X192535936Y-118714288D01*
X192570100Y-118886041D01*
X192570100Y-119061159D01*
X192535936Y-119232912D01*
X192468921Y-119394699D01*
X192371631Y-119540304D01*
X192247804Y-119664131D01*
X192102199Y-119761421D01*
X191940412Y-119828436D01*
X191854535Y-119845518D01*
X191768660Y-119862600D01*
X191593540Y-119862600D01*
X191507665Y-119845518D01*
X191421788Y-119828436D01*
X191260001Y-119761421D01*
X191114396Y-119664131D01*
X190990569Y-119540304D01*
X190893279Y-119394699D01*
X190826264Y-119232912D01*
X190792100Y-119061159D01*
X190792100Y-118886041D01*
X190826264Y-118714288D01*
X190893279Y-118552501D01*
X190990569Y-118406896D01*
X191114396Y-118283069D01*
X191260001Y-118185779D01*
X191421788Y-118118764D01*
X191553478Y-118092569D01*
X191593540Y-118084600D01*
X191768660Y-118084600D01*
X191808722Y-118092569D01*
G37*
G36*
X194348722Y-118092569D02*
G01*
X194480412Y-118118764D01*
X194642199Y-118185779D01*
X194787804Y-118283069D01*
X194911631Y-118406896D01*
X195008921Y-118552501D01*
X195075936Y-118714288D01*
X195110100Y-118886041D01*
X195110100Y-119061159D01*
X195075936Y-119232912D01*
X195008921Y-119394699D01*
X194911631Y-119540304D01*
X194787804Y-119664131D01*
X194642199Y-119761421D01*
X194480412Y-119828436D01*
X194394535Y-119845518D01*
X194308660Y-119862600D01*
X194133540Y-119862600D01*
X194047665Y-119845518D01*
X193961788Y-119828436D01*
X193800001Y-119761421D01*
X193654396Y-119664131D01*
X193530569Y-119540304D01*
X193433279Y-119394699D01*
X193366264Y-119232912D01*
X193332100Y-119061159D01*
X193332100Y-118886041D01*
X193366264Y-118714288D01*
X193433279Y-118552501D01*
X193530569Y-118406896D01*
X193654396Y-118283069D01*
X193800001Y-118185779D01*
X193961788Y-118118764D01*
X194093478Y-118092569D01*
X194133540Y-118084600D01*
X194308660Y-118084600D01*
X194348722Y-118092569D01*
G37*
G36*
X103284903Y-116297075D02*
G01*
X103512571Y-116391378D01*
X103717466Y-116528285D01*
X103891715Y-116702534D01*
X104028622Y-116907429D01*
X104122925Y-117135097D01*
X104171000Y-117376787D01*
X104171000Y-117623213D01*
X104122925Y-117864903D01*
X104028622Y-118092571D01*
X103891715Y-118297466D01*
X103717466Y-118471715D01*
X103512571Y-118608622D01*
X103512570Y-118608623D01*
X103512569Y-118608623D01*
X103284903Y-118702925D01*
X103043214Y-118751000D01*
X102796786Y-118751000D01*
X102555097Y-118702925D01*
X102327431Y-118608623D01*
X102327430Y-118608623D01*
X102327429Y-118608622D01*
X102122534Y-118471715D01*
X101948285Y-118297466D01*
X101811378Y-118092571D01*
X101717075Y-117864903D01*
X101669000Y-117623213D01*
X101669000Y-117376787D01*
X101717075Y-117135097D01*
X101811378Y-116907429D01*
X101948285Y-116702534D01*
X102122534Y-116528285D01*
X102327429Y-116391378D01*
X102555097Y-116297075D01*
X102796786Y-116249000D01*
X103043214Y-116249000D01*
X103284903Y-116297075D01*
G37*
G36*
X194480412Y-115578764D02*
G01*
X194642199Y-115645779D01*
X194787804Y-115743069D01*
X194911631Y-115866896D01*
X195008921Y-116012501D01*
X195075936Y-116174288D01*
X195110100Y-116346041D01*
X195110100Y-116521159D01*
X195075936Y-116692912D01*
X195008921Y-116854699D01*
X194911631Y-117000304D01*
X194787804Y-117124131D01*
X194642199Y-117221421D01*
X194480412Y-117288436D01*
X194394535Y-117305518D01*
X194308660Y-117322600D01*
X194133540Y-117322600D01*
X194047665Y-117305518D01*
X193961788Y-117288436D01*
X193800001Y-117221421D01*
X193654396Y-117124131D01*
X193530569Y-117000304D01*
X193433279Y-116854699D01*
X193366264Y-116692912D01*
X193332100Y-116521159D01*
X193332100Y-116346041D01*
X193366264Y-116174288D01*
X193433279Y-116012501D01*
X193530569Y-115866896D01*
X193654396Y-115743069D01*
X193800001Y-115645779D01*
X193961788Y-115578764D01*
X194133540Y-115544600D01*
X194308660Y-115544600D01*
X194480412Y-115578764D01*
G37*
G36*
X191940412Y-115578764D02*
G01*
X192102199Y-115645779D01*
X192247804Y-115743069D01*
X192371631Y-115866896D01*
X192468921Y-116012501D01*
X192535936Y-116174288D01*
X192570100Y-116346041D01*
X192570100Y-116521159D01*
X192535936Y-116692912D01*
X192468921Y-116854699D01*
X192371631Y-117000304D01*
X192247804Y-117124131D01*
X192102199Y-117221421D01*
X191940412Y-117288436D01*
X191854535Y-117305518D01*
X191768660Y-117322600D01*
X191593540Y-117322600D01*
X191507665Y-117305518D01*
X191421788Y-117288436D01*
X191260001Y-117221421D01*
X191114396Y-117124131D01*
X190990569Y-117000304D01*
X190893279Y-116854699D01*
X190826264Y-116692912D01*
X190792100Y-116521159D01*
X190792100Y-116346041D01*
X190826264Y-116174288D01*
X190893279Y-116012501D01*
X190990569Y-115866896D01*
X191114396Y-115743069D01*
X191260001Y-115645779D01*
X191421788Y-115578764D01*
X191593540Y-115544600D01*
X191768660Y-115544600D01*
X191940412Y-115578764D01*
G37*
G36*
X103284903Y-112797075D02*
G01*
X103512571Y-112891378D01*
X103717466Y-113028285D01*
X103891715Y-113202534D01*
X103891716Y-113202536D01*
X104028623Y-113407431D01*
X104122590Y-113634288D01*
X104122925Y-113635097D01*
X104171000Y-113876787D01*
X104171000Y-114123213D01*
X104122925Y-114364903D01*
X104028622Y-114592571D01*
X103891715Y-114797466D01*
X103717466Y-114971715D01*
X103512571Y-115108622D01*
X103512570Y-115108623D01*
X103512569Y-115108623D01*
X103284903Y-115202925D01*
X103043214Y-115251000D01*
X102796786Y-115251000D01*
X102555097Y-115202925D01*
X102327431Y-115108623D01*
X102327430Y-115108623D01*
X102327429Y-115108622D01*
X102122534Y-114971715D01*
X101948285Y-114797466D01*
X101811378Y-114592571D01*
X101717075Y-114364903D01*
X101669000Y-114123213D01*
X101669000Y-113876787D01*
X101717075Y-113635097D01*
X101717410Y-113634288D01*
X101811377Y-113407431D01*
X101948284Y-113202536D01*
X101948285Y-113202534D01*
X102122534Y-113028285D01*
X102327429Y-112891378D01*
X102555097Y-112797075D01*
X102796786Y-112749000D01*
X103043214Y-112749000D01*
X103284903Y-112797075D01*
G37*
G36*
X172151000Y-115151000D02*
G01*
X170349000Y-115151000D01*
X170349000Y-113349000D01*
X172151000Y-113349000D01*
X172151000Y-115151000D01*
G37*
G36*
X194394535Y-113021682D02*
G01*
X194480412Y-113038764D01*
X194642199Y-113105779D01*
X194787804Y-113203069D01*
X194911631Y-113326896D01*
X195008921Y-113472501D01*
X195075936Y-113634288D01*
X195110100Y-113806041D01*
X195110100Y-113981159D01*
X195075936Y-114152912D01*
X195008921Y-114314699D01*
X194911631Y-114460304D01*
X194787804Y-114584131D01*
X194642199Y-114681421D01*
X194480412Y-114748436D01*
X194394535Y-114765518D01*
X194308660Y-114782600D01*
X194133540Y-114782600D01*
X194047665Y-114765518D01*
X193961788Y-114748436D01*
X193800001Y-114681421D01*
X193654396Y-114584131D01*
X193530569Y-114460304D01*
X193433279Y-114314699D01*
X193366264Y-114152912D01*
X193332100Y-113981159D01*
X193332100Y-113806041D01*
X193366264Y-113634288D01*
X193433279Y-113472501D01*
X193530569Y-113326896D01*
X193654396Y-113203069D01*
X193800001Y-113105779D01*
X193961788Y-113038764D01*
X194047665Y-113021682D01*
X194133540Y-113004600D01*
X194308660Y-113004600D01*
X194394535Y-113021682D01*
G37*
G36*
X191854535Y-113021682D02*
G01*
X191940412Y-113038764D01*
X192102199Y-113105779D01*
X192247804Y-113203069D01*
X192371631Y-113326896D01*
X192468921Y-113472501D01*
X192535936Y-113634288D01*
X192570100Y-113806041D01*
X192570100Y-113981159D01*
X192535936Y-114152912D01*
X192468921Y-114314699D01*
X192371631Y-114460304D01*
X192247804Y-114584131D01*
X192102199Y-114681421D01*
X191940412Y-114748436D01*
X191854535Y-114765518D01*
X191768660Y-114782600D01*
X191593540Y-114782600D01*
X191507665Y-114765518D01*
X191421788Y-114748436D01*
X191260001Y-114681421D01*
X191114396Y-114584131D01*
X190990569Y-114460304D01*
X190893279Y-114314699D01*
X190826264Y-114152912D01*
X190792100Y-113981159D01*
X190792100Y-113806041D01*
X190826264Y-113634288D01*
X190893279Y-113472501D01*
X190990569Y-113326896D01*
X191114396Y-113203069D01*
X191260001Y-113105779D01*
X191421788Y-113038764D01*
X191507665Y-113021682D01*
X191593540Y-113004600D01*
X191768660Y-113004600D01*
X191854535Y-113021682D01*
G37*
G36*
X171363512Y-110813927D02*
G01*
X171512812Y-110843624D01*
X171676784Y-110911544D01*
X171824354Y-111010147D01*
X171949853Y-111135646D01*
X172048456Y-111283216D01*
X172116376Y-111447188D01*
X172146073Y-111596488D01*
X172148487Y-111608622D01*
X172151000Y-111621259D01*
X172151000Y-111798741D01*
X172116376Y-111972812D01*
X172048456Y-112136784D01*
X171949853Y-112284354D01*
X171824354Y-112409853D01*
X171676784Y-112508456D01*
X171512812Y-112576376D01*
X171363512Y-112606073D01*
X171338742Y-112611000D01*
X171161258Y-112611000D01*
X171136488Y-112606073D01*
X170987188Y-112576376D01*
X170823216Y-112508456D01*
X170675646Y-112409853D01*
X170550147Y-112284354D01*
X170451544Y-112136784D01*
X170383624Y-111972812D01*
X170349000Y-111798741D01*
X170349000Y-111621259D01*
X170351514Y-111608622D01*
X170353927Y-111596488D01*
X170383624Y-111447188D01*
X170451544Y-111283216D01*
X170550147Y-111135646D01*
X170675646Y-111010147D01*
X170823216Y-110911544D01*
X170987188Y-110843624D01*
X171136488Y-110813927D01*
X171161258Y-110809000D01*
X171338742Y-110809000D01*
X171363512Y-110813927D01*
G37*
G36*
X194394535Y-110481682D02*
G01*
X194480412Y-110498764D01*
X194642199Y-110565779D01*
X194787804Y-110663069D01*
X194911631Y-110786896D01*
X195008921Y-110932501D01*
X195075936Y-111094288D01*
X195110100Y-111266041D01*
X195110100Y-111441159D01*
X195075936Y-111612912D01*
X195008921Y-111774699D01*
X194911631Y-111920304D01*
X194787804Y-112044131D01*
X194642199Y-112141421D01*
X194480412Y-112208436D01*
X194308660Y-112242600D01*
X194133540Y-112242600D01*
X193961788Y-112208436D01*
X193800001Y-112141421D01*
X193654396Y-112044131D01*
X193530569Y-111920304D01*
X193433279Y-111774699D01*
X193366264Y-111612912D01*
X193332100Y-111441159D01*
X193332100Y-111266041D01*
X193366264Y-111094288D01*
X193433279Y-110932501D01*
X193530569Y-110786896D01*
X193654396Y-110663069D01*
X193800001Y-110565779D01*
X193961788Y-110498764D01*
X194047665Y-110481682D01*
X194133540Y-110464600D01*
X194308660Y-110464600D01*
X194394535Y-110481682D01*
G37*
G36*
X191854535Y-110481682D02*
G01*
X191940412Y-110498764D01*
X192102199Y-110565779D01*
X192247804Y-110663069D01*
X192371631Y-110786896D01*
X192468921Y-110932501D01*
X192535936Y-111094288D01*
X192570100Y-111266041D01*
X192570100Y-111441159D01*
X192535936Y-111612912D01*
X192468921Y-111774699D01*
X192371631Y-111920304D01*
X192247804Y-112044131D01*
X192102199Y-112141421D01*
X191940412Y-112208436D01*
X191768660Y-112242600D01*
X191593540Y-112242600D01*
X191421788Y-112208436D01*
X191260001Y-112141421D01*
X191114396Y-112044131D01*
X190990569Y-111920304D01*
X190893279Y-111774699D01*
X190826264Y-111612912D01*
X190792100Y-111441159D01*
X190792100Y-111266041D01*
X190826264Y-111094288D01*
X190893279Y-110932501D01*
X190990569Y-110786896D01*
X191114396Y-110663069D01*
X191260001Y-110565779D01*
X191421788Y-110498764D01*
X191507665Y-110481682D01*
X191593540Y-110464600D01*
X191768660Y-110464600D01*
X191854535Y-110481682D01*
G37*
G36*
X103284903Y-109297075D02*
G01*
X103376697Y-109335097D01*
X103512571Y-109391378D01*
X103717466Y-109528285D01*
X103891715Y-109702534D01*
X104003514Y-109869853D01*
X104028623Y-109907431D01*
X104122925Y-110135097D01*
X104171000Y-110376786D01*
X104171000Y-110623214D01*
X104161352Y-110671716D01*
X104122925Y-110864903D01*
X104028622Y-111092571D01*
X103891715Y-111297466D01*
X103717466Y-111471715D01*
X103512571Y-111608622D01*
X103512570Y-111608623D01*
X103512569Y-111608623D01*
X103284903Y-111702925D01*
X103043214Y-111751000D01*
X102796786Y-111751000D01*
X102555097Y-111702925D01*
X102327431Y-111608623D01*
X102327430Y-111608623D01*
X102327429Y-111608622D01*
X102122534Y-111471715D01*
X101948285Y-111297466D01*
X101811378Y-111092571D01*
X101717075Y-110864903D01*
X101678648Y-110671716D01*
X101669000Y-110623214D01*
X101669000Y-110376786D01*
X101717075Y-110135097D01*
X101811377Y-109907431D01*
X101836486Y-109869853D01*
X101948285Y-109702534D01*
X102122534Y-109528285D01*
X102327429Y-109391378D01*
X102463304Y-109335097D01*
X102555097Y-109297075D01*
X102796786Y-109249000D01*
X103043214Y-109249000D01*
X103284903Y-109297075D01*
G37*
G36*
X184164903Y-108497075D02*
G01*
X184392571Y-108591378D01*
X184597466Y-108728285D01*
X184771715Y-108902534D01*
X184908622Y-109107429D01*
X184908623Y-109107431D01*
X185002925Y-109335097D01*
X185051000Y-109576786D01*
X185051000Y-109823214D01*
X185008600Y-110036375D01*
X185002925Y-110064903D01*
X184908622Y-110292571D01*
X184771715Y-110497466D01*
X184597466Y-110671715D01*
X184392571Y-110808622D01*
X184392570Y-110808623D01*
X184392569Y-110808623D01*
X184164903Y-110902925D01*
X183923214Y-110951000D01*
X183676786Y-110951000D01*
X183435097Y-110902925D01*
X183207431Y-110808623D01*
X183207430Y-110808623D01*
X183207429Y-110808622D01*
X183002534Y-110671715D01*
X182828285Y-110497466D01*
X182691378Y-110292571D01*
X182597075Y-110064903D01*
X182591400Y-110036375D01*
X182549000Y-109823214D01*
X182549000Y-109576786D01*
X182597075Y-109335097D01*
X182691377Y-109107431D01*
X182691378Y-109107429D01*
X182828285Y-108902534D01*
X183002534Y-108728285D01*
X183207429Y-108591378D01*
X183435097Y-108497075D01*
X183676786Y-108449000D01*
X183923214Y-108449000D01*
X184164903Y-108497075D01*
G37*
G36*
X171363512Y-108273927D02*
G01*
X171512812Y-108303624D01*
X171676784Y-108371544D01*
X171824354Y-108470147D01*
X171949853Y-108595646D01*
X172048456Y-108743216D01*
X172116376Y-108907188D01*
X172151000Y-109081259D01*
X172151000Y-109258741D01*
X172116376Y-109432812D01*
X172048456Y-109596784D01*
X171949853Y-109744354D01*
X171824354Y-109869853D01*
X171676784Y-109968456D01*
X171512812Y-110036376D01*
X171369393Y-110064903D01*
X171338742Y-110071000D01*
X171161258Y-110071000D01*
X171130607Y-110064903D01*
X170987188Y-110036376D01*
X170823216Y-109968456D01*
X170675646Y-109869853D01*
X170550147Y-109744354D01*
X170451544Y-109596784D01*
X170383624Y-109432812D01*
X170349000Y-109258741D01*
X170349000Y-109081259D01*
X170383624Y-108907188D01*
X170451544Y-108743216D01*
X170550147Y-108595646D01*
X170675646Y-108470147D01*
X170823216Y-108371544D01*
X170987188Y-108303624D01*
X171136488Y-108273927D01*
X171161258Y-108269000D01*
X171338742Y-108269000D01*
X171363512Y-108273927D01*
G37*
G36*
X194394535Y-107941682D02*
G01*
X194480412Y-107958764D01*
X194642199Y-108025779D01*
X194787804Y-108123069D01*
X194911631Y-108246896D01*
X195008921Y-108392501D01*
X195075936Y-108554288D01*
X195083314Y-108591378D01*
X195110100Y-108726040D01*
X195110100Y-108901160D01*
X195109826Y-108902536D01*
X195075936Y-109072912D01*
X195008921Y-109234699D01*
X194911631Y-109380304D01*
X194787804Y-109504131D01*
X194642199Y-109601421D01*
X194480412Y-109668436D01*
X194394535Y-109685518D01*
X194308660Y-109702600D01*
X194133540Y-109702600D01*
X194047665Y-109685518D01*
X193961788Y-109668436D01*
X193800001Y-109601421D01*
X193654396Y-109504131D01*
X193530569Y-109380304D01*
X193433279Y-109234699D01*
X193366264Y-109072912D01*
X193332374Y-108902536D01*
X193332100Y-108901160D01*
X193332100Y-108726040D01*
X193358886Y-108591378D01*
X193366264Y-108554288D01*
X193433279Y-108392501D01*
X193530569Y-108246896D01*
X193654396Y-108123069D01*
X193800001Y-108025779D01*
X193961788Y-107958764D01*
X194047665Y-107941682D01*
X194133540Y-107924600D01*
X194308660Y-107924600D01*
X194394535Y-107941682D01*
G37*
G36*
X191854535Y-107941682D02*
G01*
X191940412Y-107958764D01*
X192102199Y-108025779D01*
X192247804Y-108123069D01*
X192371631Y-108246896D01*
X192468921Y-108392501D01*
X192535936Y-108554288D01*
X192543314Y-108591378D01*
X192570100Y-108726040D01*
X192570100Y-108901160D01*
X192569826Y-108902536D01*
X192535936Y-109072912D01*
X192468921Y-109234699D01*
X192371631Y-109380304D01*
X192247804Y-109504131D01*
X192102199Y-109601421D01*
X191940412Y-109668436D01*
X191854535Y-109685518D01*
X191768660Y-109702600D01*
X191593540Y-109702600D01*
X191507665Y-109685518D01*
X191421788Y-109668436D01*
X191260001Y-109601421D01*
X191114396Y-109504131D01*
X190990569Y-109380304D01*
X190893279Y-109234699D01*
X190826264Y-109072912D01*
X190792374Y-108902536D01*
X190792100Y-108901160D01*
X190792100Y-108726040D01*
X190818886Y-108591378D01*
X190826264Y-108554288D01*
X190893279Y-108392501D01*
X190990569Y-108246896D01*
X191114396Y-108123069D01*
X191260001Y-108025779D01*
X191421788Y-107958764D01*
X191507665Y-107941682D01*
X191593540Y-107924600D01*
X191768660Y-107924600D01*
X191854535Y-107941682D01*
G37*
G36*
X103284903Y-105797075D02*
G01*
X103418719Y-105852503D01*
X103512571Y-105891378D01*
X103717466Y-106028285D01*
X103891715Y-106202534D01*
X104001734Y-106367189D01*
X104028623Y-106407431D01*
X104122925Y-106635097D01*
X104171000Y-106876786D01*
X104171000Y-107123214D01*
X104122925Y-107364903D01*
X104054126Y-107531000D01*
X104028622Y-107592571D01*
X103891715Y-107797466D01*
X103717466Y-107971715D01*
X103512571Y-108108622D01*
X103512570Y-108108623D01*
X103512569Y-108108623D01*
X103284903Y-108202925D01*
X103043214Y-108251000D01*
X102796786Y-108251000D01*
X102555097Y-108202925D01*
X102327431Y-108108623D01*
X102327430Y-108108623D01*
X102327429Y-108108622D01*
X102122534Y-107971715D01*
X101948285Y-107797466D01*
X101811378Y-107592571D01*
X101785875Y-107531000D01*
X101717075Y-107364903D01*
X101669000Y-107123214D01*
X101669000Y-106876786D01*
X101717075Y-106635097D01*
X101811377Y-106407431D01*
X101838266Y-106367189D01*
X101948285Y-106202534D01*
X102122534Y-106028285D01*
X102327429Y-105891378D01*
X102421282Y-105852503D01*
X102555097Y-105797075D01*
X102796786Y-105749000D01*
X103043214Y-105749000D01*
X103284903Y-105797075D01*
G37*
G36*
X171363512Y-105733927D02*
G01*
X171512812Y-105763624D01*
X171676784Y-105831544D01*
X171824354Y-105930147D01*
X171949853Y-106055646D01*
X172048456Y-106203216D01*
X172116376Y-106367188D01*
X172151000Y-106541259D01*
X172151000Y-106718741D01*
X172116376Y-106892812D01*
X172048456Y-107056784D01*
X171949853Y-107204354D01*
X171824354Y-107329853D01*
X171676784Y-107428456D01*
X171512812Y-107496376D01*
X171363512Y-107526073D01*
X171338742Y-107531000D01*
X171161258Y-107531000D01*
X171136488Y-107526073D01*
X170987188Y-107496376D01*
X170823216Y-107428456D01*
X170675646Y-107329853D01*
X170550147Y-107204354D01*
X170451544Y-107056784D01*
X170383624Y-106892812D01*
X170349000Y-106718741D01*
X170349000Y-106541259D01*
X170383624Y-106367188D01*
X170451544Y-106203216D01*
X170550147Y-106055646D01*
X170675646Y-105930147D01*
X170823216Y-105831544D01*
X170987188Y-105763624D01*
X171136488Y-105733927D01*
X171161258Y-105729000D01*
X171338742Y-105729000D01*
X171363512Y-105733927D01*
G37*
G36*
X184134362Y-104991000D02*
G01*
X184164903Y-104997075D01*
X184392571Y-105091378D01*
X184597466Y-105228285D01*
X184771715Y-105402534D01*
X184892345Y-105583069D01*
X184908623Y-105607431D01*
X185002925Y-105835097D01*
X185051000Y-106076786D01*
X185051000Y-106323214D01*
X185034248Y-106407431D01*
X185002925Y-106564903D01*
X184908622Y-106792571D01*
X184771715Y-106997466D01*
X184597466Y-107171715D01*
X184392571Y-107308622D01*
X184392570Y-107308623D01*
X184392569Y-107308623D01*
X184164903Y-107402925D01*
X183923214Y-107451000D01*
X183676786Y-107451000D01*
X183435097Y-107402925D01*
X183207431Y-107308623D01*
X183207430Y-107308623D01*
X183207429Y-107308622D01*
X183002534Y-107171715D01*
X182828285Y-106997466D01*
X182691378Y-106792571D01*
X182597075Y-106564903D01*
X182565752Y-106407431D01*
X182549000Y-106323214D01*
X182549000Y-106076786D01*
X182597075Y-105835097D01*
X182691377Y-105607431D01*
X182707655Y-105583069D01*
X182828285Y-105402534D01*
X183002534Y-105228285D01*
X183207429Y-105091378D01*
X183435097Y-104997075D01*
X183465638Y-104991000D01*
X183676786Y-104949000D01*
X183923214Y-104949000D01*
X184134362Y-104991000D01*
G37*
G36*
X191940412Y-105418764D02*
G01*
X192102199Y-105485779D01*
X192247804Y-105583069D01*
X192371631Y-105706896D01*
X192468921Y-105852501D01*
X192535936Y-106014288D01*
X192570100Y-106186041D01*
X192570100Y-106361159D01*
X192535936Y-106532912D01*
X192468921Y-106694699D01*
X192371631Y-106840304D01*
X192247804Y-106964131D01*
X192102199Y-107061421D01*
X191940412Y-107128436D01*
X191854535Y-107145518D01*
X191768660Y-107162600D01*
X191593540Y-107162600D01*
X191507665Y-107145518D01*
X191421788Y-107128436D01*
X191260001Y-107061421D01*
X191114396Y-106964131D01*
X190990569Y-106840304D01*
X190893279Y-106694699D01*
X190826264Y-106532912D01*
X190792100Y-106361159D01*
X190792100Y-106186041D01*
X190826264Y-106014288D01*
X190893279Y-105852501D01*
X190990569Y-105706896D01*
X191114396Y-105583069D01*
X191260001Y-105485779D01*
X191421788Y-105418764D01*
X191507665Y-105401682D01*
X191593540Y-105384600D01*
X191768660Y-105384600D01*
X191940412Y-105418764D01*
G37*
G36*
X194480412Y-105418764D02*
G01*
X194642199Y-105485779D01*
X194787804Y-105583069D01*
X194911631Y-105706896D01*
X195008921Y-105852501D01*
X195075936Y-106014288D01*
X195110100Y-106186041D01*
X195110100Y-106361159D01*
X195075936Y-106532912D01*
X195008921Y-106694699D01*
X194911631Y-106840304D01*
X194787804Y-106964131D01*
X194642199Y-107061421D01*
X194480412Y-107128436D01*
X194394535Y-107145518D01*
X194308660Y-107162600D01*
X194133540Y-107162600D01*
X194047665Y-107145518D01*
X193961788Y-107128436D01*
X193800001Y-107061421D01*
X193654396Y-106964131D01*
X193530569Y-106840304D01*
X193433279Y-106694699D01*
X193366264Y-106532912D01*
X193332100Y-106361159D01*
X193332100Y-106186041D01*
X193366264Y-106014288D01*
X193433279Y-105852501D01*
X193530569Y-105706896D01*
X193654396Y-105583069D01*
X193800001Y-105485779D01*
X193961788Y-105418764D01*
X194047665Y-105401682D01*
X194133540Y-105384600D01*
X194308660Y-105384600D01*
X194480412Y-105418764D01*
G37*
G36*
X171363512Y-103193927D02*
G01*
X171512812Y-103223624D01*
X171676784Y-103291544D01*
X171824354Y-103390147D01*
X171949853Y-103515646D01*
X172048456Y-103663216D01*
X172116376Y-103827188D01*
X172151000Y-104001259D01*
X172151000Y-104178741D01*
X172116376Y-104352812D01*
X172048456Y-104516784D01*
X171949853Y-104664354D01*
X171824354Y-104789853D01*
X171676784Y-104888456D01*
X171512812Y-104956376D01*
X171363512Y-104986073D01*
X171338742Y-104991000D01*
X171161258Y-104991000D01*
X171136488Y-104986073D01*
X170987188Y-104956376D01*
X170823216Y-104888456D01*
X170675646Y-104789853D01*
X170550147Y-104664354D01*
X170451544Y-104516784D01*
X170383624Y-104352812D01*
X170349000Y-104178741D01*
X170349000Y-104001259D01*
X170383624Y-103827188D01*
X170451544Y-103663216D01*
X170550147Y-103515646D01*
X170675646Y-103390147D01*
X170823216Y-103291544D01*
X170987188Y-103223624D01*
X171136488Y-103193927D01*
X171161258Y-103189000D01*
X171338742Y-103189000D01*
X171363512Y-103193927D01*
G37*
G36*
X103284903Y-102297075D02*
G01*
X103376697Y-102335097D01*
X103512571Y-102391378D01*
X103717466Y-102528285D01*
X103891715Y-102702534D01*
X104028622Y-102907429D01*
X104028623Y-102907431D01*
X104122925Y-103135097D01*
X104171000Y-103376786D01*
X104171000Y-103623214D01*
X104122925Y-103864903D01*
X104069903Y-103992911D01*
X104028622Y-104092571D01*
X103891715Y-104297466D01*
X103717466Y-104471715D01*
X103512571Y-104608622D01*
X103512570Y-104608623D01*
X103512569Y-104608623D01*
X103284903Y-104702925D01*
X103043214Y-104751000D01*
X102796786Y-104751000D01*
X102555097Y-104702925D01*
X102327431Y-104608623D01*
X102327430Y-104608623D01*
X102327429Y-104608622D01*
X102122534Y-104471715D01*
X101948285Y-104297466D01*
X101811378Y-104092571D01*
X101770098Y-103992911D01*
X101717075Y-103864903D01*
X101669000Y-103623214D01*
X101669000Y-103376786D01*
X101717075Y-103135097D01*
X101811377Y-102907431D01*
X101811378Y-102907429D01*
X101948285Y-102702534D01*
X102122534Y-102528285D01*
X102327429Y-102391378D01*
X102463304Y-102335097D01*
X102555097Y-102297075D01*
X102796786Y-102249000D01*
X103043214Y-102249000D01*
X103284903Y-102297075D01*
G37*
G36*
X191854535Y-102861682D02*
G01*
X191940412Y-102878764D01*
X192102199Y-102945779D01*
X192247804Y-103043069D01*
X192371631Y-103166896D01*
X192386400Y-103189000D01*
X192468922Y-103312503D01*
X192535936Y-103474289D01*
X192565560Y-103623214D01*
X192570100Y-103646041D01*
X192570100Y-103821159D01*
X192535936Y-103992912D01*
X192468921Y-104154699D01*
X192371631Y-104300304D01*
X192247804Y-104424131D01*
X192102199Y-104521421D01*
X191940412Y-104588436D01*
X191854535Y-104605518D01*
X191768660Y-104622600D01*
X191593540Y-104622600D01*
X191421788Y-104588436D01*
X191260001Y-104521421D01*
X191114396Y-104424131D01*
X190990569Y-104300304D01*
X190893279Y-104154699D01*
X190826264Y-103992912D01*
X190792100Y-103821159D01*
X190792100Y-103646041D01*
X190796641Y-103623214D01*
X190826264Y-103474289D01*
X190893278Y-103312503D01*
X190975800Y-103189000D01*
X190990569Y-103166896D01*
X191114396Y-103043069D01*
X191260001Y-102945779D01*
X191421788Y-102878764D01*
X191507665Y-102861682D01*
X191593540Y-102844600D01*
X191768660Y-102844600D01*
X191854535Y-102861682D01*
G37*
G36*
X194394535Y-102861682D02*
G01*
X194480412Y-102878764D01*
X194642199Y-102945779D01*
X194787804Y-103043069D01*
X194911631Y-103166896D01*
X194926400Y-103189000D01*
X195008922Y-103312503D01*
X195075936Y-103474289D01*
X195105560Y-103623214D01*
X195110100Y-103646041D01*
X195110100Y-103821159D01*
X195075936Y-103992912D01*
X195008921Y-104154699D01*
X194911631Y-104300304D01*
X194787804Y-104424131D01*
X194642199Y-104521421D01*
X194480412Y-104588436D01*
X194394535Y-104605518D01*
X194308660Y-104622600D01*
X194133540Y-104622600D01*
X193961788Y-104588436D01*
X193800001Y-104521421D01*
X193654396Y-104424131D01*
X193530569Y-104300304D01*
X193433279Y-104154699D01*
X193366264Y-103992912D01*
X193332100Y-103821159D01*
X193332100Y-103646041D01*
X193336641Y-103623214D01*
X193366264Y-103474289D01*
X193433278Y-103312503D01*
X193515800Y-103189000D01*
X193530569Y-103166896D01*
X193654396Y-103043069D01*
X193800001Y-102945779D01*
X193961788Y-102878764D01*
X194047665Y-102861682D01*
X194133540Y-102844600D01*
X194308660Y-102844600D01*
X194394535Y-102861682D01*
G37*
G36*
X184164903Y-101497075D02*
G01*
X184392571Y-101591378D01*
X184597466Y-101728285D01*
X184771715Y-101902534D01*
X184908622Y-102107429D01*
X184908623Y-102107431D01*
X185002925Y-102335097D01*
X185051000Y-102576786D01*
X185051000Y-102823214D01*
X185002925Y-103064903D01*
X184909048Y-103291544D01*
X184908622Y-103292571D01*
X184771715Y-103497466D01*
X184597466Y-103671715D01*
X184392571Y-103808622D01*
X184392570Y-103808623D01*
X184392569Y-103808623D01*
X184164903Y-103902925D01*
X183923214Y-103951000D01*
X183676786Y-103951000D01*
X183435097Y-103902925D01*
X183207431Y-103808623D01*
X183207430Y-103808623D01*
X183207429Y-103808622D01*
X183002534Y-103671715D01*
X182828285Y-103497466D01*
X182691378Y-103292571D01*
X182690953Y-103291544D01*
X182597075Y-103064903D01*
X182549000Y-102823214D01*
X182549000Y-102576786D01*
X182597075Y-102335097D01*
X182691377Y-102107431D01*
X182691378Y-102107429D01*
X182828285Y-101902534D01*
X183002534Y-101728285D01*
X183207429Y-101591378D01*
X183435097Y-101497075D01*
X183676786Y-101449000D01*
X183923214Y-101449000D01*
X184164903Y-101497075D01*
G37*
G36*
X171363512Y-100653927D02*
G01*
X171512812Y-100683624D01*
X171676784Y-100751544D01*
X171824354Y-100850147D01*
X171949853Y-100975646D01*
X172048456Y-101123216D01*
X172116376Y-101287188D01*
X172151000Y-101461259D01*
X172151000Y-101638741D01*
X172116376Y-101812812D01*
X172048456Y-101976784D01*
X171949853Y-102124354D01*
X171824354Y-102249853D01*
X171676784Y-102348456D01*
X171512812Y-102416376D01*
X171363512Y-102446073D01*
X171338742Y-102451000D01*
X171161258Y-102451000D01*
X171136488Y-102446073D01*
X170987188Y-102416376D01*
X170823216Y-102348456D01*
X170675646Y-102249853D01*
X170550147Y-102124354D01*
X170451544Y-101976784D01*
X170383624Y-101812812D01*
X170349000Y-101638741D01*
X170349000Y-101461259D01*
X170383624Y-101287188D01*
X170451544Y-101123216D01*
X170550147Y-100975646D01*
X170675646Y-100850147D01*
X170823216Y-100751544D01*
X170987188Y-100683624D01*
X171136488Y-100653927D01*
X171161258Y-100649000D01*
X171338742Y-100649000D01*
X171363512Y-100653927D01*
G37*
G36*
X194480412Y-100338764D02*
G01*
X194642199Y-100405779D01*
X194787804Y-100503069D01*
X194911631Y-100626896D01*
X195008921Y-100772501D01*
X195075936Y-100934288D01*
X195110100Y-101106041D01*
X195110100Y-101281159D01*
X195075936Y-101452912D01*
X195008921Y-101614699D01*
X194911631Y-101760304D01*
X194787804Y-101884131D01*
X194642199Y-101981421D01*
X194480412Y-102048436D01*
X194308660Y-102082600D01*
X194133540Y-102082600D01*
X194047665Y-102065518D01*
X193961788Y-102048436D01*
X193800001Y-101981421D01*
X193654396Y-101884131D01*
X193530569Y-101760304D01*
X193433279Y-101614699D01*
X193366264Y-101452912D01*
X193332100Y-101281159D01*
X193332100Y-101106041D01*
X193366264Y-100934288D01*
X193433279Y-100772501D01*
X193530569Y-100626896D01*
X193654396Y-100503069D01*
X193800001Y-100405779D01*
X193961788Y-100338764D01*
X194133540Y-100304600D01*
X194308660Y-100304600D01*
X194480412Y-100338764D01*
G37*
G36*
X191940412Y-100338764D02*
G01*
X192102199Y-100405779D01*
X192247804Y-100503069D01*
X192371631Y-100626896D01*
X192468921Y-100772501D01*
X192535936Y-100934288D01*
X192570100Y-101106041D01*
X192570100Y-101281159D01*
X192535936Y-101452912D01*
X192468921Y-101614699D01*
X192371631Y-101760304D01*
X192247804Y-101884131D01*
X192102199Y-101981421D01*
X191940412Y-102048436D01*
X191768660Y-102082600D01*
X191593540Y-102082600D01*
X191507665Y-102065518D01*
X191421788Y-102048436D01*
X191260001Y-101981421D01*
X191114396Y-101884131D01*
X190990569Y-101760304D01*
X190893279Y-101614699D01*
X190826264Y-101452912D01*
X190792100Y-101281159D01*
X190792100Y-101106041D01*
X190826264Y-100934288D01*
X190893279Y-100772501D01*
X190990569Y-100626896D01*
X191114396Y-100503069D01*
X191260001Y-100405779D01*
X191421788Y-100338764D01*
X191593540Y-100304600D01*
X191768660Y-100304600D01*
X191940412Y-100338764D01*
G37*
G36*
X103284903Y-98797075D02*
G01*
X103376697Y-98835097D01*
X103512571Y-98891378D01*
X103717466Y-99028285D01*
X103891715Y-99202534D01*
X103938673Y-99272812D01*
X104028623Y-99407431D01*
X104122925Y-99635097D01*
X104171000Y-99876786D01*
X104171000Y-100123214D01*
X104161352Y-100171716D01*
X104122925Y-100364903D01*
X104028622Y-100592571D01*
X103891715Y-100797466D01*
X103717466Y-100971715D01*
X103512571Y-101108622D01*
X103512570Y-101108623D01*
X103512569Y-101108623D01*
X103284903Y-101202925D01*
X103043214Y-101251000D01*
X102796786Y-101251000D01*
X102555097Y-101202925D01*
X102327431Y-101108623D01*
X102327430Y-101108623D01*
X102327429Y-101108622D01*
X102122534Y-100971715D01*
X101948285Y-100797466D01*
X101811378Y-100592571D01*
X101717075Y-100364903D01*
X101678648Y-100171716D01*
X101669000Y-100123214D01*
X101669000Y-99876786D01*
X101717075Y-99635097D01*
X101811377Y-99407431D01*
X101901327Y-99272812D01*
X101948285Y-99202534D01*
X102122534Y-99028285D01*
X102327429Y-98891378D01*
X102463304Y-98835097D01*
X102555097Y-98797075D01*
X102796786Y-98749000D01*
X103043214Y-98749000D01*
X103284903Y-98797075D01*
G37*
G36*
X184164903Y-97997075D02*
G01*
X184381751Y-98086896D01*
X184392571Y-98091378D01*
X184597466Y-98228285D01*
X184771715Y-98402534D01*
X184908622Y-98607429D01*
X184908623Y-98607431D01*
X185002925Y-98835097D01*
X185051000Y-99076786D01*
X185051000Y-99323214D01*
X185034248Y-99407431D01*
X185002925Y-99564903D01*
X184908622Y-99792571D01*
X184771715Y-99997466D01*
X184597466Y-100171715D01*
X184392571Y-100308622D01*
X184392570Y-100308623D01*
X184392569Y-100308623D01*
X184164903Y-100402925D01*
X183923214Y-100451000D01*
X183676786Y-100451000D01*
X183435097Y-100402925D01*
X183207431Y-100308623D01*
X183207430Y-100308623D01*
X183207429Y-100308622D01*
X183002534Y-100171715D01*
X182828285Y-99997466D01*
X182691378Y-99792571D01*
X182597075Y-99564903D01*
X182565752Y-99407431D01*
X182549000Y-99323214D01*
X182549000Y-99076786D01*
X182597075Y-98835097D01*
X182691377Y-98607431D01*
X182691378Y-98607429D01*
X182828285Y-98402534D01*
X183002534Y-98228285D01*
X183207429Y-98091378D01*
X183218250Y-98086896D01*
X183435097Y-97997075D01*
X183676786Y-97949000D01*
X183923214Y-97949000D01*
X184164903Y-97997075D01*
G37*
G36*
X171363512Y-98113927D02*
G01*
X171512812Y-98143624D01*
X171676784Y-98211544D01*
X171824354Y-98310147D01*
X171949853Y-98435646D01*
X172048456Y-98583216D01*
X172116376Y-98747188D01*
X172151000Y-98921259D01*
X172151000Y-99098741D01*
X172116376Y-99272812D01*
X172048456Y-99436784D01*
X171949853Y-99584354D01*
X171824354Y-99709853D01*
X171676784Y-99808456D01*
X171512812Y-99876376D01*
X171363512Y-99906073D01*
X171338742Y-99911000D01*
X171161258Y-99911000D01*
X171136488Y-99906073D01*
X170987188Y-99876376D01*
X170823216Y-99808456D01*
X170675646Y-99709853D01*
X170550147Y-99584354D01*
X170451544Y-99436784D01*
X170383624Y-99272812D01*
X170349000Y-99098741D01*
X170349000Y-98921259D01*
X170383624Y-98747188D01*
X170451544Y-98583216D01*
X170550147Y-98435646D01*
X170675646Y-98310147D01*
X170823216Y-98211544D01*
X170987188Y-98143624D01*
X171136488Y-98113927D01*
X171161258Y-98109000D01*
X171338742Y-98109000D01*
X171363512Y-98113927D01*
G37*
G36*
X191940412Y-97798764D02*
G01*
X192102199Y-97865779D01*
X192247804Y-97963069D01*
X192371631Y-98086896D01*
X192468921Y-98232501D01*
X192535936Y-98394288D01*
X192570100Y-98566041D01*
X192570100Y-98741159D01*
X192535936Y-98912912D01*
X192468921Y-99074699D01*
X192371631Y-99220304D01*
X192247804Y-99344131D01*
X192102199Y-99441421D01*
X191940412Y-99508436D01*
X191854535Y-99525518D01*
X191768660Y-99542600D01*
X191593540Y-99542600D01*
X191507665Y-99525518D01*
X191421788Y-99508436D01*
X191260001Y-99441421D01*
X191114396Y-99344131D01*
X190990569Y-99220304D01*
X190893279Y-99074699D01*
X190826264Y-98912912D01*
X190792100Y-98741159D01*
X190792100Y-98566041D01*
X190826264Y-98394288D01*
X190893279Y-98232501D01*
X190990569Y-98086896D01*
X191114396Y-97963069D01*
X191260001Y-97865779D01*
X191421788Y-97798764D01*
X191593540Y-97764600D01*
X191768660Y-97764600D01*
X191940412Y-97798764D01*
G37*
G36*
X194480412Y-97798764D02*
G01*
X194642199Y-97865779D01*
X194787804Y-97963069D01*
X194911631Y-98086896D01*
X195008921Y-98232501D01*
X195075936Y-98394288D01*
X195110100Y-98566041D01*
X195110100Y-98741159D01*
X195075936Y-98912912D01*
X195008921Y-99074699D01*
X194911631Y-99220304D01*
X194787804Y-99344131D01*
X194642199Y-99441421D01*
X194480412Y-99508436D01*
X194394535Y-99525518D01*
X194308660Y-99542600D01*
X194133540Y-99542600D01*
X194047665Y-99525518D01*
X193961788Y-99508436D01*
X193800001Y-99441421D01*
X193654396Y-99344131D01*
X193530569Y-99220304D01*
X193433279Y-99074699D01*
X193366264Y-98912912D01*
X193332100Y-98741159D01*
X193332100Y-98566041D01*
X193366264Y-98394288D01*
X193433279Y-98232501D01*
X193530569Y-98086896D01*
X193654396Y-97963069D01*
X193800001Y-97865779D01*
X193961788Y-97798764D01*
X194133540Y-97764600D01*
X194308660Y-97764600D01*
X194480412Y-97798764D01*
G37*
G36*
X103284903Y-95297075D02*
G01*
X103376697Y-95335097D01*
X103512571Y-95391378D01*
X103717466Y-95528285D01*
X103891715Y-95702534D01*
X104020749Y-95895647D01*
X104028623Y-95907431D01*
X104122925Y-96135097D01*
X104171000Y-96376786D01*
X104171000Y-96623214D01*
X104122925Y-96864903D01*
X104109720Y-96896784D01*
X104028622Y-97092571D01*
X103891715Y-97297466D01*
X103717466Y-97471715D01*
X103512571Y-97608622D01*
X103512570Y-97608623D01*
X103512569Y-97608623D01*
X103284903Y-97702925D01*
X103043214Y-97751000D01*
X102796786Y-97751000D01*
X102555097Y-97702925D01*
X102327431Y-97608623D01*
X102327430Y-97608623D01*
X102327429Y-97608622D01*
X102122534Y-97471715D01*
X101948285Y-97297466D01*
X101811378Y-97092571D01*
X101730281Y-96896784D01*
X101717075Y-96864903D01*
X101669000Y-96623214D01*
X101669000Y-96376786D01*
X101717075Y-96135097D01*
X101811377Y-95907431D01*
X101819251Y-95895647D01*
X101948285Y-95702534D01*
X102122534Y-95528285D01*
X102327429Y-95391378D01*
X102463304Y-95335097D01*
X102555097Y-95297075D01*
X102796786Y-95249000D01*
X103043214Y-95249000D01*
X103284903Y-95297075D01*
G37*
G36*
X171363512Y-95573927D02*
G01*
X171512812Y-95603624D01*
X171676784Y-95671544D01*
X171824354Y-95770147D01*
X171949853Y-95895646D01*
X172048456Y-96043216D01*
X172116376Y-96207188D01*
X172133359Y-96292571D01*
X172150111Y-96376787D01*
X172151000Y-96381259D01*
X172151000Y-96558741D01*
X172116376Y-96732812D01*
X172048456Y-96896784D01*
X171949853Y-97044354D01*
X171824354Y-97169853D01*
X171676784Y-97268456D01*
X171512812Y-97336376D01*
X171363512Y-97366073D01*
X171338742Y-97371000D01*
X171161258Y-97371000D01*
X171136488Y-97366073D01*
X170987188Y-97336376D01*
X170823216Y-97268456D01*
X170675646Y-97169853D01*
X170550147Y-97044354D01*
X170451544Y-96896784D01*
X170383624Y-96732812D01*
X170349000Y-96558741D01*
X170349000Y-96381259D01*
X170349890Y-96376787D01*
X170366641Y-96292571D01*
X170383624Y-96207188D01*
X170451544Y-96043216D01*
X170550147Y-95895646D01*
X170675646Y-95770147D01*
X170823216Y-95671544D01*
X170987188Y-95603624D01*
X171136488Y-95573927D01*
X171161258Y-95569000D01*
X171338742Y-95569000D01*
X171363512Y-95573927D01*
G37*
G36*
X191854535Y-95241682D02*
G01*
X191940412Y-95258764D01*
X192102199Y-95325779D01*
X192247804Y-95423069D01*
X192371631Y-95546896D01*
X192468921Y-95692501D01*
X192535936Y-95854288D01*
X192570100Y-96026041D01*
X192570100Y-96201159D01*
X192535936Y-96372912D01*
X192468921Y-96534699D01*
X192371631Y-96680304D01*
X192247804Y-96804131D01*
X192102199Y-96901421D01*
X191940412Y-96968436D01*
X191768660Y-97002600D01*
X191593540Y-97002600D01*
X191421788Y-96968436D01*
X191260001Y-96901421D01*
X191114396Y-96804131D01*
X190990569Y-96680304D01*
X190893279Y-96534699D01*
X190826264Y-96372912D01*
X190792100Y-96201159D01*
X190792100Y-96026041D01*
X190826264Y-95854288D01*
X190893279Y-95692501D01*
X190990569Y-95546896D01*
X191114396Y-95423069D01*
X191260001Y-95325779D01*
X191421788Y-95258764D01*
X191507665Y-95241682D01*
X191593540Y-95224600D01*
X191768660Y-95224600D01*
X191854535Y-95241682D01*
G37*
G36*
X194394535Y-95241682D02*
G01*
X194480412Y-95258764D01*
X194642199Y-95325779D01*
X194787804Y-95423069D01*
X194911631Y-95546896D01*
X195008921Y-95692501D01*
X195075936Y-95854288D01*
X195110100Y-96026041D01*
X195110100Y-96201159D01*
X195075936Y-96372912D01*
X195008921Y-96534699D01*
X194911631Y-96680304D01*
X194787804Y-96804131D01*
X194642199Y-96901421D01*
X194480412Y-96968436D01*
X194308660Y-97002600D01*
X194133540Y-97002600D01*
X193961788Y-96968436D01*
X193800001Y-96901421D01*
X193654396Y-96804131D01*
X193530569Y-96680304D01*
X193433279Y-96534699D01*
X193366264Y-96372912D01*
X193332100Y-96201159D01*
X193332100Y-96026041D01*
X193366264Y-95854288D01*
X193433279Y-95692501D01*
X193530569Y-95546896D01*
X193654396Y-95423069D01*
X193800001Y-95325779D01*
X193961788Y-95258764D01*
X194047665Y-95241682D01*
X194133540Y-95224600D01*
X194308660Y-95224600D01*
X194394535Y-95241682D01*
G37*
G36*
X184164903Y-94497075D02*
G01*
X184392571Y-94591378D01*
X184597466Y-94728285D01*
X184771715Y-94902534D01*
X184771716Y-94902536D01*
X184908623Y-95107431D01*
X185002925Y-95335097D01*
X185051000Y-95576786D01*
X185051000Y-95823214D01*
X185034248Y-95907431D01*
X185002925Y-96064903D01*
X184908622Y-96292571D01*
X184771715Y-96497466D01*
X184597466Y-96671715D01*
X184392571Y-96808622D01*
X184392570Y-96808623D01*
X184392569Y-96808623D01*
X184164903Y-96902925D01*
X183923214Y-96951000D01*
X183676786Y-96951000D01*
X183435097Y-96902925D01*
X183207431Y-96808623D01*
X183207430Y-96808623D01*
X183207429Y-96808622D01*
X183002534Y-96671715D01*
X182828285Y-96497466D01*
X182691378Y-96292571D01*
X182597075Y-96064903D01*
X182565752Y-95907431D01*
X182549000Y-95823214D01*
X182549000Y-95576786D01*
X182597075Y-95335097D01*
X182691377Y-95107431D01*
X182828284Y-94902536D01*
X182828285Y-94902534D01*
X183002534Y-94728285D01*
X183207429Y-94591378D01*
X183435097Y-94497075D01*
X183676786Y-94449000D01*
X183923214Y-94449000D01*
X184164903Y-94497075D01*
G37*
G36*
X171363512Y-93033927D02*
G01*
X171512812Y-93063624D01*
X171676784Y-93131544D01*
X171824354Y-93230147D01*
X171949853Y-93355646D01*
X172048456Y-93503216D01*
X172116376Y-93667188D01*
X172151000Y-93841259D01*
X172151000Y-94018741D01*
X172116376Y-94192812D01*
X172048456Y-94356784D01*
X171949853Y-94504354D01*
X171824354Y-94629853D01*
X171676784Y-94728456D01*
X171512812Y-94796376D01*
X171363512Y-94826073D01*
X171338742Y-94831000D01*
X171161258Y-94831000D01*
X171136488Y-94826073D01*
X170987188Y-94796376D01*
X170823216Y-94728456D01*
X170675646Y-94629853D01*
X170550147Y-94504354D01*
X170451544Y-94356784D01*
X170383624Y-94192812D01*
X170349000Y-94018741D01*
X170349000Y-93841259D01*
X170383624Y-93667188D01*
X170451544Y-93503216D01*
X170550147Y-93355646D01*
X170675646Y-93230147D01*
X170823216Y-93131544D01*
X170987188Y-93063624D01*
X171136488Y-93033927D01*
X171161258Y-93029000D01*
X171338742Y-93029000D01*
X171363512Y-93033927D01*
G37*
G36*
X191940412Y-92718764D02*
G01*
X192102199Y-92785779D01*
X192247804Y-92883069D01*
X192371631Y-93006896D01*
X192468921Y-93152501D01*
X192535936Y-93314288D01*
X192570100Y-93486041D01*
X192570100Y-93661159D01*
X192535936Y-93832912D01*
X192468921Y-93994699D01*
X192371631Y-94140304D01*
X192247804Y-94264131D01*
X192102199Y-94361421D01*
X191940412Y-94428436D01*
X191854535Y-94445518D01*
X191768660Y-94462600D01*
X191593540Y-94462600D01*
X191507665Y-94445518D01*
X191421788Y-94428436D01*
X191260001Y-94361421D01*
X191114396Y-94264131D01*
X190990569Y-94140304D01*
X190893279Y-93994699D01*
X190826264Y-93832912D01*
X190792100Y-93661159D01*
X190792100Y-93486041D01*
X190826264Y-93314288D01*
X190893279Y-93152501D01*
X190990569Y-93006896D01*
X191114396Y-92883069D01*
X191260001Y-92785779D01*
X191421788Y-92718764D01*
X191593540Y-92684600D01*
X191768660Y-92684600D01*
X191940412Y-92718764D01*
G37*
G36*
X194480412Y-92718764D02*
G01*
X194642199Y-92785779D01*
X194787804Y-92883069D01*
X194911631Y-93006896D01*
X195008921Y-93152501D01*
X195075936Y-93314288D01*
X195110100Y-93486041D01*
X195110100Y-93661159D01*
X195075936Y-93832912D01*
X195008921Y-93994699D01*
X194911631Y-94140304D01*
X194787804Y-94264131D01*
X194642199Y-94361421D01*
X194480412Y-94428436D01*
X194394535Y-94445518D01*
X194308660Y-94462600D01*
X194133540Y-94462600D01*
X194047665Y-94445518D01*
X193961788Y-94428436D01*
X193800001Y-94361421D01*
X193654396Y-94264131D01*
X193530569Y-94140304D01*
X193433279Y-93994699D01*
X193366264Y-93832912D01*
X193332100Y-93661159D01*
X193332100Y-93486041D01*
X193366264Y-93314288D01*
X193433279Y-93152501D01*
X193530569Y-93006896D01*
X193654396Y-92883069D01*
X193800001Y-92785779D01*
X193961788Y-92718764D01*
X194133540Y-92684600D01*
X194308660Y-92684600D01*
X194480412Y-92718764D01*
G37*
G36*
X103284903Y-91797075D02*
G01*
X103505469Y-91888436D01*
X103512571Y-91891378D01*
X103717466Y-92028285D01*
X103891715Y-92202534D01*
X103891716Y-92202536D01*
X104028623Y-92407431D01*
X104122925Y-92635097D01*
X104171000Y-92876786D01*
X104171000Y-93123214D01*
X104161352Y-93171716D01*
X104122925Y-93364903D01*
X104028622Y-93592571D01*
X103891715Y-93797466D01*
X103717466Y-93971715D01*
X103512571Y-94108622D01*
X103512570Y-94108623D01*
X103512569Y-94108623D01*
X103284903Y-94202925D01*
X103043214Y-94251000D01*
X102796786Y-94251000D01*
X102555097Y-94202925D01*
X102327431Y-94108623D01*
X102327430Y-94108623D01*
X102327429Y-94108622D01*
X102122534Y-93971715D01*
X101948285Y-93797466D01*
X101811378Y-93592571D01*
X101717075Y-93364903D01*
X101678648Y-93171716D01*
X101669000Y-93123214D01*
X101669000Y-92876786D01*
X101717075Y-92635097D01*
X101811377Y-92407431D01*
X101948284Y-92202536D01*
X101948285Y-92202534D01*
X102122534Y-92028285D01*
X102327429Y-91891378D01*
X102334532Y-91888436D01*
X102555097Y-91797075D01*
X102796786Y-91749000D01*
X103043214Y-91749000D01*
X103284903Y-91797075D01*
G37*
G36*
X184164903Y-90997075D02*
G01*
X184392571Y-91091378D01*
X184597466Y-91228285D01*
X184771715Y-91402534D01*
X184903861Y-91600304D01*
X184908623Y-91607431D01*
X185002925Y-91835097D01*
X185051000Y-92076786D01*
X185051000Y-92323214D01*
X185034248Y-92407431D01*
X185002925Y-92564903D01*
X184908622Y-92792571D01*
X184771715Y-92997466D01*
X184597466Y-93171715D01*
X184392571Y-93308622D01*
X184392570Y-93308623D01*
X184392569Y-93308623D01*
X184164903Y-93402925D01*
X183923214Y-93451000D01*
X183676786Y-93451000D01*
X183435097Y-93402925D01*
X183207431Y-93308623D01*
X183207430Y-93308623D01*
X183207429Y-93308622D01*
X183002534Y-93171715D01*
X182828285Y-92997466D01*
X182691378Y-92792571D01*
X182597075Y-92564903D01*
X182565752Y-92407431D01*
X182549000Y-92323214D01*
X182549000Y-92076786D01*
X182597075Y-91835097D01*
X182691377Y-91607431D01*
X182696139Y-91600304D01*
X182828285Y-91402534D01*
X183002534Y-91228285D01*
X183207429Y-91091378D01*
X183435097Y-90997075D01*
X183676786Y-90949000D01*
X183923214Y-90949000D01*
X184164903Y-90997075D01*
G37*
G36*
X172151000Y-92291000D02*
G01*
X170349000Y-92291000D01*
X170349000Y-90489000D01*
X172151000Y-90489000D01*
X172151000Y-92291000D01*
G37*
G36*
X194480412Y-90178764D02*
G01*
X194642199Y-90245779D01*
X194787804Y-90343069D01*
X194911631Y-90466896D01*
X195008921Y-90612501D01*
X195075936Y-90774288D01*
X195110100Y-90946041D01*
X195110100Y-91121159D01*
X195075936Y-91292912D01*
X195008921Y-91454699D01*
X194911631Y-91600304D01*
X194787804Y-91724131D01*
X194642199Y-91821421D01*
X194480412Y-91888436D01*
X194308660Y-91922600D01*
X194133540Y-91922600D01*
X194047665Y-91905518D01*
X193961788Y-91888436D01*
X193800001Y-91821421D01*
X193654396Y-91724131D01*
X193530569Y-91600304D01*
X193433279Y-91454699D01*
X193366264Y-91292912D01*
X193332100Y-91121159D01*
X193332100Y-90946041D01*
X193366264Y-90774288D01*
X193433279Y-90612501D01*
X193530569Y-90466896D01*
X193654396Y-90343069D01*
X193800001Y-90245779D01*
X193961788Y-90178764D01*
X194133540Y-90144600D01*
X194308660Y-90144600D01*
X194480412Y-90178764D01*
G37*
G36*
X191940412Y-90178764D02*
G01*
X192102199Y-90245779D01*
X192247804Y-90343069D01*
X192371631Y-90466896D01*
X192468921Y-90612501D01*
X192535936Y-90774288D01*
X192570100Y-90946041D01*
X192570100Y-91121159D01*
X192535936Y-91292912D01*
X192468921Y-91454699D01*
X192371631Y-91600304D01*
X192247804Y-91724131D01*
X192102199Y-91821421D01*
X191940412Y-91888436D01*
X191768660Y-91922600D01*
X191593540Y-91922600D01*
X191507665Y-91905518D01*
X191421788Y-91888436D01*
X191260001Y-91821421D01*
X191114396Y-91724131D01*
X190990569Y-91600304D01*
X190893279Y-91454699D01*
X190826264Y-91292912D01*
X190792100Y-91121159D01*
X190792100Y-90946041D01*
X190826264Y-90774288D01*
X190893279Y-90612501D01*
X190990569Y-90466896D01*
X191114396Y-90343069D01*
X191260001Y-90245779D01*
X191421788Y-90178764D01*
X191593540Y-90144600D01*
X191768660Y-90144600D01*
X191940412Y-90178764D01*
G37*
G36*
X184164903Y-87497075D02*
G01*
X184392571Y-87591378D01*
X184597466Y-87728285D01*
X184771715Y-87902534D01*
X184885285Y-88072503D01*
X184908623Y-88107431D01*
X185002925Y-88335097D01*
X185051000Y-88576786D01*
X185051000Y-88823214D01*
X185002925Y-89064903D01*
X184913241Y-89281421D01*
X184908622Y-89292571D01*
X184771715Y-89497466D01*
X184597466Y-89671715D01*
X184392571Y-89808622D01*
X184392570Y-89808623D01*
X184392569Y-89808623D01*
X184164903Y-89902925D01*
X183923214Y-89951000D01*
X183676786Y-89951000D01*
X183435097Y-89902925D01*
X183207431Y-89808623D01*
X183207430Y-89808623D01*
X183207429Y-89808622D01*
X183002534Y-89671715D01*
X182828285Y-89497466D01*
X182691378Y-89292571D01*
X182686760Y-89281421D01*
X182597075Y-89064903D01*
X182549000Y-88823214D01*
X182549000Y-88576786D01*
X182597075Y-88335097D01*
X182691377Y-88107431D01*
X182714715Y-88072503D01*
X182828285Y-87902534D01*
X183002534Y-87728285D01*
X183207429Y-87591378D01*
X183435097Y-87497075D01*
X183676786Y-87449000D01*
X183923214Y-87449000D01*
X184164903Y-87497075D01*
G37*
G36*
X194394535Y-87621682D02*
G01*
X194480412Y-87638764D01*
X194642199Y-87705779D01*
X194787804Y-87803069D01*
X194911631Y-87926896D01*
X195008921Y-88072501D01*
X195075936Y-88234288D01*
X195110100Y-88406041D01*
X195110100Y-88581159D01*
X195075936Y-88752912D01*
X195008921Y-88914699D01*
X194911631Y-89060304D01*
X194787804Y-89184131D01*
X194642199Y-89281421D01*
X194480412Y-89348436D01*
X194394535Y-89365518D01*
X194308660Y-89382600D01*
X194133540Y-89382600D01*
X194047665Y-89365518D01*
X193961788Y-89348436D01*
X193800001Y-89281421D01*
X193654396Y-89184131D01*
X193530569Y-89060304D01*
X193433279Y-88914699D01*
X193366264Y-88752912D01*
X193332100Y-88581159D01*
X193332100Y-88406041D01*
X193366264Y-88234288D01*
X193433279Y-88072501D01*
X193530569Y-87926896D01*
X193654396Y-87803069D01*
X193800001Y-87705779D01*
X193961788Y-87638764D01*
X194047665Y-87621682D01*
X194133540Y-87604600D01*
X194308660Y-87604600D01*
X194394535Y-87621682D01*
G37*
G36*
X191854535Y-87621682D02*
G01*
X191940412Y-87638764D01*
X192102199Y-87705779D01*
X192247804Y-87803069D01*
X192371631Y-87926896D01*
X192468921Y-88072501D01*
X192535936Y-88234288D01*
X192570100Y-88406041D01*
X192570100Y-88581159D01*
X192535936Y-88752912D01*
X192468921Y-88914699D01*
X192371631Y-89060304D01*
X192247804Y-89184131D01*
X192102199Y-89281421D01*
X191940412Y-89348436D01*
X191854535Y-89365518D01*
X191768660Y-89382600D01*
X191593540Y-89382600D01*
X191507665Y-89365518D01*
X191421788Y-89348436D01*
X191260001Y-89281421D01*
X191114396Y-89184131D01*
X190990569Y-89060304D01*
X190893279Y-88914699D01*
X190826264Y-88752912D01*
X190792100Y-88581159D01*
X190792100Y-88406041D01*
X190826264Y-88234288D01*
X190893279Y-88072501D01*
X190990569Y-87926896D01*
X191114396Y-87803069D01*
X191260001Y-87705779D01*
X191421788Y-87638764D01*
X191507665Y-87621682D01*
X191593540Y-87604600D01*
X191768660Y-87604600D01*
X191854535Y-87621682D01*
G37*
G36*
X121151000Y-89051000D02*
G01*
X118649000Y-89051000D01*
X118649000Y-86549000D01*
X121151000Y-86549000D01*
X121151000Y-89051000D01*
G37*
G36*
X124651000Y-89051000D02*
G01*
X122149000Y-89051000D01*
X122149000Y-86549000D01*
X124651000Y-86549000D01*
X124651000Y-89051000D01*
G37*
G36*
X127264903Y-86597075D02*
G01*
X127378507Y-86644131D01*
X127492571Y-86691378D01*
X127697466Y-86828285D01*
X127871715Y-87002534D01*
X127871716Y-87002536D01*
X128008623Y-87207431D01*
X128102925Y-87435097D01*
X128151000Y-87676786D01*
X128151000Y-87923214D01*
X128102925Y-88164903D01*
X128032429Y-88335097D01*
X128008622Y-88392571D01*
X127871715Y-88597466D01*
X127697466Y-88771715D01*
X127492571Y-88908622D01*
X127492570Y-88908623D01*
X127492569Y-88908623D01*
X127264903Y-89002925D01*
X127023214Y-89051000D01*
X126776786Y-89051000D01*
X126535097Y-89002925D01*
X126307431Y-88908623D01*
X126307430Y-88908623D01*
X126307429Y-88908622D01*
X126102534Y-88771715D01*
X125928285Y-88597466D01*
X125791378Y-88392571D01*
X125767572Y-88335097D01*
X125697075Y-88164903D01*
X125649000Y-87923214D01*
X125649000Y-87676786D01*
X125697075Y-87435097D01*
X125791377Y-87207431D01*
X125928284Y-87002536D01*
X125928285Y-87002534D01*
X126102534Y-86828285D01*
X126307429Y-86691378D01*
X126421494Y-86644131D01*
X126535097Y-86597075D01*
X126776786Y-86549000D01*
X127023214Y-86549000D01*
X127264903Y-86597075D01*
G37*
G36*
X130764903Y-86597075D02*
G01*
X130878507Y-86644131D01*
X130992571Y-86691378D01*
X131197466Y-86828285D01*
X131371715Y-87002534D01*
X131371716Y-87002536D01*
X131508623Y-87207431D01*
X131602925Y-87435097D01*
X131651000Y-87676786D01*
X131651000Y-87923214D01*
X131602925Y-88164903D01*
X131532429Y-88335097D01*
X131508622Y-88392571D01*
X131371715Y-88597466D01*
X131197466Y-88771715D01*
X130992571Y-88908622D01*
X130992570Y-88908623D01*
X130992569Y-88908623D01*
X130764903Y-89002925D01*
X130523214Y-89051000D01*
X130276786Y-89051000D01*
X130035097Y-89002925D01*
X129807431Y-88908623D01*
X129807430Y-88908623D01*
X129807429Y-88908622D01*
X129602534Y-88771715D01*
X129428285Y-88597466D01*
X129291378Y-88392571D01*
X129267572Y-88335097D01*
X129197075Y-88164903D01*
X129149000Y-87923214D01*
X129149000Y-87676786D01*
X129197075Y-87435097D01*
X129291377Y-87207431D01*
X129428284Y-87002536D01*
X129428285Y-87002534D01*
X129602534Y-86828285D01*
X129807429Y-86691378D01*
X129921494Y-86644131D01*
X130035097Y-86597075D01*
X130276786Y-86549000D01*
X130523214Y-86549000D01*
X130764903Y-86597075D01*
G37*
G36*
X141364903Y-86597075D02*
G01*
X141478507Y-86644131D01*
X141592571Y-86691378D01*
X141797466Y-86828285D01*
X141971715Y-87002534D01*
X141971716Y-87002536D01*
X142108623Y-87207431D01*
X142202925Y-87435097D01*
X142251000Y-87676786D01*
X142251000Y-87923214D01*
X142202925Y-88164903D01*
X142132429Y-88335097D01*
X142108622Y-88392571D01*
X141971715Y-88597466D01*
X141797466Y-88771715D01*
X141592571Y-88908622D01*
X141592570Y-88908623D01*
X141592569Y-88908623D01*
X141364903Y-89002925D01*
X141123214Y-89051000D01*
X140876786Y-89051000D01*
X140635097Y-89002925D01*
X140407431Y-88908623D01*
X140407430Y-88908623D01*
X140407429Y-88908622D01*
X140202534Y-88771715D01*
X140028285Y-88597466D01*
X139891378Y-88392571D01*
X139867572Y-88335097D01*
X139797075Y-88164903D01*
X139749000Y-87923214D01*
X139749000Y-87676786D01*
X139797075Y-87435097D01*
X139891377Y-87207431D01*
X140028284Y-87002536D01*
X140028285Y-87002534D01*
X140202534Y-86828285D01*
X140407429Y-86691378D01*
X140521494Y-86644131D01*
X140635097Y-86597075D01*
X140876786Y-86549000D01*
X141123214Y-86549000D01*
X141364903Y-86597075D01*
G37*
G36*
X137864903Y-86597075D02*
G01*
X137978507Y-86644131D01*
X138092571Y-86691378D01*
X138297466Y-86828285D01*
X138471715Y-87002534D01*
X138471716Y-87002536D01*
X138608623Y-87207431D01*
X138702925Y-87435097D01*
X138751000Y-87676786D01*
X138751000Y-87923214D01*
X138702925Y-88164903D01*
X138632429Y-88335097D01*
X138608622Y-88392571D01*
X138471715Y-88597466D01*
X138297466Y-88771715D01*
X138092571Y-88908622D01*
X138092570Y-88908623D01*
X138092569Y-88908623D01*
X137864903Y-89002925D01*
X137623214Y-89051000D01*
X137376786Y-89051000D01*
X137135097Y-89002925D01*
X136907431Y-88908623D01*
X136907430Y-88908623D01*
X136907429Y-88908622D01*
X136702534Y-88771715D01*
X136528285Y-88597466D01*
X136391378Y-88392571D01*
X136367572Y-88335097D01*
X136297075Y-88164903D01*
X136249000Y-87923214D01*
X136249000Y-87676786D01*
X136297075Y-87435097D01*
X136391377Y-87207431D01*
X136528284Y-87002536D01*
X136528285Y-87002534D01*
X136702534Y-86828285D01*
X136907429Y-86691378D01*
X137021494Y-86644131D01*
X137135097Y-86597075D01*
X137376786Y-86549000D01*
X137623214Y-86549000D01*
X137864903Y-86597075D01*
G37*
G36*
X134364903Y-86597075D02*
G01*
X134478507Y-86644131D01*
X134592571Y-86691378D01*
X134797466Y-86828285D01*
X134971715Y-87002534D01*
X134971716Y-87002536D01*
X135108623Y-87207431D01*
X135202925Y-87435097D01*
X135251000Y-87676786D01*
X135251000Y-87923214D01*
X135202925Y-88164903D01*
X135132429Y-88335097D01*
X135108622Y-88392571D01*
X134971715Y-88597466D01*
X134797466Y-88771715D01*
X134592571Y-88908622D01*
X134592570Y-88908623D01*
X134592569Y-88908623D01*
X134364903Y-89002925D01*
X134123214Y-89051000D01*
X133876786Y-89051000D01*
X133635097Y-89002925D01*
X133407431Y-88908623D01*
X133407430Y-88908623D01*
X133407429Y-88908622D01*
X133202534Y-88771715D01*
X133028285Y-88597466D01*
X132891378Y-88392571D01*
X132867572Y-88335097D01*
X132797075Y-88164903D01*
X132749000Y-87923214D01*
X132749000Y-87676786D01*
X132797075Y-87435097D01*
X132891377Y-87207431D01*
X133028284Y-87002536D01*
X133028285Y-87002534D01*
X133202534Y-86828285D01*
X133407429Y-86691378D01*
X133521494Y-86644131D01*
X133635097Y-86597075D01*
X133876786Y-86549000D01*
X134123214Y-86549000D01*
X134364903Y-86597075D01*
G37*
G36*
X148364903Y-86597075D02*
G01*
X148478507Y-86644131D01*
X148592571Y-86691378D01*
X148797466Y-86828285D01*
X148971715Y-87002534D01*
X148971716Y-87002536D01*
X149108623Y-87207431D01*
X149202925Y-87435097D01*
X149251000Y-87676786D01*
X149251000Y-87923214D01*
X149202925Y-88164903D01*
X149132429Y-88335097D01*
X149108622Y-88392571D01*
X148971715Y-88597466D01*
X148797466Y-88771715D01*
X148592571Y-88908622D01*
X148592570Y-88908623D01*
X148592569Y-88908623D01*
X148364903Y-89002925D01*
X148123214Y-89051000D01*
X147876786Y-89051000D01*
X147635097Y-89002925D01*
X147407431Y-88908623D01*
X147407430Y-88908623D01*
X147407429Y-88908622D01*
X147202534Y-88771715D01*
X147028285Y-88597466D01*
X146891378Y-88392571D01*
X146867572Y-88335097D01*
X146797075Y-88164903D01*
X146749000Y-87923214D01*
X146749000Y-87676786D01*
X146797075Y-87435097D01*
X146891377Y-87207431D01*
X147028284Y-87002536D01*
X147028285Y-87002534D01*
X147202534Y-86828285D01*
X147407429Y-86691378D01*
X147521494Y-86644131D01*
X147635097Y-86597075D01*
X147876786Y-86549000D01*
X148123214Y-86549000D01*
X148364903Y-86597075D01*
G37*
G36*
X151864903Y-86597075D02*
G01*
X151978507Y-86644131D01*
X152092571Y-86691378D01*
X152297466Y-86828285D01*
X152471715Y-87002534D01*
X152471716Y-87002536D01*
X152608623Y-87207431D01*
X152702925Y-87435097D01*
X152751000Y-87676786D01*
X152751000Y-87923214D01*
X152702925Y-88164903D01*
X152632429Y-88335097D01*
X152608622Y-88392571D01*
X152471715Y-88597466D01*
X152297466Y-88771715D01*
X152092571Y-88908622D01*
X152092570Y-88908623D01*
X152092569Y-88908623D01*
X151864903Y-89002925D01*
X151623214Y-89051000D01*
X151376786Y-89051000D01*
X151135097Y-89002925D01*
X150907431Y-88908623D01*
X150907430Y-88908623D01*
X150907429Y-88908622D01*
X150702534Y-88771715D01*
X150528285Y-88597466D01*
X150391378Y-88392571D01*
X150367572Y-88335097D01*
X150297075Y-88164903D01*
X150249000Y-87923214D01*
X150249000Y-87676786D01*
X150297075Y-87435097D01*
X150391377Y-87207431D01*
X150528284Y-87002536D01*
X150528285Y-87002534D01*
X150702534Y-86828285D01*
X150907429Y-86691378D01*
X151021494Y-86644131D01*
X151135097Y-86597075D01*
X151376786Y-86549000D01*
X151623214Y-86549000D01*
X151864903Y-86597075D01*
G37*
G36*
X155364903Y-86597075D02*
G01*
X155478507Y-86644131D01*
X155592571Y-86691378D01*
X155797466Y-86828285D01*
X155971715Y-87002534D01*
X155971716Y-87002536D01*
X156108623Y-87207431D01*
X156202925Y-87435097D01*
X156251000Y-87676786D01*
X156251000Y-87923214D01*
X156202925Y-88164903D01*
X156132429Y-88335097D01*
X156108622Y-88392571D01*
X155971715Y-88597466D01*
X155797466Y-88771715D01*
X155592571Y-88908622D01*
X155592570Y-88908623D01*
X155592569Y-88908623D01*
X155364903Y-89002925D01*
X155123214Y-89051000D01*
X154876786Y-89051000D01*
X154635097Y-89002925D01*
X154407431Y-88908623D01*
X154407430Y-88908623D01*
X154407429Y-88908622D01*
X154202534Y-88771715D01*
X154028285Y-88597466D01*
X153891378Y-88392571D01*
X153867572Y-88335097D01*
X153797075Y-88164903D01*
X153749000Y-87923214D01*
X153749000Y-87676786D01*
X153797075Y-87435097D01*
X153891377Y-87207431D01*
X154028284Y-87002536D01*
X154028285Y-87002534D01*
X154202534Y-86828285D01*
X154407429Y-86691378D01*
X154521494Y-86644131D01*
X154635097Y-86597075D01*
X154876786Y-86549000D01*
X155123214Y-86549000D01*
X155364903Y-86597075D01*
G37*
G36*
X158864903Y-86597075D02*
G01*
X158978507Y-86644131D01*
X159092571Y-86691378D01*
X159297466Y-86828285D01*
X159471715Y-87002534D01*
X159471716Y-87002536D01*
X159608623Y-87207431D01*
X159702925Y-87435097D01*
X159751000Y-87676786D01*
X159751000Y-87923214D01*
X159702925Y-88164903D01*
X159632429Y-88335097D01*
X159608622Y-88392571D01*
X159471715Y-88597466D01*
X159297466Y-88771715D01*
X159092571Y-88908622D01*
X159092570Y-88908623D01*
X159092569Y-88908623D01*
X158864903Y-89002925D01*
X158623214Y-89051000D01*
X158376786Y-89051000D01*
X158135097Y-89002925D01*
X157907431Y-88908623D01*
X157907430Y-88908623D01*
X157907429Y-88908622D01*
X157702534Y-88771715D01*
X157528285Y-88597466D01*
X157391378Y-88392571D01*
X157367572Y-88335097D01*
X157297075Y-88164903D01*
X157249000Y-87923214D01*
X157249000Y-87676786D01*
X157297075Y-87435097D01*
X157391377Y-87207431D01*
X157528284Y-87002536D01*
X157528285Y-87002534D01*
X157702534Y-86828285D01*
X157907429Y-86691378D01*
X158021494Y-86644131D01*
X158135097Y-86597075D01*
X158376786Y-86549000D01*
X158623214Y-86549000D01*
X158864903Y-86597075D01*
G37*
G36*
X144864903Y-86597075D02*
G01*
X144978507Y-86644131D01*
X145092571Y-86691378D01*
X145297466Y-86828285D01*
X145471715Y-87002534D01*
X145471716Y-87002536D01*
X145608623Y-87207431D01*
X145702925Y-87435097D01*
X145751000Y-87676786D01*
X145751000Y-87923214D01*
X145702925Y-88164903D01*
X145632429Y-88335097D01*
X145608622Y-88392571D01*
X145471715Y-88597466D01*
X145297466Y-88771715D01*
X145092571Y-88908622D01*
X145092570Y-88908623D01*
X145092569Y-88908623D01*
X144864903Y-89002925D01*
X144623214Y-89051000D01*
X144376786Y-89051000D01*
X144135097Y-89002925D01*
X143907431Y-88908623D01*
X143907430Y-88908623D01*
X143907429Y-88908622D01*
X143702534Y-88771715D01*
X143528285Y-88597466D01*
X143391378Y-88392571D01*
X143367572Y-88335097D01*
X143297075Y-88164903D01*
X143249000Y-87923214D01*
X143249000Y-87676786D01*
X143297075Y-87435097D01*
X143391377Y-87207431D01*
X143528284Y-87002536D01*
X143528285Y-87002534D01*
X143702534Y-86828285D01*
X143907429Y-86691378D01*
X144021494Y-86644131D01*
X144135097Y-86597075D01*
X144376786Y-86549000D01*
X144623214Y-86549000D01*
X144864903Y-86597075D01*
G37*
G36*
X194369922Y-85076786D02*
G01*
X194480412Y-85098764D01*
X194642199Y-85165779D01*
X194787804Y-85263069D01*
X194911631Y-85386896D01*
X195008921Y-85532501D01*
X195008922Y-85532503D01*
X195028549Y-85579887D01*
X195075936Y-85694288D01*
X195110100Y-85866041D01*
X195110100Y-86041159D01*
X195075936Y-86212912D01*
X195008921Y-86374699D01*
X194911631Y-86520304D01*
X194787804Y-86644131D01*
X194642199Y-86741421D01*
X194480412Y-86808436D01*
X194394535Y-86825518D01*
X194308660Y-86842600D01*
X194133540Y-86842600D01*
X193961788Y-86808436D01*
X193800001Y-86741421D01*
X193654396Y-86644131D01*
X193530569Y-86520304D01*
X193433279Y-86374699D01*
X193366264Y-86212912D01*
X193332100Y-86041159D01*
X193332100Y-85866041D01*
X193366264Y-85694288D01*
X193413651Y-85579887D01*
X193433278Y-85532503D01*
X193433279Y-85532501D01*
X193530569Y-85386896D01*
X193654396Y-85263069D01*
X193800001Y-85165779D01*
X193961788Y-85098764D01*
X194072278Y-85076786D01*
X194133540Y-85064600D01*
X194308660Y-85064600D01*
X194369922Y-85076786D01*
G37*
G36*
X191829922Y-85076786D02*
G01*
X191940412Y-85098764D01*
X192102199Y-85165779D01*
X192247804Y-85263069D01*
X192371631Y-85386896D01*
X192468921Y-85532501D01*
X192468922Y-85532503D01*
X192488549Y-85579887D01*
X192535936Y-85694288D01*
X192570100Y-85866041D01*
X192570100Y-86041159D01*
X192535936Y-86212912D01*
X192468921Y-86374699D01*
X192371631Y-86520304D01*
X192247804Y-86644131D01*
X192102199Y-86741421D01*
X191940412Y-86808436D01*
X191854535Y-86825518D01*
X191768660Y-86842600D01*
X191593540Y-86842600D01*
X191421788Y-86808436D01*
X191260001Y-86741421D01*
X191114396Y-86644131D01*
X190990569Y-86520304D01*
X190893279Y-86374699D01*
X190826264Y-86212912D01*
X190792100Y-86041159D01*
X190792100Y-85866041D01*
X190826264Y-85694288D01*
X190873651Y-85579887D01*
X190893278Y-85532503D01*
X190893279Y-85532501D01*
X190990569Y-85386896D01*
X191114396Y-85263069D01*
X191260001Y-85165779D01*
X191421788Y-85098764D01*
X191532278Y-85076786D01*
X191593540Y-85064600D01*
X191768660Y-85064600D01*
X191829922Y-85076786D01*
G37*
G36*
X184164903Y-83997075D02*
G01*
X184392571Y-84091378D01*
X184597466Y-84228285D01*
X184771715Y-84402534D01*
X184771716Y-84402536D01*
X184908623Y-84607431D01*
X185002925Y-84835097D01*
X185051000Y-85076786D01*
X185051000Y-85323214D01*
X185009370Y-85532501D01*
X185002925Y-85564903D01*
X184908622Y-85792571D01*
X184771715Y-85997466D01*
X184597466Y-86171715D01*
X184392571Y-86308622D01*
X184392570Y-86308623D01*
X184392569Y-86308623D01*
X184164903Y-86402925D01*
X183923214Y-86451000D01*
X183676786Y-86451000D01*
X183435097Y-86402925D01*
X183207431Y-86308623D01*
X183207430Y-86308623D01*
X183207429Y-86308622D01*
X183002534Y-86171715D01*
X182828285Y-85997466D01*
X182691378Y-85792571D01*
X182597075Y-85564903D01*
X182590630Y-85532501D01*
X182549000Y-85323214D01*
X182549000Y-85076786D01*
X182597075Y-84835097D01*
X182691377Y-84607431D01*
X182828284Y-84402536D01*
X182828285Y-84402534D01*
X183002534Y-84228285D01*
X183207429Y-84091378D01*
X183435097Y-83997075D01*
X183676786Y-83949000D01*
X183923214Y-83949000D01*
X184164903Y-83997075D01*
G37*
G36*
X194480412Y-82558764D02*
G01*
X194642199Y-82625779D01*
X194787804Y-82723069D01*
X194911631Y-82846896D01*
X195008921Y-82992501D01*
X195075936Y-83154288D01*
X195110100Y-83326041D01*
X195110100Y-83501159D01*
X195075936Y-83672912D01*
X195008921Y-83834699D01*
X194911631Y-83980304D01*
X194787804Y-84104131D01*
X194642199Y-84201421D01*
X194480412Y-84268436D01*
X194394535Y-84285518D01*
X194308660Y-84302600D01*
X194133540Y-84302600D01*
X193961788Y-84268436D01*
X193800001Y-84201421D01*
X193654396Y-84104131D01*
X193530569Y-83980304D01*
X193433279Y-83834699D01*
X193366264Y-83672912D01*
X193332100Y-83501159D01*
X193332100Y-83326041D01*
X193366264Y-83154288D01*
X193433279Y-82992501D01*
X193530569Y-82846896D01*
X193654396Y-82723069D01*
X193800001Y-82625779D01*
X193961788Y-82558764D01*
X194047665Y-82541682D01*
X194133540Y-82524600D01*
X194308660Y-82524600D01*
X194480412Y-82558764D01*
G37*
G36*
X191940412Y-82558764D02*
G01*
X192102199Y-82625779D01*
X192247804Y-82723069D01*
X192371631Y-82846896D01*
X192468921Y-82992501D01*
X192535936Y-83154288D01*
X192570100Y-83326041D01*
X192570100Y-83501159D01*
X192535936Y-83672912D01*
X192468921Y-83834699D01*
X192371631Y-83980304D01*
X192247804Y-84104131D01*
X192102199Y-84201421D01*
X191940412Y-84268436D01*
X191854535Y-84285518D01*
X191768660Y-84302600D01*
X191593540Y-84302600D01*
X191421788Y-84268436D01*
X191260001Y-84201421D01*
X191114396Y-84104131D01*
X190990569Y-83980304D01*
X190893279Y-83834699D01*
X190826264Y-83672912D01*
X190792100Y-83501159D01*
X190792100Y-83326041D01*
X190826264Y-83154288D01*
X190893279Y-82992501D01*
X190990569Y-82846896D01*
X191114396Y-82723069D01*
X191260001Y-82625779D01*
X191421788Y-82558764D01*
X191507665Y-82541682D01*
X191593540Y-82524600D01*
X191768660Y-82524600D01*
X191940412Y-82558764D01*
G37*
G36*
X116646478Y-79944826D02*
G01*
X116752742Y-79977061D01*
X116790119Y-79988399D01*
X116922491Y-80059154D01*
X117038522Y-80154378D01*
X117133746Y-80270409D01*
X117204501Y-80402781D01*
X117219583Y-80452501D01*
X117248074Y-80546423D01*
X117259100Y-80658375D01*
X117259100Y-81088826D01*
X117248074Y-81200778D01*
X117219584Y-81294697D01*
X117204501Y-81344419D01*
X117133746Y-81476791D01*
X117133745Y-81476792D01*
X117038522Y-81592822D01*
X116940134Y-81673566D01*
X116922490Y-81688046D01*
X116790118Y-81758801D01*
X116777594Y-81762600D01*
X116646477Y-81802374D01*
X116497100Y-81817086D01*
X116347722Y-81802374D01*
X116216605Y-81762600D01*
X116204081Y-81758801D01*
X116071709Y-81688046D01*
X116039268Y-81661422D01*
X115955678Y-81592822D01*
X115860455Y-81476791D01*
X115840952Y-81440304D01*
X115789699Y-81344418D01*
X115774617Y-81294699D01*
X115746126Y-81200777D01*
X115735100Y-81088825D01*
X115735100Y-80658374D01*
X115746126Y-80546422D01*
X115778361Y-80440158D01*
X115789699Y-80402781D01*
X115860454Y-80270409D01*
X115874934Y-80252766D01*
X115955678Y-80154378D01*
X116071709Y-80059155D01*
X116071708Y-80059155D01*
X116071710Y-80059154D01*
X116204082Y-79988399D01*
X116241459Y-79977061D01*
X116347723Y-79944826D01*
X116497100Y-79930114D01*
X116646478Y-79944826D01*
G37*
G36*
X124266478Y-79944826D02*
G01*
X124372742Y-79977061D01*
X124410119Y-79988399D01*
X124542491Y-80059154D01*
X124658522Y-80154378D01*
X124753746Y-80270409D01*
X124824501Y-80402781D01*
X124839583Y-80452501D01*
X124868074Y-80546423D01*
X124879100Y-80658375D01*
X124879100Y-81088826D01*
X124868074Y-81200778D01*
X124839584Y-81294697D01*
X124824501Y-81344419D01*
X124753746Y-81476791D01*
X124753745Y-81476792D01*
X124658522Y-81592822D01*
X124560134Y-81673566D01*
X124542490Y-81688046D01*
X124410118Y-81758801D01*
X124397594Y-81762600D01*
X124266477Y-81802374D01*
X124117100Y-81817086D01*
X123967722Y-81802374D01*
X123836605Y-81762600D01*
X123824081Y-81758801D01*
X123691709Y-81688046D01*
X123659268Y-81661422D01*
X123575678Y-81592822D01*
X123480455Y-81476791D01*
X123460952Y-81440304D01*
X123409699Y-81344418D01*
X123394617Y-81294699D01*
X123366126Y-81200777D01*
X123355100Y-81088825D01*
X123355100Y-80658374D01*
X123366126Y-80546422D01*
X123398361Y-80440158D01*
X123409699Y-80402781D01*
X123480454Y-80270409D01*
X123494934Y-80252766D01*
X123575678Y-80154378D01*
X123691709Y-80059155D01*
X123691708Y-80059155D01*
X123691710Y-80059154D01*
X123824082Y-79988399D01*
X123861459Y-79977061D01*
X123967723Y-79944826D01*
X124117100Y-79930114D01*
X124266478Y-79944826D01*
G37*
G36*
X143570478Y-79944826D02*
G01*
X143676742Y-79977061D01*
X143714119Y-79988399D01*
X143846491Y-80059154D01*
X143962522Y-80154378D01*
X144057746Y-80270409D01*
X144128501Y-80402781D01*
X144143583Y-80452501D01*
X144172074Y-80546423D01*
X144183100Y-80658375D01*
X144183100Y-81088826D01*
X144172074Y-81200778D01*
X144143584Y-81294697D01*
X144128501Y-81344419D01*
X144057746Y-81476791D01*
X144057745Y-81476792D01*
X143962522Y-81592822D01*
X143864134Y-81673566D01*
X143846490Y-81688046D01*
X143714118Y-81758801D01*
X143701594Y-81762600D01*
X143570477Y-81802374D01*
X143421100Y-81817086D01*
X143271722Y-81802374D01*
X143140605Y-81762600D01*
X143128081Y-81758801D01*
X142995709Y-81688046D01*
X142963268Y-81661422D01*
X142879678Y-81592822D01*
X142784455Y-81476791D01*
X142764952Y-81440304D01*
X142713699Y-81344418D01*
X142698617Y-81294699D01*
X142670126Y-81200777D01*
X142659100Y-81088825D01*
X142659100Y-80658374D01*
X142670126Y-80546422D01*
X142702361Y-80440158D01*
X142713699Y-80402781D01*
X142784454Y-80270409D01*
X142798934Y-80252766D01*
X142879678Y-80154378D01*
X142995709Y-80059155D01*
X142995708Y-80059155D01*
X142995710Y-80059154D01*
X143128082Y-79988399D01*
X143165459Y-79977061D01*
X143271723Y-79944826D01*
X143421100Y-79930114D01*
X143570478Y-79944826D01*
G37*
G36*
X184210477Y-79944826D02*
G01*
X184316741Y-79977061D01*
X184354118Y-79988399D01*
X184486490Y-80059154D01*
X184486492Y-80059155D01*
X184486491Y-80059155D01*
X184602522Y-80154378D01*
X184680670Y-80249602D01*
X184697746Y-80270409D01*
X184768501Y-80402781D01*
X184779839Y-80440158D01*
X184812074Y-80546422D01*
X184823100Y-80658374D01*
X184823100Y-81088825D01*
X184812074Y-81200777D01*
X184786494Y-81285102D01*
X184768501Y-81344419D01*
X184697746Y-81476791D01*
X184602522Y-81592822D01*
X184486491Y-81688046D01*
X184354119Y-81758801D01*
X184341595Y-81762600D01*
X184210478Y-81802374D01*
X184061100Y-81817086D01*
X183911723Y-81802374D01*
X183780606Y-81762600D01*
X183768082Y-81758801D01*
X183635710Y-81688046D01*
X183614902Y-81670969D01*
X183519678Y-81592822D01*
X183424455Y-81476792D01*
X183424454Y-81476791D01*
X183353699Y-81344419D01*
X183338616Y-81294697D01*
X183310126Y-81200778D01*
X183299100Y-81088826D01*
X183299100Y-80658375D01*
X183310126Y-80546423D01*
X183353698Y-80402786D01*
X183353699Y-80402782D01*
X183424454Y-80270410D01*
X183438934Y-80252766D01*
X183519678Y-80154378D01*
X183635708Y-80059155D01*
X183635707Y-80059155D01*
X183635709Y-80059154D01*
X183768081Y-79988399D01*
X183805458Y-79977061D01*
X183911722Y-79944826D01*
X184061100Y-79930114D01*
X184210477Y-79944826D01*
G37*
G36*
X181670477Y-79944826D02*
G01*
X181776741Y-79977061D01*
X181814118Y-79988399D01*
X181946490Y-80059154D01*
X181946492Y-80059155D01*
X181946491Y-80059155D01*
X182062522Y-80154378D01*
X182140670Y-80249602D01*
X182157746Y-80270409D01*
X182228501Y-80402781D01*
X182239839Y-80440158D01*
X182272074Y-80546422D01*
X182283100Y-80658374D01*
X182283100Y-81088825D01*
X182272074Y-81200777D01*
X182246494Y-81285102D01*
X182228501Y-81344419D01*
X182157746Y-81476791D01*
X182062522Y-81592822D01*
X181946491Y-81688046D01*
X181814119Y-81758801D01*
X181801595Y-81762600D01*
X181670478Y-81802374D01*
X181521100Y-81817086D01*
X181371723Y-81802374D01*
X181240606Y-81762600D01*
X181228082Y-81758801D01*
X181095710Y-81688046D01*
X181074902Y-81670969D01*
X180979678Y-81592822D01*
X180884455Y-81476792D01*
X180884454Y-81476791D01*
X180813699Y-81344419D01*
X180798616Y-81294697D01*
X180770126Y-81200778D01*
X180759100Y-81088826D01*
X180759100Y-80658375D01*
X180770126Y-80546423D01*
X180813698Y-80402786D01*
X180813699Y-80402782D01*
X180884454Y-80270410D01*
X180898934Y-80252766D01*
X180979678Y-80154378D01*
X181095708Y-80059155D01*
X181095707Y-80059155D01*
X181095709Y-80059154D01*
X181228081Y-79988399D01*
X181265458Y-79977061D01*
X181371722Y-79944826D01*
X181521100Y-79930114D01*
X181670477Y-79944826D01*
G37*
G36*
X179130477Y-79944826D02*
G01*
X179236741Y-79977061D01*
X179274118Y-79988399D01*
X179406490Y-80059154D01*
X179406492Y-80059155D01*
X179406491Y-80059155D01*
X179522522Y-80154378D01*
X179600670Y-80249602D01*
X179617746Y-80270409D01*
X179688501Y-80402781D01*
X179699839Y-80440158D01*
X179732074Y-80546422D01*
X179743100Y-80658374D01*
X179743100Y-81088825D01*
X179732074Y-81200777D01*
X179706494Y-81285102D01*
X179688501Y-81344419D01*
X179617746Y-81476791D01*
X179522522Y-81592822D01*
X179406491Y-81688046D01*
X179274119Y-81758801D01*
X179261595Y-81762600D01*
X179130478Y-81802374D01*
X178981100Y-81817086D01*
X178831723Y-81802374D01*
X178700606Y-81762600D01*
X178688082Y-81758801D01*
X178555710Y-81688046D01*
X178534902Y-81670969D01*
X178439678Y-81592822D01*
X178344455Y-81476792D01*
X178344454Y-81476791D01*
X178273699Y-81344419D01*
X178258616Y-81294697D01*
X178230126Y-81200778D01*
X178219100Y-81088826D01*
X178219100Y-80658375D01*
X178230126Y-80546423D01*
X178273698Y-80402786D01*
X178273699Y-80402782D01*
X178344454Y-80270410D01*
X178358934Y-80252766D01*
X178439678Y-80154378D01*
X178555708Y-80059155D01*
X178555707Y-80059155D01*
X178555709Y-80059154D01*
X178688081Y-79988399D01*
X178725458Y-79977061D01*
X178831722Y-79944826D01*
X178981100Y-79930114D01*
X179130477Y-79944826D01*
G37*
G36*
X176590477Y-79944826D02*
G01*
X176696741Y-79977061D01*
X176734118Y-79988399D01*
X176866490Y-80059154D01*
X176866492Y-80059155D01*
X176866491Y-80059155D01*
X176982522Y-80154378D01*
X177060670Y-80249602D01*
X177077746Y-80270409D01*
X177148501Y-80402781D01*
X177159839Y-80440158D01*
X177192074Y-80546422D01*
X177203100Y-80658374D01*
X177203100Y-81088825D01*
X177192074Y-81200777D01*
X177166494Y-81285102D01*
X177148501Y-81344419D01*
X177077746Y-81476791D01*
X176982522Y-81592822D01*
X176866491Y-81688046D01*
X176734119Y-81758801D01*
X176721595Y-81762600D01*
X176590478Y-81802374D01*
X176441100Y-81817086D01*
X176291723Y-81802374D01*
X176160606Y-81762600D01*
X176148082Y-81758801D01*
X176015710Y-81688046D01*
X175994902Y-81670969D01*
X175899678Y-81592822D01*
X175804455Y-81476792D01*
X175804454Y-81476791D01*
X175733699Y-81344419D01*
X175718616Y-81294697D01*
X175690126Y-81200778D01*
X175679100Y-81088826D01*
X175679100Y-80658375D01*
X175690126Y-80546423D01*
X175733698Y-80402786D01*
X175733699Y-80402782D01*
X175804454Y-80270410D01*
X175818934Y-80252766D01*
X175899678Y-80154378D01*
X176015708Y-80059155D01*
X176015707Y-80059155D01*
X176015709Y-80059154D01*
X176148081Y-79988399D01*
X176185458Y-79977061D01*
X176291722Y-79944826D01*
X176441100Y-79930114D01*
X176590477Y-79944826D01*
G37*
G36*
X174050477Y-79944826D02*
G01*
X174156741Y-79977061D01*
X174194118Y-79988399D01*
X174326490Y-80059154D01*
X174326492Y-80059155D01*
X174326491Y-80059155D01*
X174442522Y-80154378D01*
X174520670Y-80249602D01*
X174537746Y-80270409D01*
X174608501Y-80402781D01*
X174619839Y-80440158D01*
X174652074Y-80546422D01*
X174663100Y-80658374D01*
X174663100Y-81088825D01*
X174652074Y-81200777D01*
X174626494Y-81285102D01*
X174608501Y-81344419D01*
X174537746Y-81476791D01*
X174442522Y-81592822D01*
X174326491Y-81688046D01*
X174194119Y-81758801D01*
X174181595Y-81762600D01*
X174050478Y-81802374D01*
X173901100Y-81817086D01*
X173751723Y-81802374D01*
X173620606Y-81762600D01*
X173608082Y-81758801D01*
X173475710Y-81688046D01*
X173454902Y-81670969D01*
X173359678Y-81592822D01*
X173264455Y-81476792D01*
X173264454Y-81476791D01*
X173193699Y-81344419D01*
X173178616Y-81294697D01*
X173150126Y-81200778D01*
X173139100Y-81088826D01*
X173139100Y-80658375D01*
X173150126Y-80546423D01*
X173193698Y-80402786D01*
X173193699Y-80402782D01*
X173264454Y-80270410D01*
X173278934Y-80252766D01*
X173359678Y-80154378D01*
X173475708Y-80059155D01*
X173475707Y-80059155D01*
X173475709Y-80059154D01*
X173608081Y-79988399D01*
X173645458Y-79977061D01*
X173751722Y-79944826D01*
X173901100Y-79930114D01*
X174050477Y-79944826D01*
G37*
G36*
X171510477Y-79944826D02*
G01*
X171616741Y-79977061D01*
X171654118Y-79988399D01*
X171786490Y-80059154D01*
X171786492Y-80059155D01*
X171786491Y-80059155D01*
X171902522Y-80154378D01*
X171980670Y-80249602D01*
X171997746Y-80270409D01*
X172068501Y-80402781D01*
X172079839Y-80440158D01*
X172112074Y-80546422D01*
X172123100Y-80658374D01*
X172123100Y-81088825D01*
X172112074Y-81200777D01*
X172086494Y-81285102D01*
X172068501Y-81344419D01*
X171997746Y-81476791D01*
X171902522Y-81592822D01*
X171786491Y-81688046D01*
X171654119Y-81758801D01*
X171641595Y-81762600D01*
X171510478Y-81802374D01*
X171361100Y-81817086D01*
X171211723Y-81802374D01*
X171080606Y-81762600D01*
X171068082Y-81758801D01*
X170935710Y-81688046D01*
X170914902Y-81670969D01*
X170819678Y-81592822D01*
X170724455Y-81476792D01*
X170724454Y-81476791D01*
X170653699Y-81344419D01*
X170638616Y-81294697D01*
X170610126Y-81200778D01*
X170599100Y-81088826D01*
X170599100Y-80658375D01*
X170610126Y-80546423D01*
X170653698Y-80402786D01*
X170653699Y-80402782D01*
X170724454Y-80270410D01*
X170738934Y-80252766D01*
X170819678Y-80154378D01*
X170935708Y-80059155D01*
X170935707Y-80059155D01*
X170935709Y-80059154D01*
X171068081Y-79988399D01*
X171105458Y-79977061D01*
X171211722Y-79944826D01*
X171361100Y-79930114D01*
X171510477Y-79944826D01*
G37*
G36*
X168970477Y-79944826D02*
G01*
X169076741Y-79977061D01*
X169114118Y-79988399D01*
X169246490Y-80059154D01*
X169246492Y-80059155D01*
X169246491Y-80059155D01*
X169362522Y-80154378D01*
X169440670Y-80249602D01*
X169457746Y-80270409D01*
X169528501Y-80402781D01*
X169539839Y-80440158D01*
X169572074Y-80546422D01*
X169583100Y-80658374D01*
X169583100Y-81088825D01*
X169572074Y-81200777D01*
X169546494Y-81285102D01*
X169528501Y-81344419D01*
X169457746Y-81476791D01*
X169362522Y-81592822D01*
X169246491Y-81688046D01*
X169114119Y-81758801D01*
X169101595Y-81762600D01*
X168970478Y-81802374D01*
X168821100Y-81817086D01*
X168671723Y-81802374D01*
X168540606Y-81762600D01*
X168528082Y-81758801D01*
X168395710Y-81688046D01*
X168374902Y-81670969D01*
X168279678Y-81592822D01*
X168184455Y-81476792D01*
X168184454Y-81476791D01*
X168113699Y-81344419D01*
X168098616Y-81294697D01*
X168070126Y-81200778D01*
X168059100Y-81088826D01*
X168059100Y-80658375D01*
X168070126Y-80546423D01*
X168113698Y-80402786D01*
X168113699Y-80402782D01*
X168184454Y-80270410D01*
X168198934Y-80252766D01*
X168279678Y-80154378D01*
X168395708Y-80059155D01*
X168395707Y-80059155D01*
X168395709Y-80059154D01*
X168528081Y-79988399D01*
X168565458Y-79977061D01*
X168671722Y-79944826D01*
X168821100Y-79930114D01*
X168970477Y-79944826D01*
G37*
G36*
X166430477Y-79944826D02*
G01*
X166536741Y-79977061D01*
X166574118Y-79988399D01*
X166706490Y-80059154D01*
X166706492Y-80059155D01*
X166706491Y-80059155D01*
X166822522Y-80154378D01*
X166900670Y-80249602D01*
X166917746Y-80270409D01*
X166988501Y-80402781D01*
X166999839Y-80440158D01*
X167032074Y-80546422D01*
X167043100Y-80658374D01*
X167043100Y-81088825D01*
X167032074Y-81200777D01*
X167006494Y-81285102D01*
X166988501Y-81344419D01*
X166917746Y-81476791D01*
X166822522Y-81592822D01*
X166706491Y-81688046D01*
X166574119Y-81758801D01*
X166561595Y-81762600D01*
X166430478Y-81802374D01*
X166281100Y-81817086D01*
X166131723Y-81802374D01*
X166000606Y-81762600D01*
X165988082Y-81758801D01*
X165855710Y-81688046D01*
X165834902Y-81670969D01*
X165739678Y-81592822D01*
X165644455Y-81476792D01*
X165644454Y-81476791D01*
X165573699Y-81344419D01*
X165558616Y-81294697D01*
X165530126Y-81200778D01*
X165519100Y-81088826D01*
X165519100Y-80658375D01*
X165530126Y-80546423D01*
X165573698Y-80402786D01*
X165573699Y-80402782D01*
X165644454Y-80270410D01*
X165658934Y-80252766D01*
X165739678Y-80154378D01*
X165855708Y-80059155D01*
X165855707Y-80059155D01*
X165855709Y-80059154D01*
X165988081Y-79988399D01*
X166025458Y-79977061D01*
X166131722Y-79944826D01*
X166281100Y-79930114D01*
X166430477Y-79944826D01*
G37*
G36*
X161350478Y-79944826D02*
G01*
X161456742Y-79977061D01*
X161494119Y-79988399D01*
X161626491Y-80059154D01*
X161742522Y-80154378D01*
X161837746Y-80270409D01*
X161908501Y-80402781D01*
X161923583Y-80452501D01*
X161952074Y-80546423D01*
X161963100Y-80658375D01*
X161963100Y-81088826D01*
X161952074Y-81200778D01*
X161923584Y-81294697D01*
X161908501Y-81344419D01*
X161837746Y-81476791D01*
X161837745Y-81476792D01*
X161742522Y-81592822D01*
X161644134Y-81673566D01*
X161626490Y-81688046D01*
X161494118Y-81758801D01*
X161481594Y-81762600D01*
X161350477Y-81802374D01*
X161201100Y-81817086D01*
X161051722Y-81802374D01*
X160920605Y-81762600D01*
X160908081Y-81758801D01*
X160775709Y-81688046D01*
X160743268Y-81661422D01*
X160659678Y-81592822D01*
X160564455Y-81476791D01*
X160544952Y-81440304D01*
X160493699Y-81344418D01*
X160478617Y-81294699D01*
X160450126Y-81200777D01*
X160439100Y-81088825D01*
X160439100Y-80658374D01*
X160450126Y-80546422D01*
X160482361Y-80440158D01*
X160493699Y-80402781D01*
X160564454Y-80270409D01*
X160578934Y-80252766D01*
X160659678Y-80154378D01*
X160775709Y-80059155D01*
X160775708Y-80059155D01*
X160775710Y-80059154D01*
X160908082Y-79988399D01*
X160945459Y-79977061D01*
X161051723Y-79944826D01*
X161201100Y-79930114D01*
X161350478Y-79944826D01*
G37*
G36*
X158810478Y-79944826D02*
G01*
X158916742Y-79977061D01*
X158954119Y-79988399D01*
X159086491Y-80059154D01*
X159202522Y-80154378D01*
X159297746Y-80270409D01*
X159368501Y-80402781D01*
X159383583Y-80452501D01*
X159412074Y-80546423D01*
X159423100Y-80658375D01*
X159423100Y-81088826D01*
X159412074Y-81200778D01*
X159383584Y-81294697D01*
X159368501Y-81344419D01*
X159297746Y-81476791D01*
X159297745Y-81476792D01*
X159202522Y-81592822D01*
X159104134Y-81673566D01*
X159086490Y-81688046D01*
X158954118Y-81758801D01*
X158941594Y-81762600D01*
X158810477Y-81802374D01*
X158661100Y-81817086D01*
X158511722Y-81802374D01*
X158380605Y-81762600D01*
X158368081Y-81758801D01*
X158235709Y-81688046D01*
X158203268Y-81661422D01*
X158119678Y-81592822D01*
X158024455Y-81476791D01*
X158004952Y-81440304D01*
X157953699Y-81344418D01*
X157938617Y-81294699D01*
X157910126Y-81200777D01*
X157899100Y-81088825D01*
X157899100Y-80658374D01*
X157910126Y-80546422D01*
X157942361Y-80440158D01*
X157953699Y-80402781D01*
X158024454Y-80270409D01*
X158038934Y-80252766D01*
X158119678Y-80154378D01*
X158235709Y-80059155D01*
X158235708Y-80059155D01*
X158235710Y-80059154D01*
X158368082Y-79988399D01*
X158405459Y-79977061D01*
X158511723Y-79944826D01*
X158661100Y-79930114D01*
X158810478Y-79944826D01*
G37*
G36*
X156270478Y-79944826D02*
G01*
X156376742Y-79977061D01*
X156414119Y-79988399D01*
X156546491Y-80059154D01*
X156662522Y-80154378D01*
X156757746Y-80270409D01*
X156828501Y-80402781D01*
X156843583Y-80452501D01*
X156872074Y-80546423D01*
X156883100Y-80658375D01*
X156883100Y-81088826D01*
X156872074Y-81200778D01*
X156843584Y-81294697D01*
X156828501Y-81344419D01*
X156757746Y-81476791D01*
X156757745Y-81476792D01*
X156662522Y-81592822D01*
X156564134Y-81673566D01*
X156546490Y-81688046D01*
X156414118Y-81758801D01*
X156401594Y-81762600D01*
X156270477Y-81802374D01*
X156121100Y-81817086D01*
X155971722Y-81802374D01*
X155840605Y-81762600D01*
X155828081Y-81758801D01*
X155695709Y-81688046D01*
X155663268Y-81661422D01*
X155579678Y-81592822D01*
X155484455Y-81476791D01*
X155464952Y-81440304D01*
X155413699Y-81344418D01*
X155398617Y-81294699D01*
X155370126Y-81200777D01*
X155359100Y-81088825D01*
X155359100Y-80658374D01*
X155370126Y-80546422D01*
X155402361Y-80440158D01*
X155413699Y-80402781D01*
X155484454Y-80270409D01*
X155498934Y-80252766D01*
X155579678Y-80154378D01*
X155695709Y-80059155D01*
X155695708Y-80059155D01*
X155695710Y-80059154D01*
X155828082Y-79988399D01*
X155865459Y-79977061D01*
X155971723Y-79944826D01*
X156121100Y-79930114D01*
X156270478Y-79944826D01*
G37*
G36*
X153730478Y-79944826D02*
G01*
X153836742Y-79977061D01*
X153874119Y-79988399D01*
X154006491Y-80059154D01*
X154122522Y-80154378D01*
X154217746Y-80270409D01*
X154288501Y-80402781D01*
X154303583Y-80452501D01*
X154332074Y-80546423D01*
X154343100Y-80658375D01*
X154343100Y-81088826D01*
X154332074Y-81200778D01*
X154303584Y-81294697D01*
X154288501Y-81344419D01*
X154217746Y-81476791D01*
X154217745Y-81476792D01*
X154122522Y-81592822D01*
X154024134Y-81673566D01*
X154006490Y-81688046D01*
X153874118Y-81758801D01*
X153861594Y-81762600D01*
X153730477Y-81802374D01*
X153581100Y-81817086D01*
X153431722Y-81802374D01*
X153300605Y-81762600D01*
X153288081Y-81758801D01*
X153155709Y-81688046D01*
X153123268Y-81661422D01*
X153039678Y-81592822D01*
X152944455Y-81476791D01*
X152924952Y-81440304D01*
X152873699Y-81344418D01*
X152858617Y-81294699D01*
X152830126Y-81200777D01*
X152819100Y-81088825D01*
X152819100Y-80658374D01*
X152830126Y-80546422D01*
X152862361Y-80440158D01*
X152873699Y-80402781D01*
X152944454Y-80270409D01*
X152958934Y-80252766D01*
X153039678Y-80154378D01*
X153155709Y-80059155D01*
X153155708Y-80059155D01*
X153155710Y-80059154D01*
X153288082Y-79988399D01*
X153325459Y-79977061D01*
X153431723Y-79944826D01*
X153581100Y-79930114D01*
X153730478Y-79944826D01*
G37*
G36*
X151190478Y-79944826D02*
G01*
X151296742Y-79977061D01*
X151334119Y-79988399D01*
X151466491Y-80059154D01*
X151582522Y-80154378D01*
X151677746Y-80270409D01*
X151748501Y-80402781D01*
X151763583Y-80452501D01*
X151792074Y-80546423D01*
X151803100Y-80658375D01*
X151803100Y-81088826D01*
X151792074Y-81200778D01*
X151763584Y-81294697D01*
X151748501Y-81344419D01*
X151677746Y-81476791D01*
X151677745Y-81476792D01*
X151582522Y-81592822D01*
X151484134Y-81673566D01*
X151466490Y-81688046D01*
X151334118Y-81758801D01*
X151321594Y-81762600D01*
X151190477Y-81802374D01*
X151041100Y-81817086D01*
X150891722Y-81802374D01*
X150760605Y-81762600D01*
X150748081Y-81758801D01*
X150615709Y-81688046D01*
X150583268Y-81661422D01*
X150499678Y-81592822D01*
X150404455Y-81476791D01*
X150384952Y-81440304D01*
X150333699Y-81344418D01*
X150318617Y-81294699D01*
X150290126Y-81200777D01*
X150279100Y-81088825D01*
X150279100Y-80658374D01*
X150290126Y-80546422D01*
X150322361Y-80440158D01*
X150333699Y-80402781D01*
X150404454Y-80270409D01*
X150418934Y-80252766D01*
X150499678Y-80154378D01*
X150615709Y-80059155D01*
X150615708Y-80059155D01*
X150615710Y-80059154D01*
X150748082Y-79988399D01*
X150785459Y-79977061D01*
X150891723Y-79944826D01*
X151041100Y-79930114D01*
X151190478Y-79944826D01*
G37*
G36*
X148650478Y-79944826D02*
G01*
X148756742Y-79977061D01*
X148794119Y-79988399D01*
X148926491Y-80059154D01*
X149042522Y-80154378D01*
X149137746Y-80270409D01*
X149208501Y-80402781D01*
X149223583Y-80452501D01*
X149252074Y-80546423D01*
X149263100Y-80658375D01*
X149263100Y-81088826D01*
X149252074Y-81200778D01*
X149223584Y-81294697D01*
X149208501Y-81344419D01*
X149137746Y-81476791D01*
X149137745Y-81476792D01*
X149042522Y-81592822D01*
X148944134Y-81673566D01*
X148926490Y-81688046D01*
X148794118Y-81758801D01*
X148781594Y-81762600D01*
X148650477Y-81802374D01*
X148501100Y-81817086D01*
X148351722Y-81802374D01*
X148220605Y-81762600D01*
X148208081Y-81758801D01*
X148075709Y-81688046D01*
X148043268Y-81661422D01*
X147959678Y-81592822D01*
X147864455Y-81476791D01*
X147844952Y-81440304D01*
X147793699Y-81344418D01*
X147778617Y-81294699D01*
X147750126Y-81200777D01*
X147739100Y-81088825D01*
X147739100Y-80658374D01*
X147750126Y-80546422D01*
X147782361Y-80440158D01*
X147793699Y-80402781D01*
X147864454Y-80270409D01*
X147878934Y-80252766D01*
X147959678Y-80154378D01*
X148075709Y-80059155D01*
X148075708Y-80059155D01*
X148075710Y-80059154D01*
X148208082Y-79988399D01*
X148245459Y-79977061D01*
X148351723Y-79944826D01*
X148501100Y-79930114D01*
X148650478Y-79944826D01*
G37*
G36*
X146110478Y-79944826D02*
G01*
X146216742Y-79977061D01*
X146254119Y-79988399D01*
X146386491Y-80059154D01*
X146502522Y-80154378D01*
X146597746Y-80270409D01*
X146668501Y-80402781D01*
X146683583Y-80452501D01*
X146712074Y-80546423D01*
X146723100Y-80658375D01*
X146723100Y-81088826D01*
X146712074Y-81200778D01*
X146683584Y-81294697D01*
X146668501Y-81344419D01*
X146597746Y-81476791D01*
X146597745Y-81476792D01*
X146502522Y-81592822D01*
X146404134Y-81673566D01*
X146386490Y-81688046D01*
X146254118Y-81758801D01*
X146241594Y-81762600D01*
X146110477Y-81802374D01*
X145961100Y-81817086D01*
X145811722Y-81802374D01*
X145680605Y-81762600D01*
X145668081Y-81758801D01*
X145535709Y-81688046D01*
X145503268Y-81661422D01*
X145419678Y-81592822D01*
X145324455Y-81476791D01*
X145304952Y-81440304D01*
X145253699Y-81344418D01*
X145238617Y-81294699D01*
X145210126Y-81200777D01*
X145199100Y-81088825D01*
X145199100Y-80658374D01*
X145210126Y-80546422D01*
X145242361Y-80440158D01*
X145253699Y-80402781D01*
X145324454Y-80270409D01*
X145338934Y-80252766D01*
X145419678Y-80154378D01*
X145535709Y-80059155D01*
X145535708Y-80059155D01*
X145535710Y-80059154D01*
X145668082Y-79988399D01*
X145705459Y-79977061D01*
X145811723Y-79944826D01*
X145961100Y-79930114D01*
X146110478Y-79944826D01*
G37*
G36*
X139506478Y-79944826D02*
G01*
X139612742Y-79977061D01*
X139650119Y-79988399D01*
X139782491Y-80059154D01*
X139898522Y-80154378D01*
X139993746Y-80270409D01*
X140064501Y-80402781D01*
X140079583Y-80452501D01*
X140108074Y-80546423D01*
X140119100Y-80658375D01*
X140119100Y-81088826D01*
X140108074Y-81200778D01*
X140079584Y-81294697D01*
X140064501Y-81344419D01*
X139993746Y-81476791D01*
X139993745Y-81476792D01*
X139898522Y-81592822D01*
X139800134Y-81673566D01*
X139782490Y-81688046D01*
X139650118Y-81758801D01*
X139637594Y-81762600D01*
X139506477Y-81802374D01*
X139357100Y-81817086D01*
X139207722Y-81802374D01*
X139076605Y-81762600D01*
X139064081Y-81758801D01*
X138931709Y-81688046D01*
X138899268Y-81661422D01*
X138815678Y-81592822D01*
X138720455Y-81476791D01*
X138700952Y-81440304D01*
X138649699Y-81344418D01*
X138634617Y-81294699D01*
X138606126Y-81200777D01*
X138595100Y-81088825D01*
X138595100Y-80658374D01*
X138606126Y-80546422D01*
X138638361Y-80440158D01*
X138649699Y-80402781D01*
X138720454Y-80270409D01*
X138734934Y-80252766D01*
X138815678Y-80154378D01*
X138931709Y-80059155D01*
X138931708Y-80059155D01*
X138931710Y-80059154D01*
X139064082Y-79988399D01*
X139101459Y-79977061D01*
X139207723Y-79944826D01*
X139357100Y-79930114D01*
X139506478Y-79944826D01*
G37*
G36*
X136966478Y-79944826D02*
G01*
X137072742Y-79977061D01*
X137110119Y-79988399D01*
X137242491Y-80059154D01*
X137358522Y-80154378D01*
X137453746Y-80270409D01*
X137524501Y-80402781D01*
X137539583Y-80452501D01*
X137568074Y-80546423D01*
X137579100Y-80658375D01*
X137579100Y-81088826D01*
X137568074Y-81200778D01*
X137539584Y-81294697D01*
X137524501Y-81344419D01*
X137453746Y-81476791D01*
X137453745Y-81476792D01*
X137358522Y-81592822D01*
X137260134Y-81673566D01*
X137242490Y-81688046D01*
X137110118Y-81758801D01*
X137097594Y-81762600D01*
X136966477Y-81802374D01*
X136817100Y-81817086D01*
X136667722Y-81802374D01*
X136536605Y-81762600D01*
X136524081Y-81758801D01*
X136391709Y-81688046D01*
X136359268Y-81661422D01*
X136275678Y-81592822D01*
X136180455Y-81476791D01*
X136160952Y-81440304D01*
X136109699Y-81344418D01*
X136094617Y-81294699D01*
X136066126Y-81200777D01*
X136055100Y-81088825D01*
X136055100Y-80658374D01*
X136066126Y-80546422D01*
X136098361Y-80440158D01*
X136109699Y-80402781D01*
X136180454Y-80270409D01*
X136194934Y-80252766D01*
X136275678Y-80154378D01*
X136391709Y-80059155D01*
X136391708Y-80059155D01*
X136391710Y-80059154D01*
X136524082Y-79988399D01*
X136561459Y-79977061D01*
X136667723Y-79944826D01*
X136817100Y-79930114D01*
X136966478Y-79944826D01*
G37*
G36*
X134426478Y-79944826D02*
G01*
X134532742Y-79977061D01*
X134570119Y-79988399D01*
X134702491Y-80059154D01*
X134818522Y-80154378D01*
X134913746Y-80270409D01*
X134984501Y-80402781D01*
X134999583Y-80452501D01*
X135028074Y-80546423D01*
X135039100Y-80658375D01*
X135039100Y-81088826D01*
X135028074Y-81200778D01*
X134999584Y-81294697D01*
X134984501Y-81344419D01*
X134913746Y-81476791D01*
X134913745Y-81476792D01*
X134818522Y-81592822D01*
X134720134Y-81673566D01*
X134702490Y-81688046D01*
X134570118Y-81758801D01*
X134557594Y-81762600D01*
X134426477Y-81802374D01*
X134277100Y-81817086D01*
X134127722Y-81802374D01*
X133996605Y-81762600D01*
X133984081Y-81758801D01*
X133851709Y-81688046D01*
X133819268Y-81661422D01*
X133735678Y-81592822D01*
X133640455Y-81476791D01*
X133620952Y-81440304D01*
X133569699Y-81344418D01*
X133554617Y-81294699D01*
X133526126Y-81200777D01*
X133515100Y-81088825D01*
X133515100Y-80658374D01*
X133526126Y-80546422D01*
X133558361Y-80440158D01*
X133569699Y-80402781D01*
X133640454Y-80270409D01*
X133654934Y-80252766D01*
X133735678Y-80154378D01*
X133851709Y-80059155D01*
X133851708Y-80059155D01*
X133851710Y-80059154D01*
X133984082Y-79988399D01*
X134021459Y-79977061D01*
X134127723Y-79944826D01*
X134277100Y-79930114D01*
X134426478Y-79944826D01*
G37*
G36*
X131886478Y-79944826D02*
G01*
X131992742Y-79977061D01*
X132030119Y-79988399D01*
X132162491Y-80059154D01*
X132278522Y-80154378D01*
X132373746Y-80270409D01*
X132444501Y-80402781D01*
X132459583Y-80452501D01*
X132488074Y-80546423D01*
X132499100Y-80658375D01*
X132499100Y-81088826D01*
X132488074Y-81200778D01*
X132459584Y-81294697D01*
X132444501Y-81344419D01*
X132373746Y-81476791D01*
X132373745Y-81476792D01*
X132278522Y-81592822D01*
X132180134Y-81673566D01*
X132162490Y-81688046D01*
X132030118Y-81758801D01*
X132017594Y-81762600D01*
X131886477Y-81802374D01*
X131737100Y-81817086D01*
X131587722Y-81802374D01*
X131456605Y-81762600D01*
X131444081Y-81758801D01*
X131311709Y-81688046D01*
X131279268Y-81661422D01*
X131195678Y-81592822D01*
X131100455Y-81476791D01*
X131080952Y-81440304D01*
X131029699Y-81344418D01*
X131014617Y-81294699D01*
X130986126Y-81200777D01*
X130975100Y-81088825D01*
X130975100Y-80658374D01*
X130986126Y-80546422D01*
X131018361Y-80440158D01*
X131029699Y-80402781D01*
X131100454Y-80270409D01*
X131114934Y-80252766D01*
X131195678Y-80154378D01*
X131311709Y-80059155D01*
X131311708Y-80059155D01*
X131311710Y-80059154D01*
X131444082Y-79988399D01*
X131481459Y-79977061D01*
X131587723Y-79944826D01*
X131737100Y-79930114D01*
X131886478Y-79944826D01*
G37*
G36*
X129346478Y-79944826D02*
G01*
X129452742Y-79977061D01*
X129490119Y-79988399D01*
X129622491Y-80059154D01*
X129738522Y-80154378D01*
X129833746Y-80270409D01*
X129904501Y-80402781D01*
X129919583Y-80452501D01*
X129948074Y-80546423D01*
X129959100Y-80658375D01*
X129959100Y-81088826D01*
X129948074Y-81200778D01*
X129919584Y-81294697D01*
X129904501Y-81344419D01*
X129833746Y-81476791D01*
X129833745Y-81476792D01*
X129738522Y-81592822D01*
X129640134Y-81673566D01*
X129622490Y-81688046D01*
X129490118Y-81758801D01*
X129477594Y-81762600D01*
X129346477Y-81802374D01*
X129197100Y-81817086D01*
X129047722Y-81802374D01*
X128916605Y-81762600D01*
X128904081Y-81758801D01*
X128771709Y-81688046D01*
X128739268Y-81661422D01*
X128655678Y-81592822D01*
X128560455Y-81476791D01*
X128540952Y-81440304D01*
X128489699Y-81344418D01*
X128474617Y-81294699D01*
X128446126Y-81200777D01*
X128435100Y-81088825D01*
X128435100Y-80658374D01*
X128446126Y-80546422D01*
X128478361Y-80440158D01*
X128489699Y-80402781D01*
X128560454Y-80270409D01*
X128574934Y-80252766D01*
X128655678Y-80154378D01*
X128771709Y-80059155D01*
X128771708Y-80059155D01*
X128771710Y-80059154D01*
X128904082Y-79988399D01*
X128941459Y-79977061D01*
X129047723Y-79944826D01*
X129197100Y-79930114D01*
X129346478Y-79944826D01*
G37*
G36*
X126806478Y-79944826D02*
G01*
X126912742Y-79977061D01*
X126950119Y-79988399D01*
X127082491Y-80059154D01*
X127198522Y-80154378D01*
X127293746Y-80270409D01*
X127364501Y-80402781D01*
X127379583Y-80452501D01*
X127408074Y-80546423D01*
X127419100Y-80658375D01*
X127419100Y-81088826D01*
X127408074Y-81200778D01*
X127379584Y-81294697D01*
X127364501Y-81344419D01*
X127293746Y-81476791D01*
X127293745Y-81476792D01*
X127198522Y-81592822D01*
X127100134Y-81673566D01*
X127082490Y-81688046D01*
X126950118Y-81758801D01*
X126937594Y-81762600D01*
X126806477Y-81802374D01*
X126657100Y-81817086D01*
X126507722Y-81802374D01*
X126376605Y-81762600D01*
X126364081Y-81758801D01*
X126231709Y-81688046D01*
X126199268Y-81661422D01*
X126115678Y-81592822D01*
X126020455Y-81476791D01*
X126000952Y-81440304D01*
X125949699Y-81344418D01*
X125934617Y-81294699D01*
X125906126Y-81200777D01*
X125895100Y-81088825D01*
X125895100Y-80658374D01*
X125906126Y-80546422D01*
X125938361Y-80440158D01*
X125949699Y-80402781D01*
X126020454Y-80270409D01*
X126034934Y-80252766D01*
X126115678Y-80154378D01*
X126231709Y-80059155D01*
X126231708Y-80059155D01*
X126231710Y-80059154D01*
X126364082Y-79988399D01*
X126401459Y-79977061D01*
X126507723Y-79944826D01*
X126657100Y-79930114D01*
X126806478Y-79944826D01*
G37*
G36*
X119186478Y-79944826D02*
G01*
X119292742Y-79977061D01*
X119330119Y-79988399D01*
X119462491Y-80059154D01*
X119578522Y-80154378D01*
X119673746Y-80270409D01*
X119744501Y-80402781D01*
X119759583Y-80452501D01*
X119788074Y-80546423D01*
X119799100Y-80658375D01*
X119799100Y-81088826D01*
X119788074Y-81200778D01*
X119759584Y-81294697D01*
X119744501Y-81344419D01*
X119673746Y-81476791D01*
X119673745Y-81476792D01*
X119578522Y-81592822D01*
X119480134Y-81673566D01*
X119462490Y-81688046D01*
X119330118Y-81758801D01*
X119317594Y-81762600D01*
X119186477Y-81802374D01*
X119037100Y-81817086D01*
X118887722Y-81802374D01*
X118756605Y-81762600D01*
X118744081Y-81758801D01*
X118611709Y-81688046D01*
X118579268Y-81661422D01*
X118495678Y-81592822D01*
X118400455Y-81476791D01*
X118380952Y-81440304D01*
X118329699Y-81344418D01*
X118314617Y-81294699D01*
X118286126Y-81200777D01*
X118275100Y-81088825D01*
X118275100Y-80658374D01*
X118286126Y-80546422D01*
X118318361Y-80440158D01*
X118329699Y-80402781D01*
X118400454Y-80270409D01*
X118414934Y-80252766D01*
X118495678Y-80154378D01*
X118611709Y-80059155D01*
X118611708Y-80059155D01*
X118611710Y-80059154D01*
X118744082Y-79988399D01*
X118781459Y-79977061D01*
X118887723Y-79944826D01*
X119037100Y-79930114D01*
X119186478Y-79944826D01*
G37*
G36*
X121726478Y-79944826D02*
G01*
X121832742Y-79977061D01*
X121870119Y-79988399D01*
X122002491Y-80059154D01*
X122118522Y-80154378D01*
X122213746Y-80270409D01*
X122284501Y-80402781D01*
X122299583Y-80452501D01*
X122328074Y-80546423D01*
X122339100Y-80658375D01*
X122339100Y-81088826D01*
X122328074Y-81200778D01*
X122299584Y-81294697D01*
X122284501Y-81344419D01*
X122213746Y-81476791D01*
X122213745Y-81476792D01*
X122118522Y-81592822D01*
X122020134Y-81673566D01*
X122002490Y-81688046D01*
X121870118Y-81758801D01*
X121857594Y-81762600D01*
X121726477Y-81802374D01*
X121577100Y-81817086D01*
X121427722Y-81802374D01*
X121296605Y-81762600D01*
X121284081Y-81758801D01*
X121151709Y-81688046D01*
X121119268Y-81661422D01*
X121035678Y-81592822D01*
X120940455Y-81476791D01*
X120920952Y-81440304D01*
X120869699Y-81344418D01*
X120854617Y-81294699D01*
X120826126Y-81200777D01*
X120815100Y-81088825D01*
X120815100Y-80658374D01*
X120826126Y-80546422D01*
X120858361Y-80440158D01*
X120869699Y-80402781D01*
X120940454Y-80270409D01*
X120954934Y-80252766D01*
X121035678Y-80154378D01*
X121151709Y-80059155D01*
X121151708Y-80059155D01*
X121151710Y-80059154D01*
X121284082Y-79988399D01*
X121321459Y-79977061D01*
X121427723Y-79944826D01*
X121577100Y-79930114D01*
X121726478Y-79944826D01*
G37*
G36*
X191854535Y-80001682D02*
G01*
X191940412Y-80018764D01*
X192102199Y-80085779D01*
X192247804Y-80183069D01*
X192371631Y-80306896D01*
X192468921Y-80452501D01*
X192535936Y-80614288D01*
X192570100Y-80786041D01*
X192570100Y-80961159D01*
X192535936Y-81132912D01*
X192468921Y-81294699D01*
X192371631Y-81440304D01*
X192247804Y-81564131D01*
X192102199Y-81661421D01*
X191940412Y-81728436D01*
X191768660Y-81762600D01*
X191593540Y-81762600D01*
X191421788Y-81728436D01*
X191260001Y-81661421D01*
X191114396Y-81564131D01*
X190990569Y-81440304D01*
X190893279Y-81294699D01*
X190826264Y-81132912D01*
X190792100Y-80961159D01*
X190792100Y-80786041D01*
X190826264Y-80614288D01*
X190893279Y-80452501D01*
X190990569Y-80306896D01*
X191114396Y-80183069D01*
X191260001Y-80085779D01*
X191421788Y-80018764D01*
X191507665Y-80001682D01*
X191593540Y-79984600D01*
X191768660Y-79984600D01*
X191854535Y-80001682D01*
G37*
G36*
X194394535Y-80001682D02*
G01*
X194480412Y-80018764D01*
X194642199Y-80085779D01*
X194787804Y-80183069D01*
X194911631Y-80306896D01*
X195008921Y-80452501D01*
X195075936Y-80614288D01*
X195110100Y-80786041D01*
X195110100Y-80961159D01*
X195075936Y-81132912D01*
X195008921Y-81294699D01*
X194911631Y-81440304D01*
X194787804Y-81564131D01*
X194642199Y-81661421D01*
X194480412Y-81728436D01*
X194308660Y-81762600D01*
X194133540Y-81762600D01*
X193961788Y-81728436D01*
X193800001Y-81661421D01*
X193654396Y-81564131D01*
X193530569Y-81440304D01*
X193433279Y-81294699D01*
X193366264Y-81132912D01*
X193332100Y-80961159D01*
X193332100Y-80786041D01*
X193366264Y-80614288D01*
X193433279Y-80452501D01*
X193530569Y-80306896D01*
X193654396Y-80183069D01*
X193800001Y-80085779D01*
X193961788Y-80018764D01*
X194047665Y-80001682D01*
X194133540Y-79984600D01*
X194308660Y-79984600D01*
X194394535Y-80001682D01*
G37*
M02*
