G04 #@! TF.GenerationSoftware,KiCad,Pcbnew,(5.1.5-0-10_14)*
G04 #@! TF.CreationDate,2020-03-09T21:53:23-07:00*
G04 #@! TF.ProjectId,R1,52312e6b-6963-4616-945f-706362585858,rev?*
G04 #@! TF.SameCoordinates,Original*
G04 #@! TF.FileFunction,Soldermask,Bot*
G04 #@! TF.FilePolarity,Negative*
%FSLAX46Y46*%
G04 Gerber Fmt 4.6, Leading zero omitted, Abs format (unit mm)*
G04 Created by KiCad (PCBNEW (5.1.5-0-10_14)) date 2020-03-09 21:53:23*
%MOMM*%
%LPD*%
G04 APERTURE LIST*
%ADD10C,0.100000*%
G04 APERTURE END LIST*
D10*
G36*
X128048903Y-110643213D02*
G01*
X128271177Y-110687426D01*
X128689932Y-110860880D01*
X129066802Y-111112696D01*
X129387304Y-111433198D01*
X129639120Y-111810068D01*
X129812574Y-112228823D01*
X129901000Y-112673371D01*
X129901000Y-113126629D01*
X129812574Y-113571177D01*
X129639120Y-113989932D01*
X129387304Y-114366802D01*
X129066802Y-114687304D01*
X128689932Y-114939120D01*
X128271177Y-115112574D01*
X128048903Y-115156787D01*
X127826630Y-115201000D01*
X127373370Y-115201000D01*
X127151097Y-115156787D01*
X126928823Y-115112574D01*
X126510068Y-114939120D01*
X126133198Y-114687304D01*
X125812696Y-114366802D01*
X125560880Y-113989932D01*
X125387426Y-113571177D01*
X125299000Y-113126629D01*
X125299000Y-112673371D01*
X125387426Y-112228823D01*
X125560880Y-111810068D01*
X125812696Y-111433198D01*
X126133198Y-111112696D01*
X126510068Y-110860880D01*
X126928823Y-110687426D01*
X127151097Y-110643213D01*
X127373370Y-110599000D01*
X127826630Y-110599000D01*
X128048903Y-110643213D01*
G37*
G36*
X151341000Y-113601000D02*
G01*
X150239000Y-113601000D01*
X150239000Y-111999000D01*
X151341000Y-111999000D01*
X151341000Y-113601000D01*
G37*
G36*
X148801000Y-113601000D02*
G01*
X147699000Y-113601000D01*
X147699000Y-111999000D01*
X148801000Y-111999000D01*
X148801000Y-113601000D01*
G37*
G36*
X146261000Y-113601000D02*
G01*
X145159000Y-113601000D01*
X145159000Y-111999000D01*
X146261000Y-111999000D01*
X146261000Y-113601000D01*
G37*
G36*
X174451000Y-111651000D02*
G01*
X173475999Y-111651000D01*
X173451613Y-111653402D01*
X173428164Y-111660515D01*
X173406553Y-111672066D01*
X173387611Y-111687611D01*
X173372066Y-111706553D01*
X173360515Y-111728164D01*
X173353402Y-111751613D01*
X173351000Y-111775999D01*
X173351000Y-112651000D01*
X170049000Y-112651000D01*
X170049000Y-101849000D01*
X174451000Y-101849000D01*
X174451000Y-111651000D01*
G37*
G36*
X155141000Y-108401000D02*
G01*
X153539000Y-108401000D01*
X153539000Y-106099000D01*
X155141000Y-106099000D01*
X155141000Y-108401000D01*
G37*
G36*
X140241000Y-108401000D02*
G01*
X138639000Y-108401000D01*
X138639000Y-106099000D01*
X140241000Y-106099000D01*
X140241000Y-108401000D01*
G37*
G36*
X155141000Y-105701000D02*
G01*
X153539000Y-105701000D01*
X153539000Y-103399000D01*
X155141000Y-103399000D01*
X155141000Y-105701000D01*
G37*
G36*
X140241000Y-105701000D02*
G01*
X138639000Y-105701000D01*
X138639000Y-103399000D01*
X140241000Y-103399000D01*
X140241000Y-105701000D01*
G37*
G36*
X165481938Y-104641716D02*
G01*
X165502557Y-104647971D01*
X165521553Y-104658124D01*
X165538208Y-104671792D01*
X165551876Y-104688447D01*
X165562029Y-104707443D01*
X165568284Y-104728062D01*
X165571000Y-104755640D01*
X165571000Y-105214360D01*
X165568284Y-105241938D01*
X165562029Y-105262557D01*
X165551876Y-105281553D01*
X165538208Y-105298208D01*
X165521553Y-105311876D01*
X165502557Y-105322029D01*
X165481938Y-105328284D01*
X165454360Y-105331000D01*
X164945640Y-105331000D01*
X164918062Y-105328284D01*
X164897443Y-105322029D01*
X164878447Y-105311876D01*
X164861792Y-105298208D01*
X164848124Y-105281553D01*
X164837971Y-105262557D01*
X164831716Y-105241938D01*
X164829000Y-105214360D01*
X164829000Y-104755640D01*
X164831716Y-104728062D01*
X164837971Y-104707443D01*
X164848124Y-104688447D01*
X164861792Y-104671792D01*
X164878447Y-104658124D01*
X164897443Y-104647971D01*
X164918062Y-104641716D01*
X164945640Y-104639000D01*
X165454360Y-104639000D01*
X165481938Y-104641716D01*
G37*
G36*
X165481938Y-103671716D02*
G01*
X165502557Y-103677971D01*
X165521553Y-103688124D01*
X165538208Y-103701792D01*
X165551876Y-103718447D01*
X165562029Y-103737443D01*
X165568284Y-103758062D01*
X165571000Y-103785640D01*
X165571000Y-104244360D01*
X165568284Y-104271938D01*
X165562029Y-104292557D01*
X165551876Y-104311553D01*
X165538208Y-104328208D01*
X165521553Y-104341876D01*
X165502557Y-104352029D01*
X165481938Y-104358284D01*
X165454360Y-104361000D01*
X164945640Y-104361000D01*
X164918062Y-104358284D01*
X164897443Y-104352029D01*
X164878447Y-104341876D01*
X164861792Y-104328208D01*
X164848124Y-104311553D01*
X164837971Y-104292557D01*
X164831716Y-104271938D01*
X164829000Y-104244360D01*
X164829000Y-103785640D01*
X164831716Y-103758062D01*
X164837971Y-103737443D01*
X164848124Y-103718447D01*
X164861792Y-103701792D01*
X164878447Y-103688124D01*
X164897443Y-103677971D01*
X164918062Y-103671716D01*
X164945640Y-103669000D01*
X165454360Y-103669000D01*
X165481938Y-103671716D01*
G37*
G36*
X130551000Y-102551000D02*
G01*
X129549000Y-102551000D01*
X129549000Y-101249000D01*
X130551000Y-101249000D01*
X130551000Y-102551000D01*
G37*
G36*
X133851000Y-102551000D02*
G01*
X132849000Y-102551000D01*
X132849000Y-101249000D01*
X133851000Y-101249000D01*
X133851000Y-102551000D01*
G37*
G36*
X151341000Y-101001000D02*
G01*
X150239000Y-101001000D01*
X150239000Y-99399000D01*
X151341000Y-99399000D01*
X151341000Y-101001000D01*
G37*
G36*
X148801000Y-101001000D02*
G01*
X147699000Y-101001000D01*
X147699000Y-99399000D01*
X148801000Y-99399000D01*
X148801000Y-101001000D01*
G37*
G36*
X146261000Y-101001000D02*
G01*
X145159000Y-101001000D01*
X145159000Y-99399000D01*
X146261000Y-99399000D01*
X146261000Y-101001000D01*
G37*
G36*
X156531938Y-99906716D02*
G01*
X156552557Y-99912971D01*
X156571553Y-99923124D01*
X156588208Y-99936792D01*
X156601876Y-99953447D01*
X156612029Y-99972443D01*
X156618284Y-99993062D01*
X156621000Y-100020640D01*
X156621000Y-100479360D01*
X156618284Y-100506938D01*
X156612029Y-100527557D01*
X156601876Y-100546553D01*
X156588208Y-100563208D01*
X156571553Y-100576876D01*
X156552557Y-100587029D01*
X156531938Y-100593284D01*
X156504360Y-100596000D01*
X155995640Y-100596000D01*
X155968062Y-100593284D01*
X155947443Y-100587029D01*
X155928447Y-100576876D01*
X155911792Y-100563208D01*
X155898124Y-100546553D01*
X155887971Y-100527557D01*
X155881716Y-100506938D01*
X155879000Y-100479360D01*
X155879000Y-100020640D01*
X155881716Y-99993062D01*
X155887971Y-99972443D01*
X155898124Y-99953447D01*
X155911792Y-99936792D01*
X155928447Y-99923124D01*
X155947443Y-99912971D01*
X155968062Y-99906716D01*
X155995640Y-99904000D01*
X156504360Y-99904000D01*
X156531938Y-99906716D01*
G37*
G36*
X130868604Y-98678347D02*
G01*
X130905144Y-98689432D01*
X130938821Y-98707433D01*
X130968341Y-98731659D01*
X130992567Y-98761179D01*
X131010568Y-98794856D01*
X131021653Y-98831396D01*
X131026000Y-98875538D01*
X131026000Y-100324462D01*
X131021653Y-100368604D01*
X131010568Y-100405144D01*
X130992567Y-100438821D01*
X130968341Y-100468341D01*
X130938821Y-100492567D01*
X130905144Y-100510568D01*
X130868604Y-100521653D01*
X130824462Y-100526000D01*
X129875538Y-100526000D01*
X129831396Y-100521653D01*
X129794856Y-100510568D01*
X129761179Y-100492567D01*
X129731659Y-100468341D01*
X129707433Y-100438821D01*
X129689432Y-100405144D01*
X129678347Y-100368604D01*
X129674000Y-100324462D01*
X129674000Y-98875538D01*
X129678347Y-98831396D01*
X129689432Y-98794856D01*
X129707433Y-98761179D01*
X129731659Y-98731659D01*
X129761179Y-98707433D01*
X129794856Y-98689432D01*
X129831396Y-98678347D01*
X129875538Y-98674000D01*
X130824462Y-98674000D01*
X130868604Y-98678347D01*
G37*
G36*
X133668604Y-98678347D02*
G01*
X133705144Y-98689432D01*
X133738821Y-98707433D01*
X133768341Y-98731659D01*
X133792567Y-98761179D01*
X133810568Y-98794856D01*
X133821653Y-98831396D01*
X133826000Y-98875538D01*
X133826000Y-100324462D01*
X133821653Y-100368604D01*
X133810568Y-100405144D01*
X133792567Y-100438821D01*
X133768341Y-100468341D01*
X133738821Y-100492567D01*
X133705144Y-100510568D01*
X133668604Y-100521653D01*
X133624462Y-100526000D01*
X132675538Y-100526000D01*
X132631396Y-100521653D01*
X132594856Y-100510568D01*
X132561179Y-100492567D01*
X132531659Y-100468341D01*
X132507433Y-100438821D01*
X132489432Y-100405144D01*
X132478347Y-100368604D01*
X132474000Y-100324462D01*
X132474000Y-98875538D01*
X132478347Y-98831396D01*
X132489432Y-98794856D01*
X132507433Y-98761179D01*
X132531659Y-98731659D01*
X132561179Y-98707433D01*
X132594856Y-98689432D01*
X132631396Y-98678347D01*
X132675538Y-98674000D01*
X133624462Y-98674000D01*
X133668604Y-98678347D01*
G37*
G36*
X163271938Y-99131716D02*
G01*
X163292557Y-99137971D01*
X163311553Y-99148124D01*
X163328208Y-99161792D01*
X163341876Y-99178447D01*
X163352029Y-99197443D01*
X163358284Y-99218062D01*
X163361000Y-99245640D01*
X163361000Y-99754360D01*
X163358284Y-99781938D01*
X163352029Y-99802557D01*
X163341876Y-99821553D01*
X163328208Y-99838208D01*
X163311553Y-99851876D01*
X163292557Y-99862029D01*
X163271938Y-99868284D01*
X163244360Y-99871000D01*
X162785640Y-99871000D01*
X162758062Y-99868284D01*
X162737443Y-99862029D01*
X162718447Y-99851876D01*
X162701792Y-99838208D01*
X162688124Y-99821553D01*
X162677971Y-99802557D01*
X162671716Y-99781938D01*
X162669000Y-99754360D01*
X162669000Y-99245640D01*
X162671716Y-99218062D01*
X162677971Y-99197443D01*
X162688124Y-99178447D01*
X162701792Y-99161792D01*
X162718447Y-99148124D01*
X162737443Y-99137971D01*
X162758062Y-99131716D01*
X162785640Y-99129000D01*
X163244360Y-99129000D01*
X163271938Y-99131716D01*
G37*
G36*
X164241938Y-99131716D02*
G01*
X164262557Y-99137971D01*
X164281553Y-99148124D01*
X164298208Y-99161792D01*
X164311876Y-99178447D01*
X164322029Y-99197443D01*
X164328284Y-99218062D01*
X164331000Y-99245640D01*
X164331000Y-99754360D01*
X164328284Y-99781938D01*
X164322029Y-99802557D01*
X164311876Y-99821553D01*
X164298208Y-99838208D01*
X164281553Y-99851876D01*
X164262557Y-99862029D01*
X164241938Y-99868284D01*
X164214360Y-99871000D01*
X163755640Y-99871000D01*
X163728062Y-99868284D01*
X163707443Y-99862029D01*
X163688447Y-99851876D01*
X163671792Y-99838208D01*
X163658124Y-99821553D01*
X163647971Y-99802557D01*
X163641716Y-99781938D01*
X163639000Y-99754360D01*
X163639000Y-99245640D01*
X163641716Y-99218062D01*
X163647971Y-99197443D01*
X163658124Y-99178447D01*
X163671792Y-99161792D01*
X163688447Y-99148124D01*
X163707443Y-99137971D01*
X163728062Y-99131716D01*
X163755640Y-99129000D01*
X164214360Y-99129000D01*
X164241938Y-99131716D01*
G37*
G36*
X174451000Y-99651000D02*
G01*
X170049000Y-99651000D01*
X170049000Y-92849000D01*
X174451000Y-92849000D01*
X174451000Y-99651000D01*
G37*
G36*
X156531938Y-98936716D02*
G01*
X156552557Y-98942971D01*
X156571553Y-98953124D01*
X156588208Y-98966792D01*
X156601876Y-98983447D01*
X156612029Y-99002443D01*
X156618284Y-99023062D01*
X156621000Y-99050640D01*
X156621000Y-99509360D01*
X156618284Y-99536938D01*
X156612029Y-99557557D01*
X156601876Y-99576553D01*
X156588208Y-99593208D01*
X156571553Y-99606876D01*
X156552557Y-99617029D01*
X156531938Y-99623284D01*
X156504360Y-99626000D01*
X155995640Y-99626000D01*
X155968062Y-99623284D01*
X155947443Y-99617029D01*
X155928447Y-99606876D01*
X155911792Y-99593208D01*
X155898124Y-99576553D01*
X155887971Y-99557557D01*
X155881716Y-99536938D01*
X155879000Y-99509360D01*
X155879000Y-99050640D01*
X155881716Y-99023062D01*
X155887971Y-99002443D01*
X155898124Y-98983447D01*
X155911792Y-98966792D01*
X155928447Y-98953124D01*
X155947443Y-98942971D01*
X155968062Y-98936716D01*
X155995640Y-98934000D01*
X156504360Y-98934000D01*
X156531938Y-98936716D01*
G37*
G36*
X161677249Y-94480251D02*
G01*
X161679651Y-94504637D01*
X161686764Y-94528086D01*
X161698315Y-94549697D01*
X161713860Y-94568639D01*
X161732802Y-94584184D01*
X161754413Y-94595735D01*
X161777862Y-94602848D01*
X161802248Y-94605250D01*
X162710250Y-94605250D01*
X162734636Y-94602848D01*
X162758085Y-94595735D01*
X162779696Y-94584184D01*
X162798638Y-94568639D01*
X162814183Y-94549697D01*
X162825734Y-94528086D01*
X162832847Y-94504637D01*
X162835249Y-94480251D01*
X162835249Y-93680250D01*
X163177249Y-93680250D01*
X163177249Y-94480251D01*
X163179651Y-94504637D01*
X163186764Y-94528086D01*
X163198315Y-94549697D01*
X163213860Y-94568639D01*
X163232802Y-94584184D01*
X163254413Y-94595735D01*
X163277862Y-94602848D01*
X163302248Y-94605250D01*
X163430250Y-94605250D01*
X163454636Y-94602848D01*
X163478085Y-94595735D01*
X163499696Y-94584184D01*
X163518638Y-94568639D01*
X163534183Y-94549697D01*
X163545734Y-94528086D01*
X163552847Y-94504637D01*
X163555249Y-94480251D01*
X163555249Y-94260250D01*
X164257249Y-94260250D01*
X164257249Y-98102250D01*
X163555249Y-98102250D01*
X163555249Y-97882249D01*
X163552847Y-97857863D01*
X163545734Y-97834414D01*
X163534183Y-97812803D01*
X163518638Y-97793861D01*
X163499696Y-97778316D01*
X163478085Y-97766765D01*
X163454636Y-97759652D01*
X163430250Y-97757250D01*
X163302248Y-97757250D01*
X163277862Y-97759652D01*
X163254413Y-97766765D01*
X163232802Y-97778316D01*
X163213860Y-97793861D01*
X163198315Y-97812803D01*
X163186764Y-97834414D01*
X163179651Y-97857863D01*
X163177249Y-97882249D01*
X163177249Y-98682250D01*
X162835249Y-98682250D01*
X162835249Y-97882249D01*
X162832847Y-97857863D01*
X162825734Y-97834414D01*
X162814183Y-97812803D01*
X162798638Y-97793861D01*
X162779696Y-97778316D01*
X162758085Y-97766765D01*
X162734636Y-97759652D01*
X162710250Y-97757250D01*
X161802248Y-97757250D01*
X161777862Y-97759652D01*
X161754413Y-97766765D01*
X161732802Y-97778316D01*
X161713860Y-97793861D01*
X161698315Y-97812803D01*
X161686764Y-97834414D01*
X161679651Y-97857863D01*
X161677249Y-97882249D01*
X161677249Y-98682250D01*
X161335249Y-98682250D01*
X161335249Y-97882249D01*
X161332847Y-97857863D01*
X161325734Y-97834414D01*
X161314183Y-97812803D01*
X161298638Y-97793861D01*
X161279696Y-97778316D01*
X161258085Y-97766765D01*
X161234636Y-97759652D01*
X161210250Y-97757250D01*
X161082248Y-97757250D01*
X161057862Y-97759652D01*
X161034413Y-97766765D01*
X161012802Y-97778316D01*
X160993860Y-97793861D01*
X160978315Y-97812803D01*
X160966764Y-97834414D01*
X160959651Y-97857863D01*
X160957249Y-97882249D01*
X160957249Y-98102250D01*
X160255249Y-98102250D01*
X160255249Y-94260250D01*
X160957249Y-94260250D01*
X160957249Y-94480251D01*
X160959651Y-94504637D01*
X160966764Y-94528086D01*
X160978315Y-94549697D01*
X160993860Y-94568639D01*
X161012802Y-94584184D01*
X161034413Y-94595735D01*
X161057862Y-94602848D01*
X161082248Y-94605250D01*
X161210250Y-94605250D01*
X161234636Y-94602848D01*
X161258085Y-94595735D01*
X161279696Y-94584184D01*
X161298638Y-94568639D01*
X161314183Y-94549697D01*
X161325734Y-94528086D01*
X161332847Y-94504637D01*
X161335249Y-94480251D01*
X161335249Y-93680250D01*
X161677249Y-93680250D01*
X161677249Y-94480251D01*
G37*
G36*
X157891938Y-93506716D02*
G01*
X157912557Y-93512971D01*
X157931553Y-93523124D01*
X157948208Y-93536792D01*
X157961876Y-93553447D01*
X157972029Y-93572443D01*
X157978284Y-93593062D01*
X157981000Y-93620640D01*
X157981000Y-94129360D01*
X157978284Y-94156938D01*
X157972029Y-94177557D01*
X157961876Y-94196553D01*
X157948208Y-94213208D01*
X157931553Y-94226876D01*
X157912557Y-94237029D01*
X157891938Y-94243284D01*
X157864360Y-94246000D01*
X157405640Y-94246000D01*
X157378062Y-94243284D01*
X157357443Y-94237029D01*
X157338447Y-94226876D01*
X157321792Y-94213208D01*
X157308124Y-94196553D01*
X157297971Y-94177557D01*
X157291716Y-94156938D01*
X157289000Y-94129360D01*
X157289000Y-93620640D01*
X157291716Y-93593062D01*
X157297971Y-93572443D01*
X157308124Y-93553447D01*
X157321792Y-93536792D01*
X157338447Y-93523124D01*
X157357443Y-93512971D01*
X157378062Y-93506716D01*
X157405640Y-93504000D01*
X157864360Y-93504000D01*
X157891938Y-93506716D01*
G37*
G36*
X156921938Y-93506716D02*
G01*
X156942557Y-93512971D01*
X156961553Y-93523124D01*
X156978208Y-93536792D01*
X156991876Y-93553447D01*
X157002029Y-93572443D01*
X157008284Y-93593062D01*
X157011000Y-93620640D01*
X157011000Y-94129360D01*
X157008284Y-94156938D01*
X157002029Y-94177557D01*
X156991876Y-94196553D01*
X156978208Y-94213208D01*
X156961553Y-94226876D01*
X156942557Y-94237029D01*
X156921938Y-94243284D01*
X156894360Y-94246000D01*
X156435640Y-94246000D01*
X156408062Y-94243284D01*
X156387443Y-94237029D01*
X156368447Y-94226876D01*
X156351792Y-94213208D01*
X156338124Y-94196553D01*
X156327971Y-94177557D01*
X156321716Y-94156938D01*
X156319000Y-94129360D01*
X156319000Y-93620640D01*
X156321716Y-93593062D01*
X156327971Y-93572443D01*
X156338124Y-93553447D01*
X156351792Y-93536792D01*
X156368447Y-93523124D01*
X156387443Y-93512971D01*
X156408062Y-93506716D01*
X156435640Y-93504000D01*
X156894360Y-93504000D01*
X156921938Y-93506716D01*
G37*
G36*
X154291938Y-93506716D02*
G01*
X154312557Y-93512971D01*
X154331553Y-93523124D01*
X154348208Y-93536792D01*
X154361876Y-93553447D01*
X154372029Y-93572443D01*
X154378284Y-93593062D01*
X154381000Y-93620640D01*
X154381000Y-94129360D01*
X154378284Y-94156938D01*
X154372029Y-94177557D01*
X154361876Y-94196553D01*
X154348208Y-94213208D01*
X154331553Y-94226876D01*
X154312557Y-94237029D01*
X154291938Y-94243284D01*
X154264360Y-94246000D01*
X153805640Y-94246000D01*
X153778062Y-94243284D01*
X153757443Y-94237029D01*
X153738447Y-94226876D01*
X153721792Y-94213208D01*
X153708124Y-94196553D01*
X153697971Y-94177557D01*
X153691716Y-94156938D01*
X153689000Y-94129360D01*
X153689000Y-93620640D01*
X153691716Y-93593062D01*
X153697971Y-93572443D01*
X153708124Y-93553447D01*
X153721792Y-93536792D01*
X153738447Y-93523124D01*
X153757443Y-93512971D01*
X153778062Y-93506716D01*
X153805640Y-93504000D01*
X154264360Y-93504000D01*
X154291938Y-93506716D01*
G37*
G36*
X153321938Y-93506716D02*
G01*
X153342557Y-93512971D01*
X153361553Y-93523124D01*
X153378208Y-93536792D01*
X153391876Y-93553447D01*
X153402029Y-93572443D01*
X153408284Y-93593062D01*
X153411000Y-93620640D01*
X153411000Y-94129360D01*
X153408284Y-94156938D01*
X153402029Y-94177557D01*
X153391876Y-94196553D01*
X153378208Y-94213208D01*
X153361553Y-94226876D01*
X153342557Y-94237029D01*
X153321938Y-94243284D01*
X153294360Y-94246000D01*
X152835640Y-94246000D01*
X152808062Y-94243284D01*
X152787443Y-94237029D01*
X152768447Y-94226876D01*
X152751792Y-94213208D01*
X152738124Y-94196553D01*
X152727971Y-94177557D01*
X152721716Y-94156938D01*
X152719000Y-94129360D01*
X152719000Y-93620640D01*
X152721716Y-93593062D01*
X152727971Y-93572443D01*
X152738124Y-93553447D01*
X152751792Y-93536792D01*
X152768447Y-93523124D01*
X152787443Y-93512971D01*
X152808062Y-93506716D01*
X152835640Y-93504000D01*
X153294360Y-93504000D01*
X153321938Y-93506716D01*
G37*
G36*
X150691938Y-93506716D02*
G01*
X150712557Y-93512971D01*
X150731553Y-93523124D01*
X150748208Y-93536792D01*
X150761876Y-93553447D01*
X150772029Y-93572443D01*
X150778284Y-93593062D01*
X150781000Y-93620640D01*
X150781000Y-94129360D01*
X150778284Y-94156938D01*
X150772029Y-94177557D01*
X150761876Y-94196553D01*
X150748208Y-94213208D01*
X150731553Y-94226876D01*
X150712557Y-94237029D01*
X150691938Y-94243284D01*
X150664360Y-94246000D01*
X150205640Y-94246000D01*
X150178062Y-94243284D01*
X150157443Y-94237029D01*
X150138447Y-94226876D01*
X150121792Y-94213208D01*
X150108124Y-94196553D01*
X150097971Y-94177557D01*
X150091716Y-94156938D01*
X150089000Y-94129360D01*
X150089000Y-93620640D01*
X150091716Y-93593062D01*
X150097971Y-93572443D01*
X150108124Y-93553447D01*
X150121792Y-93536792D01*
X150138447Y-93523124D01*
X150157443Y-93512971D01*
X150178062Y-93506716D01*
X150205640Y-93504000D01*
X150664360Y-93504000D01*
X150691938Y-93506716D01*
G37*
G36*
X149721938Y-93506716D02*
G01*
X149742557Y-93512971D01*
X149761553Y-93523124D01*
X149778208Y-93536792D01*
X149791876Y-93553447D01*
X149802029Y-93572443D01*
X149808284Y-93593062D01*
X149811000Y-93620640D01*
X149811000Y-94129360D01*
X149808284Y-94156938D01*
X149802029Y-94177557D01*
X149791876Y-94196553D01*
X149778208Y-94213208D01*
X149761553Y-94226876D01*
X149742557Y-94237029D01*
X149721938Y-94243284D01*
X149694360Y-94246000D01*
X149235640Y-94246000D01*
X149208062Y-94243284D01*
X149187443Y-94237029D01*
X149168447Y-94226876D01*
X149151792Y-94213208D01*
X149138124Y-94196553D01*
X149127971Y-94177557D01*
X149121716Y-94156938D01*
X149119000Y-94129360D01*
X149119000Y-93620640D01*
X149121716Y-93593062D01*
X149127971Y-93572443D01*
X149138124Y-93553447D01*
X149151792Y-93536792D01*
X149168447Y-93523124D01*
X149187443Y-93512971D01*
X149208062Y-93506716D01*
X149235640Y-93504000D01*
X149694360Y-93504000D01*
X149721938Y-93506716D01*
G37*
G36*
X161756938Y-92381716D02*
G01*
X161777557Y-92387971D01*
X161796553Y-92398124D01*
X161813208Y-92411792D01*
X161826876Y-92428447D01*
X161837029Y-92447443D01*
X161843284Y-92468062D01*
X161846000Y-92495640D01*
X161846000Y-93004360D01*
X161843284Y-93031938D01*
X161837029Y-93052557D01*
X161826876Y-93071553D01*
X161813208Y-93088208D01*
X161796553Y-93101876D01*
X161777557Y-93112029D01*
X161756938Y-93118284D01*
X161729360Y-93121000D01*
X161270640Y-93121000D01*
X161243062Y-93118284D01*
X161222443Y-93112029D01*
X161203447Y-93101876D01*
X161186792Y-93088208D01*
X161173124Y-93071553D01*
X161162971Y-93052557D01*
X161156716Y-93031938D01*
X161154000Y-93004360D01*
X161154000Y-92495640D01*
X161156716Y-92468062D01*
X161162971Y-92447443D01*
X161173124Y-92428447D01*
X161186792Y-92411792D01*
X161203447Y-92398124D01*
X161222443Y-92387971D01*
X161243062Y-92381716D01*
X161270640Y-92379000D01*
X161729360Y-92379000D01*
X161756938Y-92381716D01*
G37*
G36*
X160786938Y-92381716D02*
G01*
X160807557Y-92387971D01*
X160826553Y-92398124D01*
X160843208Y-92411792D01*
X160856876Y-92428447D01*
X160867029Y-92447443D01*
X160873284Y-92468062D01*
X160876000Y-92495640D01*
X160876000Y-93004360D01*
X160873284Y-93031938D01*
X160867029Y-93052557D01*
X160856876Y-93071553D01*
X160843208Y-93088208D01*
X160826553Y-93101876D01*
X160807557Y-93112029D01*
X160786938Y-93118284D01*
X160759360Y-93121000D01*
X160300640Y-93121000D01*
X160273062Y-93118284D01*
X160252443Y-93112029D01*
X160233447Y-93101876D01*
X160216792Y-93088208D01*
X160203124Y-93071553D01*
X160192971Y-93052557D01*
X160186716Y-93031938D01*
X160184000Y-93004360D01*
X160184000Y-92495640D01*
X160186716Y-92468062D01*
X160192971Y-92447443D01*
X160203124Y-92428447D01*
X160216792Y-92411792D01*
X160233447Y-92398124D01*
X160252443Y-92387971D01*
X160273062Y-92381716D01*
X160300640Y-92379000D01*
X160759360Y-92379000D01*
X160786938Y-92381716D01*
G37*
G36*
X156651000Y-92676000D02*
G01*
X155649000Y-92676000D01*
X155649000Y-91774000D01*
X156651000Y-91774000D01*
X156651000Y-92676000D01*
G37*
G36*
X153051000Y-92676000D02*
G01*
X152049000Y-92676000D01*
X152049000Y-91774000D01*
X153051000Y-91774000D01*
X153051000Y-92676000D01*
G37*
G36*
X149451000Y-92676000D02*
G01*
X148449000Y-92676000D01*
X148449000Y-91774000D01*
X149451000Y-91774000D01*
X149451000Y-92676000D01*
G37*
G36*
X145901000Y-92651000D02*
G01*
X144899000Y-92651000D01*
X144899000Y-91749000D01*
X145901000Y-91749000D01*
X145901000Y-92651000D01*
G37*
G36*
X155051000Y-91726000D02*
G01*
X154049000Y-91726000D01*
X154049000Y-90824000D01*
X155051000Y-90824000D01*
X155051000Y-91726000D01*
G37*
G36*
X158651000Y-91726000D02*
G01*
X157649000Y-91726000D01*
X157649000Y-90824000D01*
X158651000Y-90824000D01*
X158651000Y-91726000D01*
G37*
G36*
X151451000Y-91726000D02*
G01*
X150449000Y-91726000D01*
X150449000Y-90824000D01*
X151451000Y-90824000D01*
X151451000Y-91726000D01*
G37*
G36*
X147901000Y-91701000D02*
G01*
X146899000Y-91701000D01*
X146899000Y-90799000D01*
X147901000Y-90799000D01*
X147901000Y-91701000D01*
G37*
G36*
X128048903Y-86443213D02*
G01*
X128271177Y-86487426D01*
X128689932Y-86660880D01*
X129066802Y-86912696D01*
X129387304Y-87233198D01*
X129639120Y-87610068D01*
X129812574Y-88028823D01*
X129812574Y-88028824D01*
X129901000Y-88473370D01*
X129901000Y-88926630D01*
X129881060Y-89026876D01*
X129812574Y-89371177D01*
X129639120Y-89789932D01*
X129387304Y-90166802D01*
X129066802Y-90487304D01*
X128689932Y-90739120D01*
X128271177Y-90912574D01*
X128048903Y-90956787D01*
X127826630Y-91001000D01*
X127373370Y-91001000D01*
X127151097Y-90956787D01*
X126928823Y-90912574D01*
X126510068Y-90739120D01*
X126133198Y-90487304D01*
X125812696Y-90166802D01*
X125560880Y-89789932D01*
X125387426Y-89371177D01*
X125318940Y-89026876D01*
X125299000Y-88926630D01*
X125299000Y-88473370D01*
X125387426Y-88028824D01*
X125387426Y-88028823D01*
X125560880Y-87610068D01*
X125812696Y-87233198D01*
X126133198Y-86912696D01*
X126510068Y-86660880D01*
X126928823Y-86487426D01*
X127151097Y-86443213D01*
X127373370Y-86399000D01*
X127826630Y-86399000D01*
X128048903Y-86443213D01*
G37*
G36*
X149451000Y-90776000D02*
G01*
X148449000Y-90776000D01*
X148449000Y-89874000D01*
X149451000Y-89874000D01*
X149451000Y-90776000D01*
G37*
G36*
X153051000Y-90776000D02*
G01*
X152049000Y-90776000D01*
X152049000Y-89874000D01*
X153051000Y-89874000D01*
X153051000Y-90776000D01*
G37*
G36*
X156651000Y-90776000D02*
G01*
X155649000Y-90776000D01*
X155649000Y-89874000D01*
X156651000Y-89874000D01*
X156651000Y-90776000D01*
G37*
G36*
X145901000Y-90751000D02*
G01*
X144899000Y-90751000D01*
X144899000Y-89849000D01*
X145901000Y-89849000D01*
X145901000Y-90751000D01*
G37*
G36*
X159781938Y-89126716D02*
G01*
X159802557Y-89132971D01*
X159821553Y-89143124D01*
X159838208Y-89156792D01*
X159851876Y-89173447D01*
X159862029Y-89192443D01*
X159868284Y-89213062D01*
X159871000Y-89240640D01*
X159871000Y-89699360D01*
X159868284Y-89726938D01*
X159862029Y-89747557D01*
X159851876Y-89766553D01*
X159838208Y-89783208D01*
X159821553Y-89796876D01*
X159802557Y-89807029D01*
X159781938Y-89813284D01*
X159754360Y-89816000D01*
X159245640Y-89816000D01*
X159218062Y-89813284D01*
X159197443Y-89807029D01*
X159178447Y-89796876D01*
X159161792Y-89783208D01*
X159148124Y-89766553D01*
X159137971Y-89747557D01*
X159131716Y-89726938D01*
X159129000Y-89699360D01*
X159129000Y-89240640D01*
X159131716Y-89213062D01*
X159137971Y-89192443D01*
X159148124Y-89173447D01*
X159161792Y-89156792D01*
X159178447Y-89143124D01*
X159197443Y-89132971D01*
X159218062Y-89126716D01*
X159245640Y-89124000D01*
X159754360Y-89124000D01*
X159781938Y-89126716D01*
G37*
G36*
X161531938Y-89126716D02*
G01*
X161552557Y-89132971D01*
X161571553Y-89143124D01*
X161588208Y-89156792D01*
X161601876Y-89173447D01*
X161612029Y-89192443D01*
X161618284Y-89213062D01*
X161621000Y-89240640D01*
X161621000Y-89699360D01*
X161618284Y-89726938D01*
X161612029Y-89747557D01*
X161601876Y-89766553D01*
X161588208Y-89783208D01*
X161571553Y-89796876D01*
X161552557Y-89807029D01*
X161531938Y-89813284D01*
X161504360Y-89816000D01*
X160995640Y-89816000D01*
X160968062Y-89813284D01*
X160947443Y-89807029D01*
X160928447Y-89796876D01*
X160911792Y-89783208D01*
X160898124Y-89766553D01*
X160887971Y-89747557D01*
X160881716Y-89726938D01*
X160879000Y-89699360D01*
X160879000Y-89240640D01*
X160881716Y-89213062D01*
X160887971Y-89192443D01*
X160898124Y-89173447D01*
X160911792Y-89156792D01*
X160928447Y-89143124D01*
X160947443Y-89132971D01*
X160968062Y-89126716D01*
X160995640Y-89124000D01*
X161504360Y-89124000D01*
X161531938Y-89126716D01*
G37*
G36*
X146271938Y-88331716D02*
G01*
X146292557Y-88337971D01*
X146311553Y-88348124D01*
X146328208Y-88361792D01*
X146341876Y-88378447D01*
X146352029Y-88397443D01*
X146358284Y-88418062D01*
X146361000Y-88445640D01*
X146361000Y-88954360D01*
X146358284Y-88981938D01*
X146352029Y-89002557D01*
X146341876Y-89021553D01*
X146328208Y-89038208D01*
X146311553Y-89051876D01*
X146292557Y-89062029D01*
X146271938Y-89068284D01*
X146244360Y-89071000D01*
X145785640Y-89071000D01*
X145758062Y-89068284D01*
X145737443Y-89062029D01*
X145718447Y-89051876D01*
X145701792Y-89038208D01*
X145688124Y-89021553D01*
X145677971Y-89002557D01*
X145671716Y-88981938D01*
X145669000Y-88954360D01*
X145669000Y-88445640D01*
X145671716Y-88418062D01*
X145677971Y-88397443D01*
X145688124Y-88378447D01*
X145701792Y-88361792D01*
X145718447Y-88348124D01*
X145737443Y-88337971D01*
X145758062Y-88331716D01*
X145785640Y-88329000D01*
X146244360Y-88329000D01*
X146271938Y-88331716D01*
G37*
G36*
X147241938Y-88331716D02*
G01*
X147262557Y-88337971D01*
X147281553Y-88348124D01*
X147298208Y-88361792D01*
X147311876Y-88378447D01*
X147322029Y-88397443D01*
X147328284Y-88418062D01*
X147331000Y-88445640D01*
X147331000Y-88954360D01*
X147328284Y-88981938D01*
X147322029Y-89002557D01*
X147311876Y-89021553D01*
X147298208Y-89038208D01*
X147281553Y-89051876D01*
X147262557Y-89062029D01*
X147241938Y-89068284D01*
X147214360Y-89071000D01*
X146755640Y-89071000D01*
X146728062Y-89068284D01*
X146707443Y-89062029D01*
X146688447Y-89051876D01*
X146671792Y-89038208D01*
X146658124Y-89021553D01*
X146647971Y-89002557D01*
X146641716Y-88981938D01*
X146639000Y-88954360D01*
X146639000Y-88445640D01*
X146641716Y-88418062D01*
X146647971Y-88397443D01*
X146658124Y-88378447D01*
X146671792Y-88361792D01*
X146688447Y-88348124D01*
X146707443Y-88337971D01*
X146728062Y-88331716D01*
X146755640Y-88329000D01*
X147214360Y-88329000D01*
X147241938Y-88331716D01*
G37*
G36*
X150691938Y-88306716D02*
G01*
X150712557Y-88312971D01*
X150731553Y-88323124D01*
X150748208Y-88336792D01*
X150761876Y-88353447D01*
X150772029Y-88372443D01*
X150778284Y-88393062D01*
X150781000Y-88420640D01*
X150781000Y-88929360D01*
X150778284Y-88956938D01*
X150772029Y-88977557D01*
X150761876Y-88996553D01*
X150748208Y-89013208D01*
X150731553Y-89026876D01*
X150712557Y-89037029D01*
X150691938Y-89043284D01*
X150664360Y-89046000D01*
X150205640Y-89046000D01*
X150178062Y-89043284D01*
X150157443Y-89037029D01*
X150138447Y-89026876D01*
X150121792Y-89013208D01*
X150108124Y-88996553D01*
X150097971Y-88977557D01*
X150091716Y-88956938D01*
X150089000Y-88929360D01*
X150089000Y-88420640D01*
X150091716Y-88393062D01*
X150097971Y-88372443D01*
X150108124Y-88353447D01*
X150121792Y-88336792D01*
X150138447Y-88323124D01*
X150157443Y-88312971D01*
X150178062Y-88306716D01*
X150205640Y-88304000D01*
X150664360Y-88304000D01*
X150691938Y-88306716D01*
G37*
G36*
X153321938Y-88306716D02*
G01*
X153342557Y-88312971D01*
X153361553Y-88323124D01*
X153378208Y-88336792D01*
X153391876Y-88353447D01*
X153402029Y-88372443D01*
X153408284Y-88393062D01*
X153411000Y-88420640D01*
X153411000Y-88929360D01*
X153408284Y-88956938D01*
X153402029Y-88977557D01*
X153391876Y-88996553D01*
X153378208Y-89013208D01*
X153361553Y-89026876D01*
X153342557Y-89037029D01*
X153321938Y-89043284D01*
X153294360Y-89046000D01*
X152835640Y-89046000D01*
X152808062Y-89043284D01*
X152787443Y-89037029D01*
X152768447Y-89026876D01*
X152751792Y-89013208D01*
X152738124Y-88996553D01*
X152727971Y-88977557D01*
X152721716Y-88956938D01*
X152719000Y-88929360D01*
X152719000Y-88420640D01*
X152721716Y-88393062D01*
X152727971Y-88372443D01*
X152738124Y-88353447D01*
X152751792Y-88336792D01*
X152768447Y-88323124D01*
X152787443Y-88312971D01*
X152808062Y-88306716D01*
X152835640Y-88304000D01*
X153294360Y-88304000D01*
X153321938Y-88306716D01*
G37*
G36*
X154291938Y-88306716D02*
G01*
X154312557Y-88312971D01*
X154331553Y-88323124D01*
X154348208Y-88336792D01*
X154361876Y-88353447D01*
X154372029Y-88372443D01*
X154378284Y-88393062D01*
X154381000Y-88420640D01*
X154381000Y-88929360D01*
X154378284Y-88956938D01*
X154372029Y-88977557D01*
X154361876Y-88996553D01*
X154348208Y-89013208D01*
X154331553Y-89026876D01*
X154312557Y-89037029D01*
X154291938Y-89043284D01*
X154264360Y-89046000D01*
X153805640Y-89046000D01*
X153778062Y-89043284D01*
X153757443Y-89037029D01*
X153738447Y-89026876D01*
X153721792Y-89013208D01*
X153708124Y-88996553D01*
X153697971Y-88977557D01*
X153691716Y-88956938D01*
X153689000Y-88929360D01*
X153689000Y-88420640D01*
X153691716Y-88393062D01*
X153697971Y-88372443D01*
X153708124Y-88353447D01*
X153721792Y-88336792D01*
X153738447Y-88323124D01*
X153757443Y-88312971D01*
X153778062Y-88306716D01*
X153805640Y-88304000D01*
X154264360Y-88304000D01*
X154291938Y-88306716D01*
G37*
G36*
X156921938Y-88306716D02*
G01*
X156942557Y-88312971D01*
X156961553Y-88323124D01*
X156978208Y-88336792D01*
X156991876Y-88353447D01*
X157002029Y-88372443D01*
X157008284Y-88393062D01*
X157011000Y-88420640D01*
X157011000Y-88929360D01*
X157008284Y-88956938D01*
X157002029Y-88977557D01*
X156991876Y-88996553D01*
X156978208Y-89013208D01*
X156961553Y-89026876D01*
X156942557Y-89037029D01*
X156921938Y-89043284D01*
X156894360Y-89046000D01*
X156435640Y-89046000D01*
X156408062Y-89043284D01*
X156387443Y-89037029D01*
X156368447Y-89026876D01*
X156351792Y-89013208D01*
X156338124Y-88996553D01*
X156327971Y-88977557D01*
X156321716Y-88956938D01*
X156319000Y-88929360D01*
X156319000Y-88420640D01*
X156321716Y-88393062D01*
X156327971Y-88372443D01*
X156338124Y-88353447D01*
X156351792Y-88336792D01*
X156368447Y-88323124D01*
X156387443Y-88312971D01*
X156408062Y-88306716D01*
X156435640Y-88304000D01*
X156894360Y-88304000D01*
X156921938Y-88306716D01*
G37*
G36*
X157891938Y-88306716D02*
G01*
X157912557Y-88312971D01*
X157931553Y-88323124D01*
X157948208Y-88336792D01*
X157961876Y-88353447D01*
X157972029Y-88372443D01*
X157978284Y-88393062D01*
X157981000Y-88420640D01*
X157981000Y-88929360D01*
X157978284Y-88956938D01*
X157972029Y-88977557D01*
X157961876Y-88996553D01*
X157948208Y-89013208D01*
X157931553Y-89026876D01*
X157912557Y-89037029D01*
X157891938Y-89043284D01*
X157864360Y-89046000D01*
X157405640Y-89046000D01*
X157378062Y-89043284D01*
X157357443Y-89037029D01*
X157338447Y-89026876D01*
X157321792Y-89013208D01*
X157308124Y-88996553D01*
X157297971Y-88977557D01*
X157291716Y-88956938D01*
X157289000Y-88929360D01*
X157289000Y-88420640D01*
X157291716Y-88393062D01*
X157297971Y-88372443D01*
X157308124Y-88353447D01*
X157321792Y-88336792D01*
X157338447Y-88323124D01*
X157357443Y-88312971D01*
X157378062Y-88306716D01*
X157405640Y-88304000D01*
X157864360Y-88304000D01*
X157891938Y-88306716D01*
G37*
G36*
X149721938Y-88306716D02*
G01*
X149742557Y-88312971D01*
X149761553Y-88323124D01*
X149778208Y-88336792D01*
X149791876Y-88353447D01*
X149802029Y-88372443D01*
X149808284Y-88393062D01*
X149811000Y-88420640D01*
X149811000Y-88929360D01*
X149808284Y-88956938D01*
X149802029Y-88977557D01*
X149791876Y-88996553D01*
X149778208Y-89013208D01*
X149761553Y-89026876D01*
X149742557Y-89037029D01*
X149721938Y-89043284D01*
X149694360Y-89046000D01*
X149235640Y-89046000D01*
X149208062Y-89043284D01*
X149187443Y-89037029D01*
X149168447Y-89026876D01*
X149151792Y-89013208D01*
X149138124Y-88996553D01*
X149127971Y-88977557D01*
X149121716Y-88956938D01*
X149119000Y-88929360D01*
X149119000Y-88420640D01*
X149121716Y-88393062D01*
X149127971Y-88372443D01*
X149138124Y-88353447D01*
X149151792Y-88336792D01*
X149168447Y-88323124D01*
X149187443Y-88312971D01*
X149208062Y-88306716D01*
X149235640Y-88304000D01*
X149694360Y-88304000D01*
X149721938Y-88306716D01*
G37*
G36*
X159781938Y-88156716D02*
G01*
X159802557Y-88162971D01*
X159821553Y-88173124D01*
X159838208Y-88186792D01*
X159851876Y-88203447D01*
X159862029Y-88222443D01*
X159868284Y-88243062D01*
X159871000Y-88270640D01*
X159871000Y-88729360D01*
X159868284Y-88756938D01*
X159862029Y-88777557D01*
X159851876Y-88796553D01*
X159838208Y-88813208D01*
X159821553Y-88826876D01*
X159802557Y-88837029D01*
X159781938Y-88843284D01*
X159754360Y-88846000D01*
X159245640Y-88846000D01*
X159218062Y-88843284D01*
X159197443Y-88837029D01*
X159178447Y-88826876D01*
X159161792Y-88813208D01*
X159148124Y-88796553D01*
X159137971Y-88777557D01*
X159131716Y-88756938D01*
X159129000Y-88729360D01*
X159129000Y-88270640D01*
X159131716Y-88243062D01*
X159137971Y-88222443D01*
X159148124Y-88203447D01*
X159161792Y-88186792D01*
X159178447Y-88173124D01*
X159197443Y-88162971D01*
X159218062Y-88156716D01*
X159245640Y-88154000D01*
X159754360Y-88154000D01*
X159781938Y-88156716D01*
G37*
G36*
X161531938Y-88156716D02*
G01*
X161552557Y-88162971D01*
X161571553Y-88173124D01*
X161588208Y-88186792D01*
X161601876Y-88203447D01*
X161612029Y-88222443D01*
X161618284Y-88243062D01*
X161621000Y-88270640D01*
X161621000Y-88729360D01*
X161618284Y-88756938D01*
X161612029Y-88777557D01*
X161601876Y-88796553D01*
X161588208Y-88813208D01*
X161571553Y-88826876D01*
X161552557Y-88837029D01*
X161531938Y-88843284D01*
X161504360Y-88846000D01*
X160995640Y-88846000D01*
X160968062Y-88843284D01*
X160947443Y-88837029D01*
X160928447Y-88826876D01*
X160911792Y-88813208D01*
X160898124Y-88796553D01*
X160887971Y-88777557D01*
X160881716Y-88756938D01*
X160879000Y-88729360D01*
X160879000Y-88270640D01*
X160881716Y-88243062D01*
X160887971Y-88222443D01*
X160898124Y-88203447D01*
X160911792Y-88186792D01*
X160928447Y-88173124D01*
X160947443Y-88162971D01*
X160968062Y-88156716D01*
X160995640Y-88154000D01*
X161504360Y-88154000D01*
X161531938Y-88156716D01*
G37*
M02*
