G04 #@! TF.GenerationSoftware,KiCad,Pcbnew,(5.1.5-0-10_14)*
G04 #@! TF.CreationDate,2020-03-09T21:53:23-07:00*
G04 #@! TF.ProjectId,R1,52312e6b-6963-4616-945f-706362585858,rev?*
G04 #@! TF.SameCoordinates,Original*
G04 #@! TF.FileFunction,Paste,Bot*
G04 #@! TF.FilePolarity,Positive*
%FSLAX46Y46*%
G04 Gerber Fmt 4.6, Leading zero omitted, Abs format (unit mm)*
G04 Created by KiCad (PCBNEW (5.1.5-0-10_14)) date 2020-03-09 21:53:23*
%MOMM*%
%LPD*%
G04 APERTURE LIST*
%ADD10C,0.100000*%
%ADD11R,1.000000X1.500000*%
%ADD12R,1.500000X2.200000*%
%ADD13R,0.240000X0.600000*%
%ADD14R,0.600000X0.240000*%
%ADD15R,0.900000X0.800000*%
%ADD16R,0.900000X1.200000*%
G04 APERTURE END LIST*
D10*
G36*
X165386958Y-104690710D02*
G01*
X165401276Y-104692834D01*
X165415317Y-104696351D01*
X165428946Y-104701228D01*
X165442031Y-104707417D01*
X165454447Y-104714858D01*
X165466073Y-104723481D01*
X165476798Y-104733202D01*
X165486519Y-104743927D01*
X165495142Y-104755553D01*
X165502583Y-104767969D01*
X165508772Y-104781054D01*
X165513649Y-104794683D01*
X165517166Y-104808724D01*
X165519290Y-104823042D01*
X165520000Y-104837500D01*
X165520000Y-105132500D01*
X165519290Y-105146958D01*
X165517166Y-105161276D01*
X165513649Y-105175317D01*
X165508772Y-105188946D01*
X165502583Y-105202031D01*
X165495142Y-105214447D01*
X165486519Y-105226073D01*
X165476798Y-105236798D01*
X165466073Y-105246519D01*
X165454447Y-105255142D01*
X165442031Y-105262583D01*
X165428946Y-105268772D01*
X165415317Y-105273649D01*
X165401276Y-105277166D01*
X165386958Y-105279290D01*
X165372500Y-105280000D01*
X165027500Y-105280000D01*
X165013042Y-105279290D01*
X164998724Y-105277166D01*
X164984683Y-105273649D01*
X164971054Y-105268772D01*
X164957969Y-105262583D01*
X164945553Y-105255142D01*
X164933927Y-105246519D01*
X164923202Y-105236798D01*
X164913481Y-105226073D01*
X164904858Y-105214447D01*
X164897417Y-105202031D01*
X164891228Y-105188946D01*
X164886351Y-105175317D01*
X164882834Y-105161276D01*
X164880710Y-105146958D01*
X164880000Y-105132500D01*
X164880000Y-104837500D01*
X164880710Y-104823042D01*
X164882834Y-104808724D01*
X164886351Y-104794683D01*
X164891228Y-104781054D01*
X164897417Y-104767969D01*
X164904858Y-104755553D01*
X164913481Y-104743927D01*
X164923202Y-104733202D01*
X164933927Y-104723481D01*
X164945553Y-104714858D01*
X164957969Y-104707417D01*
X164971054Y-104701228D01*
X164984683Y-104696351D01*
X164998724Y-104692834D01*
X165013042Y-104690710D01*
X165027500Y-104690000D01*
X165372500Y-104690000D01*
X165386958Y-104690710D01*
G37*
G36*
X165386958Y-103720710D02*
G01*
X165401276Y-103722834D01*
X165415317Y-103726351D01*
X165428946Y-103731228D01*
X165442031Y-103737417D01*
X165454447Y-103744858D01*
X165466073Y-103753481D01*
X165476798Y-103763202D01*
X165486519Y-103773927D01*
X165495142Y-103785553D01*
X165502583Y-103797969D01*
X165508772Y-103811054D01*
X165513649Y-103824683D01*
X165517166Y-103838724D01*
X165519290Y-103853042D01*
X165520000Y-103867500D01*
X165520000Y-104162500D01*
X165519290Y-104176958D01*
X165517166Y-104191276D01*
X165513649Y-104205317D01*
X165508772Y-104218946D01*
X165502583Y-104232031D01*
X165495142Y-104244447D01*
X165486519Y-104256073D01*
X165476798Y-104266798D01*
X165466073Y-104276519D01*
X165454447Y-104285142D01*
X165442031Y-104292583D01*
X165428946Y-104298772D01*
X165415317Y-104303649D01*
X165401276Y-104307166D01*
X165386958Y-104309290D01*
X165372500Y-104310000D01*
X165027500Y-104310000D01*
X165013042Y-104309290D01*
X164998724Y-104307166D01*
X164984683Y-104303649D01*
X164971054Y-104298772D01*
X164957969Y-104292583D01*
X164945553Y-104285142D01*
X164933927Y-104276519D01*
X164923202Y-104266798D01*
X164913481Y-104256073D01*
X164904858Y-104244447D01*
X164897417Y-104232031D01*
X164891228Y-104218946D01*
X164886351Y-104205317D01*
X164882834Y-104191276D01*
X164880710Y-104176958D01*
X164880000Y-104162500D01*
X164880000Y-103867500D01*
X164880710Y-103853042D01*
X164882834Y-103838724D01*
X164886351Y-103824683D01*
X164891228Y-103811054D01*
X164897417Y-103797969D01*
X164904858Y-103785553D01*
X164913481Y-103773927D01*
X164923202Y-103763202D01*
X164933927Y-103753481D01*
X164945553Y-103744858D01*
X164957969Y-103737417D01*
X164971054Y-103731228D01*
X164984683Y-103726351D01*
X164998724Y-103722834D01*
X165013042Y-103720710D01*
X165027500Y-103720000D01*
X165372500Y-103720000D01*
X165386958Y-103720710D01*
G37*
D11*
X150790000Y-100200000D03*
X148250000Y-100200000D03*
X145710000Y-100200000D03*
X150790000Y-112800000D03*
X148250000Y-112800000D03*
X145710000Y-112800000D03*
D12*
X154340000Y-104550000D03*
X154340000Y-107250000D03*
X139440000Y-104550000D03*
X139440000Y-107250000D03*
D10*
G36*
X133549504Y-98726204D02*
G01*
X133573773Y-98729804D01*
X133597571Y-98735765D01*
X133620671Y-98744030D01*
X133642849Y-98754520D01*
X133663893Y-98767133D01*
X133683598Y-98781747D01*
X133701777Y-98798223D01*
X133718253Y-98816402D01*
X133732867Y-98836107D01*
X133745480Y-98857151D01*
X133755970Y-98879329D01*
X133764235Y-98902429D01*
X133770196Y-98926227D01*
X133773796Y-98950496D01*
X133775000Y-98975000D01*
X133775000Y-100225000D01*
X133773796Y-100249504D01*
X133770196Y-100273773D01*
X133764235Y-100297571D01*
X133755970Y-100320671D01*
X133745480Y-100342849D01*
X133732867Y-100363893D01*
X133718253Y-100383598D01*
X133701777Y-100401777D01*
X133683598Y-100418253D01*
X133663893Y-100432867D01*
X133642849Y-100445480D01*
X133620671Y-100455970D01*
X133597571Y-100464235D01*
X133573773Y-100470196D01*
X133549504Y-100473796D01*
X133525000Y-100475000D01*
X132775000Y-100475000D01*
X132750496Y-100473796D01*
X132726227Y-100470196D01*
X132702429Y-100464235D01*
X132679329Y-100455970D01*
X132657151Y-100445480D01*
X132636107Y-100432867D01*
X132616402Y-100418253D01*
X132598223Y-100401777D01*
X132581747Y-100383598D01*
X132567133Y-100363893D01*
X132554520Y-100342849D01*
X132544030Y-100320671D01*
X132535765Y-100297571D01*
X132529804Y-100273773D01*
X132526204Y-100249504D01*
X132525000Y-100225000D01*
X132525000Y-98975000D01*
X132526204Y-98950496D01*
X132529804Y-98926227D01*
X132535765Y-98902429D01*
X132544030Y-98879329D01*
X132554520Y-98857151D01*
X132567133Y-98836107D01*
X132581747Y-98816402D01*
X132598223Y-98798223D01*
X132616402Y-98781747D01*
X132636107Y-98767133D01*
X132657151Y-98754520D01*
X132679329Y-98744030D01*
X132702429Y-98735765D01*
X132726227Y-98729804D01*
X132750496Y-98726204D01*
X132775000Y-98725000D01*
X133525000Y-98725000D01*
X133549504Y-98726204D01*
G37*
G36*
X130749504Y-98726204D02*
G01*
X130773773Y-98729804D01*
X130797571Y-98735765D01*
X130820671Y-98744030D01*
X130842849Y-98754520D01*
X130863893Y-98767133D01*
X130883598Y-98781747D01*
X130901777Y-98798223D01*
X130918253Y-98816402D01*
X130932867Y-98836107D01*
X130945480Y-98857151D01*
X130955970Y-98879329D01*
X130964235Y-98902429D01*
X130970196Y-98926227D01*
X130973796Y-98950496D01*
X130975000Y-98975000D01*
X130975000Y-100225000D01*
X130973796Y-100249504D01*
X130970196Y-100273773D01*
X130964235Y-100297571D01*
X130955970Y-100320671D01*
X130945480Y-100342849D01*
X130932867Y-100363893D01*
X130918253Y-100383598D01*
X130901777Y-100401777D01*
X130883598Y-100418253D01*
X130863893Y-100432867D01*
X130842849Y-100445480D01*
X130820671Y-100455970D01*
X130797571Y-100464235D01*
X130773773Y-100470196D01*
X130749504Y-100473796D01*
X130725000Y-100475000D01*
X129975000Y-100475000D01*
X129950496Y-100473796D01*
X129926227Y-100470196D01*
X129902429Y-100464235D01*
X129879329Y-100455970D01*
X129857151Y-100445480D01*
X129836107Y-100432867D01*
X129816402Y-100418253D01*
X129798223Y-100401777D01*
X129781747Y-100383598D01*
X129767133Y-100363893D01*
X129754520Y-100342849D01*
X129744030Y-100320671D01*
X129735765Y-100297571D01*
X129729804Y-100273773D01*
X129726204Y-100249504D01*
X129725000Y-100225000D01*
X129725000Y-98975000D01*
X129726204Y-98950496D01*
X129729804Y-98926227D01*
X129735765Y-98902429D01*
X129744030Y-98879329D01*
X129754520Y-98857151D01*
X129767133Y-98836107D01*
X129781747Y-98816402D01*
X129798223Y-98798223D01*
X129816402Y-98781747D01*
X129836107Y-98767133D01*
X129857151Y-98754520D01*
X129879329Y-98744030D01*
X129902429Y-98735765D01*
X129926227Y-98729804D01*
X129950496Y-98726204D01*
X129975000Y-98725000D01*
X130725000Y-98725000D01*
X130749504Y-98726204D01*
G37*
D13*
X161506249Y-98331250D03*
X163006249Y-98331250D03*
D14*
X163906249Y-97931250D03*
X163906249Y-97431250D03*
X163906249Y-96931250D03*
X163906249Y-96431250D03*
X163906249Y-95931250D03*
X163906249Y-95431250D03*
X163906249Y-94931250D03*
X163906249Y-94431250D03*
D13*
X163006249Y-94031250D03*
X161506249Y-94031250D03*
D14*
X160606249Y-94431250D03*
X160606249Y-94931250D03*
X160606249Y-95431250D03*
X160606249Y-95931250D03*
X160606249Y-96431250D03*
X160606249Y-96931250D03*
X160606249Y-97431250D03*
X160606249Y-97931250D03*
D10*
G36*
X161436958Y-88205710D02*
G01*
X161451276Y-88207834D01*
X161465317Y-88211351D01*
X161478946Y-88216228D01*
X161492031Y-88222417D01*
X161504447Y-88229858D01*
X161516073Y-88238481D01*
X161526798Y-88248202D01*
X161536519Y-88258927D01*
X161545142Y-88270553D01*
X161552583Y-88282969D01*
X161558772Y-88296054D01*
X161563649Y-88309683D01*
X161567166Y-88323724D01*
X161569290Y-88338042D01*
X161570000Y-88352500D01*
X161570000Y-88647500D01*
X161569290Y-88661958D01*
X161567166Y-88676276D01*
X161563649Y-88690317D01*
X161558772Y-88703946D01*
X161552583Y-88717031D01*
X161545142Y-88729447D01*
X161536519Y-88741073D01*
X161526798Y-88751798D01*
X161516073Y-88761519D01*
X161504447Y-88770142D01*
X161492031Y-88777583D01*
X161478946Y-88783772D01*
X161465317Y-88788649D01*
X161451276Y-88792166D01*
X161436958Y-88794290D01*
X161422500Y-88795000D01*
X161077500Y-88795000D01*
X161063042Y-88794290D01*
X161048724Y-88792166D01*
X161034683Y-88788649D01*
X161021054Y-88783772D01*
X161007969Y-88777583D01*
X160995553Y-88770142D01*
X160983927Y-88761519D01*
X160973202Y-88751798D01*
X160963481Y-88741073D01*
X160954858Y-88729447D01*
X160947417Y-88717031D01*
X160941228Y-88703946D01*
X160936351Y-88690317D01*
X160932834Y-88676276D01*
X160930710Y-88661958D01*
X160930000Y-88647500D01*
X160930000Y-88352500D01*
X160930710Y-88338042D01*
X160932834Y-88323724D01*
X160936351Y-88309683D01*
X160941228Y-88296054D01*
X160947417Y-88282969D01*
X160954858Y-88270553D01*
X160963481Y-88258927D01*
X160973202Y-88248202D01*
X160983927Y-88238481D01*
X160995553Y-88229858D01*
X161007969Y-88222417D01*
X161021054Y-88216228D01*
X161034683Y-88211351D01*
X161048724Y-88207834D01*
X161063042Y-88205710D01*
X161077500Y-88205000D01*
X161422500Y-88205000D01*
X161436958Y-88205710D01*
G37*
G36*
X161436958Y-89175710D02*
G01*
X161451276Y-89177834D01*
X161465317Y-89181351D01*
X161478946Y-89186228D01*
X161492031Y-89192417D01*
X161504447Y-89199858D01*
X161516073Y-89208481D01*
X161526798Y-89218202D01*
X161536519Y-89228927D01*
X161545142Y-89240553D01*
X161552583Y-89252969D01*
X161558772Y-89266054D01*
X161563649Y-89279683D01*
X161567166Y-89293724D01*
X161569290Y-89308042D01*
X161570000Y-89322500D01*
X161570000Y-89617500D01*
X161569290Y-89631958D01*
X161567166Y-89646276D01*
X161563649Y-89660317D01*
X161558772Y-89673946D01*
X161552583Y-89687031D01*
X161545142Y-89699447D01*
X161536519Y-89711073D01*
X161526798Y-89721798D01*
X161516073Y-89731519D01*
X161504447Y-89740142D01*
X161492031Y-89747583D01*
X161478946Y-89753772D01*
X161465317Y-89758649D01*
X161451276Y-89762166D01*
X161436958Y-89764290D01*
X161422500Y-89765000D01*
X161077500Y-89765000D01*
X161063042Y-89764290D01*
X161048724Y-89762166D01*
X161034683Y-89758649D01*
X161021054Y-89753772D01*
X161007969Y-89747583D01*
X160995553Y-89740142D01*
X160983927Y-89731519D01*
X160973202Y-89721798D01*
X160963481Y-89711073D01*
X160954858Y-89699447D01*
X160947417Y-89687031D01*
X160941228Y-89673946D01*
X160936351Y-89660317D01*
X160932834Y-89646276D01*
X160930710Y-89631958D01*
X160930000Y-89617500D01*
X160930000Y-89322500D01*
X160930710Y-89308042D01*
X160932834Y-89293724D01*
X160936351Y-89279683D01*
X160941228Y-89266054D01*
X160947417Y-89252969D01*
X160954858Y-89240553D01*
X160963481Y-89228927D01*
X160973202Y-89218202D01*
X160983927Y-89208481D01*
X160995553Y-89199858D01*
X161007969Y-89192417D01*
X161021054Y-89186228D01*
X161034683Y-89181351D01*
X161048724Y-89177834D01*
X161063042Y-89175710D01*
X161077500Y-89175000D01*
X161422500Y-89175000D01*
X161436958Y-89175710D01*
G37*
G36*
X159686958Y-88205710D02*
G01*
X159701276Y-88207834D01*
X159715317Y-88211351D01*
X159728946Y-88216228D01*
X159742031Y-88222417D01*
X159754447Y-88229858D01*
X159766073Y-88238481D01*
X159776798Y-88248202D01*
X159786519Y-88258927D01*
X159795142Y-88270553D01*
X159802583Y-88282969D01*
X159808772Y-88296054D01*
X159813649Y-88309683D01*
X159817166Y-88323724D01*
X159819290Y-88338042D01*
X159820000Y-88352500D01*
X159820000Y-88647500D01*
X159819290Y-88661958D01*
X159817166Y-88676276D01*
X159813649Y-88690317D01*
X159808772Y-88703946D01*
X159802583Y-88717031D01*
X159795142Y-88729447D01*
X159786519Y-88741073D01*
X159776798Y-88751798D01*
X159766073Y-88761519D01*
X159754447Y-88770142D01*
X159742031Y-88777583D01*
X159728946Y-88783772D01*
X159715317Y-88788649D01*
X159701276Y-88792166D01*
X159686958Y-88794290D01*
X159672500Y-88795000D01*
X159327500Y-88795000D01*
X159313042Y-88794290D01*
X159298724Y-88792166D01*
X159284683Y-88788649D01*
X159271054Y-88783772D01*
X159257969Y-88777583D01*
X159245553Y-88770142D01*
X159233927Y-88761519D01*
X159223202Y-88751798D01*
X159213481Y-88741073D01*
X159204858Y-88729447D01*
X159197417Y-88717031D01*
X159191228Y-88703946D01*
X159186351Y-88690317D01*
X159182834Y-88676276D01*
X159180710Y-88661958D01*
X159180000Y-88647500D01*
X159180000Y-88352500D01*
X159180710Y-88338042D01*
X159182834Y-88323724D01*
X159186351Y-88309683D01*
X159191228Y-88296054D01*
X159197417Y-88282969D01*
X159204858Y-88270553D01*
X159213481Y-88258927D01*
X159223202Y-88248202D01*
X159233927Y-88238481D01*
X159245553Y-88229858D01*
X159257969Y-88222417D01*
X159271054Y-88216228D01*
X159284683Y-88211351D01*
X159298724Y-88207834D01*
X159313042Y-88205710D01*
X159327500Y-88205000D01*
X159672500Y-88205000D01*
X159686958Y-88205710D01*
G37*
G36*
X159686958Y-89175710D02*
G01*
X159701276Y-89177834D01*
X159715317Y-89181351D01*
X159728946Y-89186228D01*
X159742031Y-89192417D01*
X159754447Y-89199858D01*
X159766073Y-89208481D01*
X159776798Y-89218202D01*
X159786519Y-89228927D01*
X159795142Y-89240553D01*
X159802583Y-89252969D01*
X159808772Y-89266054D01*
X159813649Y-89279683D01*
X159817166Y-89293724D01*
X159819290Y-89308042D01*
X159820000Y-89322500D01*
X159820000Y-89617500D01*
X159819290Y-89631958D01*
X159817166Y-89646276D01*
X159813649Y-89660317D01*
X159808772Y-89673946D01*
X159802583Y-89687031D01*
X159795142Y-89699447D01*
X159786519Y-89711073D01*
X159776798Y-89721798D01*
X159766073Y-89731519D01*
X159754447Y-89740142D01*
X159742031Y-89747583D01*
X159728946Y-89753772D01*
X159715317Y-89758649D01*
X159701276Y-89762166D01*
X159686958Y-89764290D01*
X159672500Y-89765000D01*
X159327500Y-89765000D01*
X159313042Y-89764290D01*
X159298724Y-89762166D01*
X159284683Y-89758649D01*
X159271054Y-89753772D01*
X159257969Y-89747583D01*
X159245553Y-89740142D01*
X159233927Y-89731519D01*
X159223202Y-89721798D01*
X159213481Y-89711073D01*
X159204858Y-89699447D01*
X159197417Y-89687031D01*
X159191228Y-89673946D01*
X159186351Y-89660317D01*
X159182834Y-89646276D01*
X159180710Y-89631958D01*
X159180000Y-89617500D01*
X159180000Y-89322500D01*
X159180710Y-89308042D01*
X159182834Y-89293724D01*
X159186351Y-89279683D01*
X159191228Y-89266054D01*
X159197417Y-89252969D01*
X159204858Y-89240553D01*
X159213481Y-89228927D01*
X159223202Y-89218202D01*
X159233927Y-89208481D01*
X159245553Y-89199858D01*
X159257969Y-89192417D01*
X159271054Y-89186228D01*
X159284683Y-89181351D01*
X159298724Y-89177834D01*
X159313042Y-89175710D01*
X159327500Y-89175000D01*
X159672500Y-89175000D01*
X159686958Y-89175710D01*
G37*
G36*
X147146958Y-88380710D02*
G01*
X147161276Y-88382834D01*
X147175317Y-88386351D01*
X147188946Y-88391228D01*
X147202031Y-88397417D01*
X147214447Y-88404858D01*
X147226073Y-88413481D01*
X147236798Y-88423202D01*
X147246519Y-88433927D01*
X147255142Y-88445553D01*
X147262583Y-88457969D01*
X147268772Y-88471054D01*
X147273649Y-88484683D01*
X147277166Y-88498724D01*
X147279290Y-88513042D01*
X147280000Y-88527500D01*
X147280000Y-88872500D01*
X147279290Y-88886958D01*
X147277166Y-88901276D01*
X147273649Y-88915317D01*
X147268772Y-88928946D01*
X147262583Y-88942031D01*
X147255142Y-88954447D01*
X147246519Y-88966073D01*
X147236798Y-88976798D01*
X147226073Y-88986519D01*
X147214447Y-88995142D01*
X147202031Y-89002583D01*
X147188946Y-89008772D01*
X147175317Y-89013649D01*
X147161276Y-89017166D01*
X147146958Y-89019290D01*
X147132500Y-89020000D01*
X146837500Y-89020000D01*
X146823042Y-89019290D01*
X146808724Y-89017166D01*
X146794683Y-89013649D01*
X146781054Y-89008772D01*
X146767969Y-89002583D01*
X146755553Y-88995142D01*
X146743927Y-88986519D01*
X146733202Y-88976798D01*
X146723481Y-88966073D01*
X146714858Y-88954447D01*
X146707417Y-88942031D01*
X146701228Y-88928946D01*
X146696351Y-88915317D01*
X146692834Y-88901276D01*
X146690710Y-88886958D01*
X146690000Y-88872500D01*
X146690000Y-88527500D01*
X146690710Y-88513042D01*
X146692834Y-88498724D01*
X146696351Y-88484683D01*
X146701228Y-88471054D01*
X146707417Y-88457969D01*
X146714858Y-88445553D01*
X146723481Y-88433927D01*
X146733202Y-88423202D01*
X146743927Y-88413481D01*
X146755553Y-88404858D01*
X146767969Y-88397417D01*
X146781054Y-88391228D01*
X146794683Y-88386351D01*
X146808724Y-88382834D01*
X146823042Y-88380710D01*
X146837500Y-88380000D01*
X147132500Y-88380000D01*
X147146958Y-88380710D01*
G37*
G36*
X146176958Y-88380710D02*
G01*
X146191276Y-88382834D01*
X146205317Y-88386351D01*
X146218946Y-88391228D01*
X146232031Y-88397417D01*
X146244447Y-88404858D01*
X146256073Y-88413481D01*
X146266798Y-88423202D01*
X146276519Y-88433927D01*
X146285142Y-88445553D01*
X146292583Y-88457969D01*
X146298772Y-88471054D01*
X146303649Y-88484683D01*
X146307166Y-88498724D01*
X146309290Y-88513042D01*
X146310000Y-88527500D01*
X146310000Y-88872500D01*
X146309290Y-88886958D01*
X146307166Y-88901276D01*
X146303649Y-88915317D01*
X146298772Y-88928946D01*
X146292583Y-88942031D01*
X146285142Y-88954447D01*
X146276519Y-88966073D01*
X146266798Y-88976798D01*
X146256073Y-88986519D01*
X146244447Y-88995142D01*
X146232031Y-89002583D01*
X146218946Y-89008772D01*
X146205317Y-89013649D01*
X146191276Y-89017166D01*
X146176958Y-89019290D01*
X146162500Y-89020000D01*
X145867500Y-89020000D01*
X145853042Y-89019290D01*
X145838724Y-89017166D01*
X145824683Y-89013649D01*
X145811054Y-89008772D01*
X145797969Y-89002583D01*
X145785553Y-88995142D01*
X145773927Y-88986519D01*
X145763202Y-88976798D01*
X145753481Y-88966073D01*
X145744858Y-88954447D01*
X145737417Y-88942031D01*
X145731228Y-88928946D01*
X145726351Y-88915317D01*
X145722834Y-88901276D01*
X145720710Y-88886958D01*
X145720000Y-88872500D01*
X145720000Y-88527500D01*
X145720710Y-88513042D01*
X145722834Y-88498724D01*
X145726351Y-88484683D01*
X145731228Y-88471054D01*
X145737417Y-88457969D01*
X145744858Y-88445553D01*
X145753481Y-88433927D01*
X145763202Y-88423202D01*
X145773927Y-88413481D01*
X145785553Y-88404858D01*
X145797969Y-88397417D01*
X145811054Y-88391228D01*
X145824683Y-88386351D01*
X145838724Y-88382834D01*
X145853042Y-88380710D01*
X145867500Y-88380000D01*
X146162500Y-88380000D01*
X146176958Y-88380710D01*
G37*
G36*
X157796958Y-88355710D02*
G01*
X157811276Y-88357834D01*
X157825317Y-88361351D01*
X157838946Y-88366228D01*
X157852031Y-88372417D01*
X157864447Y-88379858D01*
X157876073Y-88388481D01*
X157886798Y-88398202D01*
X157896519Y-88408927D01*
X157905142Y-88420553D01*
X157912583Y-88432969D01*
X157918772Y-88446054D01*
X157923649Y-88459683D01*
X157927166Y-88473724D01*
X157929290Y-88488042D01*
X157930000Y-88502500D01*
X157930000Y-88847500D01*
X157929290Y-88861958D01*
X157927166Y-88876276D01*
X157923649Y-88890317D01*
X157918772Y-88903946D01*
X157912583Y-88917031D01*
X157905142Y-88929447D01*
X157896519Y-88941073D01*
X157886798Y-88951798D01*
X157876073Y-88961519D01*
X157864447Y-88970142D01*
X157852031Y-88977583D01*
X157838946Y-88983772D01*
X157825317Y-88988649D01*
X157811276Y-88992166D01*
X157796958Y-88994290D01*
X157782500Y-88995000D01*
X157487500Y-88995000D01*
X157473042Y-88994290D01*
X157458724Y-88992166D01*
X157444683Y-88988649D01*
X157431054Y-88983772D01*
X157417969Y-88977583D01*
X157405553Y-88970142D01*
X157393927Y-88961519D01*
X157383202Y-88951798D01*
X157373481Y-88941073D01*
X157364858Y-88929447D01*
X157357417Y-88917031D01*
X157351228Y-88903946D01*
X157346351Y-88890317D01*
X157342834Y-88876276D01*
X157340710Y-88861958D01*
X157340000Y-88847500D01*
X157340000Y-88502500D01*
X157340710Y-88488042D01*
X157342834Y-88473724D01*
X157346351Y-88459683D01*
X157351228Y-88446054D01*
X157357417Y-88432969D01*
X157364858Y-88420553D01*
X157373481Y-88408927D01*
X157383202Y-88398202D01*
X157393927Y-88388481D01*
X157405553Y-88379858D01*
X157417969Y-88372417D01*
X157431054Y-88366228D01*
X157444683Y-88361351D01*
X157458724Y-88357834D01*
X157473042Y-88355710D01*
X157487500Y-88355000D01*
X157782500Y-88355000D01*
X157796958Y-88355710D01*
G37*
G36*
X156826958Y-88355710D02*
G01*
X156841276Y-88357834D01*
X156855317Y-88361351D01*
X156868946Y-88366228D01*
X156882031Y-88372417D01*
X156894447Y-88379858D01*
X156906073Y-88388481D01*
X156916798Y-88398202D01*
X156926519Y-88408927D01*
X156935142Y-88420553D01*
X156942583Y-88432969D01*
X156948772Y-88446054D01*
X156953649Y-88459683D01*
X156957166Y-88473724D01*
X156959290Y-88488042D01*
X156960000Y-88502500D01*
X156960000Y-88847500D01*
X156959290Y-88861958D01*
X156957166Y-88876276D01*
X156953649Y-88890317D01*
X156948772Y-88903946D01*
X156942583Y-88917031D01*
X156935142Y-88929447D01*
X156926519Y-88941073D01*
X156916798Y-88951798D01*
X156906073Y-88961519D01*
X156894447Y-88970142D01*
X156882031Y-88977583D01*
X156868946Y-88983772D01*
X156855317Y-88988649D01*
X156841276Y-88992166D01*
X156826958Y-88994290D01*
X156812500Y-88995000D01*
X156517500Y-88995000D01*
X156503042Y-88994290D01*
X156488724Y-88992166D01*
X156474683Y-88988649D01*
X156461054Y-88983772D01*
X156447969Y-88977583D01*
X156435553Y-88970142D01*
X156423927Y-88961519D01*
X156413202Y-88951798D01*
X156403481Y-88941073D01*
X156394858Y-88929447D01*
X156387417Y-88917031D01*
X156381228Y-88903946D01*
X156376351Y-88890317D01*
X156372834Y-88876276D01*
X156370710Y-88861958D01*
X156370000Y-88847500D01*
X156370000Y-88502500D01*
X156370710Y-88488042D01*
X156372834Y-88473724D01*
X156376351Y-88459683D01*
X156381228Y-88446054D01*
X156387417Y-88432969D01*
X156394858Y-88420553D01*
X156403481Y-88408927D01*
X156413202Y-88398202D01*
X156423927Y-88388481D01*
X156435553Y-88379858D01*
X156447969Y-88372417D01*
X156461054Y-88366228D01*
X156474683Y-88361351D01*
X156488724Y-88357834D01*
X156503042Y-88355710D01*
X156517500Y-88355000D01*
X156812500Y-88355000D01*
X156826958Y-88355710D01*
G37*
G36*
X154196958Y-88355710D02*
G01*
X154211276Y-88357834D01*
X154225317Y-88361351D01*
X154238946Y-88366228D01*
X154252031Y-88372417D01*
X154264447Y-88379858D01*
X154276073Y-88388481D01*
X154286798Y-88398202D01*
X154296519Y-88408927D01*
X154305142Y-88420553D01*
X154312583Y-88432969D01*
X154318772Y-88446054D01*
X154323649Y-88459683D01*
X154327166Y-88473724D01*
X154329290Y-88488042D01*
X154330000Y-88502500D01*
X154330000Y-88847500D01*
X154329290Y-88861958D01*
X154327166Y-88876276D01*
X154323649Y-88890317D01*
X154318772Y-88903946D01*
X154312583Y-88917031D01*
X154305142Y-88929447D01*
X154296519Y-88941073D01*
X154286798Y-88951798D01*
X154276073Y-88961519D01*
X154264447Y-88970142D01*
X154252031Y-88977583D01*
X154238946Y-88983772D01*
X154225317Y-88988649D01*
X154211276Y-88992166D01*
X154196958Y-88994290D01*
X154182500Y-88995000D01*
X153887500Y-88995000D01*
X153873042Y-88994290D01*
X153858724Y-88992166D01*
X153844683Y-88988649D01*
X153831054Y-88983772D01*
X153817969Y-88977583D01*
X153805553Y-88970142D01*
X153793927Y-88961519D01*
X153783202Y-88951798D01*
X153773481Y-88941073D01*
X153764858Y-88929447D01*
X153757417Y-88917031D01*
X153751228Y-88903946D01*
X153746351Y-88890317D01*
X153742834Y-88876276D01*
X153740710Y-88861958D01*
X153740000Y-88847500D01*
X153740000Y-88502500D01*
X153740710Y-88488042D01*
X153742834Y-88473724D01*
X153746351Y-88459683D01*
X153751228Y-88446054D01*
X153757417Y-88432969D01*
X153764858Y-88420553D01*
X153773481Y-88408927D01*
X153783202Y-88398202D01*
X153793927Y-88388481D01*
X153805553Y-88379858D01*
X153817969Y-88372417D01*
X153831054Y-88366228D01*
X153844683Y-88361351D01*
X153858724Y-88357834D01*
X153873042Y-88355710D01*
X153887500Y-88355000D01*
X154182500Y-88355000D01*
X154196958Y-88355710D01*
G37*
G36*
X153226958Y-88355710D02*
G01*
X153241276Y-88357834D01*
X153255317Y-88361351D01*
X153268946Y-88366228D01*
X153282031Y-88372417D01*
X153294447Y-88379858D01*
X153306073Y-88388481D01*
X153316798Y-88398202D01*
X153326519Y-88408927D01*
X153335142Y-88420553D01*
X153342583Y-88432969D01*
X153348772Y-88446054D01*
X153353649Y-88459683D01*
X153357166Y-88473724D01*
X153359290Y-88488042D01*
X153360000Y-88502500D01*
X153360000Y-88847500D01*
X153359290Y-88861958D01*
X153357166Y-88876276D01*
X153353649Y-88890317D01*
X153348772Y-88903946D01*
X153342583Y-88917031D01*
X153335142Y-88929447D01*
X153326519Y-88941073D01*
X153316798Y-88951798D01*
X153306073Y-88961519D01*
X153294447Y-88970142D01*
X153282031Y-88977583D01*
X153268946Y-88983772D01*
X153255317Y-88988649D01*
X153241276Y-88992166D01*
X153226958Y-88994290D01*
X153212500Y-88995000D01*
X152917500Y-88995000D01*
X152903042Y-88994290D01*
X152888724Y-88992166D01*
X152874683Y-88988649D01*
X152861054Y-88983772D01*
X152847969Y-88977583D01*
X152835553Y-88970142D01*
X152823927Y-88961519D01*
X152813202Y-88951798D01*
X152803481Y-88941073D01*
X152794858Y-88929447D01*
X152787417Y-88917031D01*
X152781228Y-88903946D01*
X152776351Y-88890317D01*
X152772834Y-88876276D01*
X152770710Y-88861958D01*
X152770000Y-88847500D01*
X152770000Y-88502500D01*
X152770710Y-88488042D01*
X152772834Y-88473724D01*
X152776351Y-88459683D01*
X152781228Y-88446054D01*
X152787417Y-88432969D01*
X152794858Y-88420553D01*
X152803481Y-88408927D01*
X152813202Y-88398202D01*
X152823927Y-88388481D01*
X152835553Y-88379858D01*
X152847969Y-88372417D01*
X152861054Y-88366228D01*
X152874683Y-88361351D01*
X152888724Y-88357834D01*
X152903042Y-88355710D01*
X152917500Y-88355000D01*
X153212500Y-88355000D01*
X153226958Y-88355710D01*
G37*
G36*
X150596958Y-88355710D02*
G01*
X150611276Y-88357834D01*
X150625317Y-88361351D01*
X150638946Y-88366228D01*
X150652031Y-88372417D01*
X150664447Y-88379858D01*
X150676073Y-88388481D01*
X150686798Y-88398202D01*
X150696519Y-88408927D01*
X150705142Y-88420553D01*
X150712583Y-88432969D01*
X150718772Y-88446054D01*
X150723649Y-88459683D01*
X150727166Y-88473724D01*
X150729290Y-88488042D01*
X150730000Y-88502500D01*
X150730000Y-88847500D01*
X150729290Y-88861958D01*
X150727166Y-88876276D01*
X150723649Y-88890317D01*
X150718772Y-88903946D01*
X150712583Y-88917031D01*
X150705142Y-88929447D01*
X150696519Y-88941073D01*
X150686798Y-88951798D01*
X150676073Y-88961519D01*
X150664447Y-88970142D01*
X150652031Y-88977583D01*
X150638946Y-88983772D01*
X150625317Y-88988649D01*
X150611276Y-88992166D01*
X150596958Y-88994290D01*
X150582500Y-88995000D01*
X150287500Y-88995000D01*
X150273042Y-88994290D01*
X150258724Y-88992166D01*
X150244683Y-88988649D01*
X150231054Y-88983772D01*
X150217969Y-88977583D01*
X150205553Y-88970142D01*
X150193927Y-88961519D01*
X150183202Y-88951798D01*
X150173481Y-88941073D01*
X150164858Y-88929447D01*
X150157417Y-88917031D01*
X150151228Y-88903946D01*
X150146351Y-88890317D01*
X150142834Y-88876276D01*
X150140710Y-88861958D01*
X150140000Y-88847500D01*
X150140000Y-88502500D01*
X150140710Y-88488042D01*
X150142834Y-88473724D01*
X150146351Y-88459683D01*
X150151228Y-88446054D01*
X150157417Y-88432969D01*
X150164858Y-88420553D01*
X150173481Y-88408927D01*
X150183202Y-88398202D01*
X150193927Y-88388481D01*
X150205553Y-88379858D01*
X150217969Y-88372417D01*
X150231054Y-88366228D01*
X150244683Y-88361351D01*
X150258724Y-88357834D01*
X150273042Y-88355710D01*
X150287500Y-88355000D01*
X150582500Y-88355000D01*
X150596958Y-88355710D01*
G37*
G36*
X149626958Y-88355710D02*
G01*
X149641276Y-88357834D01*
X149655317Y-88361351D01*
X149668946Y-88366228D01*
X149682031Y-88372417D01*
X149694447Y-88379858D01*
X149706073Y-88388481D01*
X149716798Y-88398202D01*
X149726519Y-88408927D01*
X149735142Y-88420553D01*
X149742583Y-88432969D01*
X149748772Y-88446054D01*
X149753649Y-88459683D01*
X149757166Y-88473724D01*
X149759290Y-88488042D01*
X149760000Y-88502500D01*
X149760000Y-88847500D01*
X149759290Y-88861958D01*
X149757166Y-88876276D01*
X149753649Y-88890317D01*
X149748772Y-88903946D01*
X149742583Y-88917031D01*
X149735142Y-88929447D01*
X149726519Y-88941073D01*
X149716798Y-88951798D01*
X149706073Y-88961519D01*
X149694447Y-88970142D01*
X149682031Y-88977583D01*
X149668946Y-88983772D01*
X149655317Y-88988649D01*
X149641276Y-88992166D01*
X149626958Y-88994290D01*
X149612500Y-88995000D01*
X149317500Y-88995000D01*
X149303042Y-88994290D01*
X149288724Y-88992166D01*
X149274683Y-88988649D01*
X149261054Y-88983772D01*
X149247969Y-88977583D01*
X149235553Y-88970142D01*
X149223927Y-88961519D01*
X149213202Y-88951798D01*
X149203481Y-88941073D01*
X149194858Y-88929447D01*
X149187417Y-88917031D01*
X149181228Y-88903946D01*
X149176351Y-88890317D01*
X149172834Y-88876276D01*
X149170710Y-88861958D01*
X149170000Y-88847500D01*
X149170000Y-88502500D01*
X149170710Y-88488042D01*
X149172834Y-88473724D01*
X149176351Y-88459683D01*
X149181228Y-88446054D01*
X149187417Y-88432969D01*
X149194858Y-88420553D01*
X149203481Y-88408927D01*
X149213202Y-88398202D01*
X149223927Y-88388481D01*
X149235553Y-88379858D01*
X149247969Y-88372417D01*
X149261054Y-88366228D01*
X149274683Y-88361351D01*
X149288724Y-88357834D01*
X149303042Y-88355710D01*
X149317500Y-88355000D01*
X149612500Y-88355000D01*
X149626958Y-88355710D01*
G37*
G36*
X157796958Y-93555710D02*
G01*
X157811276Y-93557834D01*
X157825317Y-93561351D01*
X157838946Y-93566228D01*
X157852031Y-93572417D01*
X157864447Y-93579858D01*
X157876073Y-93588481D01*
X157886798Y-93598202D01*
X157896519Y-93608927D01*
X157905142Y-93620553D01*
X157912583Y-93632969D01*
X157918772Y-93646054D01*
X157923649Y-93659683D01*
X157927166Y-93673724D01*
X157929290Y-93688042D01*
X157930000Y-93702500D01*
X157930000Y-94047500D01*
X157929290Y-94061958D01*
X157927166Y-94076276D01*
X157923649Y-94090317D01*
X157918772Y-94103946D01*
X157912583Y-94117031D01*
X157905142Y-94129447D01*
X157896519Y-94141073D01*
X157886798Y-94151798D01*
X157876073Y-94161519D01*
X157864447Y-94170142D01*
X157852031Y-94177583D01*
X157838946Y-94183772D01*
X157825317Y-94188649D01*
X157811276Y-94192166D01*
X157796958Y-94194290D01*
X157782500Y-94195000D01*
X157487500Y-94195000D01*
X157473042Y-94194290D01*
X157458724Y-94192166D01*
X157444683Y-94188649D01*
X157431054Y-94183772D01*
X157417969Y-94177583D01*
X157405553Y-94170142D01*
X157393927Y-94161519D01*
X157383202Y-94151798D01*
X157373481Y-94141073D01*
X157364858Y-94129447D01*
X157357417Y-94117031D01*
X157351228Y-94103946D01*
X157346351Y-94090317D01*
X157342834Y-94076276D01*
X157340710Y-94061958D01*
X157340000Y-94047500D01*
X157340000Y-93702500D01*
X157340710Y-93688042D01*
X157342834Y-93673724D01*
X157346351Y-93659683D01*
X157351228Y-93646054D01*
X157357417Y-93632969D01*
X157364858Y-93620553D01*
X157373481Y-93608927D01*
X157383202Y-93598202D01*
X157393927Y-93588481D01*
X157405553Y-93579858D01*
X157417969Y-93572417D01*
X157431054Y-93566228D01*
X157444683Y-93561351D01*
X157458724Y-93557834D01*
X157473042Y-93555710D01*
X157487500Y-93555000D01*
X157782500Y-93555000D01*
X157796958Y-93555710D01*
G37*
G36*
X156826958Y-93555710D02*
G01*
X156841276Y-93557834D01*
X156855317Y-93561351D01*
X156868946Y-93566228D01*
X156882031Y-93572417D01*
X156894447Y-93579858D01*
X156906073Y-93588481D01*
X156916798Y-93598202D01*
X156926519Y-93608927D01*
X156935142Y-93620553D01*
X156942583Y-93632969D01*
X156948772Y-93646054D01*
X156953649Y-93659683D01*
X156957166Y-93673724D01*
X156959290Y-93688042D01*
X156960000Y-93702500D01*
X156960000Y-94047500D01*
X156959290Y-94061958D01*
X156957166Y-94076276D01*
X156953649Y-94090317D01*
X156948772Y-94103946D01*
X156942583Y-94117031D01*
X156935142Y-94129447D01*
X156926519Y-94141073D01*
X156916798Y-94151798D01*
X156906073Y-94161519D01*
X156894447Y-94170142D01*
X156882031Y-94177583D01*
X156868946Y-94183772D01*
X156855317Y-94188649D01*
X156841276Y-94192166D01*
X156826958Y-94194290D01*
X156812500Y-94195000D01*
X156517500Y-94195000D01*
X156503042Y-94194290D01*
X156488724Y-94192166D01*
X156474683Y-94188649D01*
X156461054Y-94183772D01*
X156447969Y-94177583D01*
X156435553Y-94170142D01*
X156423927Y-94161519D01*
X156413202Y-94151798D01*
X156403481Y-94141073D01*
X156394858Y-94129447D01*
X156387417Y-94117031D01*
X156381228Y-94103946D01*
X156376351Y-94090317D01*
X156372834Y-94076276D01*
X156370710Y-94061958D01*
X156370000Y-94047500D01*
X156370000Y-93702500D01*
X156370710Y-93688042D01*
X156372834Y-93673724D01*
X156376351Y-93659683D01*
X156381228Y-93646054D01*
X156387417Y-93632969D01*
X156394858Y-93620553D01*
X156403481Y-93608927D01*
X156413202Y-93598202D01*
X156423927Y-93588481D01*
X156435553Y-93579858D01*
X156447969Y-93572417D01*
X156461054Y-93566228D01*
X156474683Y-93561351D01*
X156488724Y-93557834D01*
X156503042Y-93555710D01*
X156517500Y-93555000D01*
X156812500Y-93555000D01*
X156826958Y-93555710D01*
G37*
G36*
X154196958Y-93555710D02*
G01*
X154211276Y-93557834D01*
X154225317Y-93561351D01*
X154238946Y-93566228D01*
X154252031Y-93572417D01*
X154264447Y-93579858D01*
X154276073Y-93588481D01*
X154286798Y-93598202D01*
X154296519Y-93608927D01*
X154305142Y-93620553D01*
X154312583Y-93632969D01*
X154318772Y-93646054D01*
X154323649Y-93659683D01*
X154327166Y-93673724D01*
X154329290Y-93688042D01*
X154330000Y-93702500D01*
X154330000Y-94047500D01*
X154329290Y-94061958D01*
X154327166Y-94076276D01*
X154323649Y-94090317D01*
X154318772Y-94103946D01*
X154312583Y-94117031D01*
X154305142Y-94129447D01*
X154296519Y-94141073D01*
X154286798Y-94151798D01*
X154276073Y-94161519D01*
X154264447Y-94170142D01*
X154252031Y-94177583D01*
X154238946Y-94183772D01*
X154225317Y-94188649D01*
X154211276Y-94192166D01*
X154196958Y-94194290D01*
X154182500Y-94195000D01*
X153887500Y-94195000D01*
X153873042Y-94194290D01*
X153858724Y-94192166D01*
X153844683Y-94188649D01*
X153831054Y-94183772D01*
X153817969Y-94177583D01*
X153805553Y-94170142D01*
X153793927Y-94161519D01*
X153783202Y-94151798D01*
X153773481Y-94141073D01*
X153764858Y-94129447D01*
X153757417Y-94117031D01*
X153751228Y-94103946D01*
X153746351Y-94090317D01*
X153742834Y-94076276D01*
X153740710Y-94061958D01*
X153740000Y-94047500D01*
X153740000Y-93702500D01*
X153740710Y-93688042D01*
X153742834Y-93673724D01*
X153746351Y-93659683D01*
X153751228Y-93646054D01*
X153757417Y-93632969D01*
X153764858Y-93620553D01*
X153773481Y-93608927D01*
X153783202Y-93598202D01*
X153793927Y-93588481D01*
X153805553Y-93579858D01*
X153817969Y-93572417D01*
X153831054Y-93566228D01*
X153844683Y-93561351D01*
X153858724Y-93557834D01*
X153873042Y-93555710D01*
X153887500Y-93555000D01*
X154182500Y-93555000D01*
X154196958Y-93555710D01*
G37*
G36*
X153226958Y-93555710D02*
G01*
X153241276Y-93557834D01*
X153255317Y-93561351D01*
X153268946Y-93566228D01*
X153282031Y-93572417D01*
X153294447Y-93579858D01*
X153306073Y-93588481D01*
X153316798Y-93598202D01*
X153326519Y-93608927D01*
X153335142Y-93620553D01*
X153342583Y-93632969D01*
X153348772Y-93646054D01*
X153353649Y-93659683D01*
X153357166Y-93673724D01*
X153359290Y-93688042D01*
X153360000Y-93702500D01*
X153360000Y-94047500D01*
X153359290Y-94061958D01*
X153357166Y-94076276D01*
X153353649Y-94090317D01*
X153348772Y-94103946D01*
X153342583Y-94117031D01*
X153335142Y-94129447D01*
X153326519Y-94141073D01*
X153316798Y-94151798D01*
X153306073Y-94161519D01*
X153294447Y-94170142D01*
X153282031Y-94177583D01*
X153268946Y-94183772D01*
X153255317Y-94188649D01*
X153241276Y-94192166D01*
X153226958Y-94194290D01*
X153212500Y-94195000D01*
X152917500Y-94195000D01*
X152903042Y-94194290D01*
X152888724Y-94192166D01*
X152874683Y-94188649D01*
X152861054Y-94183772D01*
X152847969Y-94177583D01*
X152835553Y-94170142D01*
X152823927Y-94161519D01*
X152813202Y-94151798D01*
X152803481Y-94141073D01*
X152794858Y-94129447D01*
X152787417Y-94117031D01*
X152781228Y-94103946D01*
X152776351Y-94090317D01*
X152772834Y-94076276D01*
X152770710Y-94061958D01*
X152770000Y-94047500D01*
X152770000Y-93702500D01*
X152770710Y-93688042D01*
X152772834Y-93673724D01*
X152776351Y-93659683D01*
X152781228Y-93646054D01*
X152787417Y-93632969D01*
X152794858Y-93620553D01*
X152803481Y-93608927D01*
X152813202Y-93598202D01*
X152823927Y-93588481D01*
X152835553Y-93579858D01*
X152847969Y-93572417D01*
X152861054Y-93566228D01*
X152874683Y-93561351D01*
X152888724Y-93557834D01*
X152903042Y-93555710D01*
X152917500Y-93555000D01*
X153212500Y-93555000D01*
X153226958Y-93555710D01*
G37*
G36*
X150596958Y-93555710D02*
G01*
X150611276Y-93557834D01*
X150625317Y-93561351D01*
X150638946Y-93566228D01*
X150652031Y-93572417D01*
X150664447Y-93579858D01*
X150676073Y-93588481D01*
X150686798Y-93598202D01*
X150696519Y-93608927D01*
X150705142Y-93620553D01*
X150712583Y-93632969D01*
X150718772Y-93646054D01*
X150723649Y-93659683D01*
X150727166Y-93673724D01*
X150729290Y-93688042D01*
X150730000Y-93702500D01*
X150730000Y-94047500D01*
X150729290Y-94061958D01*
X150727166Y-94076276D01*
X150723649Y-94090317D01*
X150718772Y-94103946D01*
X150712583Y-94117031D01*
X150705142Y-94129447D01*
X150696519Y-94141073D01*
X150686798Y-94151798D01*
X150676073Y-94161519D01*
X150664447Y-94170142D01*
X150652031Y-94177583D01*
X150638946Y-94183772D01*
X150625317Y-94188649D01*
X150611276Y-94192166D01*
X150596958Y-94194290D01*
X150582500Y-94195000D01*
X150287500Y-94195000D01*
X150273042Y-94194290D01*
X150258724Y-94192166D01*
X150244683Y-94188649D01*
X150231054Y-94183772D01*
X150217969Y-94177583D01*
X150205553Y-94170142D01*
X150193927Y-94161519D01*
X150183202Y-94151798D01*
X150173481Y-94141073D01*
X150164858Y-94129447D01*
X150157417Y-94117031D01*
X150151228Y-94103946D01*
X150146351Y-94090317D01*
X150142834Y-94076276D01*
X150140710Y-94061958D01*
X150140000Y-94047500D01*
X150140000Y-93702500D01*
X150140710Y-93688042D01*
X150142834Y-93673724D01*
X150146351Y-93659683D01*
X150151228Y-93646054D01*
X150157417Y-93632969D01*
X150164858Y-93620553D01*
X150173481Y-93608927D01*
X150183202Y-93598202D01*
X150193927Y-93588481D01*
X150205553Y-93579858D01*
X150217969Y-93572417D01*
X150231054Y-93566228D01*
X150244683Y-93561351D01*
X150258724Y-93557834D01*
X150273042Y-93555710D01*
X150287500Y-93555000D01*
X150582500Y-93555000D01*
X150596958Y-93555710D01*
G37*
G36*
X149626958Y-93555710D02*
G01*
X149641276Y-93557834D01*
X149655317Y-93561351D01*
X149668946Y-93566228D01*
X149682031Y-93572417D01*
X149694447Y-93579858D01*
X149706073Y-93588481D01*
X149716798Y-93598202D01*
X149726519Y-93608927D01*
X149735142Y-93620553D01*
X149742583Y-93632969D01*
X149748772Y-93646054D01*
X149753649Y-93659683D01*
X149757166Y-93673724D01*
X149759290Y-93688042D01*
X149760000Y-93702500D01*
X149760000Y-94047500D01*
X149759290Y-94061958D01*
X149757166Y-94076276D01*
X149753649Y-94090317D01*
X149748772Y-94103946D01*
X149742583Y-94117031D01*
X149735142Y-94129447D01*
X149726519Y-94141073D01*
X149716798Y-94151798D01*
X149706073Y-94161519D01*
X149694447Y-94170142D01*
X149682031Y-94177583D01*
X149668946Y-94183772D01*
X149655317Y-94188649D01*
X149641276Y-94192166D01*
X149626958Y-94194290D01*
X149612500Y-94195000D01*
X149317500Y-94195000D01*
X149303042Y-94194290D01*
X149288724Y-94192166D01*
X149274683Y-94188649D01*
X149261054Y-94183772D01*
X149247969Y-94177583D01*
X149235553Y-94170142D01*
X149223927Y-94161519D01*
X149213202Y-94151798D01*
X149203481Y-94141073D01*
X149194858Y-94129447D01*
X149187417Y-94117031D01*
X149181228Y-94103946D01*
X149176351Y-94090317D01*
X149172834Y-94076276D01*
X149170710Y-94061958D01*
X149170000Y-94047500D01*
X149170000Y-93702500D01*
X149170710Y-93688042D01*
X149172834Y-93673724D01*
X149176351Y-93659683D01*
X149181228Y-93646054D01*
X149187417Y-93632969D01*
X149194858Y-93620553D01*
X149203481Y-93608927D01*
X149213202Y-93598202D01*
X149223927Y-93588481D01*
X149235553Y-93579858D01*
X149247969Y-93572417D01*
X149261054Y-93566228D01*
X149274683Y-93561351D01*
X149288724Y-93557834D01*
X149303042Y-93555710D01*
X149317500Y-93555000D01*
X149612500Y-93555000D01*
X149626958Y-93555710D01*
G37*
G36*
X160691958Y-92430710D02*
G01*
X160706276Y-92432834D01*
X160720317Y-92436351D01*
X160733946Y-92441228D01*
X160747031Y-92447417D01*
X160759447Y-92454858D01*
X160771073Y-92463481D01*
X160781798Y-92473202D01*
X160791519Y-92483927D01*
X160800142Y-92495553D01*
X160807583Y-92507969D01*
X160813772Y-92521054D01*
X160818649Y-92534683D01*
X160822166Y-92548724D01*
X160824290Y-92563042D01*
X160825000Y-92577500D01*
X160825000Y-92922500D01*
X160824290Y-92936958D01*
X160822166Y-92951276D01*
X160818649Y-92965317D01*
X160813772Y-92978946D01*
X160807583Y-92992031D01*
X160800142Y-93004447D01*
X160791519Y-93016073D01*
X160781798Y-93026798D01*
X160771073Y-93036519D01*
X160759447Y-93045142D01*
X160747031Y-93052583D01*
X160733946Y-93058772D01*
X160720317Y-93063649D01*
X160706276Y-93067166D01*
X160691958Y-93069290D01*
X160677500Y-93070000D01*
X160382500Y-93070000D01*
X160368042Y-93069290D01*
X160353724Y-93067166D01*
X160339683Y-93063649D01*
X160326054Y-93058772D01*
X160312969Y-93052583D01*
X160300553Y-93045142D01*
X160288927Y-93036519D01*
X160278202Y-93026798D01*
X160268481Y-93016073D01*
X160259858Y-93004447D01*
X160252417Y-92992031D01*
X160246228Y-92978946D01*
X160241351Y-92965317D01*
X160237834Y-92951276D01*
X160235710Y-92936958D01*
X160235000Y-92922500D01*
X160235000Y-92577500D01*
X160235710Y-92563042D01*
X160237834Y-92548724D01*
X160241351Y-92534683D01*
X160246228Y-92521054D01*
X160252417Y-92507969D01*
X160259858Y-92495553D01*
X160268481Y-92483927D01*
X160278202Y-92473202D01*
X160288927Y-92463481D01*
X160300553Y-92454858D01*
X160312969Y-92447417D01*
X160326054Y-92441228D01*
X160339683Y-92436351D01*
X160353724Y-92432834D01*
X160368042Y-92430710D01*
X160382500Y-92430000D01*
X160677500Y-92430000D01*
X160691958Y-92430710D01*
G37*
G36*
X161661958Y-92430710D02*
G01*
X161676276Y-92432834D01*
X161690317Y-92436351D01*
X161703946Y-92441228D01*
X161717031Y-92447417D01*
X161729447Y-92454858D01*
X161741073Y-92463481D01*
X161751798Y-92473202D01*
X161761519Y-92483927D01*
X161770142Y-92495553D01*
X161777583Y-92507969D01*
X161783772Y-92521054D01*
X161788649Y-92534683D01*
X161792166Y-92548724D01*
X161794290Y-92563042D01*
X161795000Y-92577500D01*
X161795000Y-92922500D01*
X161794290Y-92936958D01*
X161792166Y-92951276D01*
X161788649Y-92965317D01*
X161783772Y-92978946D01*
X161777583Y-92992031D01*
X161770142Y-93004447D01*
X161761519Y-93016073D01*
X161751798Y-93026798D01*
X161741073Y-93036519D01*
X161729447Y-93045142D01*
X161717031Y-93052583D01*
X161703946Y-93058772D01*
X161690317Y-93063649D01*
X161676276Y-93067166D01*
X161661958Y-93069290D01*
X161647500Y-93070000D01*
X161352500Y-93070000D01*
X161338042Y-93069290D01*
X161323724Y-93067166D01*
X161309683Y-93063649D01*
X161296054Y-93058772D01*
X161282969Y-93052583D01*
X161270553Y-93045142D01*
X161258927Y-93036519D01*
X161248202Y-93026798D01*
X161238481Y-93016073D01*
X161229858Y-93004447D01*
X161222417Y-92992031D01*
X161216228Y-92978946D01*
X161211351Y-92965317D01*
X161207834Y-92951276D01*
X161205710Y-92936958D01*
X161205000Y-92922500D01*
X161205000Y-92577500D01*
X161205710Y-92563042D01*
X161207834Y-92548724D01*
X161211351Y-92534683D01*
X161216228Y-92521054D01*
X161222417Y-92507969D01*
X161229858Y-92495553D01*
X161238481Y-92483927D01*
X161248202Y-92473202D01*
X161258927Y-92463481D01*
X161270553Y-92454858D01*
X161282969Y-92447417D01*
X161296054Y-92441228D01*
X161309683Y-92436351D01*
X161323724Y-92432834D01*
X161338042Y-92430710D01*
X161352500Y-92430000D01*
X161647500Y-92430000D01*
X161661958Y-92430710D01*
G37*
D15*
X145400000Y-92200000D03*
X145400000Y-90300000D03*
X147400000Y-91250000D03*
D16*
X133350000Y-101900000D03*
X130050000Y-101900000D03*
D10*
G36*
X156436958Y-99955710D02*
G01*
X156451276Y-99957834D01*
X156465317Y-99961351D01*
X156478946Y-99966228D01*
X156492031Y-99972417D01*
X156504447Y-99979858D01*
X156516073Y-99988481D01*
X156526798Y-99998202D01*
X156536519Y-100008927D01*
X156545142Y-100020553D01*
X156552583Y-100032969D01*
X156558772Y-100046054D01*
X156563649Y-100059683D01*
X156567166Y-100073724D01*
X156569290Y-100088042D01*
X156570000Y-100102500D01*
X156570000Y-100397500D01*
X156569290Y-100411958D01*
X156567166Y-100426276D01*
X156563649Y-100440317D01*
X156558772Y-100453946D01*
X156552583Y-100467031D01*
X156545142Y-100479447D01*
X156536519Y-100491073D01*
X156526798Y-100501798D01*
X156516073Y-100511519D01*
X156504447Y-100520142D01*
X156492031Y-100527583D01*
X156478946Y-100533772D01*
X156465317Y-100538649D01*
X156451276Y-100542166D01*
X156436958Y-100544290D01*
X156422500Y-100545000D01*
X156077500Y-100545000D01*
X156063042Y-100544290D01*
X156048724Y-100542166D01*
X156034683Y-100538649D01*
X156021054Y-100533772D01*
X156007969Y-100527583D01*
X155995553Y-100520142D01*
X155983927Y-100511519D01*
X155973202Y-100501798D01*
X155963481Y-100491073D01*
X155954858Y-100479447D01*
X155947417Y-100467031D01*
X155941228Y-100453946D01*
X155936351Y-100440317D01*
X155932834Y-100426276D01*
X155930710Y-100411958D01*
X155930000Y-100397500D01*
X155930000Y-100102500D01*
X155930710Y-100088042D01*
X155932834Y-100073724D01*
X155936351Y-100059683D01*
X155941228Y-100046054D01*
X155947417Y-100032969D01*
X155954858Y-100020553D01*
X155963481Y-100008927D01*
X155973202Y-99998202D01*
X155983927Y-99988481D01*
X155995553Y-99979858D01*
X156007969Y-99972417D01*
X156021054Y-99966228D01*
X156034683Y-99961351D01*
X156048724Y-99957834D01*
X156063042Y-99955710D01*
X156077500Y-99955000D01*
X156422500Y-99955000D01*
X156436958Y-99955710D01*
G37*
G36*
X156436958Y-98985710D02*
G01*
X156451276Y-98987834D01*
X156465317Y-98991351D01*
X156478946Y-98996228D01*
X156492031Y-99002417D01*
X156504447Y-99009858D01*
X156516073Y-99018481D01*
X156526798Y-99028202D01*
X156536519Y-99038927D01*
X156545142Y-99050553D01*
X156552583Y-99062969D01*
X156558772Y-99076054D01*
X156563649Y-99089683D01*
X156567166Y-99103724D01*
X156569290Y-99118042D01*
X156570000Y-99132500D01*
X156570000Y-99427500D01*
X156569290Y-99441958D01*
X156567166Y-99456276D01*
X156563649Y-99470317D01*
X156558772Y-99483946D01*
X156552583Y-99497031D01*
X156545142Y-99509447D01*
X156536519Y-99521073D01*
X156526798Y-99531798D01*
X156516073Y-99541519D01*
X156504447Y-99550142D01*
X156492031Y-99557583D01*
X156478946Y-99563772D01*
X156465317Y-99568649D01*
X156451276Y-99572166D01*
X156436958Y-99574290D01*
X156422500Y-99575000D01*
X156077500Y-99575000D01*
X156063042Y-99574290D01*
X156048724Y-99572166D01*
X156034683Y-99568649D01*
X156021054Y-99563772D01*
X156007969Y-99557583D01*
X155995553Y-99550142D01*
X155983927Y-99541519D01*
X155973202Y-99531798D01*
X155963481Y-99521073D01*
X155954858Y-99509447D01*
X155947417Y-99497031D01*
X155941228Y-99483946D01*
X155936351Y-99470317D01*
X155932834Y-99456276D01*
X155930710Y-99441958D01*
X155930000Y-99427500D01*
X155930000Y-99132500D01*
X155930710Y-99118042D01*
X155932834Y-99103724D01*
X155936351Y-99089683D01*
X155941228Y-99076054D01*
X155947417Y-99062969D01*
X155954858Y-99050553D01*
X155963481Y-99038927D01*
X155973202Y-99028202D01*
X155983927Y-99018481D01*
X155995553Y-99009858D01*
X156007969Y-99002417D01*
X156021054Y-98996228D01*
X156034683Y-98991351D01*
X156048724Y-98987834D01*
X156063042Y-98985710D01*
X156077500Y-98985000D01*
X156422500Y-98985000D01*
X156436958Y-98985710D01*
G37*
G36*
X164146958Y-99180710D02*
G01*
X164161276Y-99182834D01*
X164175317Y-99186351D01*
X164188946Y-99191228D01*
X164202031Y-99197417D01*
X164214447Y-99204858D01*
X164226073Y-99213481D01*
X164236798Y-99223202D01*
X164246519Y-99233927D01*
X164255142Y-99245553D01*
X164262583Y-99257969D01*
X164268772Y-99271054D01*
X164273649Y-99284683D01*
X164277166Y-99298724D01*
X164279290Y-99313042D01*
X164280000Y-99327500D01*
X164280000Y-99672500D01*
X164279290Y-99686958D01*
X164277166Y-99701276D01*
X164273649Y-99715317D01*
X164268772Y-99728946D01*
X164262583Y-99742031D01*
X164255142Y-99754447D01*
X164246519Y-99766073D01*
X164236798Y-99776798D01*
X164226073Y-99786519D01*
X164214447Y-99795142D01*
X164202031Y-99802583D01*
X164188946Y-99808772D01*
X164175317Y-99813649D01*
X164161276Y-99817166D01*
X164146958Y-99819290D01*
X164132500Y-99820000D01*
X163837500Y-99820000D01*
X163823042Y-99819290D01*
X163808724Y-99817166D01*
X163794683Y-99813649D01*
X163781054Y-99808772D01*
X163767969Y-99802583D01*
X163755553Y-99795142D01*
X163743927Y-99786519D01*
X163733202Y-99776798D01*
X163723481Y-99766073D01*
X163714858Y-99754447D01*
X163707417Y-99742031D01*
X163701228Y-99728946D01*
X163696351Y-99715317D01*
X163692834Y-99701276D01*
X163690710Y-99686958D01*
X163690000Y-99672500D01*
X163690000Y-99327500D01*
X163690710Y-99313042D01*
X163692834Y-99298724D01*
X163696351Y-99284683D01*
X163701228Y-99271054D01*
X163707417Y-99257969D01*
X163714858Y-99245553D01*
X163723481Y-99233927D01*
X163733202Y-99223202D01*
X163743927Y-99213481D01*
X163755553Y-99204858D01*
X163767969Y-99197417D01*
X163781054Y-99191228D01*
X163794683Y-99186351D01*
X163808724Y-99182834D01*
X163823042Y-99180710D01*
X163837500Y-99180000D01*
X164132500Y-99180000D01*
X164146958Y-99180710D01*
G37*
G36*
X163176958Y-99180710D02*
G01*
X163191276Y-99182834D01*
X163205317Y-99186351D01*
X163218946Y-99191228D01*
X163232031Y-99197417D01*
X163244447Y-99204858D01*
X163256073Y-99213481D01*
X163266798Y-99223202D01*
X163276519Y-99233927D01*
X163285142Y-99245553D01*
X163292583Y-99257969D01*
X163298772Y-99271054D01*
X163303649Y-99284683D01*
X163307166Y-99298724D01*
X163309290Y-99313042D01*
X163310000Y-99327500D01*
X163310000Y-99672500D01*
X163309290Y-99686958D01*
X163307166Y-99701276D01*
X163303649Y-99715317D01*
X163298772Y-99728946D01*
X163292583Y-99742031D01*
X163285142Y-99754447D01*
X163276519Y-99766073D01*
X163266798Y-99776798D01*
X163256073Y-99786519D01*
X163244447Y-99795142D01*
X163232031Y-99802583D01*
X163218946Y-99808772D01*
X163205317Y-99813649D01*
X163191276Y-99817166D01*
X163176958Y-99819290D01*
X163162500Y-99820000D01*
X162867500Y-99820000D01*
X162853042Y-99819290D01*
X162838724Y-99817166D01*
X162824683Y-99813649D01*
X162811054Y-99808772D01*
X162797969Y-99802583D01*
X162785553Y-99795142D01*
X162773927Y-99786519D01*
X162763202Y-99776798D01*
X162753481Y-99766073D01*
X162744858Y-99754447D01*
X162737417Y-99742031D01*
X162731228Y-99728946D01*
X162726351Y-99715317D01*
X162722834Y-99701276D01*
X162720710Y-99686958D01*
X162720000Y-99672500D01*
X162720000Y-99327500D01*
X162720710Y-99313042D01*
X162722834Y-99298724D01*
X162726351Y-99284683D01*
X162731228Y-99271054D01*
X162737417Y-99257969D01*
X162744858Y-99245553D01*
X162753481Y-99233927D01*
X162763202Y-99223202D01*
X162773927Y-99213481D01*
X162785553Y-99204858D01*
X162797969Y-99197417D01*
X162811054Y-99191228D01*
X162824683Y-99186351D01*
X162838724Y-99182834D01*
X162853042Y-99180710D01*
X162867500Y-99180000D01*
X163162500Y-99180000D01*
X163176958Y-99180710D01*
G37*
D15*
X158150000Y-91275000D03*
X156150000Y-90325000D03*
X156150000Y-92225000D03*
X154550000Y-91275000D03*
X152550000Y-90325000D03*
X152550000Y-92225000D03*
X150950000Y-91275000D03*
X148950000Y-90325000D03*
X148950000Y-92225000D03*
M02*
