G04 #@! TF.GenerationSoftware,KiCad,Pcbnew,(5.1.5-0-10_14)*
G04 #@! TF.CreationDate,2020-03-09T21:53:23-07:00*
G04 #@! TF.ProjectId,R1,52312e6b-6963-4616-945f-706362585858,rev?*
G04 #@! TF.SameCoordinates,Original*
G04 #@! TF.FileFunction,Soldermask,Top*
G04 #@! TF.FilePolarity,Negative*
%FSLAX46Y46*%
G04 Gerber Fmt 4.6, Leading zero omitted, Abs format (unit mm)*
G04 Created by KiCad (PCBNEW (5.1.5-0-10_14)) date 2020-03-09 21:53:23*
%MOMM*%
%LPD*%
G04 APERTURE LIST*
%ADD10C,0.100000*%
G04 APERTURE END LIST*
D10*
G36*
X128008212Y-110635119D02*
G01*
X128271177Y-110687426D01*
X128689932Y-110860880D01*
X129066802Y-111112696D01*
X129387304Y-111433198D01*
X129639120Y-111810068D01*
X129812574Y-112228823D01*
X129828077Y-112306764D01*
X129888054Y-112608284D01*
X129901000Y-112673371D01*
X129901000Y-113126629D01*
X129812574Y-113571177D01*
X129639120Y-113989932D01*
X129387304Y-114366802D01*
X129066802Y-114687304D01*
X128689932Y-114939120D01*
X128271177Y-115112574D01*
X128048903Y-115156787D01*
X127826630Y-115201000D01*
X127373370Y-115201000D01*
X127151097Y-115156787D01*
X126928823Y-115112574D01*
X126510068Y-114939120D01*
X126133198Y-114687304D01*
X125812696Y-114366802D01*
X125560880Y-113989932D01*
X125387426Y-113571177D01*
X125299000Y-113126629D01*
X125299000Y-112673371D01*
X125311947Y-112608284D01*
X125371923Y-112306764D01*
X125387426Y-112228823D01*
X125560880Y-111810068D01*
X125812696Y-111433198D01*
X126133198Y-111112696D01*
X126510068Y-110860880D01*
X126928823Y-110687426D01*
X127191788Y-110635119D01*
X127373370Y-110599000D01*
X127826630Y-110599000D01*
X128008212Y-110635119D01*
G37*
G36*
X157484438Y-113881716D02*
G01*
X157505057Y-113887971D01*
X157524053Y-113898124D01*
X157540708Y-113911792D01*
X157554376Y-113928447D01*
X157564529Y-113947443D01*
X157570784Y-113968062D01*
X157573500Y-113995640D01*
X157573500Y-114504360D01*
X157570784Y-114531938D01*
X157564529Y-114552557D01*
X157554376Y-114571553D01*
X157540708Y-114588208D01*
X157524053Y-114601876D01*
X157505057Y-114612029D01*
X157484438Y-114618284D01*
X157456860Y-114621000D01*
X156998140Y-114621000D01*
X156970562Y-114618284D01*
X156949943Y-114612029D01*
X156930947Y-114601876D01*
X156914292Y-114588208D01*
X156900624Y-114571553D01*
X156890471Y-114552557D01*
X156884216Y-114531938D01*
X156881500Y-114504360D01*
X156881500Y-113995640D01*
X156884216Y-113968062D01*
X156890471Y-113947443D01*
X156900624Y-113928447D01*
X156914292Y-113911792D01*
X156930947Y-113898124D01*
X156949943Y-113887971D01*
X156970562Y-113881716D01*
X156998140Y-113879000D01*
X157456860Y-113879000D01*
X157484438Y-113881716D01*
G37*
G36*
X158454438Y-113881716D02*
G01*
X158475057Y-113887971D01*
X158494053Y-113898124D01*
X158510708Y-113911792D01*
X158524376Y-113928447D01*
X158534529Y-113947443D01*
X158540784Y-113968062D01*
X158543500Y-113995640D01*
X158543500Y-114504360D01*
X158540784Y-114531938D01*
X158534529Y-114552557D01*
X158524376Y-114571553D01*
X158510708Y-114588208D01*
X158494053Y-114601876D01*
X158475057Y-114612029D01*
X158454438Y-114618284D01*
X158426860Y-114621000D01*
X157968140Y-114621000D01*
X157940562Y-114618284D01*
X157919943Y-114612029D01*
X157900947Y-114601876D01*
X157884292Y-114588208D01*
X157870624Y-114571553D01*
X157860471Y-114552557D01*
X157854216Y-114531938D01*
X157851500Y-114504360D01*
X157851500Y-113995640D01*
X157854216Y-113968062D01*
X157860471Y-113947443D01*
X157870624Y-113928447D01*
X157884292Y-113911792D01*
X157900947Y-113898124D01*
X157919943Y-113887971D01*
X157940562Y-113881716D01*
X157968140Y-113879000D01*
X158426860Y-113879000D01*
X158454438Y-113881716D01*
G37*
G36*
X153781938Y-112891716D02*
G01*
X153802557Y-112897971D01*
X153821553Y-112908124D01*
X153838208Y-112921792D01*
X153851876Y-112938447D01*
X153862029Y-112957443D01*
X153868284Y-112978062D01*
X153871000Y-113005640D01*
X153871000Y-113464360D01*
X153868284Y-113491938D01*
X153862029Y-113512557D01*
X153851876Y-113531553D01*
X153838208Y-113548208D01*
X153821553Y-113561876D01*
X153802557Y-113572029D01*
X153781938Y-113578284D01*
X153754360Y-113581000D01*
X153245640Y-113581000D01*
X153218062Y-113578284D01*
X153197443Y-113572029D01*
X153178447Y-113561876D01*
X153161792Y-113548208D01*
X153148124Y-113531553D01*
X153137971Y-113512557D01*
X153131716Y-113491938D01*
X153129000Y-113464360D01*
X153129000Y-113005640D01*
X153131716Y-112978062D01*
X153137971Y-112957443D01*
X153148124Y-112938447D01*
X153161792Y-112921792D01*
X153178447Y-112908124D01*
X153197443Y-112897971D01*
X153218062Y-112891716D01*
X153245640Y-112889000D01*
X153754360Y-112889000D01*
X153781938Y-112891716D01*
G37*
G36*
X151316132Y-110427810D02*
G01*
X151347423Y-110437302D01*
X151376263Y-110452717D01*
X151401539Y-110473461D01*
X151422283Y-110498737D01*
X151437698Y-110527577D01*
X151447190Y-110558868D01*
X151451000Y-110597551D01*
X151451000Y-112902449D01*
X151447190Y-112941132D01*
X151437698Y-112972423D01*
X151422283Y-113001263D01*
X151401539Y-113026539D01*
X151376263Y-113047283D01*
X151347423Y-113062698D01*
X151316132Y-113072190D01*
X151277449Y-113076000D01*
X149447551Y-113076000D01*
X149408868Y-113072190D01*
X149377577Y-113062698D01*
X149348737Y-113047283D01*
X149323461Y-113026539D01*
X149302717Y-113001263D01*
X149287302Y-112972423D01*
X149277810Y-112941132D01*
X149274000Y-112902449D01*
X149274000Y-110597551D01*
X149277810Y-110558868D01*
X149287302Y-110527577D01*
X149302717Y-110498737D01*
X149323461Y-110473461D01*
X149348737Y-110452717D01*
X149377577Y-110437302D01*
X149408868Y-110427810D01*
X149447551Y-110424000D01*
X151277449Y-110424000D01*
X151316132Y-110427810D01*
G37*
G36*
X145091132Y-110427810D02*
G01*
X145122423Y-110437302D01*
X145151263Y-110452717D01*
X145176539Y-110473461D01*
X145197283Y-110498737D01*
X145212698Y-110527577D01*
X145222190Y-110558868D01*
X145226000Y-110597551D01*
X145226000Y-112902449D01*
X145222190Y-112941132D01*
X145212698Y-112972423D01*
X145197283Y-113001263D01*
X145176539Y-113026539D01*
X145151263Y-113047283D01*
X145122423Y-113062698D01*
X145091132Y-113072190D01*
X145052449Y-113076000D01*
X143222551Y-113076000D01*
X143183868Y-113072190D01*
X143152577Y-113062698D01*
X143123737Y-113047283D01*
X143098461Y-113026539D01*
X143077717Y-113001263D01*
X143062302Y-112972423D01*
X143052810Y-112941132D01*
X143049000Y-112902449D01*
X143049000Y-110597551D01*
X143052810Y-110558868D01*
X143062302Y-110527577D01*
X143077717Y-110498737D01*
X143098461Y-110473461D01*
X143123737Y-110452717D01*
X143152577Y-110437302D01*
X143183868Y-110427810D01*
X143222551Y-110424000D01*
X145052449Y-110424000D01*
X145091132Y-110427810D01*
G37*
G36*
X156209928Y-112306764D02*
G01*
X156231009Y-112313160D01*
X156250445Y-112323548D01*
X156267477Y-112337525D01*
X156272376Y-112343495D01*
X156289703Y-112360822D01*
X156310078Y-112374436D01*
X156328092Y-112381898D01*
X156315760Y-112400355D01*
X156306382Y-112422994D01*
X156301000Y-112459279D01*
X156301000Y-112886860D01*
X156298236Y-112914928D01*
X156291840Y-112936009D01*
X156281452Y-112955445D01*
X156267476Y-112972476D01*
X156250445Y-112986452D01*
X156231009Y-112996840D01*
X156209928Y-113003236D01*
X156181860Y-113006000D01*
X154368140Y-113006000D01*
X154340072Y-113003236D01*
X154318991Y-112996840D01*
X154299555Y-112986452D01*
X154282524Y-112972476D01*
X154268548Y-112955445D01*
X154258160Y-112936009D01*
X154251764Y-112914928D01*
X154249000Y-112886860D01*
X154249000Y-112423140D01*
X154251764Y-112395072D01*
X154258160Y-112373991D01*
X154268548Y-112354555D01*
X154282524Y-112337524D01*
X154299555Y-112323548D01*
X154318991Y-112313160D01*
X154340072Y-112306764D01*
X154368140Y-112304000D01*
X156181860Y-112304000D01*
X156209928Y-112306764D01*
G37*
G36*
X161159928Y-112306764D02*
G01*
X161181009Y-112313160D01*
X161200445Y-112323548D01*
X161217476Y-112337524D01*
X161231452Y-112354555D01*
X161241840Y-112373991D01*
X161248236Y-112395072D01*
X161251000Y-112423140D01*
X161251000Y-112886860D01*
X161248236Y-112914928D01*
X161241840Y-112936009D01*
X161231452Y-112955445D01*
X161217476Y-112972476D01*
X161200445Y-112986452D01*
X161181009Y-112996840D01*
X161159928Y-113003236D01*
X161131860Y-113006000D01*
X159318140Y-113006000D01*
X159290072Y-113003236D01*
X159268991Y-112996840D01*
X159249555Y-112986452D01*
X159232524Y-112972476D01*
X159218548Y-112955445D01*
X159208160Y-112936009D01*
X159201764Y-112914928D01*
X159199000Y-112886860D01*
X159199000Y-112459279D01*
X159196598Y-112434893D01*
X159189485Y-112411444D01*
X159177934Y-112389833D01*
X159171442Y-112381922D01*
X159178834Y-112379680D01*
X159200445Y-112368129D01*
X159227624Y-112343495D01*
X159232523Y-112337525D01*
X159249555Y-112323548D01*
X159268991Y-112313160D01*
X159290072Y-112306764D01*
X159318140Y-112304000D01*
X161131860Y-112304000D01*
X161159928Y-112306764D01*
G37*
G36*
X163031938Y-112126716D02*
G01*
X163052557Y-112132971D01*
X163071553Y-112143124D01*
X163088208Y-112156792D01*
X163101876Y-112173447D01*
X163112029Y-112192443D01*
X163118284Y-112213062D01*
X163121000Y-112240640D01*
X163121000Y-112699360D01*
X163118284Y-112726938D01*
X163112029Y-112747557D01*
X163101876Y-112766553D01*
X163088208Y-112783208D01*
X163071553Y-112796876D01*
X163052557Y-112807029D01*
X163031938Y-112813284D01*
X163004360Y-112816000D01*
X162495640Y-112816000D01*
X162468062Y-112813284D01*
X162447443Y-112807029D01*
X162428447Y-112796876D01*
X162411792Y-112783208D01*
X162398124Y-112766553D01*
X162387971Y-112747557D01*
X162381716Y-112726938D01*
X162379000Y-112699360D01*
X162379000Y-112240640D01*
X162381716Y-112213062D01*
X162387971Y-112192443D01*
X162398124Y-112173447D01*
X162411792Y-112156792D01*
X162428447Y-112143124D01*
X162447443Y-112132971D01*
X162468062Y-112126716D01*
X162495640Y-112124000D01*
X163004360Y-112124000D01*
X163031938Y-112126716D01*
G37*
G36*
X174451000Y-112651000D02*
G01*
X170049000Y-112651000D01*
X170049000Y-101849000D01*
X174451000Y-101849000D01*
X174451000Y-112651000D01*
G37*
G36*
X153781938Y-111921716D02*
G01*
X153802557Y-111927971D01*
X153821553Y-111938124D01*
X153838208Y-111951792D01*
X153851876Y-111968447D01*
X153862029Y-111987443D01*
X153868284Y-112008062D01*
X153871000Y-112035640D01*
X153871000Y-112494360D01*
X153868284Y-112521938D01*
X153862029Y-112542557D01*
X153851876Y-112561553D01*
X153838208Y-112578208D01*
X153821553Y-112591876D01*
X153802557Y-112602029D01*
X153781938Y-112608284D01*
X153754360Y-112611000D01*
X153245640Y-112611000D01*
X153218062Y-112608284D01*
X153197443Y-112602029D01*
X153178447Y-112591876D01*
X153161792Y-112578208D01*
X153148124Y-112561553D01*
X153137971Y-112542557D01*
X153131716Y-112521938D01*
X153129000Y-112494360D01*
X153129000Y-112035640D01*
X153131716Y-112008062D01*
X153137971Y-111987443D01*
X153148124Y-111968447D01*
X153161792Y-111951792D01*
X153178447Y-111938124D01*
X153197443Y-111927971D01*
X153218062Y-111921716D01*
X153245640Y-111919000D01*
X153754360Y-111919000D01*
X153781938Y-111921716D01*
G37*
G36*
X158875877Y-109052696D02*
G01*
X158906062Y-109061853D01*
X158933883Y-109076723D01*
X158958266Y-109096734D01*
X158977376Y-109120020D01*
X158994703Y-109137347D01*
X159015077Y-109150960D01*
X159033092Y-109158423D01*
X159020759Y-109176881D01*
X159011382Y-109199519D01*
X159006000Y-109235804D01*
X159006000Y-109724196D01*
X159008402Y-109748582D01*
X159015515Y-109772031D01*
X159027066Y-109793642D01*
X159042611Y-109812584D01*
X159061553Y-109828129D01*
X159083164Y-109839680D01*
X159106613Y-109846793D01*
X159130999Y-109849195D01*
X159155385Y-109846793D01*
X159178834Y-109839680D01*
X159200445Y-109828129D01*
X159227624Y-109803495D01*
X159232523Y-109797525D01*
X159249555Y-109783548D01*
X159268991Y-109773160D01*
X159290072Y-109766764D01*
X159318140Y-109764000D01*
X161131860Y-109764000D01*
X161159928Y-109766764D01*
X161181009Y-109773160D01*
X161200445Y-109783548D01*
X161217476Y-109797524D01*
X161231452Y-109814555D01*
X161241840Y-109833991D01*
X161248236Y-109855072D01*
X161251000Y-109883140D01*
X161251000Y-110346860D01*
X161248236Y-110374928D01*
X161241840Y-110396009D01*
X161231452Y-110415445D01*
X161217476Y-110432476D01*
X161200445Y-110446452D01*
X161181009Y-110456840D01*
X161159928Y-110463236D01*
X161131860Y-110466000D01*
X159318140Y-110466000D01*
X159290072Y-110463236D01*
X159268991Y-110456840D01*
X159249555Y-110446452D01*
X159232523Y-110432475D01*
X159227624Y-110426505D01*
X159210297Y-110409178D01*
X159189922Y-110395564D01*
X159167284Y-110386187D01*
X159143250Y-110381407D01*
X159118746Y-110381407D01*
X159094713Y-110386188D01*
X159072074Y-110395565D01*
X159051700Y-110409179D01*
X159034373Y-110426506D01*
X159020759Y-110446881D01*
X159011382Y-110469519D01*
X159006000Y-110505804D01*
X159006000Y-110994196D01*
X159008402Y-111018582D01*
X159015515Y-111042031D01*
X159027066Y-111063642D01*
X159042611Y-111082584D01*
X159061553Y-111098129D01*
X159083164Y-111109680D01*
X159106613Y-111116793D01*
X159130999Y-111119195D01*
X159155385Y-111116793D01*
X159178834Y-111109680D01*
X159200445Y-111098129D01*
X159227624Y-111073495D01*
X159232523Y-111067525D01*
X159249555Y-111053548D01*
X159268991Y-111043160D01*
X159290072Y-111036764D01*
X159318140Y-111034000D01*
X161131860Y-111034000D01*
X161159928Y-111036764D01*
X161181009Y-111043160D01*
X161200445Y-111053548D01*
X161217476Y-111067524D01*
X161231452Y-111084555D01*
X161241840Y-111103991D01*
X161248236Y-111125072D01*
X161251000Y-111153140D01*
X161251000Y-111616860D01*
X161248236Y-111644928D01*
X161241840Y-111666009D01*
X161231452Y-111685445D01*
X161217476Y-111702476D01*
X161200445Y-111716452D01*
X161181009Y-111726840D01*
X161159928Y-111733236D01*
X161131860Y-111736000D01*
X159318140Y-111736000D01*
X159290072Y-111733236D01*
X159268991Y-111726840D01*
X159249555Y-111716452D01*
X159232523Y-111702475D01*
X159227624Y-111696505D01*
X159210297Y-111679178D01*
X159189922Y-111665564D01*
X159167284Y-111656187D01*
X159143250Y-111651407D01*
X159118746Y-111651407D01*
X159094713Y-111656188D01*
X159072074Y-111665565D01*
X159051700Y-111679179D01*
X159034373Y-111696506D01*
X159020759Y-111716881D01*
X159011382Y-111739519D01*
X159006000Y-111775804D01*
X159006000Y-112264196D01*
X159008402Y-112288582D01*
X159015515Y-112312031D01*
X159027066Y-112333642D01*
X159033558Y-112341553D01*
X159026166Y-112343795D01*
X159004555Y-112355346D01*
X158977376Y-112379980D01*
X158958266Y-112403266D01*
X158933883Y-112423277D01*
X158906062Y-112438147D01*
X158875877Y-112447304D01*
X158838348Y-112451000D01*
X156661652Y-112451000D01*
X156624123Y-112447304D01*
X156593938Y-112438147D01*
X156566117Y-112423277D01*
X156541734Y-112403266D01*
X156522624Y-112379980D01*
X156505297Y-112362653D01*
X156484923Y-112349040D01*
X156466908Y-112341577D01*
X156479241Y-112323119D01*
X156488618Y-112300481D01*
X156494000Y-112264196D01*
X156494000Y-111775804D01*
X156491598Y-111751418D01*
X156484485Y-111727969D01*
X156472934Y-111706358D01*
X156457389Y-111687416D01*
X156438447Y-111671871D01*
X156416836Y-111660320D01*
X156393387Y-111653207D01*
X156369001Y-111650805D01*
X156344615Y-111653207D01*
X156321166Y-111660320D01*
X156299555Y-111671871D01*
X156272376Y-111696505D01*
X156267477Y-111702475D01*
X156250445Y-111716452D01*
X156231009Y-111726840D01*
X156209928Y-111733236D01*
X156181860Y-111736000D01*
X154368140Y-111736000D01*
X154340072Y-111733236D01*
X154318991Y-111726840D01*
X154299555Y-111716452D01*
X154282524Y-111702476D01*
X154268548Y-111685445D01*
X154258160Y-111666009D01*
X154251764Y-111644928D01*
X154249000Y-111616860D01*
X154249000Y-111153140D01*
X154251764Y-111125072D01*
X154258160Y-111103991D01*
X154268548Y-111084555D01*
X154282524Y-111067524D01*
X154299555Y-111053548D01*
X154318991Y-111043160D01*
X154340072Y-111036764D01*
X154368140Y-111034000D01*
X156181860Y-111034000D01*
X156209928Y-111036764D01*
X156231009Y-111043160D01*
X156250445Y-111053548D01*
X156267477Y-111067525D01*
X156272376Y-111073495D01*
X156289703Y-111090822D01*
X156310078Y-111104436D01*
X156332716Y-111113813D01*
X156356750Y-111118593D01*
X156381254Y-111118593D01*
X156405287Y-111113812D01*
X156427926Y-111104435D01*
X156448300Y-111090821D01*
X156465627Y-111073494D01*
X156479241Y-111053119D01*
X156488618Y-111030481D01*
X156494000Y-110994196D01*
X156494000Y-110505804D01*
X156491598Y-110481418D01*
X156484485Y-110457969D01*
X156472934Y-110436358D01*
X156457389Y-110417416D01*
X156438447Y-110401871D01*
X156416836Y-110390320D01*
X156393387Y-110383207D01*
X156369001Y-110380805D01*
X156344615Y-110383207D01*
X156321166Y-110390320D01*
X156299555Y-110401871D01*
X156272376Y-110426505D01*
X156267477Y-110432475D01*
X156250445Y-110446452D01*
X156231009Y-110456840D01*
X156209928Y-110463236D01*
X156181860Y-110466000D01*
X154368140Y-110466000D01*
X154340072Y-110463236D01*
X154318991Y-110456840D01*
X154299555Y-110446452D01*
X154282524Y-110432476D01*
X154268548Y-110415445D01*
X154258160Y-110396009D01*
X154251764Y-110374928D01*
X154249000Y-110346860D01*
X154249000Y-109883140D01*
X154251764Y-109855072D01*
X154258160Y-109833991D01*
X154268548Y-109814555D01*
X154282524Y-109797524D01*
X154299555Y-109783548D01*
X154318991Y-109773160D01*
X154340072Y-109766764D01*
X154368140Y-109764000D01*
X156181860Y-109764000D01*
X156209928Y-109766764D01*
X156231009Y-109773160D01*
X156250445Y-109783548D01*
X156267477Y-109797525D01*
X156272376Y-109803495D01*
X156289703Y-109820822D01*
X156310078Y-109834436D01*
X156332716Y-109843813D01*
X156356750Y-109848593D01*
X156381254Y-109848593D01*
X156405287Y-109843812D01*
X156427926Y-109834435D01*
X156448300Y-109820821D01*
X156465627Y-109803494D01*
X156479241Y-109783119D01*
X156488618Y-109760481D01*
X156494000Y-109724196D01*
X156494000Y-109235804D01*
X156491598Y-109211418D01*
X156484485Y-109187969D01*
X156472934Y-109166358D01*
X156466442Y-109158447D01*
X156473834Y-109156205D01*
X156495445Y-109144654D01*
X156522624Y-109120020D01*
X156541734Y-109096734D01*
X156566117Y-109076723D01*
X156593938Y-109061853D01*
X156624123Y-109052696D01*
X156661652Y-109049000D01*
X158838348Y-109049000D01*
X158875877Y-109052696D01*
G37*
G36*
X163031938Y-111156716D02*
G01*
X163052557Y-111162971D01*
X163071553Y-111173124D01*
X163088208Y-111186792D01*
X163101876Y-111203447D01*
X163112029Y-111222443D01*
X163118284Y-111243062D01*
X163121000Y-111270640D01*
X163121000Y-111729360D01*
X163118284Y-111756938D01*
X163112029Y-111777557D01*
X163101876Y-111796553D01*
X163088208Y-111813208D01*
X163071553Y-111826876D01*
X163052557Y-111837029D01*
X163031938Y-111843284D01*
X163004360Y-111846000D01*
X162495640Y-111846000D01*
X162468062Y-111843284D01*
X162447443Y-111837029D01*
X162428447Y-111826876D01*
X162411792Y-111813208D01*
X162398124Y-111796553D01*
X162387971Y-111777557D01*
X162381716Y-111756938D01*
X162379000Y-111729360D01*
X162379000Y-111270640D01*
X162381716Y-111243062D01*
X162387971Y-111222443D01*
X162398124Y-111203447D01*
X162411792Y-111186792D01*
X162428447Y-111173124D01*
X162447443Y-111162971D01*
X162468062Y-111156716D01*
X162495640Y-111154000D01*
X163004360Y-111154000D01*
X163031938Y-111156716D01*
G37*
G36*
X153781938Y-110891716D02*
G01*
X153802557Y-110897971D01*
X153821553Y-110908124D01*
X153838208Y-110921792D01*
X153851876Y-110938447D01*
X153862029Y-110957443D01*
X153868284Y-110978062D01*
X153871000Y-111005640D01*
X153871000Y-111464360D01*
X153868284Y-111491938D01*
X153862029Y-111512557D01*
X153851876Y-111531553D01*
X153838208Y-111548208D01*
X153821553Y-111561876D01*
X153802557Y-111572029D01*
X153781938Y-111578284D01*
X153754360Y-111581000D01*
X153245640Y-111581000D01*
X153218062Y-111578284D01*
X153197443Y-111572029D01*
X153178447Y-111561876D01*
X153161792Y-111548208D01*
X153148124Y-111531553D01*
X153137971Y-111512557D01*
X153131716Y-111491938D01*
X153129000Y-111464360D01*
X153129000Y-111005640D01*
X153131716Y-110978062D01*
X153137971Y-110957443D01*
X153148124Y-110938447D01*
X153161792Y-110921792D01*
X153178447Y-110908124D01*
X153197443Y-110897971D01*
X153218062Y-110891716D01*
X153245640Y-110889000D01*
X153754360Y-110889000D01*
X153781938Y-110891716D01*
G37*
G36*
X152531938Y-110876716D02*
G01*
X152552557Y-110882971D01*
X152571553Y-110893124D01*
X152588208Y-110906792D01*
X152601876Y-110923447D01*
X152612029Y-110942443D01*
X152618284Y-110963062D01*
X152621000Y-110990640D01*
X152621000Y-111449360D01*
X152618284Y-111476938D01*
X152612029Y-111497557D01*
X152601876Y-111516553D01*
X152588208Y-111533208D01*
X152571553Y-111546876D01*
X152552557Y-111557029D01*
X152531938Y-111563284D01*
X152504360Y-111566000D01*
X151995640Y-111566000D01*
X151968062Y-111563284D01*
X151947443Y-111557029D01*
X151928447Y-111546876D01*
X151911792Y-111533208D01*
X151898124Y-111516553D01*
X151887971Y-111497557D01*
X151881716Y-111476938D01*
X151879000Y-111449360D01*
X151879000Y-110990640D01*
X151881716Y-110963062D01*
X151887971Y-110942443D01*
X151898124Y-110923447D01*
X151911792Y-110906792D01*
X151928447Y-110893124D01*
X151947443Y-110882971D01*
X151968062Y-110876716D01*
X151995640Y-110874000D01*
X152504360Y-110874000D01*
X152531938Y-110876716D01*
G37*
G36*
X153781938Y-109921716D02*
G01*
X153802557Y-109927971D01*
X153821553Y-109938124D01*
X153838208Y-109951792D01*
X153851876Y-109968447D01*
X153862029Y-109987443D01*
X153868284Y-110008062D01*
X153871000Y-110035640D01*
X153871000Y-110494360D01*
X153868284Y-110521938D01*
X153862029Y-110542557D01*
X153851876Y-110561553D01*
X153838208Y-110578208D01*
X153821553Y-110591876D01*
X153802557Y-110602029D01*
X153781938Y-110608284D01*
X153754360Y-110611000D01*
X153245640Y-110611000D01*
X153218062Y-110608284D01*
X153197443Y-110602029D01*
X153178447Y-110591876D01*
X153161792Y-110578208D01*
X153148124Y-110561553D01*
X153137971Y-110542557D01*
X153131716Y-110521938D01*
X153129000Y-110494360D01*
X153129000Y-110035640D01*
X153131716Y-110008062D01*
X153137971Y-109987443D01*
X153148124Y-109968447D01*
X153161792Y-109951792D01*
X153178447Y-109938124D01*
X153197443Y-109927971D01*
X153218062Y-109921716D01*
X153245640Y-109919000D01*
X153754360Y-109919000D01*
X153781938Y-109921716D01*
G37*
G36*
X152531938Y-109906716D02*
G01*
X152552557Y-109912971D01*
X152571553Y-109923124D01*
X152588208Y-109936792D01*
X152601876Y-109953447D01*
X152612029Y-109972443D01*
X152618284Y-109993062D01*
X152621000Y-110020640D01*
X152621000Y-110479360D01*
X152618284Y-110506938D01*
X152612029Y-110527557D01*
X152601876Y-110546553D01*
X152588208Y-110563208D01*
X152571553Y-110576876D01*
X152552557Y-110587029D01*
X152531938Y-110593284D01*
X152504360Y-110596000D01*
X151995640Y-110596000D01*
X151968062Y-110593284D01*
X151947443Y-110587029D01*
X151928447Y-110576876D01*
X151911792Y-110563208D01*
X151898124Y-110546553D01*
X151887971Y-110527557D01*
X151881716Y-110506938D01*
X151879000Y-110479360D01*
X151879000Y-110020640D01*
X151881716Y-109993062D01*
X151887971Y-109972443D01*
X151898124Y-109953447D01*
X151911792Y-109936792D01*
X151928447Y-109923124D01*
X151947443Y-109912971D01*
X151968062Y-109906716D01*
X151995640Y-109904000D01*
X152504360Y-109904000D01*
X152531938Y-109906716D01*
G37*
G36*
X163518604Y-109128347D02*
G01*
X163555144Y-109139432D01*
X163588821Y-109157433D01*
X163618341Y-109181659D01*
X163642567Y-109211179D01*
X163660568Y-109244856D01*
X163671653Y-109281396D01*
X163676000Y-109325538D01*
X163676000Y-110274462D01*
X163671653Y-110318604D01*
X163660568Y-110355144D01*
X163642567Y-110388821D01*
X163618341Y-110418341D01*
X163588821Y-110442567D01*
X163555144Y-110460568D01*
X163518604Y-110471653D01*
X163474462Y-110476000D01*
X162025538Y-110476000D01*
X161981396Y-110471653D01*
X161944856Y-110460568D01*
X161911179Y-110442567D01*
X161881659Y-110418341D01*
X161857433Y-110388821D01*
X161839432Y-110355144D01*
X161828347Y-110318604D01*
X161824000Y-110274462D01*
X161824000Y-109325538D01*
X161828347Y-109281396D01*
X161839432Y-109244856D01*
X161857433Y-109211179D01*
X161881659Y-109181659D01*
X161911179Y-109157433D01*
X161944856Y-109139432D01*
X161981396Y-109128347D01*
X162025538Y-109124000D01*
X163474462Y-109124000D01*
X163518604Y-109128347D01*
G37*
G36*
X161159928Y-108496764D02*
G01*
X161181009Y-108503160D01*
X161200445Y-108513548D01*
X161217476Y-108527524D01*
X161231452Y-108544555D01*
X161241840Y-108563991D01*
X161248236Y-108585072D01*
X161251000Y-108613140D01*
X161251000Y-109076860D01*
X161248236Y-109104928D01*
X161241840Y-109126009D01*
X161231452Y-109145445D01*
X161217476Y-109162476D01*
X161200445Y-109176452D01*
X161181009Y-109186840D01*
X161159928Y-109193236D01*
X161131860Y-109196000D01*
X159318140Y-109196000D01*
X159290072Y-109193236D01*
X159268991Y-109186840D01*
X159249555Y-109176452D01*
X159232523Y-109162475D01*
X159227624Y-109156505D01*
X159210297Y-109139178D01*
X159189922Y-109125564D01*
X159171908Y-109118102D01*
X159184240Y-109099645D01*
X159193618Y-109077006D01*
X159199000Y-109040721D01*
X159199000Y-108613140D01*
X159201764Y-108585072D01*
X159208160Y-108563991D01*
X159218548Y-108544555D01*
X159232524Y-108527524D01*
X159249555Y-108513548D01*
X159268991Y-108503160D01*
X159290072Y-108496764D01*
X159318140Y-108494000D01*
X161131860Y-108494000D01*
X161159928Y-108496764D01*
G37*
G36*
X156209928Y-108496764D02*
G01*
X156231009Y-108503160D01*
X156250445Y-108513548D01*
X156267476Y-108527524D01*
X156281452Y-108544555D01*
X156291840Y-108563991D01*
X156298236Y-108585072D01*
X156301000Y-108613140D01*
X156301000Y-109040721D01*
X156303402Y-109065107D01*
X156310515Y-109088556D01*
X156322066Y-109110167D01*
X156328558Y-109118078D01*
X156321166Y-109120320D01*
X156299555Y-109131871D01*
X156272376Y-109156505D01*
X156267477Y-109162475D01*
X156250445Y-109176452D01*
X156231009Y-109186840D01*
X156209928Y-109193236D01*
X156181860Y-109196000D01*
X154368140Y-109196000D01*
X154340072Y-109193236D01*
X154318991Y-109186840D01*
X154299555Y-109176452D01*
X154282524Y-109162476D01*
X154268548Y-109145445D01*
X154258160Y-109126009D01*
X154251764Y-109104928D01*
X154249000Y-109076860D01*
X154249000Y-108613140D01*
X154251764Y-108585072D01*
X154258160Y-108563991D01*
X154268548Y-108544555D01*
X154282524Y-108527524D01*
X154299555Y-108513548D01*
X154318991Y-108503160D01*
X154340072Y-108496764D01*
X154368140Y-108494000D01*
X156181860Y-108494000D01*
X156209928Y-108496764D01*
G37*
G36*
X137605661Y-106847860D02*
G01*
X137668808Y-106854078D01*
X137734969Y-106874149D01*
X137734971Y-106874150D01*
X137795948Y-106906742D01*
X137795950Y-106906743D01*
X137795949Y-106906743D01*
X137849396Y-106950604D01*
X137881777Y-106990062D01*
X137893258Y-107004051D01*
X137925850Y-107065028D01*
X137925850Y-107065029D01*
X137925851Y-107065031D01*
X137945922Y-107131191D01*
X137951000Y-107182756D01*
X137951000Y-108217244D01*
X137945922Y-108268809D01*
X137925851Y-108334969D01*
X137925850Y-108334972D01*
X137893258Y-108395949D01*
X137877707Y-108414897D01*
X137849396Y-108449396D01*
X137814897Y-108477707D01*
X137795949Y-108493258D01*
X137734972Y-108525850D01*
X137734969Y-108525851D01*
X137668808Y-108545922D01*
X137600001Y-108552698D01*
X137600000Y-108552698D01*
X137594339Y-108552140D01*
X137531192Y-108545922D01*
X137465032Y-108525851D01*
X137465029Y-108525850D01*
X137404052Y-108493258D01*
X137385104Y-108477707D01*
X137350605Y-108449396D01*
X137322294Y-108414897D01*
X137306743Y-108395949D01*
X137274151Y-108334972D01*
X137274150Y-108334969D01*
X137254079Y-108268809D01*
X137249001Y-108217244D01*
X137249000Y-107182756D01*
X137254078Y-107131192D01*
X137274149Y-107065031D01*
X137306743Y-107004051D01*
X137350604Y-106950604D01*
X137390062Y-106918223D01*
X137404051Y-106906742D01*
X137465028Y-106874150D01*
X137465031Y-106874149D01*
X137531192Y-106854078D01*
X137599999Y-106847302D01*
X137600000Y-106847302D01*
X137605661Y-106847860D01*
G37*
G36*
X136505661Y-106847860D02*
G01*
X136568808Y-106854078D01*
X136634969Y-106874149D01*
X136634971Y-106874150D01*
X136695948Y-106906742D01*
X136695950Y-106906743D01*
X136695949Y-106906743D01*
X136749396Y-106950604D01*
X136781777Y-106990062D01*
X136793258Y-107004051D01*
X136825850Y-107065028D01*
X136825850Y-107065029D01*
X136825851Y-107065031D01*
X136845922Y-107131191D01*
X136851000Y-107182756D01*
X136851000Y-108217244D01*
X136845922Y-108268809D01*
X136825851Y-108334969D01*
X136825850Y-108334972D01*
X136793258Y-108395949D01*
X136777707Y-108414897D01*
X136749396Y-108449396D01*
X136714897Y-108477707D01*
X136695949Y-108493258D01*
X136634972Y-108525850D01*
X136634969Y-108525851D01*
X136568808Y-108545922D01*
X136500001Y-108552698D01*
X136500000Y-108552698D01*
X136494339Y-108552140D01*
X136431192Y-108545922D01*
X136365032Y-108525851D01*
X136365029Y-108525850D01*
X136304052Y-108493258D01*
X136285104Y-108477707D01*
X136250605Y-108449396D01*
X136222294Y-108414897D01*
X136206743Y-108395949D01*
X136174151Y-108334972D01*
X136174150Y-108334969D01*
X136154079Y-108268809D01*
X136149001Y-108217244D01*
X136149000Y-107182756D01*
X136154078Y-107131192D01*
X136174149Y-107065031D01*
X136206743Y-107004051D01*
X136250604Y-106950604D01*
X136290062Y-106918223D01*
X136304051Y-106906742D01*
X136365028Y-106874150D01*
X136365031Y-106874149D01*
X136431192Y-106854078D01*
X136499999Y-106847302D01*
X136500000Y-106847302D01*
X136505661Y-106847860D01*
G37*
G36*
X138705661Y-106847860D02*
G01*
X138768808Y-106854078D01*
X138834969Y-106874149D01*
X138834971Y-106874150D01*
X138895948Y-106906742D01*
X138895950Y-106906743D01*
X138895949Y-106906743D01*
X138949396Y-106950604D01*
X138981777Y-106990062D01*
X138993258Y-107004051D01*
X139025850Y-107065028D01*
X139025850Y-107065029D01*
X139025851Y-107065031D01*
X139045922Y-107131191D01*
X139051000Y-107182756D01*
X139051000Y-108217244D01*
X139045922Y-108268809D01*
X139025851Y-108334969D01*
X139025850Y-108334972D01*
X138993258Y-108395949D01*
X138977707Y-108414897D01*
X138949396Y-108449396D01*
X138914897Y-108477707D01*
X138895949Y-108493258D01*
X138834972Y-108525850D01*
X138834969Y-108525851D01*
X138768808Y-108545922D01*
X138700001Y-108552698D01*
X138700000Y-108552698D01*
X138694339Y-108552140D01*
X138631192Y-108545922D01*
X138565032Y-108525851D01*
X138565029Y-108525850D01*
X138504052Y-108493258D01*
X138485104Y-108477707D01*
X138450605Y-108449396D01*
X138422294Y-108414897D01*
X138406743Y-108395949D01*
X138374151Y-108334972D01*
X138374150Y-108334969D01*
X138354079Y-108268809D01*
X138349001Y-108217244D01*
X138349000Y-107182756D01*
X138354078Y-107131192D01*
X138374149Y-107065031D01*
X138406743Y-107004051D01*
X138450604Y-106950604D01*
X138490062Y-106918223D01*
X138504051Y-106906742D01*
X138565028Y-106874150D01*
X138565031Y-106874149D01*
X138631192Y-106854078D01*
X138699999Y-106847302D01*
X138700000Y-106847302D01*
X138705661Y-106847860D01*
G37*
G36*
X139805661Y-106847860D02*
G01*
X139868808Y-106854078D01*
X139934969Y-106874149D01*
X139934971Y-106874150D01*
X139995948Y-106906742D01*
X139995950Y-106906743D01*
X139995949Y-106906743D01*
X140049396Y-106950604D01*
X140081777Y-106990062D01*
X140093258Y-107004051D01*
X140125850Y-107065028D01*
X140125850Y-107065029D01*
X140125851Y-107065031D01*
X140145922Y-107131191D01*
X140151000Y-107182756D01*
X140151000Y-108217244D01*
X140145922Y-108268809D01*
X140125851Y-108334969D01*
X140125850Y-108334972D01*
X140093258Y-108395949D01*
X140077707Y-108414897D01*
X140049396Y-108449396D01*
X140014897Y-108477707D01*
X139995949Y-108493258D01*
X139934972Y-108525850D01*
X139934969Y-108525851D01*
X139868808Y-108545922D01*
X139800001Y-108552698D01*
X139800000Y-108552698D01*
X139794339Y-108552140D01*
X139731192Y-108545922D01*
X139665032Y-108525851D01*
X139665029Y-108525850D01*
X139604052Y-108493258D01*
X139585104Y-108477707D01*
X139550605Y-108449396D01*
X139522294Y-108414897D01*
X139506743Y-108395949D01*
X139474151Y-108334972D01*
X139474150Y-108334969D01*
X139454079Y-108268809D01*
X139449001Y-108217244D01*
X139449000Y-107182756D01*
X139454078Y-107131192D01*
X139474149Y-107065031D01*
X139506743Y-107004051D01*
X139550604Y-106950604D01*
X139590062Y-106918223D01*
X139604051Y-106906742D01*
X139665028Y-106874150D01*
X139665031Y-106874149D01*
X139731192Y-106854078D01*
X139799999Y-106847302D01*
X139800000Y-106847302D01*
X139805661Y-106847860D01*
G37*
G36*
X140905661Y-106847860D02*
G01*
X140968808Y-106854078D01*
X141034969Y-106874149D01*
X141034971Y-106874150D01*
X141095948Y-106906742D01*
X141095950Y-106906743D01*
X141095949Y-106906743D01*
X141149396Y-106950604D01*
X141181777Y-106990062D01*
X141193258Y-107004051D01*
X141225850Y-107065028D01*
X141225850Y-107065029D01*
X141225851Y-107065031D01*
X141245922Y-107131191D01*
X141251000Y-107182756D01*
X141251000Y-108217244D01*
X141245922Y-108268809D01*
X141225851Y-108334969D01*
X141225850Y-108334972D01*
X141193258Y-108395949D01*
X141177707Y-108414897D01*
X141149396Y-108449396D01*
X141114897Y-108477707D01*
X141095949Y-108493258D01*
X141034972Y-108525850D01*
X141034969Y-108525851D01*
X140968808Y-108545922D01*
X140900001Y-108552698D01*
X140900000Y-108552698D01*
X140894339Y-108552140D01*
X140831192Y-108545922D01*
X140765032Y-108525851D01*
X140765029Y-108525850D01*
X140704052Y-108493258D01*
X140685104Y-108477707D01*
X140650605Y-108449396D01*
X140622294Y-108414897D01*
X140606743Y-108395949D01*
X140574151Y-108334972D01*
X140574150Y-108334969D01*
X140554079Y-108268809D01*
X140549001Y-108217244D01*
X140549000Y-107182756D01*
X140554078Y-107131192D01*
X140574149Y-107065031D01*
X140606743Y-107004051D01*
X140650604Y-106950604D01*
X140690062Y-106918223D01*
X140704051Y-106906742D01*
X140765028Y-106874150D01*
X140765031Y-106874149D01*
X140831192Y-106854078D01*
X140899999Y-106847302D01*
X140900000Y-106847302D01*
X140905661Y-106847860D01*
G37*
G36*
X142005661Y-106847860D02*
G01*
X142068808Y-106854078D01*
X142134969Y-106874149D01*
X142134971Y-106874150D01*
X142195948Y-106906742D01*
X142195950Y-106906743D01*
X142195949Y-106906743D01*
X142249396Y-106950604D01*
X142281777Y-106990062D01*
X142293258Y-107004051D01*
X142325850Y-107065028D01*
X142325850Y-107065029D01*
X142325851Y-107065031D01*
X142345922Y-107131191D01*
X142351000Y-107182756D01*
X142351000Y-108217244D01*
X142345922Y-108268809D01*
X142325851Y-108334969D01*
X142325850Y-108334972D01*
X142293258Y-108395949D01*
X142277707Y-108414897D01*
X142249396Y-108449396D01*
X142214897Y-108477707D01*
X142195949Y-108493258D01*
X142134972Y-108525850D01*
X142134969Y-108525851D01*
X142068808Y-108545922D01*
X142000001Y-108552698D01*
X142000000Y-108552698D01*
X141994339Y-108552140D01*
X141931192Y-108545922D01*
X141865032Y-108525851D01*
X141865029Y-108525850D01*
X141804052Y-108493258D01*
X141785104Y-108477707D01*
X141750605Y-108449396D01*
X141722294Y-108414897D01*
X141706743Y-108395949D01*
X141674151Y-108334972D01*
X141674150Y-108334969D01*
X141654079Y-108268809D01*
X141649001Y-108217244D01*
X141649000Y-107182756D01*
X141654078Y-107131192D01*
X141674149Y-107065031D01*
X141706743Y-107004051D01*
X141750604Y-106950604D01*
X141790062Y-106918223D01*
X141804051Y-106906742D01*
X141865028Y-106874150D01*
X141865031Y-106874149D01*
X141931192Y-106854078D01*
X141999999Y-106847302D01*
X142000000Y-106847302D01*
X142005661Y-106847860D01*
G37*
G36*
X148605661Y-106847860D02*
G01*
X148668808Y-106854078D01*
X148734969Y-106874149D01*
X148734971Y-106874150D01*
X148795948Y-106906742D01*
X148795950Y-106906743D01*
X148795949Y-106906743D01*
X148849396Y-106950604D01*
X148881777Y-106990062D01*
X148893258Y-107004051D01*
X148925850Y-107065028D01*
X148925850Y-107065029D01*
X148925851Y-107065031D01*
X148945922Y-107131191D01*
X148951000Y-107182756D01*
X148951000Y-108217244D01*
X148945922Y-108268809D01*
X148925851Y-108334969D01*
X148925850Y-108334972D01*
X148893258Y-108395949D01*
X148877707Y-108414897D01*
X148849396Y-108449396D01*
X148814897Y-108477707D01*
X148795949Y-108493258D01*
X148734972Y-108525850D01*
X148734969Y-108525851D01*
X148668808Y-108545922D01*
X148600001Y-108552698D01*
X148600000Y-108552698D01*
X148594339Y-108552140D01*
X148531192Y-108545922D01*
X148465032Y-108525851D01*
X148465029Y-108525850D01*
X148404052Y-108493258D01*
X148385104Y-108477707D01*
X148350605Y-108449396D01*
X148322294Y-108414897D01*
X148306743Y-108395949D01*
X148274151Y-108334972D01*
X148274150Y-108334969D01*
X148254079Y-108268809D01*
X148249001Y-108217244D01*
X148249000Y-107182756D01*
X148254078Y-107131192D01*
X148274149Y-107065031D01*
X148306743Y-107004051D01*
X148350604Y-106950604D01*
X148390062Y-106918223D01*
X148404051Y-106906742D01*
X148465028Y-106874150D01*
X148465031Y-106874149D01*
X148531192Y-106854078D01*
X148599999Y-106847302D01*
X148600000Y-106847302D01*
X148605661Y-106847860D01*
G37*
G36*
X147505661Y-106847860D02*
G01*
X147568808Y-106854078D01*
X147634969Y-106874149D01*
X147634971Y-106874150D01*
X147695948Y-106906742D01*
X147695950Y-106906743D01*
X147695949Y-106906743D01*
X147749396Y-106950604D01*
X147781777Y-106990062D01*
X147793258Y-107004051D01*
X147825850Y-107065028D01*
X147825850Y-107065029D01*
X147825851Y-107065031D01*
X147845922Y-107131191D01*
X147851000Y-107182756D01*
X147851000Y-108217244D01*
X147845922Y-108268809D01*
X147825851Y-108334969D01*
X147825850Y-108334972D01*
X147793258Y-108395949D01*
X147777707Y-108414897D01*
X147749396Y-108449396D01*
X147714897Y-108477707D01*
X147695949Y-108493258D01*
X147634972Y-108525850D01*
X147634969Y-108525851D01*
X147568808Y-108545922D01*
X147500001Y-108552698D01*
X147500000Y-108552698D01*
X147494339Y-108552140D01*
X147431192Y-108545922D01*
X147365032Y-108525851D01*
X147365029Y-108525850D01*
X147304052Y-108493258D01*
X147285104Y-108477707D01*
X147250605Y-108449396D01*
X147222294Y-108414897D01*
X147206743Y-108395949D01*
X147174151Y-108334972D01*
X147174150Y-108334969D01*
X147154079Y-108268809D01*
X147149001Y-108217244D01*
X147149000Y-107182756D01*
X147154078Y-107131192D01*
X147174149Y-107065031D01*
X147206743Y-107004051D01*
X147250604Y-106950604D01*
X147290062Y-106918223D01*
X147304051Y-106906742D01*
X147365028Y-106874150D01*
X147365031Y-106874149D01*
X147431192Y-106854078D01*
X147499999Y-106847302D01*
X147500000Y-106847302D01*
X147505661Y-106847860D01*
G37*
G36*
X146405661Y-106847860D02*
G01*
X146468808Y-106854078D01*
X146534969Y-106874149D01*
X146534971Y-106874150D01*
X146595948Y-106906742D01*
X146595950Y-106906743D01*
X146595949Y-106906743D01*
X146649396Y-106950604D01*
X146681777Y-106990062D01*
X146693258Y-107004051D01*
X146725850Y-107065028D01*
X146725850Y-107065029D01*
X146725851Y-107065031D01*
X146745922Y-107131191D01*
X146751000Y-107182756D01*
X146751000Y-108217244D01*
X146745922Y-108268809D01*
X146725851Y-108334969D01*
X146725850Y-108334972D01*
X146693258Y-108395949D01*
X146677707Y-108414897D01*
X146649396Y-108449396D01*
X146614897Y-108477707D01*
X146595949Y-108493258D01*
X146534972Y-108525850D01*
X146534969Y-108525851D01*
X146468808Y-108545922D01*
X146400001Y-108552698D01*
X146400000Y-108552698D01*
X146394339Y-108552140D01*
X146331192Y-108545922D01*
X146265032Y-108525851D01*
X146265029Y-108525850D01*
X146204052Y-108493258D01*
X146185104Y-108477707D01*
X146150605Y-108449396D01*
X146122294Y-108414897D01*
X146106743Y-108395949D01*
X146074151Y-108334972D01*
X146074150Y-108334969D01*
X146054079Y-108268809D01*
X146049001Y-108217244D01*
X146049000Y-107182756D01*
X146054078Y-107131192D01*
X146074149Y-107065031D01*
X146106743Y-107004051D01*
X146150604Y-106950604D01*
X146190062Y-106918223D01*
X146204051Y-106906742D01*
X146265028Y-106874150D01*
X146265031Y-106874149D01*
X146331192Y-106854078D01*
X146399999Y-106847302D01*
X146400000Y-106847302D01*
X146405661Y-106847860D01*
G37*
G36*
X145305661Y-106847860D02*
G01*
X145368808Y-106854078D01*
X145434969Y-106874149D01*
X145434971Y-106874150D01*
X145495948Y-106906742D01*
X145495950Y-106906743D01*
X145495949Y-106906743D01*
X145549396Y-106950604D01*
X145581777Y-106990062D01*
X145593258Y-107004051D01*
X145625850Y-107065028D01*
X145625850Y-107065029D01*
X145625851Y-107065031D01*
X145645922Y-107131191D01*
X145651000Y-107182756D01*
X145651000Y-108217244D01*
X145645922Y-108268809D01*
X145625851Y-108334969D01*
X145625850Y-108334972D01*
X145593258Y-108395949D01*
X145577707Y-108414897D01*
X145549396Y-108449396D01*
X145514897Y-108477707D01*
X145495949Y-108493258D01*
X145434972Y-108525850D01*
X145434969Y-108525851D01*
X145368808Y-108545922D01*
X145300001Y-108552698D01*
X145300000Y-108552698D01*
X145294339Y-108552140D01*
X145231192Y-108545922D01*
X145165032Y-108525851D01*
X145165029Y-108525850D01*
X145104052Y-108493258D01*
X145085104Y-108477707D01*
X145050605Y-108449396D01*
X145022294Y-108414897D01*
X145006743Y-108395949D01*
X144974151Y-108334972D01*
X144974150Y-108334969D01*
X144954079Y-108268809D01*
X144949001Y-108217244D01*
X144949000Y-107182756D01*
X144954078Y-107131192D01*
X144974149Y-107065031D01*
X145006743Y-107004051D01*
X145050604Y-106950604D01*
X145090062Y-106918223D01*
X145104051Y-106906742D01*
X145165028Y-106874150D01*
X145165031Y-106874149D01*
X145231192Y-106854078D01*
X145299999Y-106847302D01*
X145300000Y-106847302D01*
X145305661Y-106847860D01*
G37*
G36*
X144205661Y-106847860D02*
G01*
X144268808Y-106854078D01*
X144334969Y-106874149D01*
X144334971Y-106874150D01*
X144395948Y-106906742D01*
X144395950Y-106906743D01*
X144395949Y-106906743D01*
X144449396Y-106950604D01*
X144481777Y-106990062D01*
X144493258Y-107004051D01*
X144525850Y-107065028D01*
X144525850Y-107065029D01*
X144525851Y-107065031D01*
X144545922Y-107131191D01*
X144551000Y-107182756D01*
X144551000Y-108217244D01*
X144545922Y-108268809D01*
X144525851Y-108334969D01*
X144525850Y-108334972D01*
X144493258Y-108395949D01*
X144477707Y-108414897D01*
X144449396Y-108449396D01*
X144414897Y-108477707D01*
X144395949Y-108493258D01*
X144334972Y-108525850D01*
X144334969Y-108525851D01*
X144268808Y-108545922D01*
X144200001Y-108552698D01*
X144200000Y-108552698D01*
X144194339Y-108552140D01*
X144131192Y-108545922D01*
X144065032Y-108525851D01*
X144065029Y-108525850D01*
X144004052Y-108493258D01*
X143985104Y-108477707D01*
X143950605Y-108449396D01*
X143922294Y-108414897D01*
X143906743Y-108395949D01*
X143874151Y-108334972D01*
X143874150Y-108334969D01*
X143854079Y-108268809D01*
X143849001Y-108217244D01*
X143849000Y-107182756D01*
X143854078Y-107131192D01*
X143874149Y-107065031D01*
X143906743Y-107004051D01*
X143950604Y-106950604D01*
X143990062Y-106918223D01*
X144004051Y-106906742D01*
X144065028Y-106874150D01*
X144065031Y-106874149D01*
X144131192Y-106854078D01*
X144199999Y-106847302D01*
X144200000Y-106847302D01*
X144205661Y-106847860D01*
G37*
G36*
X143105661Y-106847860D02*
G01*
X143168808Y-106854078D01*
X143234969Y-106874149D01*
X143234971Y-106874150D01*
X143295948Y-106906742D01*
X143295950Y-106906743D01*
X143295949Y-106906743D01*
X143349396Y-106950604D01*
X143381777Y-106990062D01*
X143393258Y-107004051D01*
X143425850Y-107065028D01*
X143425850Y-107065029D01*
X143425851Y-107065031D01*
X143445922Y-107131191D01*
X143451000Y-107182756D01*
X143451000Y-108217244D01*
X143445922Y-108268809D01*
X143425851Y-108334969D01*
X143425850Y-108334972D01*
X143393258Y-108395949D01*
X143377707Y-108414897D01*
X143349396Y-108449396D01*
X143314897Y-108477707D01*
X143295949Y-108493258D01*
X143234972Y-108525850D01*
X143234969Y-108525851D01*
X143168808Y-108545922D01*
X143100001Y-108552698D01*
X143100000Y-108552698D01*
X143094339Y-108552140D01*
X143031192Y-108545922D01*
X142965032Y-108525851D01*
X142965029Y-108525850D01*
X142904052Y-108493258D01*
X142885104Y-108477707D01*
X142850605Y-108449396D01*
X142822294Y-108414897D01*
X142806743Y-108395949D01*
X142774151Y-108334972D01*
X142774150Y-108334969D01*
X142754079Y-108268809D01*
X142749001Y-108217244D01*
X142749000Y-107182756D01*
X142754078Y-107131192D01*
X142774149Y-107065031D01*
X142806743Y-107004051D01*
X142850604Y-106950604D01*
X142890062Y-106918223D01*
X142904051Y-106906742D01*
X142965028Y-106874150D01*
X142965031Y-106874149D01*
X143031192Y-106854078D01*
X143099999Y-106847302D01*
X143100000Y-106847302D01*
X143105661Y-106847860D01*
G37*
G36*
X128476000Y-108401000D02*
G01*
X126174000Y-108401000D01*
X126174000Y-107249000D01*
X128476000Y-107249000D01*
X128476000Y-108401000D01*
G37*
G36*
X163518604Y-106328347D02*
G01*
X163555144Y-106339432D01*
X163588821Y-106357433D01*
X163618341Y-106381659D01*
X163642567Y-106411179D01*
X163660568Y-106444856D01*
X163671653Y-106481396D01*
X163676000Y-106525538D01*
X163676000Y-107474462D01*
X163671653Y-107518604D01*
X163660568Y-107555144D01*
X163642567Y-107588821D01*
X163618341Y-107618341D01*
X163588821Y-107642567D01*
X163555144Y-107660568D01*
X163518604Y-107671653D01*
X163474462Y-107676000D01*
X162025538Y-107676000D01*
X161981396Y-107671653D01*
X161944856Y-107660568D01*
X161911179Y-107642567D01*
X161881659Y-107618341D01*
X161857433Y-107588821D01*
X161839432Y-107555144D01*
X161828347Y-107518604D01*
X161824000Y-107474462D01*
X161824000Y-106525538D01*
X161828347Y-106481396D01*
X161839432Y-106444856D01*
X161857433Y-106411179D01*
X161881659Y-106381659D01*
X161911179Y-106357433D01*
X161944856Y-106339432D01*
X161981396Y-106328347D01*
X162025538Y-106324000D01*
X163474462Y-106324000D01*
X163518604Y-106328347D01*
G37*
G36*
X131726000Y-106734001D02*
G01*
X131728402Y-106758387D01*
X131735515Y-106781836D01*
X131747066Y-106803447D01*
X131762611Y-106822389D01*
X131781553Y-106837934D01*
X131803164Y-106849485D01*
X131826613Y-106856598D01*
X131850999Y-106859000D01*
X131976000Y-106859000D01*
X131976000Y-107526000D01*
X131124000Y-107526000D01*
X131124000Y-106859000D01*
X131249001Y-106859000D01*
X131273387Y-106856598D01*
X131296836Y-106849485D01*
X131318447Y-106837934D01*
X131337389Y-106822389D01*
X131352934Y-106803447D01*
X131364485Y-106781836D01*
X131371598Y-106758387D01*
X131374000Y-106734001D01*
X131374000Y-106474000D01*
X131726000Y-106474000D01*
X131726000Y-106734001D01*
G37*
G36*
X129426000Y-106901000D02*
G01*
X128274000Y-106901000D01*
X128274000Y-105799000D01*
X129426000Y-105799000D01*
X129426000Y-106901000D01*
G37*
G36*
X131791938Y-105231716D02*
G01*
X131812557Y-105237971D01*
X131831553Y-105248124D01*
X131848208Y-105261792D01*
X131861876Y-105278447D01*
X131872029Y-105297443D01*
X131878284Y-105318062D01*
X131881000Y-105345640D01*
X131881000Y-105854360D01*
X131878284Y-105881938D01*
X131872029Y-105902557D01*
X131861876Y-105921553D01*
X131848208Y-105938208D01*
X131831553Y-105951876D01*
X131812557Y-105962029D01*
X131791938Y-105968284D01*
X131764360Y-105971000D01*
X131305640Y-105971000D01*
X131278062Y-105968284D01*
X131257443Y-105962029D01*
X131238447Y-105951876D01*
X131221792Y-105938208D01*
X131208124Y-105921553D01*
X131197971Y-105902557D01*
X131191716Y-105881938D01*
X131189000Y-105854360D01*
X131189000Y-105345640D01*
X131191716Y-105318062D01*
X131197971Y-105297443D01*
X131208124Y-105278447D01*
X131221792Y-105261792D01*
X131238447Y-105248124D01*
X131257443Y-105237971D01*
X131278062Y-105231716D01*
X131305640Y-105229000D01*
X131764360Y-105229000D01*
X131791938Y-105231716D01*
G37*
G36*
X130821938Y-105231716D02*
G01*
X130842557Y-105237971D01*
X130861553Y-105248124D01*
X130878208Y-105261792D01*
X130891876Y-105278447D01*
X130902029Y-105297443D01*
X130908284Y-105318062D01*
X130911000Y-105345640D01*
X130911000Y-105854360D01*
X130908284Y-105881938D01*
X130902029Y-105902557D01*
X130891876Y-105921553D01*
X130878208Y-105938208D01*
X130861553Y-105951876D01*
X130842557Y-105962029D01*
X130821938Y-105968284D01*
X130794360Y-105971000D01*
X130335640Y-105971000D01*
X130308062Y-105968284D01*
X130287443Y-105962029D01*
X130268447Y-105951876D01*
X130251792Y-105938208D01*
X130238124Y-105921553D01*
X130227971Y-105902557D01*
X130221716Y-105881938D01*
X130219000Y-105854360D01*
X130219000Y-105345640D01*
X130221716Y-105318062D01*
X130227971Y-105297443D01*
X130238124Y-105278447D01*
X130251792Y-105261792D01*
X130268447Y-105248124D01*
X130287443Y-105237971D01*
X130308062Y-105231716D01*
X130335640Y-105229000D01*
X130794360Y-105229000D01*
X130821938Y-105231716D01*
G37*
G36*
X149201000Y-104551000D02*
G01*
X148075999Y-104551000D01*
X148051613Y-104553402D01*
X148028164Y-104560515D01*
X148006553Y-104572066D01*
X147987611Y-104587611D01*
X147972066Y-104606553D01*
X147960515Y-104628164D01*
X147953402Y-104651613D01*
X147951000Y-104675999D01*
X147951000Y-105801000D01*
X146949000Y-105801000D01*
X146949000Y-104599000D01*
X147874001Y-104599000D01*
X147898387Y-104596598D01*
X147921836Y-104589485D01*
X147943447Y-104577934D01*
X147962389Y-104562389D01*
X147977934Y-104543447D01*
X147989485Y-104521836D01*
X147996598Y-104498387D01*
X147999000Y-104474001D01*
X147999000Y-103549000D01*
X149201000Y-103549000D01*
X149201000Y-104551000D01*
G37*
G36*
X146551000Y-105801000D02*
G01*
X145549000Y-105801000D01*
X145549000Y-104599000D01*
X146551000Y-104599000D01*
X146551000Y-105801000D01*
G37*
G36*
X145151000Y-105801000D02*
G01*
X144149000Y-105801000D01*
X144149000Y-104599000D01*
X145151000Y-104599000D01*
X145151000Y-105801000D01*
G37*
G36*
X143751000Y-105801000D02*
G01*
X142749000Y-105801000D01*
X142749000Y-104599000D01*
X143751000Y-104599000D01*
X143751000Y-105801000D01*
G37*
G36*
X142351000Y-105801000D02*
G01*
X141349000Y-105801000D01*
X141349000Y-104599000D01*
X142351000Y-104599000D01*
X142351000Y-105801000D01*
G37*
G36*
X140951000Y-105801000D02*
G01*
X139949000Y-105801000D01*
X139949000Y-104599000D01*
X140951000Y-104599000D01*
X140951000Y-105801000D01*
G37*
G36*
X139551000Y-105801000D02*
G01*
X138549000Y-105801000D01*
X138549000Y-104599000D01*
X139551000Y-104599000D01*
X139551000Y-105801000D01*
G37*
G36*
X137101000Y-104474001D02*
G01*
X137103402Y-104498387D01*
X137110515Y-104521836D01*
X137122066Y-104543447D01*
X137137611Y-104562389D01*
X137156553Y-104577934D01*
X137178164Y-104589485D01*
X137201613Y-104596598D01*
X137225999Y-104599000D01*
X138151000Y-104599000D01*
X138151000Y-105801000D01*
X137149000Y-105801000D01*
X137149000Y-104675999D01*
X137146598Y-104651613D01*
X137139485Y-104628164D01*
X137127934Y-104606553D01*
X137112389Y-104587611D01*
X137093447Y-104572066D01*
X137071836Y-104560515D01*
X137048387Y-104553402D01*
X137024001Y-104551000D01*
X135899000Y-104551000D01*
X135899000Y-103549000D01*
X137101000Y-103549000D01*
X137101000Y-104474001D01*
G37*
G36*
X128476000Y-105451000D02*
G01*
X126174000Y-105451000D01*
X126174000Y-104299000D01*
X128476000Y-104299000D01*
X128476000Y-105451000D01*
G37*
G36*
X153471938Y-104031716D02*
G01*
X153492557Y-104037971D01*
X153511553Y-104048124D01*
X153528208Y-104061792D01*
X153541876Y-104078447D01*
X153552029Y-104097443D01*
X153558284Y-104118062D01*
X153561000Y-104145640D01*
X153561000Y-104654360D01*
X153558284Y-104681938D01*
X153552029Y-104702557D01*
X153541876Y-104721553D01*
X153528208Y-104738208D01*
X153511553Y-104751876D01*
X153492557Y-104762029D01*
X153471938Y-104768284D01*
X153444360Y-104771000D01*
X152985640Y-104771000D01*
X152958062Y-104768284D01*
X152937443Y-104762029D01*
X152918447Y-104751876D01*
X152901792Y-104738208D01*
X152888124Y-104721553D01*
X152877971Y-104702557D01*
X152871716Y-104681938D01*
X152869000Y-104654360D01*
X152869000Y-104145640D01*
X152871716Y-104118062D01*
X152877971Y-104097443D01*
X152888124Y-104078447D01*
X152901792Y-104061792D01*
X152918447Y-104048124D01*
X152937443Y-104037971D01*
X152958062Y-104031716D01*
X152985640Y-104029000D01*
X153444360Y-104029000D01*
X153471938Y-104031716D01*
G37*
G36*
X154441938Y-104031716D02*
G01*
X154462557Y-104037971D01*
X154481553Y-104048124D01*
X154498208Y-104061792D01*
X154511876Y-104078447D01*
X154522029Y-104097443D01*
X154528284Y-104118062D01*
X154531000Y-104145640D01*
X154531000Y-104654360D01*
X154528284Y-104681938D01*
X154522029Y-104702557D01*
X154511876Y-104721553D01*
X154498208Y-104738208D01*
X154481553Y-104751876D01*
X154462557Y-104762029D01*
X154441938Y-104768284D01*
X154414360Y-104771000D01*
X153955640Y-104771000D01*
X153928062Y-104768284D01*
X153907443Y-104762029D01*
X153888447Y-104751876D01*
X153871792Y-104738208D01*
X153858124Y-104721553D01*
X153847971Y-104702557D01*
X153841716Y-104681938D01*
X153839000Y-104654360D01*
X153839000Y-104145640D01*
X153841716Y-104118062D01*
X153847971Y-104097443D01*
X153858124Y-104078447D01*
X153871792Y-104061792D01*
X153888447Y-104048124D01*
X153907443Y-104037971D01*
X153928062Y-104031716D01*
X153955640Y-104029000D01*
X154414360Y-104029000D01*
X154441938Y-104031716D01*
G37*
G36*
X134318809Y-103904078D02*
G01*
X134384969Y-103924149D01*
X134384972Y-103924150D01*
X134445949Y-103956742D01*
X134464897Y-103972293D01*
X134499396Y-104000604D01*
X134522699Y-104029000D01*
X134543258Y-104054051D01*
X134575850Y-104115028D01*
X134575851Y-104115031D01*
X134595922Y-104181192D01*
X134602698Y-104250000D01*
X134595922Y-104318808D01*
X134575851Y-104384969D01*
X134575850Y-104384972D01*
X134543258Y-104445949D01*
X134527707Y-104464897D01*
X134499396Y-104499396D01*
X134464897Y-104527707D01*
X134445949Y-104543258D01*
X134384972Y-104575850D01*
X134384969Y-104575851D01*
X134318809Y-104595922D01*
X134267244Y-104601000D01*
X133232756Y-104601000D01*
X133181191Y-104595922D01*
X133115031Y-104575851D01*
X133115028Y-104575850D01*
X133054051Y-104543258D01*
X133035103Y-104527707D01*
X133000604Y-104499396D01*
X132972293Y-104464897D01*
X132956742Y-104445949D01*
X132924150Y-104384972D01*
X132924149Y-104384969D01*
X132904078Y-104318808D01*
X132897302Y-104250000D01*
X132904078Y-104181192D01*
X132924149Y-104115031D01*
X132924150Y-104115028D01*
X132956742Y-104054051D01*
X132977301Y-104029000D01*
X133000604Y-104000604D01*
X133035103Y-103972293D01*
X133054051Y-103956742D01*
X133115028Y-103924150D01*
X133115031Y-103924149D01*
X133181191Y-103904078D01*
X133232756Y-103899000D01*
X134267244Y-103899000D01*
X134318809Y-103904078D01*
G37*
G36*
X151918809Y-103904078D02*
G01*
X151984969Y-103924149D01*
X151984972Y-103924150D01*
X152045949Y-103956742D01*
X152064897Y-103972293D01*
X152099396Y-104000604D01*
X152122699Y-104029000D01*
X152143258Y-104054051D01*
X152175850Y-104115028D01*
X152175851Y-104115031D01*
X152195922Y-104181192D01*
X152202698Y-104250000D01*
X152195922Y-104318808D01*
X152175851Y-104384969D01*
X152175850Y-104384972D01*
X152143258Y-104445949D01*
X152127707Y-104464897D01*
X152099396Y-104499396D01*
X152064897Y-104527707D01*
X152045949Y-104543258D01*
X151984972Y-104575850D01*
X151984969Y-104575851D01*
X151918809Y-104595922D01*
X151867244Y-104601000D01*
X150832756Y-104601000D01*
X150781191Y-104595922D01*
X150715031Y-104575851D01*
X150715028Y-104575850D01*
X150654051Y-104543258D01*
X150635103Y-104527707D01*
X150600604Y-104499396D01*
X150572293Y-104464897D01*
X150556742Y-104445949D01*
X150524150Y-104384972D01*
X150524149Y-104384969D01*
X150504078Y-104318808D01*
X150497302Y-104250000D01*
X150504078Y-104181192D01*
X150524149Y-104115031D01*
X150524150Y-104115028D01*
X150556742Y-104054051D01*
X150577301Y-104029000D01*
X150600604Y-104000604D01*
X150635103Y-103972293D01*
X150654051Y-103956742D01*
X150715028Y-103924150D01*
X150715031Y-103924149D01*
X150781191Y-103904078D01*
X150832756Y-103899000D01*
X151867244Y-103899000D01*
X151918809Y-103904078D01*
G37*
G36*
X147551000Y-104101000D02*
G01*
X140923445Y-104101000D01*
X140912389Y-104087528D01*
X140893447Y-104071983D01*
X140871836Y-104060432D01*
X140848387Y-104053319D01*
X140824001Y-104050917D01*
X140799615Y-104053319D01*
X140776166Y-104060432D01*
X140744704Y-104079289D01*
X140728472Y-104092610D01*
X140719608Y-104097348D01*
X140709999Y-104100263D01*
X140693860Y-104101852D01*
X138636140Y-104101852D01*
X138620001Y-104100263D01*
X138610392Y-104097348D01*
X138601528Y-104092610D01*
X138588993Y-104082323D01*
X137567677Y-103061007D01*
X137557390Y-103048472D01*
X137552652Y-103039608D01*
X137549737Y-103029999D01*
X137548148Y-103013860D01*
X137548148Y-101456140D01*
X137549737Y-101440001D01*
X137552652Y-101430392D01*
X137557390Y-101421528D01*
X137570711Y-101405296D01*
X137584324Y-101384921D01*
X137593701Y-101362282D01*
X137598481Y-101338249D01*
X137598481Y-101313745D01*
X137593700Y-101289711D01*
X137584322Y-101267073D01*
X137570708Y-101246699D01*
X137553381Y-101229372D01*
X137549000Y-101226445D01*
X137549000Y-95599000D01*
X147551000Y-95599000D01*
X147551000Y-104101000D01*
G37*
G36*
X154441938Y-103031716D02*
G01*
X154462557Y-103037971D01*
X154481553Y-103048124D01*
X154498208Y-103061792D01*
X154511876Y-103078447D01*
X154522029Y-103097443D01*
X154528284Y-103118062D01*
X154531000Y-103145640D01*
X154531000Y-103654360D01*
X154528284Y-103681938D01*
X154522029Y-103702557D01*
X154511876Y-103721553D01*
X154498208Y-103738208D01*
X154481553Y-103751876D01*
X154462557Y-103762029D01*
X154441938Y-103768284D01*
X154414360Y-103771000D01*
X153955640Y-103771000D01*
X153928062Y-103768284D01*
X153907443Y-103762029D01*
X153888447Y-103751876D01*
X153871792Y-103738208D01*
X153858124Y-103721553D01*
X153847971Y-103702557D01*
X153841716Y-103681938D01*
X153839000Y-103654360D01*
X153839000Y-103145640D01*
X153841716Y-103118062D01*
X153847971Y-103097443D01*
X153858124Y-103078447D01*
X153871792Y-103061792D01*
X153888447Y-103048124D01*
X153907443Y-103037971D01*
X153928062Y-103031716D01*
X153955640Y-103029000D01*
X154414360Y-103029000D01*
X154441938Y-103031716D01*
G37*
G36*
X153471938Y-103031716D02*
G01*
X153492557Y-103037971D01*
X153511553Y-103048124D01*
X153528208Y-103061792D01*
X153541876Y-103078447D01*
X153552029Y-103097443D01*
X153558284Y-103118062D01*
X153561000Y-103145640D01*
X153561000Y-103654360D01*
X153558284Y-103681938D01*
X153552029Y-103702557D01*
X153541876Y-103721553D01*
X153528208Y-103738208D01*
X153511553Y-103751876D01*
X153492557Y-103762029D01*
X153471938Y-103768284D01*
X153444360Y-103771000D01*
X152985640Y-103771000D01*
X152958062Y-103768284D01*
X152937443Y-103762029D01*
X152918447Y-103751876D01*
X152901792Y-103738208D01*
X152888124Y-103721553D01*
X152877971Y-103702557D01*
X152871716Y-103681938D01*
X152869000Y-103654360D01*
X152869000Y-103145640D01*
X152871716Y-103118062D01*
X152877971Y-103097443D01*
X152888124Y-103078447D01*
X152901792Y-103061792D01*
X152918447Y-103048124D01*
X152937443Y-103037971D01*
X152958062Y-103031716D01*
X152985640Y-103029000D01*
X153444360Y-103029000D01*
X153471938Y-103031716D01*
G37*
G36*
X151918809Y-102804078D02*
G01*
X151984969Y-102824149D01*
X151984972Y-102824150D01*
X152045949Y-102856742D01*
X152064897Y-102872293D01*
X152099396Y-102900604D01*
X152127707Y-102935103D01*
X152143258Y-102954051D01*
X152175850Y-103015028D01*
X152175851Y-103015031D01*
X152195922Y-103081192D01*
X152202698Y-103150000D01*
X152195922Y-103218808D01*
X152175851Y-103284969D01*
X152175850Y-103284972D01*
X152143258Y-103345949D01*
X152127707Y-103364897D01*
X152099396Y-103399396D01*
X152064897Y-103427707D01*
X152045949Y-103443258D01*
X151984972Y-103475850D01*
X151984969Y-103475851D01*
X151918809Y-103495922D01*
X151867244Y-103501000D01*
X150832756Y-103501000D01*
X150781191Y-103495922D01*
X150715031Y-103475851D01*
X150715028Y-103475850D01*
X150654051Y-103443258D01*
X150635103Y-103427707D01*
X150600604Y-103399396D01*
X150572293Y-103364897D01*
X150556742Y-103345949D01*
X150524150Y-103284972D01*
X150524149Y-103284969D01*
X150504078Y-103218808D01*
X150497302Y-103150000D01*
X150504078Y-103081192D01*
X150524149Y-103015031D01*
X150524150Y-103015028D01*
X150556742Y-102954051D01*
X150572293Y-102935103D01*
X150600604Y-102900604D01*
X150635103Y-102872293D01*
X150654051Y-102856742D01*
X150715028Y-102824150D01*
X150715031Y-102824149D01*
X150781191Y-102804078D01*
X150832756Y-102799000D01*
X151867244Y-102799000D01*
X151918809Y-102804078D01*
G37*
G36*
X134318809Y-102804078D02*
G01*
X134384969Y-102824149D01*
X134384972Y-102824150D01*
X134445949Y-102856742D01*
X134464897Y-102872293D01*
X134499396Y-102900604D01*
X134527707Y-102935103D01*
X134543258Y-102954051D01*
X134575850Y-103015028D01*
X134575851Y-103015031D01*
X134595922Y-103081192D01*
X134602698Y-103150000D01*
X134595922Y-103218808D01*
X134575851Y-103284969D01*
X134575850Y-103284972D01*
X134543258Y-103345949D01*
X134527707Y-103364897D01*
X134499396Y-103399396D01*
X134464897Y-103427707D01*
X134445949Y-103443258D01*
X134384972Y-103475850D01*
X134384969Y-103475851D01*
X134318809Y-103495922D01*
X134267244Y-103501000D01*
X133232756Y-103501000D01*
X133181191Y-103495922D01*
X133115031Y-103475851D01*
X133115028Y-103475850D01*
X133054051Y-103443258D01*
X133035103Y-103427707D01*
X133000604Y-103399396D01*
X132972293Y-103364897D01*
X132956742Y-103345949D01*
X132924150Y-103284972D01*
X132924149Y-103284969D01*
X132904078Y-103218808D01*
X132897302Y-103150000D01*
X132904078Y-103081192D01*
X132924149Y-103015031D01*
X132924150Y-103015028D01*
X132956742Y-102954051D01*
X132972293Y-102935103D01*
X133000604Y-102900604D01*
X133035103Y-102872293D01*
X133054051Y-102856742D01*
X133115028Y-102824150D01*
X133115031Y-102824149D01*
X133181191Y-102804078D01*
X133232756Y-102799000D01*
X134267244Y-102799000D01*
X134318809Y-102804078D01*
G37*
G36*
X156201000Y-103226000D02*
G01*
X155699000Y-103226000D01*
X155699000Y-102474000D01*
X156201000Y-102474000D01*
X156201000Y-103226000D01*
G37*
G36*
X157501000Y-103226000D02*
G01*
X156999000Y-103226000D01*
X156999000Y-102474000D01*
X157501000Y-102474000D01*
X157501000Y-103226000D01*
G37*
G36*
X137101000Y-103151000D02*
G01*
X135899000Y-103151000D01*
X135899000Y-102149000D01*
X137101000Y-102149000D01*
X137101000Y-103151000D01*
G37*
G36*
X149201000Y-103151000D02*
G01*
X147999000Y-103151000D01*
X147999000Y-102149000D01*
X149201000Y-102149000D01*
X149201000Y-103151000D01*
G37*
G36*
X153471938Y-102031716D02*
G01*
X153492557Y-102037971D01*
X153511553Y-102048124D01*
X153528208Y-102061792D01*
X153541876Y-102078447D01*
X153552029Y-102097443D01*
X153558284Y-102118062D01*
X153561000Y-102145640D01*
X153561000Y-102654360D01*
X153558284Y-102681938D01*
X153552029Y-102702557D01*
X153541876Y-102721553D01*
X153528208Y-102738208D01*
X153511553Y-102751876D01*
X153492557Y-102762029D01*
X153471938Y-102768284D01*
X153444360Y-102771000D01*
X152985640Y-102771000D01*
X152958062Y-102768284D01*
X152937443Y-102762029D01*
X152918447Y-102751876D01*
X152901792Y-102738208D01*
X152888124Y-102721553D01*
X152877971Y-102702557D01*
X152871716Y-102681938D01*
X152869000Y-102654360D01*
X152869000Y-102145640D01*
X152871716Y-102118062D01*
X152877971Y-102097443D01*
X152888124Y-102078447D01*
X152901792Y-102061792D01*
X152918447Y-102048124D01*
X152937443Y-102037971D01*
X152958062Y-102031716D01*
X152985640Y-102029000D01*
X153444360Y-102029000D01*
X153471938Y-102031716D01*
G37*
G36*
X154441938Y-102031716D02*
G01*
X154462557Y-102037971D01*
X154481553Y-102048124D01*
X154498208Y-102061792D01*
X154511876Y-102078447D01*
X154522029Y-102097443D01*
X154528284Y-102118062D01*
X154531000Y-102145640D01*
X154531000Y-102654360D01*
X154528284Y-102681938D01*
X154522029Y-102702557D01*
X154511876Y-102721553D01*
X154498208Y-102738208D01*
X154481553Y-102751876D01*
X154462557Y-102762029D01*
X154441938Y-102768284D01*
X154414360Y-102771000D01*
X153955640Y-102771000D01*
X153928062Y-102768284D01*
X153907443Y-102762029D01*
X153888447Y-102751876D01*
X153871792Y-102738208D01*
X153858124Y-102721553D01*
X153847971Y-102702557D01*
X153841716Y-102681938D01*
X153839000Y-102654360D01*
X153839000Y-102145640D01*
X153841716Y-102118062D01*
X153847971Y-102097443D01*
X153858124Y-102078447D01*
X153871792Y-102061792D01*
X153888447Y-102048124D01*
X153907443Y-102037971D01*
X153928062Y-102031716D01*
X153955640Y-102029000D01*
X154414360Y-102029000D01*
X154441938Y-102031716D01*
G37*
G36*
X151918809Y-101704078D02*
G01*
X151984969Y-101724149D01*
X151984972Y-101724150D01*
X152045949Y-101756742D01*
X152063322Y-101771000D01*
X152099396Y-101800604D01*
X152127707Y-101835103D01*
X152143258Y-101854051D01*
X152175850Y-101915028D01*
X152175851Y-101915031D01*
X152195922Y-101981192D01*
X152202698Y-102050000D01*
X152195922Y-102118808D01*
X152180923Y-102168249D01*
X152175850Y-102184972D01*
X152143258Y-102245949D01*
X152127707Y-102264897D01*
X152099396Y-102299396D01*
X152064897Y-102327707D01*
X152045949Y-102343258D01*
X151984972Y-102375850D01*
X151984969Y-102375851D01*
X151918809Y-102395922D01*
X151867244Y-102401000D01*
X150832756Y-102401000D01*
X150781191Y-102395922D01*
X150715031Y-102375851D01*
X150715028Y-102375850D01*
X150654051Y-102343258D01*
X150635103Y-102327707D01*
X150600604Y-102299396D01*
X150572293Y-102264897D01*
X150556742Y-102245949D01*
X150524150Y-102184972D01*
X150519077Y-102168249D01*
X150504078Y-102118808D01*
X150497302Y-102050000D01*
X150504078Y-101981192D01*
X150524149Y-101915031D01*
X150524150Y-101915028D01*
X150556742Y-101854051D01*
X150572293Y-101835103D01*
X150600604Y-101800604D01*
X150636678Y-101771000D01*
X150654051Y-101756742D01*
X150715028Y-101724150D01*
X150715031Y-101724149D01*
X150781191Y-101704078D01*
X150832756Y-101699000D01*
X151867244Y-101699000D01*
X151918809Y-101704078D01*
G37*
G36*
X134318809Y-101704078D02*
G01*
X134384969Y-101724149D01*
X134384972Y-101724150D01*
X134445949Y-101756742D01*
X134463322Y-101771000D01*
X134499396Y-101800604D01*
X134527707Y-101835103D01*
X134543258Y-101854051D01*
X134575850Y-101915028D01*
X134575851Y-101915031D01*
X134595922Y-101981192D01*
X134602698Y-102050000D01*
X134595922Y-102118808D01*
X134580923Y-102168249D01*
X134575850Y-102184972D01*
X134543258Y-102245949D01*
X134527707Y-102264897D01*
X134499396Y-102299396D01*
X134464897Y-102327707D01*
X134445949Y-102343258D01*
X134384972Y-102375850D01*
X134384969Y-102375851D01*
X134318809Y-102395922D01*
X134267244Y-102401000D01*
X133232756Y-102401000D01*
X133181191Y-102395922D01*
X133115031Y-102375851D01*
X133115028Y-102375850D01*
X133054051Y-102343258D01*
X133035103Y-102327707D01*
X133000604Y-102299396D01*
X132972293Y-102264897D01*
X132956742Y-102245949D01*
X132924150Y-102184972D01*
X132919077Y-102168249D01*
X132904078Y-102118808D01*
X132897302Y-102050000D01*
X132904078Y-101981192D01*
X132924149Y-101915031D01*
X132924150Y-101915028D01*
X132956742Y-101854051D01*
X132972293Y-101835103D01*
X133000604Y-101800604D01*
X133036678Y-101771000D01*
X133054051Y-101756742D01*
X133115028Y-101724150D01*
X133115031Y-101724149D01*
X133181191Y-101704078D01*
X133232756Y-101699000D01*
X134267244Y-101699000D01*
X134318809Y-101704078D01*
G37*
G36*
X153471938Y-101031716D02*
G01*
X153492557Y-101037971D01*
X153511553Y-101048124D01*
X153528208Y-101061792D01*
X153541876Y-101078447D01*
X153552029Y-101097443D01*
X153558284Y-101118062D01*
X153561000Y-101145640D01*
X153561000Y-101654360D01*
X153558284Y-101681938D01*
X153552029Y-101702557D01*
X153541876Y-101721553D01*
X153528208Y-101738208D01*
X153511553Y-101751876D01*
X153492557Y-101762029D01*
X153471938Y-101768284D01*
X153444360Y-101771000D01*
X152985640Y-101771000D01*
X152958062Y-101768284D01*
X152937443Y-101762029D01*
X152918447Y-101751876D01*
X152901792Y-101738208D01*
X152888124Y-101721553D01*
X152877971Y-101702557D01*
X152871716Y-101681938D01*
X152869000Y-101654360D01*
X152869000Y-101145640D01*
X152871716Y-101118062D01*
X152877971Y-101097443D01*
X152888124Y-101078447D01*
X152901792Y-101061792D01*
X152918447Y-101048124D01*
X152937443Y-101037971D01*
X152958062Y-101031716D01*
X152985640Y-101029000D01*
X153444360Y-101029000D01*
X153471938Y-101031716D01*
G37*
G36*
X154441938Y-101031716D02*
G01*
X154462557Y-101037971D01*
X154481553Y-101048124D01*
X154498208Y-101061792D01*
X154511876Y-101078447D01*
X154522029Y-101097443D01*
X154528284Y-101118062D01*
X154531000Y-101145640D01*
X154531000Y-101654360D01*
X154528284Y-101681938D01*
X154522029Y-101702557D01*
X154511876Y-101721553D01*
X154498208Y-101738208D01*
X154481553Y-101751876D01*
X154462557Y-101762029D01*
X154441938Y-101768284D01*
X154414360Y-101771000D01*
X153955640Y-101771000D01*
X153928062Y-101768284D01*
X153907443Y-101762029D01*
X153888447Y-101751876D01*
X153871792Y-101738208D01*
X153858124Y-101721553D01*
X153847971Y-101702557D01*
X153841716Y-101681938D01*
X153839000Y-101654360D01*
X153839000Y-101145640D01*
X153841716Y-101118062D01*
X153847971Y-101097443D01*
X153858124Y-101078447D01*
X153871792Y-101061792D01*
X153888447Y-101048124D01*
X153907443Y-101037971D01*
X153928062Y-101031716D01*
X153955640Y-101029000D01*
X154414360Y-101029000D01*
X154441938Y-101031716D01*
G37*
G36*
X149201000Y-101751000D02*
G01*
X147999000Y-101751000D01*
X147999000Y-100749000D01*
X149201000Y-100749000D01*
X149201000Y-101751000D01*
G37*
G36*
X137101000Y-101751000D02*
G01*
X135899000Y-101751000D01*
X135899000Y-100749000D01*
X137101000Y-100749000D01*
X137101000Y-101751000D01*
G37*
G36*
X131081938Y-100691716D02*
G01*
X131102557Y-100697971D01*
X131121553Y-100708124D01*
X131138208Y-100721792D01*
X131151876Y-100738447D01*
X131162029Y-100757443D01*
X131168284Y-100778062D01*
X131171000Y-100805640D01*
X131171000Y-101264360D01*
X131168284Y-101291938D01*
X131162029Y-101312557D01*
X131151876Y-101331553D01*
X131138208Y-101348208D01*
X131121553Y-101361876D01*
X131102557Y-101372029D01*
X131081938Y-101378284D01*
X131054360Y-101381000D01*
X130545640Y-101381000D01*
X130518062Y-101378284D01*
X130497443Y-101372029D01*
X130478447Y-101361876D01*
X130461792Y-101348208D01*
X130448124Y-101331553D01*
X130437971Y-101312557D01*
X130431716Y-101291938D01*
X130429000Y-101264360D01*
X130429000Y-100805640D01*
X130431716Y-100778062D01*
X130437971Y-100757443D01*
X130448124Y-100738447D01*
X130461792Y-100721792D01*
X130478447Y-100708124D01*
X130497443Y-100697971D01*
X130518062Y-100691716D01*
X130545640Y-100689000D01*
X131054360Y-100689000D01*
X131081938Y-100691716D01*
G37*
G36*
X130081938Y-100691716D02*
G01*
X130102557Y-100697971D01*
X130121553Y-100708124D01*
X130138208Y-100721792D01*
X130151876Y-100738447D01*
X130162029Y-100757443D01*
X130168284Y-100778062D01*
X130171000Y-100805640D01*
X130171000Y-101264360D01*
X130168284Y-101291938D01*
X130162029Y-101312557D01*
X130151876Y-101331553D01*
X130138208Y-101348208D01*
X130121553Y-101361876D01*
X130102557Y-101372029D01*
X130081938Y-101378284D01*
X130054360Y-101381000D01*
X129545640Y-101381000D01*
X129518062Y-101378284D01*
X129497443Y-101372029D01*
X129478447Y-101361876D01*
X129461792Y-101348208D01*
X129448124Y-101331553D01*
X129437971Y-101312557D01*
X129431716Y-101291938D01*
X129429000Y-101264360D01*
X129429000Y-100805640D01*
X129431716Y-100778062D01*
X129437971Y-100757443D01*
X129448124Y-100738447D01*
X129461792Y-100721792D01*
X129478447Y-100708124D01*
X129497443Y-100697971D01*
X129518062Y-100691716D01*
X129545640Y-100689000D01*
X130054360Y-100689000D01*
X130081938Y-100691716D01*
G37*
G36*
X132081938Y-100691716D02*
G01*
X132102557Y-100697971D01*
X132121553Y-100708124D01*
X132138208Y-100721792D01*
X132151876Y-100738447D01*
X132162029Y-100757443D01*
X132168284Y-100778062D01*
X132171000Y-100805640D01*
X132171000Y-101264360D01*
X132168284Y-101291938D01*
X132162029Y-101312557D01*
X132151876Y-101331553D01*
X132138208Y-101348208D01*
X132121553Y-101361876D01*
X132102557Y-101372029D01*
X132081938Y-101378284D01*
X132054360Y-101381000D01*
X131545640Y-101381000D01*
X131518062Y-101378284D01*
X131497443Y-101372029D01*
X131478447Y-101361876D01*
X131461792Y-101348208D01*
X131448124Y-101331553D01*
X131437971Y-101312557D01*
X131431716Y-101291938D01*
X131429000Y-101264360D01*
X131429000Y-100805640D01*
X131431716Y-100778062D01*
X131437971Y-100757443D01*
X131448124Y-100738447D01*
X131461792Y-100721792D01*
X131478447Y-100708124D01*
X131497443Y-100697971D01*
X131518062Y-100691716D01*
X131545640Y-100689000D01*
X132054360Y-100689000D01*
X132081938Y-100691716D01*
G37*
G36*
X157501000Y-101326000D02*
G01*
X155699000Y-101326000D01*
X155699000Y-100574000D01*
X157501000Y-100574000D01*
X157501000Y-101326000D01*
G37*
G36*
X151918809Y-100604078D02*
G01*
X151984969Y-100624149D01*
X151984972Y-100624150D01*
X152045949Y-100656742D01*
X152055041Y-100664204D01*
X152099396Y-100700604D01*
X152127707Y-100735103D01*
X152143258Y-100754051D01*
X152175850Y-100815028D01*
X152175851Y-100815031D01*
X152195922Y-100881192D01*
X152202698Y-100950000D01*
X152195922Y-101018808D01*
X152177458Y-101079671D01*
X152175850Y-101084972D01*
X152143258Y-101145949D01*
X152127707Y-101164897D01*
X152099396Y-101199396D01*
X152066435Y-101226445D01*
X152045949Y-101243258D01*
X151984972Y-101275850D01*
X151984969Y-101275851D01*
X151918809Y-101295922D01*
X151867244Y-101301000D01*
X150832756Y-101301000D01*
X150781191Y-101295922D01*
X150715031Y-101275851D01*
X150715028Y-101275850D01*
X150654051Y-101243258D01*
X150633565Y-101226445D01*
X150600604Y-101199396D01*
X150572293Y-101164897D01*
X150556742Y-101145949D01*
X150524150Y-101084972D01*
X150522542Y-101079671D01*
X150504078Y-101018808D01*
X150497302Y-100950000D01*
X150504078Y-100881192D01*
X150524149Y-100815031D01*
X150524150Y-100815028D01*
X150556742Y-100754051D01*
X150572293Y-100735103D01*
X150600604Y-100700604D01*
X150644959Y-100664204D01*
X150654051Y-100656742D01*
X150715028Y-100624150D01*
X150715031Y-100624149D01*
X150781191Y-100604078D01*
X150832756Y-100599000D01*
X151867244Y-100599000D01*
X151918809Y-100604078D01*
G37*
G36*
X134318809Y-100604078D02*
G01*
X134384969Y-100624149D01*
X134384972Y-100624150D01*
X134445949Y-100656742D01*
X134455041Y-100664204D01*
X134499396Y-100700604D01*
X134527707Y-100735103D01*
X134543258Y-100754051D01*
X134575850Y-100815028D01*
X134575851Y-100815031D01*
X134595922Y-100881192D01*
X134602698Y-100950000D01*
X134595922Y-101018808D01*
X134577458Y-101079671D01*
X134575850Y-101084972D01*
X134543258Y-101145949D01*
X134527707Y-101164897D01*
X134499396Y-101199396D01*
X134466435Y-101226445D01*
X134445949Y-101243258D01*
X134384972Y-101275850D01*
X134384969Y-101275851D01*
X134318809Y-101295922D01*
X134267244Y-101301000D01*
X133232756Y-101301000D01*
X133181191Y-101295922D01*
X133115031Y-101275851D01*
X133115028Y-101275850D01*
X133054051Y-101243258D01*
X133033565Y-101226445D01*
X133000604Y-101199396D01*
X132972293Y-101164897D01*
X132956742Y-101145949D01*
X132924150Y-101084972D01*
X132922542Y-101079671D01*
X132904078Y-101018808D01*
X132897302Y-100950000D01*
X132904078Y-100881192D01*
X132924149Y-100815031D01*
X132924150Y-100815028D01*
X132956742Y-100754051D01*
X132972293Y-100735103D01*
X133000604Y-100700604D01*
X133044959Y-100664204D01*
X133054051Y-100656742D01*
X133115028Y-100624150D01*
X133115031Y-100624149D01*
X133181191Y-100604078D01*
X133232756Y-100599000D01*
X134267244Y-100599000D01*
X134318809Y-100604078D01*
G37*
G36*
X154441938Y-100031716D02*
G01*
X154462557Y-100037971D01*
X154481553Y-100048124D01*
X154498208Y-100061792D01*
X154511876Y-100078447D01*
X154522029Y-100097443D01*
X154528284Y-100118062D01*
X154531000Y-100145640D01*
X154531000Y-100654360D01*
X154528284Y-100681938D01*
X154522029Y-100702557D01*
X154511876Y-100721553D01*
X154498208Y-100738208D01*
X154481553Y-100751876D01*
X154462557Y-100762029D01*
X154441938Y-100768284D01*
X154414360Y-100771000D01*
X153955640Y-100771000D01*
X153928062Y-100768284D01*
X153907443Y-100762029D01*
X153888447Y-100751876D01*
X153871792Y-100738208D01*
X153858124Y-100721553D01*
X153847971Y-100702557D01*
X153841716Y-100681938D01*
X153839000Y-100654360D01*
X153839000Y-100145640D01*
X153841716Y-100118062D01*
X153847971Y-100097443D01*
X153858124Y-100078447D01*
X153871792Y-100061792D01*
X153888447Y-100048124D01*
X153907443Y-100037971D01*
X153928062Y-100031716D01*
X153955640Y-100029000D01*
X154414360Y-100029000D01*
X154441938Y-100031716D01*
G37*
G36*
X153471938Y-100031716D02*
G01*
X153492557Y-100037971D01*
X153511553Y-100048124D01*
X153528208Y-100061792D01*
X153541876Y-100078447D01*
X153552029Y-100097443D01*
X153558284Y-100118062D01*
X153561000Y-100145640D01*
X153561000Y-100654360D01*
X153558284Y-100681938D01*
X153552029Y-100702557D01*
X153541876Y-100721553D01*
X153528208Y-100738208D01*
X153511553Y-100751876D01*
X153492557Y-100762029D01*
X153471938Y-100768284D01*
X153444360Y-100771000D01*
X152985640Y-100771000D01*
X152958062Y-100768284D01*
X152937443Y-100762029D01*
X152918447Y-100751876D01*
X152901792Y-100738208D01*
X152888124Y-100721553D01*
X152877971Y-100702557D01*
X152871716Y-100681938D01*
X152869000Y-100654360D01*
X152869000Y-100145640D01*
X152871716Y-100118062D01*
X152877971Y-100097443D01*
X152888124Y-100078447D01*
X152901792Y-100061792D01*
X152918447Y-100048124D01*
X152937443Y-100037971D01*
X152958062Y-100031716D01*
X152985640Y-100029000D01*
X153444360Y-100029000D01*
X153471938Y-100031716D01*
G37*
G36*
X132081938Y-99721716D02*
G01*
X132102557Y-99727971D01*
X132121553Y-99738124D01*
X132138208Y-99751792D01*
X132151876Y-99768447D01*
X132162029Y-99787443D01*
X132168284Y-99808062D01*
X132171000Y-99835640D01*
X132171000Y-100294360D01*
X132168284Y-100321938D01*
X132162029Y-100342557D01*
X132151876Y-100361553D01*
X132138208Y-100378208D01*
X132121553Y-100391876D01*
X132102557Y-100402029D01*
X132081938Y-100408284D01*
X132054360Y-100411000D01*
X131545640Y-100411000D01*
X131518062Y-100408284D01*
X131497443Y-100402029D01*
X131478447Y-100391876D01*
X131461792Y-100378208D01*
X131448124Y-100361553D01*
X131437971Y-100342557D01*
X131431716Y-100321938D01*
X131429000Y-100294360D01*
X131429000Y-99835640D01*
X131431716Y-99808062D01*
X131437971Y-99787443D01*
X131448124Y-99768447D01*
X131461792Y-99751792D01*
X131478447Y-99738124D01*
X131497443Y-99727971D01*
X131518062Y-99721716D01*
X131545640Y-99719000D01*
X132054360Y-99719000D01*
X132081938Y-99721716D01*
G37*
G36*
X131081938Y-99721716D02*
G01*
X131102557Y-99727971D01*
X131121553Y-99738124D01*
X131138208Y-99751792D01*
X131151876Y-99768447D01*
X131162029Y-99787443D01*
X131168284Y-99808062D01*
X131171000Y-99835640D01*
X131171000Y-100294360D01*
X131168284Y-100321938D01*
X131162029Y-100342557D01*
X131151876Y-100361553D01*
X131138208Y-100378208D01*
X131121553Y-100391876D01*
X131102557Y-100402029D01*
X131081938Y-100408284D01*
X131054360Y-100411000D01*
X130545640Y-100411000D01*
X130518062Y-100408284D01*
X130497443Y-100402029D01*
X130478447Y-100391876D01*
X130461792Y-100378208D01*
X130448124Y-100361553D01*
X130437971Y-100342557D01*
X130431716Y-100321938D01*
X130429000Y-100294360D01*
X130429000Y-99835640D01*
X130431716Y-99808062D01*
X130437971Y-99787443D01*
X130448124Y-99768447D01*
X130461792Y-99751792D01*
X130478447Y-99738124D01*
X130497443Y-99727971D01*
X130518062Y-99721716D01*
X130545640Y-99719000D01*
X131054360Y-99719000D01*
X131081938Y-99721716D01*
G37*
G36*
X130081938Y-99721716D02*
G01*
X130102557Y-99727971D01*
X130121553Y-99738124D01*
X130138208Y-99751792D01*
X130151876Y-99768447D01*
X130162029Y-99787443D01*
X130168284Y-99808062D01*
X130171000Y-99835640D01*
X130171000Y-100294360D01*
X130168284Y-100321938D01*
X130162029Y-100342557D01*
X130151876Y-100361553D01*
X130138208Y-100378208D01*
X130121553Y-100391876D01*
X130102557Y-100402029D01*
X130081938Y-100408284D01*
X130054360Y-100411000D01*
X129545640Y-100411000D01*
X129518062Y-100408284D01*
X129497443Y-100402029D01*
X129478447Y-100391876D01*
X129461792Y-100378208D01*
X129448124Y-100361553D01*
X129437971Y-100342557D01*
X129431716Y-100321938D01*
X129429000Y-100294360D01*
X129429000Y-99835640D01*
X129431716Y-99808062D01*
X129437971Y-99787443D01*
X129448124Y-99768447D01*
X129461792Y-99751792D01*
X129478447Y-99738124D01*
X129497443Y-99727971D01*
X129518062Y-99721716D01*
X129545640Y-99719000D01*
X130054360Y-99719000D01*
X130081938Y-99721716D01*
G37*
G36*
X137101000Y-100351000D02*
G01*
X135899000Y-100351000D01*
X135899000Y-99349000D01*
X137101000Y-99349000D01*
X137101000Y-100351000D01*
G37*
G36*
X149201000Y-100351000D02*
G01*
X147999000Y-100351000D01*
X147999000Y-99349000D01*
X149201000Y-99349000D01*
X149201000Y-100351000D01*
G37*
G36*
X134318809Y-99504078D02*
G01*
X134384969Y-99524149D01*
X134384972Y-99524150D01*
X134445949Y-99556742D01*
X134464897Y-99572293D01*
X134499396Y-99600604D01*
X134527707Y-99635103D01*
X134543258Y-99654051D01*
X134575850Y-99715028D01*
X134575851Y-99715031D01*
X134595922Y-99781192D01*
X134602698Y-99850000D01*
X134595922Y-99918808D01*
X134575851Y-99984969D01*
X134575850Y-99984972D01*
X134543258Y-100045949D01*
X134530256Y-100061792D01*
X134499396Y-100099396D01*
X134476650Y-100118062D01*
X134445949Y-100143258D01*
X134384972Y-100175850D01*
X134384969Y-100175851D01*
X134318809Y-100195922D01*
X134267244Y-100201000D01*
X133232756Y-100201000D01*
X133181191Y-100195922D01*
X133115031Y-100175851D01*
X133115028Y-100175850D01*
X133054051Y-100143258D01*
X133023350Y-100118062D01*
X133000604Y-100099396D01*
X132969744Y-100061792D01*
X132956742Y-100045949D01*
X132924150Y-99984972D01*
X132924149Y-99984969D01*
X132904078Y-99918808D01*
X132897302Y-99850000D01*
X132904078Y-99781192D01*
X132924149Y-99715031D01*
X132924150Y-99715028D01*
X132956742Y-99654051D01*
X132972293Y-99635103D01*
X133000604Y-99600604D01*
X133035103Y-99572293D01*
X133054051Y-99556742D01*
X133115028Y-99524150D01*
X133115031Y-99524149D01*
X133181191Y-99504078D01*
X133232756Y-99499000D01*
X134267244Y-99499000D01*
X134318809Y-99504078D01*
G37*
G36*
X151918809Y-99504078D02*
G01*
X151984969Y-99524149D01*
X151984972Y-99524150D01*
X152045949Y-99556742D01*
X152064897Y-99572293D01*
X152099396Y-99600604D01*
X152127707Y-99635103D01*
X152143258Y-99654051D01*
X152175850Y-99715028D01*
X152175851Y-99715031D01*
X152195922Y-99781192D01*
X152202698Y-99850000D01*
X152195922Y-99918808D01*
X152175851Y-99984969D01*
X152175850Y-99984972D01*
X152143258Y-100045949D01*
X152130256Y-100061792D01*
X152099396Y-100099396D01*
X152076650Y-100118062D01*
X152045949Y-100143258D01*
X151984972Y-100175850D01*
X151984969Y-100175851D01*
X151918809Y-100195922D01*
X151867244Y-100201000D01*
X150832756Y-100201000D01*
X150781191Y-100195922D01*
X150715031Y-100175851D01*
X150715028Y-100175850D01*
X150654051Y-100143258D01*
X150623350Y-100118062D01*
X150600604Y-100099396D01*
X150569744Y-100061792D01*
X150556742Y-100045949D01*
X150524150Y-99984972D01*
X150524149Y-99984969D01*
X150504078Y-99918808D01*
X150497302Y-99850000D01*
X150504078Y-99781192D01*
X150524149Y-99715031D01*
X150524150Y-99715028D01*
X150556742Y-99654051D01*
X150572293Y-99635103D01*
X150600604Y-99600604D01*
X150635103Y-99572293D01*
X150654051Y-99556742D01*
X150715028Y-99524150D01*
X150715031Y-99524149D01*
X150781191Y-99504078D01*
X150832756Y-99499000D01*
X151867244Y-99499000D01*
X151918809Y-99504078D01*
G37*
G36*
X153471938Y-99031716D02*
G01*
X153492557Y-99037971D01*
X153511553Y-99048124D01*
X153528208Y-99061792D01*
X153541876Y-99078447D01*
X153552029Y-99097443D01*
X153558284Y-99118062D01*
X153561000Y-99145640D01*
X153561000Y-99654360D01*
X153558284Y-99681938D01*
X153552029Y-99702557D01*
X153541876Y-99721553D01*
X153528208Y-99738208D01*
X153511553Y-99751876D01*
X153492557Y-99762029D01*
X153471938Y-99768284D01*
X153444360Y-99771000D01*
X152985640Y-99771000D01*
X152958062Y-99768284D01*
X152937443Y-99762029D01*
X152918447Y-99751876D01*
X152901792Y-99738208D01*
X152888124Y-99721553D01*
X152877971Y-99702557D01*
X152871716Y-99681938D01*
X152869000Y-99654360D01*
X152869000Y-99145640D01*
X152871716Y-99118062D01*
X152877971Y-99097443D01*
X152888124Y-99078447D01*
X152901792Y-99061792D01*
X152918447Y-99048124D01*
X152937443Y-99037971D01*
X152958062Y-99031716D01*
X152985640Y-99029000D01*
X153444360Y-99029000D01*
X153471938Y-99031716D01*
G37*
G36*
X154441938Y-99031716D02*
G01*
X154462557Y-99037971D01*
X154481553Y-99048124D01*
X154498208Y-99061792D01*
X154511876Y-99078447D01*
X154522029Y-99097443D01*
X154528284Y-99118062D01*
X154531000Y-99145640D01*
X154531000Y-99654360D01*
X154528284Y-99681938D01*
X154522029Y-99702557D01*
X154511876Y-99721553D01*
X154498208Y-99738208D01*
X154481553Y-99751876D01*
X154462557Y-99762029D01*
X154441938Y-99768284D01*
X154414360Y-99771000D01*
X153955640Y-99771000D01*
X153928062Y-99768284D01*
X153907443Y-99762029D01*
X153888447Y-99751876D01*
X153871792Y-99738208D01*
X153858124Y-99721553D01*
X153847971Y-99702557D01*
X153841716Y-99681938D01*
X153839000Y-99654360D01*
X153839000Y-99145640D01*
X153841716Y-99118062D01*
X153847971Y-99097443D01*
X153858124Y-99078447D01*
X153871792Y-99061792D01*
X153888447Y-99048124D01*
X153907443Y-99037971D01*
X153928062Y-99031716D01*
X153955640Y-99029000D01*
X154414360Y-99029000D01*
X154441938Y-99031716D01*
G37*
G36*
X174451000Y-93651000D02*
G01*
X173475999Y-93651000D01*
X173451613Y-93653402D01*
X173428164Y-93660515D01*
X173406553Y-93672066D01*
X173387611Y-93687611D01*
X173372066Y-93706553D01*
X173360515Y-93728164D01*
X173353402Y-93751613D01*
X173351000Y-93775999D01*
X173351000Y-94724001D01*
X173353402Y-94748387D01*
X173360515Y-94771836D01*
X173372066Y-94793447D01*
X173387611Y-94812389D01*
X173406553Y-94827934D01*
X173428164Y-94839485D01*
X173451613Y-94846598D01*
X173475999Y-94849000D01*
X174451000Y-94849000D01*
X174451000Y-99651000D01*
X170049000Y-99651000D01*
X170049000Y-92849000D01*
X174451000Y-92849000D01*
X174451000Y-93651000D01*
G37*
G36*
X151918809Y-98404078D02*
G01*
X151984969Y-98424149D01*
X151984972Y-98424150D01*
X152045949Y-98456742D01*
X152064897Y-98472293D01*
X152099396Y-98500604D01*
X152127707Y-98535103D01*
X152143258Y-98554051D01*
X152175850Y-98615028D01*
X152175851Y-98615031D01*
X152195922Y-98681192D01*
X152202698Y-98750000D01*
X152195922Y-98818808D01*
X152175851Y-98884969D01*
X152175850Y-98884972D01*
X152143258Y-98945949D01*
X152127707Y-98964897D01*
X152099396Y-98999396D01*
X152064897Y-99027707D01*
X152045949Y-99043258D01*
X151984972Y-99075850D01*
X151984969Y-99075851D01*
X151918809Y-99095922D01*
X151867244Y-99101000D01*
X150832756Y-99101000D01*
X150781191Y-99095922D01*
X150715031Y-99075851D01*
X150715028Y-99075850D01*
X150654051Y-99043258D01*
X150635103Y-99027707D01*
X150600604Y-98999396D01*
X150572293Y-98964897D01*
X150556742Y-98945949D01*
X150524150Y-98884972D01*
X150524149Y-98884969D01*
X150504078Y-98818808D01*
X150497302Y-98750000D01*
X150504078Y-98681192D01*
X150524149Y-98615031D01*
X150524150Y-98615028D01*
X150556742Y-98554051D01*
X150572293Y-98535103D01*
X150600604Y-98500604D01*
X150635103Y-98472293D01*
X150654051Y-98456742D01*
X150715028Y-98424150D01*
X150715031Y-98424149D01*
X150781191Y-98404078D01*
X150832756Y-98399000D01*
X151867244Y-98399000D01*
X151918809Y-98404078D01*
G37*
G36*
X134318809Y-98404078D02*
G01*
X134384969Y-98424149D01*
X134384972Y-98424150D01*
X134445949Y-98456742D01*
X134464897Y-98472293D01*
X134499396Y-98500604D01*
X134527707Y-98535103D01*
X134543258Y-98554051D01*
X134575850Y-98615028D01*
X134575851Y-98615031D01*
X134595922Y-98681192D01*
X134602698Y-98750000D01*
X134595922Y-98818808D01*
X134575851Y-98884969D01*
X134575850Y-98884972D01*
X134543258Y-98945949D01*
X134527707Y-98964897D01*
X134499396Y-98999396D01*
X134464897Y-99027707D01*
X134445949Y-99043258D01*
X134384972Y-99075850D01*
X134384969Y-99075851D01*
X134318809Y-99095922D01*
X134267244Y-99101000D01*
X133232756Y-99101000D01*
X133181191Y-99095922D01*
X133115031Y-99075851D01*
X133115028Y-99075850D01*
X133054051Y-99043258D01*
X133035103Y-99027707D01*
X133000604Y-98999396D01*
X132972293Y-98964897D01*
X132956742Y-98945949D01*
X132924150Y-98884972D01*
X132924149Y-98884969D01*
X132904078Y-98818808D01*
X132897302Y-98750000D01*
X132904078Y-98681192D01*
X132924149Y-98615031D01*
X132924150Y-98615028D01*
X132956742Y-98554051D01*
X132972293Y-98535103D01*
X133000604Y-98500604D01*
X133035103Y-98472293D01*
X133054051Y-98456742D01*
X133115028Y-98424150D01*
X133115031Y-98424149D01*
X133181191Y-98404078D01*
X133232756Y-98399000D01*
X134267244Y-98399000D01*
X134318809Y-98404078D01*
G37*
G36*
X137101000Y-98951000D02*
G01*
X135899000Y-98951000D01*
X135899000Y-97949000D01*
X137101000Y-97949000D01*
X137101000Y-98951000D01*
G37*
G36*
X149201000Y-98951000D02*
G01*
X147999000Y-98951000D01*
X147999000Y-97949000D01*
X149201000Y-97949000D01*
X149201000Y-98951000D01*
G37*
G36*
X134318809Y-97304078D02*
G01*
X134384969Y-97324149D01*
X134384972Y-97324150D01*
X134445949Y-97356742D01*
X134464897Y-97372293D01*
X134499396Y-97400604D01*
X134527707Y-97435103D01*
X134543258Y-97454051D01*
X134575850Y-97515028D01*
X134575851Y-97515031D01*
X134595922Y-97581192D01*
X134602698Y-97650000D01*
X134595922Y-97718808D01*
X134575851Y-97784969D01*
X134575850Y-97784972D01*
X134543258Y-97845949D01*
X134527707Y-97864897D01*
X134499396Y-97899396D01*
X134464897Y-97927707D01*
X134445949Y-97943258D01*
X134384972Y-97975850D01*
X134384969Y-97975851D01*
X134318809Y-97995922D01*
X134267244Y-98001000D01*
X133232756Y-98001000D01*
X133181191Y-97995922D01*
X133115031Y-97975851D01*
X133115028Y-97975850D01*
X133054051Y-97943258D01*
X133035103Y-97927707D01*
X133000604Y-97899396D01*
X132972293Y-97864897D01*
X132956742Y-97845949D01*
X132924150Y-97784972D01*
X132924149Y-97784969D01*
X132904078Y-97718808D01*
X132897302Y-97650000D01*
X132904078Y-97581192D01*
X132924149Y-97515031D01*
X132924150Y-97515028D01*
X132956742Y-97454051D01*
X132972293Y-97435103D01*
X133000604Y-97400604D01*
X133035103Y-97372293D01*
X133054051Y-97356742D01*
X133115028Y-97324150D01*
X133115031Y-97324149D01*
X133181191Y-97304078D01*
X133232756Y-97299000D01*
X134267244Y-97299000D01*
X134318809Y-97304078D01*
G37*
G36*
X151918809Y-97304078D02*
G01*
X151984969Y-97324149D01*
X151984972Y-97324150D01*
X152045949Y-97356742D01*
X152064897Y-97372293D01*
X152099396Y-97400604D01*
X152127707Y-97435103D01*
X152143258Y-97454051D01*
X152175850Y-97515028D01*
X152175851Y-97515031D01*
X152195922Y-97581192D01*
X152202698Y-97650000D01*
X152195922Y-97718808D01*
X152175851Y-97784969D01*
X152175850Y-97784972D01*
X152143258Y-97845949D01*
X152127707Y-97864897D01*
X152099396Y-97899396D01*
X152064897Y-97927707D01*
X152045949Y-97943258D01*
X151984972Y-97975850D01*
X151984969Y-97975851D01*
X151918809Y-97995922D01*
X151867244Y-98001000D01*
X150832756Y-98001000D01*
X150781191Y-97995922D01*
X150715031Y-97975851D01*
X150715028Y-97975850D01*
X150654051Y-97943258D01*
X150635103Y-97927707D01*
X150600604Y-97899396D01*
X150572293Y-97864897D01*
X150556742Y-97845949D01*
X150524150Y-97784972D01*
X150524149Y-97784969D01*
X150504078Y-97718808D01*
X150497302Y-97650000D01*
X150504078Y-97581192D01*
X150524149Y-97515031D01*
X150524150Y-97515028D01*
X150556742Y-97454051D01*
X150572293Y-97435103D01*
X150600604Y-97400604D01*
X150635103Y-97372293D01*
X150654051Y-97356742D01*
X150715028Y-97324150D01*
X150715031Y-97324149D01*
X150781191Y-97304078D01*
X150832756Y-97299000D01*
X151867244Y-97299000D01*
X151918809Y-97304078D01*
G37*
G36*
X149201000Y-97551000D02*
G01*
X147999000Y-97551000D01*
X147999000Y-96549000D01*
X149201000Y-96549000D01*
X149201000Y-97551000D01*
G37*
G36*
X137101000Y-97551000D02*
G01*
X135899000Y-97551000D01*
X135899000Y-96549000D01*
X137101000Y-96549000D01*
X137101000Y-97551000D01*
G37*
G36*
X128476000Y-96901000D02*
G01*
X126174000Y-96901000D01*
X126174000Y-95749000D01*
X128476000Y-95749000D01*
X128476000Y-96901000D01*
G37*
G36*
X134318809Y-96204078D02*
G01*
X134384969Y-96224149D01*
X134384972Y-96224150D01*
X134445949Y-96256742D01*
X134464897Y-96272293D01*
X134499396Y-96300604D01*
X134527707Y-96335103D01*
X134543258Y-96354051D01*
X134575850Y-96415028D01*
X134575851Y-96415031D01*
X134595922Y-96481192D01*
X134602698Y-96550000D01*
X134595922Y-96618808D01*
X134575851Y-96684969D01*
X134575850Y-96684972D01*
X134543258Y-96745949D01*
X134527707Y-96764897D01*
X134499396Y-96799396D01*
X134464897Y-96827707D01*
X134445949Y-96843258D01*
X134384972Y-96875850D01*
X134384969Y-96875851D01*
X134318809Y-96895922D01*
X134267244Y-96901000D01*
X133232756Y-96901000D01*
X133181191Y-96895922D01*
X133115031Y-96875851D01*
X133115028Y-96875850D01*
X133054051Y-96843258D01*
X133035103Y-96827707D01*
X133000604Y-96799396D01*
X132972293Y-96764897D01*
X132956742Y-96745949D01*
X132924150Y-96684972D01*
X132924149Y-96684969D01*
X132904078Y-96618808D01*
X132897302Y-96550000D01*
X132904078Y-96481192D01*
X132924149Y-96415031D01*
X132924150Y-96415028D01*
X132956742Y-96354051D01*
X132972293Y-96335103D01*
X133000604Y-96300604D01*
X133035103Y-96272293D01*
X133054051Y-96256742D01*
X133115028Y-96224150D01*
X133115031Y-96224149D01*
X133181191Y-96204078D01*
X133232756Y-96199000D01*
X134267244Y-96199000D01*
X134318809Y-96204078D01*
G37*
G36*
X151918809Y-96204078D02*
G01*
X151984969Y-96224149D01*
X151984972Y-96224150D01*
X152045949Y-96256742D01*
X152064897Y-96272293D01*
X152099396Y-96300604D01*
X152127707Y-96335103D01*
X152143258Y-96354051D01*
X152175850Y-96415028D01*
X152175851Y-96415031D01*
X152195922Y-96481192D01*
X152202698Y-96550000D01*
X152195922Y-96618808D01*
X152175851Y-96684969D01*
X152175850Y-96684972D01*
X152143258Y-96745949D01*
X152127707Y-96764897D01*
X152099396Y-96799396D01*
X152064897Y-96827707D01*
X152045949Y-96843258D01*
X151984972Y-96875850D01*
X151984969Y-96875851D01*
X151918809Y-96895922D01*
X151867244Y-96901000D01*
X150832756Y-96901000D01*
X150781191Y-96895922D01*
X150715031Y-96875851D01*
X150715028Y-96875850D01*
X150654051Y-96843258D01*
X150635103Y-96827707D01*
X150600604Y-96799396D01*
X150572293Y-96764897D01*
X150556742Y-96745949D01*
X150524150Y-96684972D01*
X150524149Y-96684969D01*
X150504078Y-96618808D01*
X150497302Y-96550000D01*
X150504078Y-96481192D01*
X150524149Y-96415031D01*
X150524150Y-96415028D01*
X150556742Y-96354051D01*
X150572293Y-96335103D01*
X150600604Y-96300604D01*
X150635103Y-96272293D01*
X150654051Y-96256742D01*
X150715028Y-96224150D01*
X150715031Y-96224149D01*
X150781191Y-96204078D01*
X150832756Y-96199000D01*
X151867244Y-96199000D01*
X151918809Y-96204078D01*
G37*
G36*
X130581938Y-95491716D02*
G01*
X130602557Y-95497971D01*
X130621553Y-95508124D01*
X130638208Y-95521792D01*
X130651876Y-95538447D01*
X130662029Y-95557443D01*
X130668284Y-95578062D01*
X130671000Y-95605640D01*
X130671000Y-96064360D01*
X130668284Y-96091938D01*
X130662029Y-96112557D01*
X130651876Y-96131553D01*
X130638208Y-96148208D01*
X130621553Y-96161876D01*
X130602557Y-96172029D01*
X130581938Y-96178284D01*
X130554360Y-96181000D01*
X130045640Y-96181000D01*
X130018062Y-96178284D01*
X129997443Y-96172029D01*
X129978447Y-96161876D01*
X129961792Y-96148208D01*
X129948124Y-96131553D01*
X129937971Y-96112557D01*
X129931716Y-96091938D01*
X129929000Y-96064360D01*
X129929000Y-95605640D01*
X129931716Y-95578062D01*
X129937971Y-95557443D01*
X129948124Y-95538447D01*
X129961792Y-95521792D01*
X129978447Y-95508124D01*
X129997443Y-95497971D01*
X130018062Y-95491716D01*
X130045640Y-95489000D01*
X130554360Y-95489000D01*
X130581938Y-95491716D01*
G37*
G36*
X147951000Y-95024001D02*
G01*
X147953402Y-95048387D01*
X147960515Y-95071836D01*
X147972066Y-95093447D01*
X147987611Y-95112389D01*
X148006553Y-95127934D01*
X148028164Y-95139485D01*
X148051613Y-95146598D01*
X148075999Y-95149000D01*
X149201000Y-95149000D01*
X149201000Y-96151000D01*
X147999000Y-96151000D01*
X147999000Y-95225999D01*
X147996598Y-95201613D01*
X147989485Y-95178164D01*
X147977934Y-95156553D01*
X147962389Y-95137611D01*
X147943447Y-95122066D01*
X147921836Y-95110515D01*
X147898387Y-95103402D01*
X147874001Y-95101000D01*
X146949000Y-95101000D01*
X146949000Y-93899000D01*
X147951000Y-93899000D01*
X147951000Y-95024001D01*
G37*
G36*
X154491938Y-95131716D02*
G01*
X154512557Y-95137971D01*
X154531553Y-95148124D01*
X154548208Y-95161792D01*
X154561876Y-95178447D01*
X154572029Y-95197443D01*
X154578284Y-95218062D01*
X154581000Y-95245640D01*
X154581000Y-95754360D01*
X154578284Y-95781938D01*
X154572029Y-95802557D01*
X154561876Y-95821553D01*
X154548208Y-95838208D01*
X154531553Y-95851876D01*
X154512557Y-95862029D01*
X154491938Y-95868284D01*
X154464360Y-95871000D01*
X154005640Y-95871000D01*
X153978062Y-95868284D01*
X153957443Y-95862029D01*
X153938447Y-95851876D01*
X153921792Y-95838208D01*
X153908124Y-95821553D01*
X153897971Y-95802557D01*
X153891716Y-95781938D01*
X153889000Y-95754360D01*
X153889000Y-95245640D01*
X153891716Y-95218062D01*
X153897971Y-95197443D01*
X153908124Y-95178447D01*
X153921792Y-95161792D01*
X153938447Y-95148124D01*
X153957443Y-95137971D01*
X153978062Y-95131716D01*
X154005640Y-95129000D01*
X154464360Y-95129000D01*
X154491938Y-95131716D01*
G37*
G36*
X153521938Y-95131716D02*
G01*
X153542557Y-95137971D01*
X153561553Y-95148124D01*
X153578208Y-95161792D01*
X153591876Y-95178447D01*
X153602029Y-95197443D01*
X153608284Y-95218062D01*
X153611000Y-95245640D01*
X153611000Y-95754360D01*
X153608284Y-95781938D01*
X153602029Y-95802557D01*
X153591876Y-95821553D01*
X153578208Y-95838208D01*
X153561553Y-95851876D01*
X153542557Y-95862029D01*
X153521938Y-95868284D01*
X153494360Y-95871000D01*
X153035640Y-95871000D01*
X153008062Y-95868284D01*
X152987443Y-95862029D01*
X152968447Y-95851876D01*
X152951792Y-95838208D01*
X152938124Y-95821553D01*
X152927971Y-95802557D01*
X152921716Y-95781938D01*
X152919000Y-95754360D01*
X152919000Y-95245640D01*
X152921716Y-95218062D01*
X152927971Y-95197443D01*
X152938124Y-95178447D01*
X152951792Y-95161792D01*
X152968447Y-95148124D01*
X152987443Y-95137971D01*
X153008062Y-95131716D01*
X153035640Y-95129000D01*
X153494360Y-95129000D01*
X153521938Y-95131716D01*
G37*
G36*
X134318809Y-95104078D02*
G01*
X134384969Y-95124149D01*
X134384972Y-95124150D01*
X134445949Y-95156742D01*
X134464897Y-95172293D01*
X134499396Y-95200604D01*
X134520236Y-95225999D01*
X134543258Y-95254051D01*
X134575850Y-95315028D01*
X134575851Y-95315031D01*
X134595922Y-95381192D01*
X134602698Y-95450000D01*
X134595922Y-95518808D01*
X134584201Y-95557443D01*
X134575850Y-95584972D01*
X134543258Y-95645949D01*
X134530085Y-95662000D01*
X134499396Y-95699396D01*
X134464897Y-95727707D01*
X134445949Y-95743258D01*
X134384972Y-95775850D01*
X134384969Y-95775851D01*
X134318809Y-95795922D01*
X134267244Y-95801000D01*
X133232756Y-95801000D01*
X133181191Y-95795922D01*
X133115031Y-95775851D01*
X133115028Y-95775850D01*
X133054051Y-95743258D01*
X133035103Y-95727707D01*
X133000604Y-95699396D01*
X132969915Y-95662000D01*
X132956742Y-95645949D01*
X132924150Y-95584972D01*
X132915799Y-95557443D01*
X132904078Y-95518808D01*
X132897302Y-95450000D01*
X132904078Y-95381192D01*
X132924149Y-95315031D01*
X132924150Y-95315028D01*
X132956742Y-95254051D01*
X132979764Y-95225999D01*
X133000604Y-95200604D01*
X133035103Y-95172293D01*
X133054051Y-95156742D01*
X133115028Y-95124150D01*
X133115031Y-95124149D01*
X133181191Y-95104078D01*
X133232756Y-95099000D01*
X134267244Y-95099000D01*
X134318809Y-95104078D01*
G37*
G36*
X151918809Y-95104078D02*
G01*
X151984969Y-95124149D01*
X151984972Y-95124150D01*
X152045949Y-95156742D01*
X152064897Y-95172293D01*
X152099396Y-95200604D01*
X152120236Y-95225999D01*
X152143258Y-95254051D01*
X152175850Y-95315028D01*
X152175851Y-95315031D01*
X152195922Y-95381192D01*
X152202698Y-95450000D01*
X152195922Y-95518808D01*
X152184201Y-95557443D01*
X152175850Y-95584972D01*
X152143258Y-95645949D01*
X152130085Y-95662000D01*
X152099396Y-95699396D01*
X152064897Y-95727707D01*
X152045949Y-95743258D01*
X151984972Y-95775850D01*
X151984969Y-95775851D01*
X151918809Y-95795922D01*
X151867244Y-95801000D01*
X150832756Y-95801000D01*
X150781191Y-95795922D01*
X150715031Y-95775851D01*
X150715028Y-95775850D01*
X150654051Y-95743258D01*
X150635103Y-95727707D01*
X150600604Y-95699396D01*
X150569915Y-95662000D01*
X150556742Y-95645949D01*
X150524150Y-95584972D01*
X150515799Y-95557443D01*
X150504078Y-95518808D01*
X150497302Y-95450000D01*
X150504078Y-95381192D01*
X150524149Y-95315031D01*
X150524150Y-95315028D01*
X150556742Y-95254051D01*
X150579764Y-95225999D01*
X150600604Y-95200604D01*
X150635103Y-95172293D01*
X150654051Y-95156742D01*
X150715028Y-95124150D01*
X150715031Y-95124149D01*
X150781191Y-95104078D01*
X150832756Y-95099000D01*
X151867244Y-95099000D01*
X151918809Y-95104078D01*
G37*
G36*
X129426000Y-95401000D02*
G01*
X128274000Y-95401000D01*
X128274000Y-94299000D01*
X129426000Y-94299000D01*
X129426000Y-95401000D01*
G37*
G36*
X130581938Y-94521716D02*
G01*
X130602557Y-94527971D01*
X130621553Y-94538124D01*
X130638208Y-94551792D01*
X130651876Y-94568447D01*
X130662029Y-94587443D01*
X130668284Y-94608062D01*
X130671000Y-94635640D01*
X130671000Y-95094360D01*
X130668284Y-95121938D01*
X130662029Y-95142557D01*
X130651876Y-95161553D01*
X130638208Y-95178208D01*
X130621553Y-95191876D01*
X130602557Y-95202029D01*
X130581938Y-95208284D01*
X130554360Y-95211000D01*
X130045640Y-95211000D01*
X130018062Y-95208284D01*
X129997443Y-95202029D01*
X129978447Y-95191876D01*
X129961792Y-95178208D01*
X129948124Y-95161553D01*
X129937971Y-95142557D01*
X129931716Y-95121938D01*
X129929000Y-95094360D01*
X129929000Y-94635640D01*
X129931716Y-94608062D01*
X129937971Y-94587443D01*
X129948124Y-94568447D01*
X129961792Y-94551792D01*
X129978447Y-94538124D01*
X129997443Y-94527971D01*
X130018062Y-94521716D01*
X130045640Y-94519000D01*
X130554360Y-94519000D01*
X130581938Y-94521716D01*
G37*
G36*
X143751000Y-95101000D02*
G01*
X142749000Y-95101000D01*
X142749000Y-93899000D01*
X143751000Y-93899000D01*
X143751000Y-95101000D01*
G37*
G36*
X145151000Y-95101000D02*
G01*
X144149000Y-95101000D01*
X144149000Y-93899000D01*
X145151000Y-93899000D01*
X145151000Y-95101000D01*
G37*
G36*
X142351000Y-95101000D02*
G01*
X141349000Y-95101000D01*
X141349000Y-93899000D01*
X142351000Y-93899000D01*
X142351000Y-95101000D01*
G37*
G36*
X146551000Y-95101000D02*
G01*
X145549000Y-95101000D01*
X145549000Y-93899000D01*
X146551000Y-93899000D01*
X146551000Y-95101000D01*
G37*
G36*
X128476000Y-93951000D02*
G01*
X126174000Y-93951000D01*
X126174000Y-92799000D01*
X128476000Y-92799000D01*
X128476000Y-93951000D01*
G37*
G36*
X140968808Y-91154078D02*
G01*
X141034969Y-91174149D01*
X141034972Y-91174150D01*
X141095949Y-91206742D01*
X141114897Y-91222293D01*
X141149396Y-91250604D01*
X141177707Y-91285103D01*
X141193258Y-91304051D01*
X141225850Y-91365028D01*
X141225851Y-91365031D01*
X141245922Y-91431191D01*
X141251000Y-91482756D01*
X141251000Y-92517244D01*
X141245922Y-92568809D01*
X141225851Y-92634969D01*
X141225850Y-92634972D01*
X141193258Y-92695949D01*
X141181777Y-92709938D01*
X141149396Y-92749396D01*
X141099346Y-92790469D01*
X141095948Y-92793258D01*
X141034971Y-92825850D01*
X141034969Y-92825851D01*
X140968808Y-92845922D01*
X140905661Y-92852140D01*
X140900000Y-92852698D01*
X140899999Y-92852698D01*
X140831192Y-92845922D01*
X140765031Y-92825851D01*
X140765028Y-92825850D01*
X140704051Y-92793258D01*
X140690062Y-92781777D01*
X140650604Y-92749396D01*
X140606743Y-92695949D01*
X140574149Y-92634969D01*
X140554078Y-92568808D01*
X140549000Y-92517244D01*
X140549001Y-91482756D01*
X140554079Y-91431191D01*
X140574150Y-91365031D01*
X140574151Y-91365028D01*
X140606743Y-91304051D01*
X140622294Y-91285103D01*
X140650605Y-91250604D01*
X140685104Y-91222293D01*
X140704052Y-91206742D01*
X140765029Y-91174150D01*
X140765032Y-91174149D01*
X140831192Y-91154078D01*
X140894339Y-91147860D01*
X140900000Y-91147302D01*
X140900001Y-91147302D01*
X140968808Y-91154078D01*
G37*
G36*
X142068808Y-91154078D02*
G01*
X142134969Y-91174149D01*
X142134972Y-91174150D01*
X142195949Y-91206742D01*
X142214897Y-91222293D01*
X142249396Y-91250604D01*
X142277707Y-91285103D01*
X142293258Y-91304051D01*
X142325850Y-91365028D01*
X142325851Y-91365031D01*
X142345922Y-91431191D01*
X142351000Y-91482756D01*
X142351000Y-92517244D01*
X142345922Y-92568809D01*
X142325851Y-92634969D01*
X142325850Y-92634972D01*
X142293258Y-92695949D01*
X142281777Y-92709938D01*
X142249396Y-92749396D01*
X142199346Y-92790469D01*
X142195948Y-92793258D01*
X142134971Y-92825850D01*
X142134969Y-92825851D01*
X142068808Y-92845922D01*
X142005661Y-92852140D01*
X142000000Y-92852698D01*
X141999999Y-92852698D01*
X141931192Y-92845922D01*
X141865031Y-92825851D01*
X141865028Y-92825850D01*
X141804051Y-92793258D01*
X141790062Y-92781777D01*
X141750604Y-92749396D01*
X141706743Y-92695949D01*
X141674149Y-92634969D01*
X141654078Y-92568808D01*
X141649000Y-92517244D01*
X141649001Y-91482756D01*
X141654079Y-91431191D01*
X141674150Y-91365031D01*
X141674151Y-91365028D01*
X141706743Y-91304051D01*
X141722294Y-91285103D01*
X141750605Y-91250604D01*
X141785104Y-91222293D01*
X141804052Y-91206742D01*
X141865029Y-91174150D01*
X141865032Y-91174149D01*
X141931192Y-91154078D01*
X141994339Y-91147860D01*
X142000000Y-91147302D01*
X142000001Y-91147302D01*
X142068808Y-91154078D01*
G37*
G36*
X143168808Y-91154078D02*
G01*
X143234969Y-91174149D01*
X143234972Y-91174150D01*
X143295949Y-91206742D01*
X143314897Y-91222293D01*
X143349396Y-91250604D01*
X143377707Y-91285103D01*
X143393258Y-91304051D01*
X143425850Y-91365028D01*
X143425851Y-91365031D01*
X143445922Y-91431191D01*
X143451000Y-91482756D01*
X143451000Y-92517244D01*
X143445922Y-92568809D01*
X143425851Y-92634969D01*
X143425850Y-92634972D01*
X143393258Y-92695949D01*
X143381777Y-92709938D01*
X143349396Y-92749396D01*
X143299346Y-92790469D01*
X143295948Y-92793258D01*
X143234971Y-92825850D01*
X143234969Y-92825851D01*
X143168808Y-92845922D01*
X143105661Y-92852140D01*
X143100000Y-92852698D01*
X143099999Y-92852698D01*
X143031192Y-92845922D01*
X142965031Y-92825851D01*
X142965028Y-92825850D01*
X142904051Y-92793258D01*
X142890062Y-92781777D01*
X142850604Y-92749396D01*
X142806743Y-92695949D01*
X142774149Y-92634969D01*
X142754078Y-92568808D01*
X142749000Y-92517244D01*
X142749001Y-91482756D01*
X142754079Y-91431191D01*
X142774150Y-91365031D01*
X142774151Y-91365028D01*
X142806743Y-91304051D01*
X142822294Y-91285103D01*
X142850605Y-91250604D01*
X142885104Y-91222293D01*
X142904052Y-91206742D01*
X142965029Y-91174150D01*
X142965032Y-91174149D01*
X143031192Y-91154078D01*
X143094339Y-91147860D01*
X143100000Y-91147302D01*
X143100001Y-91147302D01*
X143168808Y-91154078D01*
G37*
G36*
X139868808Y-91154078D02*
G01*
X139934969Y-91174149D01*
X139934972Y-91174150D01*
X139995949Y-91206742D01*
X140014897Y-91222293D01*
X140049396Y-91250604D01*
X140077707Y-91285103D01*
X140093258Y-91304051D01*
X140125850Y-91365028D01*
X140125851Y-91365031D01*
X140145922Y-91431191D01*
X140151000Y-91482756D01*
X140151000Y-92517244D01*
X140145922Y-92568809D01*
X140125851Y-92634969D01*
X140125850Y-92634972D01*
X140093258Y-92695949D01*
X140081777Y-92709938D01*
X140049396Y-92749396D01*
X139999346Y-92790469D01*
X139995948Y-92793258D01*
X139934971Y-92825850D01*
X139934969Y-92825851D01*
X139868808Y-92845922D01*
X139805661Y-92852140D01*
X139800000Y-92852698D01*
X139799999Y-92852698D01*
X139731192Y-92845922D01*
X139665031Y-92825851D01*
X139665028Y-92825850D01*
X139604051Y-92793258D01*
X139590062Y-92781777D01*
X139550604Y-92749396D01*
X139506743Y-92695949D01*
X139474149Y-92634969D01*
X139454078Y-92568808D01*
X139449000Y-92517244D01*
X139449001Y-91482756D01*
X139454079Y-91431191D01*
X139474150Y-91365031D01*
X139474151Y-91365028D01*
X139506743Y-91304051D01*
X139522294Y-91285103D01*
X139550605Y-91250604D01*
X139585104Y-91222293D01*
X139604052Y-91206742D01*
X139665029Y-91174150D01*
X139665032Y-91174149D01*
X139731192Y-91154078D01*
X139794339Y-91147860D01*
X139800000Y-91147302D01*
X139800001Y-91147302D01*
X139868808Y-91154078D01*
G37*
G36*
X136568808Y-91154078D02*
G01*
X136634969Y-91174149D01*
X136634972Y-91174150D01*
X136695949Y-91206742D01*
X136714897Y-91222293D01*
X136749396Y-91250604D01*
X136777707Y-91285103D01*
X136793258Y-91304051D01*
X136825850Y-91365028D01*
X136825851Y-91365031D01*
X136845922Y-91431191D01*
X136851000Y-91482756D01*
X136851000Y-92517244D01*
X136845922Y-92568809D01*
X136825851Y-92634969D01*
X136825850Y-92634972D01*
X136793258Y-92695949D01*
X136781777Y-92709938D01*
X136749396Y-92749396D01*
X136699346Y-92790469D01*
X136695948Y-92793258D01*
X136634971Y-92825850D01*
X136634969Y-92825851D01*
X136568808Y-92845922D01*
X136505661Y-92852140D01*
X136500000Y-92852698D01*
X136499999Y-92852698D01*
X136431192Y-92845922D01*
X136365031Y-92825851D01*
X136365028Y-92825850D01*
X136304051Y-92793258D01*
X136290062Y-92781777D01*
X136250604Y-92749396D01*
X136206743Y-92695949D01*
X136174149Y-92634969D01*
X136154078Y-92568808D01*
X136149000Y-92517244D01*
X136149001Y-91482756D01*
X136154079Y-91431191D01*
X136174150Y-91365031D01*
X136174151Y-91365028D01*
X136206743Y-91304051D01*
X136222294Y-91285103D01*
X136250605Y-91250604D01*
X136285104Y-91222293D01*
X136304052Y-91206742D01*
X136365029Y-91174150D01*
X136365032Y-91174149D01*
X136431192Y-91154078D01*
X136494339Y-91147860D01*
X136500000Y-91147302D01*
X136500001Y-91147302D01*
X136568808Y-91154078D01*
G37*
G36*
X138768808Y-91154078D02*
G01*
X138834969Y-91174149D01*
X138834972Y-91174150D01*
X138895949Y-91206742D01*
X138914897Y-91222293D01*
X138949396Y-91250604D01*
X138977707Y-91285103D01*
X138993258Y-91304051D01*
X139025850Y-91365028D01*
X139025851Y-91365031D01*
X139045922Y-91431191D01*
X139051000Y-91482756D01*
X139051000Y-92517244D01*
X139045922Y-92568809D01*
X139025851Y-92634969D01*
X139025850Y-92634972D01*
X138993258Y-92695949D01*
X138981777Y-92709938D01*
X138949396Y-92749396D01*
X138899346Y-92790469D01*
X138895948Y-92793258D01*
X138834971Y-92825850D01*
X138834969Y-92825851D01*
X138768808Y-92845922D01*
X138705661Y-92852140D01*
X138700000Y-92852698D01*
X138699999Y-92852698D01*
X138631192Y-92845922D01*
X138565031Y-92825851D01*
X138565028Y-92825850D01*
X138504051Y-92793258D01*
X138490062Y-92781777D01*
X138450604Y-92749396D01*
X138406743Y-92695949D01*
X138374149Y-92634969D01*
X138354078Y-92568808D01*
X138349000Y-92517244D01*
X138349001Y-91482756D01*
X138354079Y-91431191D01*
X138374150Y-91365031D01*
X138374151Y-91365028D01*
X138406743Y-91304051D01*
X138422294Y-91285103D01*
X138450605Y-91250604D01*
X138485104Y-91222293D01*
X138504052Y-91206742D01*
X138565029Y-91174150D01*
X138565032Y-91174149D01*
X138631192Y-91154078D01*
X138694339Y-91147860D01*
X138700000Y-91147302D01*
X138700001Y-91147302D01*
X138768808Y-91154078D01*
G37*
G36*
X137668808Y-91154078D02*
G01*
X137734969Y-91174149D01*
X137734972Y-91174150D01*
X137795949Y-91206742D01*
X137814897Y-91222293D01*
X137849396Y-91250604D01*
X137877707Y-91285103D01*
X137893258Y-91304051D01*
X137925850Y-91365028D01*
X137925851Y-91365031D01*
X137945922Y-91431191D01*
X137951000Y-91482756D01*
X137951000Y-92517244D01*
X137945922Y-92568809D01*
X137925851Y-92634969D01*
X137925850Y-92634972D01*
X137893258Y-92695949D01*
X137881777Y-92709938D01*
X137849396Y-92749396D01*
X137799346Y-92790469D01*
X137795948Y-92793258D01*
X137734971Y-92825850D01*
X137734969Y-92825851D01*
X137668808Y-92845922D01*
X137605661Y-92852140D01*
X137600000Y-92852698D01*
X137599999Y-92852698D01*
X137531192Y-92845922D01*
X137465031Y-92825851D01*
X137465028Y-92825850D01*
X137404051Y-92793258D01*
X137390062Y-92781777D01*
X137350604Y-92749396D01*
X137306743Y-92695949D01*
X137274149Y-92634969D01*
X137254078Y-92568808D01*
X137249000Y-92517244D01*
X137249001Y-91482756D01*
X137254079Y-91431191D01*
X137274150Y-91365031D01*
X137274151Y-91365028D01*
X137306743Y-91304051D01*
X137322294Y-91285103D01*
X137350605Y-91250604D01*
X137385104Y-91222293D01*
X137404052Y-91206742D01*
X137465029Y-91174150D01*
X137465032Y-91174149D01*
X137531192Y-91154078D01*
X137594339Y-91147860D01*
X137600000Y-91147302D01*
X137600001Y-91147302D01*
X137668808Y-91154078D01*
G37*
G36*
X144268808Y-91154078D02*
G01*
X144334969Y-91174149D01*
X144334972Y-91174150D01*
X144395949Y-91206742D01*
X144414897Y-91222293D01*
X144449396Y-91250604D01*
X144477707Y-91285103D01*
X144493258Y-91304051D01*
X144525850Y-91365028D01*
X144525851Y-91365031D01*
X144545922Y-91431191D01*
X144551000Y-91482756D01*
X144551000Y-92517244D01*
X144545922Y-92568809D01*
X144525851Y-92634969D01*
X144525850Y-92634972D01*
X144493258Y-92695949D01*
X144481777Y-92709938D01*
X144449396Y-92749396D01*
X144399346Y-92790469D01*
X144395948Y-92793258D01*
X144334971Y-92825850D01*
X144334969Y-92825851D01*
X144268808Y-92845922D01*
X144205661Y-92852140D01*
X144200000Y-92852698D01*
X144199999Y-92852698D01*
X144131192Y-92845922D01*
X144065031Y-92825851D01*
X144065028Y-92825850D01*
X144004051Y-92793258D01*
X143990062Y-92781777D01*
X143950604Y-92749396D01*
X143906743Y-92695949D01*
X143874149Y-92634969D01*
X143854078Y-92568808D01*
X143849000Y-92517244D01*
X143849001Y-91482756D01*
X143854079Y-91431191D01*
X143874150Y-91365031D01*
X143874151Y-91365028D01*
X143906743Y-91304051D01*
X143922294Y-91285103D01*
X143950605Y-91250604D01*
X143985104Y-91222293D01*
X144004052Y-91206742D01*
X144065029Y-91174150D01*
X144065032Y-91174149D01*
X144131192Y-91154078D01*
X144194339Y-91147860D01*
X144200000Y-91147302D01*
X144200001Y-91147302D01*
X144268808Y-91154078D01*
G37*
G36*
X145368808Y-91154078D02*
G01*
X145434969Y-91174149D01*
X145434972Y-91174150D01*
X145495949Y-91206742D01*
X145514897Y-91222293D01*
X145549396Y-91250604D01*
X145577707Y-91285103D01*
X145593258Y-91304051D01*
X145625850Y-91365028D01*
X145625851Y-91365031D01*
X145645922Y-91431191D01*
X145651000Y-91482756D01*
X145651000Y-92517244D01*
X145645922Y-92568809D01*
X145625851Y-92634969D01*
X145625850Y-92634972D01*
X145593258Y-92695949D01*
X145581777Y-92709938D01*
X145549396Y-92749396D01*
X145499346Y-92790469D01*
X145495948Y-92793258D01*
X145434971Y-92825850D01*
X145434969Y-92825851D01*
X145368808Y-92845922D01*
X145305661Y-92852140D01*
X145300000Y-92852698D01*
X145299999Y-92852698D01*
X145231192Y-92845922D01*
X145165031Y-92825851D01*
X145165028Y-92825850D01*
X145104051Y-92793258D01*
X145090062Y-92781777D01*
X145050604Y-92749396D01*
X145006743Y-92695949D01*
X144974149Y-92634969D01*
X144954078Y-92568808D01*
X144949000Y-92517244D01*
X144949001Y-91482756D01*
X144954079Y-91431191D01*
X144974150Y-91365031D01*
X144974151Y-91365028D01*
X145006743Y-91304051D01*
X145022294Y-91285103D01*
X145050605Y-91250604D01*
X145085104Y-91222293D01*
X145104052Y-91206742D01*
X145165029Y-91174150D01*
X145165032Y-91174149D01*
X145231192Y-91154078D01*
X145294339Y-91147860D01*
X145300000Y-91147302D01*
X145300001Y-91147302D01*
X145368808Y-91154078D01*
G37*
G36*
X146468808Y-91154078D02*
G01*
X146534969Y-91174149D01*
X146534972Y-91174150D01*
X146595949Y-91206742D01*
X146614897Y-91222293D01*
X146649396Y-91250604D01*
X146677707Y-91285103D01*
X146693258Y-91304051D01*
X146725850Y-91365028D01*
X146725851Y-91365031D01*
X146745922Y-91431191D01*
X146751000Y-91482756D01*
X146751000Y-92517244D01*
X146745922Y-92568809D01*
X146725851Y-92634969D01*
X146725850Y-92634972D01*
X146693258Y-92695949D01*
X146681777Y-92709938D01*
X146649396Y-92749396D01*
X146599346Y-92790469D01*
X146595948Y-92793258D01*
X146534971Y-92825850D01*
X146534969Y-92825851D01*
X146468808Y-92845922D01*
X146405661Y-92852140D01*
X146400000Y-92852698D01*
X146399999Y-92852698D01*
X146331192Y-92845922D01*
X146265031Y-92825851D01*
X146265028Y-92825850D01*
X146204051Y-92793258D01*
X146190062Y-92781777D01*
X146150604Y-92749396D01*
X146106743Y-92695949D01*
X146074149Y-92634969D01*
X146054078Y-92568808D01*
X146049000Y-92517244D01*
X146049001Y-91482756D01*
X146054079Y-91431191D01*
X146074150Y-91365031D01*
X146074151Y-91365028D01*
X146106743Y-91304051D01*
X146122294Y-91285103D01*
X146150605Y-91250604D01*
X146185104Y-91222293D01*
X146204052Y-91206742D01*
X146265029Y-91174150D01*
X146265032Y-91174149D01*
X146331192Y-91154078D01*
X146394339Y-91147860D01*
X146400000Y-91147302D01*
X146400001Y-91147302D01*
X146468808Y-91154078D01*
G37*
G36*
X147568808Y-91154078D02*
G01*
X147634969Y-91174149D01*
X147634972Y-91174150D01*
X147695949Y-91206742D01*
X147714897Y-91222293D01*
X147749396Y-91250604D01*
X147777707Y-91285103D01*
X147793258Y-91304051D01*
X147825850Y-91365028D01*
X147825851Y-91365031D01*
X147845922Y-91431191D01*
X147851000Y-91482756D01*
X147851000Y-92517244D01*
X147845922Y-92568809D01*
X147825851Y-92634969D01*
X147825850Y-92634972D01*
X147793258Y-92695949D01*
X147781777Y-92709938D01*
X147749396Y-92749396D01*
X147699346Y-92790469D01*
X147695948Y-92793258D01*
X147634971Y-92825850D01*
X147634969Y-92825851D01*
X147568808Y-92845922D01*
X147505661Y-92852140D01*
X147500000Y-92852698D01*
X147499999Y-92852698D01*
X147431192Y-92845922D01*
X147365031Y-92825851D01*
X147365028Y-92825850D01*
X147304051Y-92793258D01*
X147290062Y-92781777D01*
X147250604Y-92749396D01*
X147206743Y-92695949D01*
X147174149Y-92634969D01*
X147154078Y-92568808D01*
X147149000Y-92517244D01*
X147149001Y-91482756D01*
X147154079Y-91431191D01*
X147174150Y-91365031D01*
X147174151Y-91365028D01*
X147206743Y-91304051D01*
X147222294Y-91285103D01*
X147250605Y-91250604D01*
X147285104Y-91222293D01*
X147304052Y-91206742D01*
X147365029Y-91174150D01*
X147365032Y-91174149D01*
X147431192Y-91154078D01*
X147494339Y-91147860D01*
X147500000Y-91147302D01*
X147500001Y-91147302D01*
X147568808Y-91154078D01*
G37*
G36*
X148668808Y-91154078D02*
G01*
X148734969Y-91174149D01*
X148734972Y-91174150D01*
X148795949Y-91206742D01*
X148814897Y-91222293D01*
X148849396Y-91250604D01*
X148877707Y-91285103D01*
X148893258Y-91304051D01*
X148925850Y-91365028D01*
X148925851Y-91365031D01*
X148945922Y-91431191D01*
X148951000Y-91482756D01*
X148951000Y-92517244D01*
X148945922Y-92568809D01*
X148925851Y-92634969D01*
X148925850Y-92634972D01*
X148893258Y-92695949D01*
X148881777Y-92709938D01*
X148849396Y-92749396D01*
X148799346Y-92790469D01*
X148795948Y-92793258D01*
X148734971Y-92825850D01*
X148734969Y-92825851D01*
X148668808Y-92845922D01*
X148605661Y-92852140D01*
X148600000Y-92852698D01*
X148599999Y-92852698D01*
X148531192Y-92845922D01*
X148465031Y-92825851D01*
X148465028Y-92825850D01*
X148404051Y-92793258D01*
X148390062Y-92781777D01*
X148350604Y-92749396D01*
X148306743Y-92695949D01*
X148274149Y-92634969D01*
X148254078Y-92568808D01*
X148249000Y-92517244D01*
X148249001Y-91482756D01*
X148254079Y-91431191D01*
X148274150Y-91365031D01*
X148274151Y-91365028D01*
X148306743Y-91304051D01*
X148322294Y-91285103D01*
X148350605Y-91250604D01*
X148385104Y-91222293D01*
X148404052Y-91206742D01*
X148465029Y-91174150D01*
X148465032Y-91174149D01*
X148531192Y-91154078D01*
X148594339Y-91147860D01*
X148600000Y-91147302D01*
X148600001Y-91147302D01*
X148668808Y-91154078D01*
G37*
G36*
X128048903Y-86443213D02*
G01*
X128271177Y-86487426D01*
X128689932Y-86660880D01*
X129066802Y-86912696D01*
X129387304Y-87233198D01*
X129639120Y-87610068D01*
X129812574Y-88028823D01*
X129828259Y-88107676D01*
X129901000Y-88473370D01*
X129901000Y-88926630D01*
X129874151Y-89061607D01*
X129812574Y-89371177D01*
X129639120Y-89789932D01*
X129387304Y-90166802D01*
X129066802Y-90487304D01*
X128689932Y-90739120D01*
X128271177Y-90912574D01*
X128048903Y-90956787D01*
X127826630Y-91001000D01*
X127373370Y-91001000D01*
X127151097Y-90956787D01*
X126928823Y-90912574D01*
X126510068Y-90739120D01*
X126133198Y-90487304D01*
X125812696Y-90166802D01*
X125560880Y-89789932D01*
X125387426Y-89371177D01*
X125325849Y-89061607D01*
X125299000Y-88926630D01*
X125299000Y-88473370D01*
X125371741Y-88107676D01*
X125387426Y-88028823D01*
X125560880Y-87610068D01*
X125812696Y-87233198D01*
X126133198Y-86912696D01*
X126510068Y-86660880D01*
X126928823Y-86487426D01*
X127151097Y-86443213D01*
X127373370Y-86399000D01*
X127826630Y-86399000D01*
X128048903Y-86443213D01*
G37*
G36*
X149178632Y-86927810D02*
G01*
X149209923Y-86937302D01*
X149238763Y-86952717D01*
X149264039Y-86973461D01*
X149284783Y-86998737D01*
X149300198Y-87027577D01*
X149309690Y-87058868D01*
X149313500Y-87097551D01*
X149313500Y-89402449D01*
X149309690Y-89441132D01*
X149300198Y-89472423D01*
X149284783Y-89501263D01*
X149264039Y-89526539D01*
X149238763Y-89547283D01*
X149209923Y-89562698D01*
X149178632Y-89572190D01*
X149139949Y-89576000D01*
X147310051Y-89576000D01*
X147271368Y-89572190D01*
X147240077Y-89562698D01*
X147211237Y-89547283D01*
X147185961Y-89526539D01*
X147165217Y-89501263D01*
X147149802Y-89472423D01*
X147140310Y-89441132D01*
X147136500Y-89402449D01*
X147136500Y-87097551D01*
X147140310Y-87058868D01*
X147149802Y-87027577D01*
X147165217Y-86998737D01*
X147185961Y-86973461D01*
X147211237Y-86952717D01*
X147240077Y-86937302D01*
X147271368Y-86927810D01*
X147310051Y-86924000D01*
X149139949Y-86924000D01*
X149178632Y-86927810D01*
G37*
G36*
X142953632Y-86927810D02*
G01*
X142984923Y-86937302D01*
X143013763Y-86952717D01*
X143039039Y-86973461D01*
X143059783Y-86998737D01*
X143075198Y-87027577D01*
X143084690Y-87058868D01*
X143088500Y-87097551D01*
X143088500Y-89402449D01*
X143084690Y-89441132D01*
X143075198Y-89472423D01*
X143059783Y-89501263D01*
X143039039Y-89526539D01*
X143013763Y-89547283D01*
X142984923Y-89562698D01*
X142953632Y-89572190D01*
X142914949Y-89576000D01*
X141085051Y-89576000D01*
X141046368Y-89572190D01*
X141015077Y-89562698D01*
X140986237Y-89547283D01*
X140960961Y-89526539D01*
X140940217Y-89501263D01*
X140924802Y-89472423D01*
X140915310Y-89441132D01*
X140911500Y-89402449D01*
X140911500Y-87097551D01*
X140915310Y-87058868D01*
X140924802Y-87027577D01*
X140940217Y-86998737D01*
X140960961Y-86973461D01*
X140986237Y-86952717D01*
X141015077Y-86937302D01*
X141046368Y-86927810D01*
X141085051Y-86924000D01*
X142914949Y-86924000D01*
X142953632Y-86927810D01*
G37*
G36*
X140281938Y-88391716D02*
G01*
X140302557Y-88397971D01*
X140321553Y-88408124D01*
X140338208Y-88421792D01*
X140351876Y-88438447D01*
X140362029Y-88457443D01*
X140368284Y-88478062D01*
X140371000Y-88505640D01*
X140371000Y-88964360D01*
X140368284Y-88991938D01*
X140362029Y-89012557D01*
X140351876Y-89031553D01*
X140338208Y-89048208D01*
X140321553Y-89061876D01*
X140302557Y-89072029D01*
X140281938Y-89078284D01*
X140254360Y-89081000D01*
X139745640Y-89081000D01*
X139718062Y-89078284D01*
X139697443Y-89072029D01*
X139678447Y-89061876D01*
X139661792Y-89048208D01*
X139648124Y-89031553D01*
X139637971Y-89012557D01*
X139631716Y-88991938D01*
X139629000Y-88964360D01*
X139629000Y-88505640D01*
X139631716Y-88478062D01*
X139637971Y-88457443D01*
X139648124Y-88438447D01*
X139661792Y-88421792D01*
X139678447Y-88408124D01*
X139697443Y-88397971D01*
X139718062Y-88391716D01*
X139745640Y-88389000D01*
X140254360Y-88389000D01*
X140281938Y-88391716D01*
G37*
G36*
X154629591Y-88103085D02*
G01*
X154663569Y-88113393D01*
X154694890Y-88130134D01*
X154722339Y-88152661D01*
X154744866Y-88180110D01*
X154761607Y-88211431D01*
X154771915Y-88245409D01*
X154776000Y-88286890D01*
X154776000Y-88888110D01*
X154771915Y-88929591D01*
X154761607Y-88963569D01*
X154744866Y-88994890D01*
X154722339Y-89022339D01*
X154694890Y-89044866D01*
X154663569Y-89061607D01*
X154629591Y-89071915D01*
X154588110Y-89076000D01*
X153911890Y-89076000D01*
X153870409Y-89071915D01*
X153836431Y-89061607D01*
X153805110Y-89044866D01*
X153777661Y-89022339D01*
X153755134Y-88994890D01*
X153738393Y-88963569D01*
X153728085Y-88929591D01*
X153724000Y-88888110D01*
X153724000Y-88286890D01*
X153728085Y-88245409D01*
X153738393Y-88211431D01*
X153755134Y-88180110D01*
X153777661Y-88152661D01*
X153805110Y-88130134D01*
X153836431Y-88113393D01*
X153870409Y-88103085D01*
X153911890Y-88099000D01*
X154588110Y-88099000D01*
X154629591Y-88103085D01*
G37*
G36*
X161629591Y-88103085D02*
G01*
X161663569Y-88113393D01*
X161694890Y-88130134D01*
X161722339Y-88152661D01*
X161744866Y-88180110D01*
X161761607Y-88211431D01*
X161771915Y-88245409D01*
X161776000Y-88286890D01*
X161776000Y-88888110D01*
X161771915Y-88929591D01*
X161761607Y-88963569D01*
X161744866Y-88994890D01*
X161722339Y-89022339D01*
X161694890Y-89044866D01*
X161663569Y-89061607D01*
X161629591Y-89071915D01*
X161588110Y-89076000D01*
X160911890Y-89076000D01*
X160870409Y-89071915D01*
X160836431Y-89061607D01*
X160805110Y-89044866D01*
X160777661Y-89022339D01*
X160755134Y-88994890D01*
X160738393Y-88963569D01*
X160728085Y-88929591D01*
X160724000Y-88888110D01*
X160724000Y-88286890D01*
X160728085Y-88245409D01*
X160738393Y-88211431D01*
X160755134Y-88180110D01*
X160777661Y-88152661D01*
X160805110Y-88130134D01*
X160836431Y-88113393D01*
X160870409Y-88103085D01*
X160911890Y-88099000D01*
X161588110Y-88099000D01*
X161629591Y-88103085D01*
G37*
G36*
X159879591Y-88103085D02*
G01*
X159913569Y-88113393D01*
X159944890Y-88130134D01*
X159972339Y-88152661D01*
X159994866Y-88180110D01*
X160011607Y-88211431D01*
X160021915Y-88245409D01*
X160026000Y-88286890D01*
X160026000Y-88888110D01*
X160021915Y-88929591D01*
X160011607Y-88963569D01*
X159994866Y-88994890D01*
X159972339Y-89022339D01*
X159944890Y-89044866D01*
X159913569Y-89061607D01*
X159879591Y-89071915D01*
X159838110Y-89076000D01*
X159161890Y-89076000D01*
X159120409Y-89071915D01*
X159086431Y-89061607D01*
X159055110Y-89044866D01*
X159027661Y-89022339D01*
X159005134Y-88994890D01*
X158988393Y-88963569D01*
X158978085Y-88929591D01*
X158974000Y-88888110D01*
X158974000Y-88286890D01*
X158978085Y-88245409D01*
X158988393Y-88211431D01*
X159005134Y-88180110D01*
X159027661Y-88152661D01*
X159055110Y-88130134D01*
X159086431Y-88113393D01*
X159120409Y-88103085D01*
X159161890Y-88099000D01*
X159838110Y-88099000D01*
X159879591Y-88103085D01*
G37*
G36*
X158129591Y-88103085D02*
G01*
X158163569Y-88113393D01*
X158194890Y-88130134D01*
X158222339Y-88152661D01*
X158244866Y-88180110D01*
X158261607Y-88211431D01*
X158271915Y-88245409D01*
X158276000Y-88286890D01*
X158276000Y-88888110D01*
X158271915Y-88929591D01*
X158261607Y-88963569D01*
X158244866Y-88994890D01*
X158222339Y-89022339D01*
X158194890Y-89044866D01*
X158163569Y-89061607D01*
X158129591Y-89071915D01*
X158088110Y-89076000D01*
X157411890Y-89076000D01*
X157370409Y-89071915D01*
X157336431Y-89061607D01*
X157305110Y-89044866D01*
X157277661Y-89022339D01*
X157255134Y-88994890D01*
X157238393Y-88963569D01*
X157228085Y-88929591D01*
X157224000Y-88888110D01*
X157224000Y-88286890D01*
X157228085Y-88245409D01*
X157238393Y-88211431D01*
X157255134Y-88180110D01*
X157277661Y-88152661D01*
X157305110Y-88130134D01*
X157336431Y-88113393D01*
X157370409Y-88103085D01*
X157411890Y-88099000D01*
X158088110Y-88099000D01*
X158129591Y-88103085D01*
G37*
G36*
X156379591Y-88103085D02*
G01*
X156413569Y-88113393D01*
X156444890Y-88130134D01*
X156472339Y-88152661D01*
X156494866Y-88180110D01*
X156511607Y-88211431D01*
X156521915Y-88245409D01*
X156526000Y-88286890D01*
X156526000Y-88888110D01*
X156521915Y-88929591D01*
X156511607Y-88963569D01*
X156494866Y-88994890D01*
X156472339Y-89022339D01*
X156444890Y-89044866D01*
X156413569Y-89061607D01*
X156379591Y-89071915D01*
X156338110Y-89076000D01*
X155661890Y-89076000D01*
X155620409Y-89071915D01*
X155586431Y-89061607D01*
X155555110Y-89044866D01*
X155527661Y-89022339D01*
X155505134Y-88994890D01*
X155488393Y-88963569D01*
X155478085Y-88929591D01*
X155474000Y-88888110D01*
X155474000Y-88286890D01*
X155478085Y-88245409D01*
X155488393Y-88211431D01*
X155505134Y-88180110D01*
X155527661Y-88152661D01*
X155555110Y-88130134D01*
X155586431Y-88113393D01*
X155620409Y-88103085D01*
X155661890Y-88099000D01*
X156338110Y-88099000D01*
X156379591Y-88103085D01*
G37*
G36*
X140281938Y-87421716D02*
G01*
X140302557Y-87427971D01*
X140321553Y-87438124D01*
X140338208Y-87451792D01*
X140351876Y-87468447D01*
X140362029Y-87487443D01*
X140368284Y-87508062D01*
X140371000Y-87535640D01*
X140371000Y-87994360D01*
X140368284Y-88021938D01*
X140362029Y-88042557D01*
X140351876Y-88061553D01*
X140338208Y-88078208D01*
X140321553Y-88091876D01*
X140302557Y-88102029D01*
X140281938Y-88108284D01*
X140254360Y-88111000D01*
X139745640Y-88111000D01*
X139718062Y-88108284D01*
X139697443Y-88102029D01*
X139678447Y-88091876D01*
X139661792Y-88078208D01*
X139648124Y-88061553D01*
X139637971Y-88042557D01*
X139631716Y-88021938D01*
X139629000Y-87994360D01*
X139629000Y-87535640D01*
X139631716Y-87508062D01*
X139637971Y-87487443D01*
X139648124Y-87468447D01*
X139661792Y-87451792D01*
X139678447Y-87438124D01*
X139697443Y-87427971D01*
X139718062Y-87421716D01*
X139745640Y-87419000D01*
X140254360Y-87419000D01*
X140281938Y-87421716D01*
G37*
G36*
X154629591Y-86528085D02*
G01*
X154663569Y-86538393D01*
X154694890Y-86555134D01*
X154722339Y-86577661D01*
X154744866Y-86605110D01*
X154761607Y-86636431D01*
X154771915Y-86670409D01*
X154776000Y-86711890D01*
X154776000Y-87313110D01*
X154771915Y-87354591D01*
X154761607Y-87388569D01*
X154744866Y-87419890D01*
X154722339Y-87447339D01*
X154694890Y-87469866D01*
X154663569Y-87486607D01*
X154629591Y-87496915D01*
X154588110Y-87501000D01*
X153911890Y-87501000D01*
X153870409Y-87496915D01*
X153836431Y-87486607D01*
X153805110Y-87469866D01*
X153777661Y-87447339D01*
X153755134Y-87419890D01*
X153738393Y-87388569D01*
X153728085Y-87354591D01*
X153724000Y-87313110D01*
X153724000Y-86711890D01*
X153728085Y-86670409D01*
X153738393Y-86636431D01*
X153755134Y-86605110D01*
X153777661Y-86577661D01*
X153805110Y-86555134D01*
X153836431Y-86538393D01*
X153870409Y-86528085D01*
X153911890Y-86524000D01*
X154588110Y-86524000D01*
X154629591Y-86528085D01*
G37*
G36*
X161629591Y-86528085D02*
G01*
X161663569Y-86538393D01*
X161694890Y-86555134D01*
X161722339Y-86577661D01*
X161744866Y-86605110D01*
X161761607Y-86636431D01*
X161771915Y-86670409D01*
X161776000Y-86711890D01*
X161776000Y-87313110D01*
X161771915Y-87354591D01*
X161761607Y-87388569D01*
X161744866Y-87419890D01*
X161722339Y-87447339D01*
X161694890Y-87469866D01*
X161663569Y-87486607D01*
X161629591Y-87496915D01*
X161588110Y-87501000D01*
X160911890Y-87501000D01*
X160870409Y-87496915D01*
X160836431Y-87486607D01*
X160805110Y-87469866D01*
X160777661Y-87447339D01*
X160755134Y-87419890D01*
X160738393Y-87388569D01*
X160728085Y-87354591D01*
X160724000Y-87313110D01*
X160724000Y-86711890D01*
X160728085Y-86670409D01*
X160738393Y-86636431D01*
X160755134Y-86605110D01*
X160777661Y-86577661D01*
X160805110Y-86555134D01*
X160836431Y-86538393D01*
X160870409Y-86528085D01*
X160911890Y-86524000D01*
X161588110Y-86524000D01*
X161629591Y-86528085D01*
G37*
G36*
X159879591Y-86528085D02*
G01*
X159913569Y-86538393D01*
X159944890Y-86555134D01*
X159972339Y-86577661D01*
X159994866Y-86605110D01*
X160011607Y-86636431D01*
X160021915Y-86670409D01*
X160026000Y-86711890D01*
X160026000Y-87313110D01*
X160021915Y-87354591D01*
X160011607Y-87388569D01*
X159994866Y-87419890D01*
X159972339Y-87447339D01*
X159944890Y-87469866D01*
X159913569Y-87486607D01*
X159879591Y-87496915D01*
X159838110Y-87501000D01*
X159161890Y-87501000D01*
X159120409Y-87496915D01*
X159086431Y-87486607D01*
X159055110Y-87469866D01*
X159027661Y-87447339D01*
X159005134Y-87419890D01*
X158988393Y-87388569D01*
X158978085Y-87354591D01*
X158974000Y-87313110D01*
X158974000Y-86711890D01*
X158978085Y-86670409D01*
X158988393Y-86636431D01*
X159005134Y-86605110D01*
X159027661Y-86577661D01*
X159055110Y-86555134D01*
X159086431Y-86538393D01*
X159120409Y-86528085D01*
X159161890Y-86524000D01*
X159838110Y-86524000D01*
X159879591Y-86528085D01*
G37*
G36*
X158129591Y-86528085D02*
G01*
X158163569Y-86538393D01*
X158194890Y-86555134D01*
X158222339Y-86577661D01*
X158244866Y-86605110D01*
X158261607Y-86636431D01*
X158271915Y-86670409D01*
X158276000Y-86711890D01*
X158276000Y-87313110D01*
X158271915Y-87354591D01*
X158261607Y-87388569D01*
X158244866Y-87419890D01*
X158222339Y-87447339D01*
X158194890Y-87469866D01*
X158163569Y-87486607D01*
X158129591Y-87496915D01*
X158088110Y-87501000D01*
X157411890Y-87501000D01*
X157370409Y-87496915D01*
X157336431Y-87486607D01*
X157305110Y-87469866D01*
X157277661Y-87447339D01*
X157255134Y-87419890D01*
X157238393Y-87388569D01*
X157228085Y-87354591D01*
X157224000Y-87313110D01*
X157224000Y-86711890D01*
X157228085Y-86670409D01*
X157238393Y-86636431D01*
X157255134Y-86605110D01*
X157277661Y-86577661D01*
X157305110Y-86555134D01*
X157336431Y-86538393D01*
X157370409Y-86528085D01*
X157411890Y-86524000D01*
X158088110Y-86524000D01*
X158129591Y-86528085D01*
G37*
G36*
X156379591Y-86528085D02*
G01*
X156413569Y-86538393D01*
X156444890Y-86555134D01*
X156472339Y-86577661D01*
X156494866Y-86605110D01*
X156511607Y-86636431D01*
X156521915Y-86670409D01*
X156526000Y-86711890D01*
X156526000Y-87313110D01*
X156521915Y-87354591D01*
X156511607Y-87388569D01*
X156494866Y-87419890D01*
X156472339Y-87447339D01*
X156444890Y-87469866D01*
X156413569Y-87486607D01*
X156379591Y-87496915D01*
X156338110Y-87501000D01*
X155661890Y-87501000D01*
X155620409Y-87496915D01*
X155586431Y-87486607D01*
X155555110Y-87469866D01*
X155527661Y-87447339D01*
X155505134Y-87419890D01*
X155488393Y-87388569D01*
X155478085Y-87354591D01*
X155474000Y-87313110D01*
X155474000Y-86711890D01*
X155478085Y-86670409D01*
X155488393Y-86636431D01*
X155505134Y-86605110D01*
X155527661Y-86577661D01*
X155555110Y-86555134D01*
X155586431Y-86538393D01*
X155620409Y-86528085D01*
X155661890Y-86524000D01*
X156338110Y-86524000D01*
X156379591Y-86528085D01*
G37*
M02*
