G04 #@! TF.GenerationSoftware,KiCad,Pcbnew,(5.1.5-0-10_14)*
G04 #@! TF.CreationDate,2020-03-09T21:53:23-07:00*
G04 #@! TF.ProjectId,R1,52312e6b-6963-4616-945f-706362585858,rev?*
G04 #@! TF.SameCoordinates,Original*
G04 #@! TF.FileFunction,Copper,L3,Inr*
G04 #@! TF.FilePolarity,Positive*
%FSLAX46Y46*%
G04 Gerber Fmt 4.6, Leading zero omitted, Abs format (unit mm)*
G04 Created by KiCad (PCBNEW (5.1.5-0-10_14)) date 2020-03-09 21:53:23*
%MOMM*%
%LPD*%
G04 APERTURE LIST*
%ADD10C,0.500000*%
%ADD11C,4.500000*%
%ADD12C,0.600000*%
%ADD13C,0.800000*%
%ADD14C,0.254000*%
G04 APERTURE END LIST*
D10*
X158450000Y-111950000D03*
X157050000Y-111950000D03*
X158450000Y-110750000D03*
X157050000Y-110750000D03*
X158450000Y-109550000D03*
X157050000Y-109550000D03*
D11*
X127600000Y-88700000D03*
X127600000Y-112900000D03*
D12*
X161700000Y-95500000D03*
X161700000Y-97000000D03*
X132800000Y-106400000D03*
X132500000Y-105300000D03*
X136300000Y-89400000D03*
X134900000Y-89400000D03*
X133500000Y-89400000D03*
X132400000Y-90200000D03*
X131400000Y-91200000D03*
X130400000Y-92200000D03*
X129400000Y-93200000D03*
X134800000Y-91800000D03*
X133700000Y-92500000D03*
X132700000Y-93500000D03*
X131700000Y-94500000D03*
X137500000Y-90100000D03*
X136500000Y-106000000D03*
X135300000Y-107400000D03*
X133300000Y-108700000D03*
X132100000Y-108700000D03*
X130900000Y-108500000D03*
X130400000Y-107300000D03*
X131800000Y-104500000D03*
X130400000Y-104500000D03*
X129000000Y-104500000D03*
X134000000Y-105100000D03*
X129200000Y-108000000D03*
X127600000Y-106300000D03*
X127600000Y-94800000D03*
X134500000Y-108250000D03*
X135100000Y-104200000D03*
D13*
X149800000Y-107400000D03*
D12*
X150400000Y-92600000D03*
X151000000Y-89800000D03*
X154600000Y-89800000D03*
X154000000Y-92900000D03*
X157600000Y-92800000D03*
X164200000Y-90400000D03*
X164200000Y-91200000D03*
X166300000Y-99900000D03*
X168258410Y-96658410D03*
X167200000Y-104200000D03*
X156600000Y-102000000D03*
X158400000Y-103600000D03*
X149800000Y-105400000D03*
X149800000Y-104600000D03*
X149700000Y-100600000D03*
X149700000Y-99800000D03*
X135200000Y-95600000D03*
X135200000Y-96200000D03*
X140800000Y-94400000D03*
X142500000Y-98300000D03*
X140900000Y-99800000D03*
X144175000Y-99800000D03*
X142500000Y-101300000D03*
X137650000Y-101250000D03*
X145157207Y-88038400D03*
X129200000Y-96300000D03*
X131200000Y-95700000D03*
X160500000Y-91800000D03*
D13*
X128000000Y-101000000D03*
X128000000Y-100200000D03*
X128800000Y-99800000D03*
X128800000Y-100600000D03*
X128800000Y-101400000D03*
X149000000Y-114600000D03*
X149800000Y-114600000D03*
X151400000Y-114600000D03*
X150600000Y-114600000D03*
D12*
X135250000Y-100750000D03*
X157750000Y-89500000D03*
X166450000Y-103250000D03*
X157250000Y-100375000D03*
X153250000Y-87500000D03*
X155000000Y-87800000D03*
X156839471Y-87679752D03*
X160193996Y-88547968D03*
X136500000Y-109500000D03*
X159250000Y-100750000D03*
X159274968Y-97750000D03*
X160275336Y-87752102D03*
X162250000Y-98750010D03*
X137750000Y-108874990D03*
X157146641Y-104774968D03*
X155500000Y-102275017D03*
X155100000Y-100900000D03*
X144750011Y-93200004D03*
X135296647Y-97796647D03*
X142000000Y-93300000D03*
X143900008Y-89900000D03*
X143500000Y-93250000D03*
X143999989Y-90719460D03*
X159324990Y-93750000D03*
X159324990Y-94750000D03*
X159632059Y-95895108D03*
X141500000Y-109250000D03*
X159249990Y-101750000D03*
X158625010Y-96696960D03*
X140750000Y-110000000D03*
X159250000Y-102750000D03*
X158000000Y-95800000D03*
X167558051Y-97358051D03*
X167800000Y-95200000D03*
X164900000Y-98556250D03*
X164974990Y-95842999D03*
X165600000Y-99181250D03*
X165574990Y-95300000D03*
X166395793Y-94495308D03*
X168159620Y-111600000D03*
X168650000Y-111250000D03*
X135085568Y-103298316D03*
X166289442Y-102210558D03*
X164500000Y-102250000D03*
X156500000Y-97750000D03*
X156150000Y-93360000D03*
X163100000Y-87400006D03*
D13*
X167400000Y-108700000D03*
D12*
X135366942Y-102000000D03*
D14*
G36*
X159873000Y-86906719D02*
G01*
X159832447Y-86923516D01*
X159679308Y-87025840D01*
X159549074Y-87156074D01*
X159446750Y-87309213D01*
X159376268Y-87479373D01*
X159340336Y-87660013D01*
X159340336Y-87844191D01*
X159376268Y-88024831D01*
X159392632Y-88064338D01*
X159365410Y-88105079D01*
X159294928Y-88275239D01*
X159258996Y-88455879D01*
X159258996Y-88640057D01*
X159294928Y-88820697D01*
X159365410Y-88990857D01*
X159467734Y-89143996D01*
X159597968Y-89274230D01*
X159751107Y-89376554D01*
X159873000Y-89427043D01*
X159873000Y-91104710D01*
X159773738Y-91203972D01*
X159671414Y-91357111D01*
X159600932Y-91527271D01*
X159565000Y-91707911D01*
X159565000Y-91892089D01*
X159600932Y-92072729D01*
X159671414Y-92242889D01*
X159773738Y-92396028D01*
X159873000Y-92495290D01*
X159873000Y-92991653D01*
X159767879Y-92921414D01*
X159597719Y-92850932D01*
X159417079Y-92815000D01*
X159232901Y-92815000D01*
X159052261Y-92850932D01*
X158882101Y-92921414D01*
X158728962Y-93023738D01*
X158598728Y-93153972D01*
X158496404Y-93307111D01*
X158425922Y-93477271D01*
X158389990Y-93657911D01*
X158389990Y-93842089D01*
X158425922Y-94022729D01*
X158496404Y-94192889D01*
X158534564Y-94250000D01*
X158496404Y-94307111D01*
X158425922Y-94477271D01*
X158389990Y-94657911D01*
X158389990Y-94842089D01*
X158413275Y-94959147D01*
X158272729Y-94900932D01*
X158092089Y-94865000D01*
X157907911Y-94865000D01*
X157727271Y-94900932D01*
X157557111Y-94971414D01*
X157403972Y-95073738D01*
X157273738Y-95203972D01*
X157171414Y-95357111D01*
X157100932Y-95527271D01*
X157065000Y-95707911D01*
X157065000Y-95892089D01*
X157100932Y-96072729D01*
X157171414Y-96242889D01*
X157273738Y-96396028D01*
X157403972Y-96526262D01*
X157557111Y-96628586D01*
X157690010Y-96683634D01*
X157690010Y-96789049D01*
X157725942Y-96969689D01*
X157796424Y-97139849D01*
X157898748Y-97292988D01*
X158028982Y-97423222D01*
X158182121Y-97525546D01*
X158352278Y-97596027D01*
X158339968Y-97657911D01*
X158339968Y-97842089D01*
X158375900Y-98022729D01*
X158446382Y-98192889D01*
X158548706Y-98346028D01*
X158678940Y-98476262D01*
X158832079Y-98578586D01*
X159002239Y-98649068D01*
X159182879Y-98685000D01*
X159367057Y-98685000D01*
X159547697Y-98649068D01*
X159717857Y-98578586D01*
X159870996Y-98476262D01*
X159873000Y-98474258D01*
X159873000Y-100050710D01*
X159846028Y-100023738D01*
X159692889Y-99921414D01*
X159522729Y-99850932D01*
X159342089Y-99815000D01*
X159157911Y-99815000D01*
X158977271Y-99850932D01*
X158807111Y-99921414D01*
X158653972Y-100023738D01*
X158523738Y-100153972D01*
X158421414Y-100307111D01*
X158350932Y-100477271D01*
X158315000Y-100657911D01*
X158315000Y-100842089D01*
X158350932Y-101022729D01*
X158421414Y-101192889D01*
X158459569Y-101249993D01*
X158421404Y-101307111D01*
X158350922Y-101477271D01*
X158314990Y-101657911D01*
X158314990Y-101842089D01*
X158350922Y-102022729D01*
X158421404Y-102192889D01*
X158459569Y-102250007D01*
X158421414Y-102307111D01*
X158350932Y-102477271D01*
X158315000Y-102657911D01*
X158315000Y-102665000D01*
X158307911Y-102665000D01*
X158127271Y-102700932D01*
X157957111Y-102771414D01*
X157803972Y-102873738D01*
X157673738Y-103003972D01*
X157571414Y-103157111D01*
X157500932Y-103327271D01*
X157465000Y-103507911D01*
X157465000Y-103692089D01*
X157500932Y-103872729D01*
X157519409Y-103917337D01*
X157419370Y-103875900D01*
X157238730Y-103839968D01*
X157054552Y-103839968D01*
X156873912Y-103875900D01*
X156703752Y-103946382D01*
X156550613Y-104048706D01*
X156420379Y-104178940D01*
X156318055Y-104332079D01*
X156247573Y-104502239D01*
X156211641Y-104682879D01*
X156211641Y-104867057D01*
X156247573Y-105047697D01*
X156318055Y-105217857D01*
X156420379Y-105370996D01*
X156550613Y-105501230D01*
X156703752Y-105603554D01*
X156873912Y-105674036D01*
X157054552Y-105709968D01*
X157238730Y-105709968D01*
X157419370Y-105674036D01*
X157589530Y-105603554D01*
X157742669Y-105501230D01*
X157872903Y-105370996D01*
X157975227Y-105217857D01*
X158045709Y-105047697D01*
X158081641Y-104867057D01*
X158081641Y-104682879D01*
X158045709Y-104502239D01*
X158027232Y-104457631D01*
X158127271Y-104499068D01*
X158307911Y-104535000D01*
X158492089Y-104535000D01*
X158672729Y-104499068D01*
X158842889Y-104428586D01*
X158996028Y-104326262D01*
X159126262Y-104196028D01*
X159228586Y-104042889D01*
X159299068Y-103872729D01*
X159335000Y-103692089D01*
X159335000Y-103685000D01*
X159342089Y-103685000D01*
X159522729Y-103649068D01*
X159692889Y-103578586D01*
X159846028Y-103476262D01*
X159873000Y-103449290D01*
X159873000Y-115115000D01*
X129465006Y-115115000D01*
X129840926Y-114739080D01*
X130156654Y-114266560D01*
X130374131Y-113741523D01*
X130485000Y-113184148D01*
X130485000Y-112615852D01*
X130374131Y-112058477D01*
X130156654Y-111533440D01*
X129840926Y-111060920D01*
X129439080Y-110659074D01*
X128966560Y-110343346D01*
X128441523Y-110125869D01*
X127884148Y-110015000D01*
X127315852Y-110015000D01*
X126758477Y-110125869D01*
X126233440Y-110343346D01*
X125760920Y-110659074D01*
X125385000Y-111034994D01*
X125385000Y-106207911D01*
X126665000Y-106207911D01*
X126665000Y-106392089D01*
X126700932Y-106572729D01*
X126771414Y-106742889D01*
X126873738Y-106896028D01*
X127003972Y-107026262D01*
X127157111Y-107128586D01*
X127327271Y-107199068D01*
X127507911Y-107235000D01*
X127692089Y-107235000D01*
X127872729Y-107199068D01*
X128042889Y-107128586D01*
X128196028Y-107026262D01*
X128326262Y-106896028D01*
X128428586Y-106742889D01*
X128499068Y-106572729D01*
X128535000Y-106392089D01*
X128535000Y-106207911D01*
X128499068Y-106027271D01*
X128428586Y-105857111D01*
X128326262Y-105703972D01*
X128196028Y-105573738D01*
X128042889Y-105471414D01*
X127872729Y-105400932D01*
X127692089Y-105365000D01*
X127507911Y-105365000D01*
X127327271Y-105400932D01*
X127157111Y-105471414D01*
X127003972Y-105573738D01*
X126873738Y-105703972D01*
X126771414Y-105857111D01*
X126700932Y-106027271D01*
X126665000Y-106207911D01*
X125385000Y-106207911D01*
X125385000Y-104407911D01*
X128065000Y-104407911D01*
X128065000Y-104592089D01*
X128100932Y-104772729D01*
X128171414Y-104942889D01*
X128273738Y-105096028D01*
X128403972Y-105226262D01*
X128557111Y-105328586D01*
X128727271Y-105399068D01*
X128907911Y-105435000D01*
X129092089Y-105435000D01*
X129272729Y-105399068D01*
X129442889Y-105328586D01*
X129596028Y-105226262D01*
X129700000Y-105122290D01*
X129803972Y-105226262D01*
X129957111Y-105328586D01*
X130127271Y-105399068D01*
X130307911Y-105435000D01*
X130492089Y-105435000D01*
X130672729Y-105399068D01*
X130842889Y-105328586D01*
X130996028Y-105226262D01*
X131100000Y-105122290D01*
X131203972Y-105226262D01*
X131357111Y-105328586D01*
X131527271Y-105399068D01*
X131568000Y-105407170D01*
X131600932Y-105572729D01*
X131671414Y-105742889D01*
X131773738Y-105896028D01*
X131903972Y-106026262D01*
X131934360Y-106046567D01*
X131900932Y-106127271D01*
X131865000Y-106307911D01*
X131865000Y-106492089D01*
X131900932Y-106672729D01*
X131971414Y-106842889D01*
X132073738Y-106996028D01*
X132203972Y-107126262D01*
X132357111Y-107228586D01*
X132527271Y-107299068D01*
X132707911Y-107335000D01*
X132892089Y-107335000D01*
X133072729Y-107299068D01*
X133242889Y-107228586D01*
X133396028Y-107126262D01*
X133526262Y-106996028D01*
X133628586Y-106842889D01*
X133699068Y-106672729D01*
X133735000Y-106492089D01*
X133735000Y-106307911D01*
X133699068Y-106127271D01*
X133629126Y-105958415D01*
X133727271Y-105999068D01*
X133907911Y-106035000D01*
X134092089Y-106035000D01*
X134272729Y-105999068D01*
X134442889Y-105928586D01*
X134596028Y-105826262D01*
X134726262Y-105696028D01*
X134828586Y-105542889D01*
X134899068Y-105372729D01*
X134935000Y-105192089D01*
X134935000Y-105120497D01*
X135007911Y-105135000D01*
X135165000Y-105135000D01*
X135165000Y-106351599D01*
X135176779Y-106471193D01*
X135027271Y-106500932D01*
X134857111Y-106571414D01*
X134703972Y-106673738D01*
X134573738Y-106803972D01*
X134471414Y-106957111D01*
X134400932Y-107127271D01*
X134365000Y-107307911D01*
X134365000Y-107323536D01*
X134227271Y-107350932D01*
X134057111Y-107421414D01*
X133903972Y-107523738D01*
X133773738Y-107653972D01*
X133671414Y-107807111D01*
X133659147Y-107836727D01*
X133572729Y-107800932D01*
X133392089Y-107765000D01*
X133207911Y-107765000D01*
X133027271Y-107800932D01*
X132857111Y-107871414D01*
X132703972Y-107973738D01*
X132700000Y-107977710D01*
X132696028Y-107973738D01*
X132542889Y-107871414D01*
X132372729Y-107800932D01*
X132192089Y-107765000D01*
X132007911Y-107765000D01*
X131827271Y-107800932D01*
X131657111Y-107871414D01*
X131619101Y-107896811D01*
X131496028Y-107773738D01*
X131342889Y-107671414D01*
X131270595Y-107641469D01*
X131299068Y-107572729D01*
X131335000Y-107392089D01*
X131335000Y-107207911D01*
X131299068Y-107027271D01*
X131228586Y-106857111D01*
X131126262Y-106703972D01*
X130996028Y-106573738D01*
X130842889Y-106471414D01*
X130672729Y-106400932D01*
X130492089Y-106365000D01*
X130307911Y-106365000D01*
X130127271Y-106400932D01*
X129957111Y-106471414D01*
X129803972Y-106573738D01*
X129673738Y-106703972D01*
X129571414Y-106857111D01*
X129500932Y-107027271D01*
X129485248Y-107106118D01*
X129472729Y-107100932D01*
X129292089Y-107065000D01*
X129107911Y-107065000D01*
X128927271Y-107100932D01*
X128757111Y-107171414D01*
X128603972Y-107273738D01*
X128473738Y-107403972D01*
X128371414Y-107557111D01*
X128300932Y-107727271D01*
X128265000Y-107907911D01*
X128265000Y-108092089D01*
X128300932Y-108272729D01*
X128371414Y-108442889D01*
X128473738Y-108596028D01*
X128603972Y-108726262D01*
X128757111Y-108828586D01*
X128927271Y-108899068D01*
X129107911Y-108935000D01*
X129292089Y-108935000D01*
X129472729Y-108899068D01*
X129642889Y-108828586D01*
X129796028Y-108726262D01*
X129926262Y-108596028D01*
X129965000Y-108538052D01*
X129965000Y-108592089D01*
X130000932Y-108772729D01*
X130071414Y-108942889D01*
X130173738Y-109096028D01*
X130303972Y-109226262D01*
X130457111Y-109328586D01*
X130627271Y-109399068D01*
X130807911Y-109435000D01*
X130992089Y-109435000D01*
X131172729Y-109399068D01*
X131342889Y-109328586D01*
X131380899Y-109303189D01*
X131503972Y-109426262D01*
X131657111Y-109528586D01*
X131827271Y-109599068D01*
X132007911Y-109635000D01*
X132192089Y-109635000D01*
X132372729Y-109599068D01*
X132542889Y-109528586D01*
X132696028Y-109426262D01*
X132700000Y-109422290D01*
X132703972Y-109426262D01*
X132857111Y-109528586D01*
X133027271Y-109599068D01*
X133207911Y-109635000D01*
X133392089Y-109635000D01*
X133572729Y-109599068D01*
X133742889Y-109528586D01*
X133896028Y-109426262D01*
X133914379Y-109407911D01*
X135565000Y-109407911D01*
X135565000Y-109592089D01*
X135600932Y-109772729D01*
X135671414Y-109942889D01*
X135773738Y-110096028D01*
X135903972Y-110226262D01*
X136057111Y-110328586D01*
X136227271Y-110399068D01*
X136407911Y-110435000D01*
X136592089Y-110435000D01*
X136772729Y-110399068D01*
X136942889Y-110328586D01*
X137096028Y-110226262D01*
X137226262Y-110096028D01*
X137328586Y-109942889D01*
X137343074Y-109907911D01*
X139815000Y-109907911D01*
X139815000Y-110092089D01*
X139850932Y-110272729D01*
X139921414Y-110442889D01*
X140023738Y-110596028D01*
X140153972Y-110726262D01*
X140307111Y-110828586D01*
X140477271Y-110899068D01*
X140657911Y-110935000D01*
X140842089Y-110935000D01*
X141022729Y-110899068D01*
X141192889Y-110828586D01*
X141346028Y-110726262D01*
X141476262Y-110596028D01*
X141578586Y-110442889D01*
X141649068Y-110272729D01*
X141669585Y-110169585D01*
X141772729Y-110149068D01*
X141942889Y-110078586D01*
X142096028Y-109976262D01*
X142226262Y-109846028D01*
X142328586Y-109692889D01*
X142399068Y-109522729D01*
X142410981Y-109462835D01*
X156165000Y-109462835D01*
X156165000Y-109637165D01*
X156199010Y-109808145D01*
X156265723Y-109969205D01*
X156362576Y-110114155D01*
X156398421Y-110150000D01*
X156362576Y-110185845D01*
X156265723Y-110330795D01*
X156199010Y-110491855D01*
X156165000Y-110662835D01*
X156165000Y-110837165D01*
X156199010Y-111008145D01*
X156265723Y-111169205D01*
X156362576Y-111314155D01*
X156398421Y-111350000D01*
X156362576Y-111385845D01*
X156265723Y-111530795D01*
X156199010Y-111691855D01*
X156165000Y-111862835D01*
X156165000Y-112037165D01*
X156199010Y-112208145D01*
X156265723Y-112369205D01*
X156362576Y-112514155D01*
X156485845Y-112637424D01*
X156630795Y-112734277D01*
X156791855Y-112800990D01*
X156962835Y-112835000D01*
X157137165Y-112835000D01*
X157308145Y-112800990D01*
X157469205Y-112734277D01*
X157614155Y-112637424D01*
X157737424Y-112514155D01*
X157750000Y-112495334D01*
X157762576Y-112514155D01*
X157885845Y-112637424D01*
X158030795Y-112734277D01*
X158191855Y-112800990D01*
X158362835Y-112835000D01*
X158537165Y-112835000D01*
X158708145Y-112800990D01*
X158869205Y-112734277D01*
X159014155Y-112637424D01*
X159137424Y-112514155D01*
X159234277Y-112369205D01*
X159300990Y-112208145D01*
X159335000Y-112037165D01*
X159335000Y-111862835D01*
X159300990Y-111691855D01*
X159234277Y-111530795D01*
X159137424Y-111385845D01*
X159101579Y-111350000D01*
X159137424Y-111314155D01*
X159234277Y-111169205D01*
X159300990Y-111008145D01*
X159335000Y-110837165D01*
X159335000Y-110662835D01*
X159300990Y-110491855D01*
X159234277Y-110330795D01*
X159137424Y-110185845D01*
X159101579Y-110150000D01*
X159137424Y-110114155D01*
X159234277Y-109969205D01*
X159300990Y-109808145D01*
X159335000Y-109637165D01*
X159335000Y-109462835D01*
X159300990Y-109291855D01*
X159234277Y-109130795D01*
X159137424Y-108985845D01*
X159014155Y-108862576D01*
X158869205Y-108765723D01*
X158708145Y-108699010D01*
X158537165Y-108665000D01*
X158362835Y-108665000D01*
X158191855Y-108699010D01*
X158030795Y-108765723D01*
X157885845Y-108862576D01*
X157762576Y-108985845D01*
X157750000Y-109004666D01*
X157737424Y-108985845D01*
X157614155Y-108862576D01*
X157469205Y-108765723D01*
X157308145Y-108699010D01*
X157137165Y-108665000D01*
X156962835Y-108665000D01*
X156791855Y-108699010D01*
X156630795Y-108765723D01*
X156485845Y-108862576D01*
X156362576Y-108985845D01*
X156265723Y-109130795D01*
X156199010Y-109291855D01*
X156165000Y-109462835D01*
X142410981Y-109462835D01*
X142435000Y-109342089D01*
X142435000Y-109157911D01*
X142399068Y-108977271D01*
X142328586Y-108807111D01*
X142226262Y-108653972D01*
X142096028Y-108523738D01*
X141942889Y-108421414D01*
X141772729Y-108350932D01*
X141592089Y-108315000D01*
X141407911Y-108315000D01*
X141227271Y-108350932D01*
X141057111Y-108421414D01*
X140903972Y-108523738D01*
X140773738Y-108653972D01*
X140671414Y-108807111D01*
X140600932Y-108977271D01*
X140580415Y-109080415D01*
X140477271Y-109100932D01*
X140307111Y-109171414D01*
X140153972Y-109273738D01*
X140023738Y-109403972D01*
X139921414Y-109557111D01*
X139850932Y-109727271D01*
X139815000Y-109907911D01*
X137343074Y-109907911D01*
X137399068Y-109772729D01*
X137404777Y-109744030D01*
X137477271Y-109774058D01*
X137657911Y-109809990D01*
X137842089Y-109809990D01*
X138022729Y-109774058D01*
X138192889Y-109703576D01*
X138346028Y-109601252D01*
X138476262Y-109471018D01*
X138578586Y-109317879D01*
X138649068Y-109147719D01*
X138685000Y-108967079D01*
X138685000Y-108782901D01*
X138649068Y-108602261D01*
X138578586Y-108432101D01*
X138476262Y-108278962D01*
X138346028Y-108148728D01*
X138192889Y-108046404D01*
X138022729Y-107975922D01*
X137842089Y-107939990D01*
X137657911Y-107939990D01*
X137477271Y-107975922D01*
X137307111Y-108046404D01*
X137153972Y-108148728D01*
X137023738Y-108278962D01*
X136921414Y-108432101D01*
X136850932Y-108602261D01*
X136845223Y-108630960D01*
X136772729Y-108600932D01*
X136592089Y-108565000D01*
X136407911Y-108565000D01*
X136227271Y-108600932D01*
X136057111Y-108671414D01*
X135903972Y-108773738D01*
X135773738Y-108903972D01*
X135671414Y-109057111D01*
X135600932Y-109227271D01*
X135565000Y-109407911D01*
X133914379Y-109407911D01*
X134026262Y-109296028D01*
X134128586Y-109142889D01*
X134140853Y-109113273D01*
X134227271Y-109149068D01*
X134407911Y-109185000D01*
X134592089Y-109185000D01*
X134772729Y-109149068D01*
X134942889Y-109078586D01*
X135096028Y-108976262D01*
X135226262Y-108846028D01*
X135328586Y-108692889D01*
X135399068Y-108522729D01*
X135435000Y-108342089D01*
X135435000Y-108326464D01*
X135572729Y-108299068D01*
X135742889Y-108228586D01*
X135896028Y-108126262D01*
X136026262Y-107996028D01*
X136128586Y-107842889D01*
X136199068Y-107672729D01*
X136235000Y-107492089D01*
X136235000Y-107307911D01*
X136233041Y-107298061D01*
X148765000Y-107298061D01*
X148765000Y-107501939D01*
X148804774Y-107701898D01*
X148882795Y-107890256D01*
X148996063Y-108059774D01*
X149140226Y-108203937D01*
X149309744Y-108317205D01*
X149498102Y-108395226D01*
X149698061Y-108435000D01*
X149901939Y-108435000D01*
X150101898Y-108395226D01*
X150290256Y-108317205D01*
X150459774Y-108203937D01*
X150603937Y-108059774D01*
X150717205Y-107890256D01*
X150795226Y-107701898D01*
X150835000Y-107501939D01*
X150835000Y-107298061D01*
X150795226Y-107098102D01*
X150717205Y-106909744D01*
X150603937Y-106740226D01*
X150459774Y-106596063D01*
X150290256Y-106482795D01*
X150101898Y-106404774D01*
X149901939Y-106365000D01*
X149698061Y-106365000D01*
X149498102Y-106404774D01*
X149309744Y-106482795D01*
X149140226Y-106596063D01*
X148996063Y-106740226D01*
X148882795Y-106909744D01*
X148804774Y-107098102D01*
X148765000Y-107298061D01*
X136233041Y-107298061D01*
X136199068Y-107127271D01*
X136140800Y-106986599D01*
X137200000Y-106986599D01*
X137323882Y-106974398D01*
X137443004Y-106938263D01*
X137552787Y-106879582D01*
X137649013Y-106800612D01*
X137727983Y-106704386D01*
X137786664Y-106594603D01*
X137822799Y-106475481D01*
X137835000Y-106351599D01*
X137835000Y-104507911D01*
X148865000Y-104507911D01*
X148865000Y-104692089D01*
X148900932Y-104872729D01*
X148953649Y-105000000D01*
X148900932Y-105127271D01*
X148865000Y-105307911D01*
X148865000Y-105492089D01*
X148900932Y-105672729D01*
X148971414Y-105842889D01*
X149073738Y-105996028D01*
X149203972Y-106126262D01*
X149357111Y-106228586D01*
X149527271Y-106299068D01*
X149707911Y-106335000D01*
X149892089Y-106335000D01*
X150072729Y-106299068D01*
X150242889Y-106228586D01*
X150396028Y-106126262D01*
X150526262Y-105996028D01*
X150628586Y-105842889D01*
X150699068Y-105672729D01*
X150735000Y-105492089D01*
X150735000Y-105307911D01*
X150699068Y-105127271D01*
X150646351Y-105000000D01*
X150699068Y-104872729D01*
X150735000Y-104692089D01*
X150735000Y-104507911D01*
X150699068Y-104327271D01*
X150628586Y-104157111D01*
X150526262Y-104003972D01*
X150396028Y-103873738D01*
X150242889Y-103771414D01*
X150072729Y-103700932D01*
X149892089Y-103665000D01*
X149707911Y-103665000D01*
X149527271Y-103700932D01*
X149357111Y-103771414D01*
X149203972Y-103873738D01*
X149073738Y-104003972D01*
X148971414Y-104157111D01*
X148900932Y-104327271D01*
X148865000Y-104507911D01*
X137835000Y-104507911D01*
X137835000Y-103451599D01*
X137822799Y-103327717D01*
X137786664Y-103208595D01*
X137727983Y-103098812D01*
X137649013Y-103002586D01*
X137552787Y-102923616D01*
X137443004Y-102864935D01*
X137323882Y-102828800D01*
X137200000Y-102816599D01*
X135888210Y-102816599D01*
X135869555Y-102788680D01*
X135962970Y-102726262D01*
X136093204Y-102596028D01*
X136195528Y-102442889D01*
X136266010Y-102272729D01*
X136301942Y-102092089D01*
X136301942Y-101907911D01*
X136266010Y-101727271D01*
X136195528Y-101557111D01*
X136093204Y-101403972D01*
X135999893Y-101310661D01*
X136078586Y-101192889D01*
X136093074Y-101157911D01*
X136715000Y-101157911D01*
X136715000Y-101342089D01*
X136750932Y-101522729D01*
X136821414Y-101692889D01*
X136923738Y-101846028D01*
X137053972Y-101976262D01*
X137207111Y-102078586D01*
X137377271Y-102149068D01*
X137557911Y-102185000D01*
X137742089Y-102185000D01*
X137922729Y-102149068D01*
X138092889Y-102078586D01*
X138246028Y-101976262D01*
X138376262Y-101846028D01*
X138478586Y-101692889D01*
X138549068Y-101522729D01*
X138585000Y-101342089D01*
X138585000Y-101207911D01*
X141565000Y-101207911D01*
X141565000Y-101392089D01*
X141600932Y-101572729D01*
X141671414Y-101742889D01*
X141773738Y-101896028D01*
X141903972Y-102026262D01*
X142057111Y-102128586D01*
X142227271Y-102199068D01*
X142407911Y-102235000D01*
X142592089Y-102235000D01*
X142772729Y-102199068D01*
X142942889Y-102128586D01*
X143096028Y-102026262D01*
X143226262Y-101896028D01*
X143328586Y-101742889D01*
X143399068Y-101572729D01*
X143435000Y-101392089D01*
X143435000Y-101207911D01*
X143399068Y-101027271D01*
X143328586Y-100857111D01*
X143226262Y-100703972D01*
X143096028Y-100573738D01*
X142942889Y-100471414D01*
X142772729Y-100400932D01*
X142592089Y-100365000D01*
X142407911Y-100365000D01*
X142227271Y-100400932D01*
X142057111Y-100471414D01*
X141903972Y-100573738D01*
X141773738Y-100703972D01*
X141671414Y-100857111D01*
X141600932Y-101027271D01*
X141565000Y-101207911D01*
X138585000Y-101207911D01*
X138585000Y-101157911D01*
X138549068Y-100977271D01*
X138478586Y-100807111D01*
X138376262Y-100653972D01*
X138246028Y-100523738D01*
X138092889Y-100421414D01*
X137922729Y-100350932D01*
X137742089Y-100315000D01*
X137557911Y-100315000D01*
X137377271Y-100350932D01*
X137207111Y-100421414D01*
X137053972Y-100523738D01*
X136923738Y-100653972D01*
X136821414Y-100807111D01*
X136750932Y-100977271D01*
X136715000Y-101157911D01*
X136093074Y-101157911D01*
X136149068Y-101022729D01*
X136185000Y-100842089D01*
X136185000Y-100657911D01*
X136149068Y-100477271D01*
X136078586Y-100307111D01*
X135976262Y-100153972D01*
X135846028Y-100023738D01*
X135692889Y-99921414D01*
X135522729Y-99850932D01*
X135342089Y-99815000D01*
X135157911Y-99815000D01*
X134977271Y-99850932D01*
X134807111Y-99921414D01*
X134653972Y-100023738D01*
X134523738Y-100153972D01*
X134421414Y-100307111D01*
X134350932Y-100477271D01*
X134315000Y-100657911D01*
X134315000Y-100842089D01*
X134350932Y-101022729D01*
X134421414Y-101192889D01*
X134523738Y-101346028D01*
X134617049Y-101439339D01*
X134538356Y-101557111D01*
X134467874Y-101727271D01*
X134431942Y-101907911D01*
X134431942Y-102092089D01*
X134467874Y-102272729D01*
X134538356Y-102442889D01*
X134582955Y-102509636D01*
X134489540Y-102572054D01*
X134359306Y-102702288D01*
X134256982Y-102855427D01*
X134186500Y-103025587D01*
X134150568Y-103206227D01*
X134150568Y-103390405D01*
X134186500Y-103571045D01*
X134256982Y-103741205D01*
X134269958Y-103760625D01*
X134200932Y-103927271D01*
X134165000Y-104107911D01*
X134165000Y-104179503D01*
X134092089Y-104165000D01*
X133907911Y-104165000D01*
X133727271Y-104200932D01*
X133557111Y-104271414D01*
X133403972Y-104373738D01*
X133273738Y-104503972D01*
X133174613Y-104652323D01*
X133096028Y-104573738D01*
X132942889Y-104471414D01*
X132772729Y-104400932D01*
X132732000Y-104392830D01*
X132699068Y-104227271D01*
X132628586Y-104057111D01*
X132526262Y-103903972D01*
X132396028Y-103773738D01*
X132242889Y-103671414D01*
X132072729Y-103600932D01*
X131892089Y-103565000D01*
X131707911Y-103565000D01*
X131527271Y-103600932D01*
X131357111Y-103671414D01*
X131203972Y-103773738D01*
X131100000Y-103877710D01*
X130996028Y-103773738D01*
X130842889Y-103671414D01*
X130672729Y-103600932D01*
X130492089Y-103565000D01*
X130307911Y-103565000D01*
X130127271Y-103600932D01*
X129957111Y-103671414D01*
X129803972Y-103773738D01*
X129700000Y-103877710D01*
X129596028Y-103773738D01*
X129442889Y-103671414D01*
X129272729Y-103600932D01*
X129092089Y-103565000D01*
X128907911Y-103565000D01*
X128727271Y-103600932D01*
X128557111Y-103671414D01*
X128403972Y-103773738D01*
X128273738Y-103903972D01*
X128171414Y-104057111D01*
X128100932Y-104227271D01*
X128065000Y-104407911D01*
X125385000Y-104407911D01*
X125385000Y-99707911D01*
X139965000Y-99707911D01*
X139965000Y-99892089D01*
X140000932Y-100072729D01*
X140071414Y-100242889D01*
X140173738Y-100396028D01*
X140303972Y-100526262D01*
X140457111Y-100628586D01*
X140627271Y-100699068D01*
X140807911Y-100735000D01*
X140992089Y-100735000D01*
X141172729Y-100699068D01*
X141342889Y-100628586D01*
X141496028Y-100526262D01*
X141626262Y-100396028D01*
X141728586Y-100242889D01*
X141799068Y-100072729D01*
X141835000Y-99892089D01*
X141835000Y-99707911D01*
X143240000Y-99707911D01*
X143240000Y-99892089D01*
X143275932Y-100072729D01*
X143346414Y-100242889D01*
X143448738Y-100396028D01*
X143578972Y-100526262D01*
X143732111Y-100628586D01*
X143902271Y-100699068D01*
X144082911Y-100735000D01*
X144267089Y-100735000D01*
X144447729Y-100699068D01*
X144617889Y-100628586D01*
X144771028Y-100526262D01*
X144901262Y-100396028D01*
X145003586Y-100242889D01*
X145074068Y-100072729D01*
X145110000Y-99892089D01*
X145110000Y-99707911D01*
X148765000Y-99707911D01*
X148765000Y-99892089D01*
X148800932Y-100072729D01*
X148853649Y-100200000D01*
X148800932Y-100327271D01*
X148765000Y-100507911D01*
X148765000Y-100692089D01*
X148800932Y-100872729D01*
X148871414Y-101042889D01*
X148973738Y-101196028D01*
X149103972Y-101326262D01*
X149257111Y-101428586D01*
X149427271Y-101499068D01*
X149607911Y-101535000D01*
X149792089Y-101535000D01*
X149972729Y-101499068D01*
X150142889Y-101428586D01*
X150296028Y-101326262D01*
X150426262Y-101196028D01*
X150528586Y-101042889D01*
X150599068Y-100872729D01*
X150611961Y-100807911D01*
X154165000Y-100807911D01*
X154165000Y-100992089D01*
X154200932Y-101172729D01*
X154271414Y-101342889D01*
X154373738Y-101496028D01*
X154503972Y-101626262D01*
X154657111Y-101728586D01*
X154722501Y-101755671D01*
X154671414Y-101832128D01*
X154600932Y-102002288D01*
X154565000Y-102182928D01*
X154565000Y-102367106D01*
X154600932Y-102547746D01*
X154671414Y-102717906D01*
X154773738Y-102871045D01*
X154903972Y-103001279D01*
X155057111Y-103103603D01*
X155227271Y-103174085D01*
X155407911Y-103210017D01*
X155592089Y-103210017D01*
X155772729Y-103174085D01*
X155942889Y-103103603D01*
X156096028Y-103001279D01*
X156226262Y-102871045D01*
X156233492Y-102860224D01*
X156327271Y-102899068D01*
X156507911Y-102935000D01*
X156692089Y-102935000D01*
X156872729Y-102899068D01*
X157042889Y-102828586D01*
X157196028Y-102726262D01*
X157326262Y-102596028D01*
X157428586Y-102442889D01*
X157499068Y-102272729D01*
X157535000Y-102092089D01*
X157535000Y-101907911D01*
X157499068Y-101727271D01*
X157428586Y-101557111D01*
X157326262Y-101403972D01*
X157232290Y-101310000D01*
X157342089Y-101310000D01*
X157522729Y-101274068D01*
X157692889Y-101203586D01*
X157846028Y-101101262D01*
X157976262Y-100971028D01*
X158078586Y-100817889D01*
X158149068Y-100647729D01*
X158185000Y-100467089D01*
X158185000Y-100282911D01*
X158149068Y-100102271D01*
X158078586Y-99932111D01*
X157976262Y-99778972D01*
X157846028Y-99648738D01*
X157692889Y-99546414D01*
X157522729Y-99475932D01*
X157342089Y-99440000D01*
X157157911Y-99440000D01*
X156977271Y-99475932D01*
X156807111Y-99546414D01*
X156653972Y-99648738D01*
X156523738Y-99778972D01*
X156421414Y-99932111D01*
X156350932Y-100102271D01*
X156315000Y-100282911D01*
X156315000Y-100467089D01*
X156350932Y-100647729D01*
X156421414Y-100817889D01*
X156523738Y-100971028D01*
X156617710Y-101065000D01*
X156507911Y-101065000D01*
X156327271Y-101100932D01*
X156157111Y-101171414D01*
X156003972Y-101273738D01*
X155916031Y-101361679D01*
X155928586Y-101342889D01*
X155999068Y-101172729D01*
X156035000Y-100992089D01*
X156035000Y-100807911D01*
X155999068Y-100627271D01*
X155928586Y-100457111D01*
X155826262Y-100303972D01*
X155696028Y-100173738D01*
X155542889Y-100071414D01*
X155372729Y-100000932D01*
X155192089Y-99965000D01*
X155007911Y-99965000D01*
X154827271Y-100000932D01*
X154657111Y-100071414D01*
X154503972Y-100173738D01*
X154373738Y-100303972D01*
X154271414Y-100457111D01*
X154200932Y-100627271D01*
X154165000Y-100807911D01*
X150611961Y-100807911D01*
X150635000Y-100692089D01*
X150635000Y-100507911D01*
X150599068Y-100327271D01*
X150546351Y-100200000D01*
X150599068Y-100072729D01*
X150635000Y-99892089D01*
X150635000Y-99707911D01*
X150599068Y-99527271D01*
X150528586Y-99357111D01*
X150426262Y-99203972D01*
X150296028Y-99073738D01*
X150142889Y-98971414D01*
X149972729Y-98900932D01*
X149792089Y-98865000D01*
X149607911Y-98865000D01*
X149427271Y-98900932D01*
X149257111Y-98971414D01*
X149103972Y-99073738D01*
X148973738Y-99203972D01*
X148871414Y-99357111D01*
X148800932Y-99527271D01*
X148765000Y-99707911D01*
X145110000Y-99707911D01*
X145074068Y-99527271D01*
X145003586Y-99357111D01*
X144901262Y-99203972D01*
X144771028Y-99073738D01*
X144617889Y-98971414D01*
X144447729Y-98900932D01*
X144267089Y-98865000D01*
X144082911Y-98865000D01*
X143902271Y-98900932D01*
X143732111Y-98971414D01*
X143578972Y-99073738D01*
X143448738Y-99203972D01*
X143346414Y-99357111D01*
X143275932Y-99527271D01*
X143240000Y-99707911D01*
X141835000Y-99707911D01*
X141799068Y-99527271D01*
X141728586Y-99357111D01*
X141626262Y-99203972D01*
X141496028Y-99073738D01*
X141342889Y-98971414D01*
X141172729Y-98900932D01*
X140992089Y-98865000D01*
X140807911Y-98865000D01*
X140627271Y-98900932D01*
X140457111Y-98971414D01*
X140303972Y-99073738D01*
X140173738Y-99203972D01*
X140071414Y-99357111D01*
X140000932Y-99527271D01*
X139965000Y-99707911D01*
X125385000Y-99707911D01*
X125385000Y-96207911D01*
X128265000Y-96207911D01*
X128265000Y-96392089D01*
X128300932Y-96572729D01*
X128371414Y-96742889D01*
X128473738Y-96896028D01*
X128603972Y-97026262D01*
X128757111Y-97128586D01*
X128927271Y-97199068D01*
X129107911Y-97235000D01*
X129292089Y-97235000D01*
X129472729Y-97199068D01*
X129642889Y-97128586D01*
X129796028Y-97026262D01*
X129926262Y-96896028D01*
X130028586Y-96742889D01*
X130099068Y-96572729D01*
X130135000Y-96392089D01*
X130135000Y-96207911D01*
X130099068Y-96027271D01*
X130028586Y-95857111D01*
X129926262Y-95703972D01*
X129830201Y-95607911D01*
X130265000Y-95607911D01*
X130265000Y-95792089D01*
X130300932Y-95972729D01*
X130371414Y-96142889D01*
X130473738Y-96296028D01*
X130603972Y-96426262D01*
X130757111Y-96528586D01*
X130927271Y-96599068D01*
X131107911Y-96635000D01*
X131292089Y-96635000D01*
X131472729Y-96599068D01*
X131642889Y-96528586D01*
X131796028Y-96426262D01*
X131926262Y-96296028D01*
X132028586Y-96142889D01*
X132099068Y-95972729D01*
X132135000Y-95792089D01*
X132135000Y-95607911D01*
X132115109Y-95507911D01*
X134265000Y-95507911D01*
X134265000Y-95692089D01*
X134300932Y-95872729D01*
X134312228Y-95900000D01*
X134300932Y-95927271D01*
X134265000Y-96107911D01*
X134265000Y-96292089D01*
X134300932Y-96472729D01*
X134371414Y-96642889D01*
X134473738Y-96796028D01*
X134603972Y-96926262D01*
X134757111Y-97028586D01*
X134760855Y-97030137D01*
X134700619Y-97070385D01*
X134570385Y-97200619D01*
X134468061Y-97353758D01*
X134397579Y-97523918D01*
X134361647Y-97704558D01*
X134361647Y-97888736D01*
X134397579Y-98069376D01*
X134468061Y-98239536D01*
X134570385Y-98392675D01*
X134700619Y-98522909D01*
X134853758Y-98625233D01*
X135023918Y-98695715D01*
X135204558Y-98731647D01*
X135388736Y-98731647D01*
X135569376Y-98695715D01*
X135739536Y-98625233D01*
X135892675Y-98522909D01*
X136022909Y-98392675D01*
X136125233Y-98239536D01*
X136138332Y-98207911D01*
X141565000Y-98207911D01*
X141565000Y-98392089D01*
X141600932Y-98572729D01*
X141671414Y-98742889D01*
X141773738Y-98896028D01*
X141903972Y-99026262D01*
X142057111Y-99128586D01*
X142227271Y-99199068D01*
X142407911Y-99235000D01*
X142592089Y-99235000D01*
X142772729Y-99199068D01*
X142942889Y-99128586D01*
X143096028Y-99026262D01*
X143226262Y-98896028D01*
X143328586Y-98742889D01*
X143399068Y-98572729D01*
X143435000Y-98392089D01*
X143435000Y-98207911D01*
X143399068Y-98027271D01*
X143328586Y-97857111D01*
X143226262Y-97703972D01*
X143180201Y-97657911D01*
X155565000Y-97657911D01*
X155565000Y-97842089D01*
X155600932Y-98022729D01*
X155671414Y-98192889D01*
X155773738Y-98346028D01*
X155903972Y-98476262D01*
X156057111Y-98578586D01*
X156227271Y-98649068D01*
X156407911Y-98685000D01*
X156592089Y-98685000D01*
X156772729Y-98649068D01*
X156942889Y-98578586D01*
X157096028Y-98476262D01*
X157226262Y-98346028D01*
X157328586Y-98192889D01*
X157399068Y-98022729D01*
X157435000Y-97842089D01*
X157435000Y-97657911D01*
X157399068Y-97477271D01*
X157328586Y-97307111D01*
X157226262Y-97153972D01*
X157096028Y-97023738D01*
X156942889Y-96921414D01*
X156772729Y-96850932D01*
X156592089Y-96815000D01*
X156407911Y-96815000D01*
X156227271Y-96850932D01*
X156057111Y-96921414D01*
X155903972Y-97023738D01*
X155773738Y-97153972D01*
X155671414Y-97307111D01*
X155600932Y-97477271D01*
X155565000Y-97657911D01*
X143180201Y-97657911D01*
X143096028Y-97573738D01*
X142942889Y-97471414D01*
X142772729Y-97400932D01*
X142592089Y-97365000D01*
X142407911Y-97365000D01*
X142227271Y-97400932D01*
X142057111Y-97471414D01*
X141903972Y-97573738D01*
X141773738Y-97703972D01*
X141671414Y-97857111D01*
X141600932Y-98027271D01*
X141565000Y-98207911D01*
X136138332Y-98207911D01*
X136195715Y-98069376D01*
X136231647Y-97888736D01*
X136231647Y-97704558D01*
X136195715Y-97523918D01*
X136125233Y-97353758D01*
X136022909Y-97200619D01*
X135892675Y-97070385D01*
X135739536Y-96968061D01*
X135735792Y-96966510D01*
X135796028Y-96926262D01*
X135926262Y-96796028D01*
X136028586Y-96642889D01*
X136099068Y-96472729D01*
X136135000Y-96292089D01*
X136135000Y-96107911D01*
X136099068Y-95927271D01*
X136087772Y-95900000D01*
X136099068Y-95872729D01*
X136135000Y-95692089D01*
X136135000Y-95507911D01*
X136099068Y-95327271D01*
X136028586Y-95157111D01*
X135926262Y-95003972D01*
X135796028Y-94873738D01*
X135642889Y-94771414D01*
X135472729Y-94700932D01*
X135292089Y-94665000D01*
X135107911Y-94665000D01*
X134927271Y-94700932D01*
X134757111Y-94771414D01*
X134603972Y-94873738D01*
X134473738Y-95003972D01*
X134371414Y-95157111D01*
X134300932Y-95327271D01*
X134265000Y-95507911D01*
X132115109Y-95507911D01*
X132099068Y-95427271D01*
X132070595Y-95358531D01*
X132142889Y-95328586D01*
X132296028Y-95226262D01*
X132426262Y-95096028D01*
X132528586Y-94942889D01*
X132599068Y-94772729D01*
X132635000Y-94592089D01*
X132635000Y-94435000D01*
X132792089Y-94435000D01*
X132972729Y-94399068D01*
X133142889Y-94328586D01*
X133173831Y-94307911D01*
X139865000Y-94307911D01*
X139865000Y-94492089D01*
X139900932Y-94672729D01*
X139971414Y-94842889D01*
X140073738Y-94996028D01*
X140203972Y-95126262D01*
X140357111Y-95228586D01*
X140527271Y-95299068D01*
X140707911Y-95335000D01*
X140892089Y-95335000D01*
X141072729Y-95299068D01*
X141242889Y-95228586D01*
X141396028Y-95126262D01*
X141526262Y-94996028D01*
X141628586Y-94842889D01*
X141699068Y-94672729D01*
X141735000Y-94492089D01*
X141735000Y-94307911D01*
X141712099Y-94192784D01*
X141727271Y-94199068D01*
X141907911Y-94235000D01*
X142092089Y-94235000D01*
X142272729Y-94199068D01*
X142442889Y-94128586D01*
X142596028Y-94026262D01*
X142726262Y-93896028D01*
X142766704Y-93835502D01*
X142773738Y-93846028D01*
X142903972Y-93976262D01*
X143057111Y-94078586D01*
X143227271Y-94149068D01*
X143407911Y-94185000D01*
X143592089Y-94185000D01*
X143772729Y-94149068D01*
X143942889Y-94078586D01*
X144096028Y-93976262D01*
X144150004Y-93922287D01*
X144153983Y-93926266D01*
X144307122Y-94028590D01*
X144477282Y-94099072D01*
X144657922Y-94135004D01*
X144842100Y-94135004D01*
X145022740Y-94099072D01*
X145192900Y-94028590D01*
X145346039Y-93926266D01*
X145476273Y-93796032D01*
X145578597Y-93642893D01*
X145649079Y-93472733D01*
X145685011Y-93292093D01*
X145685011Y-93107915D01*
X145649079Y-92927275D01*
X145578597Y-92757115D01*
X145476273Y-92603976D01*
X145380208Y-92507911D01*
X149465000Y-92507911D01*
X149465000Y-92692089D01*
X149500932Y-92872729D01*
X149571414Y-93042889D01*
X149673738Y-93196028D01*
X149803972Y-93326262D01*
X149957111Y-93428586D01*
X150127271Y-93499068D01*
X150307911Y-93535000D01*
X150492089Y-93535000D01*
X150672729Y-93499068D01*
X150842889Y-93428586D01*
X150996028Y-93326262D01*
X151126262Y-93196028D01*
X151228586Y-93042889D01*
X151299068Y-92872729D01*
X151311961Y-92807911D01*
X153065000Y-92807911D01*
X153065000Y-92992089D01*
X153100932Y-93172729D01*
X153171414Y-93342889D01*
X153273738Y-93496028D01*
X153403972Y-93626262D01*
X153557111Y-93728586D01*
X153727271Y-93799068D01*
X153907911Y-93835000D01*
X154092089Y-93835000D01*
X154272729Y-93799068D01*
X154442889Y-93728586D01*
X154596028Y-93626262D01*
X154726262Y-93496028D01*
X154828586Y-93342889D01*
X154859642Y-93267911D01*
X155215000Y-93267911D01*
X155215000Y-93452089D01*
X155250932Y-93632729D01*
X155321414Y-93802889D01*
X155423738Y-93956028D01*
X155553972Y-94086262D01*
X155707111Y-94188586D01*
X155877271Y-94259068D01*
X156057911Y-94295000D01*
X156242089Y-94295000D01*
X156422729Y-94259068D01*
X156592889Y-94188586D01*
X156746028Y-94086262D01*
X156876262Y-93956028D01*
X156978586Y-93802889D01*
X157049068Y-93632729D01*
X157062471Y-93565350D01*
X157157111Y-93628586D01*
X157327271Y-93699068D01*
X157507911Y-93735000D01*
X157692089Y-93735000D01*
X157872729Y-93699068D01*
X158042889Y-93628586D01*
X158196028Y-93526262D01*
X158326262Y-93396028D01*
X158428586Y-93242889D01*
X158499068Y-93072729D01*
X158535000Y-92892089D01*
X158535000Y-92707911D01*
X158499068Y-92527271D01*
X158428586Y-92357111D01*
X158326262Y-92203972D01*
X158196028Y-92073738D01*
X158042889Y-91971414D01*
X157872729Y-91900932D01*
X157692089Y-91865000D01*
X157507911Y-91865000D01*
X157327271Y-91900932D01*
X157157111Y-91971414D01*
X157003972Y-92073738D01*
X156873738Y-92203972D01*
X156771414Y-92357111D01*
X156700932Y-92527271D01*
X156687529Y-92594650D01*
X156592889Y-92531414D01*
X156422729Y-92460932D01*
X156242089Y-92425000D01*
X156057911Y-92425000D01*
X155877271Y-92460932D01*
X155707111Y-92531414D01*
X155553972Y-92633738D01*
X155423738Y-92763972D01*
X155321414Y-92917111D01*
X155250932Y-93087271D01*
X155215000Y-93267911D01*
X154859642Y-93267911D01*
X154899068Y-93172729D01*
X154935000Y-92992089D01*
X154935000Y-92807911D01*
X154899068Y-92627271D01*
X154828586Y-92457111D01*
X154726262Y-92303972D01*
X154596028Y-92173738D01*
X154442889Y-92071414D01*
X154272729Y-92000932D01*
X154092089Y-91965000D01*
X153907911Y-91965000D01*
X153727271Y-92000932D01*
X153557111Y-92071414D01*
X153403972Y-92173738D01*
X153273738Y-92303972D01*
X153171414Y-92457111D01*
X153100932Y-92627271D01*
X153065000Y-92807911D01*
X151311961Y-92807911D01*
X151335000Y-92692089D01*
X151335000Y-92507911D01*
X151299068Y-92327271D01*
X151228586Y-92157111D01*
X151126262Y-92003972D01*
X150996028Y-91873738D01*
X150842889Y-91771414D01*
X150672729Y-91700932D01*
X150492089Y-91665000D01*
X150307911Y-91665000D01*
X150127271Y-91700932D01*
X149957111Y-91771414D01*
X149803972Y-91873738D01*
X149673738Y-92003972D01*
X149571414Y-92157111D01*
X149500932Y-92327271D01*
X149465000Y-92507911D01*
X145380208Y-92507911D01*
X145346039Y-92473742D01*
X145192900Y-92371418D01*
X145022740Y-92300936D01*
X144842100Y-92265004D01*
X144657922Y-92265004D01*
X144477282Y-92300936D01*
X144307122Y-92371418D01*
X144153983Y-92473742D01*
X144100008Y-92527718D01*
X144096028Y-92523738D01*
X143942889Y-92421414D01*
X143772729Y-92350932D01*
X143592089Y-92315000D01*
X143407911Y-92315000D01*
X143227271Y-92350932D01*
X143057111Y-92421414D01*
X142903972Y-92523738D01*
X142773738Y-92653972D01*
X142733296Y-92714498D01*
X142726262Y-92703972D01*
X142596028Y-92573738D01*
X142442889Y-92471414D01*
X142272729Y-92400932D01*
X142092089Y-92365000D01*
X141907911Y-92365000D01*
X141727271Y-92400932D01*
X141557111Y-92471414D01*
X141403972Y-92573738D01*
X141273738Y-92703972D01*
X141171414Y-92857111D01*
X141100932Y-93027271D01*
X141065000Y-93207911D01*
X141065000Y-93392089D01*
X141087901Y-93507216D01*
X141072729Y-93500932D01*
X140892089Y-93465000D01*
X140707911Y-93465000D01*
X140527271Y-93500932D01*
X140357111Y-93571414D01*
X140203972Y-93673738D01*
X140073738Y-93803972D01*
X139971414Y-93957111D01*
X139900932Y-94127271D01*
X139865000Y-94307911D01*
X133173831Y-94307911D01*
X133296028Y-94226262D01*
X133426262Y-94096028D01*
X133528586Y-93942889D01*
X133599068Y-93772729D01*
X133635000Y-93592089D01*
X133635000Y-93435000D01*
X133792089Y-93435000D01*
X133972729Y-93399068D01*
X134142889Y-93328586D01*
X134296028Y-93226262D01*
X134426262Y-93096028D01*
X134528586Y-92942889D01*
X134599068Y-92772729D01*
X134610430Y-92715610D01*
X134707911Y-92735000D01*
X134892089Y-92735000D01*
X135072729Y-92699068D01*
X135242889Y-92628586D01*
X135396028Y-92526262D01*
X135526262Y-92396028D01*
X135628586Y-92242889D01*
X135699068Y-92072729D01*
X135735000Y-91892089D01*
X135735000Y-91707911D01*
X135699068Y-91527271D01*
X135628586Y-91357111D01*
X135526262Y-91203972D01*
X135396028Y-91073738D01*
X135242889Y-90971414D01*
X135072729Y-90900932D01*
X134892089Y-90865000D01*
X134707911Y-90865000D01*
X134527271Y-90900932D01*
X134357111Y-90971414D01*
X134203972Y-91073738D01*
X134073738Y-91203972D01*
X133971414Y-91357111D01*
X133900932Y-91527271D01*
X133889570Y-91584390D01*
X133792089Y-91565000D01*
X133607911Y-91565000D01*
X133427271Y-91600932D01*
X133257111Y-91671414D01*
X133103972Y-91773738D01*
X132973738Y-91903972D01*
X132871414Y-92057111D01*
X132800932Y-92227271D01*
X132765000Y-92407911D01*
X132765000Y-92565000D01*
X132607911Y-92565000D01*
X132427271Y-92600932D01*
X132257111Y-92671414D01*
X132103972Y-92773738D01*
X131973738Y-92903972D01*
X131871414Y-93057111D01*
X131800932Y-93227271D01*
X131765000Y-93407911D01*
X131765000Y-93565000D01*
X131607911Y-93565000D01*
X131427271Y-93600932D01*
X131257111Y-93671414D01*
X131103972Y-93773738D01*
X130973738Y-93903972D01*
X130871414Y-94057111D01*
X130800932Y-94227271D01*
X130765000Y-94407911D01*
X130765000Y-94592089D01*
X130800932Y-94772729D01*
X130829405Y-94841469D01*
X130757111Y-94871414D01*
X130603972Y-94973738D01*
X130473738Y-95103972D01*
X130371414Y-95257111D01*
X130300932Y-95427271D01*
X130265000Y-95607911D01*
X129830201Y-95607911D01*
X129796028Y-95573738D01*
X129642889Y-95471414D01*
X129472729Y-95400932D01*
X129292089Y-95365000D01*
X129107911Y-95365000D01*
X128927271Y-95400932D01*
X128757111Y-95471414D01*
X128603972Y-95573738D01*
X128473738Y-95703972D01*
X128371414Y-95857111D01*
X128300932Y-96027271D01*
X128265000Y-96207911D01*
X125385000Y-96207911D01*
X125385000Y-94707911D01*
X126665000Y-94707911D01*
X126665000Y-94892089D01*
X126700932Y-95072729D01*
X126771414Y-95242889D01*
X126873738Y-95396028D01*
X127003972Y-95526262D01*
X127157111Y-95628586D01*
X127327271Y-95699068D01*
X127507911Y-95735000D01*
X127692089Y-95735000D01*
X127872729Y-95699068D01*
X128042889Y-95628586D01*
X128196028Y-95526262D01*
X128326262Y-95396028D01*
X128428586Y-95242889D01*
X128499068Y-95072729D01*
X128535000Y-94892089D01*
X128535000Y-94707911D01*
X128499068Y-94527271D01*
X128428586Y-94357111D01*
X128326262Y-94203972D01*
X128196028Y-94073738D01*
X128042889Y-93971414D01*
X127872729Y-93900932D01*
X127692089Y-93865000D01*
X127507911Y-93865000D01*
X127327271Y-93900932D01*
X127157111Y-93971414D01*
X127003972Y-94073738D01*
X126873738Y-94203972D01*
X126771414Y-94357111D01*
X126700932Y-94527271D01*
X126665000Y-94707911D01*
X125385000Y-94707911D01*
X125385000Y-93107911D01*
X128465000Y-93107911D01*
X128465000Y-93292089D01*
X128500932Y-93472729D01*
X128571414Y-93642889D01*
X128673738Y-93796028D01*
X128803972Y-93926262D01*
X128957111Y-94028586D01*
X129127271Y-94099068D01*
X129307911Y-94135000D01*
X129492089Y-94135000D01*
X129672729Y-94099068D01*
X129842889Y-94028586D01*
X129996028Y-93926262D01*
X130126262Y-93796028D01*
X130228586Y-93642889D01*
X130299068Y-93472729D01*
X130335000Y-93292089D01*
X130335000Y-93135000D01*
X130492089Y-93135000D01*
X130672729Y-93099068D01*
X130842889Y-93028586D01*
X130996028Y-92926262D01*
X131126262Y-92796028D01*
X131228586Y-92642889D01*
X131299068Y-92472729D01*
X131335000Y-92292089D01*
X131335000Y-92135000D01*
X131492089Y-92135000D01*
X131672729Y-92099068D01*
X131842889Y-92028586D01*
X131996028Y-91926262D01*
X132126262Y-91796028D01*
X132228586Y-91642889D01*
X132299068Y-91472729D01*
X132335000Y-91292089D01*
X132335000Y-91135000D01*
X132492089Y-91135000D01*
X132672729Y-91099068D01*
X132842889Y-91028586D01*
X132996028Y-90926262D01*
X133126262Y-90796028D01*
X133228586Y-90642889D01*
X133299068Y-90472729D01*
X133329564Y-90319416D01*
X133407911Y-90335000D01*
X133592089Y-90335000D01*
X133772729Y-90299068D01*
X133942889Y-90228586D01*
X134096028Y-90126262D01*
X134200000Y-90022290D01*
X134303972Y-90126262D01*
X134457111Y-90228586D01*
X134627271Y-90299068D01*
X134807911Y-90335000D01*
X134992089Y-90335000D01*
X135172729Y-90299068D01*
X135342889Y-90228586D01*
X135496028Y-90126262D01*
X135600000Y-90022290D01*
X135703972Y-90126262D01*
X135857111Y-90228586D01*
X136027271Y-90299068D01*
X136207911Y-90335000D01*
X136265000Y-90335000D01*
X136265000Y-93000000D01*
X136277201Y-93123882D01*
X136313336Y-93243004D01*
X136372017Y-93352787D01*
X136450987Y-93449013D01*
X136547213Y-93527983D01*
X136656996Y-93586664D01*
X136776118Y-93622799D01*
X136900000Y-93635000D01*
X138100000Y-93635000D01*
X138223882Y-93622799D01*
X138343004Y-93586664D01*
X138452787Y-93527983D01*
X138549013Y-93449013D01*
X138627983Y-93352787D01*
X138686664Y-93243004D01*
X138722799Y-93123882D01*
X138735000Y-93000000D01*
X138735000Y-89807911D01*
X142965008Y-89807911D01*
X142965008Y-89992089D01*
X143000940Y-90172729D01*
X143071422Y-90342889D01*
X143116185Y-90409881D01*
X143100921Y-90446731D01*
X143064989Y-90627371D01*
X143064989Y-90811549D01*
X143100921Y-90992189D01*
X143171403Y-91162349D01*
X143273727Y-91315488D01*
X143403961Y-91445722D01*
X143557100Y-91548046D01*
X143727260Y-91618528D01*
X143907900Y-91654460D01*
X144092078Y-91654460D01*
X144272718Y-91618528D01*
X144442878Y-91548046D01*
X144596017Y-91445722D01*
X144726251Y-91315488D01*
X144828575Y-91162349D01*
X144899057Y-90992189D01*
X144934989Y-90811549D01*
X144934989Y-90627371D01*
X144899057Y-90446731D01*
X144828575Y-90276571D01*
X144783812Y-90209579D01*
X144799076Y-90172729D01*
X144835008Y-89992089D01*
X144835008Y-89807911D01*
X144815117Y-89707911D01*
X150065000Y-89707911D01*
X150065000Y-89892089D01*
X150100932Y-90072729D01*
X150171414Y-90242889D01*
X150273738Y-90396028D01*
X150403972Y-90526262D01*
X150557111Y-90628586D01*
X150727271Y-90699068D01*
X150907911Y-90735000D01*
X151092089Y-90735000D01*
X151272729Y-90699068D01*
X151442889Y-90628586D01*
X151596028Y-90526262D01*
X151726262Y-90396028D01*
X151828586Y-90242889D01*
X151899068Y-90072729D01*
X151935000Y-89892089D01*
X151935000Y-89707911D01*
X153665000Y-89707911D01*
X153665000Y-89892089D01*
X153700932Y-90072729D01*
X153771414Y-90242889D01*
X153873738Y-90396028D01*
X154003972Y-90526262D01*
X154157111Y-90628586D01*
X154327271Y-90699068D01*
X154507911Y-90735000D01*
X154692089Y-90735000D01*
X154872729Y-90699068D01*
X155042889Y-90628586D01*
X155196028Y-90526262D01*
X155326262Y-90396028D01*
X155428586Y-90242889D01*
X155499068Y-90072729D01*
X155535000Y-89892089D01*
X155535000Y-89707911D01*
X155499068Y-89527271D01*
X155449628Y-89407911D01*
X156815000Y-89407911D01*
X156815000Y-89592089D01*
X156850932Y-89772729D01*
X156921414Y-89942889D01*
X157023738Y-90096028D01*
X157153972Y-90226262D01*
X157307111Y-90328586D01*
X157477271Y-90399068D01*
X157657911Y-90435000D01*
X157842089Y-90435000D01*
X158022729Y-90399068D01*
X158192889Y-90328586D01*
X158346028Y-90226262D01*
X158476262Y-90096028D01*
X158578586Y-89942889D01*
X158649068Y-89772729D01*
X158685000Y-89592089D01*
X158685000Y-89407911D01*
X158649068Y-89227271D01*
X158578586Y-89057111D01*
X158476262Y-88903972D01*
X158346028Y-88773738D01*
X158192889Y-88671414D01*
X158022729Y-88600932D01*
X157842089Y-88565000D01*
X157657911Y-88565000D01*
X157477271Y-88600932D01*
X157307111Y-88671414D01*
X157153972Y-88773738D01*
X157023738Y-88903972D01*
X156921414Y-89057111D01*
X156850932Y-89227271D01*
X156815000Y-89407911D01*
X155449628Y-89407911D01*
X155428586Y-89357111D01*
X155326262Y-89203972D01*
X155196028Y-89073738D01*
X155042889Y-88971414D01*
X154872729Y-88900932D01*
X154692089Y-88865000D01*
X154507911Y-88865000D01*
X154327271Y-88900932D01*
X154157111Y-88971414D01*
X154003972Y-89073738D01*
X153873738Y-89203972D01*
X153771414Y-89357111D01*
X153700932Y-89527271D01*
X153665000Y-89707911D01*
X151935000Y-89707911D01*
X151899068Y-89527271D01*
X151828586Y-89357111D01*
X151726262Y-89203972D01*
X151596028Y-89073738D01*
X151442889Y-88971414D01*
X151272729Y-88900932D01*
X151092089Y-88865000D01*
X150907911Y-88865000D01*
X150727271Y-88900932D01*
X150557111Y-88971414D01*
X150403972Y-89073738D01*
X150273738Y-89203972D01*
X150171414Y-89357111D01*
X150100932Y-89527271D01*
X150065000Y-89707911D01*
X144815117Y-89707911D01*
X144799076Y-89627271D01*
X144728594Y-89457111D01*
X144626270Y-89303972D01*
X144496036Y-89173738D01*
X144342897Y-89071414D01*
X144172737Y-89000932D01*
X143992097Y-88965000D01*
X143807919Y-88965000D01*
X143627279Y-89000932D01*
X143457119Y-89071414D01*
X143303980Y-89173738D01*
X143173746Y-89303972D01*
X143071422Y-89457111D01*
X143000940Y-89627271D01*
X142965008Y-89807911D01*
X138735000Y-89807911D01*
X138735000Y-89700000D01*
X138722799Y-89576118D01*
X138686664Y-89456996D01*
X138627983Y-89347213D01*
X138549013Y-89250987D01*
X138452787Y-89172017D01*
X138343004Y-89113336D01*
X138223882Y-89077201D01*
X138100000Y-89065000D01*
X137173275Y-89065000D01*
X137128586Y-88957111D01*
X137026262Y-88803972D01*
X136896028Y-88673738D01*
X136742889Y-88571414D01*
X136572729Y-88500932D01*
X136392089Y-88465000D01*
X136207911Y-88465000D01*
X136027271Y-88500932D01*
X135857111Y-88571414D01*
X135703972Y-88673738D01*
X135600000Y-88777710D01*
X135496028Y-88673738D01*
X135342889Y-88571414D01*
X135172729Y-88500932D01*
X134992089Y-88465000D01*
X134807911Y-88465000D01*
X134627271Y-88500932D01*
X134457111Y-88571414D01*
X134303972Y-88673738D01*
X134200000Y-88777710D01*
X134096028Y-88673738D01*
X133942889Y-88571414D01*
X133772729Y-88500932D01*
X133592089Y-88465000D01*
X133407911Y-88465000D01*
X133227271Y-88500932D01*
X133057111Y-88571414D01*
X132903972Y-88673738D01*
X132773738Y-88803972D01*
X132671414Y-88957111D01*
X132600932Y-89127271D01*
X132570436Y-89280584D01*
X132492089Y-89265000D01*
X132307911Y-89265000D01*
X132127271Y-89300932D01*
X131957111Y-89371414D01*
X131803972Y-89473738D01*
X131673738Y-89603972D01*
X131571414Y-89757111D01*
X131500932Y-89927271D01*
X131465000Y-90107911D01*
X131465000Y-90265000D01*
X131307911Y-90265000D01*
X131127271Y-90300932D01*
X130957111Y-90371414D01*
X130803972Y-90473738D01*
X130673738Y-90603972D01*
X130571414Y-90757111D01*
X130500932Y-90927271D01*
X130465000Y-91107911D01*
X130465000Y-91265000D01*
X130307911Y-91265000D01*
X130127271Y-91300932D01*
X129957111Y-91371414D01*
X129803972Y-91473738D01*
X129673738Y-91603972D01*
X129571414Y-91757111D01*
X129500932Y-91927271D01*
X129465000Y-92107911D01*
X129465000Y-92265000D01*
X129307911Y-92265000D01*
X129127271Y-92300932D01*
X128957111Y-92371414D01*
X128803972Y-92473738D01*
X128673738Y-92603972D01*
X128571414Y-92757111D01*
X128500932Y-92927271D01*
X128465000Y-93107911D01*
X125385000Y-93107911D01*
X125385000Y-90565006D01*
X125760920Y-90940926D01*
X126233440Y-91256654D01*
X126758477Y-91474131D01*
X127315852Y-91585000D01*
X127884148Y-91585000D01*
X128441523Y-91474131D01*
X128966560Y-91256654D01*
X129439080Y-90940926D01*
X129840926Y-90539080D01*
X130156654Y-90066560D01*
X130374131Y-89541523D01*
X130485000Y-88984148D01*
X130485000Y-88415852D01*
X130391603Y-87946311D01*
X144222207Y-87946311D01*
X144222207Y-88130489D01*
X144258139Y-88311129D01*
X144328621Y-88481289D01*
X144430945Y-88634428D01*
X144561179Y-88764662D01*
X144714318Y-88866986D01*
X144884478Y-88937468D01*
X145065118Y-88973400D01*
X145249296Y-88973400D01*
X145429936Y-88937468D01*
X145600096Y-88866986D01*
X145753235Y-88764662D01*
X145883469Y-88634428D01*
X145985793Y-88481289D01*
X146056275Y-88311129D01*
X146092207Y-88130489D01*
X146092207Y-87946311D01*
X146056275Y-87765671D01*
X145985793Y-87595511D01*
X145883469Y-87442372D01*
X145849008Y-87407911D01*
X152315000Y-87407911D01*
X152315000Y-87592089D01*
X152350932Y-87772729D01*
X152421414Y-87942889D01*
X152523738Y-88096028D01*
X152653972Y-88226262D01*
X152807111Y-88328586D01*
X152977271Y-88399068D01*
X153157911Y-88435000D01*
X153342089Y-88435000D01*
X153522729Y-88399068D01*
X153692889Y-88328586D01*
X153846028Y-88226262D01*
X153976262Y-88096028D01*
X154075903Y-87946904D01*
X154100932Y-88072729D01*
X154171414Y-88242889D01*
X154273738Y-88396028D01*
X154403972Y-88526262D01*
X154557111Y-88628586D01*
X154727271Y-88699068D01*
X154907911Y-88735000D01*
X155092089Y-88735000D01*
X155272729Y-88699068D01*
X155442889Y-88628586D01*
X155596028Y-88526262D01*
X155726262Y-88396028D01*
X155828586Y-88242889D01*
X155899068Y-88072729D01*
X155931695Y-87908704D01*
X155940403Y-87952481D01*
X156010885Y-88122641D01*
X156113209Y-88275780D01*
X156243443Y-88406014D01*
X156396582Y-88508338D01*
X156566742Y-88578820D01*
X156747382Y-88614752D01*
X156931560Y-88614752D01*
X157112200Y-88578820D01*
X157282360Y-88508338D01*
X157435499Y-88406014D01*
X157565733Y-88275780D01*
X157668057Y-88122641D01*
X157738539Y-87952481D01*
X157774471Y-87771841D01*
X157774471Y-87587663D01*
X157738539Y-87407023D01*
X157668057Y-87236863D01*
X157565733Y-87083724D01*
X157435499Y-86953490D01*
X157282360Y-86851166D01*
X157112200Y-86780684D01*
X156931560Y-86744752D01*
X156747382Y-86744752D01*
X156566742Y-86780684D01*
X156396582Y-86851166D01*
X156243443Y-86953490D01*
X156113209Y-87083724D01*
X156010885Y-87236863D01*
X155940403Y-87407023D01*
X155907776Y-87571048D01*
X155899068Y-87527271D01*
X155828586Y-87357111D01*
X155726262Y-87203972D01*
X155596028Y-87073738D01*
X155442889Y-86971414D01*
X155272729Y-86900932D01*
X155092089Y-86865000D01*
X154907911Y-86865000D01*
X154727271Y-86900932D01*
X154557111Y-86971414D01*
X154403972Y-87073738D01*
X154273738Y-87203972D01*
X154174097Y-87353096D01*
X154149068Y-87227271D01*
X154078586Y-87057111D01*
X153976262Y-86903972D01*
X153846028Y-86773738D01*
X153692889Y-86671414D01*
X153522729Y-86600932D01*
X153342089Y-86565000D01*
X153157911Y-86565000D01*
X152977271Y-86600932D01*
X152807111Y-86671414D01*
X152653972Y-86773738D01*
X152523738Y-86903972D01*
X152421414Y-87057111D01*
X152350932Y-87227271D01*
X152315000Y-87407911D01*
X145849008Y-87407911D01*
X145753235Y-87312138D01*
X145600096Y-87209814D01*
X145429936Y-87139332D01*
X145249296Y-87103400D01*
X145065118Y-87103400D01*
X144884478Y-87139332D01*
X144714318Y-87209814D01*
X144561179Y-87312138D01*
X144430945Y-87442372D01*
X144328621Y-87595511D01*
X144258139Y-87765671D01*
X144222207Y-87946311D01*
X130391603Y-87946311D01*
X130374131Y-87858477D01*
X130156654Y-87333440D01*
X129840926Y-86860920D01*
X129465006Y-86485000D01*
X159873000Y-86485000D01*
X159873000Y-86906719D01*
G37*
X159873000Y-86906719D02*
X159832447Y-86923516D01*
X159679308Y-87025840D01*
X159549074Y-87156074D01*
X159446750Y-87309213D01*
X159376268Y-87479373D01*
X159340336Y-87660013D01*
X159340336Y-87844191D01*
X159376268Y-88024831D01*
X159392632Y-88064338D01*
X159365410Y-88105079D01*
X159294928Y-88275239D01*
X159258996Y-88455879D01*
X159258996Y-88640057D01*
X159294928Y-88820697D01*
X159365410Y-88990857D01*
X159467734Y-89143996D01*
X159597968Y-89274230D01*
X159751107Y-89376554D01*
X159873000Y-89427043D01*
X159873000Y-91104710D01*
X159773738Y-91203972D01*
X159671414Y-91357111D01*
X159600932Y-91527271D01*
X159565000Y-91707911D01*
X159565000Y-91892089D01*
X159600932Y-92072729D01*
X159671414Y-92242889D01*
X159773738Y-92396028D01*
X159873000Y-92495290D01*
X159873000Y-92991653D01*
X159767879Y-92921414D01*
X159597719Y-92850932D01*
X159417079Y-92815000D01*
X159232901Y-92815000D01*
X159052261Y-92850932D01*
X158882101Y-92921414D01*
X158728962Y-93023738D01*
X158598728Y-93153972D01*
X158496404Y-93307111D01*
X158425922Y-93477271D01*
X158389990Y-93657911D01*
X158389990Y-93842089D01*
X158425922Y-94022729D01*
X158496404Y-94192889D01*
X158534564Y-94250000D01*
X158496404Y-94307111D01*
X158425922Y-94477271D01*
X158389990Y-94657911D01*
X158389990Y-94842089D01*
X158413275Y-94959147D01*
X158272729Y-94900932D01*
X158092089Y-94865000D01*
X157907911Y-94865000D01*
X157727271Y-94900932D01*
X157557111Y-94971414D01*
X157403972Y-95073738D01*
X157273738Y-95203972D01*
X157171414Y-95357111D01*
X157100932Y-95527271D01*
X157065000Y-95707911D01*
X157065000Y-95892089D01*
X157100932Y-96072729D01*
X157171414Y-96242889D01*
X157273738Y-96396028D01*
X157403972Y-96526262D01*
X157557111Y-96628586D01*
X157690010Y-96683634D01*
X157690010Y-96789049D01*
X157725942Y-96969689D01*
X157796424Y-97139849D01*
X157898748Y-97292988D01*
X158028982Y-97423222D01*
X158182121Y-97525546D01*
X158352278Y-97596027D01*
X158339968Y-97657911D01*
X158339968Y-97842089D01*
X158375900Y-98022729D01*
X158446382Y-98192889D01*
X158548706Y-98346028D01*
X158678940Y-98476262D01*
X158832079Y-98578586D01*
X159002239Y-98649068D01*
X159182879Y-98685000D01*
X159367057Y-98685000D01*
X159547697Y-98649068D01*
X159717857Y-98578586D01*
X159870996Y-98476262D01*
X159873000Y-98474258D01*
X159873000Y-100050710D01*
X159846028Y-100023738D01*
X159692889Y-99921414D01*
X159522729Y-99850932D01*
X159342089Y-99815000D01*
X159157911Y-99815000D01*
X158977271Y-99850932D01*
X158807111Y-99921414D01*
X158653972Y-100023738D01*
X158523738Y-100153972D01*
X158421414Y-100307111D01*
X158350932Y-100477271D01*
X158315000Y-100657911D01*
X158315000Y-100842089D01*
X158350932Y-101022729D01*
X158421414Y-101192889D01*
X158459569Y-101249993D01*
X158421404Y-101307111D01*
X158350922Y-101477271D01*
X158314990Y-101657911D01*
X158314990Y-101842089D01*
X158350922Y-102022729D01*
X158421404Y-102192889D01*
X158459569Y-102250007D01*
X158421414Y-102307111D01*
X158350932Y-102477271D01*
X158315000Y-102657911D01*
X158315000Y-102665000D01*
X158307911Y-102665000D01*
X158127271Y-102700932D01*
X157957111Y-102771414D01*
X157803972Y-102873738D01*
X157673738Y-103003972D01*
X157571414Y-103157111D01*
X157500932Y-103327271D01*
X157465000Y-103507911D01*
X157465000Y-103692089D01*
X157500932Y-103872729D01*
X157519409Y-103917337D01*
X157419370Y-103875900D01*
X157238730Y-103839968D01*
X157054552Y-103839968D01*
X156873912Y-103875900D01*
X156703752Y-103946382D01*
X156550613Y-104048706D01*
X156420379Y-104178940D01*
X156318055Y-104332079D01*
X156247573Y-104502239D01*
X156211641Y-104682879D01*
X156211641Y-104867057D01*
X156247573Y-105047697D01*
X156318055Y-105217857D01*
X156420379Y-105370996D01*
X156550613Y-105501230D01*
X156703752Y-105603554D01*
X156873912Y-105674036D01*
X157054552Y-105709968D01*
X157238730Y-105709968D01*
X157419370Y-105674036D01*
X157589530Y-105603554D01*
X157742669Y-105501230D01*
X157872903Y-105370996D01*
X157975227Y-105217857D01*
X158045709Y-105047697D01*
X158081641Y-104867057D01*
X158081641Y-104682879D01*
X158045709Y-104502239D01*
X158027232Y-104457631D01*
X158127271Y-104499068D01*
X158307911Y-104535000D01*
X158492089Y-104535000D01*
X158672729Y-104499068D01*
X158842889Y-104428586D01*
X158996028Y-104326262D01*
X159126262Y-104196028D01*
X159228586Y-104042889D01*
X159299068Y-103872729D01*
X159335000Y-103692089D01*
X159335000Y-103685000D01*
X159342089Y-103685000D01*
X159522729Y-103649068D01*
X159692889Y-103578586D01*
X159846028Y-103476262D01*
X159873000Y-103449290D01*
X159873000Y-115115000D01*
X129465006Y-115115000D01*
X129840926Y-114739080D01*
X130156654Y-114266560D01*
X130374131Y-113741523D01*
X130485000Y-113184148D01*
X130485000Y-112615852D01*
X130374131Y-112058477D01*
X130156654Y-111533440D01*
X129840926Y-111060920D01*
X129439080Y-110659074D01*
X128966560Y-110343346D01*
X128441523Y-110125869D01*
X127884148Y-110015000D01*
X127315852Y-110015000D01*
X126758477Y-110125869D01*
X126233440Y-110343346D01*
X125760920Y-110659074D01*
X125385000Y-111034994D01*
X125385000Y-106207911D01*
X126665000Y-106207911D01*
X126665000Y-106392089D01*
X126700932Y-106572729D01*
X126771414Y-106742889D01*
X126873738Y-106896028D01*
X127003972Y-107026262D01*
X127157111Y-107128586D01*
X127327271Y-107199068D01*
X127507911Y-107235000D01*
X127692089Y-107235000D01*
X127872729Y-107199068D01*
X128042889Y-107128586D01*
X128196028Y-107026262D01*
X128326262Y-106896028D01*
X128428586Y-106742889D01*
X128499068Y-106572729D01*
X128535000Y-106392089D01*
X128535000Y-106207911D01*
X128499068Y-106027271D01*
X128428586Y-105857111D01*
X128326262Y-105703972D01*
X128196028Y-105573738D01*
X128042889Y-105471414D01*
X127872729Y-105400932D01*
X127692089Y-105365000D01*
X127507911Y-105365000D01*
X127327271Y-105400932D01*
X127157111Y-105471414D01*
X127003972Y-105573738D01*
X126873738Y-105703972D01*
X126771414Y-105857111D01*
X126700932Y-106027271D01*
X126665000Y-106207911D01*
X125385000Y-106207911D01*
X125385000Y-104407911D01*
X128065000Y-104407911D01*
X128065000Y-104592089D01*
X128100932Y-104772729D01*
X128171414Y-104942889D01*
X128273738Y-105096028D01*
X128403972Y-105226262D01*
X128557111Y-105328586D01*
X128727271Y-105399068D01*
X128907911Y-105435000D01*
X129092089Y-105435000D01*
X129272729Y-105399068D01*
X129442889Y-105328586D01*
X129596028Y-105226262D01*
X129700000Y-105122290D01*
X129803972Y-105226262D01*
X129957111Y-105328586D01*
X130127271Y-105399068D01*
X130307911Y-105435000D01*
X130492089Y-105435000D01*
X130672729Y-105399068D01*
X130842889Y-105328586D01*
X130996028Y-105226262D01*
X131100000Y-105122290D01*
X131203972Y-105226262D01*
X131357111Y-105328586D01*
X131527271Y-105399068D01*
X131568000Y-105407170D01*
X131600932Y-105572729D01*
X131671414Y-105742889D01*
X131773738Y-105896028D01*
X131903972Y-106026262D01*
X131934360Y-106046567D01*
X131900932Y-106127271D01*
X131865000Y-106307911D01*
X131865000Y-106492089D01*
X131900932Y-106672729D01*
X131971414Y-106842889D01*
X132073738Y-106996028D01*
X132203972Y-107126262D01*
X132357111Y-107228586D01*
X132527271Y-107299068D01*
X132707911Y-107335000D01*
X132892089Y-107335000D01*
X133072729Y-107299068D01*
X133242889Y-107228586D01*
X133396028Y-107126262D01*
X133526262Y-106996028D01*
X133628586Y-106842889D01*
X133699068Y-106672729D01*
X133735000Y-106492089D01*
X133735000Y-106307911D01*
X133699068Y-106127271D01*
X133629126Y-105958415D01*
X133727271Y-105999068D01*
X133907911Y-106035000D01*
X134092089Y-106035000D01*
X134272729Y-105999068D01*
X134442889Y-105928586D01*
X134596028Y-105826262D01*
X134726262Y-105696028D01*
X134828586Y-105542889D01*
X134899068Y-105372729D01*
X134935000Y-105192089D01*
X134935000Y-105120497D01*
X135007911Y-105135000D01*
X135165000Y-105135000D01*
X135165000Y-106351599D01*
X135176779Y-106471193D01*
X135027271Y-106500932D01*
X134857111Y-106571414D01*
X134703972Y-106673738D01*
X134573738Y-106803972D01*
X134471414Y-106957111D01*
X134400932Y-107127271D01*
X134365000Y-107307911D01*
X134365000Y-107323536D01*
X134227271Y-107350932D01*
X134057111Y-107421414D01*
X133903972Y-107523738D01*
X133773738Y-107653972D01*
X133671414Y-107807111D01*
X133659147Y-107836727D01*
X133572729Y-107800932D01*
X133392089Y-107765000D01*
X133207911Y-107765000D01*
X133027271Y-107800932D01*
X132857111Y-107871414D01*
X132703972Y-107973738D01*
X132700000Y-107977710D01*
X132696028Y-107973738D01*
X132542889Y-107871414D01*
X132372729Y-107800932D01*
X132192089Y-107765000D01*
X132007911Y-107765000D01*
X131827271Y-107800932D01*
X131657111Y-107871414D01*
X131619101Y-107896811D01*
X131496028Y-107773738D01*
X131342889Y-107671414D01*
X131270595Y-107641469D01*
X131299068Y-107572729D01*
X131335000Y-107392089D01*
X131335000Y-107207911D01*
X131299068Y-107027271D01*
X131228586Y-106857111D01*
X131126262Y-106703972D01*
X130996028Y-106573738D01*
X130842889Y-106471414D01*
X130672729Y-106400932D01*
X130492089Y-106365000D01*
X130307911Y-106365000D01*
X130127271Y-106400932D01*
X129957111Y-106471414D01*
X129803972Y-106573738D01*
X129673738Y-106703972D01*
X129571414Y-106857111D01*
X129500932Y-107027271D01*
X129485248Y-107106118D01*
X129472729Y-107100932D01*
X129292089Y-107065000D01*
X129107911Y-107065000D01*
X128927271Y-107100932D01*
X128757111Y-107171414D01*
X128603972Y-107273738D01*
X128473738Y-107403972D01*
X128371414Y-107557111D01*
X128300932Y-107727271D01*
X128265000Y-107907911D01*
X128265000Y-108092089D01*
X128300932Y-108272729D01*
X128371414Y-108442889D01*
X128473738Y-108596028D01*
X128603972Y-108726262D01*
X128757111Y-108828586D01*
X128927271Y-108899068D01*
X129107911Y-108935000D01*
X129292089Y-108935000D01*
X129472729Y-108899068D01*
X129642889Y-108828586D01*
X129796028Y-108726262D01*
X129926262Y-108596028D01*
X129965000Y-108538052D01*
X129965000Y-108592089D01*
X130000932Y-108772729D01*
X130071414Y-108942889D01*
X130173738Y-109096028D01*
X130303972Y-109226262D01*
X130457111Y-109328586D01*
X130627271Y-109399068D01*
X130807911Y-109435000D01*
X130992089Y-109435000D01*
X131172729Y-109399068D01*
X131342889Y-109328586D01*
X131380899Y-109303189D01*
X131503972Y-109426262D01*
X131657111Y-109528586D01*
X131827271Y-109599068D01*
X132007911Y-109635000D01*
X132192089Y-109635000D01*
X132372729Y-109599068D01*
X132542889Y-109528586D01*
X132696028Y-109426262D01*
X132700000Y-109422290D01*
X132703972Y-109426262D01*
X132857111Y-109528586D01*
X133027271Y-109599068D01*
X133207911Y-109635000D01*
X133392089Y-109635000D01*
X133572729Y-109599068D01*
X133742889Y-109528586D01*
X133896028Y-109426262D01*
X133914379Y-109407911D01*
X135565000Y-109407911D01*
X135565000Y-109592089D01*
X135600932Y-109772729D01*
X135671414Y-109942889D01*
X135773738Y-110096028D01*
X135903972Y-110226262D01*
X136057111Y-110328586D01*
X136227271Y-110399068D01*
X136407911Y-110435000D01*
X136592089Y-110435000D01*
X136772729Y-110399068D01*
X136942889Y-110328586D01*
X137096028Y-110226262D01*
X137226262Y-110096028D01*
X137328586Y-109942889D01*
X137343074Y-109907911D01*
X139815000Y-109907911D01*
X139815000Y-110092089D01*
X139850932Y-110272729D01*
X139921414Y-110442889D01*
X140023738Y-110596028D01*
X140153972Y-110726262D01*
X140307111Y-110828586D01*
X140477271Y-110899068D01*
X140657911Y-110935000D01*
X140842089Y-110935000D01*
X141022729Y-110899068D01*
X141192889Y-110828586D01*
X141346028Y-110726262D01*
X141476262Y-110596028D01*
X141578586Y-110442889D01*
X141649068Y-110272729D01*
X141669585Y-110169585D01*
X141772729Y-110149068D01*
X141942889Y-110078586D01*
X142096028Y-109976262D01*
X142226262Y-109846028D01*
X142328586Y-109692889D01*
X142399068Y-109522729D01*
X142410981Y-109462835D01*
X156165000Y-109462835D01*
X156165000Y-109637165D01*
X156199010Y-109808145D01*
X156265723Y-109969205D01*
X156362576Y-110114155D01*
X156398421Y-110150000D01*
X156362576Y-110185845D01*
X156265723Y-110330795D01*
X156199010Y-110491855D01*
X156165000Y-110662835D01*
X156165000Y-110837165D01*
X156199010Y-111008145D01*
X156265723Y-111169205D01*
X156362576Y-111314155D01*
X156398421Y-111350000D01*
X156362576Y-111385845D01*
X156265723Y-111530795D01*
X156199010Y-111691855D01*
X156165000Y-111862835D01*
X156165000Y-112037165D01*
X156199010Y-112208145D01*
X156265723Y-112369205D01*
X156362576Y-112514155D01*
X156485845Y-112637424D01*
X156630795Y-112734277D01*
X156791855Y-112800990D01*
X156962835Y-112835000D01*
X157137165Y-112835000D01*
X157308145Y-112800990D01*
X157469205Y-112734277D01*
X157614155Y-112637424D01*
X157737424Y-112514155D01*
X157750000Y-112495334D01*
X157762576Y-112514155D01*
X157885845Y-112637424D01*
X158030795Y-112734277D01*
X158191855Y-112800990D01*
X158362835Y-112835000D01*
X158537165Y-112835000D01*
X158708145Y-112800990D01*
X158869205Y-112734277D01*
X159014155Y-112637424D01*
X159137424Y-112514155D01*
X159234277Y-112369205D01*
X159300990Y-112208145D01*
X159335000Y-112037165D01*
X159335000Y-111862835D01*
X159300990Y-111691855D01*
X159234277Y-111530795D01*
X159137424Y-111385845D01*
X159101579Y-111350000D01*
X159137424Y-111314155D01*
X159234277Y-111169205D01*
X159300990Y-111008145D01*
X159335000Y-110837165D01*
X159335000Y-110662835D01*
X159300990Y-110491855D01*
X159234277Y-110330795D01*
X159137424Y-110185845D01*
X159101579Y-110150000D01*
X159137424Y-110114155D01*
X159234277Y-109969205D01*
X159300990Y-109808145D01*
X159335000Y-109637165D01*
X159335000Y-109462835D01*
X159300990Y-109291855D01*
X159234277Y-109130795D01*
X159137424Y-108985845D01*
X159014155Y-108862576D01*
X158869205Y-108765723D01*
X158708145Y-108699010D01*
X158537165Y-108665000D01*
X158362835Y-108665000D01*
X158191855Y-108699010D01*
X158030795Y-108765723D01*
X157885845Y-108862576D01*
X157762576Y-108985845D01*
X157750000Y-109004666D01*
X157737424Y-108985845D01*
X157614155Y-108862576D01*
X157469205Y-108765723D01*
X157308145Y-108699010D01*
X157137165Y-108665000D01*
X156962835Y-108665000D01*
X156791855Y-108699010D01*
X156630795Y-108765723D01*
X156485845Y-108862576D01*
X156362576Y-108985845D01*
X156265723Y-109130795D01*
X156199010Y-109291855D01*
X156165000Y-109462835D01*
X142410981Y-109462835D01*
X142435000Y-109342089D01*
X142435000Y-109157911D01*
X142399068Y-108977271D01*
X142328586Y-108807111D01*
X142226262Y-108653972D01*
X142096028Y-108523738D01*
X141942889Y-108421414D01*
X141772729Y-108350932D01*
X141592089Y-108315000D01*
X141407911Y-108315000D01*
X141227271Y-108350932D01*
X141057111Y-108421414D01*
X140903972Y-108523738D01*
X140773738Y-108653972D01*
X140671414Y-108807111D01*
X140600932Y-108977271D01*
X140580415Y-109080415D01*
X140477271Y-109100932D01*
X140307111Y-109171414D01*
X140153972Y-109273738D01*
X140023738Y-109403972D01*
X139921414Y-109557111D01*
X139850932Y-109727271D01*
X139815000Y-109907911D01*
X137343074Y-109907911D01*
X137399068Y-109772729D01*
X137404777Y-109744030D01*
X137477271Y-109774058D01*
X137657911Y-109809990D01*
X137842089Y-109809990D01*
X138022729Y-109774058D01*
X138192889Y-109703576D01*
X138346028Y-109601252D01*
X138476262Y-109471018D01*
X138578586Y-109317879D01*
X138649068Y-109147719D01*
X138685000Y-108967079D01*
X138685000Y-108782901D01*
X138649068Y-108602261D01*
X138578586Y-108432101D01*
X138476262Y-108278962D01*
X138346028Y-108148728D01*
X138192889Y-108046404D01*
X138022729Y-107975922D01*
X137842089Y-107939990D01*
X137657911Y-107939990D01*
X137477271Y-107975922D01*
X137307111Y-108046404D01*
X137153972Y-108148728D01*
X137023738Y-108278962D01*
X136921414Y-108432101D01*
X136850932Y-108602261D01*
X136845223Y-108630960D01*
X136772729Y-108600932D01*
X136592089Y-108565000D01*
X136407911Y-108565000D01*
X136227271Y-108600932D01*
X136057111Y-108671414D01*
X135903972Y-108773738D01*
X135773738Y-108903972D01*
X135671414Y-109057111D01*
X135600932Y-109227271D01*
X135565000Y-109407911D01*
X133914379Y-109407911D01*
X134026262Y-109296028D01*
X134128586Y-109142889D01*
X134140853Y-109113273D01*
X134227271Y-109149068D01*
X134407911Y-109185000D01*
X134592089Y-109185000D01*
X134772729Y-109149068D01*
X134942889Y-109078586D01*
X135096028Y-108976262D01*
X135226262Y-108846028D01*
X135328586Y-108692889D01*
X135399068Y-108522729D01*
X135435000Y-108342089D01*
X135435000Y-108326464D01*
X135572729Y-108299068D01*
X135742889Y-108228586D01*
X135896028Y-108126262D01*
X136026262Y-107996028D01*
X136128586Y-107842889D01*
X136199068Y-107672729D01*
X136235000Y-107492089D01*
X136235000Y-107307911D01*
X136233041Y-107298061D01*
X148765000Y-107298061D01*
X148765000Y-107501939D01*
X148804774Y-107701898D01*
X148882795Y-107890256D01*
X148996063Y-108059774D01*
X149140226Y-108203937D01*
X149309744Y-108317205D01*
X149498102Y-108395226D01*
X149698061Y-108435000D01*
X149901939Y-108435000D01*
X150101898Y-108395226D01*
X150290256Y-108317205D01*
X150459774Y-108203937D01*
X150603937Y-108059774D01*
X150717205Y-107890256D01*
X150795226Y-107701898D01*
X150835000Y-107501939D01*
X150835000Y-107298061D01*
X150795226Y-107098102D01*
X150717205Y-106909744D01*
X150603937Y-106740226D01*
X150459774Y-106596063D01*
X150290256Y-106482795D01*
X150101898Y-106404774D01*
X149901939Y-106365000D01*
X149698061Y-106365000D01*
X149498102Y-106404774D01*
X149309744Y-106482795D01*
X149140226Y-106596063D01*
X148996063Y-106740226D01*
X148882795Y-106909744D01*
X148804774Y-107098102D01*
X148765000Y-107298061D01*
X136233041Y-107298061D01*
X136199068Y-107127271D01*
X136140800Y-106986599D01*
X137200000Y-106986599D01*
X137323882Y-106974398D01*
X137443004Y-106938263D01*
X137552787Y-106879582D01*
X137649013Y-106800612D01*
X137727983Y-106704386D01*
X137786664Y-106594603D01*
X137822799Y-106475481D01*
X137835000Y-106351599D01*
X137835000Y-104507911D01*
X148865000Y-104507911D01*
X148865000Y-104692089D01*
X148900932Y-104872729D01*
X148953649Y-105000000D01*
X148900932Y-105127271D01*
X148865000Y-105307911D01*
X148865000Y-105492089D01*
X148900932Y-105672729D01*
X148971414Y-105842889D01*
X149073738Y-105996028D01*
X149203972Y-106126262D01*
X149357111Y-106228586D01*
X149527271Y-106299068D01*
X149707911Y-106335000D01*
X149892089Y-106335000D01*
X150072729Y-106299068D01*
X150242889Y-106228586D01*
X150396028Y-106126262D01*
X150526262Y-105996028D01*
X150628586Y-105842889D01*
X150699068Y-105672729D01*
X150735000Y-105492089D01*
X150735000Y-105307911D01*
X150699068Y-105127271D01*
X150646351Y-105000000D01*
X150699068Y-104872729D01*
X150735000Y-104692089D01*
X150735000Y-104507911D01*
X150699068Y-104327271D01*
X150628586Y-104157111D01*
X150526262Y-104003972D01*
X150396028Y-103873738D01*
X150242889Y-103771414D01*
X150072729Y-103700932D01*
X149892089Y-103665000D01*
X149707911Y-103665000D01*
X149527271Y-103700932D01*
X149357111Y-103771414D01*
X149203972Y-103873738D01*
X149073738Y-104003972D01*
X148971414Y-104157111D01*
X148900932Y-104327271D01*
X148865000Y-104507911D01*
X137835000Y-104507911D01*
X137835000Y-103451599D01*
X137822799Y-103327717D01*
X137786664Y-103208595D01*
X137727983Y-103098812D01*
X137649013Y-103002586D01*
X137552787Y-102923616D01*
X137443004Y-102864935D01*
X137323882Y-102828800D01*
X137200000Y-102816599D01*
X135888210Y-102816599D01*
X135869555Y-102788680D01*
X135962970Y-102726262D01*
X136093204Y-102596028D01*
X136195528Y-102442889D01*
X136266010Y-102272729D01*
X136301942Y-102092089D01*
X136301942Y-101907911D01*
X136266010Y-101727271D01*
X136195528Y-101557111D01*
X136093204Y-101403972D01*
X135999893Y-101310661D01*
X136078586Y-101192889D01*
X136093074Y-101157911D01*
X136715000Y-101157911D01*
X136715000Y-101342089D01*
X136750932Y-101522729D01*
X136821414Y-101692889D01*
X136923738Y-101846028D01*
X137053972Y-101976262D01*
X137207111Y-102078586D01*
X137377271Y-102149068D01*
X137557911Y-102185000D01*
X137742089Y-102185000D01*
X137922729Y-102149068D01*
X138092889Y-102078586D01*
X138246028Y-101976262D01*
X138376262Y-101846028D01*
X138478586Y-101692889D01*
X138549068Y-101522729D01*
X138585000Y-101342089D01*
X138585000Y-101207911D01*
X141565000Y-101207911D01*
X141565000Y-101392089D01*
X141600932Y-101572729D01*
X141671414Y-101742889D01*
X141773738Y-101896028D01*
X141903972Y-102026262D01*
X142057111Y-102128586D01*
X142227271Y-102199068D01*
X142407911Y-102235000D01*
X142592089Y-102235000D01*
X142772729Y-102199068D01*
X142942889Y-102128586D01*
X143096028Y-102026262D01*
X143226262Y-101896028D01*
X143328586Y-101742889D01*
X143399068Y-101572729D01*
X143435000Y-101392089D01*
X143435000Y-101207911D01*
X143399068Y-101027271D01*
X143328586Y-100857111D01*
X143226262Y-100703972D01*
X143096028Y-100573738D01*
X142942889Y-100471414D01*
X142772729Y-100400932D01*
X142592089Y-100365000D01*
X142407911Y-100365000D01*
X142227271Y-100400932D01*
X142057111Y-100471414D01*
X141903972Y-100573738D01*
X141773738Y-100703972D01*
X141671414Y-100857111D01*
X141600932Y-101027271D01*
X141565000Y-101207911D01*
X138585000Y-101207911D01*
X138585000Y-101157911D01*
X138549068Y-100977271D01*
X138478586Y-100807111D01*
X138376262Y-100653972D01*
X138246028Y-100523738D01*
X138092889Y-100421414D01*
X137922729Y-100350932D01*
X137742089Y-100315000D01*
X137557911Y-100315000D01*
X137377271Y-100350932D01*
X137207111Y-100421414D01*
X137053972Y-100523738D01*
X136923738Y-100653972D01*
X136821414Y-100807111D01*
X136750932Y-100977271D01*
X136715000Y-101157911D01*
X136093074Y-101157911D01*
X136149068Y-101022729D01*
X136185000Y-100842089D01*
X136185000Y-100657911D01*
X136149068Y-100477271D01*
X136078586Y-100307111D01*
X135976262Y-100153972D01*
X135846028Y-100023738D01*
X135692889Y-99921414D01*
X135522729Y-99850932D01*
X135342089Y-99815000D01*
X135157911Y-99815000D01*
X134977271Y-99850932D01*
X134807111Y-99921414D01*
X134653972Y-100023738D01*
X134523738Y-100153972D01*
X134421414Y-100307111D01*
X134350932Y-100477271D01*
X134315000Y-100657911D01*
X134315000Y-100842089D01*
X134350932Y-101022729D01*
X134421414Y-101192889D01*
X134523738Y-101346028D01*
X134617049Y-101439339D01*
X134538356Y-101557111D01*
X134467874Y-101727271D01*
X134431942Y-101907911D01*
X134431942Y-102092089D01*
X134467874Y-102272729D01*
X134538356Y-102442889D01*
X134582955Y-102509636D01*
X134489540Y-102572054D01*
X134359306Y-102702288D01*
X134256982Y-102855427D01*
X134186500Y-103025587D01*
X134150568Y-103206227D01*
X134150568Y-103390405D01*
X134186500Y-103571045D01*
X134256982Y-103741205D01*
X134269958Y-103760625D01*
X134200932Y-103927271D01*
X134165000Y-104107911D01*
X134165000Y-104179503D01*
X134092089Y-104165000D01*
X133907911Y-104165000D01*
X133727271Y-104200932D01*
X133557111Y-104271414D01*
X133403972Y-104373738D01*
X133273738Y-104503972D01*
X133174613Y-104652323D01*
X133096028Y-104573738D01*
X132942889Y-104471414D01*
X132772729Y-104400932D01*
X132732000Y-104392830D01*
X132699068Y-104227271D01*
X132628586Y-104057111D01*
X132526262Y-103903972D01*
X132396028Y-103773738D01*
X132242889Y-103671414D01*
X132072729Y-103600932D01*
X131892089Y-103565000D01*
X131707911Y-103565000D01*
X131527271Y-103600932D01*
X131357111Y-103671414D01*
X131203972Y-103773738D01*
X131100000Y-103877710D01*
X130996028Y-103773738D01*
X130842889Y-103671414D01*
X130672729Y-103600932D01*
X130492089Y-103565000D01*
X130307911Y-103565000D01*
X130127271Y-103600932D01*
X129957111Y-103671414D01*
X129803972Y-103773738D01*
X129700000Y-103877710D01*
X129596028Y-103773738D01*
X129442889Y-103671414D01*
X129272729Y-103600932D01*
X129092089Y-103565000D01*
X128907911Y-103565000D01*
X128727271Y-103600932D01*
X128557111Y-103671414D01*
X128403972Y-103773738D01*
X128273738Y-103903972D01*
X128171414Y-104057111D01*
X128100932Y-104227271D01*
X128065000Y-104407911D01*
X125385000Y-104407911D01*
X125385000Y-99707911D01*
X139965000Y-99707911D01*
X139965000Y-99892089D01*
X140000932Y-100072729D01*
X140071414Y-100242889D01*
X140173738Y-100396028D01*
X140303972Y-100526262D01*
X140457111Y-100628586D01*
X140627271Y-100699068D01*
X140807911Y-100735000D01*
X140992089Y-100735000D01*
X141172729Y-100699068D01*
X141342889Y-100628586D01*
X141496028Y-100526262D01*
X141626262Y-100396028D01*
X141728586Y-100242889D01*
X141799068Y-100072729D01*
X141835000Y-99892089D01*
X141835000Y-99707911D01*
X143240000Y-99707911D01*
X143240000Y-99892089D01*
X143275932Y-100072729D01*
X143346414Y-100242889D01*
X143448738Y-100396028D01*
X143578972Y-100526262D01*
X143732111Y-100628586D01*
X143902271Y-100699068D01*
X144082911Y-100735000D01*
X144267089Y-100735000D01*
X144447729Y-100699068D01*
X144617889Y-100628586D01*
X144771028Y-100526262D01*
X144901262Y-100396028D01*
X145003586Y-100242889D01*
X145074068Y-100072729D01*
X145110000Y-99892089D01*
X145110000Y-99707911D01*
X148765000Y-99707911D01*
X148765000Y-99892089D01*
X148800932Y-100072729D01*
X148853649Y-100200000D01*
X148800932Y-100327271D01*
X148765000Y-100507911D01*
X148765000Y-100692089D01*
X148800932Y-100872729D01*
X148871414Y-101042889D01*
X148973738Y-101196028D01*
X149103972Y-101326262D01*
X149257111Y-101428586D01*
X149427271Y-101499068D01*
X149607911Y-101535000D01*
X149792089Y-101535000D01*
X149972729Y-101499068D01*
X150142889Y-101428586D01*
X150296028Y-101326262D01*
X150426262Y-101196028D01*
X150528586Y-101042889D01*
X150599068Y-100872729D01*
X150611961Y-100807911D01*
X154165000Y-100807911D01*
X154165000Y-100992089D01*
X154200932Y-101172729D01*
X154271414Y-101342889D01*
X154373738Y-101496028D01*
X154503972Y-101626262D01*
X154657111Y-101728586D01*
X154722501Y-101755671D01*
X154671414Y-101832128D01*
X154600932Y-102002288D01*
X154565000Y-102182928D01*
X154565000Y-102367106D01*
X154600932Y-102547746D01*
X154671414Y-102717906D01*
X154773738Y-102871045D01*
X154903972Y-103001279D01*
X155057111Y-103103603D01*
X155227271Y-103174085D01*
X155407911Y-103210017D01*
X155592089Y-103210017D01*
X155772729Y-103174085D01*
X155942889Y-103103603D01*
X156096028Y-103001279D01*
X156226262Y-102871045D01*
X156233492Y-102860224D01*
X156327271Y-102899068D01*
X156507911Y-102935000D01*
X156692089Y-102935000D01*
X156872729Y-102899068D01*
X157042889Y-102828586D01*
X157196028Y-102726262D01*
X157326262Y-102596028D01*
X157428586Y-102442889D01*
X157499068Y-102272729D01*
X157535000Y-102092089D01*
X157535000Y-101907911D01*
X157499068Y-101727271D01*
X157428586Y-101557111D01*
X157326262Y-101403972D01*
X157232290Y-101310000D01*
X157342089Y-101310000D01*
X157522729Y-101274068D01*
X157692889Y-101203586D01*
X157846028Y-101101262D01*
X157976262Y-100971028D01*
X158078586Y-100817889D01*
X158149068Y-100647729D01*
X158185000Y-100467089D01*
X158185000Y-100282911D01*
X158149068Y-100102271D01*
X158078586Y-99932111D01*
X157976262Y-99778972D01*
X157846028Y-99648738D01*
X157692889Y-99546414D01*
X157522729Y-99475932D01*
X157342089Y-99440000D01*
X157157911Y-99440000D01*
X156977271Y-99475932D01*
X156807111Y-99546414D01*
X156653972Y-99648738D01*
X156523738Y-99778972D01*
X156421414Y-99932111D01*
X156350932Y-100102271D01*
X156315000Y-100282911D01*
X156315000Y-100467089D01*
X156350932Y-100647729D01*
X156421414Y-100817889D01*
X156523738Y-100971028D01*
X156617710Y-101065000D01*
X156507911Y-101065000D01*
X156327271Y-101100932D01*
X156157111Y-101171414D01*
X156003972Y-101273738D01*
X155916031Y-101361679D01*
X155928586Y-101342889D01*
X155999068Y-101172729D01*
X156035000Y-100992089D01*
X156035000Y-100807911D01*
X155999068Y-100627271D01*
X155928586Y-100457111D01*
X155826262Y-100303972D01*
X155696028Y-100173738D01*
X155542889Y-100071414D01*
X155372729Y-100000932D01*
X155192089Y-99965000D01*
X155007911Y-99965000D01*
X154827271Y-100000932D01*
X154657111Y-100071414D01*
X154503972Y-100173738D01*
X154373738Y-100303972D01*
X154271414Y-100457111D01*
X154200932Y-100627271D01*
X154165000Y-100807911D01*
X150611961Y-100807911D01*
X150635000Y-100692089D01*
X150635000Y-100507911D01*
X150599068Y-100327271D01*
X150546351Y-100200000D01*
X150599068Y-100072729D01*
X150635000Y-99892089D01*
X150635000Y-99707911D01*
X150599068Y-99527271D01*
X150528586Y-99357111D01*
X150426262Y-99203972D01*
X150296028Y-99073738D01*
X150142889Y-98971414D01*
X149972729Y-98900932D01*
X149792089Y-98865000D01*
X149607911Y-98865000D01*
X149427271Y-98900932D01*
X149257111Y-98971414D01*
X149103972Y-99073738D01*
X148973738Y-99203972D01*
X148871414Y-99357111D01*
X148800932Y-99527271D01*
X148765000Y-99707911D01*
X145110000Y-99707911D01*
X145074068Y-99527271D01*
X145003586Y-99357111D01*
X144901262Y-99203972D01*
X144771028Y-99073738D01*
X144617889Y-98971414D01*
X144447729Y-98900932D01*
X144267089Y-98865000D01*
X144082911Y-98865000D01*
X143902271Y-98900932D01*
X143732111Y-98971414D01*
X143578972Y-99073738D01*
X143448738Y-99203972D01*
X143346414Y-99357111D01*
X143275932Y-99527271D01*
X143240000Y-99707911D01*
X141835000Y-99707911D01*
X141799068Y-99527271D01*
X141728586Y-99357111D01*
X141626262Y-99203972D01*
X141496028Y-99073738D01*
X141342889Y-98971414D01*
X141172729Y-98900932D01*
X140992089Y-98865000D01*
X140807911Y-98865000D01*
X140627271Y-98900932D01*
X140457111Y-98971414D01*
X140303972Y-99073738D01*
X140173738Y-99203972D01*
X140071414Y-99357111D01*
X140000932Y-99527271D01*
X139965000Y-99707911D01*
X125385000Y-99707911D01*
X125385000Y-96207911D01*
X128265000Y-96207911D01*
X128265000Y-96392089D01*
X128300932Y-96572729D01*
X128371414Y-96742889D01*
X128473738Y-96896028D01*
X128603972Y-97026262D01*
X128757111Y-97128586D01*
X128927271Y-97199068D01*
X129107911Y-97235000D01*
X129292089Y-97235000D01*
X129472729Y-97199068D01*
X129642889Y-97128586D01*
X129796028Y-97026262D01*
X129926262Y-96896028D01*
X130028586Y-96742889D01*
X130099068Y-96572729D01*
X130135000Y-96392089D01*
X130135000Y-96207911D01*
X130099068Y-96027271D01*
X130028586Y-95857111D01*
X129926262Y-95703972D01*
X129830201Y-95607911D01*
X130265000Y-95607911D01*
X130265000Y-95792089D01*
X130300932Y-95972729D01*
X130371414Y-96142889D01*
X130473738Y-96296028D01*
X130603972Y-96426262D01*
X130757111Y-96528586D01*
X130927271Y-96599068D01*
X131107911Y-96635000D01*
X131292089Y-96635000D01*
X131472729Y-96599068D01*
X131642889Y-96528586D01*
X131796028Y-96426262D01*
X131926262Y-96296028D01*
X132028586Y-96142889D01*
X132099068Y-95972729D01*
X132135000Y-95792089D01*
X132135000Y-95607911D01*
X132115109Y-95507911D01*
X134265000Y-95507911D01*
X134265000Y-95692089D01*
X134300932Y-95872729D01*
X134312228Y-95900000D01*
X134300932Y-95927271D01*
X134265000Y-96107911D01*
X134265000Y-96292089D01*
X134300932Y-96472729D01*
X134371414Y-96642889D01*
X134473738Y-96796028D01*
X134603972Y-96926262D01*
X134757111Y-97028586D01*
X134760855Y-97030137D01*
X134700619Y-97070385D01*
X134570385Y-97200619D01*
X134468061Y-97353758D01*
X134397579Y-97523918D01*
X134361647Y-97704558D01*
X134361647Y-97888736D01*
X134397579Y-98069376D01*
X134468061Y-98239536D01*
X134570385Y-98392675D01*
X134700619Y-98522909D01*
X134853758Y-98625233D01*
X135023918Y-98695715D01*
X135204558Y-98731647D01*
X135388736Y-98731647D01*
X135569376Y-98695715D01*
X135739536Y-98625233D01*
X135892675Y-98522909D01*
X136022909Y-98392675D01*
X136125233Y-98239536D01*
X136138332Y-98207911D01*
X141565000Y-98207911D01*
X141565000Y-98392089D01*
X141600932Y-98572729D01*
X141671414Y-98742889D01*
X141773738Y-98896028D01*
X141903972Y-99026262D01*
X142057111Y-99128586D01*
X142227271Y-99199068D01*
X142407911Y-99235000D01*
X142592089Y-99235000D01*
X142772729Y-99199068D01*
X142942889Y-99128586D01*
X143096028Y-99026262D01*
X143226262Y-98896028D01*
X143328586Y-98742889D01*
X143399068Y-98572729D01*
X143435000Y-98392089D01*
X143435000Y-98207911D01*
X143399068Y-98027271D01*
X143328586Y-97857111D01*
X143226262Y-97703972D01*
X143180201Y-97657911D01*
X155565000Y-97657911D01*
X155565000Y-97842089D01*
X155600932Y-98022729D01*
X155671414Y-98192889D01*
X155773738Y-98346028D01*
X155903972Y-98476262D01*
X156057111Y-98578586D01*
X156227271Y-98649068D01*
X156407911Y-98685000D01*
X156592089Y-98685000D01*
X156772729Y-98649068D01*
X156942889Y-98578586D01*
X157096028Y-98476262D01*
X157226262Y-98346028D01*
X157328586Y-98192889D01*
X157399068Y-98022729D01*
X157435000Y-97842089D01*
X157435000Y-97657911D01*
X157399068Y-97477271D01*
X157328586Y-97307111D01*
X157226262Y-97153972D01*
X157096028Y-97023738D01*
X156942889Y-96921414D01*
X156772729Y-96850932D01*
X156592089Y-96815000D01*
X156407911Y-96815000D01*
X156227271Y-96850932D01*
X156057111Y-96921414D01*
X155903972Y-97023738D01*
X155773738Y-97153972D01*
X155671414Y-97307111D01*
X155600932Y-97477271D01*
X155565000Y-97657911D01*
X143180201Y-97657911D01*
X143096028Y-97573738D01*
X142942889Y-97471414D01*
X142772729Y-97400932D01*
X142592089Y-97365000D01*
X142407911Y-97365000D01*
X142227271Y-97400932D01*
X142057111Y-97471414D01*
X141903972Y-97573738D01*
X141773738Y-97703972D01*
X141671414Y-97857111D01*
X141600932Y-98027271D01*
X141565000Y-98207911D01*
X136138332Y-98207911D01*
X136195715Y-98069376D01*
X136231647Y-97888736D01*
X136231647Y-97704558D01*
X136195715Y-97523918D01*
X136125233Y-97353758D01*
X136022909Y-97200619D01*
X135892675Y-97070385D01*
X135739536Y-96968061D01*
X135735792Y-96966510D01*
X135796028Y-96926262D01*
X135926262Y-96796028D01*
X136028586Y-96642889D01*
X136099068Y-96472729D01*
X136135000Y-96292089D01*
X136135000Y-96107911D01*
X136099068Y-95927271D01*
X136087772Y-95900000D01*
X136099068Y-95872729D01*
X136135000Y-95692089D01*
X136135000Y-95507911D01*
X136099068Y-95327271D01*
X136028586Y-95157111D01*
X135926262Y-95003972D01*
X135796028Y-94873738D01*
X135642889Y-94771414D01*
X135472729Y-94700932D01*
X135292089Y-94665000D01*
X135107911Y-94665000D01*
X134927271Y-94700932D01*
X134757111Y-94771414D01*
X134603972Y-94873738D01*
X134473738Y-95003972D01*
X134371414Y-95157111D01*
X134300932Y-95327271D01*
X134265000Y-95507911D01*
X132115109Y-95507911D01*
X132099068Y-95427271D01*
X132070595Y-95358531D01*
X132142889Y-95328586D01*
X132296028Y-95226262D01*
X132426262Y-95096028D01*
X132528586Y-94942889D01*
X132599068Y-94772729D01*
X132635000Y-94592089D01*
X132635000Y-94435000D01*
X132792089Y-94435000D01*
X132972729Y-94399068D01*
X133142889Y-94328586D01*
X133173831Y-94307911D01*
X139865000Y-94307911D01*
X139865000Y-94492089D01*
X139900932Y-94672729D01*
X139971414Y-94842889D01*
X140073738Y-94996028D01*
X140203972Y-95126262D01*
X140357111Y-95228586D01*
X140527271Y-95299068D01*
X140707911Y-95335000D01*
X140892089Y-95335000D01*
X141072729Y-95299068D01*
X141242889Y-95228586D01*
X141396028Y-95126262D01*
X141526262Y-94996028D01*
X141628586Y-94842889D01*
X141699068Y-94672729D01*
X141735000Y-94492089D01*
X141735000Y-94307911D01*
X141712099Y-94192784D01*
X141727271Y-94199068D01*
X141907911Y-94235000D01*
X142092089Y-94235000D01*
X142272729Y-94199068D01*
X142442889Y-94128586D01*
X142596028Y-94026262D01*
X142726262Y-93896028D01*
X142766704Y-93835502D01*
X142773738Y-93846028D01*
X142903972Y-93976262D01*
X143057111Y-94078586D01*
X143227271Y-94149068D01*
X143407911Y-94185000D01*
X143592089Y-94185000D01*
X143772729Y-94149068D01*
X143942889Y-94078586D01*
X144096028Y-93976262D01*
X144150004Y-93922287D01*
X144153983Y-93926266D01*
X144307122Y-94028590D01*
X144477282Y-94099072D01*
X144657922Y-94135004D01*
X144842100Y-94135004D01*
X145022740Y-94099072D01*
X145192900Y-94028590D01*
X145346039Y-93926266D01*
X145476273Y-93796032D01*
X145578597Y-93642893D01*
X145649079Y-93472733D01*
X145685011Y-93292093D01*
X145685011Y-93107915D01*
X145649079Y-92927275D01*
X145578597Y-92757115D01*
X145476273Y-92603976D01*
X145380208Y-92507911D01*
X149465000Y-92507911D01*
X149465000Y-92692089D01*
X149500932Y-92872729D01*
X149571414Y-93042889D01*
X149673738Y-93196028D01*
X149803972Y-93326262D01*
X149957111Y-93428586D01*
X150127271Y-93499068D01*
X150307911Y-93535000D01*
X150492089Y-93535000D01*
X150672729Y-93499068D01*
X150842889Y-93428586D01*
X150996028Y-93326262D01*
X151126262Y-93196028D01*
X151228586Y-93042889D01*
X151299068Y-92872729D01*
X151311961Y-92807911D01*
X153065000Y-92807911D01*
X153065000Y-92992089D01*
X153100932Y-93172729D01*
X153171414Y-93342889D01*
X153273738Y-93496028D01*
X153403972Y-93626262D01*
X153557111Y-93728586D01*
X153727271Y-93799068D01*
X153907911Y-93835000D01*
X154092089Y-93835000D01*
X154272729Y-93799068D01*
X154442889Y-93728586D01*
X154596028Y-93626262D01*
X154726262Y-93496028D01*
X154828586Y-93342889D01*
X154859642Y-93267911D01*
X155215000Y-93267911D01*
X155215000Y-93452089D01*
X155250932Y-93632729D01*
X155321414Y-93802889D01*
X155423738Y-93956028D01*
X155553972Y-94086262D01*
X155707111Y-94188586D01*
X155877271Y-94259068D01*
X156057911Y-94295000D01*
X156242089Y-94295000D01*
X156422729Y-94259068D01*
X156592889Y-94188586D01*
X156746028Y-94086262D01*
X156876262Y-93956028D01*
X156978586Y-93802889D01*
X157049068Y-93632729D01*
X157062471Y-93565350D01*
X157157111Y-93628586D01*
X157327271Y-93699068D01*
X157507911Y-93735000D01*
X157692089Y-93735000D01*
X157872729Y-93699068D01*
X158042889Y-93628586D01*
X158196028Y-93526262D01*
X158326262Y-93396028D01*
X158428586Y-93242889D01*
X158499068Y-93072729D01*
X158535000Y-92892089D01*
X158535000Y-92707911D01*
X158499068Y-92527271D01*
X158428586Y-92357111D01*
X158326262Y-92203972D01*
X158196028Y-92073738D01*
X158042889Y-91971414D01*
X157872729Y-91900932D01*
X157692089Y-91865000D01*
X157507911Y-91865000D01*
X157327271Y-91900932D01*
X157157111Y-91971414D01*
X157003972Y-92073738D01*
X156873738Y-92203972D01*
X156771414Y-92357111D01*
X156700932Y-92527271D01*
X156687529Y-92594650D01*
X156592889Y-92531414D01*
X156422729Y-92460932D01*
X156242089Y-92425000D01*
X156057911Y-92425000D01*
X155877271Y-92460932D01*
X155707111Y-92531414D01*
X155553972Y-92633738D01*
X155423738Y-92763972D01*
X155321414Y-92917111D01*
X155250932Y-93087271D01*
X155215000Y-93267911D01*
X154859642Y-93267911D01*
X154899068Y-93172729D01*
X154935000Y-92992089D01*
X154935000Y-92807911D01*
X154899068Y-92627271D01*
X154828586Y-92457111D01*
X154726262Y-92303972D01*
X154596028Y-92173738D01*
X154442889Y-92071414D01*
X154272729Y-92000932D01*
X154092089Y-91965000D01*
X153907911Y-91965000D01*
X153727271Y-92000932D01*
X153557111Y-92071414D01*
X153403972Y-92173738D01*
X153273738Y-92303972D01*
X153171414Y-92457111D01*
X153100932Y-92627271D01*
X153065000Y-92807911D01*
X151311961Y-92807911D01*
X151335000Y-92692089D01*
X151335000Y-92507911D01*
X151299068Y-92327271D01*
X151228586Y-92157111D01*
X151126262Y-92003972D01*
X150996028Y-91873738D01*
X150842889Y-91771414D01*
X150672729Y-91700932D01*
X150492089Y-91665000D01*
X150307911Y-91665000D01*
X150127271Y-91700932D01*
X149957111Y-91771414D01*
X149803972Y-91873738D01*
X149673738Y-92003972D01*
X149571414Y-92157111D01*
X149500932Y-92327271D01*
X149465000Y-92507911D01*
X145380208Y-92507911D01*
X145346039Y-92473742D01*
X145192900Y-92371418D01*
X145022740Y-92300936D01*
X144842100Y-92265004D01*
X144657922Y-92265004D01*
X144477282Y-92300936D01*
X144307122Y-92371418D01*
X144153983Y-92473742D01*
X144100008Y-92527718D01*
X144096028Y-92523738D01*
X143942889Y-92421414D01*
X143772729Y-92350932D01*
X143592089Y-92315000D01*
X143407911Y-92315000D01*
X143227271Y-92350932D01*
X143057111Y-92421414D01*
X142903972Y-92523738D01*
X142773738Y-92653972D01*
X142733296Y-92714498D01*
X142726262Y-92703972D01*
X142596028Y-92573738D01*
X142442889Y-92471414D01*
X142272729Y-92400932D01*
X142092089Y-92365000D01*
X141907911Y-92365000D01*
X141727271Y-92400932D01*
X141557111Y-92471414D01*
X141403972Y-92573738D01*
X141273738Y-92703972D01*
X141171414Y-92857111D01*
X141100932Y-93027271D01*
X141065000Y-93207911D01*
X141065000Y-93392089D01*
X141087901Y-93507216D01*
X141072729Y-93500932D01*
X140892089Y-93465000D01*
X140707911Y-93465000D01*
X140527271Y-93500932D01*
X140357111Y-93571414D01*
X140203972Y-93673738D01*
X140073738Y-93803972D01*
X139971414Y-93957111D01*
X139900932Y-94127271D01*
X139865000Y-94307911D01*
X133173831Y-94307911D01*
X133296028Y-94226262D01*
X133426262Y-94096028D01*
X133528586Y-93942889D01*
X133599068Y-93772729D01*
X133635000Y-93592089D01*
X133635000Y-93435000D01*
X133792089Y-93435000D01*
X133972729Y-93399068D01*
X134142889Y-93328586D01*
X134296028Y-93226262D01*
X134426262Y-93096028D01*
X134528586Y-92942889D01*
X134599068Y-92772729D01*
X134610430Y-92715610D01*
X134707911Y-92735000D01*
X134892089Y-92735000D01*
X135072729Y-92699068D01*
X135242889Y-92628586D01*
X135396028Y-92526262D01*
X135526262Y-92396028D01*
X135628586Y-92242889D01*
X135699068Y-92072729D01*
X135735000Y-91892089D01*
X135735000Y-91707911D01*
X135699068Y-91527271D01*
X135628586Y-91357111D01*
X135526262Y-91203972D01*
X135396028Y-91073738D01*
X135242889Y-90971414D01*
X135072729Y-90900932D01*
X134892089Y-90865000D01*
X134707911Y-90865000D01*
X134527271Y-90900932D01*
X134357111Y-90971414D01*
X134203972Y-91073738D01*
X134073738Y-91203972D01*
X133971414Y-91357111D01*
X133900932Y-91527271D01*
X133889570Y-91584390D01*
X133792089Y-91565000D01*
X133607911Y-91565000D01*
X133427271Y-91600932D01*
X133257111Y-91671414D01*
X133103972Y-91773738D01*
X132973738Y-91903972D01*
X132871414Y-92057111D01*
X132800932Y-92227271D01*
X132765000Y-92407911D01*
X132765000Y-92565000D01*
X132607911Y-92565000D01*
X132427271Y-92600932D01*
X132257111Y-92671414D01*
X132103972Y-92773738D01*
X131973738Y-92903972D01*
X131871414Y-93057111D01*
X131800932Y-93227271D01*
X131765000Y-93407911D01*
X131765000Y-93565000D01*
X131607911Y-93565000D01*
X131427271Y-93600932D01*
X131257111Y-93671414D01*
X131103972Y-93773738D01*
X130973738Y-93903972D01*
X130871414Y-94057111D01*
X130800932Y-94227271D01*
X130765000Y-94407911D01*
X130765000Y-94592089D01*
X130800932Y-94772729D01*
X130829405Y-94841469D01*
X130757111Y-94871414D01*
X130603972Y-94973738D01*
X130473738Y-95103972D01*
X130371414Y-95257111D01*
X130300932Y-95427271D01*
X130265000Y-95607911D01*
X129830201Y-95607911D01*
X129796028Y-95573738D01*
X129642889Y-95471414D01*
X129472729Y-95400932D01*
X129292089Y-95365000D01*
X129107911Y-95365000D01*
X128927271Y-95400932D01*
X128757111Y-95471414D01*
X128603972Y-95573738D01*
X128473738Y-95703972D01*
X128371414Y-95857111D01*
X128300932Y-96027271D01*
X128265000Y-96207911D01*
X125385000Y-96207911D01*
X125385000Y-94707911D01*
X126665000Y-94707911D01*
X126665000Y-94892089D01*
X126700932Y-95072729D01*
X126771414Y-95242889D01*
X126873738Y-95396028D01*
X127003972Y-95526262D01*
X127157111Y-95628586D01*
X127327271Y-95699068D01*
X127507911Y-95735000D01*
X127692089Y-95735000D01*
X127872729Y-95699068D01*
X128042889Y-95628586D01*
X128196028Y-95526262D01*
X128326262Y-95396028D01*
X128428586Y-95242889D01*
X128499068Y-95072729D01*
X128535000Y-94892089D01*
X128535000Y-94707911D01*
X128499068Y-94527271D01*
X128428586Y-94357111D01*
X128326262Y-94203972D01*
X128196028Y-94073738D01*
X128042889Y-93971414D01*
X127872729Y-93900932D01*
X127692089Y-93865000D01*
X127507911Y-93865000D01*
X127327271Y-93900932D01*
X127157111Y-93971414D01*
X127003972Y-94073738D01*
X126873738Y-94203972D01*
X126771414Y-94357111D01*
X126700932Y-94527271D01*
X126665000Y-94707911D01*
X125385000Y-94707911D01*
X125385000Y-93107911D01*
X128465000Y-93107911D01*
X128465000Y-93292089D01*
X128500932Y-93472729D01*
X128571414Y-93642889D01*
X128673738Y-93796028D01*
X128803972Y-93926262D01*
X128957111Y-94028586D01*
X129127271Y-94099068D01*
X129307911Y-94135000D01*
X129492089Y-94135000D01*
X129672729Y-94099068D01*
X129842889Y-94028586D01*
X129996028Y-93926262D01*
X130126262Y-93796028D01*
X130228586Y-93642889D01*
X130299068Y-93472729D01*
X130335000Y-93292089D01*
X130335000Y-93135000D01*
X130492089Y-93135000D01*
X130672729Y-93099068D01*
X130842889Y-93028586D01*
X130996028Y-92926262D01*
X131126262Y-92796028D01*
X131228586Y-92642889D01*
X131299068Y-92472729D01*
X131335000Y-92292089D01*
X131335000Y-92135000D01*
X131492089Y-92135000D01*
X131672729Y-92099068D01*
X131842889Y-92028586D01*
X131996028Y-91926262D01*
X132126262Y-91796028D01*
X132228586Y-91642889D01*
X132299068Y-91472729D01*
X132335000Y-91292089D01*
X132335000Y-91135000D01*
X132492089Y-91135000D01*
X132672729Y-91099068D01*
X132842889Y-91028586D01*
X132996028Y-90926262D01*
X133126262Y-90796028D01*
X133228586Y-90642889D01*
X133299068Y-90472729D01*
X133329564Y-90319416D01*
X133407911Y-90335000D01*
X133592089Y-90335000D01*
X133772729Y-90299068D01*
X133942889Y-90228586D01*
X134096028Y-90126262D01*
X134200000Y-90022290D01*
X134303972Y-90126262D01*
X134457111Y-90228586D01*
X134627271Y-90299068D01*
X134807911Y-90335000D01*
X134992089Y-90335000D01*
X135172729Y-90299068D01*
X135342889Y-90228586D01*
X135496028Y-90126262D01*
X135600000Y-90022290D01*
X135703972Y-90126262D01*
X135857111Y-90228586D01*
X136027271Y-90299068D01*
X136207911Y-90335000D01*
X136265000Y-90335000D01*
X136265000Y-93000000D01*
X136277201Y-93123882D01*
X136313336Y-93243004D01*
X136372017Y-93352787D01*
X136450987Y-93449013D01*
X136547213Y-93527983D01*
X136656996Y-93586664D01*
X136776118Y-93622799D01*
X136900000Y-93635000D01*
X138100000Y-93635000D01*
X138223882Y-93622799D01*
X138343004Y-93586664D01*
X138452787Y-93527983D01*
X138549013Y-93449013D01*
X138627983Y-93352787D01*
X138686664Y-93243004D01*
X138722799Y-93123882D01*
X138735000Y-93000000D01*
X138735000Y-89807911D01*
X142965008Y-89807911D01*
X142965008Y-89992089D01*
X143000940Y-90172729D01*
X143071422Y-90342889D01*
X143116185Y-90409881D01*
X143100921Y-90446731D01*
X143064989Y-90627371D01*
X143064989Y-90811549D01*
X143100921Y-90992189D01*
X143171403Y-91162349D01*
X143273727Y-91315488D01*
X143403961Y-91445722D01*
X143557100Y-91548046D01*
X143727260Y-91618528D01*
X143907900Y-91654460D01*
X144092078Y-91654460D01*
X144272718Y-91618528D01*
X144442878Y-91548046D01*
X144596017Y-91445722D01*
X144726251Y-91315488D01*
X144828575Y-91162349D01*
X144899057Y-90992189D01*
X144934989Y-90811549D01*
X144934989Y-90627371D01*
X144899057Y-90446731D01*
X144828575Y-90276571D01*
X144783812Y-90209579D01*
X144799076Y-90172729D01*
X144835008Y-89992089D01*
X144835008Y-89807911D01*
X144815117Y-89707911D01*
X150065000Y-89707911D01*
X150065000Y-89892089D01*
X150100932Y-90072729D01*
X150171414Y-90242889D01*
X150273738Y-90396028D01*
X150403972Y-90526262D01*
X150557111Y-90628586D01*
X150727271Y-90699068D01*
X150907911Y-90735000D01*
X151092089Y-90735000D01*
X151272729Y-90699068D01*
X151442889Y-90628586D01*
X151596028Y-90526262D01*
X151726262Y-90396028D01*
X151828586Y-90242889D01*
X151899068Y-90072729D01*
X151935000Y-89892089D01*
X151935000Y-89707911D01*
X153665000Y-89707911D01*
X153665000Y-89892089D01*
X153700932Y-90072729D01*
X153771414Y-90242889D01*
X153873738Y-90396028D01*
X154003972Y-90526262D01*
X154157111Y-90628586D01*
X154327271Y-90699068D01*
X154507911Y-90735000D01*
X154692089Y-90735000D01*
X154872729Y-90699068D01*
X155042889Y-90628586D01*
X155196028Y-90526262D01*
X155326262Y-90396028D01*
X155428586Y-90242889D01*
X155499068Y-90072729D01*
X155535000Y-89892089D01*
X155535000Y-89707911D01*
X155499068Y-89527271D01*
X155449628Y-89407911D01*
X156815000Y-89407911D01*
X156815000Y-89592089D01*
X156850932Y-89772729D01*
X156921414Y-89942889D01*
X157023738Y-90096028D01*
X157153972Y-90226262D01*
X157307111Y-90328586D01*
X157477271Y-90399068D01*
X157657911Y-90435000D01*
X157842089Y-90435000D01*
X158022729Y-90399068D01*
X158192889Y-90328586D01*
X158346028Y-90226262D01*
X158476262Y-90096028D01*
X158578586Y-89942889D01*
X158649068Y-89772729D01*
X158685000Y-89592089D01*
X158685000Y-89407911D01*
X158649068Y-89227271D01*
X158578586Y-89057111D01*
X158476262Y-88903972D01*
X158346028Y-88773738D01*
X158192889Y-88671414D01*
X158022729Y-88600932D01*
X157842089Y-88565000D01*
X157657911Y-88565000D01*
X157477271Y-88600932D01*
X157307111Y-88671414D01*
X157153972Y-88773738D01*
X157023738Y-88903972D01*
X156921414Y-89057111D01*
X156850932Y-89227271D01*
X156815000Y-89407911D01*
X155449628Y-89407911D01*
X155428586Y-89357111D01*
X155326262Y-89203972D01*
X155196028Y-89073738D01*
X155042889Y-88971414D01*
X154872729Y-88900932D01*
X154692089Y-88865000D01*
X154507911Y-88865000D01*
X154327271Y-88900932D01*
X154157111Y-88971414D01*
X154003972Y-89073738D01*
X153873738Y-89203972D01*
X153771414Y-89357111D01*
X153700932Y-89527271D01*
X153665000Y-89707911D01*
X151935000Y-89707911D01*
X151899068Y-89527271D01*
X151828586Y-89357111D01*
X151726262Y-89203972D01*
X151596028Y-89073738D01*
X151442889Y-88971414D01*
X151272729Y-88900932D01*
X151092089Y-88865000D01*
X150907911Y-88865000D01*
X150727271Y-88900932D01*
X150557111Y-88971414D01*
X150403972Y-89073738D01*
X150273738Y-89203972D01*
X150171414Y-89357111D01*
X150100932Y-89527271D01*
X150065000Y-89707911D01*
X144815117Y-89707911D01*
X144799076Y-89627271D01*
X144728594Y-89457111D01*
X144626270Y-89303972D01*
X144496036Y-89173738D01*
X144342897Y-89071414D01*
X144172737Y-89000932D01*
X143992097Y-88965000D01*
X143807919Y-88965000D01*
X143627279Y-89000932D01*
X143457119Y-89071414D01*
X143303980Y-89173738D01*
X143173746Y-89303972D01*
X143071422Y-89457111D01*
X143000940Y-89627271D01*
X142965008Y-89807911D01*
X138735000Y-89807911D01*
X138735000Y-89700000D01*
X138722799Y-89576118D01*
X138686664Y-89456996D01*
X138627983Y-89347213D01*
X138549013Y-89250987D01*
X138452787Y-89172017D01*
X138343004Y-89113336D01*
X138223882Y-89077201D01*
X138100000Y-89065000D01*
X137173275Y-89065000D01*
X137128586Y-88957111D01*
X137026262Y-88803972D01*
X136896028Y-88673738D01*
X136742889Y-88571414D01*
X136572729Y-88500932D01*
X136392089Y-88465000D01*
X136207911Y-88465000D01*
X136027271Y-88500932D01*
X135857111Y-88571414D01*
X135703972Y-88673738D01*
X135600000Y-88777710D01*
X135496028Y-88673738D01*
X135342889Y-88571414D01*
X135172729Y-88500932D01*
X134992089Y-88465000D01*
X134807911Y-88465000D01*
X134627271Y-88500932D01*
X134457111Y-88571414D01*
X134303972Y-88673738D01*
X134200000Y-88777710D01*
X134096028Y-88673738D01*
X133942889Y-88571414D01*
X133772729Y-88500932D01*
X133592089Y-88465000D01*
X133407911Y-88465000D01*
X133227271Y-88500932D01*
X133057111Y-88571414D01*
X132903972Y-88673738D01*
X132773738Y-88803972D01*
X132671414Y-88957111D01*
X132600932Y-89127271D01*
X132570436Y-89280584D01*
X132492089Y-89265000D01*
X132307911Y-89265000D01*
X132127271Y-89300932D01*
X131957111Y-89371414D01*
X131803972Y-89473738D01*
X131673738Y-89603972D01*
X131571414Y-89757111D01*
X131500932Y-89927271D01*
X131465000Y-90107911D01*
X131465000Y-90265000D01*
X131307911Y-90265000D01*
X131127271Y-90300932D01*
X130957111Y-90371414D01*
X130803972Y-90473738D01*
X130673738Y-90603972D01*
X130571414Y-90757111D01*
X130500932Y-90927271D01*
X130465000Y-91107911D01*
X130465000Y-91265000D01*
X130307911Y-91265000D01*
X130127271Y-91300932D01*
X129957111Y-91371414D01*
X129803972Y-91473738D01*
X129673738Y-91603972D01*
X129571414Y-91757111D01*
X129500932Y-91927271D01*
X129465000Y-92107911D01*
X129465000Y-92265000D01*
X129307911Y-92265000D01*
X129127271Y-92300932D01*
X128957111Y-92371414D01*
X128803972Y-92473738D01*
X128673738Y-92603972D01*
X128571414Y-92757111D01*
X128500932Y-92927271D01*
X128465000Y-93107911D01*
X125385000Y-93107911D01*
X125385000Y-90565006D01*
X125760920Y-90940926D01*
X126233440Y-91256654D01*
X126758477Y-91474131D01*
X127315852Y-91585000D01*
X127884148Y-91585000D01*
X128441523Y-91474131D01*
X128966560Y-91256654D01*
X129439080Y-90940926D01*
X129840926Y-90539080D01*
X130156654Y-90066560D01*
X130374131Y-89541523D01*
X130485000Y-88984148D01*
X130485000Y-88415852D01*
X130391603Y-87946311D01*
X144222207Y-87946311D01*
X144222207Y-88130489D01*
X144258139Y-88311129D01*
X144328621Y-88481289D01*
X144430945Y-88634428D01*
X144561179Y-88764662D01*
X144714318Y-88866986D01*
X144884478Y-88937468D01*
X145065118Y-88973400D01*
X145249296Y-88973400D01*
X145429936Y-88937468D01*
X145600096Y-88866986D01*
X145753235Y-88764662D01*
X145883469Y-88634428D01*
X145985793Y-88481289D01*
X146056275Y-88311129D01*
X146092207Y-88130489D01*
X146092207Y-87946311D01*
X146056275Y-87765671D01*
X145985793Y-87595511D01*
X145883469Y-87442372D01*
X145849008Y-87407911D01*
X152315000Y-87407911D01*
X152315000Y-87592089D01*
X152350932Y-87772729D01*
X152421414Y-87942889D01*
X152523738Y-88096028D01*
X152653972Y-88226262D01*
X152807111Y-88328586D01*
X152977271Y-88399068D01*
X153157911Y-88435000D01*
X153342089Y-88435000D01*
X153522729Y-88399068D01*
X153692889Y-88328586D01*
X153846028Y-88226262D01*
X153976262Y-88096028D01*
X154075903Y-87946904D01*
X154100932Y-88072729D01*
X154171414Y-88242889D01*
X154273738Y-88396028D01*
X154403972Y-88526262D01*
X154557111Y-88628586D01*
X154727271Y-88699068D01*
X154907911Y-88735000D01*
X155092089Y-88735000D01*
X155272729Y-88699068D01*
X155442889Y-88628586D01*
X155596028Y-88526262D01*
X155726262Y-88396028D01*
X155828586Y-88242889D01*
X155899068Y-88072729D01*
X155931695Y-87908704D01*
X155940403Y-87952481D01*
X156010885Y-88122641D01*
X156113209Y-88275780D01*
X156243443Y-88406014D01*
X156396582Y-88508338D01*
X156566742Y-88578820D01*
X156747382Y-88614752D01*
X156931560Y-88614752D01*
X157112200Y-88578820D01*
X157282360Y-88508338D01*
X157435499Y-88406014D01*
X157565733Y-88275780D01*
X157668057Y-88122641D01*
X157738539Y-87952481D01*
X157774471Y-87771841D01*
X157774471Y-87587663D01*
X157738539Y-87407023D01*
X157668057Y-87236863D01*
X157565733Y-87083724D01*
X157435499Y-86953490D01*
X157282360Y-86851166D01*
X157112200Y-86780684D01*
X156931560Y-86744752D01*
X156747382Y-86744752D01*
X156566742Y-86780684D01*
X156396582Y-86851166D01*
X156243443Y-86953490D01*
X156113209Y-87083724D01*
X156010885Y-87236863D01*
X155940403Y-87407023D01*
X155907776Y-87571048D01*
X155899068Y-87527271D01*
X155828586Y-87357111D01*
X155726262Y-87203972D01*
X155596028Y-87073738D01*
X155442889Y-86971414D01*
X155272729Y-86900932D01*
X155092089Y-86865000D01*
X154907911Y-86865000D01*
X154727271Y-86900932D01*
X154557111Y-86971414D01*
X154403972Y-87073738D01*
X154273738Y-87203972D01*
X154174097Y-87353096D01*
X154149068Y-87227271D01*
X154078586Y-87057111D01*
X153976262Y-86903972D01*
X153846028Y-86773738D01*
X153692889Y-86671414D01*
X153522729Y-86600932D01*
X153342089Y-86565000D01*
X153157911Y-86565000D01*
X152977271Y-86600932D01*
X152807111Y-86671414D01*
X152653972Y-86773738D01*
X152523738Y-86903972D01*
X152421414Y-87057111D01*
X152350932Y-87227271D01*
X152315000Y-87407911D01*
X145849008Y-87407911D01*
X145753235Y-87312138D01*
X145600096Y-87209814D01*
X145429936Y-87139332D01*
X145249296Y-87103400D01*
X145065118Y-87103400D01*
X144884478Y-87139332D01*
X144714318Y-87209814D01*
X144561179Y-87312138D01*
X144430945Y-87442372D01*
X144328621Y-87595511D01*
X144258139Y-87765671D01*
X144222207Y-87946311D01*
X130391603Y-87946311D01*
X130374131Y-87858477D01*
X130156654Y-87333440D01*
X129840926Y-86860920D01*
X129465006Y-86485000D01*
X159873000Y-86485000D01*
X159873000Y-86906719D01*
G36*
X137973000Y-92873000D02*
G01*
X137027000Y-92873000D01*
X137027000Y-89827000D01*
X137973000Y-89827000D01*
X137973000Y-92873000D01*
G37*
X137973000Y-92873000D02*
X137027000Y-92873000D01*
X137027000Y-89827000D01*
X137973000Y-89827000D01*
X137973000Y-92873000D01*
G36*
X137073000Y-106224599D02*
G01*
X135927000Y-106224599D01*
X135927000Y-103578599D01*
X137073000Y-103578599D01*
X137073000Y-106224599D01*
G37*
X137073000Y-106224599D02*
X135927000Y-106224599D01*
X135927000Y-103578599D01*
X137073000Y-103578599D01*
X137073000Y-106224599D01*
M02*
