G04 #@! TF.GenerationSoftware,KiCad,Pcbnew,(5.1.5-0-10_14)*
G04 #@! TF.CreationDate,2020-03-09T21:53:23-07:00*
G04 #@! TF.ProjectId,R1,52312e6b-6963-4616-945f-706362585858,rev?*
G04 #@! TF.SameCoordinates,Original*
G04 #@! TF.FileFunction,Copper,L2,Inr*
G04 #@! TF.FilePolarity,Positive*
%FSLAX46Y46*%
G04 Gerber Fmt 4.6, Leading zero omitted, Abs format (unit mm)*
G04 Created by KiCad (PCBNEW (5.1.5-0-10_14)) date 2020-03-09 21:53:23*
%MOMM*%
%LPD*%
G04 APERTURE LIST*
%ADD10C,0.500000*%
%ADD11C,4.500000*%
%ADD12C,0.600000*%
%ADD13C,0.800000*%
%ADD14C,0.254000*%
G04 APERTURE END LIST*
D10*
X158450000Y-111950000D03*
X157050000Y-111950000D03*
X158450000Y-110750000D03*
X157050000Y-110750000D03*
X158450000Y-109550000D03*
X157050000Y-109550000D03*
D11*
X127600000Y-88700000D03*
X127600000Y-112900000D03*
D12*
X161700000Y-95500000D03*
X161700000Y-97000000D03*
X132800000Y-106400000D03*
X132500000Y-105300000D03*
X136300000Y-89400000D03*
X134900000Y-89400000D03*
X133500000Y-89400000D03*
X132400000Y-90200000D03*
X131400000Y-91200000D03*
X130400000Y-92200000D03*
X129400000Y-93200000D03*
X134800000Y-91800000D03*
X133700000Y-92500000D03*
X132700000Y-93500000D03*
X131700000Y-94500000D03*
X137500000Y-90100000D03*
X136500000Y-106000000D03*
X135300000Y-107400000D03*
X133300000Y-108700000D03*
X132100000Y-108700000D03*
X130900000Y-108500000D03*
X130400000Y-107300000D03*
X131800000Y-104500000D03*
X130400000Y-104500000D03*
X129000000Y-104500000D03*
X134000000Y-105100000D03*
X129200000Y-108000000D03*
X127600000Y-106300000D03*
X127600000Y-94800000D03*
X134500000Y-108250000D03*
X135100000Y-104200000D03*
D13*
X149800000Y-107400000D03*
D12*
X150400000Y-92600000D03*
X151000000Y-89800000D03*
X154600000Y-89800000D03*
X154000000Y-92900000D03*
X157600000Y-92800000D03*
X164200000Y-90400000D03*
X164200000Y-91200000D03*
X166300000Y-99900000D03*
X168258410Y-96658410D03*
X167200000Y-104200000D03*
X156600000Y-102000000D03*
X158400000Y-103600000D03*
X149800000Y-105400000D03*
X149800000Y-104600000D03*
X149700000Y-100600000D03*
X149700000Y-99800000D03*
X135200000Y-95600000D03*
X135200000Y-96200000D03*
X140800000Y-94400000D03*
X142500000Y-98300000D03*
X140900000Y-99800000D03*
X144175000Y-99800000D03*
X142500000Y-101300000D03*
X137650000Y-101250000D03*
X145157207Y-88038400D03*
X129200000Y-96300000D03*
X131200000Y-95700000D03*
X160500000Y-91800000D03*
D13*
X128000000Y-101000000D03*
X128000000Y-100200000D03*
X128800000Y-99800000D03*
X128800000Y-100600000D03*
X128800000Y-101400000D03*
X149000000Y-114600000D03*
X149800000Y-114600000D03*
X151400000Y-114600000D03*
X150600000Y-114600000D03*
D12*
X135250000Y-100750000D03*
X157750000Y-89500000D03*
X166450000Y-103250000D03*
X157250000Y-100375000D03*
X153250000Y-87500000D03*
X155000000Y-87800000D03*
X156839471Y-87679752D03*
X160193996Y-88547968D03*
X136500000Y-109500000D03*
X159250000Y-100750000D03*
X159274968Y-97750000D03*
X160275336Y-87752102D03*
X162250000Y-98750010D03*
X137750000Y-108874990D03*
X157146641Y-104774968D03*
X155500000Y-102275017D03*
X155100000Y-100900000D03*
X144750011Y-93200004D03*
X135296647Y-97796647D03*
X142000000Y-93300000D03*
X143900008Y-89900000D03*
X143500000Y-93250000D03*
X143999989Y-90719460D03*
X159324990Y-93750000D03*
X159324990Y-94750000D03*
X159632059Y-95895108D03*
X141500000Y-109250000D03*
X159249990Y-101750000D03*
X158625010Y-96696960D03*
X140750000Y-110000000D03*
X159250000Y-102750000D03*
X158000000Y-95800000D03*
X167558051Y-97358051D03*
X167800000Y-95200000D03*
X164900000Y-98556250D03*
X164974990Y-95842999D03*
X165600000Y-99181250D03*
X165574990Y-95300000D03*
X166395793Y-94495308D03*
X168159620Y-111600000D03*
X168650000Y-111250000D03*
X135085568Y-103298316D03*
X166289442Y-102210558D03*
X164500000Y-102250000D03*
X156500000Y-97750000D03*
X156150000Y-93360000D03*
X163100000Y-87400006D03*
D13*
X167400000Y-108700000D03*
D12*
X135366942Y-102000000D03*
D14*
G36*
X162827271Y-86500938D02*
G01*
X162657111Y-86571420D01*
X162503972Y-86673744D01*
X162373738Y-86803978D01*
X162271414Y-86957117D01*
X162200932Y-87127277D01*
X162165000Y-87307917D01*
X162165000Y-87492095D01*
X162200932Y-87672735D01*
X162271414Y-87842895D01*
X162373738Y-87996034D01*
X162503972Y-88126268D01*
X162657111Y-88228592D01*
X162827271Y-88299074D01*
X163007911Y-88335006D01*
X163192089Y-88335006D01*
X163372729Y-88299074D01*
X163542889Y-88228592D01*
X163696028Y-88126268D01*
X163826262Y-87996034D01*
X163928586Y-87842895D01*
X163999068Y-87672735D01*
X164035000Y-87492095D01*
X164035000Y-87307917D01*
X163999068Y-87127277D01*
X163928586Y-86957117D01*
X163826262Y-86803978D01*
X163696028Y-86673744D01*
X163542889Y-86571420D01*
X163372729Y-86500938D01*
X163292604Y-86485000D01*
X165015001Y-86485000D01*
X165015000Y-92566353D01*
X165011686Y-92600000D01*
X165024912Y-92734283D01*
X165064081Y-92863406D01*
X165127688Y-92982407D01*
X165213289Y-93086711D01*
X165250602Y-93117333D01*
X165317593Y-93172312D01*
X165436594Y-93235919D01*
X165565717Y-93275088D01*
X165700000Y-93288314D01*
X165733647Y-93285000D01*
X174373000Y-93285000D01*
X174373000Y-99115000D01*
X168216353Y-99115000D01*
X168182219Y-99118362D01*
X168169892Y-99118362D01*
X168160380Y-99119362D01*
X167976128Y-99140029D01*
X167915396Y-99152938D01*
X167854500Y-99164996D01*
X167845364Y-99167823D01*
X167668634Y-99223885D01*
X167611592Y-99248333D01*
X167554167Y-99272002D01*
X167545753Y-99276551D01*
X167383279Y-99365872D01*
X167332031Y-99400963D01*
X167280339Y-99435307D01*
X167272970Y-99441403D01*
X167130940Y-99560581D01*
X167087502Y-99604938D01*
X167043449Y-99648685D01*
X167037404Y-99656097D01*
X166921228Y-99800591D01*
X166887259Y-99852501D01*
X166852515Y-99904012D01*
X166848025Y-99912456D01*
X166762126Y-100076765D01*
X166738872Y-100134320D01*
X166714809Y-100191565D01*
X166712045Y-100200721D01*
X166659697Y-100378585D01*
X166648059Y-100439592D01*
X166635580Y-100500386D01*
X166634646Y-100509904D01*
X166617842Y-100694548D01*
X166618276Y-100756638D01*
X166617843Y-100818718D01*
X166618776Y-100828236D01*
X166638157Y-101012629D01*
X166650646Y-101073469D01*
X166662274Y-101134426D01*
X166665038Y-101143582D01*
X166665039Y-101143587D01*
X166665041Y-101143592D01*
X166719864Y-101320699D01*
X166743938Y-101377968D01*
X166750445Y-101394076D01*
X166732331Y-101381972D01*
X166562171Y-101311490D01*
X166381531Y-101275558D01*
X166197353Y-101275558D01*
X166016713Y-101311490D01*
X165846553Y-101381972D01*
X165693414Y-101484296D01*
X165563180Y-101614530D01*
X165460856Y-101767669D01*
X165390374Y-101937829D01*
X165387894Y-101950295D01*
X165328586Y-101807111D01*
X165226262Y-101653972D01*
X165096028Y-101523738D01*
X164942889Y-101421414D01*
X164772729Y-101350932D01*
X164592089Y-101315000D01*
X164407911Y-101315000D01*
X164227271Y-101350932D01*
X164057111Y-101421414D01*
X163903972Y-101523738D01*
X163773738Y-101653972D01*
X163671414Y-101807111D01*
X163600932Y-101977271D01*
X163565000Y-102157911D01*
X163565000Y-102342089D01*
X163600932Y-102522729D01*
X163671414Y-102692889D01*
X163773738Y-102846028D01*
X163903972Y-102976262D01*
X164057111Y-103078586D01*
X164227271Y-103149068D01*
X164407911Y-103185000D01*
X164592089Y-103185000D01*
X164772729Y-103149068D01*
X164942889Y-103078586D01*
X165096028Y-102976262D01*
X165226262Y-102846028D01*
X165328586Y-102692889D01*
X165399068Y-102522729D01*
X165401548Y-102510263D01*
X165460856Y-102653447D01*
X165563180Y-102806586D01*
X165604512Y-102847918D01*
X165550932Y-102977271D01*
X165515000Y-103157911D01*
X165515000Y-103342089D01*
X165550932Y-103522729D01*
X165621414Y-103692889D01*
X165723738Y-103846028D01*
X165853972Y-103976262D01*
X166007111Y-104078586D01*
X166177271Y-104149068D01*
X166357911Y-104185000D01*
X166542089Y-104185000D01*
X166722729Y-104149068D01*
X166892889Y-104078586D01*
X167046028Y-103976262D01*
X167176262Y-103846028D01*
X167278586Y-103692889D01*
X167349068Y-103522729D01*
X167385000Y-103342089D01*
X167385000Y-103157911D01*
X167349068Y-102977271D01*
X167278586Y-102807111D01*
X167176262Y-102653972D01*
X167134930Y-102612640D01*
X167188510Y-102483287D01*
X167224442Y-102302647D01*
X167224442Y-102118469D01*
X167200481Y-101998010D01*
X167291337Y-102072111D01*
X167343060Y-102106476D01*
X167394275Y-102141544D01*
X167402681Y-102146089D01*
X167402689Y-102146094D01*
X167402697Y-102146097D01*
X167566394Y-102233138D01*
X167623821Y-102256808D01*
X167680862Y-102281255D01*
X167689990Y-102284081D01*
X167689996Y-102284083D01*
X167690002Y-102284084D01*
X167867492Y-102337671D01*
X167928381Y-102349727D01*
X167989120Y-102362638D01*
X167998631Y-102363638D01*
X168183154Y-102381731D01*
X168183163Y-102381731D01*
X168216353Y-102385000D01*
X174373000Y-102385000D01*
X174373000Y-112215000D01*
X168866910Y-112215000D01*
X168885882Y-112196028D01*
X168916421Y-112150323D01*
X168922729Y-112149068D01*
X169092889Y-112078586D01*
X169246028Y-111976262D01*
X169376262Y-111846028D01*
X169478586Y-111692889D01*
X169549068Y-111522729D01*
X169585000Y-111342089D01*
X169585000Y-111157911D01*
X169549068Y-110977271D01*
X169478586Y-110807111D01*
X169376262Y-110653972D01*
X169246028Y-110523738D01*
X169092889Y-110421414D01*
X168922729Y-110350932D01*
X168742089Y-110315000D01*
X168557911Y-110315000D01*
X168377271Y-110350932D01*
X168207111Y-110421414D01*
X168053972Y-110523738D01*
X167923738Y-110653972D01*
X167893199Y-110699677D01*
X167886891Y-110700932D01*
X167716731Y-110771414D01*
X167563592Y-110873738D01*
X167433358Y-111003972D01*
X167331034Y-111157111D01*
X167260552Y-111327271D01*
X167224620Y-111507911D01*
X167224620Y-111692089D01*
X167260552Y-111872729D01*
X167331034Y-112042889D01*
X167433358Y-112196028D01*
X167452330Y-112215000D01*
X165733647Y-112215000D01*
X165700000Y-112211686D01*
X165666353Y-112215000D01*
X165565717Y-112224912D01*
X165436594Y-112264081D01*
X165317593Y-112327688D01*
X165213289Y-112413289D01*
X165127688Y-112517593D01*
X165064081Y-112636594D01*
X165024912Y-112765717D01*
X165011686Y-112900000D01*
X165015000Y-112933647D01*
X165015001Y-115115000D01*
X152300672Y-115115000D01*
X152317205Y-115090256D01*
X152395226Y-114901898D01*
X152435000Y-114701939D01*
X152435000Y-114498061D01*
X152395226Y-114298102D01*
X152317205Y-114109744D01*
X152203937Y-113940226D01*
X152059774Y-113796063D01*
X151890256Y-113682795D01*
X151701898Y-113604774D01*
X151501939Y-113565000D01*
X151298061Y-113565000D01*
X151098102Y-113604774D01*
X151000000Y-113645409D01*
X150901898Y-113604774D01*
X150701939Y-113565000D01*
X150498061Y-113565000D01*
X150298102Y-113604774D01*
X150200000Y-113645409D01*
X150101898Y-113604774D01*
X149901939Y-113565000D01*
X149698061Y-113565000D01*
X149498102Y-113604774D01*
X149400000Y-113645409D01*
X149301898Y-113604774D01*
X149101939Y-113565000D01*
X148898061Y-113565000D01*
X148698102Y-113604774D01*
X148509744Y-113682795D01*
X148340226Y-113796063D01*
X148196063Y-113940226D01*
X148082795Y-114109744D01*
X148004774Y-114298102D01*
X147965000Y-114498061D01*
X147965000Y-114701939D01*
X148004774Y-114901898D01*
X148082795Y-115090256D01*
X148099328Y-115115000D01*
X125385000Y-115115000D01*
X125385000Y-109407911D01*
X135565000Y-109407911D01*
X135565000Y-109592089D01*
X135600932Y-109772729D01*
X135671414Y-109942889D01*
X135773738Y-110096028D01*
X135903972Y-110226262D01*
X136057111Y-110328586D01*
X136227271Y-110399068D01*
X136407911Y-110435000D01*
X136592089Y-110435000D01*
X136772729Y-110399068D01*
X136942889Y-110328586D01*
X137096028Y-110226262D01*
X137226262Y-110096028D01*
X137328586Y-109942889D01*
X137343074Y-109907911D01*
X139815000Y-109907911D01*
X139815000Y-110092089D01*
X139850932Y-110272729D01*
X139921414Y-110442889D01*
X140023738Y-110596028D01*
X140153972Y-110726262D01*
X140307111Y-110828586D01*
X140477271Y-110899068D01*
X140657911Y-110935000D01*
X140842089Y-110935000D01*
X141022729Y-110899068D01*
X141192889Y-110828586D01*
X141346028Y-110726262D01*
X141476262Y-110596028D01*
X141578586Y-110442889D01*
X141649068Y-110272729D01*
X141669585Y-110169585D01*
X141772729Y-110149068D01*
X141942889Y-110078586D01*
X142096028Y-109976262D01*
X142226262Y-109846028D01*
X142328586Y-109692889D01*
X142399068Y-109522729D01*
X142435000Y-109342089D01*
X142435000Y-109157911D01*
X142399068Y-108977271D01*
X142328586Y-108807111D01*
X142226262Y-108653972D01*
X142170351Y-108598061D01*
X166365000Y-108598061D01*
X166365000Y-108801939D01*
X166404774Y-109001898D01*
X166482795Y-109190256D01*
X166596063Y-109359774D01*
X166740226Y-109503937D01*
X166909744Y-109617205D01*
X167098102Y-109695226D01*
X167298061Y-109735000D01*
X167501939Y-109735000D01*
X167701898Y-109695226D01*
X167890256Y-109617205D01*
X168059774Y-109503937D01*
X168203937Y-109359774D01*
X168317205Y-109190256D01*
X168395226Y-109001898D01*
X168435000Y-108801939D01*
X168435000Y-108598061D01*
X168395226Y-108398102D01*
X168317205Y-108209744D01*
X168203937Y-108040226D01*
X168059774Y-107896063D01*
X167890256Y-107782795D01*
X167701898Y-107704774D01*
X167501939Y-107665000D01*
X167298061Y-107665000D01*
X167098102Y-107704774D01*
X166909744Y-107782795D01*
X166740226Y-107896063D01*
X166596063Y-108040226D01*
X166482795Y-108209744D01*
X166404774Y-108398102D01*
X166365000Y-108598061D01*
X142170351Y-108598061D01*
X142096028Y-108523738D01*
X141942889Y-108421414D01*
X141772729Y-108350932D01*
X141592089Y-108315000D01*
X141407911Y-108315000D01*
X141227271Y-108350932D01*
X141057111Y-108421414D01*
X140903972Y-108523738D01*
X140773738Y-108653972D01*
X140671414Y-108807111D01*
X140600932Y-108977271D01*
X140580415Y-109080415D01*
X140477271Y-109100932D01*
X140307111Y-109171414D01*
X140153972Y-109273738D01*
X140023738Y-109403972D01*
X139921414Y-109557111D01*
X139850932Y-109727271D01*
X139815000Y-109907911D01*
X137343074Y-109907911D01*
X137399068Y-109772729D01*
X137404777Y-109744030D01*
X137477271Y-109774058D01*
X137657911Y-109809990D01*
X137842089Y-109809990D01*
X138022729Y-109774058D01*
X138192889Y-109703576D01*
X138346028Y-109601252D01*
X138476262Y-109471018D01*
X138578586Y-109317879D01*
X138649068Y-109147719D01*
X138685000Y-108967079D01*
X138685000Y-108782901D01*
X138649068Y-108602261D01*
X138578586Y-108432101D01*
X138476262Y-108278962D01*
X138346028Y-108148728D01*
X138192889Y-108046404D01*
X138022729Y-107975922D01*
X137842089Y-107939990D01*
X137657911Y-107939990D01*
X137477271Y-107975922D01*
X137307111Y-108046404D01*
X137153972Y-108148728D01*
X137023738Y-108278962D01*
X136921414Y-108432101D01*
X136850932Y-108602261D01*
X136845223Y-108630960D01*
X136772729Y-108600932D01*
X136592089Y-108565000D01*
X136407911Y-108565000D01*
X136227271Y-108600932D01*
X136057111Y-108671414D01*
X135903972Y-108773738D01*
X135773738Y-108903972D01*
X135671414Y-109057111D01*
X135600932Y-109227271D01*
X135565000Y-109407911D01*
X125385000Y-109407911D01*
X125385000Y-103206227D01*
X134150568Y-103206227D01*
X134150568Y-103390405D01*
X134186500Y-103571045D01*
X134256982Y-103741205D01*
X134359306Y-103894344D01*
X134489540Y-104024578D01*
X134642679Y-104126902D01*
X134812839Y-104197384D01*
X134993479Y-104233316D01*
X135177657Y-104233316D01*
X135358297Y-104197384D01*
X135473000Y-104149873D01*
X135473000Y-104800000D01*
X135475440Y-104824776D01*
X135482667Y-104848601D01*
X135494403Y-104870557D01*
X135510197Y-104889803D01*
X135529443Y-104905597D01*
X135551399Y-104917333D01*
X135575224Y-104924560D01*
X135600000Y-104927000D01*
X137300000Y-104927000D01*
X137324776Y-104924560D01*
X137348601Y-104917333D01*
X137370557Y-104905597D01*
X137389803Y-104889803D01*
X137405597Y-104870557D01*
X137417333Y-104848601D01*
X137424560Y-104824776D01*
X137427000Y-104800000D01*
X137427000Y-104682879D01*
X156211641Y-104682879D01*
X156211641Y-104867057D01*
X156247573Y-105047697D01*
X156318055Y-105217857D01*
X156420379Y-105370996D01*
X156550613Y-105501230D01*
X156703752Y-105603554D01*
X156873912Y-105674036D01*
X157054552Y-105709968D01*
X157238730Y-105709968D01*
X157419370Y-105674036D01*
X157589530Y-105603554D01*
X157742669Y-105501230D01*
X157872903Y-105370996D01*
X157975227Y-105217857D01*
X158045709Y-105047697D01*
X158081641Y-104867057D01*
X158081641Y-104682879D01*
X158045709Y-104502239D01*
X157975227Y-104332079D01*
X157872903Y-104178940D01*
X157742669Y-104048706D01*
X157589530Y-103946382D01*
X157419370Y-103875900D01*
X157238730Y-103839968D01*
X157054552Y-103839968D01*
X156873912Y-103875900D01*
X156703752Y-103946382D01*
X156550613Y-104048706D01*
X156420379Y-104178940D01*
X156318055Y-104332079D01*
X156247573Y-104502239D01*
X156211641Y-104682879D01*
X137427000Y-104682879D01*
X137427000Y-103400000D01*
X137424560Y-103375224D01*
X137417333Y-103351399D01*
X137405597Y-103329443D01*
X137389803Y-103310197D01*
X137370557Y-103294403D01*
X137348601Y-103282667D01*
X137324776Y-103275440D01*
X137300000Y-103273000D01*
X136020568Y-103273000D01*
X136020568Y-103206227D01*
X135984636Y-103025587D01*
X135914154Y-102855427D01*
X135869555Y-102788680D01*
X135962970Y-102726262D01*
X136093204Y-102596028D01*
X136195528Y-102442889D01*
X136266010Y-102272729D01*
X136301942Y-102092089D01*
X136301942Y-101907911D01*
X136266010Y-101727271D01*
X136195528Y-101557111D01*
X136093204Y-101403972D01*
X135999893Y-101310661D01*
X136078586Y-101192889D01*
X136149068Y-101022729D01*
X136185000Y-100842089D01*
X136185000Y-100807911D01*
X154165000Y-100807911D01*
X154165000Y-100992089D01*
X154200932Y-101172729D01*
X154271414Y-101342889D01*
X154373738Y-101496028D01*
X154503972Y-101626262D01*
X154657111Y-101728586D01*
X154722501Y-101755671D01*
X154671414Y-101832128D01*
X154600932Y-102002288D01*
X154565000Y-102182928D01*
X154565000Y-102367106D01*
X154600932Y-102547746D01*
X154671414Y-102717906D01*
X154773738Y-102871045D01*
X154903972Y-103001279D01*
X155057111Y-103103603D01*
X155227271Y-103174085D01*
X155407911Y-103210017D01*
X155592089Y-103210017D01*
X155772729Y-103174085D01*
X155942889Y-103103603D01*
X156096028Y-103001279D01*
X156226262Y-102871045D01*
X156328586Y-102717906D01*
X156399068Y-102547746D01*
X156435000Y-102367106D01*
X156435000Y-102182928D01*
X156399068Y-102002288D01*
X156328586Y-101832128D01*
X156226262Y-101678989D01*
X156205184Y-101657911D01*
X158314990Y-101657911D01*
X158314990Y-101842089D01*
X158350922Y-102022729D01*
X158421404Y-102192889D01*
X158459569Y-102250007D01*
X158421414Y-102307111D01*
X158350932Y-102477271D01*
X158315000Y-102657911D01*
X158315000Y-102842089D01*
X158350932Y-103022729D01*
X158421414Y-103192889D01*
X158523738Y-103346028D01*
X158653972Y-103476262D01*
X158807111Y-103578586D01*
X158977271Y-103649068D01*
X159157911Y-103685000D01*
X159342089Y-103685000D01*
X159522729Y-103649068D01*
X159692889Y-103578586D01*
X159846028Y-103476262D01*
X159976262Y-103346028D01*
X160078586Y-103192889D01*
X160149068Y-103022729D01*
X160185000Y-102842089D01*
X160185000Y-102657911D01*
X160149068Y-102477271D01*
X160078586Y-102307111D01*
X160040421Y-102249993D01*
X160078576Y-102192889D01*
X160149058Y-102022729D01*
X160184990Y-101842089D01*
X160184990Y-101657911D01*
X160149058Y-101477271D01*
X160078576Y-101307111D01*
X160040421Y-101250007D01*
X160078586Y-101192889D01*
X160149068Y-101022729D01*
X160185000Y-100842089D01*
X160185000Y-100657911D01*
X160149068Y-100477271D01*
X160078586Y-100307111D01*
X159976262Y-100153972D01*
X159846028Y-100023738D01*
X159692889Y-99921414D01*
X159522729Y-99850932D01*
X159342089Y-99815000D01*
X159157911Y-99815000D01*
X158977271Y-99850932D01*
X158807111Y-99921414D01*
X158653972Y-100023738D01*
X158523738Y-100153972D01*
X158421414Y-100307111D01*
X158350932Y-100477271D01*
X158315000Y-100657911D01*
X158315000Y-100842089D01*
X158350932Y-101022729D01*
X158421414Y-101192889D01*
X158459569Y-101249993D01*
X158421404Y-101307111D01*
X158350922Y-101477271D01*
X158314990Y-101657911D01*
X156205184Y-101657911D01*
X156096028Y-101548755D01*
X155942889Y-101446431D01*
X155877499Y-101419346D01*
X155928586Y-101342889D01*
X155999068Y-101172729D01*
X156035000Y-100992089D01*
X156035000Y-100807911D01*
X155999068Y-100627271D01*
X155928586Y-100457111D01*
X155826262Y-100303972D01*
X155805201Y-100282911D01*
X156315000Y-100282911D01*
X156315000Y-100467089D01*
X156350932Y-100647729D01*
X156421414Y-100817889D01*
X156523738Y-100971028D01*
X156653972Y-101101262D01*
X156807111Y-101203586D01*
X156977271Y-101274068D01*
X157157911Y-101310000D01*
X157342089Y-101310000D01*
X157522729Y-101274068D01*
X157692889Y-101203586D01*
X157846028Y-101101262D01*
X157976262Y-100971028D01*
X158078586Y-100817889D01*
X158149068Y-100647729D01*
X158185000Y-100467089D01*
X158185000Y-100282911D01*
X158149068Y-100102271D01*
X158078586Y-99932111D01*
X157976262Y-99778972D01*
X157846028Y-99648738D01*
X157692889Y-99546414D01*
X157522729Y-99475932D01*
X157342089Y-99440000D01*
X157157911Y-99440000D01*
X156977271Y-99475932D01*
X156807111Y-99546414D01*
X156653972Y-99648738D01*
X156523738Y-99778972D01*
X156421414Y-99932111D01*
X156350932Y-100102271D01*
X156315000Y-100282911D01*
X155805201Y-100282911D01*
X155696028Y-100173738D01*
X155542889Y-100071414D01*
X155372729Y-100000932D01*
X155192089Y-99965000D01*
X155007911Y-99965000D01*
X154827271Y-100000932D01*
X154657111Y-100071414D01*
X154503972Y-100173738D01*
X154373738Y-100303972D01*
X154271414Y-100457111D01*
X154200932Y-100627271D01*
X154165000Y-100807911D01*
X136185000Y-100807911D01*
X136185000Y-100657911D01*
X136149068Y-100477271D01*
X136078586Y-100307111D01*
X135976262Y-100153972D01*
X135846028Y-100023738D01*
X135692889Y-99921414D01*
X135522729Y-99850932D01*
X135342089Y-99815000D01*
X135157911Y-99815000D01*
X134977271Y-99850932D01*
X134807111Y-99921414D01*
X134653972Y-100023738D01*
X134523738Y-100153972D01*
X134421414Y-100307111D01*
X134350932Y-100477271D01*
X134315000Y-100657911D01*
X134315000Y-100842089D01*
X134350932Y-101022729D01*
X134421414Y-101192889D01*
X134523738Y-101346028D01*
X134617049Y-101439339D01*
X134538356Y-101557111D01*
X134467874Y-101727271D01*
X134431942Y-101907911D01*
X134431942Y-102092089D01*
X134467874Y-102272729D01*
X134538356Y-102442889D01*
X134582955Y-102509636D01*
X134489540Y-102572054D01*
X134359306Y-102702288D01*
X134256982Y-102855427D01*
X134186500Y-103025587D01*
X134150568Y-103206227D01*
X125385000Y-103206227D01*
X125385000Y-100098061D01*
X126965000Y-100098061D01*
X126965000Y-100301939D01*
X127004774Y-100501898D01*
X127045409Y-100600000D01*
X127004774Y-100698102D01*
X126965000Y-100898061D01*
X126965000Y-101101939D01*
X127004774Y-101301898D01*
X127082795Y-101490256D01*
X127196063Y-101659774D01*
X127340226Y-101803937D01*
X127509744Y-101917205D01*
X127698102Y-101995226D01*
X127898061Y-102035000D01*
X127979510Y-102035000D01*
X127996063Y-102059774D01*
X128140226Y-102203937D01*
X128309744Y-102317205D01*
X128498102Y-102395226D01*
X128698061Y-102435000D01*
X128901939Y-102435000D01*
X129101898Y-102395226D01*
X129290256Y-102317205D01*
X129459774Y-102203937D01*
X129603937Y-102059774D01*
X129717205Y-101890256D01*
X129795226Y-101701898D01*
X129835000Y-101501939D01*
X129835000Y-101298061D01*
X129795226Y-101098102D01*
X129754591Y-101000000D01*
X129795226Y-100901898D01*
X129835000Y-100701939D01*
X129835000Y-100498061D01*
X129795226Y-100298102D01*
X129754591Y-100200000D01*
X129795226Y-100101898D01*
X129835000Y-99901939D01*
X129835000Y-99698061D01*
X129795226Y-99498102D01*
X129717205Y-99309744D01*
X129603937Y-99140226D01*
X129459774Y-98996063D01*
X129290256Y-98882795D01*
X129101898Y-98804774D01*
X128901939Y-98765000D01*
X128698061Y-98765000D01*
X128498102Y-98804774D01*
X128309744Y-98882795D01*
X128140226Y-98996063D01*
X127996063Y-99140226D01*
X127979510Y-99165000D01*
X127898061Y-99165000D01*
X127698102Y-99204774D01*
X127509744Y-99282795D01*
X127340226Y-99396063D01*
X127196063Y-99540226D01*
X127082795Y-99709744D01*
X127004774Y-99898102D01*
X126965000Y-100098061D01*
X125385000Y-100098061D01*
X125385000Y-97704558D01*
X134361647Y-97704558D01*
X134361647Y-97888736D01*
X134397579Y-98069376D01*
X134468061Y-98239536D01*
X134570385Y-98392675D01*
X134700619Y-98522909D01*
X134853758Y-98625233D01*
X135023918Y-98695715D01*
X135204558Y-98731647D01*
X135388736Y-98731647D01*
X135569376Y-98695715D01*
X135739536Y-98625233D01*
X135892675Y-98522909D01*
X136022909Y-98392675D01*
X136125233Y-98239536D01*
X136195715Y-98069376D01*
X136231647Y-97888736D01*
X136231647Y-97704558D01*
X136222369Y-97657911D01*
X155565000Y-97657911D01*
X155565000Y-97842089D01*
X155600932Y-98022729D01*
X155671414Y-98192889D01*
X155773738Y-98346028D01*
X155903972Y-98476262D01*
X156057111Y-98578586D01*
X156227271Y-98649068D01*
X156407911Y-98685000D01*
X156592089Y-98685000D01*
X156772729Y-98649068D01*
X156942889Y-98578586D01*
X157096028Y-98476262D01*
X157226262Y-98346028D01*
X157328586Y-98192889D01*
X157399068Y-98022729D01*
X157435000Y-97842089D01*
X157435000Y-97657911D01*
X157399068Y-97477271D01*
X157328586Y-97307111D01*
X157226262Y-97153972D01*
X157096028Y-97023738D01*
X156942889Y-96921414D01*
X156772729Y-96850932D01*
X156592089Y-96815000D01*
X156407911Y-96815000D01*
X156227271Y-96850932D01*
X156057111Y-96921414D01*
X155903972Y-97023738D01*
X155773738Y-97153972D01*
X155671414Y-97307111D01*
X155600932Y-97477271D01*
X155565000Y-97657911D01*
X136222369Y-97657911D01*
X136195715Y-97523918D01*
X136125233Y-97353758D01*
X136022909Y-97200619D01*
X135892675Y-97070385D01*
X135739536Y-96968061D01*
X135569376Y-96897579D01*
X135388736Y-96861647D01*
X135204558Y-96861647D01*
X135023918Y-96897579D01*
X134853758Y-96968061D01*
X134700619Y-97070385D01*
X134570385Y-97200619D01*
X134468061Y-97353758D01*
X134397579Y-97523918D01*
X134361647Y-97704558D01*
X125385000Y-97704558D01*
X125385000Y-95707911D01*
X157065000Y-95707911D01*
X157065000Y-95892089D01*
X157100932Y-96072729D01*
X157171414Y-96242889D01*
X157273738Y-96396028D01*
X157403972Y-96526262D01*
X157557111Y-96628586D01*
X157690010Y-96683634D01*
X157690010Y-96789049D01*
X157725942Y-96969689D01*
X157796424Y-97139849D01*
X157898748Y-97292988D01*
X158028982Y-97423222D01*
X158182121Y-97525546D01*
X158352278Y-97596027D01*
X158339968Y-97657911D01*
X158339968Y-97842089D01*
X158375900Y-98022729D01*
X158446382Y-98192889D01*
X158548706Y-98346028D01*
X158678940Y-98476262D01*
X158832079Y-98578586D01*
X159002239Y-98649068D01*
X159182879Y-98685000D01*
X159367057Y-98685000D01*
X159503190Y-98657921D01*
X161315000Y-98657921D01*
X161315000Y-98842099D01*
X161350932Y-99022739D01*
X161421414Y-99192899D01*
X161523738Y-99346038D01*
X161653972Y-99476272D01*
X161807111Y-99578596D01*
X161977271Y-99649078D01*
X162157911Y-99685010D01*
X162342089Y-99685010D01*
X162522729Y-99649078D01*
X162692889Y-99578596D01*
X162846028Y-99476272D01*
X162976262Y-99346038D01*
X163078586Y-99192899D01*
X163149068Y-99022739D01*
X163185000Y-98842099D01*
X163185000Y-98657921D01*
X163149068Y-98477281D01*
X163143634Y-98464161D01*
X163965000Y-98464161D01*
X163965000Y-98648339D01*
X164000932Y-98828979D01*
X164071414Y-98999139D01*
X164173738Y-99152278D01*
X164303972Y-99282512D01*
X164457111Y-99384836D01*
X164627271Y-99455318D01*
X164708150Y-99471406D01*
X164771414Y-99624139D01*
X164873738Y-99777278D01*
X165003972Y-99907512D01*
X165157111Y-100009836D01*
X165327271Y-100080318D01*
X165507911Y-100116250D01*
X165692089Y-100116250D01*
X165872729Y-100080318D01*
X166042889Y-100009836D01*
X166196028Y-99907512D01*
X166326262Y-99777278D01*
X166428586Y-99624139D01*
X166499068Y-99453979D01*
X166535000Y-99273339D01*
X166535000Y-99089161D01*
X166499068Y-98908521D01*
X166428586Y-98738361D01*
X166326262Y-98585222D01*
X166196028Y-98454988D01*
X166042889Y-98352664D01*
X165872729Y-98282182D01*
X165791850Y-98266094D01*
X165728586Y-98113361D01*
X165626262Y-97960222D01*
X165496028Y-97829988D01*
X165342889Y-97727664D01*
X165172729Y-97657182D01*
X164992089Y-97621250D01*
X164807911Y-97621250D01*
X164627271Y-97657182D01*
X164457111Y-97727664D01*
X164303972Y-97829988D01*
X164173738Y-97960222D01*
X164071414Y-98113361D01*
X164000932Y-98283521D01*
X163965000Y-98464161D01*
X163143634Y-98464161D01*
X163078586Y-98307121D01*
X162976262Y-98153982D01*
X162846028Y-98023748D01*
X162692889Y-97921424D01*
X162522729Y-97850942D01*
X162342089Y-97815010D01*
X162157911Y-97815010D01*
X161977271Y-97850942D01*
X161807111Y-97921424D01*
X161653972Y-98023748D01*
X161523738Y-98153982D01*
X161421414Y-98307121D01*
X161350932Y-98477281D01*
X161315000Y-98657921D01*
X159503190Y-98657921D01*
X159547697Y-98649068D01*
X159717857Y-98578586D01*
X159870996Y-98476262D01*
X160001230Y-98346028D01*
X160103554Y-98192889D01*
X160174036Y-98022729D01*
X160209968Y-97842089D01*
X160209968Y-97657911D01*
X160174036Y-97477271D01*
X160103554Y-97307111D01*
X160076060Y-97265962D01*
X166623051Y-97265962D01*
X166623051Y-97450140D01*
X166658983Y-97630780D01*
X166729465Y-97800940D01*
X166831789Y-97954079D01*
X166962023Y-98084313D01*
X167115162Y-98186637D01*
X167285322Y-98257119D01*
X167465962Y-98293051D01*
X167650140Y-98293051D01*
X167830780Y-98257119D01*
X168000940Y-98186637D01*
X168154079Y-98084313D01*
X168284313Y-97954079D01*
X168386637Y-97800940D01*
X168457119Y-97630780D01*
X168493051Y-97450140D01*
X168493051Y-97265962D01*
X168457119Y-97085322D01*
X168386637Y-96915162D01*
X168284313Y-96762023D01*
X168154079Y-96631789D01*
X168000940Y-96529465D01*
X167830780Y-96458983D01*
X167650140Y-96423051D01*
X167465962Y-96423051D01*
X167285322Y-96458983D01*
X167115162Y-96529465D01*
X166962023Y-96631789D01*
X166831789Y-96762023D01*
X166729465Y-96915162D01*
X166658983Y-97085322D01*
X166623051Y-97265962D01*
X160076060Y-97265962D01*
X160001230Y-97153972D01*
X159870996Y-97023738D01*
X159717857Y-96921414D01*
X159547700Y-96850933D01*
X159551843Y-96830108D01*
X159724148Y-96830108D01*
X159904788Y-96794176D01*
X160074948Y-96723694D01*
X160228087Y-96621370D01*
X160358321Y-96491136D01*
X160460645Y-96337997D01*
X160531127Y-96167837D01*
X160567059Y-95987197D01*
X160567059Y-95803019D01*
X160556694Y-95750910D01*
X164039990Y-95750910D01*
X164039990Y-95935088D01*
X164075922Y-96115728D01*
X164146404Y-96285888D01*
X164248728Y-96439027D01*
X164378962Y-96569261D01*
X164532101Y-96671585D01*
X164702261Y-96742067D01*
X164882901Y-96777999D01*
X165067079Y-96777999D01*
X165247719Y-96742067D01*
X165417879Y-96671585D01*
X165571018Y-96569261D01*
X165701252Y-96439027D01*
X165803576Y-96285888D01*
X165838803Y-96200842D01*
X165847719Y-96199068D01*
X166017879Y-96128586D01*
X166171018Y-96026262D01*
X166301252Y-95896028D01*
X166403576Y-95742889D01*
X166474058Y-95572729D01*
X166502985Y-95427304D01*
X166668522Y-95394376D01*
X166838682Y-95323894D01*
X166867497Y-95304641D01*
X166900932Y-95472729D01*
X166971414Y-95642889D01*
X167073738Y-95796028D01*
X167203972Y-95926262D01*
X167357111Y-96028586D01*
X167527271Y-96099068D01*
X167707911Y-96135000D01*
X167892089Y-96135000D01*
X168072729Y-96099068D01*
X168242889Y-96028586D01*
X168396028Y-95926262D01*
X168526262Y-95796028D01*
X168628586Y-95642889D01*
X168699068Y-95472729D01*
X168735000Y-95292089D01*
X168735000Y-95107911D01*
X168699068Y-94927271D01*
X168628586Y-94757111D01*
X168526262Y-94603972D01*
X168396028Y-94473738D01*
X168242889Y-94371414D01*
X168072729Y-94300932D01*
X167892089Y-94265000D01*
X167707911Y-94265000D01*
X167527271Y-94300932D01*
X167357111Y-94371414D01*
X167328296Y-94390667D01*
X167294861Y-94222579D01*
X167224379Y-94052419D01*
X167122055Y-93899280D01*
X166991821Y-93769046D01*
X166838682Y-93666722D01*
X166668522Y-93596240D01*
X166487882Y-93560308D01*
X166303704Y-93560308D01*
X166123064Y-93596240D01*
X165952904Y-93666722D01*
X165799765Y-93769046D01*
X165669531Y-93899280D01*
X165567207Y-94052419D01*
X165496725Y-94222579D01*
X165467798Y-94368004D01*
X165302261Y-94400932D01*
X165132101Y-94471414D01*
X164978962Y-94573738D01*
X164848728Y-94703972D01*
X164746404Y-94857111D01*
X164711177Y-94942157D01*
X164702261Y-94943931D01*
X164532101Y-95014413D01*
X164378962Y-95116737D01*
X164248728Y-95246971D01*
X164146404Y-95400110D01*
X164075922Y-95570270D01*
X164039990Y-95750910D01*
X160556694Y-95750910D01*
X160531127Y-95622379D01*
X160460645Y-95452219D01*
X160358321Y-95299080D01*
X160228087Y-95168846D01*
X160177528Y-95135064D01*
X160224058Y-95022729D01*
X160259990Y-94842089D01*
X160259990Y-94657911D01*
X160224058Y-94477271D01*
X160153576Y-94307111D01*
X160115416Y-94250000D01*
X160153576Y-94192889D01*
X160224058Y-94022729D01*
X160259990Y-93842089D01*
X160259990Y-93657911D01*
X160224058Y-93477271D01*
X160153576Y-93307111D01*
X160051252Y-93153972D01*
X159921018Y-93023738D01*
X159767879Y-92921414D01*
X159597719Y-92850932D01*
X159417079Y-92815000D01*
X159232901Y-92815000D01*
X159052261Y-92850932D01*
X158882101Y-92921414D01*
X158728962Y-93023738D01*
X158598728Y-93153972D01*
X158496404Y-93307111D01*
X158425922Y-93477271D01*
X158389990Y-93657911D01*
X158389990Y-93842089D01*
X158425922Y-94022729D01*
X158496404Y-94192889D01*
X158534564Y-94250000D01*
X158496404Y-94307111D01*
X158425922Y-94477271D01*
X158389990Y-94657911D01*
X158389990Y-94842089D01*
X158413275Y-94959147D01*
X158272729Y-94900932D01*
X158092089Y-94865000D01*
X157907911Y-94865000D01*
X157727271Y-94900932D01*
X157557111Y-94971414D01*
X157403972Y-95073738D01*
X157273738Y-95203972D01*
X157171414Y-95357111D01*
X157100932Y-95527271D01*
X157065000Y-95707911D01*
X125385000Y-95707911D01*
X125385000Y-93207911D01*
X141065000Y-93207911D01*
X141065000Y-93392089D01*
X141100932Y-93572729D01*
X141171414Y-93742889D01*
X141273738Y-93896028D01*
X141403972Y-94026262D01*
X141557111Y-94128586D01*
X141727271Y-94199068D01*
X141907911Y-94235000D01*
X142092089Y-94235000D01*
X142272729Y-94199068D01*
X142442889Y-94128586D01*
X142596028Y-94026262D01*
X142726262Y-93896028D01*
X142766704Y-93835502D01*
X142773738Y-93846028D01*
X142903972Y-93976262D01*
X143057111Y-94078586D01*
X143227271Y-94149068D01*
X143407911Y-94185000D01*
X143592089Y-94185000D01*
X143772729Y-94149068D01*
X143942889Y-94078586D01*
X144096028Y-93976262D01*
X144150004Y-93922287D01*
X144153983Y-93926266D01*
X144307122Y-94028590D01*
X144477282Y-94099072D01*
X144657922Y-94135004D01*
X144842100Y-94135004D01*
X145022740Y-94099072D01*
X145192900Y-94028590D01*
X145346039Y-93926266D01*
X145476273Y-93796032D01*
X145578597Y-93642893D01*
X145649079Y-93472733D01*
X145685011Y-93292093D01*
X145685011Y-93267911D01*
X155215000Y-93267911D01*
X155215000Y-93452089D01*
X155250932Y-93632729D01*
X155321414Y-93802889D01*
X155423738Y-93956028D01*
X155553972Y-94086262D01*
X155707111Y-94188586D01*
X155877271Y-94259068D01*
X156057911Y-94295000D01*
X156242089Y-94295000D01*
X156422729Y-94259068D01*
X156592889Y-94188586D01*
X156746028Y-94086262D01*
X156876262Y-93956028D01*
X156978586Y-93802889D01*
X157049068Y-93632729D01*
X157085000Y-93452089D01*
X157085000Y-93267911D01*
X157049068Y-93087271D01*
X156978586Y-92917111D01*
X156876262Y-92763972D01*
X156746028Y-92633738D01*
X156592889Y-92531414D01*
X156422729Y-92460932D01*
X156242089Y-92425000D01*
X156057911Y-92425000D01*
X155877271Y-92460932D01*
X155707111Y-92531414D01*
X155553972Y-92633738D01*
X155423738Y-92763972D01*
X155321414Y-92917111D01*
X155250932Y-93087271D01*
X155215000Y-93267911D01*
X145685011Y-93267911D01*
X145685011Y-93107915D01*
X145649079Y-92927275D01*
X145578597Y-92757115D01*
X145476273Y-92603976D01*
X145346039Y-92473742D01*
X145192900Y-92371418D01*
X145022740Y-92300936D01*
X144842100Y-92265004D01*
X144657922Y-92265004D01*
X144477282Y-92300936D01*
X144307122Y-92371418D01*
X144153983Y-92473742D01*
X144100008Y-92527718D01*
X144096028Y-92523738D01*
X143942889Y-92421414D01*
X143772729Y-92350932D01*
X143592089Y-92315000D01*
X143407911Y-92315000D01*
X143227271Y-92350932D01*
X143057111Y-92421414D01*
X142903972Y-92523738D01*
X142773738Y-92653972D01*
X142733296Y-92714498D01*
X142726262Y-92703972D01*
X142596028Y-92573738D01*
X142442889Y-92471414D01*
X142272729Y-92400932D01*
X142092089Y-92365000D01*
X141907911Y-92365000D01*
X141727271Y-92400932D01*
X141557111Y-92471414D01*
X141403972Y-92573738D01*
X141273738Y-92703972D01*
X141171414Y-92857111D01*
X141100932Y-93027271D01*
X141065000Y-93207911D01*
X125385000Y-93207911D01*
X125385000Y-91100000D01*
X136973000Y-91100000D01*
X136973000Y-93000000D01*
X136975440Y-93024776D01*
X136982667Y-93048601D01*
X136994403Y-93070557D01*
X137010197Y-93089803D01*
X137029443Y-93105597D01*
X137051399Y-93117333D01*
X137075224Y-93124560D01*
X137100000Y-93127000D01*
X138100000Y-93127000D01*
X138124776Y-93124560D01*
X138148601Y-93117333D01*
X138170557Y-93105597D01*
X138189803Y-93089803D01*
X138205597Y-93070557D01*
X138217333Y-93048601D01*
X138224560Y-93024776D01*
X138227000Y-93000000D01*
X138227000Y-91100000D01*
X138224560Y-91075224D01*
X138217333Y-91051399D01*
X138205597Y-91029443D01*
X138189803Y-91010197D01*
X138170557Y-90994403D01*
X138148601Y-90982667D01*
X138124776Y-90975440D01*
X138100000Y-90973000D01*
X137100000Y-90973000D01*
X137075224Y-90975440D01*
X137051399Y-90982667D01*
X137029443Y-90994403D01*
X137010197Y-91010197D01*
X136994403Y-91029443D01*
X136982667Y-91051399D01*
X136975440Y-91075224D01*
X136973000Y-91100000D01*
X125385000Y-91100000D01*
X125385000Y-89807911D01*
X142965008Y-89807911D01*
X142965008Y-89992089D01*
X143000940Y-90172729D01*
X143071422Y-90342889D01*
X143116185Y-90409881D01*
X143100921Y-90446731D01*
X143064989Y-90627371D01*
X143064989Y-90811549D01*
X143100921Y-90992189D01*
X143171403Y-91162349D01*
X143273727Y-91315488D01*
X143403961Y-91445722D01*
X143557100Y-91548046D01*
X143727260Y-91618528D01*
X143907900Y-91654460D01*
X144092078Y-91654460D01*
X144272718Y-91618528D01*
X144442878Y-91548046D01*
X144596017Y-91445722D01*
X144726251Y-91315488D01*
X144828575Y-91162349D01*
X144899057Y-90992189D01*
X144934989Y-90811549D01*
X144934989Y-90627371D01*
X144899057Y-90446731D01*
X144828575Y-90276571D01*
X144783812Y-90209579D01*
X144799076Y-90172729D01*
X144835008Y-89992089D01*
X144835008Y-89807911D01*
X144799076Y-89627271D01*
X144728594Y-89457111D01*
X144695720Y-89407911D01*
X156815000Y-89407911D01*
X156815000Y-89592089D01*
X156850932Y-89772729D01*
X156921414Y-89942889D01*
X157023738Y-90096028D01*
X157153972Y-90226262D01*
X157307111Y-90328586D01*
X157477271Y-90399068D01*
X157657911Y-90435000D01*
X157842089Y-90435000D01*
X158022729Y-90399068D01*
X158192889Y-90328586D01*
X158346028Y-90226262D01*
X158476262Y-90096028D01*
X158578586Y-89942889D01*
X158649068Y-89772729D01*
X158685000Y-89592089D01*
X158685000Y-89407911D01*
X158649068Y-89227271D01*
X158578586Y-89057111D01*
X158476262Y-88903972D01*
X158346028Y-88773738D01*
X158192889Y-88671414D01*
X158022729Y-88600932D01*
X157842089Y-88565000D01*
X157657911Y-88565000D01*
X157477271Y-88600932D01*
X157307111Y-88671414D01*
X157153972Y-88773738D01*
X157023738Y-88903972D01*
X156921414Y-89057111D01*
X156850932Y-89227271D01*
X156815000Y-89407911D01*
X144695720Y-89407911D01*
X144626270Y-89303972D01*
X144496036Y-89173738D01*
X144342897Y-89071414D01*
X144172737Y-89000932D01*
X143992097Y-88965000D01*
X143807919Y-88965000D01*
X143627279Y-89000932D01*
X143457119Y-89071414D01*
X143303980Y-89173738D01*
X143173746Y-89303972D01*
X143071422Y-89457111D01*
X143000940Y-89627271D01*
X142965008Y-89807911D01*
X125385000Y-89807911D01*
X125385000Y-87407911D01*
X152315000Y-87407911D01*
X152315000Y-87592089D01*
X152350932Y-87772729D01*
X152421414Y-87942889D01*
X152523738Y-88096028D01*
X152653972Y-88226262D01*
X152807111Y-88328586D01*
X152977271Y-88399068D01*
X153157911Y-88435000D01*
X153342089Y-88435000D01*
X153522729Y-88399068D01*
X153692889Y-88328586D01*
X153846028Y-88226262D01*
X153976262Y-88096028D01*
X154075903Y-87946904D01*
X154100932Y-88072729D01*
X154171414Y-88242889D01*
X154273738Y-88396028D01*
X154403972Y-88526262D01*
X154557111Y-88628586D01*
X154727271Y-88699068D01*
X154907911Y-88735000D01*
X155092089Y-88735000D01*
X155272729Y-88699068D01*
X155442889Y-88628586D01*
X155596028Y-88526262D01*
X155726262Y-88396028D01*
X155828586Y-88242889D01*
X155899068Y-88072729D01*
X155931695Y-87908704D01*
X155940403Y-87952481D01*
X156010885Y-88122641D01*
X156113209Y-88275780D01*
X156243443Y-88406014D01*
X156396582Y-88508338D01*
X156566742Y-88578820D01*
X156747382Y-88614752D01*
X156931560Y-88614752D01*
X157112200Y-88578820D01*
X157282360Y-88508338D01*
X157360870Y-88455879D01*
X159258996Y-88455879D01*
X159258996Y-88640057D01*
X159294928Y-88820697D01*
X159365410Y-88990857D01*
X159467734Y-89143996D01*
X159597968Y-89274230D01*
X159751107Y-89376554D01*
X159921267Y-89447036D01*
X160101907Y-89482968D01*
X160286085Y-89482968D01*
X160466725Y-89447036D01*
X160636885Y-89376554D01*
X160790024Y-89274230D01*
X160920258Y-89143996D01*
X161022582Y-88990857D01*
X161093064Y-88820697D01*
X161128996Y-88640057D01*
X161128996Y-88455879D01*
X161093064Y-88275239D01*
X161076700Y-88235732D01*
X161103922Y-88194991D01*
X161174404Y-88024831D01*
X161210336Y-87844191D01*
X161210336Y-87660013D01*
X161174404Y-87479373D01*
X161103922Y-87309213D01*
X161001598Y-87156074D01*
X160871364Y-87025840D01*
X160718225Y-86923516D01*
X160548065Y-86853034D01*
X160367425Y-86817102D01*
X160183247Y-86817102D01*
X160002607Y-86853034D01*
X159832447Y-86923516D01*
X159679308Y-87025840D01*
X159549074Y-87156074D01*
X159446750Y-87309213D01*
X159376268Y-87479373D01*
X159340336Y-87660013D01*
X159340336Y-87844191D01*
X159376268Y-88024831D01*
X159392632Y-88064338D01*
X159365410Y-88105079D01*
X159294928Y-88275239D01*
X159258996Y-88455879D01*
X157360870Y-88455879D01*
X157435499Y-88406014D01*
X157565733Y-88275780D01*
X157668057Y-88122641D01*
X157738539Y-87952481D01*
X157774471Y-87771841D01*
X157774471Y-87587663D01*
X157738539Y-87407023D01*
X157668057Y-87236863D01*
X157565733Y-87083724D01*
X157435499Y-86953490D01*
X157282360Y-86851166D01*
X157112200Y-86780684D01*
X156931560Y-86744752D01*
X156747382Y-86744752D01*
X156566742Y-86780684D01*
X156396582Y-86851166D01*
X156243443Y-86953490D01*
X156113209Y-87083724D01*
X156010885Y-87236863D01*
X155940403Y-87407023D01*
X155907776Y-87571048D01*
X155899068Y-87527271D01*
X155828586Y-87357111D01*
X155726262Y-87203972D01*
X155596028Y-87073738D01*
X155442889Y-86971414D01*
X155272729Y-86900932D01*
X155092089Y-86865000D01*
X154907911Y-86865000D01*
X154727271Y-86900932D01*
X154557111Y-86971414D01*
X154403972Y-87073738D01*
X154273738Y-87203972D01*
X154174097Y-87353096D01*
X154149068Y-87227271D01*
X154078586Y-87057111D01*
X153976262Y-86903972D01*
X153846028Y-86773738D01*
X153692889Y-86671414D01*
X153522729Y-86600932D01*
X153342089Y-86565000D01*
X153157911Y-86565000D01*
X152977271Y-86600932D01*
X152807111Y-86671414D01*
X152653972Y-86773738D01*
X152523738Y-86903972D01*
X152421414Y-87057111D01*
X152350932Y-87227271D01*
X152315000Y-87407911D01*
X125385000Y-87407911D01*
X125385000Y-86485000D01*
X162907396Y-86485000D01*
X162827271Y-86500938D01*
G37*
X162827271Y-86500938D02*
X162657111Y-86571420D01*
X162503972Y-86673744D01*
X162373738Y-86803978D01*
X162271414Y-86957117D01*
X162200932Y-87127277D01*
X162165000Y-87307917D01*
X162165000Y-87492095D01*
X162200932Y-87672735D01*
X162271414Y-87842895D01*
X162373738Y-87996034D01*
X162503972Y-88126268D01*
X162657111Y-88228592D01*
X162827271Y-88299074D01*
X163007911Y-88335006D01*
X163192089Y-88335006D01*
X163372729Y-88299074D01*
X163542889Y-88228592D01*
X163696028Y-88126268D01*
X163826262Y-87996034D01*
X163928586Y-87842895D01*
X163999068Y-87672735D01*
X164035000Y-87492095D01*
X164035000Y-87307917D01*
X163999068Y-87127277D01*
X163928586Y-86957117D01*
X163826262Y-86803978D01*
X163696028Y-86673744D01*
X163542889Y-86571420D01*
X163372729Y-86500938D01*
X163292604Y-86485000D01*
X165015001Y-86485000D01*
X165015000Y-92566353D01*
X165011686Y-92600000D01*
X165024912Y-92734283D01*
X165064081Y-92863406D01*
X165127688Y-92982407D01*
X165213289Y-93086711D01*
X165250602Y-93117333D01*
X165317593Y-93172312D01*
X165436594Y-93235919D01*
X165565717Y-93275088D01*
X165700000Y-93288314D01*
X165733647Y-93285000D01*
X174373000Y-93285000D01*
X174373000Y-99115000D01*
X168216353Y-99115000D01*
X168182219Y-99118362D01*
X168169892Y-99118362D01*
X168160380Y-99119362D01*
X167976128Y-99140029D01*
X167915396Y-99152938D01*
X167854500Y-99164996D01*
X167845364Y-99167823D01*
X167668634Y-99223885D01*
X167611592Y-99248333D01*
X167554167Y-99272002D01*
X167545753Y-99276551D01*
X167383279Y-99365872D01*
X167332031Y-99400963D01*
X167280339Y-99435307D01*
X167272970Y-99441403D01*
X167130940Y-99560581D01*
X167087502Y-99604938D01*
X167043449Y-99648685D01*
X167037404Y-99656097D01*
X166921228Y-99800591D01*
X166887259Y-99852501D01*
X166852515Y-99904012D01*
X166848025Y-99912456D01*
X166762126Y-100076765D01*
X166738872Y-100134320D01*
X166714809Y-100191565D01*
X166712045Y-100200721D01*
X166659697Y-100378585D01*
X166648059Y-100439592D01*
X166635580Y-100500386D01*
X166634646Y-100509904D01*
X166617842Y-100694548D01*
X166618276Y-100756638D01*
X166617843Y-100818718D01*
X166618776Y-100828236D01*
X166638157Y-101012629D01*
X166650646Y-101073469D01*
X166662274Y-101134426D01*
X166665038Y-101143582D01*
X166665039Y-101143587D01*
X166665041Y-101143592D01*
X166719864Y-101320699D01*
X166743938Y-101377968D01*
X166750445Y-101394076D01*
X166732331Y-101381972D01*
X166562171Y-101311490D01*
X166381531Y-101275558D01*
X166197353Y-101275558D01*
X166016713Y-101311490D01*
X165846553Y-101381972D01*
X165693414Y-101484296D01*
X165563180Y-101614530D01*
X165460856Y-101767669D01*
X165390374Y-101937829D01*
X165387894Y-101950295D01*
X165328586Y-101807111D01*
X165226262Y-101653972D01*
X165096028Y-101523738D01*
X164942889Y-101421414D01*
X164772729Y-101350932D01*
X164592089Y-101315000D01*
X164407911Y-101315000D01*
X164227271Y-101350932D01*
X164057111Y-101421414D01*
X163903972Y-101523738D01*
X163773738Y-101653972D01*
X163671414Y-101807111D01*
X163600932Y-101977271D01*
X163565000Y-102157911D01*
X163565000Y-102342089D01*
X163600932Y-102522729D01*
X163671414Y-102692889D01*
X163773738Y-102846028D01*
X163903972Y-102976262D01*
X164057111Y-103078586D01*
X164227271Y-103149068D01*
X164407911Y-103185000D01*
X164592089Y-103185000D01*
X164772729Y-103149068D01*
X164942889Y-103078586D01*
X165096028Y-102976262D01*
X165226262Y-102846028D01*
X165328586Y-102692889D01*
X165399068Y-102522729D01*
X165401548Y-102510263D01*
X165460856Y-102653447D01*
X165563180Y-102806586D01*
X165604512Y-102847918D01*
X165550932Y-102977271D01*
X165515000Y-103157911D01*
X165515000Y-103342089D01*
X165550932Y-103522729D01*
X165621414Y-103692889D01*
X165723738Y-103846028D01*
X165853972Y-103976262D01*
X166007111Y-104078586D01*
X166177271Y-104149068D01*
X166357911Y-104185000D01*
X166542089Y-104185000D01*
X166722729Y-104149068D01*
X166892889Y-104078586D01*
X167046028Y-103976262D01*
X167176262Y-103846028D01*
X167278586Y-103692889D01*
X167349068Y-103522729D01*
X167385000Y-103342089D01*
X167385000Y-103157911D01*
X167349068Y-102977271D01*
X167278586Y-102807111D01*
X167176262Y-102653972D01*
X167134930Y-102612640D01*
X167188510Y-102483287D01*
X167224442Y-102302647D01*
X167224442Y-102118469D01*
X167200481Y-101998010D01*
X167291337Y-102072111D01*
X167343060Y-102106476D01*
X167394275Y-102141544D01*
X167402681Y-102146089D01*
X167402689Y-102146094D01*
X167402697Y-102146097D01*
X167566394Y-102233138D01*
X167623821Y-102256808D01*
X167680862Y-102281255D01*
X167689990Y-102284081D01*
X167689996Y-102284083D01*
X167690002Y-102284084D01*
X167867492Y-102337671D01*
X167928381Y-102349727D01*
X167989120Y-102362638D01*
X167998631Y-102363638D01*
X168183154Y-102381731D01*
X168183163Y-102381731D01*
X168216353Y-102385000D01*
X174373000Y-102385000D01*
X174373000Y-112215000D01*
X168866910Y-112215000D01*
X168885882Y-112196028D01*
X168916421Y-112150323D01*
X168922729Y-112149068D01*
X169092889Y-112078586D01*
X169246028Y-111976262D01*
X169376262Y-111846028D01*
X169478586Y-111692889D01*
X169549068Y-111522729D01*
X169585000Y-111342089D01*
X169585000Y-111157911D01*
X169549068Y-110977271D01*
X169478586Y-110807111D01*
X169376262Y-110653972D01*
X169246028Y-110523738D01*
X169092889Y-110421414D01*
X168922729Y-110350932D01*
X168742089Y-110315000D01*
X168557911Y-110315000D01*
X168377271Y-110350932D01*
X168207111Y-110421414D01*
X168053972Y-110523738D01*
X167923738Y-110653972D01*
X167893199Y-110699677D01*
X167886891Y-110700932D01*
X167716731Y-110771414D01*
X167563592Y-110873738D01*
X167433358Y-111003972D01*
X167331034Y-111157111D01*
X167260552Y-111327271D01*
X167224620Y-111507911D01*
X167224620Y-111692089D01*
X167260552Y-111872729D01*
X167331034Y-112042889D01*
X167433358Y-112196028D01*
X167452330Y-112215000D01*
X165733647Y-112215000D01*
X165700000Y-112211686D01*
X165666353Y-112215000D01*
X165565717Y-112224912D01*
X165436594Y-112264081D01*
X165317593Y-112327688D01*
X165213289Y-112413289D01*
X165127688Y-112517593D01*
X165064081Y-112636594D01*
X165024912Y-112765717D01*
X165011686Y-112900000D01*
X165015000Y-112933647D01*
X165015001Y-115115000D01*
X152300672Y-115115000D01*
X152317205Y-115090256D01*
X152395226Y-114901898D01*
X152435000Y-114701939D01*
X152435000Y-114498061D01*
X152395226Y-114298102D01*
X152317205Y-114109744D01*
X152203937Y-113940226D01*
X152059774Y-113796063D01*
X151890256Y-113682795D01*
X151701898Y-113604774D01*
X151501939Y-113565000D01*
X151298061Y-113565000D01*
X151098102Y-113604774D01*
X151000000Y-113645409D01*
X150901898Y-113604774D01*
X150701939Y-113565000D01*
X150498061Y-113565000D01*
X150298102Y-113604774D01*
X150200000Y-113645409D01*
X150101898Y-113604774D01*
X149901939Y-113565000D01*
X149698061Y-113565000D01*
X149498102Y-113604774D01*
X149400000Y-113645409D01*
X149301898Y-113604774D01*
X149101939Y-113565000D01*
X148898061Y-113565000D01*
X148698102Y-113604774D01*
X148509744Y-113682795D01*
X148340226Y-113796063D01*
X148196063Y-113940226D01*
X148082795Y-114109744D01*
X148004774Y-114298102D01*
X147965000Y-114498061D01*
X147965000Y-114701939D01*
X148004774Y-114901898D01*
X148082795Y-115090256D01*
X148099328Y-115115000D01*
X125385000Y-115115000D01*
X125385000Y-109407911D01*
X135565000Y-109407911D01*
X135565000Y-109592089D01*
X135600932Y-109772729D01*
X135671414Y-109942889D01*
X135773738Y-110096028D01*
X135903972Y-110226262D01*
X136057111Y-110328586D01*
X136227271Y-110399068D01*
X136407911Y-110435000D01*
X136592089Y-110435000D01*
X136772729Y-110399068D01*
X136942889Y-110328586D01*
X137096028Y-110226262D01*
X137226262Y-110096028D01*
X137328586Y-109942889D01*
X137343074Y-109907911D01*
X139815000Y-109907911D01*
X139815000Y-110092089D01*
X139850932Y-110272729D01*
X139921414Y-110442889D01*
X140023738Y-110596028D01*
X140153972Y-110726262D01*
X140307111Y-110828586D01*
X140477271Y-110899068D01*
X140657911Y-110935000D01*
X140842089Y-110935000D01*
X141022729Y-110899068D01*
X141192889Y-110828586D01*
X141346028Y-110726262D01*
X141476262Y-110596028D01*
X141578586Y-110442889D01*
X141649068Y-110272729D01*
X141669585Y-110169585D01*
X141772729Y-110149068D01*
X141942889Y-110078586D01*
X142096028Y-109976262D01*
X142226262Y-109846028D01*
X142328586Y-109692889D01*
X142399068Y-109522729D01*
X142435000Y-109342089D01*
X142435000Y-109157911D01*
X142399068Y-108977271D01*
X142328586Y-108807111D01*
X142226262Y-108653972D01*
X142170351Y-108598061D01*
X166365000Y-108598061D01*
X166365000Y-108801939D01*
X166404774Y-109001898D01*
X166482795Y-109190256D01*
X166596063Y-109359774D01*
X166740226Y-109503937D01*
X166909744Y-109617205D01*
X167098102Y-109695226D01*
X167298061Y-109735000D01*
X167501939Y-109735000D01*
X167701898Y-109695226D01*
X167890256Y-109617205D01*
X168059774Y-109503937D01*
X168203937Y-109359774D01*
X168317205Y-109190256D01*
X168395226Y-109001898D01*
X168435000Y-108801939D01*
X168435000Y-108598061D01*
X168395226Y-108398102D01*
X168317205Y-108209744D01*
X168203937Y-108040226D01*
X168059774Y-107896063D01*
X167890256Y-107782795D01*
X167701898Y-107704774D01*
X167501939Y-107665000D01*
X167298061Y-107665000D01*
X167098102Y-107704774D01*
X166909744Y-107782795D01*
X166740226Y-107896063D01*
X166596063Y-108040226D01*
X166482795Y-108209744D01*
X166404774Y-108398102D01*
X166365000Y-108598061D01*
X142170351Y-108598061D01*
X142096028Y-108523738D01*
X141942889Y-108421414D01*
X141772729Y-108350932D01*
X141592089Y-108315000D01*
X141407911Y-108315000D01*
X141227271Y-108350932D01*
X141057111Y-108421414D01*
X140903972Y-108523738D01*
X140773738Y-108653972D01*
X140671414Y-108807111D01*
X140600932Y-108977271D01*
X140580415Y-109080415D01*
X140477271Y-109100932D01*
X140307111Y-109171414D01*
X140153972Y-109273738D01*
X140023738Y-109403972D01*
X139921414Y-109557111D01*
X139850932Y-109727271D01*
X139815000Y-109907911D01*
X137343074Y-109907911D01*
X137399068Y-109772729D01*
X137404777Y-109744030D01*
X137477271Y-109774058D01*
X137657911Y-109809990D01*
X137842089Y-109809990D01*
X138022729Y-109774058D01*
X138192889Y-109703576D01*
X138346028Y-109601252D01*
X138476262Y-109471018D01*
X138578586Y-109317879D01*
X138649068Y-109147719D01*
X138685000Y-108967079D01*
X138685000Y-108782901D01*
X138649068Y-108602261D01*
X138578586Y-108432101D01*
X138476262Y-108278962D01*
X138346028Y-108148728D01*
X138192889Y-108046404D01*
X138022729Y-107975922D01*
X137842089Y-107939990D01*
X137657911Y-107939990D01*
X137477271Y-107975922D01*
X137307111Y-108046404D01*
X137153972Y-108148728D01*
X137023738Y-108278962D01*
X136921414Y-108432101D01*
X136850932Y-108602261D01*
X136845223Y-108630960D01*
X136772729Y-108600932D01*
X136592089Y-108565000D01*
X136407911Y-108565000D01*
X136227271Y-108600932D01*
X136057111Y-108671414D01*
X135903972Y-108773738D01*
X135773738Y-108903972D01*
X135671414Y-109057111D01*
X135600932Y-109227271D01*
X135565000Y-109407911D01*
X125385000Y-109407911D01*
X125385000Y-103206227D01*
X134150568Y-103206227D01*
X134150568Y-103390405D01*
X134186500Y-103571045D01*
X134256982Y-103741205D01*
X134359306Y-103894344D01*
X134489540Y-104024578D01*
X134642679Y-104126902D01*
X134812839Y-104197384D01*
X134993479Y-104233316D01*
X135177657Y-104233316D01*
X135358297Y-104197384D01*
X135473000Y-104149873D01*
X135473000Y-104800000D01*
X135475440Y-104824776D01*
X135482667Y-104848601D01*
X135494403Y-104870557D01*
X135510197Y-104889803D01*
X135529443Y-104905597D01*
X135551399Y-104917333D01*
X135575224Y-104924560D01*
X135600000Y-104927000D01*
X137300000Y-104927000D01*
X137324776Y-104924560D01*
X137348601Y-104917333D01*
X137370557Y-104905597D01*
X137389803Y-104889803D01*
X137405597Y-104870557D01*
X137417333Y-104848601D01*
X137424560Y-104824776D01*
X137427000Y-104800000D01*
X137427000Y-104682879D01*
X156211641Y-104682879D01*
X156211641Y-104867057D01*
X156247573Y-105047697D01*
X156318055Y-105217857D01*
X156420379Y-105370996D01*
X156550613Y-105501230D01*
X156703752Y-105603554D01*
X156873912Y-105674036D01*
X157054552Y-105709968D01*
X157238730Y-105709968D01*
X157419370Y-105674036D01*
X157589530Y-105603554D01*
X157742669Y-105501230D01*
X157872903Y-105370996D01*
X157975227Y-105217857D01*
X158045709Y-105047697D01*
X158081641Y-104867057D01*
X158081641Y-104682879D01*
X158045709Y-104502239D01*
X157975227Y-104332079D01*
X157872903Y-104178940D01*
X157742669Y-104048706D01*
X157589530Y-103946382D01*
X157419370Y-103875900D01*
X157238730Y-103839968D01*
X157054552Y-103839968D01*
X156873912Y-103875900D01*
X156703752Y-103946382D01*
X156550613Y-104048706D01*
X156420379Y-104178940D01*
X156318055Y-104332079D01*
X156247573Y-104502239D01*
X156211641Y-104682879D01*
X137427000Y-104682879D01*
X137427000Y-103400000D01*
X137424560Y-103375224D01*
X137417333Y-103351399D01*
X137405597Y-103329443D01*
X137389803Y-103310197D01*
X137370557Y-103294403D01*
X137348601Y-103282667D01*
X137324776Y-103275440D01*
X137300000Y-103273000D01*
X136020568Y-103273000D01*
X136020568Y-103206227D01*
X135984636Y-103025587D01*
X135914154Y-102855427D01*
X135869555Y-102788680D01*
X135962970Y-102726262D01*
X136093204Y-102596028D01*
X136195528Y-102442889D01*
X136266010Y-102272729D01*
X136301942Y-102092089D01*
X136301942Y-101907911D01*
X136266010Y-101727271D01*
X136195528Y-101557111D01*
X136093204Y-101403972D01*
X135999893Y-101310661D01*
X136078586Y-101192889D01*
X136149068Y-101022729D01*
X136185000Y-100842089D01*
X136185000Y-100807911D01*
X154165000Y-100807911D01*
X154165000Y-100992089D01*
X154200932Y-101172729D01*
X154271414Y-101342889D01*
X154373738Y-101496028D01*
X154503972Y-101626262D01*
X154657111Y-101728586D01*
X154722501Y-101755671D01*
X154671414Y-101832128D01*
X154600932Y-102002288D01*
X154565000Y-102182928D01*
X154565000Y-102367106D01*
X154600932Y-102547746D01*
X154671414Y-102717906D01*
X154773738Y-102871045D01*
X154903972Y-103001279D01*
X155057111Y-103103603D01*
X155227271Y-103174085D01*
X155407911Y-103210017D01*
X155592089Y-103210017D01*
X155772729Y-103174085D01*
X155942889Y-103103603D01*
X156096028Y-103001279D01*
X156226262Y-102871045D01*
X156328586Y-102717906D01*
X156399068Y-102547746D01*
X156435000Y-102367106D01*
X156435000Y-102182928D01*
X156399068Y-102002288D01*
X156328586Y-101832128D01*
X156226262Y-101678989D01*
X156205184Y-101657911D01*
X158314990Y-101657911D01*
X158314990Y-101842089D01*
X158350922Y-102022729D01*
X158421404Y-102192889D01*
X158459569Y-102250007D01*
X158421414Y-102307111D01*
X158350932Y-102477271D01*
X158315000Y-102657911D01*
X158315000Y-102842089D01*
X158350932Y-103022729D01*
X158421414Y-103192889D01*
X158523738Y-103346028D01*
X158653972Y-103476262D01*
X158807111Y-103578586D01*
X158977271Y-103649068D01*
X159157911Y-103685000D01*
X159342089Y-103685000D01*
X159522729Y-103649068D01*
X159692889Y-103578586D01*
X159846028Y-103476262D01*
X159976262Y-103346028D01*
X160078586Y-103192889D01*
X160149068Y-103022729D01*
X160185000Y-102842089D01*
X160185000Y-102657911D01*
X160149068Y-102477271D01*
X160078586Y-102307111D01*
X160040421Y-102249993D01*
X160078576Y-102192889D01*
X160149058Y-102022729D01*
X160184990Y-101842089D01*
X160184990Y-101657911D01*
X160149058Y-101477271D01*
X160078576Y-101307111D01*
X160040421Y-101250007D01*
X160078586Y-101192889D01*
X160149068Y-101022729D01*
X160185000Y-100842089D01*
X160185000Y-100657911D01*
X160149068Y-100477271D01*
X160078586Y-100307111D01*
X159976262Y-100153972D01*
X159846028Y-100023738D01*
X159692889Y-99921414D01*
X159522729Y-99850932D01*
X159342089Y-99815000D01*
X159157911Y-99815000D01*
X158977271Y-99850932D01*
X158807111Y-99921414D01*
X158653972Y-100023738D01*
X158523738Y-100153972D01*
X158421414Y-100307111D01*
X158350932Y-100477271D01*
X158315000Y-100657911D01*
X158315000Y-100842089D01*
X158350932Y-101022729D01*
X158421414Y-101192889D01*
X158459569Y-101249993D01*
X158421404Y-101307111D01*
X158350922Y-101477271D01*
X158314990Y-101657911D01*
X156205184Y-101657911D01*
X156096028Y-101548755D01*
X155942889Y-101446431D01*
X155877499Y-101419346D01*
X155928586Y-101342889D01*
X155999068Y-101172729D01*
X156035000Y-100992089D01*
X156035000Y-100807911D01*
X155999068Y-100627271D01*
X155928586Y-100457111D01*
X155826262Y-100303972D01*
X155805201Y-100282911D01*
X156315000Y-100282911D01*
X156315000Y-100467089D01*
X156350932Y-100647729D01*
X156421414Y-100817889D01*
X156523738Y-100971028D01*
X156653972Y-101101262D01*
X156807111Y-101203586D01*
X156977271Y-101274068D01*
X157157911Y-101310000D01*
X157342089Y-101310000D01*
X157522729Y-101274068D01*
X157692889Y-101203586D01*
X157846028Y-101101262D01*
X157976262Y-100971028D01*
X158078586Y-100817889D01*
X158149068Y-100647729D01*
X158185000Y-100467089D01*
X158185000Y-100282911D01*
X158149068Y-100102271D01*
X158078586Y-99932111D01*
X157976262Y-99778972D01*
X157846028Y-99648738D01*
X157692889Y-99546414D01*
X157522729Y-99475932D01*
X157342089Y-99440000D01*
X157157911Y-99440000D01*
X156977271Y-99475932D01*
X156807111Y-99546414D01*
X156653972Y-99648738D01*
X156523738Y-99778972D01*
X156421414Y-99932111D01*
X156350932Y-100102271D01*
X156315000Y-100282911D01*
X155805201Y-100282911D01*
X155696028Y-100173738D01*
X155542889Y-100071414D01*
X155372729Y-100000932D01*
X155192089Y-99965000D01*
X155007911Y-99965000D01*
X154827271Y-100000932D01*
X154657111Y-100071414D01*
X154503972Y-100173738D01*
X154373738Y-100303972D01*
X154271414Y-100457111D01*
X154200932Y-100627271D01*
X154165000Y-100807911D01*
X136185000Y-100807911D01*
X136185000Y-100657911D01*
X136149068Y-100477271D01*
X136078586Y-100307111D01*
X135976262Y-100153972D01*
X135846028Y-100023738D01*
X135692889Y-99921414D01*
X135522729Y-99850932D01*
X135342089Y-99815000D01*
X135157911Y-99815000D01*
X134977271Y-99850932D01*
X134807111Y-99921414D01*
X134653972Y-100023738D01*
X134523738Y-100153972D01*
X134421414Y-100307111D01*
X134350932Y-100477271D01*
X134315000Y-100657911D01*
X134315000Y-100842089D01*
X134350932Y-101022729D01*
X134421414Y-101192889D01*
X134523738Y-101346028D01*
X134617049Y-101439339D01*
X134538356Y-101557111D01*
X134467874Y-101727271D01*
X134431942Y-101907911D01*
X134431942Y-102092089D01*
X134467874Y-102272729D01*
X134538356Y-102442889D01*
X134582955Y-102509636D01*
X134489540Y-102572054D01*
X134359306Y-102702288D01*
X134256982Y-102855427D01*
X134186500Y-103025587D01*
X134150568Y-103206227D01*
X125385000Y-103206227D01*
X125385000Y-100098061D01*
X126965000Y-100098061D01*
X126965000Y-100301939D01*
X127004774Y-100501898D01*
X127045409Y-100600000D01*
X127004774Y-100698102D01*
X126965000Y-100898061D01*
X126965000Y-101101939D01*
X127004774Y-101301898D01*
X127082795Y-101490256D01*
X127196063Y-101659774D01*
X127340226Y-101803937D01*
X127509744Y-101917205D01*
X127698102Y-101995226D01*
X127898061Y-102035000D01*
X127979510Y-102035000D01*
X127996063Y-102059774D01*
X128140226Y-102203937D01*
X128309744Y-102317205D01*
X128498102Y-102395226D01*
X128698061Y-102435000D01*
X128901939Y-102435000D01*
X129101898Y-102395226D01*
X129290256Y-102317205D01*
X129459774Y-102203937D01*
X129603937Y-102059774D01*
X129717205Y-101890256D01*
X129795226Y-101701898D01*
X129835000Y-101501939D01*
X129835000Y-101298061D01*
X129795226Y-101098102D01*
X129754591Y-101000000D01*
X129795226Y-100901898D01*
X129835000Y-100701939D01*
X129835000Y-100498061D01*
X129795226Y-100298102D01*
X129754591Y-100200000D01*
X129795226Y-100101898D01*
X129835000Y-99901939D01*
X129835000Y-99698061D01*
X129795226Y-99498102D01*
X129717205Y-99309744D01*
X129603937Y-99140226D01*
X129459774Y-98996063D01*
X129290256Y-98882795D01*
X129101898Y-98804774D01*
X128901939Y-98765000D01*
X128698061Y-98765000D01*
X128498102Y-98804774D01*
X128309744Y-98882795D01*
X128140226Y-98996063D01*
X127996063Y-99140226D01*
X127979510Y-99165000D01*
X127898061Y-99165000D01*
X127698102Y-99204774D01*
X127509744Y-99282795D01*
X127340226Y-99396063D01*
X127196063Y-99540226D01*
X127082795Y-99709744D01*
X127004774Y-99898102D01*
X126965000Y-100098061D01*
X125385000Y-100098061D01*
X125385000Y-97704558D01*
X134361647Y-97704558D01*
X134361647Y-97888736D01*
X134397579Y-98069376D01*
X134468061Y-98239536D01*
X134570385Y-98392675D01*
X134700619Y-98522909D01*
X134853758Y-98625233D01*
X135023918Y-98695715D01*
X135204558Y-98731647D01*
X135388736Y-98731647D01*
X135569376Y-98695715D01*
X135739536Y-98625233D01*
X135892675Y-98522909D01*
X136022909Y-98392675D01*
X136125233Y-98239536D01*
X136195715Y-98069376D01*
X136231647Y-97888736D01*
X136231647Y-97704558D01*
X136222369Y-97657911D01*
X155565000Y-97657911D01*
X155565000Y-97842089D01*
X155600932Y-98022729D01*
X155671414Y-98192889D01*
X155773738Y-98346028D01*
X155903972Y-98476262D01*
X156057111Y-98578586D01*
X156227271Y-98649068D01*
X156407911Y-98685000D01*
X156592089Y-98685000D01*
X156772729Y-98649068D01*
X156942889Y-98578586D01*
X157096028Y-98476262D01*
X157226262Y-98346028D01*
X157328586Y-98192889D01*
X157399068Y-98022729D01*
X157435000Y-97842089D01*
X157435000Y-97657911D01*
X157399068Y-97477271D01*
X157328586Y-97307111D01*
X157226262Y-97153972D01*
X157096028Y-97023738D01*
X156942889Y-96921414D01*
X156772729Y-96850932D01*
X156592089Y-96815000D01*
X156407911Y-96815000D01*
X156227271Y-96850932D01*
X156057111Y-96921414D01*
X155903972Y-97023738D01*
X155773738Y-97153972D01*
X155671414Y-97307111D01*
X155600932Y-97477271D01*
X155565000Y-97657911D01*
X136222369Y-97657911D01*
X136195715Y-97523918D01*
X136125233Y-97353758D01*
X136022909Y-97200619D01*
X135892675Y-97070385D01*
X135739536Y-96968061D01*
X135569376Y-96897579D01*
X135388736Y-96861647D01*
X135204558Y-96861647D01*
X135023918Y-96897579D01*
X134853758Y-96968061D01*
X134700619Y-97070385D01*
X134570385Y-97200619D01*
X134468061Y-97353758D01*
X134397579Y-97523918D01*
X134361647Y-97704558D01*
X125385000Y-97704558D01*
X125385000Y-95707911D01*
X157065000Y-95707911D01*
X157065000Y-95892089D01*
X157100932Y-96072729D01*
X157171414Y-96242889D01*
X157273738Y-96396028D01*
X157403972Y-96526262D01*
X157557111Y-96628586D01*
X157690010Y-96683634D01*
X157690010Y-96789049D01*
X157725942Y-96969689D01*
X157796424Y-97139849D01*
X157898748Y-97292988D01*
X158028982Y-97423222D01*
X158182121Y-97525546D01*
X158352278Y-97596027D01*
X158339968Y-97657911D01*
X158339968Y-97842089D01*
X158375900Y-98022729D01*
X158446382Y-98192889D01*
X158548706Y-98346028D01*
X158678940Y-98476262D01*
X158832079Y-98578586D01*
X159002239Y-98649068D01*
X159182879Y-98685000D01*
X159367057Y-98685000D01*
X159503190Y-98657921D01*
X161315000Y-98657921D01*
X161315000Y-98842099D01*
X161350932Y-99022739D01*
X161421414Y-99192899D01*
X161523738Y-99346038D01*
X161653972Y-99476272D01*
X161807111Y-99578596D01*
X161977271Y-99649078D01*
X162157911Y-99685010D01*
X162342089Y-99685010D01*
X162522729Y-99649078D01*
X162692889Y-99578596D01*
X162846028Y-99476272D01*
X162976262Y-99346038D01*
X163078586Y-99192899D01*
X163149068Y-99022739D01*
X163185000Y-98842099D01*
X163185000Y-98657921D01*
X163149068Y-98477281D01*
X163143634Y-98464161D01*
X163965000Y-98464161D01*
X163965000Y-98648339D01*
X164000932Y-98828979D01*
X164071414Y-98999139D01*
X164173738Y-99152278D01*
X164303972Y-99282512D01*
X164457111Y-99384836D01*
X164627271Y-99455318D01*
X164708150Y-99471406D01*
X164771414Y-99624139D01*
X164873738Y-99777278D01*
X165003972Y-99907512D01*
X165157111Y-100009836D01*
X165327271Y-100080318D01*
X165507911Y-100116250D01*
X165692089Y-100116250D01*
X165872729Y-100080318D01*
X166042889Y-100009836D01*
X166196028Y-99907512D01*
X166326262Y-99777278D01*
X166428586Y-99624139D01*
X166499068Y-99453979D01*
X166535000Y-99273339D01*
X166535000Y-99089161D01*
X166499068Y-98908521D01*
X166428586Y-98738361D01*
X166326262Y-98585222D01*
X166196028Y-98454988D01*
X166042889Y-98352664D01*
X165872729Y-98282182D01*
X165791850Y-98266094D01*
X165728586Y-98113361D01*
X165626262Y-97960222D01*
X165496028Y-97829988D01*
X165342889Y-97727664D01*
X165172729Y-97657182D01*
X164992089Y-97621250D01*
X164807911Y-97621250D01*
X164627271Y-97657182D01*
X164457111Y-97727664D01*
X164303972Y-97829988D01*
X164173738Y-97960222D01*
X164071414Y-98113361D01*
X164000932Y-98283521D01*
X163965000Y-98464161D01*
X163143634Y-98464161D01*
X163078586Y-98307121D01*
X162976262Y-98153982D01*
X162846028Y-98023748D01*
X162692889Y-97921424D01*
X162522729Y-97850942D01*
X162342089Y-97815010D01*
X162157911Y-97815010D01*
X161977271Y-97850942D01*
X161807111Y-97921424D01*
X161653972Y-98023748D01*
X161523738Y-98153982D01*
X161421414Y-98307121D01*
X161350932Y-98477281D01*
X161315000Y-98657921D01*
X159503190Y-98657921D01*
X159547697Y-98649068D01*
X159717857Y-98578586D01*
X159870996Y-98476262D01*
X160001230Y-98346028D01*
X160103554Y-98192889D01*
X160174036Y-98022729D01*
X160209968Y-97842089D01*
X160209968Y-97657911D01*
X160174036Y-97477271D01*
X160103554Y-97307111D01*
X160076060Y-97265962D01*
X166623051Y-97265962D01*
X166623051Y-97450140D01*
X166658983Y-97630780D01*
X166729465Y-97800940D01*
X166831789Y-97954079D01*
X166962023Y-98084313D01*
X167115162Y-98186637D01*
X167285322Y-98257119D01*
X167465962Y-98293051D01*
X167650140Y-98293051D01*
X167830780Y-98257119D01*
X168000940Y-98186637D01*
X168154079Y-98084313D01*
X168284313Y-97954079D01*
X168386637Y-97800940D01*
X168457119Y-97630780D01*
X168493051Y-97450140D01*
X168493051Y-97265962D01*
X168457119Y-97085322D01*
X168386637Y-96915162D01*
X168284313Y-96762023D01*
X168154079Y-96631789D01*
X168000940Y-96529465D01*
X167830780Y-96458983D01*
X167650140Y-96423051D01*
X167465962Y-96423051D01*
X167285322Y-96458983D01*
X167115162Y-96529465D01*
X166962023Y-96631789D01*
X166831789Y-96762023D01*
X166729465Y-96915162D01*
X166658983Y-97085322D01*
X166623051Y-97265962D01*
X160076060Y-97265962D01*
X160001230Y-97153972D01*
X159870996Y-97023738D01*
X159717857Y-96921414D01*
X159547700Y-96850933D01*
X159551843Y-96830108D01*
X159724148Y-96830108D01*
X159904788Y-96794176D01*
X160074948Y-96723694D01*
X160228087Y-96621370D01*
X160358321Y-96491136D01*
X160460645Y-96337997D01*
X160531127Y-96167837D01*
X160567059Y-95987197D01*
X160567059Y-95803019D01*
X160556694Y-95750910D01*
X164039990Y-95750910D01*
X164039990Y-95935088D01*
X164075922Y-96115728D01*
X164146404Y-96285888D01*
X164248728Y-96439027D01*
X164378962Y-96569261D01*
X164532101Y-96671585D01*
X164702261Y-96742067D01*
X164882901Y-96777999D01*
X165067079Y-96777999D01*
X165247719Y-96742067D01*
X165417879Y-96671585D01*
X165571018Y-96569261D01*
X165701252Y-96439027D01*
X165803576Y-96285888D01*
X165838803Y-96200842D01*
X165847719Y-96199068D01*
X166017879Y-96128586D01*
X166171018Y-96026262D01*
X166301252Y-95896028D01*
X166403576Y-95742889D01*
X166474058Y-95572729D01*
X166502985Y-95427304D01*
X166668522Y-95394376D01*
X166838682Y-95323894D01*
X166867497Y-95304641D01*
X166900932Y-95472729D01*
X166971414Y-95642889D01*
X167073738Y-95796028D01*
X167203972Y-95926262D01*
X167357111Y-96028586D01*
X167527271Y-96099068D01*
X167707911Y-96135000D01*
X167892089Y-96135000D01*
X168072729Y-96099068D01*
X168242889Y-96028586D01*
X168396028Y-95926262D01*
X168526262Y-95796028D01*
X168628586Y-95642889D01*
X168699068Y-95472729D01*
X168735000Y-95292089D01*
X168735000Y-95107911D01*
X168699068Y-94927271D01*
X168628586Y-94757111D01*
X168526262Y-94603972D01*
X168396028Y-94473738D01*
X168242889Y-94371414D01*
X168072729Y-94300932D01*
X167892089Y-94265000D01*
X167707911Y-94265000D01*
X167527271Y-94300932D01*
X167357111Y-94371414D01*
X167328296Y-94390667D01*
X167294861Y-94222579D01*
X167224379Y-94052419D01*
X167122055Y-93899280D01*
X166991821Y-93769046D01*
X166838682Y-93666722D01*
X166668522Y-93596240D01*
X166487882Y-93560308D01*
X166303704Y-93560308D01*
X166123064Y-93596240D01*
X165952904Y-93666722D01*
X165799765Y-93769046D01*
X165669531Y-93899280D01*
X165567207Y-94052419D01*
X165496725Y-94222579D01*
X165467798Y-94368004D01*
X165302261Y-94400932D01*
X165132101Y-94471414D01*
X164978962Y-94573738D01*
X164848728Y-94703972D01*
X164746404Y-94857111D01*
X164711177Y-94942157D01*
X164702261Y-94943931D01*
X164532101Y-95014413D01*
X164378962Y-95116737D01*
X164248728Y-95246971D01*
X164146404Y-95400110D01*
X164075922Y-95570270D01*
X164039990Y-95750910D01*
X160556694Y-95750910D01*
X160531127Y-95622379D01*
X160460645Y-95452219D01*
X160358321Y-95299080D01*
X160228087Y-95168846D01*
X160177528Y-95135064D01*
X160224058Y-95022729D01*
X160259990Y-94842089D01*
X160259990Y-94657911D01*
X160224058Y-94477271D01*
X160153576Y-94307111D01*
X160115416Y-94250000D01*
X160153576Y-94192889D01*
X160224058Y-94022729D01*
X160259990Y-93842089D01*
X160259990Y-93657911D01*
X160224058Y-93477271D01*
X160153576Y-93307111D01*
X160051252Y-93153972D01*
X159921018Y-93023738D01*
X159767879Y-92921414D01*
X159597719Y-92850932D01*
X159417079Y-92815000D01*
X159232901Y-92815000D01*
X159052261Y-92850932D01*
X158882101Y-92921414D01*
X158728962Y-93023738D01*
X158598728Y-93153972D01*
X158496404Y-93307111D01*
X158425922Y-93477271D01*
X158389990Y-93657911D01*
X158389990Y-93842089D01*
X158425922Y-94022729D01*
X158496404Y-94192889D01*
X158534564Y-94250000D01*
X158496404Y-94307111D01*
X158425922Y-94477271D01*
X158389990Y-94657911D01*
X158389990Y-94842089D01*
X158413275Y-94959147D01*
X158272729Y-94900932D01*
X158092089Y-94865000D01*
X157907911Y-94865000D01*
X157727271Y-94900932D01*
X157557111Y-94971414D01*
X157403972Y-95073738D01*
X157273738Y-95203972D01*
X157171414Y-95357111D01*
X157100932Y-95527271D01*
X157065000Y-95707911D01*
X125385000Y-95707911D01*
X125385000Y-93207911D01*
X141065000Y-93207911D01*
X141065000Y-93392089D01*
X141100932Y-93572729D01*
X141171414Y-93742889D01*
X141273738Y-93896028D01*
X141403972Y-94026262D01*
X141557111Y-94128586D01*
X141727271Y-94199068D01*
X141907911Y-94235000D01*
X142092089Y-94235000D01*
X142272729Y-94199068D01*
X142442889Y-94128586D01*
X142596028Y-94026262D01*
X142726262Y-93896028D01*
X142766704Y-93835502D01*
X142773738Y-93846028D01*
X142903972Y-93976262D01*
X143057111Y-94078586D01*
X143227271Y-94149068D01*
X143407911Y-94185000D01*
X143592089Y-94185000D01*
X143772729Y-94149068D01*
X143942889Y-94078586D01*
X144096028Y-93976262D01*
X144150004Y-93922287D01*
X144153983Y-93926266D01*
X144307122Y-94028590D01*
X144477282Y-94099072D01*
X144657922Y-94135004D01*
X144842100Y-94135004D01*
X145022740Y-94099072D01*
X145192900Y-94028590D01*
X145346039Y-93926266D01*
X145476273Y-93796032D01*
X145578597Y-93642893D01*
X145649079Y-93472733D01*
X145685011Y-93292093D01*
X145685011Y-93267911D01*
X155215000Y-93267911D01*
X155215000Y-93452089D01*
X155250932Y-93632729D01*
X155321414Y-93802889D01*
X155423738Y-93956028D01*
X155553972Y-94086262D01*
X155707111Y-94188586D01*
X155877271Y-94259068D01*
X156057911Y-94295000D01*
X156242089Y-94295000D01*
X156422729Y-94259068D01*
X156592889Y-94188586D01*
X156746028Y-94086262D01*
X156876262Y-93956028D01*
X156978586Y-93802889D01*
X157049068Y-93632729D01*
X157085000Y-93452089D01*
X157085000Y-93267911D01*
X157049068Y-93087271D01*
X156978586Y-92917111D01*
X156876262Y-92763972D01*
X156746028Y-92633738D01*
X156592889Y-92531414D01*
X156422729Y-92460932D01*
X156242089Y-92425000D01*
X156057911Y-92425000D01*
X155877271Y-92460932D01*
X155707111Y-92531414D01*
X155553972Y-92633738D01*
X155423738Y-92763972D01*
X155321414Y-92917111D01*
X155250932Y-93087271D01*
X155215000Y-93267911D01*
X145685011Y-93267911D01*
X145685011Y-93107915D01*
X145649079Y-92927275D01*
X145578597Y-92757115D01*
X145476273Y-92603976D01*
X145346039Y-92473742D01*
X145192900Y-92371418D01*
X145022740Y-92300936D01*
X144842100Y-92265004D01*
X144657922Y-92265004D01*
X144477282Y-92300936D01*
X144307122Y-92371418D01*
X144153983Y-92473742D01*
X144100008Y-92527718D01*
X144096028Y-92523738D01*
X143942889Y-92421414D01*
X143772729Y-92350932D01*
X143592089Y-92315000D01*
X143407911Y-92315000D01*
X143227271Y-92350932D01*
X143057111Y-92421414D01*
X142903972Y-92523738D01*
X142773738Y-92653972D01*
X142733296Y-92714498D01*
X142726262Y-92703972D01*
X142596028Y-92573738D01*
X142442889Y-92471414D01*
X142272729Y-92400932D01*
X142092089Y-92365000D01*
X141907911Y-92365000D01*
X141727271Y-92400932D01*
X141557111Y-92471414D01*
X141403972Y-92573738D01*
X141273738Y-92703972D01*
X141171414Y-92857111D01*
X141100932Y-93027271D01*
X141065000Y-93207911D01*
X125385000Y-93207911D01*
X125385000Y-91100000D01*
X136973000Y-91100000D01*
X136973000Y-93000000D01*
X136975440Y-93024776D01*
X136982667Y-93048601D01*
X136994403Y-93070557D01*
X137010197Y-93089803D01*
X137029443Y-93105597D01*
X137051399Y-93117333D01*
X137075224Y-93124560D01*
X137100000Y-93127000D01*
X138100000Y-93127000D01*
X138124776Y-93124560D01*
X138148601Y-93117333D01*
X138170557Y-93105597D01*
X138189803Y-93089803D01*
X138205597Y-93070557D01*
X138217333Y-93048601D01*
X138224560Y-93024776D01*
X138227000Y-93000000D01*
X138227000Y-91100000D01*
X138224560Y-91075224D01*
X138217333Y-91051399D01*
X138205597Y-91029443D01*
X138189803Y-91010197D01*
X138170557Y-90994403D01*
X138148601Y-90982667D01*
X138124776Y-90975440D01*
X138100000Y-90973000D01*
X137100000Y-90973000D01*
X137075224Y-90975440D01*
X137051399Y-90982667D01*
X137029443Y-90994403D01*
X137010197Y-91010197D01*
X136994403Y-91029443D01*
X136982667Y-91051399D01*
X136975440Y-91075224D01*
X136973000Y-91100000D01*
X125385000Y-91100000D01*
X125385000Y-89807911D01*
X142965008Y-89807911D01*
X142965008Y-89992089D01*
X143000940Y-90172729D01*
X143071422Y-90342889D01*
X143116185Y-90409881D01*
X143100921Y-90446731D01*
X143064989Y-90627371D01*
X143064989Y-90811549D01*
X143100921Y-90992189D01*
X143171403Y-91162349D01*
X143273727Y-91315488D01*
X143403961Y-91445722D01*
X143557100Y-91548046D01*
X143727260Y-91618528D01*
X143907900Y-91654460D01*
X144092078Y-91654460D01*
X144272718Y-91618528D01*
X144442878Y-91548046D01*
X144596017Y-91445722D01*
X144726251Y-91315488D01*
X144828575Y-91162349D01*
X144899057Y-90992189D01*
X144934989Y-90811549D01*
X144934989Y-90627371D01*
X144899057Y-90446731D01*
X144828575Y-90276571D01*
X144783812Y-90209579D01*
X144799076Y-90172729D01*
X144835008Y-89992089D01*
X144835008Y-89807911D01*
X144799076Y-89627271D01*
X144728594Y-89457111D01*
X144695720Y-89407911D01*
X156815000Y-89407911D01*
X156815000Y-89592089D01*
X156850932Y-89772729D01*
X156921414Y-89942889D01*
X157023738Y-90096028D01*
X157153972Y-90226262D01*
X157307111Y-90328586D01*
X157477271Y-90399068D01*
X157657911Y-90435000D01*
X157842089Y-90435000D01*
X158022729Y-90399068D01*
X158192889Y-90328586D01*
X158346028Y-90226262D01*
X158476262Y-90096028D01*
X158578586Y-89942889D01*
X158649068Y-89772729D01*
X158685000Y-89592089D01*
X158685000Y-89407911D01*
X158649068Y-89227271D01*
X158578586Y-89057111D01*
X158476262Y-88903972D01*
X158346028Y-88773738D01*
X158192889Y-88671414D01*
X158022729Y-88600932D01*
X157842089Y-88565000D01*
X157657911Y-88565000D01*
X157477271Y-88600932D01*
X157307111Y-88671414D01*
X157153972Y-88773738D01*
X157023738Y-88903972D01*
X156921414Y-89057111D01*
X156850932Y-89227271D01*
X156815000Y-89407911D01*
X144695720Y-89407911D01*
X144626270Y-89303972D01*
X144496036Y-89173738D01*
X144342897Y-89071414D01*
X144172737Y-89000932D01*
X143992097Y-88965000D01*
X143807919Y-88965000D01*
X143627279Y-89000932D01*
X143457119Y-89071414D01*
X143303980Y-89173738D01*
X143173746Y-89303972D01*
X143071422Y-89457111D01*
X143000940Y-89627271D01*
X142965008Y-89807911D01*
X125385000Y-89807911D01*
X125385000Y-87407911D01*
X152315000Y-87407911D01*
X152315000Y-87592089D01*
X152350932Y-87772729D01*
X152421414Y-87942889D01*
X152523738Y-88096028D01*
X152653972Y-88226262D01*
X152807111Y-88328586D01*
X152977271Y-88399068D01*
X153157911Y-88435000D01*
X153342089Y-88435000D01*
X153522729Y-88399068D01*
X153692889Y-88328586D01*
X153846028Y-88226262D01*
X153976262Y-88096028D01*
X154075903Y-87946904D01*
X154100932Y-88072729D01*
X154171414Y-88242889D01*
X154273738Y-88396028D01*
X154403972Y-88526262D01*
X154557111Y-88628586D01*
X154727271Y-88699068D01*
X154907911Y-88735000D01*
X155092089Y-88735000D01*
X155272729Y-88699068D01*
X155442889Y-88628586D01*
X155596028Y-88526262D01*
X155726262Y-88396028D01*
X155828586Y-88242889D01*
X155899068Y-88072729D01*
X155931695Y-87908704D01*
X155940403Y-87952481D01*
X156010885Y-88122641D01*
X156113209Y-88275780D01*
X156243443Y-88406014D01*
X156396582Y-88508338D01*
X156566742Y-88578820D01*
X156747382Y-88614752D01*
X156931560Y-88614752D01*
X157112200Y-88578820D01*
X157282360Y-88508338D01*
X157360870Y-88455879D01*
X159258996Y-88455879D01*
X159258996Y-88640057D01*
X159294928Y-88820697D01*
X159365410Y-88990857D01*
X159467734Y-89143996D01*
X159597968Y-89274230D01*
X159751107Y-89376554D01*
X159921267Y-89447036D01*
X160101907Y-89482968D01*
X160286085Y-89482968D01*
X160466725Y-89447036D01*
X160636885Y-89376554D01*
X160790024Y-89274230D01*
X160920258Y-89143996D01*
X161022582Y-88990857D01*
X161093064Y-88820697D01*
X161128996Y-88640057D01*
X161128996Y-88455879D01*
X161093064Y-88275239D01*
X161076700Y-88235732D01*
X161103922Y-88194991D01*
X161174404Y-88024831D01*
X161210336Y-87844191D01*
X161210336Y-87660013D01*
X161174404Y-87479373D01*
X161103922Y-87309213D01*
X161001598Y-87156074D01*
X160871364Y-87025840D01*
X160718225Y-86923516D01*
X160548065Y-86853034D01*
X160367425Y-86817102D01*
X160183247Y-86817102D01*
X160002607Y-86853034D01*
X159832447Y-86923516D01*
X159679308Y-87025840D01*
X159549074Y-87156074D01*
X159446750Y-87309213D01*
X159376268Y-87479373D01*
X159340336Y-87660013D01*
X159340336Y-87844191D01*
X159376268Y-88024831D01*
X159392632Y-88064338D01*
X159365410Y-88105079D01*
X159294928Y-88275239D01*
X159258996Y-88455879D01*
X157360870Y-88455879D01*
X157435499Y-88406014D01*
X157565733Y-88275780D01*
X157668057Y-88122641D01*
X157738539Y-87952481D01*
X157774471Y-87771841D01*
X157774471Y-87587663D01*
X157738539Y-87407023D01*
X157668057Y-87236863D01*
X157565733Y-87083724D01*
X157435499Y-86953490D01*
X157282360Y-86851166D01*
X157112200Y-86780684D01*
X156931560Y-86744752D01*
X156747382Y-86744752D01*
X156566742Y-86780684D01*
X156396582Y-86851166D01*
X156243443Y-86953490D01*
X156113209Y-87083724D01*
X156010885Y-87236863D01*
X155940403Y-87407023D01*
X155907776Y-87571048D01*
X155899068Y-87527271D01*
X155828586Y-87357111D01*
X155726262Y-87203972D01*
X155596028Y-87073738D01*
X155442889Y-86971414D01*
X155272729Y-86900932D01*
X155092089Y-86865000D01*
X154907911Y-86865000D01*
X154727271Y-86900932D01*
X154557111Y-86971414D01*
X154403972Y-87073738D01*
X154273738Y-87203972D01*
X154174097Y-87353096D01*
X154149068Y-87227271D01*
X154078586Y-87057111D01*
X153976262Y-86903972D01*
X153846028Y-86773738D01*
X153692889Y-86671414D01*
X153522729Y-86600932D01*
X153342089Y-86565000D01*
X153157911Y-86565000D01*
X152977271Y-86600932D01*
X152807111Y-86671414D01*
X152653972Y-86773738D01*
X152523738Y-86903972D01*
X152421414Y-87057111D01*
X152350932Y-87227271D01*
X152315000Y-87407911D01*
X125385000Y-87407911D01*
X125385000Y-86485000D01*
X162907396Y-86485000D01*
X162827271Y-86500938D01*
M02*
