M48
; DRILL file {KiCad (5.1.5-0-10_14)} date Monday, March 09, 2020 at 09:53:26 PM
; FORMAT={-:-/ absolute / inch / decimal}
; #@! TF.CreationDate,2020-03-09T21:53:26-07:00
; #@! TF.GenerationSoftware,Kicad,Pcbnew,(5.1.5-0-10_14)
; #@! TF.FileFunction,Plated,1,4,PTH
FMAT,2
INCH
T1C0.0079
T2C0.0118
T3C0.0157
T4C0.1063
%
G90
G05
T1
X6.1831Y-4.313
X6.1831Y-4.3602
X6.1831Y-4.4075
X6.2382Y-4.313
X6.2382Y-4.3602
X6.2382Y-4.4075
T2
X5.0236Y-3.7323
X5.0236Y-4.185
X5.0787Y-4.1142
X5.0866Y-3.7913
X5.0866Y-4.252
X5.0945Y-3.6693
X5.1339Y-3.6299
X5.1339Y-4.1142
X5.1339Y-4.2244
X5.1535Y-4.2717
X5.1654Y-3.7677
X5.1732Y-3.5906
X5.185Y-3.7205
X5.189Y-4.1142
X5.2008Y-4.2795
X5.2126Y-3.5512
X5.2165Y-4.1457
X5.2244Y-3.6811
X5.2283Y-4.189
X5.248Y-4.2795
X5.2559Y-3.5197
X5.2638Y-3.6417
X5.2756Y-4.1378
X5.2953Y-4.2618
X5.3071Y-3.6142
X5.311Y-3.5197
X5.3183Y-4.0669
X5.3189Y-4.1024
X5.3228Y-3.7638
X5.3228Y-3.7874
X5.3248Y-3.9665
X5.3266Y-3.8503
X5.3268Y-4.2283
X5.3294Y-4.0157
X5.3661Y-3.5197
X5.374Y-4.1732
X5.374Y-4.311
X5.4134Y-3.5472
X5.4193Y-3.9862
X5.4232Y-4.2864
X5.5413Y-4.3307
X5.5433Y-3.7165
X5.5472Y-3.9291
X5.5709Y-4.3012
X5.5906Y-3.6732
X5.6102Y-3.8701
X5.6102Y-3.9882
X5.6496Y-3.6713
X5.6654Y-3.5394
X5.6693Y-3.5716
X5.6762Y-3.9291
X5.6988Y-3.6693
X5.7149Y-3.4661
X5.8937Y-3.9291
X5.8937Y-3.9606
X5.8976Y-4.1181
X5.8976Y-4.1496
X5.9213Y-3.6457
X5.9449Y-3.5354
X6.0335Y-3.4449
X6.063Y-3.6575
X6.0866Y-3.5354
X6.1024Y-3.4567
X6.1063Y-3.9724
X6.122Y-4.0266
X6.1476Y-3.6756
X6.1614Y-3.8484
X6.1654Y-4.0157
X6.1748Y-3.452
X6.1869Y-4.125
X6.1909Y-3.9518
X6.2047Y-3.6535
X6.2106Y-3.5236
X6.2205Y-3.7717
X6.2362Y-4.0787
X6.2451Y-3.807
X6.2697Y-4.0059
X6.2697Y-3.9665
X6.2697Y-4.0453
X6.2707Y-3.8484
X6.2726Y-3.6909
X6.2726Y-3.7303
X6.2847Y-3.7754
X6.3069Y-3.4861
X6.3101Y-3.4548
X6.3189Y-3.6142
X6.3661Y-3.7598
X6.3661Y-3.8189
X6.3878Y-3.8878
X6.4213Y-3.4409
X6.4646Y-3.5591
X6.4646Y-3.5906
X6.4764Y-4.0256
X6.4921Y-3.8802
X6.4951Y-3.7733
X6.5187Y-3.752
X6.5197Y-3.9048
X6.5468Y-4.024
X6.5472Y-3.9331
X6.551Y-3.7203
X6.5531Y-4.065
X6.5827Y-4.1024
X6.5968Y-3.833
X6.6063Y-3.748
X6.6205Y-4.3937
X6.6243Y-3.8054
X6.6398Y-4.3799
T3
X5.0394Y-3.9449
X5.0394Y-3.9764
X5.0709Y-3.9291
X5.0709Y-3.9606
X5.0709Y-3.9921
X5.8661Y-4.5118
X5.8976Y-4.2283
X5.8976Y-4.5118
X5.9291Y-4.5118
X5.9606Y-4.5118
X6.5906Y-4.2795
T4
X5.0236Y-3.4921
X5.0236Y-4.4449
T0
M30
